<?xml version="1.0" encoding="utf-8" standalone="no"?>
<!DOCTYPE svg PUBLIC "-//W3C//DTD SVG 1.1//EN"
  "http://www.w3.org/Graphics/SVG/1.1/DTD/svg11.dtd">
<svg xmlns:xlink="http://www.w3.org/1999/xlink" width="504pt" height="360pt" viewBox="0 0 504 360" xmlns="http://www.w3.org/2000/svg" version="1.1">
 <metadata>
  <rdf:RDF xmlns:dc="http://purl.org/dc/elements/1.1/" xmlns:cc="http://creativecommons.org/ns#" xmlns:rdf="http://www.w3.org/1999/02/22-rdf-syntax-ns#">
   <cc:Work>
    <dc:type rdf:resource="http://purl.org/dc/dcmitype/StillImage"/>
    <dc:date>2024-10-20T17:46:52.204486</dc:date>
    <dc:format>image/svg+xml</dc:format>
    <dc:creator>
     <cc:Agent>
      <dc:title>Matplotlib v3.9.2, https://matplotlib.org/</dc:title>
     </cc:Agent>
    </dc:creator>
   </cc:Work>
  </rdf:RDF>
 </metadata>
 <defs>
  <style type="text/css">*{stroke-linejoin: round; stroke-linecap: butt}</style>
 </defs>
 <g id="figure_1">
  <g id="patch_1">
   <path d="M 0 360 
L 504 360 
L 504 0 
L 0 0 
z
" style="fill: #ffffff"/>
  </g>
  <g id="axes_1">
   <g id="patch_2">
    <path d="M 60.525 309.1 
L 493.2 309.1 
L 493.2 28.8 
L 60.525 28.8 
z
" style="fill: #ffffff"/>
   </g>
   <g id="matplotlib.axis_1">
    <g id="xtick_1">
     <g id="line2d_1">
      <path d="M 80.192045 309.1 
L 80.192045 28.8 
" clip-path="url(#pd6b995af98)" style="fill: none; stroke: #808080; stroke-width: 0.8; stroke-linecap: square"/>
     </g>
     <g id="line2d_2">
      <defs>
       <path id="m01a4e79e97" d="M 0 0 
L 0 3.5 
" style="stroke: #000000; stroke-width: 0.8"/>
      </defs>
      <g>
       <use xlink:href="#m01a4e79e97" x="80.192045" y="309.1" style="stroke: #000000; stroke-width: 0.8"/>
      </g>
     </g>
     <g id="text_1">
      <!-- 0.00 -->
      <g transform="translate(66.83267 325.218125) scale(0.12 -0.12)">
       <defs>
        <path id="DejaVuSans-30" d="M 2034 4250 
Q 1547 4250 1301 3770 
Q 1056 3291 1056 2328 
Q 1056 1369 1301 889 
Q 1547 409 2034 409 
Q 2525 409 2770 889 
Q 3016 1369 3016 2328 
Q 3016 3291 2770 3770 
Q 2525 4250 2034 4250 
z
M 2034 4750 
Q 2819 4750 3233 4129 
Q 3647 3509 3647 2328 
Q 3647 1150 3233 529 
Q 2819 -91 2034 -91 
Q 1250 -91 836 529 
Q 422 1150 422 2328 
Q 422 3509 836 4129 
Q 1250 4750 2034 4750 
z
" transform="scale(0.015625)"/>
        <path id="DejaVuSans-2e" d="M 684 794 
L 1344 794 
L 1344 0 
L 684 0 
L 684 794 
z
" transform="scale(0.015625)"/>
       </defs>
       <use xlink:href="#DejaVuSans-30"/>
       <use xlink:href="#DejaVuSans-2e" x="63.623047"/>
       <use xlink:href="#DejaVuSans-30" x="95.410156"/>
       <use xlink:href="#DejaVuSans-30" x="159.033203"/>
      </g>
     </g>
    </g>
    <g id="xtick_2">
     <g id="line2d_3">
      <path d="M 134.822727 309.1 
L 134.822727 28.8 
" clip-path="url(#pd6b995af98)" style="fill: none; stroke: #808080; stroke-width: 0.8; stroke-linecap: square"/>
     </g>
     <g id="line2d_4">
      <g>
       <use xlink:href="#m01a4e79e97" x="134.822727" y="309.1" style="stroke: #000000; stroke-width: 0.8"/>
      </g>
     </g>
     <g id="text_2">
      <!-- 0.25 -->
      <g transform="translate(121.463352 325.218125) scale(0.12 -0.12)">
       <defs>
        <path id="DejaVuSans-32" d="M 1228 531 
L 3431 531 
L 3431 0 
L 469 0 
L 469 531 
Q 828 903 1448 1529 
Q 2069 2156 2228 2338 
Q 2531 2678 2651 2914 
Q 2772 3150 2772 3378 
Q 2772 3750 2511 3984 
Q 2250 4219 1831 4219 
Q 1534 4219 1204 4116 
Q 875 4013 500 3803 
L 500 4441 
Q 881 4594 1212 4672 
Q 1544 4750 1819 4750 
Q 2544 4750 2975 4387 
Q 3406 4025 3406 3419 
Q 3406 3131 3298 2873 
Q 3191 2616 2906 2266 
Q 2828 2175 2409 1742 
Q 1991 1309 1228 531 
z
" transform="scale(0.015625)"/>
        <path id="DejaVuSans-35" d="M 691 4666 
L 3169 4666 
L 3169 4134 
L 1269 4134 
L 1269 2991 
Q 1406 3038 1543 3061 
Q 1681 3084 1819 3084 
Q 2600 3084 3056 2656 
Q 3513 2228 3513 1497 
Q 3513 744 3044 326 
Q 2575 -91 1722 -91 
Q 1428 -91 1123 -41 
Q 819 9 494 109 
L 494 744 
Q 775 591 1075 516 
Q 1375 441 1709 441 
Q 2250 441 2565 725 
Q 2881 1009 2881 1497 
Q 2881 1984 2565 2268 
Q 2250 2553 1709 2553 
Q 1456 2553 1204 2497 
Q 953 2441 691 2322 
L 691 4666 
z
" transform="scale(0.015625)"/>
       </defs>
       <use xlink:href="#DejaVuSans-30"/>
       <use xlink:href="#DejaVuSans-2e" x="63.623047"/>
       <use xlink:href="#DejaVuSans-32" x="95.410156"/>
       <use xlink:href="#DejaVuSans-35" x="159.033203"/>
      </g>
     </g>
    </g>
    <g id="xtick_3">
     <g id="line2d_5">
      <path d="M 189.453409 309.1 
L 189.453409 28.8 
" clip-path="url(#pd6b995af98)" style="fill: none; stroke: #808080; stroke-width: 0.8; stroke-linecap: square"/>
     </g>
     <g id="line2d_6">
      <g>
       <use xlink:href="#m01a4e79e97" x="189.453409" y="309.1" style="stroke: #000000; stroke-width: 0.8"/>
      </g>
     </g>
     <g id="text_3">
      <!-- 0.50 -->
      <g transform="translate(176.094034 325.218125) scale(0.12 -0.12)">
       <use xlink:href="#DejaVuSans-30"/>
       <use xlink:href="#DejaVuSans-2e" x="63.623047"/>
       <use xlink:href="#DejaVuSans-35" x="95.410156"/>
       <use xlink:href="#DejaVuSans-30" x="159.033203"/>
      </g>
     </g>
    </g>
    <g id="xtick_4">
     <g id="line2d_7">
      <path d="M 244.084091 309.1 
L 244.084091 28.8 
" clip-path="url(#pd6b995af98)" style="fill: none; stroke: #808080; stroke-width: 0.8; stroke-linecap: square"/>
     </g>
     <g id="line2d_8">
      <g>
       <use xlink:href="#m01a4e79e97" x="244.084091" y="309.1" style="stroke: #000000; stroke-width: 0.8"/>
      </g>
     </g>
     <g id="text_4">
      <!-- 0.75 -->
      <g transform="translate(230.724716 325.218125) scale(0.12 -0.12)">
       <defs>
        <path id="DejaVuSans-37" d="M 525 4666 
L 3525 4666 
L 3525 4397 
L 1831 0 
L 1172 0 
L 2766 4134 
L 525 4134 
L 525 4666 
z
" transform="scale(0.015625)"/>
       </defs>
       <use xlink:href="#DejaVuSans-30"/>
       <use xlink:href="#DejaVuSans-2e" x="63.623047"/>
       <use xlink:href="#DejaVuSans-37" x="95.410156"/>
       <use xlink:href="#DejaVuSans-35" x="159.033203"/>
      </g>
     </g>
    </g>
    <g id="xtick_5">
     <g id="line2d_9">
      <path d="M 298.714773 309.1 
L 298.714773 28.8 
" clip-path="url(#pd6b995af98)" style="fill: none; stroke: #808080; stroke-width: 0.8; stroke-linecap: square"/>
     </g>
     <g id="line2d_10">
      <g>
       <use xlink:href="#m01a4e79e97" x="298.714773" y="309.1" style="stroke: #000000; stroke-width: 0.8"/>
      </g>
     </g>
     <g id="text_5">
      <!-- 1.00 -->
      <g transform="translate(285.355398 325.218125) scale(0.12 -0.12)">
       <defs>
        <path id="DejaVuSans-31" d="M 794 531 
L 1825 531 
L 1825 4091 
L 703 3866 
L 703 4441 
L 1819 4666 
L 2450 4666 
L 2450 531 
L 3481 531 
L 3481 0 
L 794 0 
L 794 531 
z
" transform="scale(0.015625)"/>
       </defs>
       <use xlink:href="#DejaVuSans-31"/>
       <use xlink:href="#DejaVuSans-2e" x="63.623047"/>
       <use xlink:href="#DejaVuSans-30" x="95.410156"/>
       <use xlink:href="#DejaVuSans-30" x="159.033203"/>
      </g>
     </g>
    </g>
    <g id="xtick_6">
     <g id="line2d_11">
      <path d="M 353.345455 309.1 
L 353.345455 28.8 
" clip-path="url(#pd6b995af98)" style="fill: none; stroke: #808080; stroke-width: 0.8; stroke-linecap: square"/>
     </g>
     <g id="line2d_12">
      <g>
       <use xlink:href="#m01a4e79e97" x="353.345455" y="309.1" style="stroke: #000000; stroke-width: 0.8"/>
      </g>
     </g>
     <g id="text_6">
      <!-- 1.25 -->
      <g transform="translate(339.98608 325.218125) scale(0.12 -0.12)">
       <use xlink:href="#DejaVuSans-31"/>
       <use xlink:href="#DejaVuSans-2e" x="63.623047"/>
       <use xlink:href="#DejaVuSans-32" x="95.410156"/>
       <use xlink:href="#DejaVuSans-35" x="159.033203"/>
      </g>
     </g>
    </g>
    <g id="xtick_7">
     <g id="line2d_13">
      <path d="M 407.976136 309.1 
L 407.976136 28.8 
" clip-path="url(#pd6b995af98)" style="fill: none; stroke: #808080; stroke-width: 0.8; stroke-linecap: square"/>
     </g>
     <g id="line2d_14">
      <g>
       <use xlink:href="#m01a4e79e97" x="407.976136" y="309.1" style="stroke: #000000; stroke-width: 0.8"/>
      </g>
     </g>
     <g id="text_7">
      <!-- 1.50 -->
      <g transform="translate(394.616761 325.218125) scale(0.12 -0.12)">
       <use xlink:href="#DejaVuSans-31"/>
       <use xlink:href="#DejaVuSans-2e" x="63.623047"/>
       <use xlink:href="#DejaVuSans-35" x="95.410156"/>
       <use xlink:href="#DejaVuSans-30" x="159.033203"/>
      </g>
     </g>
    </g>
    <g id="xtick_8">
     <g id="line2d_15">
      <path d="M 462.606818 309.1 
L 462.606818 28.8 
" clip-path="url(#pd6b995af98)" style="fill: none; stroke: #808080; stroke-width: 0.8; stroke-linecap: square"/>
     </g>
     <g id="line2d_16">
      <g>
       <use xlink:href="#m01a4e79e97" x="462.606818" y="309.1" style="stroke: #000000; stroke-width: 0.8"/>
      </g>
     </g>
     <g id="text_8">
      <!-- 1.75 -->
      <g transform="translate(449.247443 325.218125) scale(0.12 -0.12)">
       <use xlink:href="#DejaVuSans-31"/>
       <use xlink:href="#DejaVuSans-2e" x="63.623047"/>
       <use xlink:href="#DejaVuSans-37" x="95.410156"/>
       <use xlink:href="#DejaVuSans-35" x="159.033203"/>
      </g>
     </g>
    </g>
    <g id="text_9">
     <!-- $V_{G}$ [V] -->
     <g transform="translate(258.6225 340.831875) scale(0.12 -0.12)">
      <defs>
       <path id="DejaVuSans-Oblique-56" d="M 1319 0 
L 500 4666 
L 1119 4666 
L 1797 653 
L 4063 4666 
L 4750 4666 
L 2053 0 
L 1319 0 
z
" transform="scale(0.015625)"/>
       <path id="DejaVuSans-Oblique-47" d="M 3494 697 
L 3738 1919 
L 2700 1919 
L 2797 2438 
L 4453 2438 
L 4050 384 
Q 3634 156 3143 32 
Q 2653 -91 2156 -91 
Q 1278 -91 783 396 
Q 288 884 288 1753 
Q 288 2475 589 3126 
Q 891 3778 1422 4213 
Q 1756 4484 2153 4617 
Q 2550 4750 3034 4750 
Q 3472 4750 3873 4639 
Q 4275 4528 4641 4306 
L 4513 3634 
Q 4231 3928 3853 4083 
Q 3475 4238 3047 4238 
Q 2550 4238 2172 4048 
Q 1794 3859 1497 3463 
Q 1244 3125 1098 2667 
Q 953 2209 953 1734 
Q 953 1081 1287 751 
Q 1622 422 2284 422 
Q 2616 422 2925 492 
Q 3234 563 3494 697 
z
" transform="scale(0.015625)"/>
       <path id="DejaVuSans-20" transform="scale(0.015625)"/>
       <path id="DejaVuSans-5b" d="M 550 4863 
L 1875 4863 
L 1875 4416 
L 1125 4416 
L 1125 -397 
L 1875 -397 
L 1875 -844 
L 550 -844 
L 550 4863 
z
" transform="scale(0.015625)"/>
       <path id="DejaVuSans-56" d="M 1831 0 
L 50 4666 
L 709 4666 
L 2188 738 
L 3669 4666 
L 4325 4666 
L 2547 0 
L 1831 0 
z
" transform="scale(0.015625)"/>
       <path id="DejaVuSans-5d" d="M 1947 4863 
L 1947 -844 
L 622 -844 
L 622 -397 
L 1369 -397 
L 1369 4416 
L 622 4416 
L 622 4863 
L 1947 4863 
z
" transform="scale(0.015625)"/>
      </defs>
      <use xlink:href="#DejaVuSans-Oblique-56" transform="translate(0 0.015625)"/>
      <use xlink:href="#DejaVuSans-Oblique-47" transform="translate(68.408203 -16.390625) scale(0.7)"/>
      <use xlink:href="#DejaVuSans-20" transform="translate(125.385742 0.015625)"/>
      <use xlink:href="#DejaVuSans-5b" transform="translate(157.172852 0.015625)"/>
      <use xlink:href="#DejaVuSans-56" transform="translate(196.186523 0.015625)"/>
      <use xlink:href="#DejaVuSans-5d" transform="translate(264.594727 0.015625)"/>
     </g>
    </g>
   </g>
   <g id="matplotlib.axis_2">
    <g id="ytick_1">
     <g id="line2d_17">
      <path d="M 60.525 296.359097 
L 493.2 296.359097 
" clip-path="url(#pd6b995af98)" style="fill: none; stroke: #808080; stroke-width: 0.8; stroke-linecap: square"/>
     </g>
     <g id="line2d_18">
      <defs>
       <path id="m6c860e0e1e" d="M 0 0 
L -3.5 0 
" style="stroke: #000000; stroke-width: 0.8"/>
      </defs>
      <g>
       <use xlink:href="#m6c860e0e1e" x="60.525" y="296.359097" style="stroke: #000000; stroke-width: 0.8"/>
      </g>
     </g>
     <g id="text_10">
      <!-- 0 -->
      <g transform="translate(45.89 300.918159) scale(0.12 -0.12)">
       <use xlink:href="#DejaVuSans-30"/>
      </g>
     </g>
    </g>
    <g id="ytick_2">
     <g id="line2d_19">
      <path d="M 60.525 239.573669 
L 493.2 239.573669 
" clip-path="url(#pd6b995af98)" style="fill: none; stroke: #808080; stroke-width: 0.8; stroke-linecap: square"/>
     </g>
     <g id="line2d_20">
      <g>
       <use xlink:href="#m6c860e0e1e" x="60.525" y="239.573669" style="stroke: #000000; stroke-width: 0.8"/>
      </g>
     </g>
     <g id="text_11">
      <!-- 50 -->
      <g transform="translate(38.255 244.132731) scale(0.12 -0.12)">
       <use xlink:href="#DejaVuSans-35"/>
       <use xlink:href="#DejaVuSans-30" x="63.623047"/>
      </g>
     </g>
    </g>
    <g id="ytick_3">
     <g id="line2d_21">
      <path d="M 60.525 182.788241 
L 493.2 182.788241 
" clip-path="url(#pd6b995af98)" style="fill: none; stroke: #808080; stroke-width: 0.8; stroke-linecap: square"/>
     </g>
     <g id="line2d_22">
      <g>
       <use xlink:href="#m6c860e0e1e" x="60.525" y="182.788241" style="stroke: #000000; stroke-width: 0.8"/>
      </g>
     </g>
     <g id="text_12">
      <!-- 100 -->
      <g transform="translate(30.62 187.347304) scale(0.12 -0.12)">
       <use xlink:href="#DejaVuSans-31"/>
       <use xlink:href="#DejaVuSans-30" x="63.623047"/>
       <use xlink:href="#DejaVuSans-30" x="127.246094"/>
      </g>
     </g>
    </g>
    <g id="ytick_4">
     <g id="line2d_23">
      <path d="M 60.525 126.002813 
L 493.2 126.002813 
" clip-path="url(#pd6b995af98)" style="fill: none; stroke: #808080; stroke-width: 0.8; stroke-linecap: square"/>
     </g>
     <g id="line2d_24">
      <g>
       <use xlink:href="#m6c860e0e1e" x="60.525" y="126.002813" style="stroke: #000000; stroke-width: 0.8"/>
      </g>
     </g>
     <g id="text_13">
      <!-- 150 -->
      <g transform="translate(30.62 130.561876) scale(0.12 -0.12)">
       <use xlink:href="#DejaVuSans-31"/>
       <use xlink:href="#DejaVuSans-35" x="63.623047"/>
       <use xlink:href="#DejaVuSans-30" x="127.246094"/>
      </g>
     </g>
    </g>
    <g id="ytick_5">
     <g id="line2d_25">
      <path d="M 60.525 69.217386 
L 493.2 69.217386 
" clip-path="url(#pd6b995af98)" style="fill: none; stroke: #808080; stroke-width: 0.8; stroke-linecap: square"/>
     </g>
     <g id="line2d_26">
      <g>
       <use xlink:href="#m6c860e0e1e" x="60.525" y="69.217386" style="stroke: #000000; stroke-width: 0.8"/>
      </g>
     </g>
     <g id="text_14">
      <!-- 200 -->
      <g transform="translate(30.62 73.776448) scale(0.12 -0.12)">
       <use xlink:href="#DejaVuSans-32"/>
       <use xlink:href="#DejaVuSans-30" x="63.623047"/>
       <use xlink:href="#DejaVuSans-30" x="127.246094"/>
      </g>
     </g>
    </g>
    <g id="text_15">
     <!-- $I_{DS X1}\,$ [uA] -->
     <g transform="translate(24.124375 197.81) rotate(-90) scale(0.12 -0.12)">
      <defs>
       <path id="DejaVuSans-Oblique-49" d="M 1081 4666 
L 1716 4666 
L 806 0 
L 172 0 
L 1081 4666 
z
" transform="scale(0.015625)"/>
       <path id="DejaVuSans-Oblique-44" d="M 1081 4666 
L 2438 4666 
Q 3519 4666 4070 4208 
Q 4622 3750 4622 2847 
Q 4622 2250 4412 1698 
Q 4203 1147 3834 769 
Q 3463 381 2891 190 
Q 2319 0 1538 0 
L 172 0 
L 1081 4666 
z
M 1613 4147 
L 909 519 
L 1734 519 
Q 2794 519 3375 1128 
Q 3956 1738 3956 2847 
Q 3956 3519 3581 3833 
Q 3206 4147 2406 4147 
L 1613 4147 
z
" transform="scale(0.015625)"/>
       <path id="DejaVuSans-Oblique-53" d="M 3859 4513 
L 3738 3897 
Q 3422 4066 3111 4152 
Q 2800 4238 2509 4238 
Q 1944 4238 1609 3991 
Q 1275 3744 1275 3334 
Q 1275 3109 1398 2989 
Q 1522 2869 2034 2731 
L 2413 2638 
Q 3053 2472 3303 2217 
Q 3553 1963 3553 1503 
Q 3553 797 2998 353 
Q 2444 -91 1538 -91 
Q 1166 -91 791 -17 
Q 416 56 38 206 
L 166 856 
Q 513 641 861 531 
Q 1209 422 1556 422 
Q 2147 422 2503 684 
Q 2859 947 2859 1369 
Q 2859 1650 2717 1795 
Q 2575 1941 2106 2059 
L 1728 2156 
Q 1081 2325 845 2545 
Q 609 2766 609 3163 
Q 609 3859 1145 4304 
Q 1681 4750 2541 4750 
Q 2875 4750 3203 4690 
Q 3531 4631 3859 4513 
z
" transform="scale(0.015625)"/>
       <path id="DejaVuSans-Oblique-58" d="M 878 4666 
L 1516 4666 
L 2316 2981 
L 3763 4666 
L 4500 4666 
L 2578 2438 
L 3738 0 
L 3103 0 
L 2163 1966 
L 459 0 
L -275 0 
L 1906 2509 
L 878 4666 
z
" transform="scale(0.015625)"/>
       <path id="DejaVuSans-75" d="M 544 1381 
L 544 3500 
L 1119 3500 
L 1119 1403 
Q 1119 906 1312 657 
Q 1506 409 1894 409 
Q 2359 409 2629 706 
Q 2900 1003 2900 1516 
L 2900 3500 
L 3475 3500 
L 3475 0 
L 2900 0 
L 2900 538 
Q 2691 219 2414 64 
Q 2138 -91 1772 -91 
Q 1169 -91 856 284 
Q 544 659 544 1381 
z
M 1991 3584 
L 1991 3584 
z
" transform="scale(0.015625)"/>
       <path id="DejaVuSans-41" d="M 2188 4044 
L 1331 1722 
L 3047 1722 
L 2188 4044 
z
M 1831 4666 
L 2547 4666 
L 4325 0 
L 3669 0 
L 3244 1197 
L 1141 1197 
L 716 0 
L 50 0 
L 1831 4666 
z
" transform="scale(0.015625)"/>
      </defs>
      <use xlink:href="#DejaVuSans-Oblique-49" transform="translate(0 0.015625)"/>
      <use xlink:href="#DejaVuSans-Oblique-44" transform="translate(29.492188 -16.390625) scale(0.7)"/>
      <use xlink:href="#DejaVuSans-Oblique-53" transform="translate(83.393555 -16.390625) scale(0.7)"/>
      <use xlink:href="#DejaVuSans-Oblique-58" transform="translate(127.827148 -16.390625) scale(0.7)"/>
      <use xlink:href="#DejaVuSans-31" transform="translate(175.78125 -16.390625) scale(0.7)"/>
      <use xlink:href="#DejaVuSans-20" transform="translate(239.287434 0.015625)"/>
      <use xlink:href="#DejaVuSans-5b" transform="translate(271.074543 0.015625)"/>
      <use xlink:href="#DejaVuSans-75" transform="translate(310.088215 0.015625)"/>
      <use xlink:href="#DejaVuSans-41" transform="translate(373.467122 0.015625)"/>
      <use xlink:href="#DejaVuSans-5d" transform="translate(441.875325 0.015625)"/>
     </g>
    </g>
   </g>
   <g id="line2d_27">
    <path d="M 80.192045 296.359091 
L 88.219411 296.359081 
L 96.246776 296.359056 
L 104.274142 296.35899 
L 112.301507 296.358813 
L 120.328873 296.358348 
L 128.356238 296.357129 
L 136.383604 296.353963 
L 144.410969 296.345869 
L 152.438335 296.325672 
L 160.4657 296.277059 
L 168.493066 296.165976 
L 176.520431 295.929411 
L 184.547797 295.468125 
L 192.575162 294.654621 
L 200.602528 293.360885 
L 208.629893 291.492358 
L 216.657259 289.00674 
L 224.684624 285.910238 
L 232.71199 282.240833 
L 240.739355 278.050972 
L 248.766721 273.395673 
L 256.794086 268.326341 
L 264.821452 262.888422 
L 272.848817 257.12111 
L 280.876183 251.057937 
L 288.903548 244.727618 
L 296.930914 238.154894 
L 304.958279 231.361279 
L 312.985645 224.365732 
L 321.01301 217.185334 
L 329.040376 209.836201 
L 337.067741 202.335055 
L 345.095107 194.702306 
L 353.122472 186.967819 
L 361.149838 179.180121 
L 369.177203 171.416745 
L 377.204569 163.787733 
L 385.231934 156.422268 
L 393.2593 149.439024 
L 401.286665 142.917293 
L 409.314031 136.886392 
L 417.341396 131.334391 
L 425.368762 126.224895 
L 433.396127 121.511843 
L 441.423493 117.148783 
L 449.450858 113.093314 
L 457.478224 109.308525 
L 465.505589 105.762946 
L 473.532955 102.429909 
" clip-path="url(#pd6b995af98)" style="fill: none; stroke: #ff0000; stroke-width: 2; stroke-linecap: square"/>
   </g>
   <g id="line2d_28">
    <path d="M 80.192045 296.359091 
L 88.219411 296.359081 
L 96.246776 296.359056 
L 104.274142 296.358988 
L 112.301507 296.358809 
L 120.328873 296.358338 
L 128.356238 296.357101 
L 136.383604 296.353889 
L 144.410969 296.34568 
L 152.438335 296.325195 
L 160.4657 296.275887 
L 168.493066 296.163217 
L 176.520431 295.923272 
L 184.547797 295.455396 
L 192.575162 294.630271 
L 200.602528 293.318053 
L 208.629893 291.422833 
L 216.657259 288.901706 
L 224.684624 285.760968 
L 232.71199 282.039144 
L 240.739355 277.789427 
L 248.766721 273.067624 
L 256.794086 267.925872 
L 264.821452 262.410266 
L 272.848817 256.56056 
L 280.876183 250.410758 
L 288.903548 243.989974 
L 296.930914 237.323268 
L 304.958279 230.432376 
L 312.985645 223.336298 
L 321.01301 216.051767 
L 329.040376 208.593624 
L 337.067741 200.975106 
L 345.095107 193.208082 
L 353.122472 185.303242 
L 361.149838 177.270257 
L 369.177203 169.117909 
L 377.204569 160.854225 
L 385.231934 152.486616 
L 393.2593 144.022097 
L 401.286665 135.467701 
L 409.314031 126.831386 
L 417.341396 118.124032 
L 425.368762 109.363558 
L 433.396127 100.582276 
L 441.423493 91.837053 
L 449.450858 83.217188 
L 457.478224 74.839947 
L 465.505589 66.827676 
L 473.532955 59.276291 
" clip-path="url(#pd6b995af98)" style="fill: none; stroke: #0000ff; stroke-width: 2; stroke-linecap: square"/>
   </g>
   <g id="line2d_29">
    <path d="M 80.192045 296.359091 
L 88.219411 296.359081 
L 96.246776 296.359055 
L 104.274142 296.358987 
L 112.301507 296.358805 
L 120.328873 296.358327 
L 128.356238 296.357073 
L 136.383604 296.353816 
L 144.410969 296.345491 
L 152.438335 296.324717 
L 160.4657 296.274715 
L 168.493066 296.160458 
L 176.520431 295.917134 
L 184.547797 295.442668 
L 192.575162 294.605922 
L 200.602528 293.275222 
L 208.629893 291.353308 
L 216.657259 288.796673 
L 224.684624 285.611699 
L 232.71199 281.837454 
L 240.739355 277.527882 
L 248.766721 272.739575 
L 256.794086 267.525404 
L 264.821452 261.932114 
L 272.848817 256.000017 
L 280.876183 249.763599 
L 288.903548 243.252381 
L 296.930914 236.491778 
L 304.958279 229.503831 
L 312.985645 222.307807 
L 321.01301 214.920678 
L 329.040376 207.35749 
L 337.067741 199.631668 
L 345.095107 191.755246 
L 353.122472 183.739063 
L 361.149838 175.592917 
L 369.177203 167.325695 
L 377.204569 158.94548 
L 385.231934 150.459647 
L 393.2593 141.874937 
L 401.286665 133.197527 
L 409.314031 124.433088 
L 417.341396 115.586838 
L 425.368762 106.663585 
L 433.396127 97.667773 
L 441.423493 88.603515 
L 449.450858 79.474645 
L 457.478224 70.284773 
L 465.505589 61.037401 
L 473.532955 51.736165 
" clip-path="url(#pd6b995af98)" style="fill: none; stroke: #008000; stroke-width: 2; stroke-linecap: square"/>
   </g>
   <g id="line2d_30">
    <path d="M 80.192045 296.359091 
L 88.219411 296.359081 
L 96.246776 296.359055 
L 104.274142 296.358985 
L 112.301507 296.358801 
L 120.328873 296.358316 
L 128.356238 296.357045 
L 136.383604 296.353743 
L 144.410969 296.345303 
L 152.438335 296.32424 
L 160.4657 296.273543 
L 168.493066 296.1577 
L 176.520431 295.910996 
L 184.547797 295.42994 
L 192.575162 294.581572 
L 200.602528 293.23239 
L 208.629893 291.283784 
L 216.657259 288.691639 
L 224.684624 285.46243 
L 232.71199 281.635765 
L 240.739355 277.266338 
L 248.766721 272.411526 
L 256.794086 267.124936 
L 264.821452 261.453961 
L 272.848817 255.439475 
L 280.876183 249.116439 
L 288.903548 242.514788 
L 296.930914 235.660287 
L 304.958279 228.575285 
L 312.985645 221.279317 
L 321.01301 213.789589 
L 329.040376 206.121357 
L 337.067741 198.288232 
L 345.095107 190.302415 
L 353.122472 182.174896 
L 361.149838 173.915609 
L 369.177203 165.533564 
L 377.204569 157.036957 
L 385.231934 148.433266 
L 393.2593 139.729323 
L 401.286665 130.931393 
L 409.314031 122.045225 
L 417.341396 113.076109 
L 425.368762 104.028918 
L 433.396127 94.908151 
L 441.423493 85.717968 
L 449.450858 76.462221 
L 457.478224 67.144482 
L 465.505589 57.768067 
L 473.532955 48.336061 
" clip-path="url(#pd6b995af98)" style="fill: none; stroke: #00bfbf; stroke-width: 2; stroke-linecap: square"/>
   </g>
   <g id="line2d_31">
    <path d="M 80.192045 296.359091 
L 88.219411 296.359081 
L 96.246776 296.359054 
L 104.274142 296.358984 
L 112.301507 296.358797 
L 120.328873 296.358306 
L 128.356238 296.357016 
L 136.383604 296.353669 
L 144.410969 296.345114 
L 152.438335 296.323762 
L 160.4657 296.272371 
L 168.493066 296.154941 
L 176.520431 295.904857 
L 184.547797 295.417212 
L 192.575162 294.557222 
L 200.602528 293.189558 
L 208.629893 291.214259 
L 216.657259 288.586605 
L 224.684624 285.31316 
L 232.71199 281.434075 
L 240.739355 277.004793 
L 248.766721 272.083477 
L 256.794086 266.724468 
L 264.821452 260.975809 
L 272.848817 254.878932 
L 280.876183 248.469279 
L 288.903548 241.777194 
L 296.930914 234.828797 
L 304.958279 227.64674 
L 312.985645 220.250827 
L 321.01301 212.6585 
L 329.040376 204.885224 
L 337.067741 196.944795 
L 345.095107 188.849584 
L 353.122472 180.610729 
L 361.149838 172.238301 
L 369.177203 163.741433 
L 377.204569 155.128435 
L 385.231934 146.406884 
L 393.2593 137.58371 
L 401.286665 128.66526 
L 409.314031 119.657364 
L 417.341396 110.565383 
L 425.368762 101.394258 
L 433.396127 92.148549 
L 441.423493 82.832474 
L 449.450858 73.449935 
L 457.478224 64.004556 
L 465.505589 54.499697 
L 473.532955 44.938485 
" clip-path="url(#pd6b995af98)" style="fill: none; stroke: #bf00bf; stroke-width: 2; stroke-linecap: square"/>
   </g>
   <g id="line2d_32">
    <path d="M 80.192045 296.359091 
L 88.219411 296.35908 
L 96.246776 296.359054 
L 104.274142 296.358982 
L 112.301507 296.358793 
L 120.328873 296.358295 
L 128.356238 296.356988 
L 136.383604 296.353596 
L 144.410969 296.344925 
L 152.438335 296.323285 
L 160.4657 296.271199 
L 168.493066 296.152182 
L 176.520431 295.898719 
L 184.547797 295.404484 
L 192.575162 294.532873 
L 200.602528 293.146727 
L 208.629893 291.144734 
L 216.657259 288.481572 
L 224.684624 285.163891 
L 232.71199 281.232386 
L 240.739355 276.743248 
L 248.766721 271.755428 
L 256.794086 266.324 
L 264.821452 260.497656 
L 272.848817 254.318389 
L 280.876183 247.82212 
L 288.903548 241.039601 
L 296.930914 233.997306 
L 304.958279 226.718194 
L 312.985645 219.222337 
L 321.01301 211.52741 
L 329.040376 203.64909 
L 337.067741 195.601359 
L 345.095107 187.396753 
L 353.122472 179.046562 
L 361.149838 170.560993 
L 369.177203 161.949303 
L 377.204569 153.219913 
L 385.231934 144.380503 
L 393.2593 135.438097 
L 401.286665 126.399127 
L 409.314031 117.269503 
L 417.341396 108.054657 
L 425.368762 98.759598 
L 433.396127 89.388947 
L 441.423493 79.946979 
L 449.450858 70.43765 
L 457.478224 60.86463 
L 465.505589 51.231326 
L 473.532955 41.540909 
" clip-path="url(#pd6b995af98)" style="fill: none; stroke: #bfbf00; stroke-width: 2; stroke-linecap: square"/>
   </g>
   <g id="patch_3">
    <path d="M 60.525 309.1 
L 60.525 28.8 
" style="fill: none; stroke: #000000; stroke-width: 0.8; stroke-linejoin: miter; stroke-linecap: square"/>
   </g>
   <g id="patch_4">
    <path d="M 493.2 309.1 
L 493.2 28.8 
" style="fill: none; stroke: #000000; stroke-width: 0.8; stroke-linejoin: miter; stroke-linecap: square"/>
   </g>
   <g id="patch_5">
    <path d="M 60.525 309.1 
L 493.2 309.1 
" style="fill: none; stroke: #000000; stroke-width: 0.8; stroke-linejoin: miter; stroke-linecap: square"/>
   </g>
   <g id="patch_6">
    <path d="M 60.525 28.8 
L 493.2 28.8 
" style="fill: none; stroke: #000000; stroke-width: 0.8; stroke-linejoin: miter; stroke-linecap: square"/>
   </g>
   <g id="text_16">
    <!-- $I_{ds}(V_{gs})$ -->
    <g transform="translate(256.2225 22.8) scale(0.12 -0.12)">
     <defs>
      <path id="DejaVuSans-Oblique-64" d="M 2675 525 
Q 2444 222 2128 65 
Q 1813 -91 1428 -91 
Q 903 -91 598 267 
Q 294 625 294 1247 
Q 294 1766 478 2236 
Q 663 2706 1013 3078 
Q 1244 3325 1534 3454 
Q 1825 3584 2144 3584 
Q 2481 3584 2739 3421 
Q 2997 3259 3138 2956 
L 3513 4863 
L 4091 4863 
L 3144 0 
L 2566 0 
L 2675 525 
z
M 891 1350 
Q 891 897 1095 644 
Q 1300 391 1663 391 
Q 1931 391 2161 520 
Q 2391 650 2566 903 
Q 2750 1166 2856 1509 
Q 2963 1853 2963 2188 
Q 2963 2622 2758 2865 
Q 2553 3109 2194 3109 
Q 1922 3109 1687 2981 
Q 1453 2853 1288 2613 
Q 1106 2353 998 2009 
Q 891 1666 891 1350 
z
" transform="scale(0.015625)"/>
      <path id="DejaVuSans-Oblique-73" d="M 3200 3397 
L 3091 2853 
Q 2863 2978 2609 3040 
Q 2356 3103 2088 3103 
Q 1634 3103 1373 2948 
Q 1113 2794 1113 2528 
Q 1113 2219 1719 2053 
Q 1766 2041 1788 2034 
L 1972 1978 
Q 2547 1819 2739 1644 
Q 2931 1469 2931 1166 
Q 2931 609 2489 259 
Q 2047 -91 1331 -91 
Q 1053 -91 747 -37 
Q 441 16 72 128 
L 184 722 
Q 500 559 806 475 
Q 1113 391 1394 391 
Q 1816 391 2080 572 
Q 2344 753 2344 1031 
Q 2344 1331 1650 1516 
L 1591 1531 
L 1394 1581 
Q 956 1697 753 1886 
Q 550 2075 550 2369 
Q 550 2928 970 3256 
Q 1391 3584 2113 3584 
Q 2397 3584 2667 3537 
Q 2938 3491 3200 3397 
z
" transform="scale(0.015625)"/>
      <path id="DejaVuSans-28" d="M 1984 4856 
Q 1566 4138 1362 3434 
Q 1159 2731 1159 2009 
Q 1159 1288 1364 580 
Q 1569 -128 1984 -844 
L 1484 -844 
Q 1016 -109 783 600 
Q 550 1309 550 2009 
Q 550 2706 781 3412 
Q 1013 4119 1484 4856 
L 1984 4856 
z
" transform="scale(0.015625)"/>
      <path id="DejaVuSans-Oblique-67" d="M 3816 3500 
L 3219 434 
Q 3047 -456 2561 -893 
Q 2075 -1331 1253 -1331 
Q 950 -1331 690 -1286 
Q 431 -1241 206 -1147 
L 313 -588 
Q 525 -725 762 -790 
Q 1000 -856 1269 -856 
Q 1816 -856 2167 -557 
Q 2519 -259 2631 300 
L 2681 563 
Q 2441 288 2122 144 
Q 1803 0 1434 0 
Q 903 0 598 351 
Q 294 703 294 1319 
Q 294 1803 478 2267 
Q 663 2731 997 3091 
Q 1219 3328 1514 3456 
Q 1809 3584 2131 3584 
Q 2484 3584 2746 3420 
Q 3009 3256 3138 2956 
L 3238 3500 
L 3816 3500 
z
M 2950 2216 
Q 2950 2641 2750 2872 
Q 2550 3103 2181 3103 
Q 1953 3103 1747 3012 
Q 1541 2922 1394 2759 
Q 1156 2491 1023 2127 
Q 891 1763 891 1375 
Q 891 944 1092 712 
Q 1294 481 1672 481 
Q 2219 481 2584 976 
Q 2950 1472 2950 2216 
z
" transform="scale(0.015625)"/>
      <path id="DejaVuSans-29" d="M 513 4856 
L 1013 4856 
Q 1481 4119 1714 3412 
Q 1947 2706 1947 2009 
Q 1947 1309 1714 600 
Q 1481 -109 1013 -844 
L 513 -844 
Q 928 -128 1133 580 
Q 1338 1288 1338 2009 
Q 1338 2731 1133 3434 
Q 928 4138 513 4856 
z
" transform="scale(0.015625)"/>
     </defs>
     <use xlink:href="#DejaVuSans-Oblique-49" transform="translate(0 0.125)"/>
     <use xlink:href="#DejaVuSans-Oblique-64" transform="translate(29.492188 -16.28125) scale(0.7)"/>
     <use xlink:href="#DejaVuSans-Oblique-73" transform="translate(73.925781 -16.28125) scale(0.7)"/>
     <use xlink:href="#DejaVuSans-28" transform="translate(113.129883 0.125)"/>
     <use xlink:href="#DejaVuSans-Oblique-56" transform="translate(152.143555 0.125)"/>
     <use xlink:href="#DejaVuSans-Oblique-67" transform="translate(220.551758 -16.28125) scale(0.7)"/>
     <use xlink:href="#DejaVuSans-Oblique-73" transform="translate(264.985352 -16.28125) scale(0.7)"/>
     <use xlink:href="#DejaVuSans-29" transform="translate(304.189453 0.125)"/>
    </g>
   </g>
   <g id="legend_1">
    <g id="patch_7">
     <path d="M 67.525 107.4825 
L 203.365 107.4825 
Q 205.365 107.4825 205.365 105.4825 
L 205.365 35.8 
Q 205.365 33.8 203.365 33.8 
L 67.525 33.8 
Q 65.525 33.8 65.525 35.8 
L 65.525 105.4825 
Q 65.525 107.4825 67.525 107.4825 
z
" style="fill: #ffffff; opacity: 0.8; stroke: #cccccc; stroke-linejoin: miter"/>
    </g>
    <g id="line2d_33">
     <path d="M 67.525 41.418125 
L 72.525 41.418125 
L 77.525 41.418125 
" style="fill: none; stroke: #ff0000; stroke-width: 2; stroke-linecap: square"/>
    </g>
    <g id="text_17">
     <!-- $I_{DS X1}: V_{D}$ =  6.0e-01 -->
     <g transform="translate(79.525 44.918125) scale(0.12 -0.12)">
      <defs>
       <path id="DejaVuSans-3a" d="M 750 794 
L 1409 794 
L 1409 0 
L 750 0 
L 750 794 
z
M 750 3309 
L 1409 3309 
L 1409 2516 
L 750 2516 
L 750 3309 
z
" transform="scale(0.015625)"/>
       <path id="DejaVuSans-3d" d="M 678 2906 
L 4684 2906 
L 4684 2381 
L 678 2381 
L 678 2906 
z
M 678 1631 
L 4684 1631 
L 4684 1100 
L 678 1100 
L 678 1631 
z
" transform="scale(0.015625)"/>
       <path id="DejaVuSans-36" d="M 2113 2584 
Q 1688 2584 1439 2293 
Q 1191 2003 1191 1497 
Q 1191 994 1439 701 
Q 1688 409 2113 409 
Q 2538 409 2786 701 
Q 3034 994 3034 1497 
Q 3034 2003 2786 2293 
Q 2538 2584 2113 2584 
z
M 3366 4563 
L 3366 3988 
Q 3128 4100 2886 4159 
Q 2644 4219 2406 4219 
Q 1781 4219 1451 3797 
Q 1122 3375 1075 2522 
Q 1259 2794 1537 2939 
Q 1816 3084 2150 3084 
Q 2853 3084 3261 2657 
Q 3669 2231 3669 1497 
Q 3669 778 3244 343 
Q 2819 -91 2113 -91 
Q 1303 -91 875 529 
Q 447 1150 447 2328 
Q 447 3434 972 4092 
Q 1497 4750 2381 4750 
Q 2619 4750 2861 4703 
Q 3103 4656 3366 4563 
z
" transform="scale(0.015625)"/>
       <path id="DejaVuSans-65" d="M 3597 1894 
L 3597 1613 
L 953 1613 
Q 991 1019 1311 708 
Q 1631 397 2203 397 
Q 2534 397 2845 478 
Q 3156 559 3463 722 
L 3463 178 
Q 3153 47 2828 -22 
Q 2503 -91 2169 -91 
Q 1331 -91 842 396 
Q 353 884 353 1716 
Q 353 2575 817 3079 
Q 1281 3584 2069 3584 
Q 2775 3584 3186 3129 
Q 3597 2675 3597 1894 
z
M 3022 2063 
Q 3016 2534 2758 2815 
Q 2500 3097 2075 3097 
Q 1594 3097 1305 2825 
Q 1016 2553 972 2059 
L 3022 2063 
z
" transform="scale(0.015625)"/>
       <path id="DejaVuSans-2d" d="M 313 2009 
L 1997 2009 
L 1997 1497 
L 313 1497 
L 313 2009 
z
" transform="scale(0.015625)"/>
      </defs>
      <use xlink:href="#DejaVuSans-Oblique-49" transform="translate(0 0.78125)"/>
      <use xlink:href="#DejaVuSans-Oblique-44" transform="translate(29.492188 -15.625) scale(0.7)"/>
      <use xlink:href="#DejaVuSans-Oblique-53" transform="translate(83.393555 -15.625) scale(0.7)"/>
      <use xlink:href="#DejaVuSans-Oblique-58" transform="translate(127.827148 -15.625) scale(0.7)"/>
      <use xlink:href="#DejaVuSans-31" transform="translate(175.78125 -15.625) scale(0.7)"/>
      <use xlink:href="#DejaVuSans-3a" transform="translate(242.53418 0.78125)"/>
      <use xlink:href="#DejaVuSans-Oblique-56" transform="translate(295.708008 0.78125)"/>
      <use xlink:href="#DejaVuSans-Oblique-44" transform="translate(364.116211 -15.625) scale(0.7)"/>
      <use xlink:href="#DejaVuSans-20" transform="translate(420.751953 0.78125)"/>
      <use xlink:href="#DejaVuSans-3d" transform="translate(452.539062 0.78125)"/>
      <use xlink:href="#DejaVuSans-20" transform="translate(536.328125 0.78125)"/>
      <use xlink:href="#DejaVuSans-20" transform="translate(568.115234 0.78125)"/>
      <use xlink:href="#DejaVuSans-36" transform="translate(599.902344 0.78125)"/>
      <use xlink:href="#DejaVuSans-2e" transform="translate(663.525391 0.78125)"/>
      <use xlink:href="#DejaVuSans-30" transform="translate(695.3125 0.78125)"/>
      <use xlink:href="#DejaVuSans-65" transform="translate(758.935547 0.78125)"/>
      <use xlink:href="#DejaVuSans-2d" transform="translate(820.458984 0.78125)"/>
      <use xlink:href="#DejaVuSans-30" transform="translate(856.542969 0.78125)"/>
      <use xlink:href="#DejaVuSans-31" transform="translate(920.166016 0.78125)"/>
     </g>
    </g>
    <g id="line2d_34">
     <path d="M 67.525 53.031875 
L 72.525 53.031875 
L 77.525 53.031875 
" style="fill: none; stroke: #0000ff; stroke-width: 2; stroke-linecap: square"/>
    </g>
    <g id="text_18">
     <!-- $I_{DS X1}: V_{D}$ =  8.4e-01 -->
     <g transform="translate(79.525 56.531875) scale(0.12 -0.12)">
      <defs>
       <path id="DejaVuSans-38" d="M 2034 2216 
Q 1584 2216 1326 1975 
Q 1069 1734 1069 1313 
Q 1069 891 1326 650 
Q 1584 409 2034 409 
Q 2484 409 2743 651 
Q 3003 894 3003 1313 
Q 3003 1734 2745 1975 
Q 2488 2216 2034 2216 
z
M 1403 2484 
Q 997 2584 770 2862 
Q 544 3141 544 3541 
Q 544 4100 942 4425 
Q 1341 4750 2034 4750 
Q 2731 4750 3128 4425 
Q 3525 4100 3525 3541 
Q 3525 3141 3298 2862 
Q 3072 2584 2669 2484 
Q 3125 2378 3379 2068 
Q 3634 1759 3634 1313 
Q 3634 634 3220 271 
Q 2806 -91 2034 -91 
Q 1263 -91 848 271 
Q 434 634 434 1313 
Q 434 1759 690 2068 
Q 947 2378 1403 2484 
z
M 1172 3481 
Q 1172 3119 1398 2916 
Q 1625 2713 2034 2713 
Q 2441 2713 2670 2916 
Q 2900 3119 2900 3481 
Q 2900 3844 2670 4047 
Q 2441 4250 2034 4250 
Q 1625 4250 1398 4047 
Q 1172 3844 1172 3481 
z
" transform="scale(0.015625)"/>
       <path id="DejaVuSans-34" d="M 2419 4116 
L 825 1625 
L 2419 1625 
L 2419 4116 
z
M 2253 4666 
L 3047 4666 
L 3047 1625 
L 3713 1625 
L 3713 1100 
L 3047 1100 
L 3047 0 
L 2419 0 
L 2419 1100 
L 313 1100 
L 313 1709 
L 2253 4666 
z
" transform="scale(0.015625)"/>
      </defs>
      <use xlink:href="#DejaVuSans-Oblique-49" transform="translate(0 0.78125)"/>
      <use xlink:href="#DejaVuSans-Oblique-44" transform="translate(29.492188 -15.625) scale(0.7)"/>
      <use xlink:href="#DejaVuSans-Oblique-53" transform="translate(83.393555 -15.625) scale(0.7)"/>
      <use xlink:href="#DejaVuSans-Oblique-58" transform="translate(127.827148 -15.625) scale(0.7)"/>
      <use xlink:href="#DejaVuSans-31" transform="translate(175.78125 -15.625) scale(0.7)"/>
      <use xlink:href="#DejaVuSans-3a" transform="translate(242.53418 0.78125)"/>
      <use xlink:href="#DejaVuSans-Oblique-56" transform="translate(295.708008 0.78125)"/>
      <use xlink:href="#DejaVuSans-Oblique-44" transform="translate(364.116211 -15.625) scale(0.7)"/>
      <use xlink:href="#DejaVuSans-20" transform="translate(420.751953 0.78125)"/>
      <use xlink:href="#DejaVuSans-3d" transform="translate(452.539062 0.78125)"/>
      <use xlink:href="#DejaVuSans-20" transform="translate(536.328125 0.78125)"/>
      <use xlink:href="#DejaVuSans-20" transform="translate(568.115234 0.78125)"/>
      <use xlink:href="#DejaVuSans-38" transform="translate(599.902344 0.78125)"/>
      <use xlink:href="#DejaVuSans-2e" transform="translate(663.525391 0.78125)"/>
      <use xlink:href="#DejaVuSans-34" transform="translate(695.3125 0.78125)"/>
      <use xlink:href="#DejaVuSans-65" transform="translate(758.935547 0.78125)"/>
      <use xlink:href="#DejaVuSans-2d" transform="translate(820.458984 0.78125)"/>
      <use xlink:href="#DejaVuSans-30" transform="translate(856.542969 0.78125)"/>
      <use xlink:href="#DejaVuSans-31" transform="translate(920.166016 0.78125)"/>
     </g>
    </g>
    <g id="line2d_35">
     <path d="M 67.525 64.645625 
L 72.525 64.645625 
L 77.525 64.645625 
" style="fill: none; stroke: #008000; stroke-width: 2; stroke-linecap: square"/>
    </g>
    <g id="text_19">
     <!-- $I_{DS X1}: V_{D}$ =  1.1e+00 -->
     <g transform="translate(79.525 68.145625) scale(0.12 -0.12)">
      <defs>
       <path id="DejaVuSans-2b" d="M 2944 4013 
L 2944 2272 
L 4684 2272 
L 4684 1741 
L 2944 1741 
L 2944 0 
L 2419 0 
L 2419 1741 
L 678 1741 
L 678 2272 
L 2419 2272 
L 2419 4013 
L 2944 4013 
z
" transform="scale(0.015625)"/>
      </defs>
      <use xlink:href="#DejaVuSans-Oblique-49" transform="translate(0 0.78125)"/>
      <use xlink:href="#DejaVuSans-Oblique-44" transform="translate(29.492188 -15.625) scale(0.7)"/>
      <use xlink:href="#DejaVuSans-Oblique-53" transform="translate(83.393555 -15.625) scale(0.7)"/>
      <use xlink:href="#DejaVuSans-Oblique-58" transform="translate(127.827148 -15.625) scale(0.7)"/>
      <use xlink:href="#DejaVuSans-31" transform="translate(175.78125 -15.625) scale(0.7)"/>
      <use xlink:href="#DejaVuSans-3a" transform="translate(242.53418 0.78125)"/>
      <use xlink:href="#DejaVuSans-Oblique-56" transform="translate(295.708008 0.78125)"/>
      <use xlink:href="#DejaVuSans-Oblique-44" transform="translate(364.116211 -15.625) scale(0.7)"/>
      <use xlink:href="#DejaVuSans-20" transform="translate(420.751953 0.78125)"/>
      <use xlink:href="#DejaVuSans-3d" transform="translate(452.539062 0.78125)"/>
      <use xlink:href="#DejaVuSans-20" transform="translate(536.328125 0.78125)"/>
      <use xlink:href="#DejaVuSans-20" transform="translate(568.115234 0.78125)"/>
      <use xlink:href="#DejaVuSans-31" transform="translate(599.902344 0.78125)"/>
      <use xlink:href="#DejaVuSans-2e" transform="translate(663.525391 0.78125)"/>
      <use xlink:href="#DejaVuSans-31" transform="translate(695.3125 0.78125)"/>
      <use xlink:href="#DejaVuSans-65" transform="translate(758.935547 0.78125)"/>
      <use xlink:href="#DejaVuSans-2b" transform="translate(820.458984 0.78125)"/>
      <use xlink:href="#DejaVuSans-30" transform="translate(904.248047 0.78125)"/>
      <use xlink:href="#DejaVuSans-30" transform="translate(967.871094 0.78125)"/>
     </g>
    </g>
    <g id="line2d_36">
     <path d="M 67.525 76.259375 
L 72.525 76.259375 
L 77.525 76.259375 
" style="fill: none; stroke: #00bfbf; stroke-width: 2; stroke-linecap: square"/>
    </g>
    <g id="text_20">
     <!-- $I_{DS X1}: V_{D}$ =  1.3e+00 -->
     <g transform="translate(79.525 79.759375) scale(0.12 -0.12)">
      <defs>
       <path id="DejaVuSans-33" d="M 2597 2516 
Q 3050 2419 3304 2112 
Q 3559 1806 3559 1356 
Q 3559 666 3084 287 
Q 2609 -91 1734 -91 
Q 1441 -91 1130 -33 
Q 819 25 488 141 
L 488 750 
Q 750 597 1062 519 
Q 1375 441 1716 441 
Q 2309 441 2620 675 
Q 2931 909 2931 1356 
Q 2931 1769 2642 2001 
Q 2353 2234 1838 2234 
L 1294 2234 
L 1294 2753 
L 1863 2753 
Q 2328 2753 2575 2939 
Q 2822 3125 2822 3475 
Q 2822 3834 2567 4026 
Q 2313 4219 1838 4219 
Q 1578 4219 1281 4162 
Q 984 4106 628 3988 
L 628 4550 
Q 988 4650 1302 4700 
Q 1616 4750 1894 4750 
Q 2613 4750 3031 4423 
Q 3450 4097 3450 3541 
Q 3450 3153 3228 2886 
Q 3006 2619 2597 2516 
z
" transform="scale(0.015625)"/>
      </defs>
      <use xlink:href="#DejaVuSans-Oblique-49" transform="translate(0 0.78125)"/>
      <use xlink:href="#DejaVuSans-Oblique-44" transform="translate(29.492188 -15.625) scale(0.7)"/>
      <use xlink:href="#DejaVuSans-Oblique-53" transform="translate(83.393555 -15.625) scale(0.7)"/>
      <use xlink:href="#DejaVuSans-Oblique-58" transform="translate(127.827148 -15.625) scale(0.7)"/>
      <use xlink:href="#DejaVuSans-31" transform="translate(175.78125 -15.625) scale(0.7)"/>
      <use xlink:href="#DejaVuSans-3a" transform="translate(242.53418 0.78125)"/>
      <use xlink:href="#DejaVuSans-Oblique-56" transform="translate(295.708008 0.78125)"/>
      <use xlink:href="#DejaVuSans-Oblique-44" transform="translate(364.116211 -15.625) scale(0.7)"/>
      <use xlink:href="#DejaVuSans-20" transform="translate(420.751953 0.78125)"/>
      <use xlink:href="#DejaVuSans-3d" transform="translate(452.539062 0.78125)"/>
      <use xlink:href="#DejaVuSans-20" transform="translate(536.328125 0.78125)"/>
      <use xlink:href="#DejaVuSans-20" transform="translate(568.115234 0.78125)"/>
      <use xlink:href="#DejaVuSans-31" transform="translate(599.902344 0.78125)"/>
      <use xlink:href="#DejaVuSans-2e" transform="translate(663.525391 0.78125)"/>
      <use xlink:href="#DejaVuSans-33" transform="translate(695.3125 0.78125)"/>
      <use xlink:href="#DejaVuSans-65" transform="translate(758.935547 0.78125)"/>
      <use xlink:href="#DejaVuSans-2b" transform="translate(820.458984 0.78125)"/>
      <use xlink:href="#DejaVuSans-30" transform="translate(904.248047 0.78125)"/>
      <use xlink:href="#DejaVuSans-30" transform="translate(967.871094 0.78125)"/>
     </g>
    </g>
    <g id="line2d_37">
     <path d="M 67.525 87.873125 
L 72.525 87.873125 
L 77.525 87.873125 
" style="fill: none; stroke: #bf00bf; stroke-width: 2; stroke-linecap: square"/>
    </g>
    <g id="text_21">
     <!-- $I_{DS X1}: V_{D}$ =  1.6e+00 -->
     <g transform="translate(79.525 91.373125) scale(0.12 -0.12)">
      <use xlink:href="#DejaVuSans-Oblique-49" transform="translate(0 0.78125)"/>
      <use xlink:href="#DejaVuSans-Oblique-44" transform="translate(29.492188 -15.625) scale(0.7)"/>
      <use xlink:href="#DejaVuSans-Oblique-53" transform="translate(83.393555 -15.625) scale(0.7)"/>
      <use xlink:href="#DejaVuSans-Oblique-58" transform="translate(127.827148 -15.625) scale(0.7)"/>
      <use xlink:href="#DejaVuSans-31" transform="translate(175.78125 -15.625) scale(0.7)"/>
      <use xlink:href="#DejaVuSans-3a" transform="translate(242.53418 0.78125)"/>
      <use xlink:href="#DejaVuSans-Oblique-56" transform="translate(295.708008 0.78125)"/>
      <use xlink:href="#DejaVuSans-Oblique-44" transform="translate(364.116211 -15.625) scale(0.7)"/>
      <use xlink:href="#DejaVuSans-20" transform="translate(420.751953 0.78125)"/>
      <use xlink:href="#DejaVuSans-3d" transform="translate(452.539062 0.78125)"/>
      <use xlink:href="#DejaVuSans-20" transform="translate(536.328125 0.78125)"/>
      <use xlink:href="#DejaVuSans-20" transform="translate(568.115234 0.78125)"/>
      <use xlink:href="#DejaVuSans-31" transform="translate(599.902344 0.78125)"/>
      <use xlink:href="#DejaVuSans-2e" transform="translate(663.525391 0.78125)"/>
      <use xlink:href="#DejaVuSans-36" transform="translate(695.3125 0.78125)"/>
      <use xlink:href="#DejaVuSans-65" transform="translate(758.935547 0.78125)"/>
      <use xlink:href="#DejaVuSans-2b" transform="translate(820.458984 0.78125)"/>
      <use xlink:href="#DejaVuSans-30" transform="translate(904.248047 0.78125)"/>
      <use xlink:href="#DejaVuSans-30" transform="translate(967.871094 0.78125)"/>
     </g>
    </g>
    <g id="line2d_38">
     <path d="M 67.525 99.486875 
L 72.525 99.486875 
L 77.525 99.486875 
" style="fill: none; stroke: #bfbf00; stroke-width: 2; stroke-linecap: square"/>
    </g>
    <g id="text_22">
     <!-- $I_{DS X1}: V_{D}$ =  1.8e+00 -->
     <g transform="translate(79.525 102.986875) scale(0.12 -0.12)">
      <use xlink:href="#DejaVuSans-Oblique-49" transform="translate(0 0.78125)"/>
      <use xlink:href="#DejaVuSans-Oblique-44" transform="translate(29.492188 -15.625) scale(0.7)"/>
      <use xlink:href="#DejaVuSans-Oblique-53" transform="translate(83.393555 -15.625) scale(0.7)"/>
      <use xlink:href="#DejaVuSans-Oblique-58" transform="translate(127.827148 -15.625) scale(0.7)"/>
      <use xlink:href="#DejaVuSans-31" transform="translate(175.78125 -15.625) scale(0.7)"/>
      <use xlink:href="#DejaVuSans-3a" transform="translate(242.53418 0.78125)"/>
      <use xlink:href="#DejaVuSans-Oblique-56" transform="translate(295.708008 0.78125)"/>
      <use xlink:href="#DejaVuSans-Oblique-44" transform="translate(364.116211 -15.625) scale(0.7)"/>
      <use xlink:href="#DejaVuSans-20" transform="translate(420.751953 0.78125)"/>
      <use xlink:href="#DejaVuSans-3d" transform="translate(452.539062 0.78125)"/>
      <use xlink:href="#DejaVuSans-20" transform="translate(536.328125 0.78125)"/>
      <use xlink:href="#DejaVuSans-20" transform="translate(568.115234 0.78125)"/>
      <use xlink:href="#DejaVuSans-31" transform="translate(599.902344 0.78125)"/>
      <use xlink:href="#DejaVuSans-2e" transform="translate(663.525391 0.78125)"/>
      <use xlink:href="#DejaVuSans-38" transform="translate(692.6875 0.78125)"/>
      <use xlink:href="#DejaVuSans-65" transform="translate(756.310547 0.78125)"/>
      <use xlink:href="#DejaVuSans-2b" transform="translate(817.833984 0.78125)"/>
      <use xlink:href="#DejaVuSans-30" transform="translate(901.623047 0.78125)"/>
      <use xlink:href="#DejaVuSans-30" transform="translate(965.246094 0.78125)"/>
     </g>
    </g>
   </g>
  </g>
 </g>
 <defs>
  <clipPath id="pd6b995af98">
   <rect x="60.525" y="28.8" width="432.675" height="280.3"/>
  </clipPath>
 </defs>
</svg>
