<?xml version="1.0" encoding="utf-8" standalone="no"?>
<!DOCTYPE svg PUBLIC "-//W3C//DTD SVG 1.1//EN"
  "http://www.w3.org/Graphics/SVG/1.1/DTD/svg11.dtd">
<svg xmlns:xlink="http://www.w3.org/1999/xlink" width="504pt" height="360pt" viewBox="0 0 504 360" xmlns="http://www.w3.org/2000/svg" version="1.1">
 <metadata>
  <rdf:RDF xmlns:dc="http://purl.org/dc/elements/1.1/" xmlns:cc="http://creativecommons.org/ns#" xmlns:rdf="http://www.w3.org/1999/02/22-rdf-syntax-ns#">
   <cc:Work>
    <dc:type rdf:resource="http://purl.org/dc/dcmitype/StillImage"/>
    <dc:date>2024-10-20T17:46:53.494105</dc:date>
    <dc:format>image/svg+xml</dc:format>
    <dc:creator>
     <cc:Agent>
      <dc:title>Matplotlib v3.9.2, https://matplotlib.org/</dc:title>
     </cc:Agent>
    </dc:creator>
   </cc:Work>
  </rdf:RDF>
 </metadata>
 <defs>
  <style type="text/css">*{stroke-linejoin: round; stroke-linecap: butt}</style>
 </defs>
 <g id="figure_1">
  <g id="patch_1">
   <path d="M 0 360 
L 504 360 
L 504 0 
L 0 0 
z
" style="fill: #ffffff"/>
  </g>
  <g id="axes_1">
   <g id="patch_2">
    <path d="M 53.025 309.1 
L 493.2 309.1 
L 493.2 28.8 
L 53.025 28.8 
z
" style="fill: #ffffff"/>
   </g>
   <g id="matplotlib.axis_1">
    <g id="xtick_1">
     <g id="line2d_1">
      <path d="M 73.032946 309.1 
L 73.032946 28.8 
" clip-path="url(#pa6e10db469)" style="fill: none; stroke: #808080; stroke-width: 0.8; stroke-linecap: square"/>
     </g>
     <g id="line2d_2">
      <defs>
       <path id="m16f3d7d55f" d="M 0 0 
L 0 3.5 
" style="stroke: #000000; stroke-width: 0.8"/>
      </defs>
      <g>
       <use xlink:href="#m16f3d7d55f" x="73.032946" y="309.1" style="stroke: #000000; stroke-width: 0.8"/>
      </g>
     </g>
     <g id="text_1">
      <!-- 0 -->
      <g transform="translate(69.215446 325.218125) scale(0.12 -0.12)">
       <defs>
        <path id="DejaVuSans-30" d="M 2034 4250 
Q 1547 4250 1301 3770 
Q 1056 3291 1056 2328 
Q 1056 1369 1301 889 
Q 1547 409 2034 409 
Q 2525 409 2770 889 
Q 3016 1369 3016 2328 
Q 3016 3291 2770 3770 
Q 2525 4250 2034 4250 
z
M 2034 4750 
Q 2819 4750 3233 4129 
Q 3647 3509 3647 2328 
Q 3647 1150 3233 529 
Q 2819 -91 2034 -91 
Q 1250 -91 836 529 
Q 422 1150 422 2328 
Q 422 3509 836 4129 
Q 1250 4750 2034 4750 
z
" transform="scale(0.015625)"/>
       </defs>
       <use xlink:href="#DejaVuSans-30"/>
      </g>
     </g>
    </g>
    <g id="xtick_2">
     <g id="line2d_3">
      <path d="M 162.207136 309.1 
L 162.207136 28.8 
" clip-path="url(#pa6e10db469)" style="fill: none; stroke: #808080; stroke-width: 0.8; stroke-linecap: square"/>
     </g>
     <g id="line2d_4">
      <g>
       <use xlink:href="#m16f3d7d55f" x="162.207136" y="309.1" style="stroke: #000000; stroke-width: 0.8"/>
      </g>
     </g>
     <g id="text_2">
      <!-- 50 -->
      <g transform="translate(154.572136 325.218125) scale(0.12 -0.12)">
       <defs>
        <path id="DejaVuSans-35" d="M 691 4666 
L 3169 4666 
L 3169 4134 
L 1269 4134 
L 1269 2991 
Q 1406 3038 1543 3061 
Q 1681 3084 1819 3084 
Q 2600 3084 3056 2656 
Q 3513 2228 3513 1497 
Q 3513 744 3044 326 
Q 2575 -91 1722 -91 
Q 1428 -91 1123 -41 
Q 819 9 494 109 
L 494 744 
Q 775 591 1075 516 
Q 1375 441 1709 441 
Q 2250 441 2565 725 
Q 2881 1009 2881 1497 
Q 2881 1984 2565 2268 
Q 2250 2553 1709 2553 
Q 1456 2553 1204 2497 
Q 953 2441 691 2322 
L 691 4666 
z
" transform="scale(0.015625)"/>
       </defs>
       <use xlink:href="#DejaVuSans-35"/>
       <use xlink:href="#DejaVuSans-30" x="63.623047"/>
      </g>
     </g>
    </g>
    <g id="xtick_3">
     <g id="line2d_5">
      <path d="M 251.381327 309.1 
L 251.381327 28.8 
" clip-path="url(#pa6e10db469)" style="fill: none; stroke: #808080; stroke-width: 0.8; stroke-linecap: square"/>
     </g>
     <g id="line2d_6">
      <g>
       <use xlink:href="#m16f3d7d55f" x="251.381327" y="309.1" style="stroke: #000000; stroke-width: 0.8"/>
      </g>
     </g>
     <g id="text_3">
      <!-- 100 -->
      <g transform="translate(239.928827 325.218125) scale(0.12 -0.12)">
       <defs>
        <path id="DejaVuSans-31" d="M 794 531 
L 1825 531 
L 1825 4091 
L 703 3866 
L 703 4441 
L 1819 4666 
L 2450 4666 
L 2450 531 
L 3481 531 
L 3481 0 
L 794 0 
L 794 531 
z
" transform="scale(0.015625)"/>
       </defs>
       <use xlink:href="#DejaVuSans-31"/>
       <use xlink:href="#DejaVuSans-30" x="63.623047"/>
       <use xlink:href="#DejaVuSans-30" x="127.246094"/>
      </g>
     </g>
    </g>
    <g id="xtick_4">
     <g id="line2d_7">
      <path d="M 340.555518 309.1 
L 340.555518 28.8 
" clip-path="url(#pa6e10db469)" style="fill: none; stroke: #808080; stroke-width: 0.8; stroke-linecap: square"/>
     </g>
     <g id="line2d_8">
      <g>
       <use xlink:href="#m16f3d7d55f" x="340.555518" y="309.1" style="stroke: #000000; stroke-width: 0.8"/>
      </g>
     </g>
     <g id="text_4">
      <!-- 150 -->
      <g transform="translate(329.103018 325.218125) scale(0.12 -0.12)">
       <use xlink:href="#DejaVuSans-31"/>
       <use xlink:href="#DejaVuSans-35" x="63.623047"/>
       <use xlink:href="#DejaVuSans-30" x="127.246094"/>
      </g>
     </g>
    </g>
    <g id="xtick_5">
     <g id="line2d_9">
      <path d="M 429.729709 309.1 
L 429.729709 28.8 
" clip-path="url(#pa6e10db469)" style="fill: none; stroke: #808080; stroke-width: 0.8; stroke-linecap: square"/>
     </g>
     <g id="line2d_10">
      <g>
       <use xlink:href="#m16f3d7d55f" x="429.729709" y="309.1" style="stroke: #000000; stroke-width: 0.8"/>
      </g>
     </g>
     <g id="text_5">
      <!-- 200 -->
      <g transform="translate(418.277209 325.218125) scale(0.12 -0.12)">
       <defs>
        <path id="DejaVuSans-32" d="M 1228 531 
L 3431 531 
L 3431 0 
L 469 0 
L 469 531 
Q 828 903 1448 1529 
Q 2069 2156 2228 2338 
Q 2531 2678 2651 2914 
Q 2772 3150 2772 3378 
Q 2772 3750 2511 3984 
Q 2250 4219 1831 4219 
Q 1534 4219 1204 4116 
Q 875 4013 500 3803 
L 500 4441 
Q 881 4594 1212 4672 
Q 1544 4750 1819 4750 
Q 2544 4750 2975 4387 
Q 3406 4025 3406 3419 
Q 3406 3131 3298 2873 
Q 3191 2616 2906 2266 
Q 2828 2175 2409 1742 
Q 1991 1309 1228 531 
z
" transform="scale(0.015625)"/>
       </defs>
       <use xlink:href="#DejaVuSans-32"/>
       <use xlink:href="#DejaVuSans-30" x="63.623047"/>
       <use xlink:href="#DejaVuSans-30" x="127.246094"/>
      </g>
     </g>
    </g>
    <g id="text_6">
     <!-- $I_{DS X1}$ [uA] -->
     <g transform="translate(245.2125 340.831875) scale(0.12 -0.12)">
      <defs>
       <path id="DejaVuSans-Oblique-49" d="M 1081 4666 
L 1716 4666 
L 806 0 
L 172 0 
L 1081 4666 
z
" transform="scale(0.015625)"/>
       <path id="DejaVuSans-Oblique-44" d="M 1081 4666 
L 2438 4666 
Q 3519 4666 4070 4208 
Q 4622 3750 4622 2847 
Q 4622 2250 4412 1698 
Q 4203 1147 3834 769 
Q 3463 381 2891 190 
Q 2319 0 1538 0 
L 172 0 
L 1081 4666 
z
M 1613 4147 
L 909 519 
L 1734 519 
Q 2794 519 3375 1128 
Q 3956 1738 3956 2847 
Q 3956 3519 3581 3833 
Q 3206 4147 2406 4147 
L 1613 4147 
z
" transform="scale(0.015625)"/>
       <path id="DejaVuSans-Oblique-53" d="M 3859 4513 
L 3738 3897 
Q 3422 4066 3111 4152 
Q 2800 4238 2509 4238 
Q 1944 4238 1609 3991 
Q 1275 3744 1275 3334 
Q 1275 3109 1398 2989 
Q 1522 2869 2034 2731 
L 2413 2638 
Q 3053 2472 3303 2217 
Q 3553 1963 3553 1503 
Q 3553 797 2998 353 
Q 2444 -91 1538 -91 
Q 1166 -91 791 -17 
Q 416 56 38 206 
L 166 856 
Q 513 641 861 531 
Q 1209 422 1556 422 
Q 2147 422 2503 684 
Q 2859 947 2859 1369 
Q 2859 1650 2717 1795 
Q 2575 1941 2106 2059 
L 1728 2156 
Q 1081 2325 845 2545 
Q 609 2766 609 3163 
Q 609 3859 1145 4304 
Q 1681 4750 2541 4750 
Q 2875 4750 3203 4690 
Q 3531 4631 3859 4513 
z
" transform="scale(0.015625)"/>
       <path id="DejaVuSans-Oblique-58" d="M 878 4666 
L 1516 4666 
L 2316 2981 
L 3763 4666 
L 4500 4666 
L 2578 2438 
L 3738 0 
L 3103 0 
L 2163 1966 
L 459 0 
L -275 0 
L 1906 2509 
L 878 4666 
z
" transform="scale(0.015625)"/>
       <path id="DejaVuSans-20" transform="scale(0.015625)"/>
       <path id="DejaVuSans-5b" d="M 550 4863 
L 1875 4863 
L 1875 4416 
L 1125 4416 
L 1125 -397 
L 1875 -397 
L 1875 -844 
L 550 -844 
L 550 4863 
z
" transform="scale(0.015625)"/>
       <path id="DejaVuSans-75" d="M 544 1381 
L 544 3500 
L 1119 3500 
L 1119 1403 
Q 1119 906 1312 657 
Q 1506 409 1894 409 
Q 2359 409 2629 706 
Q 2900 1003 2900 1516 
L 2900 3500 
L 3475 3500 
L 3475 0 
L 2900 0 
L 2900 538 
Q 2691 219 2414 64 
Q 2138 -91 1772 -91 
Q 1169 -91 856 284 
Q 544 659 544 1381 
z
M 1991 3584 
L 1991 3584 
z
" transform="scale(0.015625)"/>
       <path id="DejaVuSans-41" d="M 2188 4044 
L 1331 1722 
L 3047 1722 
L 2188 4044 
z
M 1831 4666 
L 2547 4666 
L 4325 0 
L 3669 0 
L 3244 1197 
L 1141 1197 
L 716 0 
L 50 0 
L 1831 4666 
z
" transform="scale(0.015625)"/>
       <path id="DejaVuSans-5d" d="M 1947 4863 
L 1947 -844 
L 622 -844 
L 622 -397 
L 1369 -397 
L 1369 4416 
L 622 4416 
L 622 4863 
L 1947 4863 
z
" transform="scale(0.015625)"/>
      </defs>
      <use xlink:href="#DejaVuSans-Oblique-49" transform="translate(0 0.015625)"/>
      <use xlink:href="#DejaVuSans-Oblique-44" transform="translate(29.492188 -16.390625) scale(0.7)"/>
      <use xlink:href="#DejaVuSans-Oblique-53" transform="translate(83.393555 -16.390625) scale(0.7)"/>
      <use xlink:href="#DejaVuSans-Oblique-58" transform="translate(127.827148 -16.390625) scale(0.7)"/>
      <use xlink:href="#DejaVuSans-31" transform="translate(175.78125 -16.390625) scale(0.7)"/>
      <use xlink:href="#DejaVuSans-20" transform="translate(223.051758 0.015625)"/>
      <use xlink:href="#DejaVuSans-5b" transform="translate(254.838867 0.015625)"/>
      <use xlink:href="#DejaVuSans-75" transform="translate(293.852539 0.015625)"/>
      <use xlink:href="#DejaVuSans-41" transform="translate(357.231445 0.015625)"/>
      <use xlink:href="#DejaVuSans-5d" transform="translate(425.639648 0.015625)"/>
     </g>
    </g>
   </g>
   <g id="matplotlib.axis_2">
    <g id="ytick_1">
     <g id="line2d_11">
      <path d="M 53.025 285.292107 
L 493.2 285.292107 
" clip-path="url(#pa6e10db469)" style="fill: none; stroke: #808080; stroke-width: 0.8; stroke-linecap: square"/>
     </g>
     <g id="line2d_12">
      <defs>
       <path id="mde77485b95" d="M 0 0 
L -3.5 0 
" style="stroke: #000000; stroke-width: 0.8"/>
      </defs>
      <g>
       <use xlink:href="#mde77485b95" x="53.025" y="285.292107" style="stroke: #000000; stroke-width: 0.8"/>
      </g>
     </g>
     <g id="text_7">
      <!-- 0 -->
      <g transform="translate(38.39 289.851169) scale(0.12 -0.12)">
       <use xlink:href="#DejaVuSans-30"/>
      </g>
     </g>
    </g>
    <g id="ytick_2">
     <g id="line2d_13">
      <path d="M 53.025 239.706734 
L 493.2 239.706734 
" clip-path="url(#pa6e10db469)" style="fill: none; stroke: #808080; stroke-width: 0.8; stroke-linecap: square"/>
     </g>
     <g id="line2d_14">
      <g>
       <use xlink:href="#mde77485b95" x="53.025" y="239.706734" style="stroke: #000000; stroke-width: 0.8"/>
      </g>
     </g>
     <g id="text_8">
      <!-- 10 -->
      <g transform="translate(30.755 244.265797) scale(0.12 -0.12)">
       <use xlink:href="#DejaVuSans-31"/>
       <use xlink:href="#DejaVuSans-30" x="63.623047"/>
      </g>
     </g>
    </g>
    <g id="ytick_3">
     <g id="line2d_15">
      <path d="M 53.025 194.121362 
L 493.2 194.121362 
" clip-path="url(#pa6e10db469)" style="fill: none; stroke: #808080; stroke-width: 0.8; stroke-linecap: square"/>
     </g>
     <g id="line2d_16">
      <g>
       <use xlink:href="#mde77485b95" x="53.025" y="194.121362" style="stroke: #000000; stroke-width: 0.8"/>
      </g>
     </g>
     <g id="text_9">
      <!-- 20 -->
      <g transform="translate(30.755 198.680425) scale(0.12 -0.12)">
       <use xlink:href="#DejaVuSans-32"/>
       <use xlink:href="#DejaVuSans-30" x="63.623047"/>
      </g>
     </g>
    </g>
    <g id="ytick_4">
     <g id="line2d_17">
      <path d="M 53.025 148.53599 
L 493.2 148.53599 
" clip-path="url(#pa6e10db469)" style="fill: none; stroke: #808080; stroke-width: 0.8; stroke-linecap: square"/>
     </g>
     <g id="line2d_18">
      <g>
       <use xlink:href="#mde77485b95" x="53.025" y="148.53599" style="stroke: #000000; stroke-width: 0.8"/>
      </g>
     </g>
     <g id="text_10">
      <!-- 30 -->
      <g transform="translate(30.755 153.095053) scale(0.12 -0.12)">
       <defs>
        <path id="DejaVuSans-33" d="M 2597 2516 
Q 3050 2419 3304 2112 
Q 3559 1806 3559 1356 
Q 3559 666 3084 287 
Q 2609 -91 1734 -91 
Q 1441 -91 1130 -33 
Q 819 25 488 141 
L 488 750 
Q 750 597 1062 519 
Q 1375 441 1716 441 
Q 2309 441 2620 675 
Q 2931 909 2931 1356 
Q 2931 1769 2642 2001 
Q 2353 2234 1838 2234 
L 1294 2234 
L 1294 2753 
L 1863 2753 
Q 2328 2753 2575 2939 
Q 2822 3125 2822 3475 
Q 2822 3834 2567 4026 
Q 2313 4219 1838 4219 
Q 1578 4219 1281 4162 
Q 984 4106 628 3988 
L 628 4550 
Q 988 4650 1302 4700 
Q 1616 4750 1894 4750 
Q 2613 4750 3031 4423 
Q 3450 4097 3450 3541 
Q 3450 3153 3228 2886 
Q 3006 2619 2597 2516 
z
" transform="scale(0.015625)"/>
       </defs>
       <use xlink:href="#DejaVuSans-33"/>
       <use xlink:href="#DejaVuSans-30" x="63.623047"/>
      </g>
     </g>
    </g>
    <g id="ytick_5">
     <g id="line2d_19">
      <path d="M 53.025 102.950618 
L 493.2 102.950618 
" clip-path="url(#pa6e10db469)" style="fill: none; stroke: #808080; stroke-width: 0.8; stroke-linecap: square"/>
     </g>
     <g id="line2d_20">
      <g>
       <use xlink:href="#mde77485b95" x="53.025" y="102.950618" style="stroke: #000000; stroke-width: 0.8"/>
      </g>
     </g>
     <g id="text_11">
      <!-- 40 -->
      <g transform="translate(30.755 107.509681) scale(0.12 -0.12)">
       <defs>
        <path id="DejaVuSans-34" d="M 2419 4116 
L 825 1625 
L 2419 1625 
L 2419 4116 
z
M 2253 4666 
L 3047 4666 
L 3047 1625 
L 3713 1625 
L 3713 1100 
L 3047 1100 
L 3047 0 
L 2419 0 
L 2419 1100 
L 313 1100 
L 313 1709 
L 2253 4666 
z
" transform="scale(0.015625)"/>
       </defs>
       <use xlink:href="#DejaVuSans-34"/>
       <use xlink:href="#DejaVuSans-30" x="63.623047"/>
      </g>
     </g>
    </g>
    <g id="ytick_6">
     <g id="line2d_21">
      <path d="M 53.025 57.365246 
L 493.2 57.365246 
" clip-path="url(#pa6e10db469)" style="fill: none; stroke: #808080; stroke-width: 0.8; stroke-linecap: square"/>
     </g>
     <g id="line2d_22">
      <g>
       <use xlink:href="#mde77485b95" x="53.025" y="57.365246" style="stroke: #000000; stroke-width: 0.8"/>
      </g>
     </g>
     <g id="text_12">
      <!-- 50 -->
      <g transform="translate(30.755 61.924309) scale(0.12 -0.12)">
       <use xlink:href="#DejaVuSans-35"/>
       <use xlink:href="#DejaVuSans-30" x="63.623047"/>
      </g>
     </g>
    </g>
    <g id="text_13">
     <!-- $f_{T X1}\,$ [GHz] -->
     <g transform="translate(24.259375 199.25) rotate(-90) scale(0.12 -0.12)">
      <defs>
       <path id="DejaVuSans-Oblique-66" d="M 3059 4863 
L 2969 4384 
L 2419 4384 
Q 2106 4384 1964 4261 
Q 1822 4138 1753 3809 
L 1691 3500 
L 2638 3500 
L 2553 3053 
L 1606 3053 
L 1013 0 
L 434 0 
L 1031 3053 
L 481 3053 
L 563 3500 
L 1113 3500 
L 1159 3744 
Q 1278 4363 1576 4613 
Q 1875 4863 2516 4863 
L 3059 4863 
z
" transform="scale(0.015625)"/>
       <path id="DejaVuSans-Oblique-54" d="M 378 4666 
L 4325 4666 
L 4225 4134 
L 2559 4134 
L 1759 0 
L 1125 0 
L 1925 4134 
L 275 4134 
L 378 4666 
z
" transform="scale(0.015625)"/>
       <path id="DejaVuSans-47" d="M 3809 666 
L 3809 1919 
L 2778 1919 
L 2778 2438 
L 4434 2438 
L 4434 434 
Q 4069 175 3628 42 
Q 3188 -91 2688 -91 
Q 1594 -91 976 548 
Q 359 1188 359 2328 
Q 359 3472 976 4111 
Q 1594 4750 2688 4750 
Q 3144 4750 3555 4637 
Q 3966 4525 4313 4306 
L 4313 3634 
Q 3963 3931 3569 4081 
Q 3175 4231 2741 4231 
Q 1884 4231 1454 3753 
Q 1025 3275 1025 2328 
Q 1025 1384 1454 906 
Q 1884 428 2741 428 
Q 3075 428 3337 486 
Q 3600 544 3809 666 
z
" transform="scale(0.015625)"/>
       <path id="DejaVuSans-48" d="M 628 4666 
L 1259 4666 
L 1259 2753 
L 3553 2753 
L 3553 4666 
L 4184 4666 
L 4184 0 
L 3553 0 
L 3553 2222 
L 1259 2222 
L 1259 0 
L 628 0 
L 628 4666 
z
" transform="scale(0.015625)"/>
       <path id="DejaVuSans-7a" d="M 353 3500 
L 3084 3500 
L 3084 2975 
L 922 459 
L 3084 459 
L 3084 0 
L 275 0 
L 275 525 
L 2438 3041 
L 353 3041 
L 353 3500 
z
" transform="scale(0.015625)"/>
      </defs>
      <use xlink:href="#DejaVuSans-Oblique-66" transform="translate(0 0.015625)"/>
      <use xlink:href="#DejaVuSans-Oblique-54" transform="translate(35.205078 -16.390625) scale(0.7)"/>
      <use xlink:href="#DejaVuSans-Oblique-58" transform="translate(77.963867 -16.390625) scale(0.7)"/>
      <use xlink:href="#DejaVuSans-31" transform="translate(125.917969 -16.390625) scale(0.7)"/>
      <use xlink:href="#DejaVuSans-20" transform="translate(189.424153 0.015625)"/>
      <use xlink:href="#DejaVuSans-5b" transform="translate(221.211262 0.015625)"/>
      <use xlink:href="#DejaVuSans-47" transform="translate(260.224934 0.015625)"/>
      <use xlink:href="#DejaVuSans-48" transform="translate(337.715168 0.015625)"/>
      <use xlink:href="#DejaVuSans-7a" transform="translate(412.910481 0.015625)"/>
      <use xlink:href="#DejaVuSans-5d" transform="translate(465.400715 0.015625)"/>
     </g>
    </g>
   </g>
   <g id="line2d_23">
    <path d="M 73.032955 285.291793 
L 73.032969 285.291273 
L 73.033009 285.289891 
L 73.033113 285.286226 
L 73.03339 285.276534 
L 73.034121 285.251035 
L 73.036036 285.184489 
L 73.041008 285.01317 
L 73.053717 284.582115 
L 73.085434 283.538733 
L 73.161776 281.170442 
L 73.336216 276.307172 
L 73.707712 267.593409 
L 74.432102 254.202821 
L 75.709605 236.408295 
L 77.74125 215.503737 
L 80.675531 193.228039 
L 84.578873 171.174999 
L 89.441531 150.501146 
L 95.203857 131.897297 
L 101.783495 115.680111 
L 109.094041 101.907621 
L 117.054773 90.478107 
L 125.594324 81.202327 
L 134.651143 73.851665 
L 144.172574 68.188185 
L 154.113524 63.982339 
L 164.43514 61.022878 
L 175.103635 59.122561 
L 186.08924 58.123075 
L 197.365128 57.903851 
L 208.905995 58.403242 
L 220.685576 59.667765 
L 232.671825 61.951945 
L 244.817839 65.873372 
L 257.047414 72.523144 
L 269.238795 83.240108 
L 281.219174 98.845622 
L 292.785688 118.876373 
L 303.751971 141.69779 
L 313.993508 165.348838 
L 323.464261 188.242995 
L 332.182962 209.382112 
L 340.206768 228.274217 
L 347.608008 244.774431 
L 354.45963 258.946032 
L 360.828221 270.962966 
L 366.771745 281.04824 
L 372.33962 289.437545 
L 377.573725 296.359091 
" clip-path="url(#pa6e10db469)" style="fill: none; stroke: #ff0000; stroke-width: 2; stroke-linecap: square"/>
   </g>
   <g id="line2d_24">
    <path d="M 73.032955 285.291789 
L 73.03297 285.291261 
L 73.03301 285.289859 
L 73.033116 285.286142 
L 73.033397 285.276312 
L 73.034137 285.250449 
L 73.03608 285.182952 
L 73.041123 285.009185 
L 73.054014 284.571972 
L 73.086184 283.513685 
L 73.163616 281.111561 
L 73.340549 276.178815 
L 73.717351 267.340571 
L 74.45209 253.758688 
L 75.747843 235.709955 
L 77.808512 214.50676 
L 80.784711 191.912838 
L 84.743815 169.544754 
L 89.675939 148.57556 
L 95.520585 129.705939 
L 102.194217 113.257075 
L 109.6092 99.287823 
L 117.683658 87.694997 
L 126.345205 78.286622 
L 135.531414 70.830727 
L 145.188885 65.085755 
L 155.271898 60.81829 
L 165.7411 57.812533 
L 176.562358 55.874579 
L 187.705834 54.83356 
L 199.145249 54.540984 
L 210.857301 54.869103 
L 222.821201 55.708848 
L 235.018311 56.96765 
L 247.431842 58.567343 
L 260.04661 60.442304 
L 272.848821 62.537988 
L 285.825871 64.810223 
L 298.966122 67.226074 
L 312.258557 69.768347 
L 325.692133 72.448582 
L 339.254351 75.339018 
L 352.928127 78.642179 
L 366.685322 82.817033 
L 380.475193 88.732622 
L 394.208438 97.666345 
L 407.744824 110.836357 
L 420.900202 128.54975 
L 433.482439 149.794052 
L 445.340916 172.765509 
" clip-path="url(#pa6e10db469)" style="fill: none; stroke: #0000ff; stroke-width: 2; stroke-linecap: square"/>
   </g>
   <g id="line2d_25">
    <path d="M 73.032955 285.291784 
L 73.03297 285.291249 
L 73.033011 285.289828 
L 73.033118 285.286058 
L 73.033403 285.276089 
L 73.034154 285.249862 
L 73.036124 285.181415 
L 73.041238 285.0052 
L 73.054311 284.561829 
L 73.086934 283.488637 
L 73.165456 281.05268 
L 73.344881 276.050459 
L 73.726991 267.087732 
L 74.472078 253.314556 
L 75.786081 235.011615 
L 77.875773 213.509784 
L 80.89389 190.597637 
L 84.908757 167.91451 
L 89.910347 146.649975 
L 95.837312 127.514585 
L 102.604939 110.834047 
L 110.124358 96.668044 
L 118.312541 84.911939 
L 127.096082 75.371051 
L 136.411675 67.810144 
L 146.205166 61.984257 
L 156.430194 57.656687 
L 167.046849 54.608595 
L 178.020519 52.643344 
L 189.320945 51.587661 
L 200.921479 51.290957 
L 212.79849 51.623679 
L 224.930897 52.475204 
L 237.299802 53.75161 
L 249.888183 55.373504 
L 262.680655 57.274001 
L 275.663262 59.396907 
L 288.823308 61.69512 
L 302.149215 64.12923 
L 315.630395 66.666327 
L 329.257149 69.278979 
L 343.020569 71.944362 
L 356.912464 74.643544 
L 370.925282 77.360888 
L 385.052045 80.083611 
L 399.286292 82.801539 
L 413.622005 85.507264 
L 428.053514 88.197186 
L 442.575319 90.874726 
L 457.181711 93.55881 
" clip-path="url(#pa6e10db469)" style="fill: none; stroke: #008000; stroke-width: 2; stroke-linecap: square"/>
   </g>
   <g id="line2d_26">
    <path d="M 73.032955 285.29178 
L 73.03297 285.291237 
L 73.033011 285.289796 
L 73.03312 285.285974 
L 73.033409 285.275867 
L 73.034171 285.249275 
L 73.036168 285.179877 
L 73.041353 285.001215 
L 73.054607 284.551686 
L 73.087684 283.463589 
L 73.167297 280.993799 
L 73.349214 275.922103 
L 73.73663 266.834894 
L 74.492066 252.870423 
L 75.824319 234.313275 
L 77.943035 212.512807 
L 81.00307 189.282436 
L 85.073699 166.284265 
L 90.144756 144.72439 
L 96.154039 125.32323 
L 103.015661 108.411018 
L 110.639517 94.048265 
L 118.941424 82.128882 
L 127.846959 72.455481 
L 137.291935 64.789562 
L 147.221446 58.882759 
L 157.588489 54.495084 
L 168.352598 51.404657 
L 179.478679 49.412111 
L 190.936056 48.341766 
L 202.697709 48.040941 
L 214.739678 48.378284 
L 227.040591 49.241636 
L 239.581286 50.53577 
L 252.344506 52.18019 
L 265.314651 54.107083 
L 278.477572 56.259474 
L 291.820397 58.589605 
L 305.331385 61.057521 
L 318.999804 63.629852 
L 332.815819 66.278779 
L 346.770399 68.981154 
L 360.85524 71.717752 
L 375.062687 74.472644 
L 389.385675 77.23267 
L 403.817671 79.986994 
L 418.352628 82.726731 
L 432.984936 85.444631 
L 447.709387 88.134821 
L 462.521136 90.792581 
" clip-path="url(#pa6e10db469)" style="fill: none; stroke: #00bfbf; stroke-width: 2; stroke-linecap: square"/>
   </g>
   <g id="line2d_27">
    <path d="M 73.032955 285.291775 
L 73.032971 285.291225 
L 73.033012 285.289764 
L 73.033123 285.28589 
L 73.033416 285.275645 
L 73.034188 285.248689 
L 73.036212 285.17834 
L 73.041468 284.997231 
L 73.054904 284.541544 
L 73.088433 283.43854 
L 73.169137 280.934918 
L 73.353546 275.793747 
L 73.74627 266.582055 
L 74.512054 252.426291 
L 75.862557 233.614935 
L 78.010296 211.51583 
L 81.11225 187.967235 
L 85.238641 164.654021 
L 90.379164 142.798805 
L 96.470767 123.131876 
L 103.426383 105.987989 
L 111.154675 91.428487 
L 119.570307 79.345824 
L 128.597836 69.539911 
L 138.172195 61.768979 
L 148.237727 55.781261 
L 158.746784 51.333481 
L 169.658346 48.20072 
L 180.93684 46.180879 
L 192.551167 45.095871 
L 204.473938 44.790925 
L 216.680866 45.132889 
L 229.150285 46.008068 
L 241.86277 47.31993 
L 254.800829 48.986876 
L 267.948647 50.940164 
L 281.291882 53.12204 
L 294.817485 55.484091 
L 308.513556 57.985814 
L 322.369213 60.593382 
L 336.374488 63.278597 
L 350.520227 66.017991 
L 364.798011 68.792076 
L 379.20008 71.584706 
L 393.719274 74.382541 
L 408.348969 77.174595 
L 423.083035 79.951862 
L 437.915785 82.706993 
L 452.841941 85.434032 
L 467.856591 88.128194 
" clip-path="url(#pa6e10db469)" style="fill: none; stroke: #bf00bf; stroke-width: 2; stroke-linecap: square"/>
   </g>
   <g id="line2d_28">
    <path d="M 73.032955 285.291771 
L 73.032971 285.291214 
L 73.033013 285.289733 
L 73.033125 285.285806 
L 73.033422 285.275422 
L 73.034205 285.248102 
L 73.036256 285.176802 
L 73.041584 284.993246 
L 73.055201 284.531401 
L 73.089183 283.413492 
L 73.170978 280.876037 
L 73.357879 275.66539 
L 73.755909 266.329217 
L 74.532042 251.982158 
L 75.900795 232.916595 
L 78.077558 210.518854 
L 81.22143 186.652034 
L 85.403583 163.023777 
L 90.613572 140.87322 
L 96.787494 120.940522 
L 103.837106 103.564961 
L 111.669834 88.808708 
L 120.199191 76.562766 
L 129.348713 66.624341 
L 139.052455 58.748396 
L 149.254008 52.679763 
L 159.905079 48.171878 
L 170.964095 44.996782 
L 182.395001 42.949646 
L 194.166278 41.849975 
L 206.250168 41.540909 
L 218.622054 41.887495 
L 231.259978 42.7745 
L 244.144254 44.10409 
L 257.257152 45.793562 
L 270.582643 47.773246 
L 284.106192 49.984607 
L 297.814574 52.378578 
L 311.695726 54.914107 
L 325.738622 57.556913 
L 339.933158 60.278414 
L 354.270055 63.054827 
L 368.740782 65.8664 
L 383.337474 68.696768 
L 398.052873 71.532412 
L 412.880266 74.362196 
L 427.813441 77.176994 
L 442.846635 79.969356 
L 457.974495 82.733247 
L 473.192045 85.463817 
" clip-path="url(#pa6e10db469)" style="fill: none; stroke: #bfbf00; stroke-width: 2; stroke-linecap: square"/>
   </g>
   <g id="patch_3">
    <path d="M 53.025 309.1 
L 53.025 28.8 
" style="fill: none; stroke: #000000; stroke-width: 0.8; stroke-linejoin: miter; stroke-linecap: square"/>
   </g>
   <g id="patch_4">
    <path d="M 493.2 309.1 
L 493.2 28.8 
" style="fill: none; stroke: #000000; stroke-width: 0.8; stroke-linejoin: miter; stroke-linecap: square"/>
   </g>
   <g id="patch_5">
    <path d="M 53.025 309.1 
L 493.2 309.1 
" style="fill: none; stroke: #000000; stroke-width: 0.8; stroke-linejoin: miter; stroke-linecap: square"/>
   </g>
   <g id="patch_6">
    <path d="M 53.025 28.8 
L 493.2 28.8 
" style="fill: none; stroke: #000000; stroke-width: 0.8; stroke-linejoin: miter; stroke-linecap: square"/>
   </g>
   <g id="text_14">
    <!-- $f_{T}(I_{ds})$ -->
    <g transform="translate(256.7925 22.8) scale(0.12 -0.12)">
     <defs>
      <path id="DejaVuSans-28" d="M 1984 4856 
Q 1566 4138 1362 3434 
Q 1159 2731 1159 2009 
Q 1159 1288 1364 580 
Q 1569 -128 1984 -844 
L 1484 -844 
Q 1016 -109 783 600 
Q 550 1309 550 2009 
Q 550 2706 781 3412 
Q 1013 4119 1484 4856 
L 1984 4856 
z
" transform="scale(0.015625)"/>
      <path id="DejaVuSans-Oblique-64" d="M 2675 525 
Q 2444 222 2128 65 
Q 1813 -91 1428 -91 
Q 903 -91 598 267 
Q 294 625 294 1247 
Q 294 1766 478 2236 
Q 663 2706 1013 3078 
Q 1244 3325 1534 3454 
Q 1825 3584 2144 3584 
Q 2481 3584 2739 3421 
Q 2997 3259 3138 2956 
L 3513 4863 
L 4091 4863 
L 3144 0 
L 2566 0 
L 2675 525 
z
M 891 1350 
Q 891 897 1095 644 
Q 1300 391 1663 391 
Q 1931 391 2161 520 
Q 2391 650 2566 903 
Q 2750 1166 2856 1509 
Q 2963 1853 2963 2188 
Q 2963 2622 2758 2865 
Q 2553 3109 2194 3109 
Q 1922 3109 1687 2981 
Q 1453 2853 1288 2613 
Q 1106 2353 998 2009 
Q 891 1666 891 1350 
z
" transform="scale(0.015625)"/>
      <path id="DejaVuSans-Oblique-73" d="M 3200 3397 
L 3091 2853 
Q 2863 2978 2609 3040 
Q 2356 3103 2088 3103 
Q 1634 3103 1373 2948 
Q 1113 2794 1113 2528 
Q 1113 2219 1719 2053 
Q 1766 2041 1788 2034 
L 1972 1978 
Q 2547 1819 2739 1644 
Q 2931 1469 2931 1166 
Q 2931 609 2489 259 
Q 2047 -91 1331 -91 
Q 1053 -91 747 -37 
Q 441 16 72 128 
L 184 722 
Q 500 559 806 475 
Q 1113 391 1394 391 
Q 1816 391 2080 572 
Q 2344 753 2344 1031 
Q 2344 1331 1650 1516 
L 1591 1531 
L 1394 1581 
Q 956 1697 753 1886 
Q 550 2075 550 2369 
Q 550 2928 970 3256 
Q 1391 3584 2113 3584 
Q 2397 3584 2667 3537 
Q 2938 3491 3200 3397 
z
" transform="scale(0.015625)"/>
      <path id="DejaVuSans-29" d="M 513 4856 
L 1013 4856 
Q 1481 4119 1714 3412 
Q 1947 2706 1947 2009 
Q 1947 1309 1714 600 
Q 1481 -109 1013 -844 
L 513 -844 
Q 928 -128 1133 580 
Q 1338 1288 1338 2009 
Q 1338 2731 1133 3434 
Q 928 4138 513 4856 
z
" transform="scale(0.015625)"/>
     </defs>
     <use xlink:href="#DejaVuSans-Oblique-66" transform="translate(0 0.015625)"/>
     <use xlink:href="#DejaVuSans-Oblique-54" transform="translate(35.205078 -16.390625) scale(0.7)"/>
     <use xlink:href="#DejaVuSans-28" transform="translate(80.698242 0.015625)"/>
     <use xlink:href="#DejaVuSans-Oblique-49" transform="translate(119.711914 0.015625)"/>
     <use xlink:href="#DejaVuSans-Oblique-64" transform="translate(149.204102 -16.390625) scale(0.7)"/>
     <use xlink:href="#DejaVuSans-Oblique-73" transform="translate(193.637695 -16.390625) scale(0.7)"/>
     <use xlink:href="#DejaVuSans-29" transform="translate(232.841797 0.015625)"/>
    </g>
   </g>
   <g id="legend_1">
    <g id="patch_7">
     <path d="M 208.1925 304.1 
L 338.0325 304.1 
Q 340.0325 304.1 340.0325 302.1 
L 340.0325 232.4175 
Q 340.0325 230.4175 338.0325 230.4175 
L 208.1925 230.4175 
Q 206.1925 230.4175 206.1925 232.4175 
L 206.1925 302.1 
Q 206.1925 304.1 208.1925 304.1 
z
" style="fill: #ffffff; opacity: 0.8; stroke: #cccccc; stroke-linejoin: miter"/>
    </g>
    <g id="line2d_29">
     <path d="M 208.1925 238.035625 
L 213.1925 238.035625 
L 218.1925 238.035625 
" style="fill: none; stroke: #ff0000; stroke-width: 2; stroke-linecap: square"/>
    </g>
    <g id="text_15">
     <!-- $f_{T X1}: V_{D}$ =  6.0e-01 -->
     <g transform="translate(220.1925 241.535625) scale(0.12 -0.12)">
      <defs>
       <path id="DejaVuSans-3a" d="M 750 794 
L 1409 794 
L 1409 0 
L 750 0 
L 750 794 
z
M 750 3309 
L 1409 3309 
L 1409 2516 
L 750 2516 
L 750 3309 
z
" transform="scale(0.015625)"/>
       <path id="DejaVuSans-Oblique-56" d="M 1319 0 
L 500 4666 
L 1119 4666 
L 1797 653 
L 4063 4666 
L 4750 4666 
L 2053 0 
L 1319 0 
z
" transform="scale(0.015625)"/>
       <path id="DejaVuSans-3d" d="M 678 2906 
L 4684 2906 
L 4684 2381 
L 678 2381 
L 678 2906 
z
M 678 1631 
L 4684 1631 
L 4684 1100 
L 678 1100 
L 678 1631 
z
" transform="scale(0.015625)"/>
       <path id="DejaVuSans-36" d="M 2113 2584 
Q 1688 2584 1439 2293 
Q 1191 2003 1191 1497 
Q 1191 994 1439 701 
Q 1688 409 2113 409 
Q 2538 409 2786 701 
Q 3034 994 3034 1497 
Q 3034 2003 2786 2293 
Q 2538 2584 2113 2584 
z
M 3366 4563 
L 3366 3988 
Q 3128 4100 2886 4159 
Q 2644 4219 2406 4219 
Q 1781 4219 1451 3797 
Q 1122 3375 1075 2522 
Q 1259 2794 1537 2939 
Q 1816 3084 2150 3084 
Q 2853 3084 3261 2657 
Q 3669 2231 3669 1497 
Q 3669 778 3244 343 
Q 2819 -91 2113 -91 
Q 1303 -91 875 529 
Q 447 1150 447 2328 
Q 447 3434 972 4092 
Q 1497 4750 2381 4750 
Q 2619 4750 2861 4703 
Q 3103 4656 3366 4563 
z
" transform="scale(0.015625)"/>
       <path id="DejaVuSans-2e" d="M 684 794 
L 1344 794 
L 1344 0 
L 684 0 
L 684 794 
z
" transform="scale(0.015625)"/>
       <path id="DejaVuSans-65" d="M 3597 1894 
L 3597 1613 
L 953 1613 
Q 991 1019 1311 708 
Q 1631 397 2203 397 
Q 2534 397 2845 478 
Q 3156 559 3463 722 
L 3463 178 
Q 3153 47 2828 -22 
Q 2503 -91 2169 -91 
Q 1331 -91 842 396 
Q 353 884 353 1716 
Q 353 2575 817 3079 
Q 1281 3584 2069 3584 
Q 2775 3584 3186 3129 
Q 3597 2675 3597 1894 
z
M 3022 2063 
Q 3016 2534 2758 2815 
Q 2500 3097 2075 3097 
Q 1594 3097 1305 2825 
Q 1016 2553 972 2059 
L 3022 2063 
z
" transform="scale(0.015625)"/>
       <path id="DejaVuSans-2d" d="M 313 2009 
L 1997 2009 
L 1997 1497 
L 313 1497 
L 313 2009 
z
" transform="scale(0.015625)"/>
      </defs>
      <use xlink:href="#DejaVuSans-Oblique-66" transform="translate(0 0.015625)"/>
      <use xlink:href="#DejaVuSans-Oblique-54" transform="translate(35.205078 -16.390625) scale(0.7)"/>
      <use xlink:href="#DejaVuSans-Oblique-58" transform="translate(77.963867 -16.390625) scale(0.7)"/>
      <use xlink:href="#DejaVuSans-31" transform="translate(125.917969 -16.390625) scale(0.7)"/>
      <use xlink:href="#DejaVuSans-3a" transform="translate(192.670898 0.015625)"/>
      <use xlink:href="#DejaVuSans-Oblique-56" transform="translate(245.844727 0.015625)"/>
      <use xlink:href="#DejaVuSans-Oblique-44" transform="translate(314.25293 -16.390625) scale(0.7)"/>
      <use xlink:href="#DejaVuSans-20" transform="translate(370.888672 0.015625)"/>
      <use xlink:href="#DejaVuSans-3d" transform="translate(402.675781 0.015625)"/>
      <use xlink:href="#DejaVuSans-20" transform="translate(486.464844 0.015625)"/>
      <use xlink:href="#DejaVuSans-20" transform="translate(518.251953 0.015625)"/>
      <use xlink:href="#DejaVuSans-36" transform="translate(550.039062 0.015625)"/>
      <use xlink:href="#DejaVuSans-2e" transform="translate(613.662109 0.015625)"/>
      <use xlink:href="#DejaVuSans-30" transform="translate(645.449219 0.015625)"/>
      <use xlink:href="#DejaVuSans-65" transform="translate(709.072266 0.015625)"/>
      <use xlink:href="#DejaVuSans-2d" transform="translate(770.595703 0.015625)"/>
      <use xlink:href="#DejaVuSans-30" transform="translate(806.679688 0.015625)"/>
      <use xlink:href="#DejaVuSans-31" transform="translate(870.302734 0.015625)"/>
     </g>
    </g>
    <g id="line2d_30">
     <path d="M 208.1925 249.649375 
L 213.1925 249.649375 
L 218.1925 249.649375 
" style="fill: none; stroke: #0000ff; stroke-width: 2; stroke-linecap: square"/>
    </g>
    <g id="text_16">
     <!-- $f_{T X1}: V_{D}$ =  8.4e-01 -->
     <g transform="translate(220.1925 253.149375) scale(0.12 -0.12)">
      <defs>
       <path id="DejaVuSans-38" d="M 2034 2216 
Q 1584 2216 1326 1975 
Q 1069 1734 1069 1313 
Q 1069 891 1326 650 
Q 1584 409 2034 409 
Q 2484 409 2743 651 
Q 3003 894 3003 1313 
Q 3003 1734 2745 1975 
Q 2488 2216 2034 2216 
z
M 1403 2484 
Q 997 2584 770 2862 
Q 544 3141 544 3541 
Q 544 4100 942 4425 
Q 1341 4750 2034 4750 
Q 2731 4750 3128 4425 
Q 3525 4100 3525 3541 
Q 3525 3141 3298 2862 
Q 3072 2584 2669 2484 
Q 3125 2378 3379 2068 
Q 3634 1759 3634 1313 
Q 3634 634 3220 271 
Q 2806 -91 2034 -91 
Q 1263 -91 848 271 
Q 434 634 434 1313 
Q 434 1759 690 2068 
Q 947 2378 1403 2484 
z
M 1172 3481 
Q 1172 3119 1398 2916 
Q 1625 2713 2034 2713 
Q 2441 2713 2670 2916 
Q 2900 3119 2900 3481 
Q 2900 3844 2670 4047 
Q 2441 4250 2034 4250 
Q 1625 4250 1398 4047 
Q 1172 3844 1172 3481 
z
" transform="scale(0.015625)"/>
      </defs>
      <use xlink:href="#DejaVuSans-Oblique-66" transform="translate(0 0.015625)"/>
      <use xlink:href="#DejaVuSans-Oblique-54" transform="translate(35.205078 -16.390625) scale(0.7)"/>
      <use xlink:href="#DejaVuSans-Oblique-58" transform="translate(77.963867 -16.390625) scale(0.7)"/>
      <use xlink:href="#DejaVuSans-31" transform="translate(125.917969 -16.390625) scale(0.7)"/>
      <use xlink:href="#DejaVuSans-3a" transform="translate(192.670898 0.015625)"/>
      <use xlink:href="#DejaVuSans-Oblique-56" transform="translate(245.844727 0.015625)"/>
      <use xlink:href="#DejaVuSans-Oblique-44" transform="translate(314.25293 -16.390625) scale(0.7)"/>
      <use xlink:href="#DejaVuSans-20" transform="translate(370.888672 0.015625)"/>
      <use xlink:href="#DejaVuSans-3d" transform="translate(402.675781 0.015625)"/>
      <use xlink:href="#DejaVuSans-20" transform="translate(486.464844 0.015625)"/>
      <use xlink:href="#DejaVuSans-20" transform="translate(518.251953 0.015625)"/>
      <use xlink:href="#DejaVuSans-38" transform="translate(550.039062 0.015625)"/>
      <use xlink:href="#DejaVuSans-2e" transform="translate(613.662109 0.015625)"/>
      <use xlink:href="#DejaVuSans-34" transform="translate(645.449219 0.015625)"/>
      <use xlink:href="#DejaVuSans-65" transform="translate(709.072266 0.015625)"/>
      <use xlink:href="#DejaVuSans-2d" transform="translate(770.595703 0.015625)"/>
      <use xlink:href="#DejaVuSans-30" transform="translate(806.679688 0.015625)"/>
      <use xlink:href="#DejaVuSans-31" transform="translate(870.302734 0.015625)"/>
     </g>
    </g>
    <g id="line2d_31">
     <path d="M 208.1925 261.263125 
L 213.1925 261.263125 
L 218.1925 261.263125 
" style="fill: none; stroke: #008000; stroke-width: 2; stroke-linecap: square"/>
    </g>
    <g id="text_17">
     <!-- $f_{T X1}: V_{D}$ =  1.1e+00 -->
     <g transform="translate(220.1925 264.763125) scale(0.12 -0.12)">
      <defs>
       <path id="DejaVuSans-2b" d="M 2944 4013 
L 2944 2272 
L 4684 2272 
L 4684 1741 
L 2944 1741 
L 2944 0 
L 2419 0 
L 2419 1741 
L 678 1741 
L 678 2272 
L 2419 2272 
L 2419 4013 
L 2944 4013 
z
" transform="scale(0.015625)"/>
      </defs>
      <use xlink:href="#DejaVuSans-Oblique-66" transform="translate(0 0.015625)"/>
      <use xlink:href="#DejaVuSans-Oblique-54" transform="translate(35.205078 -16.390625) scale(0.7)"/>
      <use xlink:href="#DejaVuSans-Oblique-58" transform="translate(77.963867 -16.390625) scale(0.7)"/>
      <use xlink:href="#DejaVuSans-31" transform="translate(125.917969 -16.390625) scale(0.7)"/>
      <use xlink:href="#DejaVuSans-3a" transform="translate(192.670898 0.015625)"/>
      <use xlink:href="#DejaVuSans-Oblique-56" transform="translate(245.844727 0.015625)"/>
      <use xlink:href="#DejaVuSans-Oblique-44" transform="translate(314.25293 -16.390625) scale(0.7)"/>
      <use xlink:href="#DejaVuSans-20" transform="translate(370.888672 0.015625)"/>
      <use xlink:href="#DejaVuSans-3d" transform="translate(402.675781 0.015625)"/>
      <use xlink:href="#DejaVuSans-20" transform="translate(486.464844 0.015625)"/>
      <use xlink:href="#DejaVuSans-20" transform="translate(518.251953 0.015625)"/>
      <use xlink:href="#DejaVuSans-31" transform="translate(550.039062 0.015625)"/>
      <use xlink:href="#DejaVuSans-2e" transform="translate(613.662109 0.015625)"/>
      <use xlink:href="#DejaVuSans-31" transform="translate(645.449219 0.015625)"/>
      <use xlink:href="#DejaVuSans-65" transform="translate(709.072266 0.015625)"/>
      <use xlink:href="#DejaVuSans-2b" transform="translate(770.595703 0.015625)"/>
      <use xlink:href="#DejaVuSans-30" transform="translate(854.384766 0.015625)"/>
      <use xlink:href="#DejaVuSans-30" transform="translate(918.007812 0.015625)"/>
     </g>
    </g>
    <g id="line2d_32">
     <path d="M 208.1925 272.876875 
L 213.1925 272.876875 
L 218.1925 272.876875 
" style="fill: none; stroke: #00bfbf; stroke-width: 2; stroke-linecap: square"/>
    </g>
    <g id="text_18">
     <!-- $f_{T X1}: V_{D}$ =  1.3e+00 -->
     <g transform="translate(220.1925 276.376875) scale(0.12 -0.12)">
      <use xlink:href="#DejaVuSans-Oblique-66" transform="translate(0 0.015625)"/>
      <use xlink:href="#DejaVuSans-Oblique-54" transform="translate(35.205078 -16.390625) scale(0.7)"/>
      <use xlink:href="#DejaVuSans-Oblique-58" transform="translate(77.963867 -16.390625) scale(0.7)"/>
      <use xlink:href="#DejaVuSans-31" transform="translate(125.917969 -16.390625) scale(0.7)"/>
      <use xlink:href="#DejaVuSans-3a" transform="translate(192.670898 0.015625)"/>
      <use xlink:href="#DejaVuSans-Oblique-56" transform="translate(245.844727 0.015625)"/>
      <use xlink:href="#DejaVuSans-Oblique-44" transform="translate(314.25293 -16.390625) scale(0.7)"/>
      <use xlink:href="#DejaVuSans-20" transform="translate(370.888672 0.015625)"/>
      <use xlink:href="#DejaVuSans-3d" transform="translate(402.675781 0.015625)"/>
      <use xlink:href="#DejaVuSans-20" transform="translate(486.464844 0.015625)"/>
      <use xlink:href="#DejaVuSans-20" transform="translate(518.251953 0.015625)"/>
      <use xlink:href="#DejaVuSans-31" transform="translate(550.039062 0.015625)"/>
      <use xlink:href="#DejaVuSans-2e" transform="translate(613.662109 0.015625)"/>
      <use xlink:href="#DejaVuSans-33" transform="translate(645.449219 0.015625)"/>
      <use xlink:href="#DejaVuSans-65" transform="translate(709.072266 0.015625)"/>
      <use xlink:href="#DejaVuSans-2b" transform="translate(770.595703 0.015625)"/>
      <use xlink:href="#DejaVuSans-30" transform="translate(854.384766 0.015625)"/>
      <use xlink:href="#DejaVuSans-30" transform="translate(918.007812 0.015625)"/>
     </g>
    </g>
    <g id="line2d_33">
     <path d="M 208.1925 284.490625 
L 213.1925 284.490625 
L 218.1925 284.490625 
" style="fill: none; stroke: #bf00bf; stroke-width: 2; stroke-linecap: square"/>
    </g>
    <g id="text_19">
     <!-- $f_{T X1}: V_{D}$ =  1.6e+00 -->
     <g transform="translate(220.1925 287.990625) scale(0.12 -0.12)">
      <use xlink:href="#DejaVuSans-Oblique-66" transform="translate(0 0.015625)"/>
      <use xlink:href="#DejaVuSans-Oblique-54" transform="translate(35.205078 -16.390625) scale(0.7)"/>
      <use xlink:href="#DejaVuSans-Oblique-58" transform="translate(77.963867 -16.390625) scale(0.7)"/>
      <use xlink:href="#DejaVuSans-31" transform="translate(125.917969 -16.390625) scale(0.7)"/>
      <use xlink:href="#DejaVuSans-3a" transform="translate(192.670898 0.015625)"/>
      <use xlink:href="#DejaVuSans-Oblique-56" transform="translate(245.844727 0.015625)"/>
      <use xlink:href="#DejaVuSans-Oblique-44" transform="translate(314.25293 -16.390625) scale(0.7)"/>
      <use xlink:href="#DejaVuSans-20" transform="translate(370.888672 0.015625)"/>
      <use xlink:href="#DejaVuSans-3d" transform="translate(402.675781 0.015625)"/>
      <use xlink:href="#DejaVuSans-20" transform="translate(486.464844 0.015625)"/>
      <use xlink:href="#DejaVuSans-20" transform="translate(518.251953 0.015625)"/>
      <use xlink:href="#DejaVuSans-31" transform="translate(550.039062 0.015625)"/>
      <use xlink:href="#DejaVuSans-2e" transform="translate(613.662109 0.015625)"/>
      <use xlink:href="#DejaVuSans-36" transform="translate(645.449219 0.015625)"/>
      <use xlink:href="#DejaVuSans-65" transform="translate(709.072266 0.015625)"/>
      <use xlink:href="#DejaVuSans-2b" transform="translate(770.595703 0.015625)"/>
      <use xlink:href="#DejaVuSans-30" transform="translate(854.384766 0.015625)"/>
      <use xlink:href="#DejaVuSans-30" transform="translate(918.007812 0.015625)"/>
     </g>
    </g>
    <g id="line2d_34">
     <path d="M 208.1925 296.104375 
L 213.1925 296.104375 
L 218.1925 296.104375 
" style="fill: none; stroke: #bfbf00; stroke-width: 2; stroke-linecap: square"/>
    </g>
    <g id="text_20">
     <!-- $f_{T X1}: V_{D}$ =  1.8e+00 -->
     <g transform="translate(220.1925 299.604375) scale(0.12 -0.12)">
      <use xlink:href="#DejaVuSans-Oblique-66" transform="translate(0 0.015625)"/>
      <use xlink:href="#DejaVuSans-Oblique-54" transform="translate(35.205078 -16.390625) scale(0.7)"/>
      <use xlink:href="#DejaVuSans-Oblique-58" transform="translate(77.963867 -16.390625) scale(0.7)"/>
      <use xlink:href="#DejaVuSans-31" transform="translate(125.917969 -16.390625) scale(0.7)"/>
      <use xlink:href="#DejaVuSans-3a" transform="translate(192.670898 0.015625)"/>
      <use xlink:href="#DejaVuSans-Oblique-56" transform="translate(245.844727 0.015625)"/>
      <use xlink:href="#DejaVuSans-Oblique-44" transform="translate(314.25293 -16.390625) scale(0.7)"/>
      <use xlink:href="#DejaVuSans-20" transform="translate(370.888672 0.015625)"/>
      <use xlink:href="#DejaVuSans-3d" transform="translate(402.675781 0.015625)"/>
      <use xlink:href="#DejaVuSans-20" transform="translate(486.464844 0.015625)"/>
      <use xlink:href="#DejaVuSans-20" transform="translate(518.251953 0.015625)"/>
      <use xlink:href="#DejaVuSans-31" transform="translate(550.039062 0.015625)"/>
      <use xlink:href="#DejaVuSans-2e" transform="translate(613.662109 0.015625)"/>
      <use xlink:href="#DejaVuSans-38" transform="translate(642.824219 0.015625)"/>
      <use xlink:href="#DejaVuSans-65" transform="translate(706.447266 0.015625)"/>
      <use xlink:href="#DejaVuSans-2b" transform="translate(767.970703 0.015625)"/>
      <use xlink:href="#DejaVuSans-30" transform="translate(851.759766 0.015625)"/>
      <use xlink:href="#DejaVuSans-30" transform="translate(915.382812 0.015625)"/>
     </g>
    </g>
   </g>
  </g>
 </g>
 <defs>
  <clipPath id="pa6e10db469">
   <rect x="53.025" y="28.8" width="440.175" height="280.3"/>
  </clipPath>
 </defs>
</svg>
