<?xml version="1.0" encoding="utf-8" standalone="no"?>
<!DOCTYPE svg PUBLIC "-//W3C//DTD SVG 1.1//EN"
  "http://www.w3.org/Graphics/SVG/1.1/DTD/svg11.dtd">
<svg xmlns:xlink="http://www.w3.org/1999/xlink" width="504pt" height="360pt" viewBox="0 0 504 360" xmlns="http://www.w3.org/2000/svg" version="1.1">
 <metadata>
  <rdf:RDF xmlns:dc="http://purl.org/dc/elements/1.1/" xmlns:cc="http://creativecommons.org/ns#" xmlns:rdf="http://www.w3.org/1999/02/22-rdf-syntax-ns#">
   <cc:Work>
    <dc:type rdf:resource="http://purl.org/dc/dcmitype/StillImage"/>
    <dc:date>2024-10-20T16:56:29.716074</dc:date>
    <dc:format>image/svg+xml</dc:format>
    <dc:creator>
     <cc:Agent>
      <dc:title>Matplotlib v3.7.2, https://matplotlib.org/</dc:title>
     </cc:Agent>
    </dc:creator>
   </cc:Work>
  </rdf:RDF>
 </metadata>
 <defs>
  <style type="text/css">*{stroke-linejoin: round; stroke-linecap: butt}</style>
 </defs>
 <g id="figure_1">
  <g id="patch_1">
   <path d="M 0 360 
L 504 360 
L 504 0 
L 0 0 
z
" style="fill: #ffffff"/>
  </g>
  <g id="axes_1">
   <g id="patch_2">
    <path d="M 63 315 
L 453.6 315 
L 453.6 43.2 
L 63 43.2 
z
" style="fill: #ffffff"/>
   </g>
   <g id="matplotlib.axis_1">
    <g id="xtick_1">
     <g id="line2d_1">
      <path d="M 80.754545 315 
L 80.754545 43.2 
" clip-path="url(#p0d51434c41)" style="fill: none; stroke: #808080; stroke-width: 0.8; stroke-linecap: square"/>
     </g>
     <g id="line2d_2">
      <defs>
       <path id="m4181b832ab" d="M 0 0 
L 0 3.5 
" style="stroke: #000000; stroke-width: 0.8"/>
      </defs>
      <g>
       <use xlink:href="#m4181b832ab" x="80.754545" y="315" style="stroke: #000000; stroke-width: 0.8"/>
      </g>
     </g>
     <g id="text_1">
      <!-- $\mathdefault{10^{-1}}$ -->
      <g transform="translate(66.654545 331.118125) scale(0.12 -0.12)">
       <defs>
        <path id="DejaVuSans-31" d="M 794 531 
L 1825 531 
L 1825 4091 
L 703 3866 
L 703 4441 
L 1819 4666 
L 2450 4666 
L 2450 531 
L 3481 531 
L 3481 0 
L 794 0 
L 794 531 
z
" transform="scale(0.015625)"/>
        <path id="DejaVuSans-30" d="M 2034 4250 
Q 1547 4250 1301 3770 
Q 1056 3291 1056 2328 
Q 1056 1369 1301 889 
Q 1547 409 2034 409 
Q 2525 409 2770 889 
Q 3016 1369 3016 2328 
Q 3016 3291 2770 3770 
Q 2525 4250 2034 4250 
z
M 2034 4750 
Q 2819 4750 3233 4129 
Q 3647 3509 3647 2328 
Q 3647 1150 3233 529 
Q 2819 -91 2034 -91 
Q 1250 -91 836 529 
Q 422 1150 422 2328 
Q 422 3509 836 4129 
Q 1250 4750 2034 4750 
z
" transform="scale(0.015625)"/>
        <path id="DejaVuSans-2212" d="M 678 2272 
L 4684 2272 
L 4684 1741 
L 678 1741 
L 678 2272 
z
" transform="scale(0.015625)"/>
       </defs>
       <use xlink:href="#DejaVuSans-31" transform="translate(0 0.684375)"/>
       <use xlink:href="#DejaVuSans-30" transform="translate(63.623047 0.684375)"/>
       <use xlink:href="#DejaVuSans-2212" transform="translate(128.203125 38.965625) scale(0.7)"/>
       <use xlink:href="#DejaVuSans-31" transform="translate(186.855469 38.965625) scale(0.7)"/>
      </g>
     </g>
    </g>
    <g id="xtick_2">
     <g id="line2d_3">
      <path d="M 199.118182 315 
L 199.118182 43.2 
" clip-path="url(#p0d51434c41)" style="fill: none; stroke: #808080; stroke-width: 0.8; stroke-linecap: square"/>
     </g>
     <g id="line2d_4">
      <g>
       <use xlink:href="#m4181b832ab" x="199.118182" y="315" style="stroke: #000000; stroke-width: 0.8"/>
      </g>
     </g>
     <g id="text_2">
      <!-- $\mathdefault{10^{0}}$ -->
      <g transform="translate(188.558182 331.118125) scale(0.12 -0.12)">
       <use xlink:href="#DejaVuSans-31" transform="translate(0 0.765625)"/>
       <use xlink:href="#DejaVuSans-30" transform="translate(63.623047 0.765625)"/>
       <use xlink:href="#DejaVuSans-30" transform="translate(128.203125 39.046875) scale(0.7)"/>
      </g>
     </g>
    </g>
    <g id="xtick_3">
     <g id="line2d_5">
      <path d="M 317.481818 315 
L 317.481818 43.2 
" clip-path="url(#p0d51434c41)" style="fill: none; stroke: #808080; stroke-width: 0.8; stroke-linecap: square"/>
     </g>
     <g id="line2d_6">
      <g>
       <use xlink:href="#m4181b832ab" x="317.481818" y="315" style="stroke: #000000; stroke-width: 0.8"/>
      </g>
     </g>
     <g id="text_3">
      <!-- $\mathdefault{10^{1}}$ -->
      <g transform="translate(306.921818 331.118125) scale(0.12 -0.12)">
       <use xlink:href="#DejaVuSans-31" transform="translate(0 0.684375)"/>
       <use xlink:href="#DejaVuSans-30" transform="translate(63.623047 0.684375)"/>
       <use xlink:href="#DejaVuSans-31" transform="translate(128.203125 38.965625) scale(0.7)"/>
      </g>
     </g>
    </g>
    <g id="xtick_4">
     <g id="line2d_7">
      <path d="M 435.845455 315 
L 435.845455 43.2 
" clip-path="url(#p0d51434c41)" style="fill: none; stroke: #808080; stroke-width: 0.8; stroke-linecap: square"/>
     </g>
     <g id="line2d_8">
      <g>
       <use xlink:href="#m4181b832ab" x="435.845455" y="315" style="stroke: #000000; stroke-width: 0.8"/>
      </g>
     </g>
     <g id="text_4">
      <!-- $\mathdefault{10^{2}}$ -->
      <g transform="translate(425.285455 331.118125) scale(0.12 -0.12)">
       <defs>
        <path id="DejaVuSans-32" d="M 1228 531 
L 3431 531 
L 3431 0 
L 469 0 
L 469 531 
Q 828 903 1448 1529 
Q 2069 2156 2228 2338 
Q 2531 2678 2651 2914 
Q 2772 3150 2772 3378 
Q 2772 3750 2511 3984 
Q 2250 4219 1831 4219 
Q 1534 4219 1204 4116 
Q 875 4013 500 3803 
L 500 4441 
Q 881 4594 1212 4672 
Q 1544 4750 1819 4750 
Q 2544 4750 2975 4387 
Q 3406 4025 3406 3419 
Q 3406 3131 3298 2873 
Q 3191 2616 2906 2266 
Q 2828 2175 2409 1742 
Q 1991 1309 1228 531 
z
" transform="scale(0.015625)"/>
       </defs>
       <use xlink:href="#DejaVuSans-31" transform="translate(0 0.765625)"/>
       <use xlink:href="#DejaVuSans-30" transform="translate(63.623047 0.765625)"/>
       <use xlink:href="#DejaVuSans-32" transform="translate(128.203125 39.046875) scale(0.7)"/>
      </g>
     </g>
    </g>
    <g id="xtick_5">
     <g id="line2d_9">
      <path d="M 69.283924 315 
L 69.283924 43.2 
" clip-path="url(#p0d51434c41)" style="fill: none; stroke-dasharray: 0.8,1.32; stroke-dashoffset: 0; stroke: #808080; stroke-width: 0.8"/>
     </g>
     <g id="line2d_10">
      <defs>
       <path id="md016a7263f" d="M 0 0 
L 0 2 
" style="stroke: #000000; stroke-width: 0.6"/>
      </defs>
      <g>
       <use xlink:href="#md016a7263f" x="69.283924" y="315" style="stroke: #000000; stroke-width: 0.6"/>
      </g>
     </g>
    </g>
    <g id="xtick_6">
     <g id="line2d_11">
      <path d="M 75.338522 315 
L 75.338522 43.2 
" clip-path="url(#p0d51434c41)" style="fill: none; stroke-dasharray: 0.8,1.32; stroke-dashoffset: 0; stroke: #808080; stroke-width: 0.8"/>
     </g>
     <g id="line2d_12">
      <g>
       <use xlink:href="#md016a7263f" x="75.338522" y="315" style="stroke: #000000; stroke-width: 0.6"/>
      </g>
     </g>
    </g>
    <g id="xtick_7">
     <g id="line2d_13">
      <path d="M 116.38555 315 
L 116.38555 43.2 
" clip-path="url(#p0d51434c41)" style="fill: none; stroke-dasharray: 0.8,1.32; stroke-dashoffset: 0; stroke: #808080; stroke-width: 0.8"/>
     </g>
     <g id="line2d_14">
      <g>
       <use xlink:href="#md016a7263f" x="116.38555" y="315" style="stroke: #000000; stroke-width: 0.6"/>
      </g>
     </g>
    </g>
    <g id="xtick_8">
     <g id="line2d_15">
      <path d="M 137.228352 315 
L 137.228352 43.2 
" clip-path="url(#p0d51434c41)" style="fill: none; stroke-dasharray: 0.8,1.32; stroke-dashoffset: 0; stroke: #808080; stroke-width: 0.8"/>
     </g>
     <g id="line2d_16">
      <g>
       <use xlink:href="#md016a7263f" x="137.228352" y="315" style="stroke: #000000; stroke-width: 0.6"/>
      </g>
     </g>
    </g>
    <g id="xtick_9">
     <g id="line2d_17">
      <path d="M 152.016555 315 
L 152.016555 43.2 
" clip-path="url(#p0d51434c41)" style="fill: none; stroke-dasharray: 0.8,1.32; stroke-dashoffset: 0; stroke: #808080; stroke-width: 0.8"/>
     </g>
     <g id="line2d_18">
      <g>
       <use xlink:href="#md016a7263f" x="152.016555" y="315" style="stroke: #000000; stroke-width: 0.6"/>
      </g>
     </g>
    </g>
    <g id="xtick_10">
     <g id="line2d_19">
      <path d="M 163.487177 315 
L 163.487177 43.2 
" clip-path="url(#p0d51434c41)" style="fill: none; stroke-dasharray: 0.8,1.32; stroke-dashoffset: 0; stroke: #808080; stroke-width: 0.8"/>
     </g>
     <g id="line2d_20">
      <g>
       <use xlink:href="#md016a7263f" x="163.487177" y="315" style="stroke: #000000; stroke-width: 0.6"/>
      </g>
     </g>
    </g>
    <g id="xtick_11">
     <g id="line2d_21">
      <path d="M 172.859357 315 
L 172.859357 43.2 
" clip-path="url(#p0d51434c41)" style="fill: none; stroke-dasharray: 0.8,1.32; stroke-dashoffset: 0; stroke: #808080; stroke-width: 0.8"/>
     </g>
     <g id="line2d_22">
      <g>
       <use xlink:href="#md016a7263f" x="172.859357" y="315" style="stroke: #000000; stroke-width: 0.6"/>
      </g>
     </g>
    </g>
    <g id="xtick_12">
     <g id="line2d_23">
      <path d="M 180.783423 315 
L 180.783423 43.2 
" clip-path="url(#p0d51434c41)" style="fill: none; stroke-dasharray: 0.8,1.32; stroke-dashoffset: 0; stroke: #808080; stroke-width: 0.8"/>
     </g>
     <g id="line2d_24">
      <g>
       <use xlink:href="#md016a7263f" x="180.783423" y="315" style="stroke: #000000; stroke-width: 0.6"/>
      </g>
     </g>
    </g>
    <g id="xtick_13">
     <g id="line2d_25">
      <path d="M 187.64756 315 
L 187.64756 43.2 
" clip-path="url(#p0d51434c41)" style="fill: none; stroke-dasharray: 0.8,1.32; stroke-dashoffset: 0; stroke: #808080; stroke-width: 0.8"/>
     </g>
     <g id="line2d_26">
      <g>
       <use xlink:href="#md016a7263f" x="187.64756" y="315" style="stroke: #000000; stroke-width: 0.6"/>
      </g>
     </g>
    </g>
    <g id="xtick_14">
     <g id="line2d_27">
      <path d="M 193.702159 315 
L 193.702159 43.2 
" clip-path="url(#p0d51434c41)" style="fill: none; stroke-dasharray: 0.8,1.32; stroke-dashoffset: 0; stroke: #808080; stroke-width: 0.8"/>
     </g>
     <g id="line2d_28">
      <g>
       <use xlink:href="#md016a7263f" x="193.702159" y="315" style="stroke: #000000; stroke-width: 0.6"/>
      </g>
     </g>
    </g>
    <g id="xtick_15">
     <g id="line2d_29">
      <path d="M 234.749187 315 
L 234.749187 43.2 
" clip-path="url(#p0d51434c41)" style="fill: none; stroke-dasharray: 0.8,1.32; stroke-dashoffset: 0; stroke: #808080; stroke-width: 0.8"/>
     </g>
     <g id="line2d_30">
      <g>
       <use xlink:href="#md016a7263f" x="234.749187" y="315" style="stroke: #000000; stroke-width: 0.6"/>
      </g>
     </g>
    </g>
    <g id="xtick_16">
     <g id="line2d_31">
      <path d="M 255.591989 315 
L 255.591989 43.2 
" clip-path="url(#p0d51434c41)" style="fill: none; stroke-dasharray: 0.8,1.32; stroke-dashoffset: 0; stroke: #808080; stroke-width: 0.8"/>
     </g>
     <g id="line2d_32">
      <g>
       <use xlink:href="#md016a7263f" x="255.591989" y="315" style="stroke: #000000; stroke-width: 0.6"/>
      </g>
     </g>
    </g>
    <g id="xtick_17">
     <g id="line2d_33">
      <path d="M 270.380192 315 
L 270.380192 43.2 
" clip-path="url(#p0d51434c41)" style="fill: none; stroke-dasharray: 0.8,1.32; stroke-dashoffset: 0; stroke: #808080; stroke-width: 0.8"/>
     </g>
     <g id="line2d_34">
      <g>
       <use xlink:href="#md016a7263f" x="270.380192" y="315" style="stroke: #000000; stroke-width: 0.6"/>
      </g>
     </g>
    </g>
    <g id="xtick_18">
     <g id="line2d_35">
      <path d="M 281.850813 315 
L 281.850813 43.2 
" clip-path="url(#p0d51434c41)" style="fill: none; stroke-dasharray: 0.8,1.32; stroke-dashoffset: 0; stroke: #808080; stroke-width: 0.8"/>
     </g>
     <g id="line2d_36">
      <g>
       <use xlink:href="#md016a7263f" x="281.850813" y="315" style="stroke: #000000; stroke-width: 0.6"/>
      </g>
     </g>
    </g>
    <g id="xtick_19">
     <g id="line2d_37">
      <path d="M 291.222993 315 
L 291.222993 43.2 
" clip-path="url(#p0d51434c41)" style="fill: none; stroke-dasharray: 0.8,1.32; stroke-dashoffset: 0; stroke: #808080; stroke-width: 0.8"/>
     </g>
     <g id="line2d_38">
      <g>
       <use xlink:href="#md016a7263f" x="291.222993" y="315" style="stroke: #000000; stroke-width: 0.6"/>
      </g>
     </g>
    </g>
    <g id="xtick_20">
     <g id="line2d_39">
      <path d="M 299.147059 315 
L 299.147059 43.2 
" clip-path="url(#p0d51434c41)" style="fill: none; stroke-dasharray: 0.8,1.32; stroke-dashoffset: 0; stroke: #808080; stroke-width: 0.8"/>
     </g>
     <g id="line2d_40">
      <g>
       <use xlink:href="#md016a7263f" x="299.147059" y="315" style="stroke: #000000; stroke-width: 0.6"/>
      </g>
     </g>
    </g>
    <g id="xtick_21">
     <g id="line2d_41">
      <path d="M 306.011197 315 
L 306.011197 43.2 
" clip-path="url(#p0d51434c41)" style="fill: none; stroke-dasharray: 0.8,1.32; stroke-dashoffset: 0; stroke: #808080; stroke-width: 0.8"/>
     </g>
     <g id="line2d_42">
      <g>
       <use xlink:href="#md016a7263f" x="306.011197" y="315" style="stroke: #000000; stroke-width: 0.6"/>
      </g>
     </g>
    </g>
    <g id="xtick_22">
     <g id="line2d_43">
      <path d="M 312.065795 315 
L 312.065795 43.2 
" clip-path="url(#p0d51434c41)" style="fill: none; stroke-dasharray: 0.8,1.32; stroke-dashoffset: 0; stroke: #808080; stroke-width: 0.8"/>
     </g>
     <g id="line2d_44">
      <g>
       <use xlink:href="#md016a7263f" x="312.065795" y="315" style="stroke: #000000; stroke-width: 0.6"/>
      </g>
     </g>
    </g>
    <g id="xtick_23">
     <g id="line2d_45">
      <path d="M 353.112823 315 
L 353.112823 43.2 
" clip-path="url(#p0d51434c41)" style="fill: none; stroke-dasharray: 0.8,1.32; stroke-dashoffset: 0; stroke: #808080; stroke-width: 0.8"/>
     </g>
     <g id="line2d_46">
      <g>
       <use xlink:href="#md016a7263f" x="353.112823" y="315" style="stroke: #000000; stroke-width: 0.6"/>
      </g>
     </g>
    </g>
    <g id="xtick_24">
     <g id="line2d_47">
      <path d="M 373.955625 315 
L 373.955625 43.2 
" clip-path="url(#p0d51434c41)" style="fill: none; stroke-dasharray: 0.8,1.32; stroke-dashoffset: 0; stroke: #808080; stroke-width: 0.8"/>
     </g>
     <g id="line2d_48">
      <g>
       <use xlink:href="#md016a7263f" x="373.955625" y="315" style="stroke: #000000; stroke-width: 0.6"/>
      </g>
     </g>
    </g>
    <g id="xtick_25">
     <g id="line2d_49">
      <path d="M 388.743828 315 
L 388.743828 43.2 
" clip-path="url(#p0d51434c41)" style="fill: none; stroke-dasharray: 0.8,1.32; stroke-dashoffset: 0; stroke: #808080; stroke-width: 0.8"/>
     </g>
     <g id="line2d_50">
      <g>
       <use xlink:href="#md016a7263f" x="388.743828" y="315" style="stroke: #000000; stroke-width: 0.6"/>
      </g>
     </g>
    </g>
    <g id="xtick_26">
     <g id="line2d_51">
      <path d="M 400.21445 315 
L 400.21445 43.2 
" clip-path="url(#p0d51434c41)" style="fill: none; stroke-dasharray: 0.8,1.32; stroke-dashoffset: 0; stroke: #808080; stroke-width: 0.8"/>
     </g>
     <g id="line2d_52">
      <g>
       <use xlink:href="#md016a7263f" x="400.21445" y="315" style="stroke: #000000; stroke-width: 0.6"/>
      </g>
     </g>
    </g>
    <g id="xtick_27">
     <g id="line2d_53">
      <path d="M 409.58663 315 
L 409.58663 43.2 
" clip-path="url(#p0d51434c41)" style="fill: none; stroke-dasharray: 0.8,1.32; stroke-dashoffset: 0; stroke: #808080; stroke-width: 0.8"/>
     </g>
     <g id="line2d_54">
      <g>
       <use xlink:href="#md016a7263f" x="409.58663" y="315" style="stroke: #000000; stroke-width: 0.6"/>
      </g>
     </g>
    </g>
    <g id="xtick_28">
     <g id="line2d_55">
      <path d="M 417.510695 315 
L 417.510695 43.2 
" clip-path="url(#p0d51434c41)" style="fill: none; stroke-dasharray: 0.8,1.32; stroke-dashoffset: 0; stroke: #808080; stroke-width: 0.8"/>
     </g>
     <g id="line2d_56">
      <g>
       <use xlink:href="#md016a7263f" x="417.510695" y="315" style="stroke: #000000; stroke-width: 0.6"/>
      </g>
     </g>
    </g>
    <g id="xtick_29">
     <g id="line2d_57">
      <path d="M 424.374833 315 
L 424.374833 43.2 
" clip-path="url(#p0d51434c41)" style="fill: none; stroke-dasharray: 0.8,1.32; stroke-dashoffset: 0; stroke: #808080; stroke-width: 0.8"/>
     </g>
     <g id="line2d_58">
      <g>
       <use xlink:href="#md016a7263f" x="424.374833" y="315" style="stroke: #000000; stroke-width: 0.6"/>
      </g>
     </g>
    </g>
    <g id="xtick_30">
     <g id="line2d_59">
      <path d="M 430.429432 315 
L 430.429432 43.2 
" clip-path="url(#p0d51434c41)" style="fill: none; stroke-dasharray: 0.8,1.32; stroke-dashoffset: 0; stroke: #808080; stroke-width: 0.8"/>
     </g>
     <g id="line2d_60">
      <g>
       <use xlink:href="#md016a7263f" x="430.429432" y="315" style="stroke: #000000; stroke-width: 0.6"/>
      </g>
     </g>
    </g>
    <g id="text_5">
     <!-- frequency [GHz] -->
     <g transform="translate(209.309063 346.731875) scale(0.12 -0.12)">
      <defs>
       <path id="DejaVuSans-66" d="M 2375 4863 
L 2375 4384 
L 1825 4384 
Q 1516 4384 1395 4259 
Q 1275 4134 1275 3809 
L 1275 3500 
L 2222 3500 
L 2222 3053 
L 1275 3053 
L 1275 0 
L 697 0 
L 697 3053 
L 147 3053 
L 147 3500 
L 697 3500 
L 697 3744 
Q 697 4328 969 4595 
Q 1241 4863 1831 4863 
L 2375 4863 
z
" transform="scale(0.015625)"/>
       <path id="DejaVuSans-72" d="M 2631 2963 
Q 2534 3019 2420 3045 
Q 2306 3072 2169 3072 
Q 1681 3072 1420 2755 
Q 1159 2438 1159 1844 
L 1159 0 
L 581 0 
L 581 3500 
L 1159 3500 
L 1159 2956 
Q 1341 3275 1631 3429 
Q 1922 3584 2338 3584 
Q 2397 3584 2469 3576 
Q 2541 3569 2628 3553 
L 2631 2963 
z
" transform="scale(0.015625)"/>
       <path id="DejaVuSans-65" d="M 3597 1894 
L 3597 1613 
L 953 1613 
Q 991 1019 1311 708 
Q 1631 397 2203 397 
Q 2534 397 2845 478 
Q 3156 559 3463 722 
L 3463 178 
Q 3153 47 2828 -22 
Q 2503 -91 2169 -91 
Q 1331 -91 842 396 
Q 353 884 353 1716 
Q 353 2575 817 3079 
Q 1281 3584 2069 3584 
Q 2775 3584 3186 3129 
Q 3597 2675 3597 1894 
z
M 3022 2063 
Q 3016 2534 2758 2815 
Q 2500 3097 2075 3097 
Q 1594 3097 1305 2825 
Q 1016 2553 972 2059 
L 3022 2063 
z
" transform="scale(0.015625)"/>
       <path id="DejaVuSans-71" d="M 947 1747 
Q 947 1113 1208 752 
Q 1469 391 1925 391 
Q 2381 391 2643 752 
Q 2906 1113 2906 1747 
Q 2906 2381 2643 2742 
Q 2381 3103 1925 3103 
Q 1469 3103 1208 2742 
Q 947 2381 947 1747 
z
M 2906 525 
Q 2725 213 2448 61 
Q 2172 -91 1784 -91 
Q 1150 -91 751 415 
Q 353 922 353 1747 
Q 353 2572 751 3078 
Q 1150 3584 1784 3584 
Q 2172 3584 2448 3432 
Q 2725 3281 2906 2969 
L 2906 3500 
L 3481 3500 
L 3481 -1331 
L 2906 -1331 
L 2906 525 
z
" transform="scale(0.015625)"/>
       <path id="DejaVuSans-75" d="M 544 1381 
L 544 3500 
L 1119 3500 
L 1119 1403 
Q 1119 906 1312 657 
Q 1506 409 1894 409 
Q 2359 409 2629 706 
Q 2900 1003 2900 1516 
L 2900 3500 
L 3475 3500 
L 3475 0 
L 2900 0 
L 2900 538 
Q 2691 219 2414 64 
Q 2138 -91 1772 -91 
Q 1169 -91 856 284 
Q 544 659 544 1381 
z
M 1991 3584 
L 1991 3584 
z
" transform="scale(0.015625)"/>
       <path id="DejaVuSans-6e" d="M 3513 2113 
L 3513 0 
L 2938 0 
L 2938 2094 
Q 2938 2591 2744 2837 
Q 2550 3084 2163 3084 
Q 1697 3084 1428 2787 
Q 1159 2491 1159 1978 
L 1159 0 
L 581 0 
L 581 3500 
L 1159 3500 
L 1159 2956 
Q 1366 3272 1645 3428 
Q 1925 3584 2291 3584 
Q 2894 3584 3203 3211 
Q 3513 2838 3513 2113 
z
" transform="scale(0.015625)"/>
       <path id="DejaVuSans-63" d="M 3122 3366 
L 3122 2828 
Q 2878 2963 2633 3030 
Q 2388 3097 2138 3097 
Q 1578 3097 1268 2742 
Q 959 2388 959 1747 
Q 959 1106 1268 751 
Q 1578 397 2138 397 
Q 2388 397 2633 464 
Q 2878 531 3122 666 
L 3122 134 
Q 2881 22 2623 -34 
Q 2366 -91 2075 -91 
Q 1284 -91 818 406 
Q 353 903 353 1747 
Q 353 2603 823 3093 
Q 1294 3584 2113 3584 
Q 2378 3584 2631 3529 
Q 2884 3475 3122 3366 
z
" transform="scale(0.015625)"/>
       <path id="DejaVuSans-79" d="M 2059 -325 
Q 1816 -950 1584 -1140 
Q 1353 -1331 966 -1331 
L 506 -1331 
L 506 -850 
L 844 -850 
Q 1081 -850 1212 -737 
Q 1344 -625 1503 -206 
L 1606 56 
L 191 3500 
L 800 3500 
L 1894 763 
L 2988 3500 
L 3597 3500 
L 2059 -325 
z
" transform="scale(0.015625)"/>
       <path id="DejaVuSans-20" transform="scale(0.015625)"/>
       <path id="DejaVuSans-5b" d="M 550 4863 
L 1875 4863 
L 1875 4416 
L 1125 4416 
L 1125 -397 
L 1875 -397 
L 1875 -844 
L 550 -844 
L 550 4863 
z
" transform="scale(0.015625)"/>
       <path id="DejaVuSans-47" d="M 3809 666 
L 3809 1919 
L 2778 1919 
L 2778 2438 
L 4434 2438 
L 4434 434 
Q 4069 175 3628 42 
Q 3188 -91 2688 -91 
Q 1594 -91 976 548 
Q 359 1188 359 2328 
Q 359 3472 976 4111 
Q 1594 4750 2688 4750 
Q 3144 4750 3555 4637 
Q 3966 4525 4313 4306 
L 4313 3634 
Q 3963 3931 3569 4081 
Q 3175 4231 2741 4231 
Q 1884 4231 1454 3753 
Q 1025 3275 1025 2328 
Q 1025 1384 1454 906 
Q 1884 428 2741 428 
Q 3075 428 3337 486 
Q 3600 544 3809 666 
z
" transform="scale(0.015625)"/>
       <path id="DejaVuSans-48" d="M 628 4666 
L 1259 4666 
L 1259 2753 
L 3553 2753 
L 3553 4666 
L 4184 4666 
L 4184 0 
L 3553 0 
L 3553 2222 
L 1259 2222 
L 1259 0 
L 628 0 
L 628 4666 
z
" transform="scale(0.015625)"/>
       <path id="DejaVuSans-7a" d="M 353 3500 
L 3084 3500 
L 3084 2975 
L 922 459 
L 3084 459 
L 3084 0 
L 275 0 
L 275 525 
L 2438 3041 
L 353 3041 
L 353 3500 
z
" transform="scale(0.015625)"/>
       <path id="DejaVuSans-5d" d="M 1947 4863 
L 1947 -844 
L 622 -844 
L 622 -397 
L 1369 -397 
L 1369 4416 
L 622 4416 
L 622 4863 
L 1947 4863 
z
" transform="scale(0.015625)"/>
      </defs>
      <use xlink:href="#DejaVuSans-66"/>
      <use xlink:href="#DejaVuSans-72" x="35.205078"/>
      <use xlink:href="#DejaVuSans-65" x="74.068359"/>
      <use xlink:href="#DejaVuSans-71" x="135.591797"/>
      <use xlink:href="#DejaVuSans-75" x="199.068359"/>
      <use xlink:href="#DejaVuSans-65" x="262.447266"/>
      <use xlink:href="#DejaVuSans-6e" x="323.970703"/>
      <use xlink:href="#DejaVuSans-63" x="387.349609"/>
      <use xlink:href="#DejaVuSans-79" x="442.330078"/>
      <use xlink:href="#DejaVuSans-20" x="501.509766"/>
      <use xlink:href="#DejaVuSans-5b" x="533.296875"/>
      <use xlink:href="#DejaVuSans-47" x="572.310547"/>
      <use xlink:href="#DejaVuSans-48" x="649.800781"/>
      <use xlink:href="#DejaVuSans-7a" x="724.996094"/>
      <use xlink:href="#DejaVuSans-5d" x="777.486328"/>
     </g>
    </g>
   </g>
   <g id="matplotlib.axis_2">
    <g id="ytick_1">
     <g id="line2d_61">
      <path d="M 63 307.020684 
L 453.6 307.020684 
" clip-path="url(#p0d51434c41)" style="fill: none; stroke: #808080; stroke-width: 0.8; stroke-linecap: square"/>
     </g>
     <g id="line2d_62">
      <defs>
       <path id="ma5d64a8db8" d="M 0 0 
L -3.5 0 
" style="stroke: #000000; stroke-width: 0.8"/>
      </defs>
      <g>
       <use xlink:href="#ma5d64a8db8" x="63" y="307.020684" style="stroke: #000000; stroke-width: 0.8"/>
      </g>
     </g>
     <g id="text_6">
      <!-- −140 -->
      <g transform="translate(23.039375 311.579747) scale(0.12 -0.12)">
       <defs>
        <path id="DejaVuSans-34" d="M 2419 4116 
L 825 1625 
L 2419 1625 
L 2419 4116 
z
M 2253 4666 
L 3047 4666 
L 3047 1625 
L 3713 1625 
L 3713 1100 
L 3047 1100 
L 3047 0 
L 2419 0 
L 2419 1100 
L 313 1100 
L 313 1709 
L 2253 4666 
z
" transform="scale(0.015625)"/>
       </defs>
       <use xlink:href="#DejaVuSans-2212"/>
       <use xlink:href="#DejaVuSans-31" x="83.789062"/>
       <use xlink:href="#DejaVuSans-34" x="147.412109"/>
       <use xlink:href="#DejaVuSans-30" x="211.035156"/>
      </g>
     </g>
    </g>
    <g id="ytick_2">
     <g id="line2d_63">
      <path d="M 63 269.671665 
L 453.6 269.671665 
" clip-path="url(#p0d51434c41)" style="fill: none; stroke: #808080; stroke-width: 0.8; stroke-linecap: square"/>
     </g>
     <g id="line2d_64">
      <g>
       <use xlink:href="#ma5d64a8db8" x="63" y="269.671665" style="stroke: #000000; stroke-width: 0.8"/>
      </g>
     </g>
     <g id="text_7">
      <!-- −120 -->
      <g transform="translate(23.039375 274.230727) scale(0.12 -0.12)">
       <use xlink:href="#DejaVuSans-2212"/>
       <use xlink:href="#DejaVuSans-31" x="83.789062"/>
       <use xlink:href="#DejaVuSans-32" x="147.412109"/>
       <use xlink:href="#DejaVuSans-30" x="211.035156"/>
      </g>
     </g>
    </g>
    <g id="ytick_3">
     <g id="line2d_65">
      <path d="M 63 232.322646 
L 453.6 232.322646 
" clip-path="url(#p0d51434c41)" style="fill: none; stroke: #808080; stroke-width: 0.8; stroke-linecap: square"/>
     </g>
     <g id="line2d_66">
      <g>
       <use xlink:href="#ma5d64a8db8" x="63" y="232.322646" style="stroke: #000000; stroke-width: 0.8"/>
      </g>
     </g>
     <g id="text_8">
      <!-- −100 -->
      <g transform="translate(23.039375 236.881708) scale(0.12 -0.12)">
       <use xlink:href="#DejaVuSans-2212"/>
       <use xlink:href="#DejaVuSans-31" x="83.789062"/>
       <use xlink:href="#DejaVuSans-30" x="147.412109"/>
       <use xlink:href="#DejaVuSans-30" x="211.035156"/>
      </g>
     </g>
    </g>
    <g id="ytick_4">
     <g id="line2d_67">
      <path d="M 63 194.973626 
L 453.6 194.973626 
" clip-path="url(#p0d51434c41)" style="fill: none; stroke: #808080; stroke-width: 0.8; stroke-linecap: square"/>
     </g>
     <g id="line2d_68">
      <g>
       <use xlink:href="#ma5d64a8db8" x="63" y="194.973626" style="stroke: #000000; stroke-width: 0.8"/>
      </g>
     </g>
     <g id="text_9">
      <!-- −80 -->
      <g transform="translate(30.674375 199.532689) scale(0.12 -0.12)">
       <defs>
        <path id="DejaVuSans-38" d="M 2034 2216 
Q 1584 2216 1326 1975 
Q 1069 1734 1069 1313 
Q 1069 891 1326 650 
Q 1584 409 2034 409 
Q 2484 409 2743 651 
Q 3003 894 3003 1313 
Q 3003 1734 2745 1975 
Q 2488 2216 2034 2216 
z
M 1403 2484 
Q 997 2584 770 2862 
Q 544 3141 544 3541 
Q 544 4100 942 4425 
Q 1341 4750 2034 4750 
Q 2731 4750 3128 4425 
Q 3525 4100 3525 3541 
Q 3525 3141 3298 2862 
Q 3072 2584 2669 2484 
Q 3125 2378 3379 2068 
Q 3634 1759 3634 1313 
Q 3634 634 3220 271 
Q 2806 -91 2034 -91 
Q 1263 -91 848 271 
Q 434 634 434 1313 
Q 434 1759 690 2068 
Q 947 2378 1403 2484 
z
M 1172 3481 
Q 1172 3119 1398 2916 
Q 1625 2713 2034 2713 
Q 2441 2713 2670 2916 
Q 2900 3119 2900 3481 
Q 2900 3844 2670 4047 
Q 2441 4250 2034 4250 
Q 1625 4250 1398 4047 
Q 1172 3844 1172 3481 
z
" transform="scale(0.015625)"/>
       </defs>
       <use xlink:href="#DejaVuSans-2212"/>
       <use xlink:href="#DejaVuSans-38" x="83.789062"/>
       <use xlink:href="#DejaVuSans-30" x="147.412109"/>
      </g>
     </g>
    </g>
    <g id="ytick_5">
     <g id="line2d_69">
      <path d="M 63 157.624607 
L 453.6 157.624607 
" clip-path="url(#p0d51434c41)" style="fill: none; stroke: #808080; stroke-width: 0.8; stroke-linecap: square"/>
     </g>
     <g id="line2d_70">
      <g>
       <use xlink:href="#ma5d64a8db8" x="63" y="157.624607" style="stroke: #000000; stroke-width: 0.8"/>
      </g>
     </g>
     <g id="text_10">
      <!-- −60 -->
      <g transform="translate(30.674375 162.18367) scale(0.12 -0.12)">
       <defs>
        <path id="DejaVuSans-36" d="M 2113 2584 
Q 1688 2584 1439 2293 
Q 1191 2003 1191 1497 
Q 1191 994 1439 701 
Q 1688 409 2113 409 
Q 2538 409 2786 701 
Q 3034 994 3034 1497 
Q 3034 2003 2786 2293 
Q 2538 2584 2113 2584 
z
M 3366 4563 
L 3366 3988 
Q 3128 4100 2886 4159 
Q 2644 4219 2406 4219 
Q 1781 4219 1451 3797 
Q 1122 3375 1075 2522 
Q 1259 2794 1537 2939 
Q 1816 3084 2150 3084 
Q 2853 3084 3261 2657 
Q 3669 2231 3669 1497 
Q 3669 778 3244 343 
Q 2819 -91 2113 -91 
Q 1303 -91 875 529 
Q 447 1150 447 2328 
Q 447 3434 972 4092 
Q 1497 4750 2381 4750 
Q 2619 4750 2861 4703 
Q 3103 4656 3366 4563 
z
" transform="scale(0.015625)"/>
       </defs>
       <use xlink:href="#DejaVuSans-2212"/>
       <use xlink:href="#DejaVuSans-36" x="83.789062"/>
       <use xlink:href="#DejaVuSans-30" x="147.412109"/>
      </g>
     </g>
    </g>
    <g id="ytick_6">
     <g id="line2d_71">
      <path d="M 63 120.275588 
L 453.6 120.275588 
" clip-path="url(#p0d51434c41)" style="fill: none; stroke: #808080; stroke-width: 0.8; stroke-linecap: square"/>
     </g>
     <g id="line2d_72">
      <g>
       <use xlink:href="#ma5d64a8db8" x="63" y="120.275588" style="stroke: #000000; stroke-width: 0.8"/>
      </g>
     </g>
     <g id="text_11">
      <!-- −40 -->
      <g transform="translate(30.674375 124.83465) scale(0.12 -0.12)">
       <use xlink:href="#DejaVuSans-2212"/>
       <use xlink:href="#DejaVuSans-34" x="83.789062"/>
       <use xlink:href="#DejaVuSans-30" x="147.412109"/>
      </g>
     </g>
    </g>
    <g id="ytick_7">
     <g id="line2d_73">
      <path d="M 63 82.926569 
L 453.6 82.926569 
" clip-path="url(#p0d51434c41)" style="fill: none; stroke: #808080; stroke-width: 0.8; stroke-linecap: square"/>
     </g>
     <g id="line2d_74">
      <g>
       <use xlink:href="#ma5d64a8db8" x="63" y="82.926569" style="stroke: #000000; stroke-width: 0.8"/>
      </g>
     </g>
     <g id="text_12">
      <!-- −20 -->
      <g transform="translate(30.674375 87.485631) scale(0.12 -0.12)">
       <use xlink:href="#DejaVuSans-2212"/>
       <use xlink:href="#DejaVuSans-32" x="83.789062"/>
       <use xlink:href="#DejaVuSans-30" x="147.412109"/>
      </g>
     </g>
    </g>
    <g id="ytick_8">
     <g id="line2d_75">
      <path d="M 63 45.577549 
L 453.6 45.577549 
" clip-path="url(#p0d51434c41)" style="fill: none; stroke: #808080; stroke-width: 0.8; stroke-linecap: square"/>
     </g>
     <g id="line2d_76">
      <g>
       <use xlink:href="#ma5d64a8db8" x="63" y="45.577549" style="stroke: #000000; stroke-width: 0.8"/>
      </g>
     </g>
     <g id="text_13">
      <!-- 0 -->
      <g transform="translate(48.365 50.136612) scale(0.12 -0.12)">
       <use xlink:href="#DejaVuSans-30"/>
      </g>
     </g>
    </g>
    <g id="text_14">
     <!-- phase [deg] -->
     <g transform="translate(16.54375 215.104687) rotate(-90) scale(0.12 -0.12)">
      <defs>
       <path id="DejaVuSans-70" d="M 1159 525 
L 1159 -1331 
L 581 -1331 
L 581 3500 
L 1159 3500 
L 1159 2969 
Q 1341 3281 1617 3432 
Q 1894 3584 2278 3584 
Q 2916 3584 3314 3078 
Q 3713 2572 3713 1747 
Q 3713 922 3314 415 
Q 2916 -91 2278 -91 
Q 1894 -91 1617 61 
Q 1341 213 1159 525 
z
M 3116 1747 
Q 3116 2381 2855 2742 
Q 2594 3103 2138 3103 
Q 1681 3103 1420 2742 
Q 1159 2381 1159 1747 
Q 1159 1113 1420 752 
Q 1681 391 2138 391 
Q 2594 391 2855 752 
Q 3116 1113 3116 1747 
z
" transform="scale(0.015625)"/>
       <path id="DejaVuSans-68" d="M 3513 2113 
L 3513 0 
L 2938 0 
L 2938 2094 
Q 2938 2591 2744 2837 
Q 2550 3084 2163 3084 
Q 1697 3084 1428 2787 
Q 1159 2491 1159 1978 
L 1159 0 
L 581 0 
L 581 4863 
L 1159 4863 
L 1159 2956 
Q 1366 3272 1645 3428 
Q 1925 3584 2291 3584 
Q 2894 3584 3203 3211 
Q 3513 2838 3513 2113 
z
" transform="scale(0.015625)"/>
       <path id="DejaVuSans-61" d="M 2194 1759 
Q 1497 1759 1228 1600 
Q 959 1441 959 1056 
Q 959 750 1161 570 
Q 1363 391 1709 391 
Q 2188 391 2477 730 
Q 2766 1069 2766 1631 
L 2766 1759 
L 2194 1759 
z
M 3341 1997 
L 3341 0 
L 2766 0 
L 2766 531 
Q 2569 213 2275 61 
Q 1981 -91 1556 -91 
Q 1019 -91 701 211 
Q 384 513 384 1019 
Q 384 1609 779 1909 
Q 1175 2209 1959 2209 
L 2766 2209 
L 2766 2266 
Q 2766 2663 2505 2880 
Q 2244 3097 1772 3097 
Q 1472 3097 1187 3025 
Q 903 2953 641 2809 
L 641 3341 
Q 956 3463 1253 3523 
Q 1550 3584 1831 3584 
Q 2591 3584 2966 3190 
Q 3341 2797 3341 1997 
z
" transform="scale(0.015625)"/>
       <path id="DejaVuSans-73" d="M 2834 3397 
L 2834 2853 
Q 2591 2978 2328 3040 
Q 2066 3103 1784 3103 
Q 1356 3103 1142 2972 
Q 928 2841 928 2578 
Q 928 2378 1081 2264 
Q 1234 2150 1697 2047 
L 1894 2003 
Q 2506 1872 2764 1633 
Q 3022 1394 3022 966 
Q 3022 478 2636 193 
Q 2250 -91 1575 -91 
Q 1294 -91 989 -36 
Q 684 19 347 128 
L 347 722 
Q 666 556 975 473 
Q 1284 391 1588 391 
Q 1994 391 2212 530 
Q 2431 669 2431 922 
Q 2431 1156 2273 1281 
Q 2116 1406 1581 1522 
L 1381 1569 
Q 847 1681 609 1914 
Q 372 2147 372 2553 
Q 372 3047 722 3315 
Q 1072 3584 1716 3584 
Q 2034 3584 2315 3537 
Q 2597 3491 2834 3397 
z
" transform="scale(0.015625)"/>
       <path id="DejaVuSans-64" d="M 2906 2969 
L 2906 4863 
L 3481 4863 
L 3481 0 
L 2906 0 
L 2906 525 
Q 2725 213 2448 61 
Q 2172 -91 1784 -91 
Q 1150 -91 751 415 
Q 353 922 353 1747 
Q 353 2572 751 3078 
Q 1150 3584 1784 3584 
Q 2172 3584 2448 3432 
Q 2725 3281 2906 2969 
z
M 947 1747 
Q 947 1113 1208 752 
Q 1469 391 1925 391 
Q 2381 391 2643 752 
Q 2906 1113 2906 1747 
Q 2906 2381 2643 2742 
Q 2381 3103 1925 3103 
Q 1469 3103 1208 2742 
Q 947 2381 947 1747 
z
" transform="scale(0.015625)"/>
       <path id="DejaVuSans-67" d="M 2906 1791 
Q 2906 2416 2648 2759 
Q 2391 3103 1925 3103 
Q 1463 3103 1205 2759 
Q 947 2416 947 1791 
Q 947 1169 1205 825 
Q 1463 481 1925 481 
Q 2391 481 2648 825 
Q 2906 1169 2906 1791 
z
M 3481 434 
Q 3481 -459 3084 -895 
Q 2688 -1331 1869 -1331 
Q 1566 -1331 1297 -1286 
Q 1028 -1241 775 -1147 
L 775 -588 
Q 1028 -725 1275 -790 
Q 1522 -856 1778 -856 
Q 2344 -856 2625 -561 
Q 2906 -266 2906 331 
L 2906 616 
Q 2728 306 2450 153 
Q 2172 0 1784 0 
Q 1141 0 747 490 
Q 353 981 353 1791 
Q 353 2603 747 3093 
Q 1141 3584 1784 3584 
Q 2172 3584 2450 3431 
Q 2728 3278 2906 2969 
L 2906 3500 
L 3481 3500 
L 3481 434 
z
" transform="scale(0.015625)"/>
      </defs>
      <use xlink:href="#DejaVuSans-70"/>
      <use xlink:href="#DejaVuSans-68" x="63.476562"/>
      <use xlink:href="#DejaVuSans-61" x="126.855469"/>
      <use xlink:href="#DejaVuSans-73" x="188.134766"/>
      <use xlink:href="#DejaVuSans-65" x="240.234375"/>
      <use xlink:href="#DejaVuSans-20" x="301.757812"/>
      <use xlink:href="#DejaVuSans-5b" x="333.544922"/>
      <use xlink:href="#DejaVuSans-64" x="372.558594"/>
      <use xlink:href="#DejaVuSans-65" x="436.035156"/>
      <use xlink:href="#DejaVuSans-67" x="497.558594"/>
      <use xlink:href="#DejaVuSans-5d" x="561.035156"/>
     </g>
    </g>
   </g>
   <g id="line2d_77">
    <path d="M 80.754545 55.554545 
L 87.892051 57.041714 
L 95.029557 58.750945 
L 102.167063 60.715585 
L 107.520192 62.37959 
L 112.873321 64.22712 
L 118.22645 66.278618 
L 123.57958 68.556857 
L 128.932709 71.087221 
L 134.285838 73.898004 
L 139.638968 77.020741 
L 144.992097 80.490548 
L 150.345226 84.346466 
L 153.913979 87.152761 
L 157.482732 90.163687 
L 161.051485 93.394008 
L 164.620238 96.859327 
L 168.18899 100.576008 
L 171.757743 104.561037 
L 175.326496 108.831789 
L 178.895249 113.405677 
L 182.464002 118.299652 
L 186.032755 123.529496 
L 189.601508 129.108887 
L 193.17026 135.048198 
L 196.739013 141.35302 
L 200.307766 148.022443 
L 203.876519 155.047187 
L 209.229648 166.204675 
L 214.582778 177.998353 
L 221.720283 194.39156 
L 232.426542 219.194465 
L 237.779671 231.091528 
L 243.1328 242.321993 
L 246.701553 249.346101 
L 250.270306 255.953321 
L 253.839059 262.117273 
L 257.407812 267.822207 
L 260.976565 273.061247 
L 264.545317 277.834524 
L 268.11407 282.147408 
L 271.682823 286.008962 
L 275.251576 289.430666 
L 278.820329 292.425429 
L 282.389082 295.006864 
L 285.957835 297.188781 
L 289.526587 298.984875 
L 293.09534 300.40856 
L 296.664093 301.472925 
L 300.232846 302.190773 
L 303.801599 302.574738 
L 307.370352 302.637443 
L 310.939105 302.391697 
L 314.507857 301.850706 
L 318.07661 301.028296 
L 321.645363 299.939114 
L 325.214116 298.598815 
L 328.782869 297.024203 
L 332.351622 295.23332 
L 335.920375 293.245467 
L 341.273504 289.93952 
L 346.626633 286.310266 
L 353.764139 281.101733 
L 362.686021 274.255721 
L 376.961032 263.298969 
L 384.098538 258.105721 
L 391.236044 253.2268 
L 396.589173 249.807038 
L 401.942302 246.606845 
L 407.295432 243.631175 
L 412.648561 240.879178 
L 418.00169 238.345571 
L 423.35482 236.02186 
L 428.707949 233.897376 
L 434.061078 231.960114 
L 435.845455 231.353782 
L 435.845455 231.353782 
" clip-path="url(#p0d51434c41)" style="fill: none; stroke: #ff0000; stroke-width: 2; stroke-linecap: square"/>
   </g>
   <g id="line2d_78">
    <path d="M 80.754545 58.06139 
L 87.892051 59.916742 
L 95.029557 62.04632 
L 100.382686 63.847176 
L 105.735815 65.843249 
L 111.088945 68.055075 
L 116.442074 70.505116 
L 121.795203 73.217857 
L 127.148333 76.219863 
L 132.501462 79.539789 
L 137.854591 83.208312 
L 143.20772 87.257947 
L 146.776473 90.186185 
L 150.345226 93.309247 
L 153.913979 96.637563 
L 157.482732 100.181513 
L 161.051485 103.951259 
L 164.620238 107.956524 
L 168.18899 112.206332 
L 171.757743 116.708685 
L 175.326496 121.470186 
L 178.895249 126.495596 
L 182.464002 131.787338 
L 187.817131 140.222384 
L 193.17026 149.238048 
L 198.52339 158.795732 
L 203.876519 168.831455 
L 211.014025 182.794439 
L 234.210918 229.058422 
L 239.564048 239.017944 
L 244.917177 248.414897 
L 248.48593 254.315922 
L 252.054683 259.89778 
L 255.623435 265.141862 
L 259.192188 270.034203 
L 262.760941 274.56501 
L 266.329694 278.728132 
L 269.898447 282.520504 
L 273.4672 285.941615 
L 277.035952 288.993031 
L 280.604705 291.677964 
L 284.173458 294.00093 
L 287.742211 295.967469 
L 291.310964 297.58395 
L 294.879717 298.857436 
L 298.44847 299.79562 
L 302.017222 300.406816 
L 305.585975 300.699999 
L 309.154728 300.684889 
L 312.723481 300.372059 
L 316.292234 299.773073 
L 319.860987 298.900616 
L 323.42974 297.768629 
L 326.998492 296.392413 
L 330.567245 294.788693 
L 334.135998 292.975638 
L 337.704751 290.972805 
L 343.05788 287.658571 
L 348.41101 284.038926 
L 355.548515 278.871932 
L 368.03915 269.4015 
L 378.745409 261.40471 
L 385.882915 256.355961 
L 393.02042 251.628754 
L 398.37355 248.323686 
L 403.726679 245.2365 
L 409.079808 242.370425 
L 414.432937 239.723329 
L 419.786067 237.289044 
L 425.139196 235.058534 
L 430.492325 233.020866 
L 435.845455 231.163981 
L 435.845455 231.163981 
" clip-path="url(#p0d51434c41)" style="fill: none; stroke: #0000ff; stroke-width: 2; stroke-linecap: square"/>
   </g>
   <g id="line2d_79">
    <path d="M 80.754545 60.556846 
L 87.892051 62.774576 
L 93.24518 64.647784 
L 98.59831 66.721439 
L 103.951439 69.015701 
L 109.304568 71.552298 
L 114.657698 74.354481 
L 120.010827 77.446912 
L 125.363956 80.855445 
L 130.717085 84.606796 
L 136.070215 88.72804 
L 141.423344 93.245928 
L 146.776473 98.185972 
L 152.129603 103.571289 
L 157.482732 109.421199 
L 162.835861 115.7496 
L 168.18899 122.563202 
L 173.54212 129.859732 
L 178.895249 137.626277 
L 184.248378 145.837972 
L 189.601508 154.457215 
L 194.954637 163.433574 
L 202.092143 175.847733 
L 212.798401 195.05239 
L 225.289036 217.494192 
L 232.426542 229.899726 
L 237.779671 238.835201 
L 243.1328 247.358312 
L 248.48593 255.390532 
L 252.054683 260.438136 
L 255.623435 265.218912 
L 259.192188 269.717348 
L 262.760941 273.920237 
L 266.329694 277.816663 
L 269.898447 281.397924 
L 273.4672 284.657421 
L 277.035952 287.590513 
L 280.604705 290.194357 
L 284.173458 292.467746 
L 287.742211 294.410955 
L 291.310964 296.025609 
L 294.879717 297.314578 
L 298.44847 298.281908 
L 302.017222 298.932784 
L 305.585975 299.273533 
L 309.154728 299.311661 
L 312.723481 299.055913 
L 316.292234 298.516357 
L 319.860987 297.704476 
L 323.42974 296.633251 
L 326.998492 295.317231 
L 330.567245 293.772563 
L 334.135998 292.016978 
L 337.704751 290.069715 
L 343.05788 286.834803 
L 348.41101 283.289266 
L 355.548515 278.212709 
L 366.254774 270.219929 
L 376.961032 262.26618 
L 384.098538 257.204002 
L 391.236044 252.440116 
L 396.589173 249.097169 
L 401.942302 245.966458 
L 407.295432 243.053592 
L 412.648561 240.35833 
L 418.00169 237.87595 
L 423.35482 235.598476 
L 428.707949 233.515712 
L 435.845455 231.021458 
L 435.845455 231.021458 
" clip-path="url(#p0d51434c41)" style="fill: none; stroke: #008000; stroke-width: 2; stroke-linecap: square"/>
   </g>
   <g id="line2d_80">
    <path d="M 80.754545 63.038298 
L 86.107675 64.935246 
L 91.460804 67.033396 
L 96.813933 69.352354 
L 102.167063 71.913021 
L 107.520192 74.737466 
L 112.873321 77.848691 
L 118.22645 81.27029 
L 123.57958 85.025945 
L 128.932709 89.138761 
L 134.285838 93.630395 
L 139.638968 98.519985 
L 144.992097 103.8229 
L 150.345226 109.549344 
L 155.698355 115.702942 
L 161.051485 122.279419 
L 166.404614 129.265584 
L 171.757743 136.638791 
L 177.110873 144.367057 
L 184.248378 155.152685 
L 191.385884 166.382178 
L 200.307766 180.84676 
L 225.289036 221.726907 
L 232.426542 232.923562 
L 239.564048 243.646528 
L 244.917177 251.288599 
L 250.270306 258.518052 
L 255.623435 265.274428 
L 259.192188 269.487882 
L 262.760941 273.450819 
L 266.329694 277.149533 
L 269.898447 280.571939 
L 273.4672 283.707681 
L 277.035952 286.548186 
L 280.604705 289.08667 
L 284.173458 291.318102 
L 287.742211 293.239154 
L 291.310964 294.848128 
L 294.879717 296.144897 
L 298.44847 297.130844 
L 302.017222 297.808829 
L 305.585975 298.183178 
L 309.154728 298.259696 
L 312.723481 298.045705 
L 316.292234 297.55009 
L 319.860987 296.78337 
L 323.42974 295.757747 
L 326.998492 294.487151 
L 330.567245 292.987244 
L 334.135998 291.275386 
L 337.704751 289.37054 
L 343.05788 286.196376 
L 348.41101 282.707779 
L 355.548515 277.700911 
L 366.254774 269.799392 
L 376.961032 261.922034 
L 384.098538 256.903373 
L 391.236044 252.177735 
L 396.589173 248.860353 
L 401.942302 245.75278 
L 407.295432 242.86084 
L 412.648561 240.18449 
L 418.00169 237.719191 
L 423.35482 235.457139 
L 428.707949 233.388294 
L 435.845455 230.910505 
L 435.845455 230.910505 
" clip-path="url(#p0d51434c41)" style="fill: none; stroke: #00bfbf; stroke-width: 2; stroke-linecap: square"/>
   </g>
   <g id="line2d_81">
    <path d="M 80.754545 65.503221 
L 86.107675 67.656629 
L 91.460804 70.034425 
L 96.813933 72.657068 
L 102.167063 75.545869 
L 107.520192 78.722668 
L 112.873321 82.209357 
L 118.22645 86.027251 
L 123.57958 90.196263 
L 128.932709 94.733889 
L 134.285838 99.654022 
L 139.638968 104.965633 
L 144.992097 110.671431 
L 150.345226 116.766629 
L 155.698355 123.238021 
L 161.051485 130.06356 
L 166.404614 137.212618 
L 173.54212 147.18112 
L 180.679625 157.550971 
L 189.601508 170.904984 
L 225.289036 224.889062 
L 232.426542 235.175878 
L 239.564048 245.078413 
L 244.917177 252.181956 
L 250.270306 258.947141 
L 255.623435 265.31633 
L 260.976565 271.23215 
L 264.545317 274.897069 
L 268.11407 278.321265 
L 271.682823 281.491153 
L 275.251576 284.39467 
L 278.820329 287.021431 
L 282.389082 289.362806 
L 285.957835 291.411966 
L 289.526587 293.163884 
L 293.09534 294.615314 
L 296.664093 295.764758 
L 300.232846 296.61244 
L 303.801599 297.160281 
L 307.370352 297.411895 
L 310.939105 297.372602 
L 314.507857 297.049456 
L 318.07661 296.451286 
L 321.645363 295.588733 
L 325.214116 294.474285 
L 328.782869 293.12228 
L 332.351622 291.548881 
L 335.920375 289.771987 
L 339.489127 287.811098 
L 344.842257 284.570773 
L 350.195386 281.038527 
L 357.332892 276.00912 
L 384.098538 256.662855 
L 391.236044 251.967779 
L 396.589173 248.670832 
L 401.942302 245.581762 
L 407.295432 242.70656 
L 412.648561 240.045338 
L 418.00169 237.593707 
L 423.35482 235.343996 
L 428.707949 233.28629 
L 435.845455 230.821679 
L 435.845455 230.821679 
" clip-path="url(#p0d51434c41)" style="fill: none; stroke: #bf00bf; stroke-width: 2; stroke-linecap: square"/>
   </g>
   <g id="patch_3">
    <path d="M 63 315 
L 63 43.2 
" style="fill: none; stroke: #000000; stroke-width: 0.8; stroke-linejoin: miter; stroke-linecap: square"/>
   </g>
   <g id="patch_4">
    <path d="M 453.6 315 
L 453.6 43.2 
" style="fill: none; stroke: #000000; stroke-width: 0.8; stroke-linejoin: miter; stroke-linecap: square"/>
   </g>
   <g id="patch_5">
    <path d="M 63 315 
L 453.6 315 
" style="fill: none; stroke: #000000; stroke-width: 0.8; stroke-linejoin: miter; stroke-linecap: square"/>
   </g>
   <g id="patch_6">
    <path d="M 63 43.2 
L 453.6 43.2 
" style="fill: none; stroke: #000000; stroke-width: 0.8; stroke-linejoin: miter; stroke-linecap: square"/>
   </g>
   <g id="text_15">
    <!-- CD stage -->
    <g transform="translate(230.927813 37.2) scale(0.12 -0.12)">
     <defs>
      <path id="DejaVuSans-43" d="M 4122 4306 
L 4122 3641 
Q 3803 3938 3442 4084 
Q 3081 4231 2675 4231 
Q 1875 4231 1450 3742 
Q 1025 3253 1025 2328 
Q 1025 1406 1450 917 
Q 1875 428 2675 428 
Q 3081 428 3442 575 
Q 3803 722 4122 1019 
L 4122 359 
Q 3791 134 3420 21 
Q 3050 -91 2638 -91 
Q 1578 -91 968 557 
Q 359 1206 359 2328 
Q 359 3453 968 4101 
Q 1578 4750 2638 4750 
Q 3056 4750 3426 4639 
Q 3797 4528 4122 4306 
z
" transform="scale(0.015625)"/>
      <path id="DejaVuSans-44" d="M 1259 4147 
L 1259 519 
L 2022 519 
Q 2988 519 3436 956 
Q 3884 1394 3884 2338 
Q 3884 3275 3436 3711 
Q 2988 4147 2022 4147 
L 1259 4147 
z
M 628 4666 
L 1925 4666 
Q 3281 4666 3915 4102 
Q 4550 3538 4550 2338 
Q 4550 1131 3912 565 
Q 3275 0 1925 0 
L 628 0 
L 628 4666 
z
" transform="scale(0.015625)"/>
      <path id="DejaVuSans-74" d="M 1172 4494 
L 1172 3500 
L 2356 3500 
L 2356 3053 
L 1172 3053 
L 1172 1153 
Q 1172 725 1289 603 
Q 1406 481 1766 481 
L 2356 481 
L 2356 0 
L 1766 0 
Q 1100 0 847 248 
Q 594 497 594 1153 
L 594 3053 
L 172 3053 
L 172 3500 
L 594 3500 
L 594 4494 
L 1172 4494 
z
" transform="scale(0.015625)"/>
     </defs>
     <use xlink:href="#DejaVuSans-43"/>
     <use xlink:href="#DejaVuSans-44" x="69.824219"/>
     <use xlink:href="#DejaVuSans-20" x="146.826172"/>
     <use xlink:href="#DejaVuSans-73" x="178.613281"/>
     <use xlink:href="#DejaVuSans-74" x="230.712891"/>
     <use xlink:href="#DejaVuSans-61" x="269.921875"/>
     <use xlink:href="#DejaVuSans-67" x="331.201172"/>
     <use xlink:href="#DejaVuSans-65" x="394.677734"/>
    </g>
   </g>
   <g id="legend_1">
    <g id="patch_7">
     <path d="M 291.87125 111.9375 
L 446.6 111.9375 
Q 448.6 111.9375 448.6 109.9375 
L 448.6 50.2 
Q 448.6 48.2 446.6 48.2 
L 291.87125 48.2 
Q 289.87125 48.2 289.87125 50.2 
L 289.87125 109.9375 
Q 289.87125 111.9375 291.87125 111.9375 
z
" style="fill: #ffffff; opacity: 0.8; stroke: #cccccc; stroke-linejoin: miter"/>
    </g>
    <g id="line2d_82">
     <path d="M 291.87125 55.818125 
L 296.87125 55.818125 
L 301.87125 55.818125 
" style="fill: none; stroke: #ff0000; stroke-width: 2; stroke-linecap: square"/>
    </g>
    <g id="text_16">
     <!-- gain, C_phz =  0.0e+00 -->
     <g transform="translate(303.87125 59.318125) scale(0.12 -0.12)">
      <defs>
       <path id="DejaVuSans-69" d="M 603 3500 
L 1178 3500 
L 1178 0 
L 603 0 
L 603 3500 
z
M 603 4863 
L 1178 4863 
L 1178 4134 
L 603 4134 
L 603 4863 
z
" transform="scale(0.015625)"/>
       <path id="DejaVuSans-2c" d="M 750 794 
L 1409 794 
L 1409 256 
L 897 -744 
L 494 -744 
L 750 256 
L 750 794 
z
" transform="scale(0.015625)"/>
       <path id="DejaVuSans-5f" d="M 3263 -1063 
L 3263 -1509 
L -63 -1509 
L -63 -1063 
L 3263 -1063 
z
" transform="scale(0.015625)"/>
       <path id="DejaVuSans-3d" d="M 678 2906 
L 4684 2906 
L 4684 2381 
L 678 2381 
L 678 2906 
z
M 678 1631 
L 4684 1631 
L 4684 1100 
L 678 1100 
L 678 1631 
z
" transform="scale(0.015625)"/>
       <path id="DejaVuSans-2e" d="M 684 794 
L 1344 794 
L 1344 0 
L 684 0 
L 684 794 
z
" transform="scale(0.015625)"/>
       <path id="DejaVuSans-2b" d="M 2944 4013 
L 2944 2272 
L 4684 2272 
L 4684 1741 
L 2944 1741 
L 2944 0 
L 2419 0 
L 2419 1741 
L 678 1741 
L 678 2272 
L 2419 2272 
L 2419 4013 
L 2944 4013 
z
" transform="scale(0.015625)"/>
      </defs>
      <use xlink:href="#DejaVuSans-67"/>
      <use xlink:href="#DejaVuSans-61" x="63.476562"/>
      <use xlink:href="#DejaVuSans-69" x="124.755859"/>
      <use xlink:href="#DejaVuSans-6e" x="152.539062"/>
      <use xlink:href="#DejaVuSans-2c" x="215.917969"/>
      <use xlink:href="#DejaVuSans-20" x="247.705078"/>
      <use xlink:href="#DejaVuSans-43" x="279.492188"/>
      <use xlink:href="#DejaVuSans-5f" x="349.316406"/>
      <use xlink:href="#DejaVuSans-70" x="399.316406"/>
      <use xlink:href="#DejaVuSans-68" x="462.792969"/>
      <use xlink:href="#DejaVuSans-7a" x="526.171875"/>
      <use xlink:href="#DejaVuSans-20" x="578.662109"/>
      <use xlink:href="#DejaVuSans-3d" x="610.449219"/>
      <use xlink:href="#DejaVuSans-20" x="694.238281"/>
      <use xlink:href="#DejaVuSans-20" x="726.025391"/>
      <use xlink:href="#DejaVuSans-30" x="757.8125"/>
      <use xlink:href="#DejaVuSans-2e" x="821.435547"/>
      <use xlink:href="#DejaVuSans-30" x="853.222656"/>
      <use xlink:href="#DejaVuSans-65" x="916.845703"/>
      <use xlink:href="#DejaVuSans-2b" x="978.369141"/>
      <use xlink:href="#DejaVuSans-30" x="1062.158203"/>
      <use xlink:href="#DejaVuSans-30" x="1125.78125"/>
     </g>
    </g>
    <g id="line2d_83">
     <path d="M 291.87125 67.765625 
L 296.87125 67.765625 
L 301.87125 67.765625 
" style="fill: none; stroke: #0000ff; stroke-width: 2; stroke-linecap: square"/>
    </g>
    <g id="text_17">
     <!-- gain, C_phz =  2.5e-15 -->
     <g transform="translate(303.87125 71.265625) scale(0.12 -0.12)">
      <defs>
       <path id="DejaVuSans-35" d="M 691 4666 
L 3169 4666 
L 3169 4134 
L 1269 4134 
L 1269 2991 
Q 1406 3038 1543 3061 
Q 1681 3084 1819 3084 
Q 2600 3084 3056 2656 
Q 3513 2228 3513 1497 
Q 3513 744 3044 326 
Q 2575 -91 1722 -91 
Q 1428 -91 1123 -41 
Q 819 9 494 109 
L 494 744 
Q 775 591 1075 516 
Q 1375 441 1709 441 
Q 2250 441 2565 725 
Q 2881 1009 2881 1497 
Q 2881 1984 2565 2268 
Q 2250 2553 1709 2553 
Q 1456 2553 1204 2497 
Q 953 2441 691 2322 
L 691 4666 
z
" transform="scale(0.015625)"/>
       <path id="DejaVuSans-2d" d="M 313 2009 
L 1997 2009 
L 1997 1497 
L 313 1497 
L 313 2009 
z
" transform="scale(0.015625)"/>
      </defs>
      <use xlink:href="#DejaVuSans-67"/>
      <use xlink:href="#DejaVuSans-61" x="63.476562"/>
      <use xlink:href="#DejaVuSans-69" x="124.755859"/>
      <use xlink:href="#DejaVuSans-6e" x="152.539062"/>
      <use xlink:href="#DejaVuSans-2c" x="215.917969"/>
      <use xlink:href="#DejaVuSans-20" x="247.705078"/>
      <use xlink:href="#DejaVuSans-43" x="279.492188"/>
      <use xlink:href="#DejaVuSans-5f" x="349.316406"/>
      <use xlink:href="#DejaVuSans-70" x="399.316406"/>
      <use xlink:href="#DejaVuSans-68" x="462.792969"/>
      <use xlink:href="#DejaVuSans-7a" x="526.171875"/>
      <use xlink:href="#DejaVuSans-20" x="578.662109"/>
      <use xlink:href="#DejaVuSans-3d" x="610.449219"/>
      <use xlink:href="#DejaVuSans-20" x="694.238281"/>
      <use xlink:href="#DejaVuSans-20" x="726.025391"/>
      <use xlink:href="#DejaVuSans-32" x="757.8125"/>
      <use xlink:href="#DejaVuSans-2e" x="821.435547"/>
      <use xlink:href="#DejaVuSans-35" x="853.222656"/>
      <use xlink:href="#DejaVuSans-65" x="916.845703"/>
      <use xlink:href="#DejaVuSans-2d" x="978.369141"/>
      <use xlink:href="#DejaVuSans-31" x="1014.453125"/>
      <use xlink:href="#DejaVuSans-35" x="1078.076172"/>
     </g>
    </g>
    <g id="line2d_84">
     <path d="M 291.87125 79.713125 
L 296.87125 79.713125 
L 301.87125 79.713125 
" style="fill: none; stroke: #008000; stroke-width: 2; stroke-linecap: square"/>
    </g>
    <g id="text_18">
     <!-- gain, C_phz =  5.0e-15 -->
     <g transform="translate(303.87125 83.213125) scale(0.12 -0.12)">
      <use xlink:href="#DejaVuSans-67"/>
      <use xlink:href="#DejaVuSans-61" x="63.476562"/>
      <use xlink:href="#DejaVuSans-69" x="124.755859"/>
      <use xlink:href="#DejaVuSans-6e" x="152.539062"/>
      <use xlink:href="#DejaVuSans-2c" x="215.917969"/>
      <use xlink:href="#DejaVuSans-20" x="247.705078"/>
      <use xlink:href="#DejaVuSans-43" x="279.492188"/>
      <use xlink:href="#DejaVuSans-5f" x="349.316406"/>
      <use xlink:href="#DejaVuSans-70" x="399.316406"/>
      <use xlink:href="#DejaVuSans-68" x="462.792969"/>
      <use xlink:href="#DejaVuSans-7a" x="526.171875"/>
      <use xlink:href="#DejaVuSans-20" x="578.662109"/>
      <use xlink:href="#DejaVuSans-3d" x="610.449219"/>
      <use xlink:href="#DejaVuSans-20" x="694.238281"/>
      <use xlink:href="#DejaVuSans-20" x="726.025391"/>
      <use xlink:href="#DejaVuSans-35" x="757.8125"/>
      <use xlink:href="#DejaVuSans-2e" x="821.435547"/>
      <use xlink:href="#DejaVuSans-30" x="853.222656"/>
      <use xlink:href="#DejaVuSans-65" x="916.845703"/>
      <use xlink:href="#DejaVuSans-2d" x="978.369141"/>
      <use xlink:href="#DejaVuSans-31" x="1014.453125"/>
      <use xlink:href="#DejaVuSans-35" x="1078.076172"/>
     </g>
    </g>
    <g id="line2d_85">
     <path d="M 291.87125 91.660625 
L 296.87125 91.660625 
L 301.87125 91.660625 
" style="fill: none; stroke: #00bfbf; stroke-width: 2; stroke-linecap: square"/>
    </g>
    <g id="text_19">
     <!-- gain, C_phz =  7.5e-15 -->
     <g transform="translate(303.87125 95.160625) scale(0.12 -0.12)">
      <defs>
       <path id="DejaVuSans-37" d="M 525 4666 
L 3525 4666 
L 3525 4397 
L 1831 0 
L 1172 0 
L 2766 4134 
L 525 4134 
L 525 4666 
z
" transform="scale(0.015625)"/>
      </defs>
      <use xlink:href="#DejaVuSans-67"/>
      <use xlink:href="#DejaVuSans-61" x="63.476562"/>
      <use xlink:href="#DejaVuSans-69" x="124.755859"/>
      <use xlink:href="#DejaVuSans-6e" x="152.539062"/>
      <use xlink:href="#DejaVuSans-2c" x="215.917969"/>
      <use xlink:href="#DejaVuSans-20" x="247.705078"/>
      <use xlink:href="#DejaVuSans-43" x="279.492188"/>
      <use xlink:href="#DejaVuSans-5f" x="349.316406"/>
      <use xlink:href="#DejaVuSans-70" x="399.316406"/>
      <use xlink:href="#DejaVuSans-68" x="462.792969"/>
      <use xlink:href="#DejaVuSans-7a" x="526.171875"/>
      <use xlink:href="#DejaVuSans-20" x="578.662109"/>
      <use xlink:href="#DejaVuSans-3d" x="610.449219"/>
      <use xlink:href="#DejaVuSans-20" x="694.238281"/>
      <use xlink:href="#DejaVuSans-20" x="726.025391"/>
      <use xlink:href="#DejaVuSans-37" x="757.8125"/>
      <use xlink:href="#DejaVuSans-2e" x="821.435547"/>
      <use xlink:href="#DejaVuSans-35" x="853.222656"/>
      <use xlink:href="#DejaVuSans-65" x="916.845703"/>
      <use xlink:href="#DejaVuSans-2d" x="978.369141"/>
      <use xlink:href="#DejaVuSans-31" x="1014.453125"/>
      <use xlink:href="#DejaVuSans-35" x="1078.076172"/>
     </g>
    </g>
    <g id="line2d_86">
     <path d="M 291.87125 103.608125 
L 296.87125 103.608125 
L 301.87125 103.608125 
" style="fill: none; stroke: #bf00bf; stroke-width: 2; stroke-linecap: square"/>
    </g>
    <g id="text_20">
     <!-- gain, C_phz =  1.0e-14 -->
     <g transform="translate(303.87125 107.108125) scale(0.12 -0.12)">
      <use xlink:href="#DejaVuSans-67"/>
      <use xlink:href="#DejaVuSans-61" x="63.476562"/>
      <use xlink:href="#DejaVuSans-69" x="124.755859"/>
      <use xlink:href="#DejaVuSans-6e" x="152.539062"/>
      <use xlink:href="#DejaVuSans-2c" x="215.917969"/>
      <use xlink:href="#DejaVuSans-20" x="247.705078"/>
      <use xlink:href="#DejaVuSans-43" x="279.492188"/>
      <use xlink:href="#DejaVuSans-5f" x="349.316406"/>
      <use xlink:href="#DejaVuSans-70" x="399.316406"/>
      <use xlink:href="#DejaVuSans-68" x="462.792969"/>
      <use xlink:href="#DejaVuSans-7a" x="526.171875"/>
      <use xlink:href="#DejaVuSans-20" x="578.662109"/>
      <use xlink:href="#DejaVuSans-3d" x="610.449219"/>
      <use xlink:href="#DejaVuSans-20" x="694.238281"/>
      <use xlink:href="#DejaVuSans-20" x="726.025391"/>
      <use xlink:href="#DejaVuSans-31" x="757.8125"/>
      <use xlink:href="#DejaVuSans-2e" x="821.435547"/>
      <use xlink:href="#DejaVuSans-30" x="853.222656"/>
      <use xlink:href="#DejaVuSans-65" x="916.845703"/>
      <use xlink:href="#DejaVuSans-2d" x="978.369141"/>
      <use xlink:href="#DejaVuSans-31" x="1014.453125"/>
      <use xlink:href="#DejaVuSans-34" x="1078.076172"/>
     </g>
    </g>
   </g>
  </g>
 </g>
 <defs>
  <clipPath id="p0d51434c41">
   <rect x="63" y="43.2" width="390.6" height="271.8"/>
  </clipPath>
 </defs>
</svg>
