<?xml version="1.0" encoding="utf-8" standalone="no"?>
<!DOCTYPE svg PUBLIC "-//W3C//DTD SVG 1.1//EN"
  "http://www.w3.org/Graphics/SVG/1.1/DTD/svg11.dtd">
<svg xmlns:xlink="http://www.w3.org/1999/xlink" width="504pt" height="360pt" viewBox="0 0 504 360" xmlns="http://www.w3.org/2000/svg" version="1.1">
 <metadata>
  <rdf:RDF xmlns:dc="http://purl.org/dc/elements/1.1/" xmlns:cc="http://creativecommons.org/ns#" xmlns:rdf="http://www.w3.org/1999/02/22-rdf-syntax-ns#">
   <cc:Work>
    <dc:type rdf:resource="http://purl.org/dc/dcmitype/StillImage"/>
    <dc:date>2024-10-20T13:18:15.781257</dc:date>
    <dc:format>image/svg+xml</dc:format>
    <dc:creator>
     <cc:Agent>
      <dc:title>Matplotlib v3.9.2, https://matplotlib.org/</dc:title>
     </cc:Agent>
    </dc:creator>
   </cc:Work>
  </rdf:RDF>
 </metadata>
 <defs>
  <style type="text/css">*{stroke-linejoin: round; stroke-linecap: butt}</style>
 </defs>
 <g id="figure_1">
  <g id="patch_1">
   <path d="M 0 360 
L 504 360 
L 504 0 
L 0 0 
z
" style="fill: #ffffff"/>
  </g>
  <g id="axes_1">
   <g id="patch_2">
    <path d="M 67.61 310.768 
L 493.2 310.768 
L 493.2 26.88 
L 67.61 26.88 
z
" style="fill: #ffffff"/>
   </g>
   <g id="matplotlib.axis_1">
    <g id="xtick_1">
     <g id="line2d_1">
      <path d="M 86.955 310.768 
L 86.955 26.88 
" clip-path="url(#pa508a0037b)" style="fill: none; stroke: #808080; stroke-width: 0.8; stroke-linecap: square"/>
     </g>
     <g id="line2d_2">
      <defs>
       <path id="m95dedaaba7" d="M 0 0 
L 0 3.5 
" style="stroke: #000000; stroke-width: 0.8"/>
      </defs>
      <g>
       <use xlink:href="#m95dedaaba7" x="86.955" y="310.768" style="stroke: #000000; stroke-width: 0.8"/>
      </g>
     </g>
     <g id="text_1">
      <!-- $\mathdefault{10^{-1}}$ -->
      <g transform="translate(72.855 326.886125) scale(0.12 -0.12)">
       <defs>
        <path id="DejaVuSans-31" d="M 794 531 
L 1825 531 
L 1825 4091 
L 703 3866 
L 703 4441 
L 1819 4666 
L 2450 4666 
L 2450 531 
L 3481 531 
L 3481 0 
L 794 0 
L 794 531 
z
" transform="scale(0.015625)"/>
        <path id="DejaVuSans-30" d="M 2034 4250 
Q 1547 4250 1301 3770 
Q 1056 3291 1056 2328 
Q 1056 1369 1301 889 
Q 1547 409 2034 409 
Q 2525 409 2770 889 
Q 3016 1369 3016 2328 
Q 3016 3291 2770 3770 
Q 2525 4250 2034 4250 
z
M 2034 4750 
Q 2819 4750 3233 4129 
Q 3647 3509 3647 2328 
Q 3647 1150 3233 529 
Q 2819 -91 2034 -91 
Q 1250 -91 836 529 
Q 422 1150 422 2328 
Q 422 3509 836 4129 
Q 1250 4750 2034 4750 
z
" transform="scale(0.015625)"/>
        <path id="DejaVuSans-2212" d="M 678 2272 
L 4684 2272 
L 4684 1741 
L 678 1741 
L 678 2272 
z
" transform="scale(0.015625)"/>
       </defs>
       <use xlink:href="#DejaVuSans-31" transform="translate(0 0.684375)"/>
       <use xlink:href="#DejaVuSans-30" transform="translate(63.623047 0.684375)"/>
       <use xlink:href="#DejaVuSans-2212" transform="translate(128.203125 38.965625) scale(0.7)"/>
       <use xlink:href="#DejaVuSans-31" transform="translate(186.855469 38.965625) scale(0.7)"/>
      </g>
     </g>
    </g>
    <g id="xtick_2">
     <g id="line2d_3">
      <path d="M 215.921667 310.768 
L 215.921667 26.88 
" clip-path="url(#pa508a0037b)" style="fill: none; stroke: #808080; stroke-width: 0.8; stroke-linecap: square"/>
     </g>
     <g id="line2d_4">
      <g>
       <use xlink:href="#m95dedaaba7" x="215.921667" y="310.768" style="stroke: #000000; stroke-width: 0.8"/>
      </g>
     </g>
     <g id="text_2">
      <!-- $\mathdefault{10^{0}}$ -->
      <g transform="translate(205.361667 326.886125) scale(0.12 -0.12)">
       <use xlink:href="#DejaVuSans-31" transform="translate(0 0.765625)"/>
       <use xlink:href="#DejaVuSans-30" transform="translate(63.623047 0.765625)"/>
       <use xlink:href="#DejaVuSans-30" transform="translate(128.203125 39.046875) scale(0.7)"/>
      </g>
     </g>
    </g>
    <g id="xtick_3">
     <g id="line2d_5">
      <path d="M 344.888333 310.768 
L 344.888333 26.88 
" clip-path="url(#pa508a0037b)" style="fill: none; stroke: #808080; stroke-width: 0.8; stroke-linecap: square"/>
     </g>
     <g id="line2d_6">
      <g>
       <use xlink:href="#m95dedaaba7" x="344.888333" y="310.768" style="stroke: #000000; stroke-width: 0.8"/>
      </g>
     </g>
     <g id="text_3">
      <!-- $\mathdefault{10^{1}}$ -->
      <g transform="translate(334.328333 326.886125) scale(0.12 -0.12)">
       <use xlink:href="#DejaVuSans-31" transform="translate(0 0.684375)"/>
       <use xlink:href="#DejaVuSans-30" transform="translate(63.623047 0.684375)"/>
       <use xlink:href="#DejaVuSans-31" transform="translate(128.203125 38.965625) scale(0.7)"/>
      </g>
     </g>
    </g>
    <g id="xtick_4">
     <g id="line2d_7">
      <path d="M 473.855 310.768 
L 473.855 26.88 
" clip-path="url(#pa508a0037b)" style="fill: none; stroke: #808080; stroke-width: 0.8; stroke-linecap: square"/>
     </g>
     <g id="line2d_8">
      <g>
       <use xlink:href="#m95dedaaba7" x="473.855" y="310.768" style="stroke: #000000; stroke-width: 0.8"/>
      </g>
     </g>
     <g id="text_4">
      <!-- $\mathdefault{10^{2}}$ -->
      <g transform="translate(463.295 326.886125) scale(0.12 -0.12)">
       <defs>
        <path id="DejaVuSans-32" d="M 1228 531 
L 3431 531 
L 3431 0 
L 469 0 
L 469 531 
Q 828 903 1448 1529 
Q 2069 2156 2228 2338 
Q 2531 2678 2651 2914 
Q 2772 3150 2772 3378 
Q 2772 3750 2511 3984 
Q 2250 4219 1831 4219 
Q 1534 4219 1204 4116 
Q 875 4013 500 3803 
L 500 4441 
Q 881 4594 1212 4672 
Q 1544 4750 1819 4750 
Q 2544 4750 2975 4387 
Q 3406 4025 3406 3419 
Q 3406 3131 3298 2873 
Q 3191 2616 2906 2266 
Q 2828 2175 2409 1742 
Q 1991 1309 1228 531 
z
" transform="scale(0.015625)"/>
       </defs>
       <use xlink:href="#DejaVuSans-31" transform="translate(0 0.765625)"/>
       <use xlink:href="#DejaVuSans-30" transform="translate(63.623047 0.765625)"/>
       <use xlink:href="#DejaVuSans-32" transform="translate(128.203125 39.046875) scale(0.7)"/>
      </g>
     </g>
    </g>
    <g id="xtick_5">
     <g id="line2d_9">
      <path d="M 74.456839 310.768 
L 74.456839 26.88 
" clip-path="url(#pa508a0037b)" style="fill: none; stroke-dasharray: 0.8,1.32; stroke-dashoffset: 0; stroke: #808080; stroke-width: 0.8"/>
     </g>
     <g id="line2d_10">
      <defs>
       <path id="m9e0e912e5c" d="M 0 0 
L 0 2 
" style="stroke: #000000; stroke-width: 0.6"/>
      </defs>
      <g>
       <use xlink:href="#m9e0e912e5c" x="74.456839" y="310.768" style="stroke: #000000; stroke-width: 0.6"/>
      </g>
     </g>
    </g>
    <g id="xtick_6">
     <g id="line2d_11">
      <path d="M 81.053809 310.768 
L 81.053809 26.88 
" clip-path="url(#pa508a0037b)" style="fill: none; stroke-dasharray: 0.8,1.32; stroke-dashoffset: 0; stroke: #808080; stroke-width: 0.8"/>
     </g>
     <g id="line2d_12">
      <g>
       <use xlink:href="#m9e0e912e5c" x="81.053809" y="310.768" style="stroke: #000000; stroke-width: 0.6"/>
      </g>
     </g>
    </g>
    <g id="xtick_7">
     <g id="line2d_13">
      <path d="M 125.777835 310.768 
L 125.777835 26.88 
" clip-path="url(#pa508a0037b)" style="fill: none; stroke-dasharray: 0.8,1.32; stroke-dashoffset: 0; stroke: #808080; stroke-width: 0.8"/>
     </g>
     <g id="line2d_14">
      <g>
       <use xlink:href="#m9e0e912e5c" x="125.777835" y="310.768" style="stroke: #000000; stroke-width: 0.6"/>
      </g>
     </g>
    </g>
    <g id="xtick_8">
     <g id="line2d_15">
      <path d="M 148.487738 310.768 
L 148.487738 26.88 
" clip-path="url(#pa508a0037b)" style="fill: none; stroke-dasharray: 0.8,1.32; stroke-dashoffset: 0; stroke: #808080; stroke-width: 0.8"/>
     </g>
     <g id="line2d_16">
      <g>
       <use xlink:href="#m9e0e912e5c" x="148.487738" y="310.768" style="stroke: #000000; stroke-width: 0.6"/>
      </g>
     </g>
    </g>
    <g id="xtick_9">
     <g id="line2d_17">
      <path d="M 164.60067 310.768 
L 164.60067 26.88 
" clip-path="url(#pa508a0037b)" style="fill: none; stroke-dasharray: 0.8,1.32; stroke-dashoffset: 0; stroke: #808080; stroke-width: 0.8"/>
     </g>
     <g id="line2d_18">
      <g>
       <use xlink:href="#m9e0e912e5c" x="164.60067" y="310.768" style="stroke: #000000; stroke-width: 0.6"/>
      </g>
     </g>
    </g>
    <g id="xtick_10">
     <g id="line2d_19">
      <path d="M 177.098832 310.768 
L 177.098832 26.88 
" clip-path="url(#pa508a0037b)" style="fill: none; stroke-dasharray: 0.8,1.32; stroke-dashoffset: 0; stroke: #808080; stroke-width: 0.8"/>
     </g>
     <g id="line2d_20">
      <g>
       <use xlink:href="#m9e0e912e5c" x="177.098832" y="310.768" style="stroke: #000000; stroke-width: 0.6"/>
      </g>
     </g>
    </g>
    <g id="xtick_11">
     <g id="line2d_21">
      <path d="M 187.310573 310.768 
L 187.310573 26.88 
" clip-path="url(#pa508a0037b)" style="fill: none; stroke-dasharray: 0.8,1.32; stroke-dashoffset: 0; stroke: #808080; stroke-width: 0.8"/>
     </g>
     <g id="line2d_22">
      <g>
       <use xlink:href="#m9e0e912e5c" x="187.310573" y="310.768" style="stroke: #000000; stroke-width: 0.6"/>
      </g>
     </g>
    </g>
    <g id="xtick_12">
     <g id="line2d_23">
      <path d="M 195.944477 310.768 
L 195.944477 26.88 
" clip-path="url(#pa508a0037b)" style="fill: none; stroke-dasharray: 0.8,1.32; stroke-dashoffset: 0; stroke: #808080; stroke-width: 0.8"/>
     </g>
     <g id="line2d_24">
      <g>
       <use xlink:href="#m9e0e912e5c" x="195.944477" y="310.768" style="stroke: #000000; stroke-width: 0.6"/>
      </g>
     </g>
    </g>
    <g id="xtick_13">
     <g id="line2d_25">
      <path d="M 203.423505 310.768 
L 203.423505 26.88 
" clip-path="url(#pa508a0037b)" style="fill: none; stroke-dasharray: 0.8,1.32; stroke-dashoffset: 0; stroke: #808080; stroke-width: 0.8"/>
     </g>
     <g id="line2d_26">
      <g>
       <use xlink:href="#m9e0e912e5c" x="203.423505" y="310.768" style="stroke: #000000; stroke-width: 0.6"/>
      </g>
     </g>
    </g>
    <g id="xtick_14">
     <g id="line2d_27">
      <path d="M 210.020476 310.768 
L 210.020476 26.88 
" clip-path="url(#pa508a0037b)" style="fill: none; stroke-dasharray: 0.8,1.32; stroke-dashoffset: 0; stroke: #808080; stroke-width: 0.8"/>
     </g>
     <g id="line2d_28">
      <g>
       <use xlink:href="#m9e0e912e5c" x="210.020476" y="310.768" style="stroke: #000000; stroke-width: 0.6"/>
      </g>
     </g>
    </g>
    <g id="xtick_15">
     <g id="line2d_29">
      <path d="M 254.744502 310.768 
L 254.744502 26.88 
" clip-path="url(#pa508a0037b)" style="fill: none; stroke-dasharray: 0.8,1.32; stroke-dashoffset: 0; stroke: #808080; stroke-width: 0.8"/>
     </g>
     <g id="line2d_30">
      <g>
       <use xlink:href="#m9e0e912e5c" x="254.744502" y="310.768" style="stroke: #000000; stroke-width: 0.6"/>
      </g>
     </g>
    </g>
    <g id="xtick_16">
     <g id="line2d_31">
      <path d="M 277.454404 310.768 
L 277.454404 26.88 
" clip-path="url(#pa508a0037b)" style="fill: none; stroke-dasharray: 0.8,1.32; stroke-dashoffset: 0; stroke: #808080; stroke-width: 0.8"/>
     </g>
     <g id="line2d_32">
      <g>
       <use xlink:href="#m9e0e912e5c" x="277.454404" y="310.768" style="stroke: #000000; stroke-width: 0.6"/>
      </g>
     </g>
    </g>
    <g id="xtick_17">
     <g id="line2d_33">
      <path d="M 293.567337 310.768 
L 293.567337 26.88 
" clip-path="url(#pa508a0037b)" style="fill: none; stroke-dasharray: 0.8,1.32; stroke-dashoffset: 0; stroke: #808080; stroke-width: 0.8"/>
     </g>
     <g id="line2d_34">
      <g>
       <use xlink:href="#m9e0e912e5c" x="293.567337" y="310.768" style="stroke: #000000; stroke-width: 0.6"/>
      </g>
     </g>
    </g>
    <g id="xtick_18">
     <g id="line2d_35">
      <path d="M 306.065498 310.768 
L 306.065498 26.88 
" clip-path="url(#pa508a0037b)" style="fill: none; stroke-dasharray: 0.8,1.32; stroke-dashoffset: 0; stroke: #808080; stroke-width: 0.8"/>
     </g>
     <g id="line2d_36">
      <g>
       <use xlink:href="#m9e0e912e5c" x="306.065498" y="310.768" style="stroke: #000000; stroke-width: 0.6"/>
      </g>
     </g>
    </g>
    <g id="xtick_19">
     <g id="line2d_37">
      <path d="M 316.27724 310.768 
L 316.27724 26.88 
" clip-path="url(#pa508a0037b)" style="fill: none; stroke-dasharray: 0.8,1.32; stroke-dashoffset: 0; stroke: #808080; stroke-width: 0.8"/>
     </g>
     <g id="line2d_38">
      <g>
       <use xlink:href="#m9e0e912e5c" x="316.27724" y="310.768" style="stroke: #000000; stroke-width: 0.6"/>
      </g>
     </g>
    </g>
    <g id="xtick_20">
     <g id="line2d_39">
      <path d="M 324.911144 310.768 
L 324.911144 26.88 
" clip-path="url(#pa508a0037b)" style="fill: none; stroke-dasharray: 0.8,1.32; stroke-dashoffset: 0; stroke: #808080; stroke-width: 0.8"/>
     </g>
     <g id="line2d_40">
      <g>
       <use xlink:href="#m9e0e912e5c" x="324.911144" y="310.768" style="stroke: #000000; stroke-width: 0.6"/>
      </g>
     </g>
    </g>
    <g id="xtick_21">
     <g id="line2d_41">
      <path d="M 332.390172 310.768 
L 332.390172 26.88 
" clip-path="url(#pa508a0037b)" style="fill: none; stroke-dasharray: 0.8,1.32; stroke-dashoffset: 0; stroke: #808080; stroke-width: 0.8"/>
     </g>
     <g id="line2d_42">
      <g>
       <use xlink:href="#m9e0e912e5c" x="332.390172" y="310.768" style="stroke: #000000; stroke-width: 0.6"/>
      </g>
     </g>
    </g>
    <g id="xtick_22">
     <g id="line2d_43">
      <path d="M 338.987142 310.768 
L 338.987142 26.88 
" clip-path="url(#pa508a0037b)" style="fill: none; stroke-dasharray: 0.8,1.32; stroke-dashoffset: 0; stroke: #808080; stroke-width: 0.8"/>
     </g>
     <g id="line2d_44">
      <g>
       <use xlink:href="#m9e0e912e5c" x="338.987142" y="310.768" style="stroke: #000000; stroke-width: 0.6"/>
      </g>
     </g>
    </g>
    <g id="xtick_23">
     <g id="line2d_45">
      <path d="M 383.711168 310.768 
L 383.711168 26.88 
" clip-path="url(#pa508a0037b)" style="fill: none; stroke-dasharray: 0.8,1.32; stroke-dashoffset: 0; stroke: #808080; stroke-width: 0.8"/>
     </g>
     <g id="line2d_46">
      <g>
       <use xlink:href="#m9e0e912e5c" x="383.711168" y="310.768" style="stroke: #000000; stroke-width: 0.6"/>
      </g>
     </g>
    </g>
    <g id="xtick_24">
     <g id="line2d_47">
      <path d="M 406.421071 310.768 
L 406.421071 26.88 
" clip-path="url(#pa508a0037b)" style="fill: none; stroke-dasharray: 0.8,1.32; stroke-dashoffset: 0; stroke: #808080; stroke-width: 0.8"/>
     </g>
     <g id="line2d_48">
      <g>
       <use xlink:href="#m9e0e912e5c" x="406.421071" y="310.768" style="stroke: #000000; stroke-width: 0.6"/>
      </g>
     </g>
    </g>
    <g id="xtick_25">
     <g id="line2d_49">
      <path d="M 422.534004 310.768 
L 422.534004 26.88 
" clip-path="url(#pa508a0037b)" style="fill: none; stroke-dasharray: 0.8,1.32; stroke-dashoffset: 0; stroke: #808080; stroke-width: 0.8"/>
     </g>
     <g id="line2d_50">
      <g>
       <use xlink:href="#m9e0e912e5c" x="422.534004" y="310.768" style="stroke: #000000; stroke-width: 0.6"/>
      </g>
     </g>
    </g>
    <g id="xtick_26">
     <g id="line2d_51">
      <path d="M 435.032165 310.768 
L 435.032165 26.88 
" clip-path="url(#pa508a0037b)" style="fill: none; stroke-dasharray: 0.8,1.32; stroke-dashoffset: 0; stroke: #808080; stroke-width: 0.8"/>
     </g>
     <g id="line2d_52">
      <g>
       <use xlink:href="#m9e0e912e5c" x="435.032165" y="310.768" style="stroke: #000000; stroke-width: 0.6"/>
      </g>
     </g>
    </g>
    <g id="xtick_27">
     <g id="line2d_53">
      <path d="M 445.243906 310.768 
L 445.243906 26.88 
" clip-path="url(#pa508a0037b)" style="fill: none; stroke-dasharray: 0.8,1.32; stroke-dashoffset: 0; stroke: #808080; stroke-width: 0.8"/>
     </g>
     <g id="line2d_54">
      <g>
       <use xlink:href="#m9e0e912e5c" x="445.243906" y="310.768" style="stroke: #000000; stroke-width: 0.6"/>
      </g>
     </g>
    </g>
    <g id="xtick_28">
     <g id="line2d_55">
      <path d="M 453.877811 310.768 
L 453.877811 26.88 
" clip-path="url(#pa508a0037b)" style="fill: none; stroke-dasharray: 0.8,1.32; stroke-dashoffset: 0; stroke: #808080; stroke-width: 0.8"/>
     </g>
     <g id="line2d_56">
      <g>
       <use xlink:href="#m9e0e912e5c" x="453.877811" y="310.768" style="stroke: #000000; stroke-width: 0.6"/>
      </g>
     </g>
    </g>
    <g id="xtick_29">
     <g id="line2d_57">
      <path d="M 461.356839 310.768 
L 461.356839 26.88 
" clip-path="url(#pa508a0037b)" style="fill: none; stroke-dasharray: 0.8,1.32; stroke-dashoffset: 0; stroke: #808080; stroke-width: 0.8"/>
     </g>
     <g id="line2d_58">
      <g>
       <use xlink:href="#m9e0e912e5c" x="461.356839" y="310.768" style="stroke: #000000; stroke-width: 0.6"/>
      </g>
     </g>
    </g>
    <g id="xtick_30">
     <g id="line2d_59">
      <path d="M 467.953809 310.768 
L 467.953809 26.88 
" clip-path="url(#pa508a0037b)" style="fill: none; stroke-dasharray: 0.8,1.32; stroke-dashoffset: 0; stroke: #808080; stroke-width: 0.8"/>
     </g>
     <g id="line2d_60">
      <g>
       <use xlink:href="#m9e0e912e5c" x="467.953809" y="310.768" style="stroke: #000000; stroke-width: 0.6"/>
      </g>
     </g>
    </g>
    <g id="text_5">
     <!-- frequency [GHz] -->
     <g transform="translate(231.414062 342.499875) scale(0.12 -0.12)">
      <defs>
       <path id="DejaVuSans-66" d="M 2375 4863 
L 2375 4384 
L 1825 4384 
Q 1516 4384 1395 4259 
Q 1275 4134 1275 3809 
L 1275 3500 
L 2222 3500 
L 2222 3053 
L 1275 3053 
L 1275 0 
L 697 0 
L 697 3053 
L 147 3053 
L 147 3500 
L 697 3500 
L 697 3744 
Q 697 4328 969 4595 
Q 1241 4863 1831 4863 
L 2375 4863 
z
" transform="scale(0.015625)"/>
       <path id="DejaVuSans-72" d="M 2631 2963 
Q 2534 3019 2420 3045 
Q 2306 3072 2169 3072 
Q 1681 3072 1420 2755 
Q 1159 2438 1159 1844 
L 1159 0 
L 581 0 
L 581 3500 
L 1159 3500 
L 1159 2956 
Q 1341 3275 1631 3429 
Q 1922 3584 2338 3584 
Q 2397 3584 2469 3576 
Q 2541 3569 2628 3553 
L 2631 2963 
z
" transform="scale(0.015625)"/>
       <path id="DejaVuSans-65" d="M 3597 1894 
L 3597 1613 
L 953 1613 
Q 991 1019 1311 708 
Q 1631 397 2203 397 
Q 2534 397 2845 478 
Q 3156 559 3463 722 
L 3463 178 
Q 3153 47 2828 -22 
Q 2503 -91 2169 -91 
Q 1331 -91 842 396 
Q 353 884 353 1716 
Q 353 2575 817 3079 
Q 1281 3584 2069 3584 
Q 2775 3584 3186 3129 
Q 3597 2675 3597 1894 
z
M 3022 2063 
Q 3016 2534 2758 2815 
Q 2500 3097 2075 3097 
Q 1594 3097 1305 2825 
Q 1016 2553 972 2059 
L 3022 2063 
z
" transform="scale(0.015625)"/>
       <path id="DejaVuSans-71" d="M 947 1747 
Q 947 1113 1208 752 
Q 1469 391 1925 391 
Q 2381 391 2643 752 
Q 2906 1113 2906 1747 
Q 2906 2381 2643 2742 
Q 2381 3103 1925 3103 
Q 1469 3103 1208 2742 
Q 947 2381 947 1747 
z
M 2906 525 
Q 2725 213 2448 61 
Q 2172 -91 1784 -91 
Q 1150 -91 751 415 
Q 353 922 353 1747 
Q 353 2572 751 3078 
Q 1150 3584 1784 3584 
Q 2172 3584 2448 3432 
Q 2725 3281 2906 2969 
L 2906 3500 
L 3481 3500 
L 3481 -1331 
L 2906 -1331 
L 2906 525 
z
" transform="scale(0.015625)"/>
       <path id="DejaVuSans-75" d="M 544 1381 
L 544 3500 
L 1119 3500 
L 1119 1403 
Q 1119 906 1312 657 
Q 1506 409 1894 409 
Q 2359 409 2629 706 
Q 2900 1003 2900 1516 
L 2900 3500 
L 3475 3500 
L 3475 0 
L 2900 0 
L 2900 538 
Q 2691 219 2414 64 
Q 2138 -91 1772 -91 
Q 1169 -91 856 284 
Q 544 659 544 1381 
z
M 1991 3584 
L 1991 3584 
z
" transform="scale(0.015625)"/>
       <path id="DejaVuSans-6e" d="M 3513 2113 
L 3513 0 
L 2938 0 
L 2938 2094 
Q 2938 2591 2744 2837 
Q 2550 3084 2163 3084 
Q 1697 3084 1428 2787 
Q 1159 2491 1159 1978 
L 1159 0 
L 581 0 
L 581 3500 
L 1159 3500 
L 1159 2956 
Q 1366 3272 1645 3428 
Q 1925 3584 2291 3584 
Q 2894 3584 3203 3211 
Q 3513 2838 3513 2113 
z
" transform="scale(0.015625)"/>
       <path id="DejaVuSans-63" d="M 3122 3366 
L 3122 2828 
Q 2878 2963 2633 3030 
Q 2388 3097 2138 3097 
Q 1578 3097 1268 2742 
Q 959 2388 959 1747 
Q 959 1106 1268 751 
Q 1578 397 2138 397 
Q 2388 397 2633 464 
Q 2878 531 3122 666 
L 3122 134 
Q 2881 22 2623 -34 
Q 2366 -91 2075 -91 
Q 1284 -91 818 406 
Q 353 903 353 1747 
Q 353 2603 823 3093 
Q 1294 3584 2113 3584 
Q 2378 3584 2631 3529 
Q 2884 3475 3122 3366 
z
" transform="scale(0.015625)"/>
       <path id="DejaVuSans-79" d="M 2059 -325 
Q 1816 -950 1584 -1140 
Q 1353 -1331 966 -1331 
L 506 -1331 
L 506 -850 
L 844 -850 
Q 1081 -850 1212 -737 
Q 1344 -625 1503 -206 
L 1606 56 
L 191 3500 
L 800 3500 
L 1894 763 
L 2988 3500 
L 3597 3500 
L 2059 -325 
z
" transform="scale(0.015625)"/>
       <path id="DejaVuSans-20" transform="scale(0.015625)"/>
       <path id="DejaVuSans-5b" d="M 550 4863 
L 1875 4863 
L 1875 4416 
L 1125 4416 
L 1125 -397 
L 1875 -397 
L 1875 -844 
L 550 -844 
L 550 4863 
z
" transform="scale(0.015625)"/>
       <path id="DejaVuSans-47" d="M 3809 666 
L 3809 1919 
L 2778 1919 
L 2778 2438 
L 4434 2438 
L 4434 434 
Q 4069 175 3628 42 
Q 3188 -91 2688 -91 
Q 1594 -91 976 548 
Q 359 1188 359 2328 
Q 359 3472 976 4111 
Q 1594 4750 2688 4750 
Q 3144 4750 3555 4637 
Q 3966 4525 4313 4306 
L 4313 3634 
Q 3963 3931 3569 4081 
Q 3175 4231 2741 4231 
Q 1884 4231 1454 3753 
Q 1025 3275 1025 2328 
Q 1025 1384 1454 906 
Q 1884 428 2741 428 
Q 3075 428 3337 486 
Q 3600 544 3809 666 
z
" transform="scale(0.015625)"/>
       <path id="DejaVuSans-48" d="M 628 4666 
L 1259 4666 
L 1259 2753 
L 3553 2753 
L 3553 4666 
L 4184 4666 
L 4184 0 
L 3553 0 
L 3553 2222 
L 1259 2222 
L 1259 0 
L 628 0 
L 628 4666 
z
" transform="scale(0.015625)"/>
       <path id="DejaVuSans-7a" d="M 353 3500 
L 3084 3500 
L 3084 2975 
L 922 459 
L 3084 459 
L 3084 0 
L 275 0 
L 275 525 
L 2438 3041 
L 353 3041 
L 353 3500 
z
" transform="scale(0.015625)"/>
       <path id="DejaVuSans-5d" d="M 1947 4863 
L 1947 -844 
L 622 -844 
L 622 -397 
L 1369 -397 
L 1369 4416 
L 622 4416 
L 622 4863 
L 1947 4863 
z
" transform="scale(0.015625)"/>
      </defs>
      <use xlink:href="#DejaVuSans-66"/>
      <use xlink:href="#DejaVuSans-72" x="35.205078"/>
      <use xlink:href="#DejaVuSans-65" x="74.068359"/>
      <use xlink:href="#DejaVuSans-71" x="135.591797"/>
      <use xlink:href="#DejaVuSans-75" x="199.068359"/>
      <use xlink:href="#DejaVuSans-65" x="262.447266"/>
      <use xlink:href="#DejaVuSans-6e" x="323.970703"/>
      <use xlink:href="#DejaVuSans-63" x="387.349609"/>
      <use xlink:href="#DejaVuSans-79" x="442.330078"/>
      <use xlink:href="#DejaVuSans-20" x="501.509766"/>
      <use xlink:href="#DejaVuSans-5b" x="533.296875"/>
      <use xlink:href="#DejaVuSans-47" x="572.310547"/>
      <use xlink:href="#DejaVuSans-48" x="649.800781"/>
      <use xlink:href="#DejaVuSans-7a" x="724.996094"/>
      <use xlink:href="#DejaVuSans-5d" x="777.486328"/>
     </g>
    </g>
   </g>
   <g id="matplotlib.axis_2">
    <g id="ytick_1">
     <g id="line2d_61">
      <path d="M 67.61 302.433813 
L 493.2 302.433813 
" clip-path="url(#pa508a0037b)" style="fill: none; stroke: #808080; stroke-width: 0.8; stroke-linecap: square"/>
     </g>
     <g id="line2d_62">
      <defs>
       <path id="mf0a271759e" d="M 0 0 
L -3.5 0 
" style="stroke: #000000; stroke-width: 0.8"/>
      </defs>
      <g>
       <use xlink:href="#mf0a271759e" x="67.61" y="302.433813" style="stroke: #000000; stroke-width: 0.8"/>
      </g>
     </g>
     <g id="text_6">
      <!-- −140 -->
      <g transform="translate(27.649375 306.992875) scale(0.12 -0.12)">
       <defs>
        <path id="DejaVuSans-34" d="M 2419 4116 
L 825 1625 
L 2419 1625 
L 2419 4116 
z
M 2253 4666 
L 3047 4666 
L 3047 1625 
L 3713 1625 
L 3713 1100 
L 3047 1100 
L 3047 0 
L 2419 0 
L 2419 1100 
L 313 1100 
L 313 1709 
L 2253 4666 
z
" transform="scale(0.015625)"/>
       </defs>
       <use xlink:href="#DejaVuSans-2212"/>
       <use xlink:href="#DejaVuSans-31" x="83.789062"/>
       <use xlink:href="#DejaVuSans-34" x="147.412109"/>
       <use xlink:href="#DejaVuSans-30" x="211.035156"/>
      </g>
     </g>
    </g>
    <g id="ytick_2">
     <g id="line2d_63">
      <path d="M 67.61 263.423738 
L 493.2 263.423738 
" clip-path="url(#pa508a0037b)" style="fill: none; stroke: #808080; stroke-width: 0.8; stroke-linecap: square"/>
     </g>
     <g id="line2d_64">
      <g>
       <use xlink:href="#mf0a271759e" x="67.61" y="263.423738" style="stroke: #000000; stroke-width: 0.8"/>
      </g>
     </g>
     <g id="text_7">
      <!-- −120 -->
      <g transform="translate(27.649375 267.9828) scale(0.12 -0.12)">
       <use xlink:href="#DejaVuSans-2212"/>
       <use xlink:href="#DejaVuSans-31" x="83.789062"/>
       <use xlink:href="#DejaVuSans-32" x="147.412109"/>
       <use xlink:href="#DejaVuSans-30" x="211.035156"/>
      </g>
     </g>
    </g>
    <g id="ytick_3">
     <g id="line2d_65">
      <path d="M 67.61 224.413663 
L 493.2 224.413663 
" clip-path="url(#pa508a0037b)" style="fill: none; stroke: #808080; stroke-width: 0.8; stroke-linecap: square"/>
     </g>
     <g id="line2d_66">
      <g>
       <use xlink:href="#mf0a271759e" x="67.61" y="224.413663" style="stroke: #000000; stroke-width: 0.8"/>
      </g>
     </g>
     <g id="text_8">
      <!-- −100 -->
      <g transform="translate(27.649375 228.972726) scale(0.12 -0.12)">
       <use xlink:href="#DejaVuSans-2212"/>
       <use xlink:href="#DejaVuSans-31" x="83.789062"/>
       <use xlink:href="#DejaVuSans-30" x="147.412109"/>
       <use xlink:href="#DejaVuSans-30" x="211.035156"/>
      </g>
     </g>
    </g>
    <g id="ytick_4">
     <g id="line2d_67">
      <path d="M 67.61 185.403588 
L 493.2 185.403588 
" clip-path="url(#pa508a0037b)" style="fill: none; stroke: #808080; stroke-width: 0.8; stroke-linecap: square"/>
     </g>
     <g id="line2d_68">
      <g>
       <use xlink:href="#mf0a271759e" x="67.61" y="185.403588" style="stroke: #000000; stroke-width: 0.8"/>
      </g>
     </g>
     <g id="text_9">
      <!-- −80 -->
      <g transform="translate(35.284375 189.962651) scale(0.12 -0.12)">
       <defs>
        <path id="DejaVuSans-38" d="M 2034 2216 
Q 1584 2216 1326 1975 
Q 1069 1734 1069 1313 
Q 1069 891 1326 650 
Q 1584 409 2034 409 
Q 2484 409 2743 651 
Q 3003 894 3003 1313 
Q 3003 1734 2745 1975 
Q 2488 2216 2034 2216 
z
M 1403 2484 
Q 997 2584 770 2862 
Q 544 3141 544 3541 
Q 544 4100 942 4425 
Q 1341 4750 2034 4750 
Q 2731 4750 3128 4425 
Q 3525 4100 3525 3541 
Q 3525 3141 3298 2862 
Q 3072 2584 2669 2484 
Q 3125 2378 3379 2068 
Q 3634 1759 3634 1313 
Q 3634 634 3220 271 
Q 2806 -91 2034 -91 
Q 1263 -91 848 271 
Q 434 634 434 1313 
Q 434 1759 690 2068 
Q 947 2378 1403 2484 
z
M 1172 3481 
Q 1172 3119 1398 2916 
Q 1625 2713 2034 2713 
Q 2441 2713 2670 2916 
Q 2900 3119 2900 3481 
Q 2900 3844 2670 4047 
Q 2441 4250 2034 4250 
Q 1625 4250 1398 4047 
Q 1172 3844 1172 3481 
z
" transform="scale(0.015625)"/>
       </defs>
       <use xlink:href="#DejaVuSans-2212"/>
       <use xlink:href="#DejaVuSans-38" x="83.789062"/>
       <use xlink:href="#DejaVuSans-30" x="147.412109"/>
      </g>
     </g>
    </g>
    <g id="ytick_5">
     <g id="line2d_69">
      <path d="M 67.61 146.393513 
L 493.2 146.393513 
" clip-path="url(#pa508a0037b)" style="fill: none; stroke: #808080; stroke-width: 0.8; stroke-linecap: square"/>
     </g>
     <g id="line2d_70">
      <g>
       <use xlink:href="#mf0a271759e" x="67.61" y="146.393513" style="stroke: #000000; stroke-width: 0.8"/>
      </g>
     </g>
     <g id="text_10">
      <!-- −60 -->
      <g transform="translate(35.284375 150.952576) scale(0.12 -0.12)">
       <defs>
        <path id="DejaVuSans-36" d="M 2113 2584 
Q 1688 2584 1439 2293 
Q 1191 2003 1191 1497 
Q 1191 994 1439 701 
Q 1688 409 2113 409 
Q 2538 409 2786 701 
Q 3034 994 3034 1497 
Q 3034 2003 2786 2293 
Q 2538 2584 2113 2584 
z
M 3366 4563 
L 3366 3988 
Q 3128 4100 2886 4159 
Q 2644 4219 2406 4219 
Q 1781 4219 1451 3797 
Q 1122 3375 1075 2522 
Q 1259 2794 1537 2939 
Q 1816 3084 2150 3084 
Q 2853 3084 3261 2657 
Q 3669 2231 3669 1497 
Q 3669 778 3244 343 
Q 2819 -91 2113 -91 
Q 1303 -91 875 529 
Q 447 1150 447 2328 
Q 447 3434 972 4092 
Q 1497 4750 2381 4750 
Q 2619 4750 2861 4703 
Q 3103 4656 3366 4563 
z
" transform="scale(0.015625)"/>
       </defs>
       <use xlink:href="#DejaVuSans-2212"/>
       <use xlink:href="#DejaVuSans-36" x="83.789062"/>
       <use xlink:href="#DejaVuSans-30" x="147.412109"/>
      </g>
     </g>
    </g>
    <g id="ytick_6">
     <g id="line2d_71">
      <path d="M 67.61 107.383438 
L 493.2 107.383438 
" clip-path="url(#pa508a0037b)" style="fill: none; stroke: #808080; stroke-width: 0.8; stroke-linecap: square"/>
     </g>
     <g id="line2d_72">
      <g>
       <use xlink:href="#mf0a271759e" x="67.61" y="107.383438" style="stroke: #000000; stroke-width: 0.8"/>
      </g>
     </g>
     <g id="text_11">
      <!-- −40 -->
      <g transform="translate(35.284375 111.942501) scale(0.12 -0.12)">
       <use xlink:href="#DejaVuSans-2212"/>
       <use xlink:href="#DejaVuSans-34" x="83.789062"/>
       <use xlink:href="#DejaVuSans-30" x="147.412109"/>
      </g>
     </g>
    </g>
    <g id="ytick_7">
     <g id="line2d_73">
      <path d="M 67.61 68.373363 
L 493.2 68.373363 
" clip-path="url(#pa508a0037b)" style="fill: none; stroke: #808080; stroke-width: 0.8; stroke-linecap: square"/>
     </g>
     <g id="line2d_74">
      <g>
       <use xlink:href="#mf0a271759e" x="67.61" y="68.373363" style="stroke: #000000; stroke-width: 0.8"/>
      </g>
     </g>
     <g id="text_12">
      <!-- −20 -->
      <g transform="translate(35.284375 72.932426) scale(0.12 -0.12)">
       <use xlink:href="#DejaVuSans-2212"/>
       <use xlink:href="#DejaVuSans-32" x="83.789062"/>
       <use xlink:href="#DejaVuSans-30" x="147.412109"/>
      </g>
     </g>
    </g>
    <g id="ytick_8">
     <g id="line2d_75">
      <path d="M 67.61 29.363288 
L 493.2 29.363288 
" clip-path="url(#pa508a0037b)" style="fill: none; stroke: #808080; stroke-width: 0.8; stroke-linecap: square"/>
     </g>
     <g id="line2d_76">
      <g>
       <use xlink:href="#mf0a271759e" x="67.61" y="29.363288" style="stroke: #000000; stroke-width: 0.8"/>
      </g>
     </g>
     <g id="text_13">
      <!-- 0 -->
      <g transform="translate(52.975 33.922351) scale(0.12 -0.12)">
       <use xlink:href="#DejaVuSans-30"/>
      </g>
     </g>
    </g>
    <g id="text_14">
     <!-- phase [deg] -->
     <g transform="translate(21.15375 204.828688) rotate(-90) scale(0.12 -0.12)">
      <defs>
       <path id="DejaVuSans-70" d="M 1159 525 
L 1159 -1331 
L 581 -1331 
L 581 3500 
L 1159 3500 
L 1159 2969 
Q 1341 3281 1617 3432 
Q 1894 3584 2278 3584 
Q 2916 3584 3314 3078 
Q 3713 2572 3713 1747 
Q 3713 922 3314 415 
Q 2916 -91 2278 -91 
Q 1894 -91 1617 61 
Q 1341 213 1159 525 
z
M 3116 1747 
Q 3116 2381 2855 2742 
Q 2594 3103 2138 3103 
Q 1681 3103 1420 2742 
Q 1159 2381 1159 1747 
Q 1159 1113 1420 752 
Q 1681 391 2138 391 
Q 2594 391 2855 752 
Q 3116 1113 3116 1747 
z
" transform="scale(0.015625)"/>
       <path id="DejaVuSans-68" d="M 3513 2113 
L 3513 0 
L 2938 0 
L 2938 2094 
Q 2938 2591 2744 2837 
Q 2550 3084 2163 3084 
Q 1697 3084 1428 2787 
Q 1159 2491 1159 1978 
L 1159 0 
L 581 0 
L 581 4863 
L 1159 4863 
L 1159 2956 
Q 1366 3272 1645 3428 
Q 1925 3584 2291 3584 
Q 2894 3584 3203 3211 
Q 3513 2838 3513 2113 
z
" transform="scale(0.015625)"/>
       <path id="DejaVuSans-61" d="M 2194 1759 
Q 1497 1759 1228 1600 
Q 959 1441 959 1056 
Q 959 750 1161 570 
Q 1363 391 1709 391 
Q 2188 391 2477 730 
Q 2766 1069 2766 1631 
L 2766 1759 
L 2194 1759 
z
M 3341 1997 
L 3341 0 
L 2766 0 
L 2766 531 
Q 2569 213 2275 61 
Q 1981 -91 1556 -91 
Q 1019 -91 701 211 
Q 384 513 384 1019 
Q 384 1609 779 1909 
Q 1175 2209 1959 2209 
L 2766 2209 
L 2766 2266 
Q 2766 2663 2505 2880 
Q 2244 3097 1772 3097 
Q 1472 3097 1187 3025 
Q 903 2953 641 2809 
L 641 3341 
Q 956 3463 1253 3523 
Q 1550 3584 1831 3584 
Q 2591 3584 2966 3190 
Q 3341 2797 3341 1997 
z
" transform="scale(0.015625)"/>
       <path id="DejaVuSans-73" d="M 2834 3397 
L 2834 2853 
Q 2591 2978 2328 3040 
Q 2066 3103 1784 3103 
Q 1356 3103 1142 2972 
Q 928 2841 928 2578 
Q 928 2378 1081 2264 
Q 1234 2150 1697 2047 
L 1894 2003 
Q 2506 1872 2764 1633 
Q 3022 1394 3022 966 
Q 3022 478 2636 193 
Q 2250 -91 1575 -91 
Q 1294 -91 989 -36 
Q 684 19 347 128 
L 347 722 
Q 666 556 975 473 
Q 1284 391 1588 391 
Q 1994 391 2212 530 
Q 2431 669 2431 922 
Q 2431 1156 2273 1281 
Q 2116 1406 1581 1522 
L 1381 1569 
Q 847 1681 609 1914 
Q 372 2147 372 2553 
Q 372 3047 722 3315 
Q 1072 3584 1716 3584 
Q 2034 3584 2315 3537 
Q 2597 3491 2834 3397 
z
" transform="scale(0.015625)"/>
       <path id="DejaVuSans-64" d="M 2906 2969 
L 2906 4863 
L 3481 4863 
L 3481 0 
L 2906 0 
L 2906 525 
Q 2725 213 2448 61 
Q 2172 -91 1784 -91 
Q 1150 -91 751 415 
Q 353 922 353 1747 
Q 353 2572 751 3078 
Q 1150 3584 1784 3584 
Q 2172 3584 2448 3432 
Q 2725 3281 2906 2969 
z
M 947 1747 
Q 947 1113 1208 752 
Q 1469 391 1925 391 
Q 2381 391 2643 752 
Q 2906 1113 2906 1747 
Q 2906 2381 2643 2742 
Q 2381 3103 1925 3103 
Q 1469 3103 1208 2742 
Q 947 2381 947 1747 
z
" transform="scale(0.015625)"/>
       <path id="DejaVuSans-67" d="M 2906 1791 
Q 2906 2416 2648 2759 
Q 2391 3103 1925 3103 
Q 1463 3103 1205 2759 
Q 947 2416 947 1791 
Q 947 1169 1205 825 
Q 1463 481 1925 481 
Q 2391 481 2648 825 
Q 2906 1169 2906 1791 
z
M 3481 434 
Q 3481 -459 3084 -895 
Q 2688 -1331 1869 -1331 
Q 1566 -1331 1297 -1286 
Q 1028 -1241 775 -1147 
L 775 -588 
Q 1028 -725 1275 -790 
Q 1522 -856 1778 -856 
Q 2344 -856 2625 -561 
Q 2906 -266 2906 331 
L 2906 616 
Q 2728 306 2450 153 
Q 2172 0 1784 0 
Q 1141 0 747 490 
Q 353 981 353 1791 
Q 353 2603 747 3093 
Q 1141 3584 1784 3584 
Q 2172 3584 2450 3431 
Q 2728 3278 2906 2969 
L 2906 3500 
L 3481 3500 
L 3481 434 
z
" transform="scale(0.015625)"/>
      </defs>
      <use xlink:href="#DejaVuSans-70"/>
      <use xlink:href="#DejaVuSans-68" x="63.476562"/>
      <use xlink:href="#DejaVuSans-61" x="126.855469"/>
      <use xlink:href="#DejaVuSans-73" x="188.134766"/>
      <use xlink:href="#DejaVuSans-65" x="240.234375"/>
      <use xlink:href="#DejaVuSans-20" x="301.757812"/>
      <use xlink:href="#DejaVuSans-5b" x="333.544922"/>
      <use xlink:href="#DejaVuSans-64" x="372.558594"/>
      <use xlink:href="#DejaVuSans-65" x="436.035156"/>
      <use xlink:href="#DejaVuSans-67" x="497.558594"/>
      <use xlink:href="#DejaVuSans-5d" x="561.035156"/>
     </g>
    </g>
   </g>
   <g id="line2d_77">
    <path d="M 86.955 39.784 
L 94.731884 41.337308 
L 102.508769 43.122555 
L 110.285653 45.174571 
L 116.118317 46.912581 
L 121.95098 48.842278 
L 127.783643 50.985014 
L 133.616307 53.364575 
L 139.44897 56.007474 
L 145.281633 58.943264 
L 151.114296 62.20488 
L 156.94696 65.829003 
L 160.835402 68.466436 
L 164.723844 71.296172 
L 168.612286 74.332268 
L 172.500729 77.589694 
L 176.389171 81.084315 
L 180.277613 84.83284 
L 184.166055 88.852708 
L 188.054497 93.1619 
L 191.94294 97.778639 
L 195.831382 102.720951 
L 199.719824 108.006034 
L 203.608266 113.649413 
L 207.496709 119.663823 
L 211.385151 126.057811 
L 215.273593 132.83406 
L 219.162035 139.987495 
L 223.050477 147.503318 
L 228.883141 159.395357 
L 234.715804 171.8963 
L 244.43691 193.487236 
L 252.213794 210.701621 
L 258.046457 223.127793 
L 261.934899 231.038193 
L 265.823342 238.578199 
L 269.711784 245.701182 
L 273.600226 252.37347 
L 277.488668 258.573273 
L 281.377111 264.289015 
L 285.265553 269.517417 
L 289.153995 274.261569 
L 293.042437 278.529194 
L 296.930879 282.331167 
L 300.819322 285.680337 
L 304.707764 288.590634 
L 308.596206 291.076431 
L 312.484648 293.152122 
L 316.37309 294.83188 
L 320.261533 296.129543 
L 324.149975 297.058624 
L 328.038417 297.632387 
L 331.926859 297.864 
L 335.815302 297.766716 
L 339.703744 297.354094 
L 343.592186 296.640222 
L 347.480628 295.639943 
L 351.36907 294.369062 
L 355.257513 292.844515 
L 359.145955 291.084491 
L 363.034397 289.108495 
L 366.922839 286.937326 
L 372.755503 283.36303 
L 378.588166 279.477577 
L 386.36505 273.95334 
L 399.974598 263.871148 
L 409.695704 256.767624 
L 417.472588 251.343412 
L 423.305251 247.48713 
L 429.137915 243.841249 
L 434.970578 240.421369 
L 440.803241 237.23502 
L 446.635905 234.28317 
L 452.468568 231.561693 
L 458.301231 229.062707 
L 464.133894 226.775716 
L 469.966558 224.688563 
L 473.855 223.40171 
L 473.855 223.40171 
" clip-path="url(#pa508a0037b)" style="fill: none; stroke: #ff0000; stroke-width: 2; stroke-linecap: square"/>
   </g>
   <g id="line2d_78">
    <path d="M 86.955 42.402333 
L 94.731884 44.340201 
L 102.508769 46.564489 
L 108.341432 48.445436 
L 114.174095 50.530282 
L 120.006759 52.840476 
L 125.839422 55.39948 
L 131.672085 58.232867 
L 137.504749 61.368384 
L 143.337412 64.83596 
L 149.170075 68.667636 
L 153.058518 71.441066 
L 156.94696 74.401851 
L 160.835402 77.560705 
L 164.723844 80.92849 
L 168.612286 84.516096 
L 172.500729 88.334274 
L 176.389171 92.393441 
L 180.277613 96.703425 
L 184.166055 101.273164 
L 188.054497 106.110338 
L 191.94294 111.220942 
L 195.831382 116.608798 
L 199.719824 122.275004 
L 203.608266 128.217345 
L 209.44093 137.633971 
L 215.273593 147.616722 
L 221.106256 158.098773 
L 228.883141 172.682745 
L 242.492688 198.982946 
L 250.269573 213.806805 
L 256.102236 224.529421 
L 261.934899 234.749416 
L 265.823342 241.221599 
L 269.711784 247.385066 
L 273.600226 253.21517 
L 277.488668 258.692477 
L 281.377111 263.802399 
L 285.265553 268.534709 
L 289.153995 272.882982 
L 293.042437 276.844014 
L 296.930879 280.417276 
L 300.819322 283.6044 
L 304.707764 286.408743 
L 308.596206 288.835019 
L 312.484648 290.889018 
L 316.37309 292.57739 
L 320.261533 293.907513 
L 324.149975 294.887422 
L 328.038417 295.5258 
L 331.926859 295.832023 
L 335.815302 295.81624 
L 339.703744 295.489498 
L 343.592186 294.863872 
L 347.480628 293.952614 
L 351.36907 292.770283 
L 355.257513 291.332861 
L 359.145955 289.657818 
L 363.034397 287.76413 
L 366.922839 285.672223 
L 372.755503 282.210592 
L 378.588166 278.429967 
L 386.36505 273.033176 
L 398.030377 264.561602 
L 409.695704 256.151151 
L 417.472588 250.805264 
L 425.249472 245.778071 
L 431.082136 242.252088 
L 436.914799 238.951052 
L 442.747462 235.880531 
L 448.580126 233.040003 
L 454.412789 230.424287 
L 460.245452 228.024822 
L 466.078116 225.830747 
L 471.910779 223.829783 
L 473.855 223.203468 
L 473.855 223.203468 
" clip-path="url(#pa508a0037b)" style="fill: none; stroke: #0000ff; stroke-width: 2; stroke-linecap: square"/>
   </g>
   <g id="line2d_79">
    <path d="M 86.955 45.008772 
L 92.787663 46.716082 
L 98.620327 48.607208 
L 104.45299 50.701041 
L 110.285653 53.01809 
L 116.118317 55.580507 
L 121.95098 58.412056 
L 127.783643 61.538022 
L 133.616307 64.985027 
L 139.44897 68.780724 
L 145.281633 72.953336 
L 151.114296 77.53101 
L 155.002739 80.821331 
L 158.891181 84.311411 
L 162.779623 88.008273 
L 166.668065 91.918159 
L 170.556508 96.046312 
L 174.44495 100.39674 
L 180.277613 107.344206 
L 186.110276 114.798023 
L 191.94294 122.748583 
L 197.775603 131.174199 
L 203.608266 140.040079 
L 209.44093 149.29798 
L 217.217814 162.14399 
L 226.93892 178.753373 
L 246.381131 212.209486 
L 254.158015 225.036381 
L 259.990678 234.235338 
L 265.823342 242.975253 
L 271.656005 251.177244 
L 275.544447 256.312162 
L 279.432889 261.159984 
L 283.321332 265.705711 
L 287.209774 269.936751 
L 291.098216 273.842871 
L 294.986658 277.416097 
L 298.875101 280.650581 
L 302.763543 283.542433 
L 306.651985 286.089562 
L 310.540427 288.291498 
L 314.428869 290.14925 
L 318.317312 291.665177 
L 322.205754 292.842897 
L 326.094196 293.687232 
L 329.982638 294.204194 
L 333.87108 294.400998 
L 337.759523 294.286123 
L 341.647965 293.869381 
L 345.536407 293.162016 
L 349.424849 292.176793 
L 353.313291 290.928082 
L 357.201734 289.431912 
L 361.090176 287.705982 
L 364.978618 285.769613 
L 368.86706 283.643633 
L 374.699724 280.147881 
L 380.532387 276.354398 
L 388.309271 270.974057 
L 415.528367 251.697158 
L 423.305251 246.636889 
L 429.137915 243.073952 
L 434.970578 239.729118 
L 440.803241 236.610618 
L 446.635905 233.720072 
L 452.468568 231.053956 
L 458.301231 228.604943 
L 464.133894 226.363048 
L 469.966558 224.316579 
L 473.855 223.054607 
L 473.855 223.054607 
" clip-path="url(#pa508a0037b)" style="fill: none; stroke: #008000; stroke-width: 2; stroke-linecap: square"/>
   </g>
   <g id="line2d_80">
    <path d="M 86.955 47.600585 
L 92.787663 49.581896 
L 98.620327 51.773359 
L 104.45299 54.19545 
L 110.285653 56.87 
L 116.118317 59.820059 
L 121.95098 63.069653 
L 127.783643 66.643423 
L 133.616307 70.566107 
L 139.44897 74.861836 
L 145.281633 79.55323 
L 151.114296 84.660279 
L 156.94696 90.199035 
L 162.779623 96.180157 
L 168.612286 102.607429 
L 174.44495 109.476388 
L 180.277613 116.773254 
L 186.110276 124.474377 
L 191.94294 132.546349 
L 197.775603 140.946873 
L 205.552487 152.572051 
L 215.273593 167.598842 
L 248.325352 219.246286 
L 256.102236 230.712712 
L 261.934899 238.945681 
L 267.767563 246.791169 
L 273.600226 254.184279 
L 277.488668 258.830938 
L 281.377111 263.231781 
L 285.265553 267.370966 
L 289.153995 271.234176 
L 293.042437 274.808789 
L 296.930879 278.08399 
L 300.819322 281.050824 
L 304.707764 283.702204 
L 308.596206 286.032876 
L 312.484648 288.039364 
L 316.37309 289.719897 
L 320.261533 291.074338 
L 324.149975 292.104133 
L 328.038417 292.812271 
L 331.926859 293.203268 
L 335.815302 293.28319 
L 339.703744 293.059681 
L 343.592186 292.542025 
L 347.480628 291.741206 
L 351.36907 290.66997 
L 355.257513 289.342865 
L 359.145955 287.776251 
L 363.034397 285.988261 
L 366.922839 283.998699 
L 372.755503 280.683367 
L 378.588166 277.039619 
L 384.420829 273.148157 
L 394.141935 266.332097 
L 409.695704 255.329451 
L 417.472588 250.08759 
L 425.249472 245.151786 
L 431.082136 241.686866 
L 436.914799 238.441088 
L 442.747462 235.420532 
L 448.580126 232.625154 
L 454.412789 230.050214 
L 460.245452 227.68756 
L 466.078116 225.526705 
L 471.910779 223.555711 
L 473.855 222.938719 
L 473.855 222.938719 
" clip-path="url(#pa508a0037b)" style="fill: none; stroke: #00bfbf; stroke-width: 2; stroke-linecap: square"/>
   </g>
   <g id="line2d_81">
    <path d="M 86.955 50.175131 
L 92.787663 52.42431 
L 98.620327 54.907856 
L 104.45299 57.647138 
L 110.285653 60.664416 
L 116.118317 63.982499 
L 121.95098 67.624255 
L 127.783643 71.611945 
L 133.616307 75.966369 
L 139.44897 80.705801 
L 145.281633 85.844751 
L 151.114296 91.39259 
L 156.94696 97.352147 
L 162.779623 103.718422 
L 168.612286 110.477622 
L 174.44495 117.606719 
L 180.277613 125.073724 
L 188.054497 135.485564 
L 195.831382 146.316602 
L 205.552487 160.26452 
L 244.43691 216.64948 
L 252.213794 227.393789 
L 259.990678 237.736729 
L 265.823342 245.156194 
L 271.656005 252.222253 
L 277.488668 258.874704 
L 281.377111 263.050202 
L 285.265553 266.998065 
L 289.153995 270.702129 
L 293.042437 274.147481 
L 296.930879 277.320706 
L 300.819322 280.210064 
L 304.707764 282.805618 
L 308.596206 285.099291 
L 312.484648 287.084894 
L 316.37309 288.758109 
L 320.261533 290.116464 
L 324.149975 291.159297 
L 328.038417 291.88773 
L 331.926859 292.304652 
L 335.815302 292.414727 
L 339.703744 292.224412 
L 343.592186 291.741996 
L 347.480628 290.977643 
L 351.36907 289.943429 
L 355.257513 288.653364 
L 359.145955 287.123384 
L 363.034397 285.371291 
L 366.922839 283.41664 
L 372.755503 280.15144 
L 378.588166 276.554804 
L 384.420829 272.707235 
L 394.141935 265.957075 
L 411.639925 253.716687 
L 419.416809 248.579296 
L 427.193693 243.761193 
L 433.026357 240.388856 
L 438.85902 237.236502 
L 444.691683 234.308174 
L 450.524347 231.602271 
L 456.35701 229.112933 
L 462.189673 226.831256 
L 468.022337 224.746308 
L 473.855 222.845942 
L 473.855 222.845942 
" clip-path="url(#pa508a0037b)" style="fill: none; stroke: #bf00bf; stroke-width: 2; stroke-linecap: square"/>
   </g>
   <g id="patch_3">
    <path d="M 67.61 310.768 
L 67.61 26.88 
" style="fill: none; stroke: #000000; stroke-width: 0.8; stroke-linejoin: miter; stroke-linecap: square"/>
   </g>
   <g id="patch_4">
    <path d="M 493.2 310.768 
L 493.2 26.88 
" style="fill: none; stroke: #000000; stroke-width: 0.8; stroke-linejoin: miter; stroke-linecap: square"/>
   </g>
   <g id="patch_5">
    <path d="M 67.61 310.768 
L 493.2 310.768 
" style="fill: none; stroke: #000000; stroke-width: 0.8; stroke-linejoin: miter; stroke-linecap: square"/>
   </g>
   <g id="patch_6">
    <path d="M 67.61 26.88 
L 493.2 26.88 
" style="fill: none; stroke: #000000; stroke-width: 0.8; stroke-linejoin: miter; stroke-linecap: square"/>
   </g>
   <g id="text_15">
    <!-- CD stage -->
    <g transform="translate(253.032812 20.88) scale(0.12 -0.12)">
     <defs>
      <path id="DejaVuSans-43" d="M 4122 4306 
L 4122 3641 
Q 3803 3938 3442 4084 
Q 3081 4231 2675 4231 
Q 1875 4231 1450 3742 
Q 1025 3253 1025 2328 
Q 1025 1406 1450 917 
Q 1875 428 2675 428 
Q 3081 428 3442 575 
Q 3803 722 4122 1019 
L 4122 359 
Q 3791 134 3420 21 
Q 3050 -91 2638 -91 
Q 1578 -91 968 557 
Q 359 1206 359 2328 
Q 359 3453 968 4101 
Q 1578 4750 2638 4750 
Q 3056 4750 3426 4639 
Q 3797 4528 4122 4306 
z
" transform="scale(0.015625)"/>
      <path id="DejaVuSans-44" d="M 1259 4147 
L 1259 519 
L 2022 519 
Q 2988 519 3436 956 
Q 3884 1394 3884 2338 
Q 3884 3275 3436 3711 
Q 2988 4147 2022 4147 
L 1259 4147 
z
M 628 4666 
L 1925 4666 
Q 3281 4666 3915 4102 
Q 4550 3538 4550 2338 
Q 4550 1131 3912 565 
Q 3275 0 1925 0 
L 628 0 
L 628 4666 
z
" transform="scale(0.015625)"/>
      <path id="DejaVuSans-74" d="M 1172 4494 
L 1172 3500 
L 2356 3500 
L 2356 3053 
L 1172 3053 
L 1172 1153 
Q 1172 725 1289 603 
Q 1406 481 1766 481 
L 2356 481 
L 2356 0 
L 1766 0 
Q 1100 0 847 248 
Q 594 497 594 1153 
L 594 3053 
L 172 3053 
L 172 3500 
L 594 3500 
L 594 4494 
L 1172 4494 
z
" transform="scale(0.015625)"/>
     </defs>
     <use xlink:href="#DejaVuSans-43"/>
     <use xlink:href="#DejaVuSans-44" x="69.824219"/>
     <use xlink:href="#DejaVuSans-20" x="146.826172"/>
     <use xlink:href="#DejaVuSans-73" x="178.613281"/>
     <use xlink:href="#DejaVuSans-74" x="230.712891"/>
     <use xlink:href="#DejaVuSans-61" x="269.921875"/>
     <use xlink:href="#DejaVuSans-67" x="331.201172"/>
     <use xlink:href="#DejaVuSans-65" x="394.677734"/>
    </g>
   </g>
   <g id="legend_1">
    <g id="patch_7">
     <path d="M 331.47125 95.6175 
L 486.2 95.6175 
Q 488.2 95.6175 488.2 93.6175 
L 488.2 33.88 
Q 488.2 31.88 486.2 31.88 
L 331.47125 31.88 
Q 329.47125 31.88 329.47125 33.88 
L 329.47125 93.6175 
Q 329.47125 95.6175 331.47125 95.6175 
z
" style="fill: #ffffff; opacity: 0.8; stroke: #cccccc; stroke-linejoin: miter"/>
    </g>
    <g id="line2d_82">
     <path d="M 331.47125 39.498125 
L 336.47125 39.498125 
L 341.47125 39.498125 
" style="fill: none; stroke: #ff0000; stroke-width: 2; stroke-linecap: square"/>
    </g>
    <g id="text_16">
     <!-- gain, C_phz =  0.0e+00 -->
     <g transform="translate(343.47125 42.998125) scale(0.12 -0.12)">
      <defs>
       <path id="DejaVuSans-69" d="M 603 3500 
L 1178 3500 
L 1178 0 
L 603 0 
L 603 3500 
z
M 603 4863 
L 1178 4863 
L 1178 4134 
L 603 4134 
L 603 4863 
z
" transform="scale(0.015625)"/>
       <path id="DejaVuSans-2c" d="M 750 794 
L 1409 794 
L 1409 256 
L 897 -744 
L 494 -744 
L 750 256 
L 750 794 
z
" transform="scale(0.015625)"/>
       <path id="DejaVuSans-5f" d="M 3263 -1063 
L 3263 -1509 
L -63 -1509 
L -63 -1063 
L 3263 -1063 
z
" transform="scale(0.015625)"/>
       <path id="DejaVuSans-3d" d="M 678 2906 
L 4684 2906 
L 4684 2381 
L 678 2381 
L 678 2906 
z
M 678 1631 
L 4684 1631 
L 4684 1100 
L 678 1100 
L 678 1631 
z
" transform="scale(0.015625)"/>
       <path id="DejaVuSans-2e" d="M 684 794 
L 1344 794 
L 1344 0 
L 684 0 
L 684 794 
z
" transform="scale(0.015625)"/>
       <path id="DejaVuSans-2b" d="M 2944 4013 
L 2944 2272 
L 4684 2272 
L 4684 1741 
L 2944 1741 
L 2944 0 
L 2419 0 
L 2419 1741 
L 678 1741 
L 678 2272 
L 2419 2272 
L 2419 4013 
L 2944 4013 
z
" transform="scale(0.015625)"/>
      </defs>
      <use xlink:href="#DejaVuSans-67"/>
      <use xlink:href="#DejaVuSans-61" x="63.476562"/>
      <use xlink:href="#DejaVuSans-69" x="124.755859"/>
      <use xlink:href="#DejaVuSans-6e" x="152.539062"/>
      <use xlink:href="#DejaVuSans-2c" x="215.917969"/>
      <use xlink:href="#DejaVuSans-20" x="247.705078"/>
      <use xlink:href="#DejaVuSans-43" x="279.492188"/>
      <use xlink:href="#DejaVuSans-5f" x="349.316406"/>
      <use xlink:href="#DejaVuSans-70" x="399.316406"/>
      <use xlink:href="#DejaVuSans-68" x="462.792969"/>
      <use xlink:href="#DejaVuSans-7a" x="526.171875"/>
      <use xlink:href="#DejaVuSans-20" x="578.662109"/>
      <use xlink:href="#DejaVuSans-3d" x="610.449219"/>
      <use xlink:href="#DejaVuSans-20" x="694.238281"/>
      <use xlink:href="#DejaVuSans-20" x="726.025391"/>
      <use xlink:href="#DejaVuSans-30" x="757.8125"/>
      <use xlink:href="#DejaVuSans-2e" x="821.435547"/>
      <use xlink:href="#DejaVuSans-30" x="853.222656"/>
      <use xlink:href="#DejaVuSans-65" x="916.845703"/>
      <use xlink:href="#DejaVuSans-2b" x="978.369141"/>
      <use xlink:href="#DejaVuSans-30" x="1062.158203"/>
      <use xlink:href="#DejaVuSans-30" x="1125.78125"/>
     </g>
    </g>
    <g id="line2d_83">
     <path d="M 331.47125 51.445625 
L 336.47125 51.445625 
L 341.47125 51.445625 
" style="fill: none; stroke: #0000ff; stroke-width: 2; stroke-linecap: square"/>
    </g>
    <g id="text_17">
     <!-- gain, C_phz =  2.5e-15 -->
     <g transform="translate(343.47125 54.945625) scale(0.12 -0.12)">
      <defs>
       <path id="DejaVuSans-35" d="M 691 4666 
L 3169 4666 
L 3169 4134 
L 1269 4134 
L 1269 2991 
Q 1406 3038 1543 3061 
Q 1681 3084 1819 3084 
Q 2600 3084 3056 2656 
Q 3513 2228 3513 1497 
Q 3513 744 3044 326 
Q 2575 -91 1722 -91 
Q 1428 -91 1123 -41 
Q 819 9 494 109 
L 494 744 
Q 775 591 1075 516 
Q 1375 441 1709 441 
Q 2250 441 2565 725 
Q 2881 1009 2881 1497 
Q 2881 1984 2565 2268 
Q 2250 2553 1709 2553 
Q 1456 2553 1204 2497 
Q 953 2441 691 2322 
L 691 4666 
z
" transform="scale(0.015625)"/>
       <path id="DejaVuSans-2d" d="M 313 2009 
L 1997 2009 
L 1997 1497 
L 313 1497 
L 313 2009 
z
" transform="scale(0.015625)"/>
      </defs>
      <use xlink:href="#DejaVuSans-67"/>
      <use xlink:href="#DejaVuSans-61" x="63.476562"/>
      <use xlink:href="#DejaVuSans-69" x="124.755859"/>
      <use xlink:href="#DejaVuSans-6e" x="152.539062"/>
      <use xlink:href="#DejaVuSans-2c" x="215.917969"/>
      <use xlink:href="#DejaVuSans-20" x="247.705078"/>
      <use xlink:href="#DejaVuSans-43" x="279.492188"/>
      <use xlink:href="#DejaVuSans-5f" x="349.316406"/>
      <use xlink:href="#DejaVuSans-70" x="399.316406"/>
      <use xlink:href="#DejaVuSans-68" x="462.792969"/>
      <use xlink:href="#DejaVuSans-7a" x="526.171875"/>
      <use xlink:href="#DejaVuSans-20" x="578.662109"/>
      <use xlink:href="#DejaVuSans-3d" x="610.449219"/>
      <use xlink:href="#DejaVuSans-20" x="694.238281"/>
      <use xlink:href="#DejaVuSans-20" x="726.025391"/>
      <use xlink:href="#DejaVuSans-32" x="757.8125"/>
      <use xlink:href="#DejaVuSans-2e" x="821.435547"/>
      <use xlink:href="#DejaVuSans-35" x="853.222656"/>
      <use xlink:href="#DejaVuSans-65" x="916.845703"/>
      <use xlink:href="#DejaVuSans-2d" x="978.369141"/>
      <use xlink:href="#DejaVuSans-31" x="1014.453125"/>
      <use xlink:href="#DejaVuSans-35" x="1078.076172"/>
     </g>
    </g>
    <g id="line2d_84">
     <path d="M 331.47125 63.393125 
L 336.47125 63.393125 
L 341.47125 63.393125 
" style="fill: none; stroke: #008000; stroke-width: 2; stroke-linecap: square"/>
    </g>
    <g id="text_18">
     <!-- gain, C_phz =  5.0e-15 -->
     <g transform="translate(343.47125 66.893125) scale(0.12 -0.12)">
      <use xlink:href="#DejaVuSans-67"/>
      <use xlink:href="#DejaVuSans-61" x="63.476562"/>
      <use xlink:href="#DejaVuSans-69" x="124.755859"/>
      <use xlink:href="#DejaVuSans-6e" x="152.539062"/>
      <use xlink:href="#DejaVuSans-2c" x="215.917969"/>
      <use xlink:href="#DejaVuSans-20" x="247.705078"/>
      <use xlink:href="#DejaVuSans-43" x="279.492188"/>
      <use xlink:href="#DejaVuSans-5f" x="349.316406"/>
      <use xlink:href="#DejaVuSans-70" x="399.316406"/>
      <use xlink:href="#DejaVuSans-68" x="462.792969"/>
      <use xlink:href="#DejaVuSans-7a" x="526.171875"/>
      <use xlink:href="#DejaVuSans-20" x="578.662109"/>
      <use xlink:href="#DejaVuSans-3d" x="610.449219"/>
      <use xlink:href="#DejaVuSans-20" x="694.238281"/>
      <use xlink:href="#DejaVuSans-20" x="726.025391"/>
      <use xlink:href="#DejaVuSans-35" x="757.8125"/>
      <use xlink:href="#DejaVuSans-2e" x="821.435547"/>
      <use xlink:href="#DejaVuSans-30" x="853.222656"/>
      <use xlink:href="#DejaVuSans-65" x="916.845703"/>
      <use xlink:href="#DejaVuSans-2d" x="978.369141"/>
      <use xlink:href="#DejaVuSans-31" x="1014.453125"/>
      <use xlink:href="#DejaVuSans-35" x="1078.076172"/>
     </g>
    </g>
    <g id="line2d_85">
     <path d="M 331.47125 75.340625 
L 336.47125 75.340625 
L 341.47125 75.340625 
" style="fill: none; stroke: #00bfbf; stroke-width: 2; stroke-linecap: square"/>
    </g>
    <g id="text_19">
     <!-- gain, C_phz =  7.5e-15 -->
     <g transform="translate(343.47125 78.840625) scale(0.12 -0.12)">
      <defs>
       <path id="DejaVuSans-37" d="M 525 4666 
L 3525 4666 
L 3525 4397 
L 1831 0 
L 1172 0 
L 2766 4134 
L 525 4134 
L 525 4666 
z
" transform="scale(0.015625)"/>
      </defs>
      <use xlink:href="#DejaVuSans-67"/>
      <use xlink:href="#DejaVuSans-61" x="63.476562"/>
      <use xlink:href="#DejaVuSans-69" x="124.755859"/>
      <use xlink:href="#DejaVuSans-6e" x="152.539062"/>
      <use xlink:href="#DejaVuSans-2c" x="215.917969"/>
      <use xlink:href="#DejaVuSans-20" x="247.705078"/>
      <use xlink:href="#DejaVuSans-43" x="279.492188"/>
      <use xlink:href="#DejaVuSans-5f" x="349.316406"/>
      <use xlink:href="#DejaVuSans-70" x="399.316406"/>
      <use xlink:href="#DejaVuSans-68" x="462.792969"/>
      <use xlink:href="#DejaVuSans-7a" x="526.171875"/>
      <use xlink:href="#DejaVuSans-20" x="578.662109"/>
      <use xlink:href="#DejaVuSans-3d" x="610.449219"/>
      <use xlink:href="#DejaVuSans-20" x="694.238281"/>
      <use xlink:href="#DejaVuSans-20" x="726.025391"/>
      <use xlink:href="#DejaVuSans-37" x="757.8125"/>
      <use xlink:href="#DejaVuSans-2e" x="821.435547"/>
      <use xlink:href="#DejaVuSans-35" x="853.222656"/>
      <use xlink:href="#DejaVuSans-65" x="916.845703"/>
      <use xlink:href="#DejaVuSans-2d" x="978.369141"/>
      <use xlink:href="#DejaVuSans-31" x="1014.453125"/>
      <use xlink:href="#DejaVuSans-35" x="1078.076172"/>
     </g>
    </g>
    <g id="line2d_86">
     <path d="M 331.47125 87.288125 
L 336.47125 87.288125 
L 341.47125 87.288125 
" style="fill: none; stroke: #bf00bf; stroke-width: 2; stroke-linecap: square"/>
    </g>
    <g id="text_20">
     <!-- gain, C_phz =  1.0e-14 -->
     <g transform="translate(343.47125 90.788125) scale(0.12 -0.12)">
      <use xlink:href="#DejaVuSans-67"/>
      <use xlink:href="#DejaVuSans-61" x="63.476562"/>
      <use xlink:href="#DejaVuSans-69" x="124.755859"/>
      <use xlink:href="#DejaVuSans-6e" x="152.539062"/>
      <use xlink:href="#DejaVuSans-2c" x="215.917969"/>
      <use xlink:href="#DejaVuSans-20" x="247.705078"/>
      <use xlink:href="#DejaVuSans-43" x="279.492188"/>
      <use xlink:href="#DejaVuSans-5f" x="349.316406"/>
      <use xlink:href="#DejaVuSans-70" x="399.316406"/>
      <use xlink:href="#DejaVuSans-68" x="462.792969"/>
      <use xlink:href="#DejaVuSans-7a" x="526.171875"/>
      <use xlink:href="#DejaVuSans-20" x="578.662109"/>
      <use xlink:href="#DejaVuSans-3d" x="610.449219"/>
      <use xlink:href="#DejaVuSans-20" x="694.238281"/>
      <use xlink:href="#DejaVuSans-20" x="726.025391"/>
      <use xlink:href="#DejaVuSans-31" x="757.8125"/>
      <use xlink:href="#DejaVuSans-2e" x="821.435547"/>
      <use xlink:href="#DejaVuSans-30" x="853.222656"/>
      <use xlink:href="#DejaVuSans-65" x="916.845703"/>
      <use xlink:href="#DejaVuSans-2d" x="978.369141"/>
      <use xlink:href="#DejaVuSans-31" x="1014.453125"/>
      <use xlink:href="#DejaVuSans-34" x="1078.076172"/>
     </g>
    </g>
   </g>
  </g>
 </g>
 <defs>
  <clipPath id="pa508a0037b">
   <rect x="67.61" y="26.88" width="425.59" height="283.888"/>
  </clipPath>
 </defs>
</svg>
