<?xml version="1.0" encoding="utf-8" standalone="no"?>
<!DOCTYPE svg PUBLIC "-//W3C//DTD SVG 1.1//EN"
  "http://www.w3.org/Graphics/SVG/1.1/DTD/svg11.dtd">
<svg xmlns:xlink="http://www.w3.org/1999/xlink" width="504pt" height="360pt" viewBox="0 0 504 360" xmlns="http://www.w3.org/2000/svg" version="1.1">
 <metadata>
  <rdf:RDF xmlns:dc="http://purl.org/dc/elements/1.1/" xmlns:cc="http://creativecommons.org/ns#" xmlns:rdf="http://www.w3.org/1999/02/22-rdf-syntax-ns#">
   <cc:Work>
    <dc:type rdf:resource="http://purl.org/dc/dcmitype/StillImage"/>
    <dc:date>2024-10-20T16:55:13.162873</dc:date>
    <dc:format>image/svg+xml</dc:format>
    <dc:creator>
     <cc:Agent>
      <dc:title>Matplotlib v3.7.2, https://matplotlib.org/</dc:title>
     </cc:Agent>
    </dc:creator>
   </cc:Work>
  </rdf:RDF>
 </metadata>
 <defs>
  <style type="text/css">*{stroke-linejoin: round; stroke-linecap: butt}</style>
 </defs>
 <g id="figure_1">
  <g id="patch_1">
   <path d="M 0 360 
L 504 360 
L 504 0 
L 0 0 
z
" style="fill: #ffffff"/>
  </g>
  <g id="axes_1">
   <g id="patch_2">
    <path d="M 63 315 
L 453.6 315 
L 453.6 43.2 
L 63 43.2 
z
" style="fill: #ffffff"/>
   </g>
   <g id="matplotlib.axis_1">
    <g id="xtick_1">
     <g id="line2d_1">
      <path d="M 108.788038 315 
L 108.788038 43.2 
" clip-path="url(#p1fe5727713)" style="fill: none; stroke: #808080; stroke-width: 0.8; stroke-linecap: square"/>
     </g>
     <g id="line2d_2">
      <defs>
       <path id="m1294bd8276" d="M 0 0 
L 0 3.5 
" style="stroke: #000000; stroke-width: 0.8"/>
      </defs>
      <g>
       <use xlink:href="#m1294bd8276" x="108.788038" y="315" style="stroke: #000000; stroke-width: 0.8"/>
      </g>
     </g>
     <g id="text_1">
      <!-- 25 -->
      <g transform="translate(101.153038 331.118125) scale(0.12 -0.12)">
       <defs>
        <path id="DejaVuSans-32" d="M 1228 531 
L 3431 531 
L 3431 0 
L 469 0 
L 469 531 
Q 828 903 1448 1529 
Q 2069 2156 2228 2338 
Q 2531 2678 2651 2914 
Q 2772 3150 2772 3378 
Q 2772 3750 2511 3984 
Q 2250 4219 1831 4219 
Q 1534 4219 1204 4116 
Q 875 4013 500 3803 
L 500 4441 
Q 881 4594 1212 4672 
Q 1544 4750 1819 4750 
Q 2544 4750 2975 4387 
Q 3406 4025 3406 3419 
Q 3406 3131 3298 2873 
Q 3191 2616 2906 2266 
Q 2828 2175 2409 1742 
Q 1991 1309 1228 531 
z
" transform="scale(0.015625)"/>
        <path id="DejaVuSans-35" d="M 691 4666 
L 3169 4666 
L 3169 4134 
L 1269 4134 
L 1269 2991 
Q 1406 3038 1543 3061 
Q 1681 3084 1819 3084 
Q 2600 3084 3056 2656 
Q 3513 2228 3513 1497 
Q 3513 744 3044 326 
Q 2575 -91 1722 -91 
Q 1428 -91 1123 -41 
Q 819 9 494 109 
L 494 744 
Q 775 591 1075 516 
Q 1375 441 1709 441 
Q 2250 441 2565 725 
Q 2881 1009 2881 1497 
Q 2881 1984 2565 2268 
Q 2250 2553 1709 2553 
Q 1456 2553 1204 2497 
Q 953 2441 691 2322 
L 691 4666 
z
" transform="scale(0.015625)"/>
       </defs>
       <use xlink:href="#DejaVuSans-32"/>
       <use xlink:href="#DejaVuSans-35" x="63.623047"/>
      </g>
     </g>
    </g>
    <g id="xtick_2">
     <g id="line2d_3">
      <path d="M 155.510526 315 
L 155.510526 43.2 
" clip-path="url(#p1fe5727713)" style="fill: none; stroke: #808080; stroke-width: 0.8; stroke-linecap: square"/>
     </g>
     <g id="line2d_4">
      <g>
       <use xlink:href="#m1294bd8276" x="155.510526" y="315" style="stroke: #000000; stroke-width: 0.8"/>
      </g>
     </g>
     <g id="text_2">
      <!-- 50 -->
      <g transform="translate(147.875526 331.118125) scale(0.12 -0.12)">
       <defs>
        <path id="DejaVuSans-30" d="M 2034 4250 
Q 1547 4250 1301 3770 
Q 1056 3291 1056 2328 
Q 1056 1369 1301 889 
Q 1547 409 2034 409 
Q 2525 409 2770 889 
Q 3016 1369 3016 2328 
Q 3016 3291 2770 3770 
Q 2525 4250 2034 4250 
z
M 2034 4750 
Q 2819 4750 3233 4129 
Q 3647 3509 3647 2328 
Q 3647 1150 3233 529 
Q 2819 -91 2034 -91 
Q 1250 -91 836 529 
Q 422 1150 422 2328 
Q 422 3509 836 4129 
Q 1250 4750 2034 4750 
z
" transform="scale(0.015625)"/>
       </defs>
       <use xlink:href="#DejaVuSans-35"/>
       <use xlink:href="#DejaVuSans-30" x="63.623047"/>
      </g>
     </g>
    </g>
    <g id="xtick_3">
     <g id="line2d_5">
      <path d="M 202.233014 315 
L 202.233014 43.2 
" clip-path="url(#p1fe5727713)" style="fill: none; stroke: #808080; stroke-width: 0.8; stroke-linecap: square"/>
     </g>
     <g id="line2d_6">
      <g>
       <use xlink:href="#m1294bd8276" x="202.233014" y="315" style="stroke: #000000; stroke-width: 0.8"/>
      </g>
     </g>
     <g id="text_3">
      <!-- 75 -->
      <g transform="translate(194.598014 331.118125) scale(0.12 -0.12)">
       <defs>
        <path id="DejaVuSans-37" d="M 525 4666 
L 3525 4666 
L 3525 4397 
L 1831 0 
L 1172 0 
L 2766 4134 
L 525 4134 
L 525 4666 
z
" transform="scale(0.015625)"/>
       </defs>
       <use xlink:href="#DejaVuSans-37"/>
       <use xlink:href="#DejaVuSans-35" x="63.623047"/>
      </g>
     </g>
    </g>
    <g id="xtick_4">
     <g id="line2d_7">
      <path d="M 248.955502 315 
L 248.955502 43.2 
" clip-path="url(#p1fe5727713)" style="fill: none; stroke: #808080; stroke-width: 0.8; stroke-linecap: square"/>
     </g>
     <g id="line2d_8">
      <g>
       <use xlink:href="#m1294bd8276" x="248.955502" y="315" style="stroke: #000000; stroke-width: 0.8"/>
      </g>
     </g>
     <g id="text_4">
      <!-- 100 -->
      <g transform="translate(237.503002 331.118125) scale(0.12 -0.12)">
       <defs>
        <path id="DejaVuSans-31" d="M 794 531 
L 1825 531 
L 1825 4091 
L 703 3866 
L 703 4441 
L 1819 4666 
L 2450 4666 
L 2450 531 
L 3481 531 
L 3481 0 
L 794 0 
L 794 531 
z
" transform="scale(0.015625)"/>
       </defs>
       <use xlink:href="#DejaVuSans-31"/>
       <use xlink:href="#DejaVuSans-30" x="63.623047"/>
       <use xlink:href="#DejaVuSans-30" x="127.246094"/>
      </g>
     </g>
    </g>
    <g id="xtick_5">
     <g id="line2d_9">
      <path d="M 295.67799 315 
L 295.67799 43.2 
" clip-path="url(#p1fe5727713)" style="fill: none; stroke: #808080; stroke-width: 0.8; stroke-linecap: square"/>
     </g>
     <g id="line2d_10">
      <g>
       <use xlink:href="#m1294bd8276" x="295.67799" y="315" style="stroke: #000000; stroke-width: 0.8"/>
      </g>
     </g>
     <g id="text_5">
      <!-- 125 -->
      <g transform="translate(284.22549 331.118125) scale(0.12 -0.12)">
       <use xlink:href="#DejaVuSans-31"/>
       <use xlink:href="#DejaVuSans-32" x="63.623047"/>
       <use xlink:href="#DejaVuSans-35" x="127.246094"/>
      </g>
     </g>
    </g>
    <g id="xtick_6">
     <g id="line2d_11">
      <path d="M 342.400478 315 
L 342.400478 43.2 
" clip-path="url(#p1fe5727713)" style="fill: none; stroke: #808080; stroke-width: 0.8; stroke-linecap: square"/>
     </g>
     <g id="line2d_12">
      <g>
       <use xlink:href="#m1294bd8276" x="342.400478" y="315" style="stroke: #000000; stroke-width: 0.8"/>
      </g>
     </g>
     <g id="text_6">
      <!-- 150 -->
      <g transform="translate(330.947978 331.118125) scale(0.12 -0.12)">
       <use xlink:href="#DejaVuSans-31"/>
       <use xlink:href="#DejaVuSans-35" x="63.623047"/>
       <use xlink:href="#DejaVuSans-30" x="127.246094"/>
      </g>
     </g>
    </g>
    <g id="xtick_7">
     <g id="line2d_13">
      <path d="M 389.122967 315 
L 389.122967 43.2 
" clip-path="url(#p1fe5727713)" style="fill: none; stroke: #808080; stroke-width: 0.8; stroke-linecap: square"/>
     </g>
     <g id="line2d_14">
      <g>
       <use xlink:href="#m1294bd8276" x="389.122967" y="315" style="stroke: #000000; stroke-width: 0.8"/>
      </g>
     </g>
     <g id="text_7">
      <!-- 175 -->
      <g transform="translate(377.670467 331.118125) scale(0.12 -0.12)">
       <use xlink:href="#DejaVuSans-31"/>
       <use xlink:href="#DejaVuSans-37" x="63.623047"/>
       <use xlink:href="#DejaVuSans-35" x="127.246094"/>
      </g>
     </g>
    </g>
    <g id="xtick_8">
     <g id="line2d_15">
      <path d="M 435.845455 315 
L 435.845455 43.2 
" clip-path="url(#p1fe5727713)" style="fill: none; stroke: #808080; stroke-width: 0.8; stroke-linecap: square"/>
     </g>
     <g id="line2d_16">
      <g>
       <use xlink:href="#m1294bd8276" x="435.845455" y="315" style="stroke: #000000; stroke-width: 0.8"/>
      </g>
     </g>
     <g id="text_8">
      <!-- 200 -->
      <g transform="translate(424.392955 331.118125) scale(0.12 -0.12)">
       <use xlink:href="#DejaVuSans-32"/>
       <use xlink:href="#DejaVuSans-30" x="63.623047"/>
       <use xlink:href="#DejaVuSans-30" x="127.246094"/>
      </g>
     </g>
    </g>
    <g id="text_9">
     <!-- $W$ [um] -->
     <g transform="translate(236.1 346.731875) scale(0.12 -0.12)">
      <defs>
       <path id="DejaVuSans-Oblique-57" d="M 616 4666 
L 1228 4666 
L 1453 697 
L 3213 4666 
L 3916 4666 
L 4147 697 
L 5888 4666 
L 6528 4666 
L 4453 0 
L 3659 0 
L 3444 3891 
L 1697 0 
L 903 0 
L 616 4666 
z
" transform="scale(0.015625)"/>
       <path id="DejaVuSans-20" transform="scale(0.015625)"/>
       <path id="DejaVuSans-5b" d="M 550 4863 
L 1875 4863 
L 1875 4416 
L 1125 4416 
L 1125 -397 
L 1875 -397 
L 1875 -844 
L 550 -844 
L 550 4863 
z
" transform="scale(0.015625)"/>
       <path id="DejaVuSans-75" d="M 544 1381 
L 544 3500 
L 1119 3500 
L 1119 1403 
Q 1119 906 1312 657 
Q 1506 409 1894 409 
Q 2359 409 2629 706 
Q 2900 1003 2900 1516 
L 2900 3500 
L 3475 3500 
L 3475 0 
L 2900 0 
L 2900 538 
Q 2691 219 2414 64 
Q 2138 -91 1772 -91 
Q 1169 -91 856 284 
Q 544 659 544 1381 
z
M 1991 3584 
L 1991 3584 
z
" transform="scale(0.015625)"/>
       <path id="DejaVuSans-6d" d="M 3328 2828 
Q 3544 3216 3844 3400 
Q 4144 3584 4550 3584 
Q 5097 3584 5394 3201 
Q 5691 2819 5691 2113 
L 5691 0 
L 5113 0 
L 5113 2094 
Q 5113 2597 4934 2840 
Q 4756 3084 4391 3084 
Q 3944 3084 3684 2787 
Q 3425 2491 3425 1978 
L 3425 0 
L 2847 0 
L 2847 2094 
Q 2847 2600 2669 2842 
Q 2491 3084 2119 3084 
Q 1678 3084 1418 2786 
Q 1159 2488 1159 1978 
L 1159 0 
L 581 0 
L 581 3500 
L 1159 3500 
L 1159 2956 
Q 1356 3278 1631 3431 
Q 1906 3584 2284 3584 
Q 2666 3584 2933 3390 
Q 3200 3197 3328 2828 
z
" transform="scale(0.015625)"/>
       <path id="DejaVuSans-5d" d="M 1947 4863 
L 1947 -844 
L 622 -844 
L 622 -397 
L 1369 -397 
L 1369 4416 
L 622 4416 
L 622 4863 
L 1947 4863 
z
" transform="scale(0.015625)"/>
      </defs>
      <use xlink:href="#DejaVuSans-Oblique-57" transform="translate(0 0.015625)"/>
      <use xlink:href="#DejaVuSans-20" transform="translate(98.876953 0.015625)"/>
      <use xlink:href="#DejaVuSans-5b" transform="translate(130.664062 0.015625)"/>
      <use xlink:href="#DejaVuSans-75" transform="translate(169.677734 0.015625)"/>
      <use xlink:href="#DejaVuSans-6d" transform="translate(233.056641 0.015625)"/>
      <use xlink:href="#DejaVuSans-5d" transform="translate(330.46875 0.015625)"/>
     </g>
    </g>
   </g>
   <g id="matplotlib.axis_2">
    <g id="ytick_1">
     <g id="line2d_17">
      <path d="M 63 290.464241 
L 453.6 290.464241 
" clip-path="url(#p1fe5727713)" style="fill: none; stroke: #808080; stroke-width: 0.8; stroke-linecap: square"/>
     </g>
     <g id="line2d_18">
      <defs>
       <path id="m5e731fd481" d="M 0 0 
L -3.5 0 
" style="stroke: #000000; stroke-width: 0.8"/>
      </defs>
      <g>
       <use xlink:href="#m5e731fd481" x="63" y="290.464241" style="stroke: #000000; stroke-width: 0.8"/>
      </g>
     </g>
     <g id="text_10">
      <!-- 0.5 -->
      <g transform="translate(36.91625 295.023304) scale(0.12 -0.12)">
       <defs>
        <path id="DejaVuSans-2e" d="M 684 794 
L 1344 794 
L 1344 0 
L 684 0 
L 684 794 
z
" transform="scale(0.015625)"/>
       </defs>
       <use xlink:href="#DejaVuSans-30"/>
       <use xlink:href="#DejaVuSans-2e" x="63.623047"/>
       <use xlink:href="#DejaVuSans-35" x="95.410156"/>
      </g>
     </g>
    </g>
    <g id="ytick_2">
     <g id="line2d_19">
      <path d="M 63 258.995763 
L 453.6 258.995763 
" clip-path="url(#p1fe5727713)" style="fill: none; stroke: #808080; stroke-width: 0.8; stroke-linecap: square"/>
     </g>
     <g id="line2d_20">
      <g>
       <use xlink:href="#m5e731fd481" x="63" y="258.995763" style="stroke: #000000; stroke-width: 0.8"/>
      </g>
     </g>
     <g id="text_11">
      <!-- 1.0 -->
      <g transform="translate(36.91625 263.554826) scale(0.12 -0.12)">
       <use xlink:href="#DejaVuSans-31"/>
       <use xlink:href="#DejaVuSans-2e" x="63.623047"/>
       <use xlink:href="#DejaVuSans-30" x="95.410156"/>
      </g>
     </g>
    </g>
    <g id="ytick_3">
     <g id="line2d_21">
      <path d="M 63 227.527285 
L 453.6 227.527285 
" clip-path="url(#p1fe5727713)" style="fill: none; stroke: #808080; stroke-width: 0.8; stroke-linecap: square"/>
     </g>
     <g id="line2d_22">
      <g>
       <use xlink:href="#m5e731fd481" x="63" y="227.527285" style="stroke: #000000; stroke-width: 0.8"/>
      </g>
     </g>
     <g id="text_12">
      <!-- 1.5 -->
      <g transform="translate(36.91625 232.086348) scale(0.12 -0.12)">
       <use xlink:href="#DejaVuSans-31"/>
       <use xlink:href="#DejaVuSans-2e" x="63.623047"/>
       <use xlink:href="#DejaVuSans-35" x="95.410156"/>
      </g>
     </g>
    </g>
    <g id="ytick_4">
     <g id="line2d_23">
      <path d="M 63 196.058807 
L 453.6 196.058807 
" clip-path="url(#p1fe5727713)" style="fill: none; stroke: #808080; stroke-width: 0.8; stroke-linecap: square"/>
     </g>
     <g id="line2d_24">
      <g>
       <use xlink:href="#m5e731fd481" x="63" y="196.058807" style="stroke: #000000; stroke-width: 0.8"/>
      </g>
     </g>
     <g id="text_13">
      <!-- 2.0 -->
      <g transform="translate(36.91625 200.617869) scale(0.12 -0.12)">
       <use xlink:href="#DejaVuSans-32"/>
       <use xlink:href="#DejaVuSans-2e" x="63.623047"/>
       <use xlink:href="#DejaVuSans-30" x="95.410156"/>
      </g>
     </g>
    </g>
    <g id="ytick_5">
     <g id="line2d_25">
      <path d="M 63 164.590329 
L 453.6 164.590329 
" clip-path="url(#p1fe5727713)" style="fill: none; stroke: #808080; stroke-width: 0.8; stroke-linecap: square"/>
     </g>
     <g id="line2d_26">
      <g>
       <use xlink:href="#m5e731fd481" x="63" y="164.590329" style="stroke: #000000; stroke-width: 0.8"/>
      </g>
     </g>
     <g id="text_14">
      <!-- 2.5 -->
      <g transform="translate(36.91625 169.149391) scale(0.12 -0.12)">
       <use xlink:href="#DejaVuSans-32"/>
       <use xlink:href="#DejaVuSans-2e" x="63.623047"/>
       <use xlink:href="#DejaVuSans-35" x="95.410156"/>
      </g>
     </g>
    </g>
    <g id="ytick_6">
     <g id="line2d_27">
      <path d="M 63 133.121851 
L 453.6 133.121851 
" clip-path="url(#p1fe5727713)" style="fill: none; stroke: #808080; stroke-width: 0.8; stroke-linecap: square"/>
     </g>
     <g id="line2d_28">
      <g>
       <use xlink:href="#m5e731fd481" x="63" y="133.121851" style="stroke: #000000; stroke-width: 0.8"/>
      </g>
     </g>
     <g id="text_15">
      <!-- 3.0 -->
      <g transform="translate(36.91625 137.680913) scale(0.12 -0.12)">
       <defs>
        <path id="DejaVuSans-33" d="M 2597 2516 
Q 3050 2419 3304 2112 
Q 3559 1806 3559 1356 
Q 3559 666 3084 287 
Q 2609 -91 1734 -91 
Q 1441 -91 1130 -33 
Q 819 25 488 141 
L 488 750 
Q 750 597 1062 519 
Q 1375 441 1716 441 
Q 2309 441 2620 675 
Q 2931 909 2931 1356 
Q 2931 1769 2642 2001 
Q 2353 2234 1838 2234 
L 1294 2234 
L 1294 2753 
L 1863 2753 
Q 2328 2753 2575 2939 
Q 2822 3125 2822 3475 
Q 2822 3834 2567 4026 
Q 2313 4219 1838 4219 
Q 1578 4219 1281 4162 
Q 984 4106 628 3988 
L 628 4550 
Q 988 4650 1302 4700 
Q 1616 4750 1894 4750 
Q 2613 4750 3031 4423 
Q 3450 4097 3450 3541 
Q 3450 3153 3228 2886 
Q 3006 2619 2597 2516 
z
" transform="scale(0.015625)"/>
       </defs>
       <use xlink:href="#DejaVuSans-33"/>
       <use xlink:href="#DejaVuSans-2e" x="63.623047"/>
       <use xlink:href="#DejaVuSans-30" x="95.410156"/>
      </g>
     </g>
    </g>
    <g id="ytick_7">
     <g id="line2d_29">
      <path d="M 63 101.653373 
L 453.6 101.653373 
" clip-path="url(#p1fe5727713)" style="fill: none; stroke: #808080; stroke-width: 0.8; stroke-linecap: square"/>
     </g>
     <g id="line2d_30">
      <g>
       <use xlink:href="#m5e731fd481" x="63" y="101.653373" style="stroke: #000000; stroke-width: 0.8"/>
      </g>
     </g>
     <g id="text_16">
      <!-- 3.5 -->
      <g transform="translate(36.91625 106.212435) scale(0.12 -0.12)">
       <use xlink:href="#DejaVuSans-33"/>
       <use xlink:href="#DejaVuSans-2e" x="63.623047"/>
       <use xlink:href="#DejaVuSans-35" x="95.410156"/>
      </g>
     </g>
    </g>
    <g id="ytick_8">
     <g id="line2d_31">
      <path d="M 63 70.184894 
L 453.6 70.184894 
" clip-path="url(#p1fe5727713)" style="fill: none; stroke: #808080; stroke-width: 0.8; stroke-linecap: square"/>
     </g>
     <g id="line2d_32">
      <g>
       <use xlink:href="#m5e731fd481" x="63" y="70.184894" style="stroke: #000000; stroke-width: 0.8"/>
      </g>
     </g>
     <g id="text_17">
      <!-- 4.0 -->
      <g transform="translate(36.91625 74.743957) scale(0.12 -0.12)">
       <defs>
        <path id="DejaVuSans-34" d="M 2419 4116 
L 825 1625 
L 2419 1625 
L 2419 4116 
z
M 2253 4666 
L 3047 4666 
L 3047 1625 
L 3713 1625 
L 3713 1100 
L 3047 1100 
L 3047 0 
L 2419 0 
L 2419 1100 
L 313 1100 
L 313 1709 
L 2253 4666 
z
" transform="scale(0.015625)"/>
       </defs>
       <use xlink:href="#DejaVuSans-34"/>
       <use xlink:href="#DejaVuSans-2e" x="63.623047"/>
       <use xlink:href="#DejaVuSans-30" x="95.410156"/>
      </g>
     </g>
    </g>
    <g id="text_18">
     <!-- $NF\,$ [dB] -->
     <g transform="translate(30.420625 202.56) rotate(-90) scale(0.12 -0.12)">
      <defs>
       <path id="DejaVuSans-Oblique-4e" d="M 1081 4666 
L 1931 4666 
L 3219 666 
L 4000 4666 
L 4616 4666 
L 3706 0 
L 2853 0 
L 1569 4025 
L 788 0 
L 172 0 
L 1081 4666 
z
" transform="scale(0.015625)"/>
       <path id="DejaVuSans-Oblique-46" d="M 1081 4666 
L 3756 4666 
L 3653 4134 
L 1606 4134 
L 1338 2759 
L 3188 2759 
L 3084 2228 
L 1234 2228 
L 800 0 
L 172 0 
L 1081 4666 
z
" transform="scale(0.015625)"/>
       <path id="DejaVuSans-64" d="M 2906 2969 
L 2906 4863 
L 3481 4863 
L 3481 0 
L 2906 0 
L 2906 525 
Q 2725 213 2448 61 
Q 2172 -91 1784 -91 
Q 1150 -91 751 415 
Q 353 922 353 1747 
Q 353 2572 751 3078 
Q 1150 3584 1784 3584 
Q 2172 3584 2448 3432 
Q 2725 3281 2906 2969 
z
M 947 1747 
Q 947 1113 1208 752 
Q 1469 391 1925 391 
Q 2381 391 2643 752 
Q 2906 1113 2906 1747 
Q 2906 2381 2643 2742 
Q 2381 3103 1925 3103 
Q 1469 3103 1208 2742 
Q 947 2381 947 1747 
z
" transform="scale(0.015625)"/>
       <path id="DejaVuSans-42" d="M 1259 2228 
L 1259 519 
L 2272 519 
Q 2781 519 3026 730 
Q 3272 941 3272 1375 
Q 3272 1813 3026 2020 
Q 2781 2228 2272 2228 
L 1259 2228 
z
M 1259 4147 
L 1259 2741 
L 2194 2741 
Q 2656 2741 2882 2914 
Q 3109 3088 3109 3444 
Q 3109 3797 2882 3972 
Q 2656 4147 2194 4147 
L 1259 4147 
z
M 628 4666 
L 2241 4666 
Q 2963 4666 3353 4366 
Q 3744 4066 3744 3513 
Q 3744 3084 3544 2831 
Q 3344 2578 2956 2516 
Q 3422 2416 3680 2098 
Q 3938 1781 3938 1306 
Q 3938 681 3513 340 
Q 3088 0 2303 0 
L 628 0 
L 628 4666 
z
" transform="scale(0.015625)"/>
      </defs>
      <use xlink:href="#DejaVuSans-Oblique-4e" transform="translate(0 0.015625)"/>
      <use xlink:href="#DejaVuSans-Oblique-46" transform="translate(74.804688 0.015625)"/>
      <use xlink:href="#DejaVuSans-20" transform="translate(148.559895 0.015625)"/>
      <use xlink:href="#DejaVuSans-5b" transform="translate(180.347004 0.015625)"/>
      <use xlink:href="#DejaVuSans-64" transform="translate(219.360676 0.015625)"/>
      <use xlink:href="#DejaVuSans-42" transform="translate(282.837239 0.015625)"/>
      <use xlink:href="#DejaVuSans-5d" transform="translate(351.440754 0.015625)"/>
     </g>
    </g>
   </g>
   <g id="line2d_33">
    <path d="M 80.754545 233.873902 
L 88.001299 255.254511 
L 95.248052 267.941163 
L 102.494805 276.287064 
L 109.741558 282.151102 
L 116.988312 286.462335 
L 124.235065 289.737234 
L 131.481818 292.285988 
L 138.728571 294.306205 
L 145.975325 295.929757 
L 153.222078 297.248034 
L 160.468831 298.326371 
L 167.715584 299.212722 
L 174.962338 299.943079 
L 182.209091 300.544984 
L 189.455844 301.039873 
L 196.702597 301.444678 
L 203.949351 301.772951 
L 211.196104 302.03567 
L 218.442857 302.24182 
L 225.68961 302.398824 
L 232.936364 302.512873 
L 240.183117 302.589168 
L 247.42987 302.632112 
L 254.676623 302.645455 
L 261.923377 302.632413 
L 269.17013 302.595759 
L 276.416883 302.537898 
L 283.663636 302.460922 
L 290.91039 302.366665 
L 298.157143 302.256736 
L 305.403896 302.132558 
L 312.650649 301.995389 
L 319.897403 301.846348 
L 327.144156 301.686433 
L 334.390909 301.516538 
L 341.637662 301.337464 
L 348.884416 301.149932 
L 356.131169 300.954593 
L 363.377922 300.752036 
L 370.624675 300.542796 
L 377.871429 300.327357 
L 385.118182 300.106163 
L 392.364935 299.879617 
L 399.611688 299.648087 
L 406.858442 299.411914 
L 414.105195 299.171407 
L 421.351948 298.926853 
L 428.598701 298.678515 
L 435.845455 298.426636 
" clip-path="url(#p1fe5727713)" style="fill: none; stroke: #ff0000; stroke-width: 2; stroke-linecap: square"/>
   </g>
   <g id="line2d_34">
    <path d="M 80.754545 231.917967 
L 88.001299 252.324565 
L 95.248052 264.0216 
L 102.494805 271.372434 
L 109.741558 276.240693 
L 116.988312 279.557925 
L 124.235065 281.84202 
L 131.481818 283.404025 
L 138.728571 284.442083 
L 145.975325 285.088413 
L 153.222078 285.434628 
L 160.468831 285.546212 
L 167.715584 285.471209 
L 174.962338 285.24567 
L 182.209091 284.897166 
L 189.455844 284.447143 
L 196.702597 283.912532 
L 203.949351 283.306872 
L 211.196104 282.64112 
L 218.442857 281.924234 
L 225.68961 281.163608 
L 232.936364 280.365398 
L 240.183117 279.534769 
L 247.42987 278.676084 
L 254.676623 277.793054 
L 261.923377 276.888854 
L 269.17013 275.966215 
L 276.416883 275.027498 
L 283.663636 274.074754 
L 290.91039 273.109773 
L 298.157143 272.134122 
L 305.403896 271.149179 
L 312.650649 270.15616 
L 319.897403 269.15614 
L 327.144156 268.150077 
L 334.390909 267.138819 
L 341.637662 266.123126 
L 348.884416 265.103678 
L 356.131169 264.081085 
L 363.377922 263.055893 
L 370.624675 262.028597 
L 377.871429 260.999641 
L 385.118182 259.969428 
L 392.364935 258.938322 
L 399.611688 257.906653 
L 406.858442 256.87472 
L 414.105195 255.842797 
L 421.351948 254.811131 
L 428.598701 253.779948 
L 435.845455 252.749453 
" clip-path="url(#p1fe5727713)" style="fill: none; stroke: #0000ff; stroke-width: 2; stroke-linecap: square"/>
   </g>
   <g id="line2d_35">
    <path d="M 80.754545 228.730284 
L 88.001299 247.571637 
L 95.248052 257.693131 
L 102.494805 263.474542 
L 109.741558 266.786885 
L 116.988312 268.565357 
L 124.235065 269.329728 
L 131.481818 269.391998 
L 138.728571 268.950749 
L 145.975325 268.138334 
L 153.222078 267.046316 
L 160.468831 265.74001 
L 167.715584 264.267221 
L 174.962338 262.66371 
L 182.209091 260.95673 
L 189.455844 259.167391 
L 196.702597 257.312275 
L 203.949351 255.404569 
L 211.196104 253.454877 
L 218.442857 251.471804 
L 225.68961 249.462396 
L 232.936364 247.432463 
L 240.183117 245.386832 
L 247.42987 243.329534 
L 254.676623 241.263952 
L 261.923377 239.192943 
L 269.17013 237.118926 
L 276.416883 235.043957 
L 283.663636 232.969788 
L 290.91039 230.897919 
L 298.157143 228.829632 
L 305.403896 226.766029 
L 312.650649 224.708056 
L 319.897403 222.656525 
L 327.144156 220.612134 
L 334.390909 218.575483 
L 341.637662 216.547087 
L 348.884416 214.527388 
L 356.131169 212.516761 
L 363.377922 210.515527 
L 370.624675 208.523959 
L 377.871429 206.542286 
L 385.118182 204.5707 
L 392.364935 202.609358 
L 399.611688 200.65839 
L 406.858442 198.7179 
L 414.105195 196.78797 
L 421.351948 194.868661 
L 428.598701 192.960017 
L 435.845455 191.062065 
" clip-path="url(#p1fe5727713)" style="fill: none; stroke: #008000; stroke-width: 2; stroke-linecap: square"/>
   </g>
   <g id="line2d_36">
    <path d="M 80.754545 224.353535 
L 88.001299 241.089488 
L 95.248052 249.119986 
L 102.494805 252.846116 
L 109.741558 254.147495 
L 116.988312 253.962731 
L 124.235065 252.812598 
L 131.481818 251.008902 
L 138.728571 248.7494 
L 145.975325 246.165289 
L 153.222078 243.346803 
L 160.468831 240.357846 
L 167.715584 237.244786 
L 174.962338 234.041951 
L 182.209091 230.775187 
L 189.455844 227.464233 
L 196.702597 224.124345 
L 203.949351 220.767429 
L 211.196104 217.402854 
L 218.442857 214.038043 
L 225.68961 210.678906 
L 232.936364 207.330163 
L 240.183117 203.995598 
L 247.42987 200.678241 
L 254.676623 197.38052 
L 261.923377 194.104374 
L 269.17013 190.851342 
L 276.416883 187.622639 
L 283.663636 184.419212 
L 290.91039 181.241785 
L 298.157143 178.090901 
L 305.403896 174.966949 
L 312.650649 171.870193 
L 319.897403 168.800791 
L 327.144156 165.758812 
L 334.390909 162.744253 
L 341.637662 159.757047 
L 348.884416 156.797079 
L 356.131169 153.864189 
L 363.377922 150.958183 
L 370.624675 148.078835 
L 377.871429 145.225899 
L 385.118182 142.399105 
L 392.364935 139.598171 
L 399.611688 136.822797 
L 406.858442 134.072678 
L 414.105195 131.347499 
L 421.351948 128.646938 
L 428.598701 125.97067 
L 435.845455 123.318368 
" clip-path="url(#p1fe5727713)" style="fill: none; stroke: #00bfbf; stroke-width: 2; stroke-linecap: square"/>
   </g>
   <g id="line2d_37">
    <path d="M 80.754545 218.844467 
L 88.001299 233.000019 
L 95.248052 238.510983 
L 102.494805 239.801502 
L 109.741558 238.758046 
L 116.988312 236.319714 
L 124.235065 233.00505 
L 131.481818 229.122439 
L 138.728571 224.865736 
L 145.975325 220.362103 
L 153.222078 215.697785 
L 160.468831 210.932831 
L 167.715584 206.109934 
L 174.962338 201.259943 
L 182.209091 196.405426 
L 189.455844 191.563043 
L 196.702597 186.74516 
L 203.949351 181.960974 
L 211.196104 177.217318 
L 218.442857 172.519235 
L 225.68961 167.870406 
L 232.936364 163.273461 
L 240.183117 158.730219 
L 247.42987 154.241869 
L 254.676623 149.809107 
L 261.923377 145.432243 
L 269.17013 141.111284 
L 276.416883 136.846002 
L 283.663636 132.635981 
L 290.91039 128.480665 
L 298.157143 124.379383 
L 305.403896 120.331382 
L 312.650649 116.335842 
L 319.897403 112.391898 
L 327.144156 108.49865 
L 334.390909 104.655175 
L 341.637662 100.860539 
L 348.884416 97.113798 
L 356.131169 93.414008 
L 363.377922 89.760231 
L 370.624675 86.151533 
L 377.871429 82.586992 
L 385.118182 79.0657 
L 392.364935 75.586761 
L 399.611688 72.149296 
L 406.858442 68.752444 
L 414.105195 65.39536 
L 421.351948 62.077217 
L 428.598701 58.797209 
L 435.845455 55.554545 
" clip-path="url(#p1fe5727713)" style="fill: none; stroke: #bf00bf; stroke-width: 2; stroke-linecap: square"/>
   </g>
   <g id="patch_3">
    <path d="M 63 315 
L 63 43.2 
" style="fill: none; stroke: #000000; stroke-width: 0.8; stroke-linejoin: miter; stroke-linecap: square"/>
   </g>
   <g id="patch_4">
    <path d="M 453.6 315 
L 453.6 43.2 
" style="fill: none; stroke: #000000; stroke-width: 0.8; stroke-linejoin: miter; stroke-linecap: square"/>
   </g>
   <g id="patch_5">
    <path d="M 63 315 
L 453.6 315 
" style="fill: none; stroke: #000000; stroke-width: 0.8; stroke-linejoin: miter; stroke-linecap: square"/>
   </g>
   <g id="patch_6">
    <path d="M 63 43.2 
L 453.6 43.2 
" style="fill: none; stroke: #000000; stroke-width: 0.8; stroke-linejoin: miter; stroke-linecap: square"/>
   </g>
   <g id="text_19">
    <!-- Noise Figure versus width, $f_{min}$ = 200MHz -->
    <g transform="translate(133.56 37.2) scale(0.12 -0.12)">
     <defs>
      <path id="DejaVuSans-4e" d="M 628 4666 
L 1478 4666 
L 3547 763 
L 3547 4666 
L 4159 4666 
L 4159 0 
L 3309 0 
L 1241 3903 
L 1241 0 
L 628 0 
L 628 4666 
z
" transform="scale(0.015625)"/>
      <path id="DejaVuSans-6f" d="M 1959 3097 
Q 1497 3097 1228 2736 
Q 959 2375 959 1747 
Q 959 1119 1226 758 
Q 1494 397 1959 397 
Q 2419 397 2687 759 
Q 2956 1122 2956 1747 
Q 2956 2369 2687 2733 
Q 2419 3097 1959 3097 
z
M 1959 3584 
Q 2709 3584 3137 3096 
Q 3566 2609 3566 1747 
Q 3566 888 3137 398 
Q 2709 -91 1959 -91 
Q 1206 -91 779 398 
Q 353 888 353 1747 
Q 353 2609 779 3096 
Q 1206 3584 1959 3584 
z
" transform="scale(0.015625)"/>
      <path id="DejaVuSans-69" d="M 603 3500 
L 1178 3500 
L 1178 0 
L 603 0 
L 603 3500 
z
M 603 4863 
L 1178 4863 
L 1178 4134 
L 603 4134 
L 603 4863 
z
" transform="scale(0.015625)"/>
      <path id="DejaVuSans-73" d="M 2834 3397 
L 2834 2853 
Q 2591 2978 2328 3040 
Q 2066 3103 1784 3103 
Q 1356 3103 1142 2972 
Q 928 2841 928 2578 
Q 928 2378 1081 2264 
Q 1234 2150 1697 2047 
L 1894 2003 
Q 2506 1872 2764 1633 
Q 3022 1394 3022 966 
Q 3022 478 2636 193 
Q 2250 -91 1575 -91 
Q 1294 -91 989 -36 
Q 684 19 347 128 
L 347 722 
Q 666 556 975 473 
Q 1284 391 1588 391 
Q 1994 391 2212 530 
Q 2431 669 2431 922 
Q 2431 1156 2273 1281 
Q 2116 1406 1581 1522 
L 1381 1569 
Q 847 1681 609 1914 
Q 372 2147 372 2553 
Q 372 3047 722 3315 
Q 1072 3584 1716 3584 
Q 2034 3584 2315 3537 
Q 2597 3491 2834 3397 
z
" transform="scale(0.015625)"/>
      <path id="DejaVuSans-65" d="M 3597 1894 
L 3597 1613 
L 953 1613 
Q 991 1019 1311 708 
Q 1631 397 2203 397 
Q 2534 397 2845 478 
Q 3156 559 3463 722 
L 3463 178 
Q 3153 47 2828 -22 
Q 2503 -91 2169 -91 
Q 1331 -91 842 396 
Q 353 884 353 1716 
Q 353 2575 817 3079 
Q 1281 3584 2069 3584 
Q 2775 3584 3186 3129 
Q 3597 2675 3597 1894 
z
M 3022 2063 
Q 3016 2534 2758 2815 
Q 2500 3097 2075 3097 
Q 1594 3097 1305 2825 
Q 1016 2553 972 2059 
L 3022 2063 
z
" transform="scale(0.015625)"/>
      <path id="DejaVuSans-46" d="M 628 4666 
L 3309 4666 
L 3309 4134 
L 1259 4134 
L 1259 2759 
L 3109 2759 
L 3109 2228 
L 1259 2228 
L 1259 0 
L 628 0 
L 628 4666 
z
" transform="scale(0.015625)"/>
      <path id="DejaVuSans-67" d="M 2906 1791 
Q 2906 2416 2648 2759 
Q 2391 3103 1925 3103 
Q 1463 3103 1205 2759 
Q 947 2416 947 1791 
Q 947 1169 1205 825 
Q 1463 481 1925 481 
Q 2391 481 2648 825 
Q 2906 1169 2906 1791 
z
M 3481 434 
Q 3481 -459 3084 -895 
Q 2688 -1331 1869 -1331 
Q 1566 -1331 1297 -1286 
Q 1028 -1241 775 -1147 
L 775 -588 
Q 1028 -725 1275 -790 
Q 1522 -856 1778 -856 
Q 2344 -856 2625 -561 
Q 2906 -266 2906 331 
L 2906 616 
Q 2728 306 2450 153 
Q 2172 0 1784 0 
Q 1141 0 747 490 
Q 353 981 353 1791 
Q 353 2603 747 3093 
Q 1141 3584 1784 3584 
Q 2172 3584 2450 3431 
Q 2728 3278 2906 2969 
L 2906 3500 
L 3481 3500 
L 3481 434 
z
" transform="scale(0.015625)"/>
      <path id="DejaVuSans-72" d="M 2631 2963 
Q 2534 3019 2420 3045 
Q 2306 3072 2169 3072 
Q 1681 3072 1420 2755 
Q 1159 2438 1159 1844 
L 1159 0 
L 581 0 
L 581 3500 
L 1159 3500 
L 1159 2956 
Q 1341 3275 1631 3429 
Q 1922 3584 2338 3584 
Q 2397 3584 2469 3576 
Q 2541 3569 2628 3553 
L 2631 2963 
z
" transform="scale(0.015625)"/>
      <path id="DejaVuSans-76" d="M 191 3500 
L 800 3500 
L 1894 563 
L 2988 3500 
L 3597 3500 
L 2284 0 
L 1503 0 
L 191 3500 
z
" transform="scale(0.015625)"/>
      <path id="DejaVuSans-77" d="M 269 3500 
L 844 3500 
L 1563 769 
L 2278 3500 
L 2956 3500 
L 3675 769 
L 4391 3500 
L 4966 3500 
L 4050 0 
L 3372 0 
L 2619 2869 
L 1863 0 
L 1184 0 
L 269 3500 
z
" transform="scale(0.015625)"/>
      <path id="DejaVuSans-74" d="M 1172 4494 
L 1172 3500 
L 2356 3500 
L 2356 3053 
L 1172 3053 
L 1172 1153 
Q 1172 725 1289 603 
Q 1406 481 1766 481 
L 2356 481 
L 2356 0 
L 1766 0 
Q 1100 0 847 248 
Q 594 497 594 1153 
L 594 3053 
L 172 3053 
L 172 3500 
L 594 3500 
L 594 4494 
L 1172 4494 
z
" transform="scale(0.015625)"/>
      <path id="DejaVuSans-68" d="M 3513 2113 
L 3513 0 
L 2938 0 
L 2938 2094 
Q 2938 2591 2744 2837 
Q 2550 3084 2163 3084 
Q 1697 3084 1428 2787 
Q 1159 2491 1159 1978 
L 1159 0 
L 581 0 
L 581 4863 
L 1159 4863 
L 1159 2956 
Q 1366 3272 1645 3428 
Q 1925 3584 2291 3584 
Q 2894 3584 3203 3211 
Q 3513 2838 3513 2113 
z
" transform="scale(0.015625)"/>
      <path id="DejaVuSans-2c" d="M 750 794 
L 1409 794 
L 1409 256 
L 897 -744 
L 494 -744 
L 750 256 
L 750 794 
z
" transform="scale(0.015625)"/>
      <path id="DejaVuSans-Oblique-66" d="M 3059 4863 
L 2969 4384 
L 2419 4384 
Q 2106 4384 1964 4261 
Q 1822 4138 1753 3809 
L 1691 3500 
L 2638 3500 
L 2553 3053 
L 1606 3053 
L 1013 0 
L 434 0 
L 1031 3053 
L 481 3053 
L 563 3500 
L 1113 3500 
L 1159 3744 
Q 1278 4363 1576 4613 
Q 1875 4863 2516 4863 
L 3059 4863 
z
" transform="scale(0.015625)"/>
      <path id="DejaVuSans-Oblique-6d" d="M 5747 2113 
L 5338 0 
L 4763 0 
L 5166 2094 
Q 5191 2228 5203 2325 
Q 5216 2422 5216 2491 
Q 5216 2772 5059 2928 
Q 4903 3084 4622 3084 
Q 4203 3084 3875 2770 
Q 3547 2456 3450 1953 
L 3066 0 
L 2491 0 
L 2900 2094 
Q 2925 2209 2937 2307 
Q 2950 2406 2950 2484 
Q 2950 2769 2794 2926 
Q 2638 3084 2363 3084 
Q 1938 3084 1609 2770 
Q 1281 2456 1184 1953 
L 800 0 
L 225 0 
L 909 3500 
L 1484 3500 
L 1375 2956 
Q 1609 3263 1923 3423 
Q 2238 3584 2597 3584 
Q 2978 3584 3223 3384 
Q 3469 3184 3519 2828 
Q 3781 3197 4126 3390 
Q 4472 3584 4856 3584 
Q 5306 3584 5551 3325 
Q 5797 3066 5797 2591 
Q 5797 2488 5784 2364 
Q 5772 2241 5747 2113 
z
" transform="scale(0.015625)"/>
      <path id="DejaVuSans-Oblique-69" d="M 1172 4863 
L 1747 4863 
L 1606 4134 
L 1031 4134 
L 1172 4863 
z
M 909 3500 
L 1484 3500 
L 800 0 
L 225 0 
L 909 3500 
z
" transform="scale(0.015625)"/>
      <path id="DejaVuSans-Oblique-6e" d="M 3566 2113 
L 3156 0 
L 2578 0 
L 2988 2091 
Q 3016 2238 3031 2350 
Q 3047 2463 3047 2528 
Q 3047 2791 2881 2937 
Q 2716 3084 2419 3084 
Q 1956 3084 1622 2776 
Q 1288 2469 1184 1941 
L 800 0 
L 225 0 
L 903 3500 
L 1478 3500 
L 1363 2950 
Q 1603 3253 1940 3418 
Q 2278 3584 2650 3584 
Q 3113 3584 3367 3334 
Q 3622 3084 3622 2631 
Q 3622 2519 3608 2391 
Q 3594 2263 3566 2113 
z
" transform="scale(0.015625)"/>
      <path id="DejaVuSans-3d" d="M 678 2906 
L 4684 2906 
L 4684 2381 
L 678 2381 
L 678 2906 
z
M 678 1631 
L 4684 1631 
L 4684 1100 
L 678 1100 
L 678 1631 
z
" transform="scale(0.015625)"/>
      <path id="DejaVuSans-4d" d="M 628 4666 
L 1569 4666 
L 2759 1491 
L 3956 4666 
L 4897 4666 
L 4897 0 
L 4281 0 
L 4281 4097 
L 3078 897 
L 2444 897 
L 1241 4097 
L 1241 0 
L 628 0 
L 628 4666 
z
" transform="scale(0.015625)"/>
      <path id="DejaVuSans-48" d="M 628 4666 
L 1259 4666 
L 1259 2753 
L 3553 2753 
L 3553 4666 
L 4184 4666 
L 4184 0 
L 3553 0 
L 3553 2222 
L 1259 2222 
L 1259 0 
L 628 0 
L 628 4666 
z
" transform="scale(0.015625)"/>
      <path id="DejaVuSans-7a" d="M 353 3500 
L 3084 3500 
L 3084 2975 
L 922 459 
L 3084 459 
L 3084 0 
L 275 0 
L 275 525 
L 2438 3041 
L 353 3041 
L 353 3500 
z
" transform="scale(0.015625)"/>
     </defs>
     <use xlink:href="#DejaVuSans-4e" transform="translate(0 0.015625)"/>
     <use xlink:href="#DejaVuSans-6f" transform="translate(74.804688 0.015625)"/>
     <use xlink:href="#DejaVuSans-69" transform="translate(135.986328 0.015625)"/>
     <use xlink:href="#DejaVuSans-73" transform="translate(163.769531 0.015625)"/>
     <use xlink:href="#DejaVuSans-65" transform="translate(215.869141 0.015625)"/>
     <use xlink:href="#DejaVuSans-20" transform="translate(277.392578 0.015625)"/>
     <use xlink:href="#DejaVuSans-46" transform="translate(309.179688 0.015625)"/>
     <use xlink:href="#DejaVuSans-69" transform="translate(366.699219 0.015625)"/>
     <use xlink:href="#DejaVuSans-67" transform="translate(394.482422 0.015625)"/>
     <use xlink:href="#DejaVuSans-75" transform="translate(457.958984 0.015625)"/>
     <use xlink:href="#DejaVuSans-72" transform="translate(521.337891 0.015625)"/>
     <use xlink:href="#DejaVuSans-65" transform="translate(562.451172 0.015625)"/>
     <use xlink:href="#DejaVuSans-20" transform="translate(623.974609 0.015625)"/>
     <use xlink:href="#DejaVuSans-76" transform="translate(655.761719 0.015625)"/>
     <use xlink:href="#DejaVuSans-65" transform="translate(714.941406 0.015625)"/>
     <use xlink:href="#DejaVuSans-72" transform="translate(776.464844 0.015625)"/>
     <use xlink:href="#DejaVuSans-73" transform="translate(817.578125 0.015625)"/>
     <use xlink:href="#DejaVuSans-75" transform="translate(869.677734 0.015625)"/>
     <use xlink:href="#DejaVuSans-73" transform="translate(933.056641 0.015625)"/>
     <use xlink:href="#DejaVuSans-20" transform="translate(985.15625 0.015625)"/>
     <use xlink:href="#DejaVuSans-77" transform="translate(1016.943359 0.015625)"/>
     <use xlink:href="#DejaVuSans-69" transform="translate(1098.730469 0.015625)"/>
     <use xlink:href="#DejaVuSans-64" transform="translate(1126.513672 0.015625)"/>
     <use xlink:href="#DejaVuSans-74" transform="translate(1189.990234 0.015625)"/>
     <use xlink:href="#DejaVuSans-68" transform="translate(1229.199219 0.015625)"/>
     <use xlink:href="#DejaVuSans-2c" transform="translate(1292.578125 0.015625)"/>
     <use xlink:href="#DejaVuSans-20" transform="translate(1324.365234 0.015625)"/>
     <use xlink:href="#DejaVuSans-Oblique-66" transform="translate(1356.152344 0.015625)"/>
     <use xlink:href="#DejaVuSans-Oblique-6d" transform="translate(1391.357422 -16.390625) scale(0.7)"/>
     <use xlink:href="#DejaVuSans-Oblique-69" transform="translate(1459.545898 -16.390625) scale(0.7)"/>
     <use xlink:href="#DejaVuSans-Oblique-6e" transform="translate(1478.994141 -16.390625) scale(0.7)"/>
     <use xlink:href="#DejaVuSans-20" transform="translate(1526.09375 0.015625)"/>
     <use xlink:href="#DejaVuSans-3d" transform="translate(1557.880859 0.015625)"/>
     <use xlink:href="#DejaVuSans-20" transform="translate(1641.669922 0.015625)"/>
     <use xlink:href="#DejaVuSans-32" transform="translate(1673.457031 0.015625)"/>
     <use xlink:href="#DejaVuSans-30" transform="translate(1737.080078 0.015625)"/>
     <use xlink:href="#DejaVuSans-30" transform="translate(1800.703125 0.015625)"/>
     <use xlink:href="#DejaVuSans-4d" transform="translate(1864.326172 0.015625)"/>
     <use xlink:href="#DejaVuSans-48" transform="translate(1950.605469 0.015625)"/>
     <use xlink:href="#DejaVuSans-7a" transform="translate(2025.800781 0.015625)"/>
    </g>
   </g>
   <g id="legend_1">
    <g id="patch_7">
     <path d="M 70 110.26875 
L 202.84 110.26875 
Q 204.84 110.26875 204.84 108.26875 
L 204.84 50.2 
Q 204.84 48.2 202.84 48.2 
L 70 48.2 
Q 68 48.2 68 50.2 
L 68 108.26875 
Q 68 110.26875 70 110.26875 
z
" style="fill: #ffffff; opacity: 0.8; stroke: #cccccc; stroke-linejoin: miter"/>
    </g>
    <g id="line2d_38">
     <path d="M 70 55.818125 
L 75 55.818125 
L 80 55.818125 
" style="fill: none; stroke: #ff0000; stroke-width: 2; stroke-linecap: square"/>
    </g>
    <g id="text_20">
     <!-- $NF: f_{max}$ =  2.0e+09 -->
     <g transform="translate(82 59.318125) scale(0.12 -0.12)">
      <defs>
       <path id="DejaVuSans-3a" d="M 750 794 
L 1409 794 
L 1409 0 
L 750 0 
L 750 794 
z
M 750 3309 
L 1409 3309 
L 1409 2516 
L 750 2516 
L 750 3309 
z
" transform="scale(0.015625)"/>
       <path id="DejaVuSans-Oblique-61" d="M 3438 1997 
L 3047 0 
L 2472 0 
L 2578 531 
Q 2325 219 2001 64 
Q 1678 -91 1281 -91 
Q 834 -91 548 182 
Q 263 456 263 884 
Q 263 1497 752 1853 
Q 1241 2209 2100 2209 
L 2900 2209 
L 2931 2363 
Q 2938 2388 2941 2417 
Q 2944 2447 2944 2509 
Q 2944 2788 2717 2942 
Q 2491 3097 2081 3097 
Q 1800 3097 1504 3025 
Q 1209 2953 897 2809 
L 997 3341 
Q 1322 3463 1633 3523 
Q 1944 3584 2234 3584 
Q 2853 3584 3176 3315 
Q 3500 3047 3500 2534 
Q 3500 2431 3484 2292 
Q 3469 2153 3438 1997 
z
M 2816 1759 
L 2241 1759 
Q 1534 1759 1195 1570 
Q 856 1381 856 984 
Q 856 709 1029 553 
Q 1203 397 1509 397 
Q 1978 397 2328 733 
Q 2678 1069 2791 1631 
L 2816 1759 
z
" transform="scale(0.015625)"/>
       <path id="DejaVuSans-Oblique-78" d="M 3841 3500 
L 2234 1784 
L 3219 0 
L 2559 0 
L 1819 1388 
L 531 0 
L -166 0 
L 1556 1844 
L 641 3500 
L 1300 3500 
L 1972 2234 
L 3144 3500 
L 3841 3500 
z
" transform="scale(0.015625)"/>
       <path id="DejaVuSans-2b" d="M 2944 4013 
L 2944 2272 
L 4684 2272 
L 4684 1741 
L 2944 1741 
L 2944 0 
L 2419 0 
L 2419 1741 
L 678 1741 
L 678 2272 
L 2419 2272 
L 2419 4013 
L 2944 4013 
z
" transform="scale(0.015625)"/>
       <path id="DejaVuSans-39" d="M 703 97 
L 703 672 
Q 941 559 1184 500 
Q 1428 441 1663 441 
Q 2288 441 2617 861 
Q 2947 1281 2994 2138 
Q 2813 1869 2534 1725 
Q 2256 1581 1919 1581 
Q 1219 1581 811 2004 
Q 403 2428 403 3163 
Q 403 3881 828 4315 
Q 1253 4750 1959 4750 
Q 2769 4750 3195 4129 
Q 3622 3509 3622 2328 
Q 3622 1225 3098 567 
Q 2575 -91 1691 -91 
Q 1453 -91 1209 -44 
Q 966 3 703 97 
z
M 1959 2075 
Q 2384 2075 2632 2365 
Q 2881 2656 2881 3163 
Q 2881 3666 2632 3958 
Q 2384 4250 1959 4250 
Q 1534 4250 1286 3958 
Q 1038 3666 1038 3163 
Q 1038 2656 1286 2365 
Q 1534 2075 1959 2075 
z
" transform="scale(0.015625)"/>
      </defs>
      <use xlink:href="#DejaVuSans-Oblique-4e" transform="translate(0 0.015625)"/>
      <use xlink:href="#DejaVuSans-Oblique-46" transform="translate(74.804688 0.015625)"/>
      <use xlink:href="#DejaVuSans-3a" transform="translate(151.806641 0.015625)"/>
      <use xlink:href="#DejaVuSans-Oblique-66" transform="translate(204.980469 0.015625)"/>
      <use xlink:href="#DejaVuSans-Oblique-6d" transform="translate(240.185547 -16.390625) scale(0.7)"/>
      <use xlink:href="#DejaVuSans-Oblique-61" transform="translate(308.374023 -16.390625) scale(0.7)"/>
      <use xlink:href="#DejaVuSans-Oblique-78" transform="translate(351.269531 -16.390625) scale(0.7)"/>
      <use xlink:href="#DejaVuSans-20" transform="translate(395.429688 0.015625)"/>
      <use xlink:href="#DejaVuSans-3d" transform="translate(427.216797 0.015625)"/>
      <use xlink:href="#DejaVuSans-20" transform="translate(511.005859 0.015625)"/>
      <use xlink:href="#DejaVuSans-20" transform="translate(542.792969 0.015625)"/>
      <use xlink:href="#DejaVuSans-32" transform="translate(574.580078 0.015625)"/>
      <use xlink:href="#DejaVuSans-2e" transform="translate(638.203125 0.015625)"/>
      <use xlink:href="#DejaVuSans-30" transform="translate(669.990234 0.015625)"/>
      <use xlink:href="#DejaVuSans-65" transform="translate(733.613281 0.015625)"/>
      <use xlink:href="#DejaVuSans-2b" transform="translate(795.136719 0.015625)"/>
      <use xlink:href="#DejaVuSans-30" transform="translate(878.925781 0.015625)"/>
      <use xlink:href="#DejaVuSans-39" transform="translate(942.548828 0.015625)"/>
     </g>
    </g>
    <g id="line2d_39">
     <path d="M 70 67.431875 
L 75 67.431875 
L 80 67.431875 
" style="fill: none; stroke: #0000ff; stroke-width: 2; stroke-linecap: square"/>
    </g>
    <g id="text_21">
     <!-- $NF: f_{max}$ =  4.0e+09 -->
     <g transform="translate(82 70.931875) scale(0.12 -0.12)">
      <use xlink:href="#DejaVuSans-Oblique-4e" transform="translate(0 0.015625)"/>
      <use xlink:href="#DejaVuSans-Oblique-46" transform="translate(74.804688 0.015625)"/>
      <use xlink:href="#DejaVuSans-3a" transform="translate(151.806641 0.015625)"/>
      <use xlink:href="#DejaVuSans-Oblique-66" transform="translate(204.980469 0.015625)"/>
      <use xlink:href="#DejaVuSans-Oblique-6d" transform="translate(240.185547 -16.390625) scale(0.7)"/>
      <use xlink:href="#DejaVuSans-Oblique-61" transform="translate(308.374023 -16.390625) scale(0.7)"/>
      <use xlink:href="#DejaVuSans-Oblique-78" transform="translate(351.269531 -16.390625) scale(0.7)"/>
      <use xlink:href="#DejaVuSans-20" transform="translate(395.429688 0.015625)"/>
      <use xlink:href="#DejaVuSans-3d" transform="translate(427.216797 0.015625)"/>
      <use xlink:href="#DejaVuSans-20" transform="translate(511.005859 0.015625)"/>
      <use xlink:href="#DejaVuSans-20" transform="translate(542.792969 0.015625)"/>
      <use xlink:href="#DejaVuSans-34" transform="translate(574.580078 0.015625)"/>
      <use xlink:href="#DejaVuSans-2e" transform="translate(638.203125 0.015625)"/>
      <use xlink:href="#DejaVuSans-30" transform="translate(669.990234 0.015625)"/>
      <use xlink:href="#DejaVuSans-65" transform="translate(733.613281 0.015625)"/>
      <use xlink:href="#DejaVuSans-2b" transform="translate(795.136719 0.015625)"/>
      <use xlink:href="#DejaVuSans-30" transform="translate(878.925781 0.015625)"/>
      <use xlink:href="#DejaVuSans-39" transform="translate(942.548828 0.015625)"/>
     </g>
    </g>
    <g id="line2d_40">
     <path d="M 70 79.045625 
L 75 79.045625 
L 80 79.045625 
" style="fill: none; stroke: #008000; stroke-width: 2; stroke-linecap: square"/>
    </g>
    <g id="text_22">
     <!-- $NF: f_{max}$ =  6.0e+09 -->
     <g transform="translate(82 82.545625) scale(0.12 -0.12)">
      <defs>
       <path id="DejaVuSans-36" d="M 2113 2584 
Q 1688 2584 1439 2293 
Q 1191 2003 1191 1497 
Q 1191 994 1439 701 
Q 1688 409 2113 409 
Q 2538 409 2786 701 
Q 3034 994 3034 1497 
Q 3034 2003 2786 2293 
Q 2538 2584 2113 2584 
z
M 3366 4563 
L 3366 3988 
Q 3128 4100 2886 4159 
Q 2644 4219 2406 4219 
Q 1781 4219 1451 3797 
Q 1122 3375 1075 2522 
Q 1259 2794 1537 2939 
Q 1816 3084 2150 3084 
Q 2853 3084 3261 2657 
Q 3669 2231 3669 1497 
Q 3669 778 3244 343 
Q 2819 -91 2113 -91 
Q 1303 -91 875 529 
Q 447 1150 447 2328 
Q 447 3434 972 4092 
Q 1497 4750 2381 4750 
Q 2619 4750 2861 4703 
Q 3103 4656 3366 4563 
z
" transform="scale(0.015625)"/>
      </defs>
      <use xlink:href="#DejaVuSans-Oblique-4e" transform="translate(0 0.015625)"/>
      <use xlink:href="#DejaVuSans-Oblique-46" transform="translate(74.804688 0.015625)"/>
      <use xlink:href="#DejaVuSans-3a" transform="translate(151.806641 0.015625)"/>
      <use xlink:href="#DejaVuSans-Oblique-66" transform="translate(204.980469 0.015625)"/>
      <use xlink:href="#DejaVuSans-Oblique-6d" transform="translate(240.185547 -16.390625) scale(0.7)"/>
      <use xlink:href="#DejaVuSans-Oblique-61" transform="translate(308.374023 -16.390625) scale(0.7)"/>
      <use xlink:href="#DejaVuSans-Oblique-78" transform="translate(351.269531 -16.390625) scale(0.7)"/>
      <use xlink:href="#DejaVuSans-20" transform="translate(395.429688 0.015625)"/>
      <use xlink:href="#DejaVuSans-3d" transform="translate(427.216797 0.015625)"/>
      <use xlink:href="#DejaVuSans-20" transform="translate(511.005859 0.015625)"/>
      <use xlink:href="#DejaVuSans-20" transform="translate(542.792969 0.015625)"/>
      <use xlink:href="#DejaVuSans-36" transform="translate(574.580078 0.015625)"/>
      <use xlink:href="#DejaVuSans-2e" transform="translate(638.203125 0.015625)"/>
      <use xlink:href="#DejaVuSans-30" transform="translate(669.990234 0.015625)"/>
      <use xlink:href="#DejaVuSans-65" transform="translate(733.613281 0.015625)"/>
      <use xlink:href="#DejaVuSans-2b" transform="translate(795.136719 0.015625)"/>
      <use xlink:href="#DejaVuSans-30" transform="translate(878.925781 0.015625)"/>
      <use xlink:href="#DejaVuSans-39" transform="translate(942.548828 0.015625)"/>
     </g>
    </g>
    <g id="line2d_41">
     <path d="M 70 90.659375 
L 75 90.659375 
L 80 90.659375 
" style="fill: none; stroke: #00bfbf; stroke-width: 2; stroke-linecap: square"/>
    </g>
    <g id="text_23">
     <!-- $NF: f_{max}$ =  8.0e+09 -->
     <g transform="translate(82 94.159375) scale(0.12 -0.12)">
      <defs>
       <path id="DejaVuSans-38" d="M 2034 2216 
Q 1584 2216 1326 1975 
Q 1069 1734 1069 1313 
Q 1069 891 1326 650 
Q 1584 409 2034 409 
Q 2484 409 2743 651 
Q 3003 894 3003 1313 
Q 3003 1734 2745 1975 
Q 2488 2216 2034 2216 
z
M 1403 2484 
Q 997 2584 770 2862 
Q 544 3141 544 3541 
Q 544 4100 942 4425 
Q 1341 4750 2034 4750 
Q 2731 4750 3128 4425 
Q 3525 4100 3525 3541 
Q 3525 3141 3298 2862 
Q 3072 2584 2669 2484 
Q 3125 2378 3379 2068 
Q 3634 1759 3634 1313 
Q 3634 634 3220 271 
Q 2806 -91 2034 -91 
Q 1263 -91 848 271 
Q 434 634 434 1313 
Q 434 1759 690 2068 
Q 947 2378 1403 2484 
z
M 1172 3481 
Q 1172 3119 1398 2916 
Q 1625 2713 2034 2713 
Q 2441 2713 2670 2916 
Q 2900 3119 2900 3481 
Q 2900 3844 2670 4047 
Q 2441 4250 2034 4250 
Q 1625 4250 1398 4047 
Q 1172 3844 1172 3481 
z
" transform="scale(0.015625)"/>
      </defs>
      <use xlink:href="#DejaVuSans-Oblique-4e" transform="translate(0 0.015625)"/>
      <use xlink:href="#DejaVuSans-Oblique-46" transform="translate(74.804688 0.015625)"/>
      <use xlink:href="#DejaVuSans-3a" transform="translate(151.806641 0.015625)"/>
      <use xlink:href="#DejaVuSans-Oblique-66" transform="translate(204.980469 0.015625)"/>
      <use xlink:href="#DejaVuSans-Oblique-6d" transform="translate(240.185547 -16.390625) scale(0.7)"/>
      <use xlink:href="#DejaVuSans-Oblique-61" transform="translate(308.374023 -16.390625) scale(0.7)"/>
      <use xlink:href="#DejaVuSans-Oblique-78" transform="translate(351.269531 -16.390625) scale(0.7)"/>
      <use xlink:href="#DejaVuSans-20" transform="translate(395.429688 0.015625)"/>
      <use xlink:href="#DejaVuSans-3d" transform="translate(427.216797 0.015625)"/>
      <use xlink:href="#DejaVuSans-20" transform="translate(511.005859 0.015625)"/>
      <use xlink:href="#DejaVuSans-20" transform="translate(542.792969 0.015625)"/>
      <use xlink:href="#DejaVuSans-38" transform="translate(574.580078 0.015625)"/>
      <use xlink:href="#DejaVuSans-2e" transform="translate(638.203125 0.015625)"/>
      <use xlink:href="#DejaVuSans-30" transform="translate(669.990234 0.015625)"/>
      <use xlink:href="#DejaVuSans-65" transform="translate(733.613281 0.015625)"/>
      <use xlink:href="#DejaVuSans-2b" transform="translate(795.136719 0.015625)"/>
      <use xlink:href="#DejaVuSans-30" transform="translate(878.925781 0.015625)"/>
      <use xlink:href="#DejaVuSans-39" transform="translate(942.548828 0.015625)"/>
     </g>
    </g>
    <g id="line2d_42">
     <path d="M 70 102.273125 
L 75 102.273125 
L 80 102.273125 
" style="fill: none; stroke: #bf00bf; stroke-width: 2; stroke-linecap: square"/>
    </g>
    <g id="text_24">
     <!-- $NF: f_{max}$ =  1.0e+10 -->
     <g transform="translate(82 105.773125) scale(0.12 -0.12)">
      <use xlink:href="#DejaVuSans-Oblique-4e" transform="translate(0 0.015625)"/>
      <use xlink:href="#DejaVuSans-Oblique-46" transform="translate(74.804688 0.015625)"/>
      <use xlink:href="#DejaVuSans-3a" transform="translate(151.806641 0.015625)"/>
      <use xlink:href="#DejaVuSans-Oblique-66" transform="translate(204.980469 0.015625)"/>
      <use xlink:href="#DejaVuSans-Oblique-6d" transform="translate(240.185547 -16.390625) scale(0.7)"/>
      <use xlink:href="#DejaVuSans-Oblique-61" transform="translate(308.374023 -16.390625) scale(0.7)"/>
      <use xlink:href="#DejaVuSans-Oblique-78" transform="translate(351.269531 -16.390625) scale(0.7)"/>
      <use xlink:href="#DejaVuSans-20" transform="translate(395.429688 0.015625)"/>
      <use xlink:href="#DejaVuSans-3d" transform="translate(427.216797 0.015625)"/>
      <use xlink:href="#DejaVuSans-20" transform="translate(511.005859 0.015625)"/>
      <use xlink:href="#DejaVuSans-20" transform="translate(542.792969 0.015625)"/>
      <use xlink:href="#DejaVuSans-31" transform="translate(574.580078 0.015625)"/>
      <use xlink:href="#DejaVuSans-2e" transform="translate(638.203125 0.015625)"/>
      <use xlink:href="#DejaVuSans-30" transform="translate(669.990234 0.015625)"/>
      <use xlink:href="#DejaVuSans-65" transform="translate(733.613281 0.015625)"/>
      <use xlink:href="#DejaVuSans-2b" transform="translate(795.136719 0.015625)"/>
      <use xlink:href="#DejaVuSans-31" transform="translate(878.925781 0.015625)"/>
      <use xlink:href="#DejaVuSans-30" transform="translate(942.548828 0.015625)"/>
     </g>
    </g>
   </g>
  </g>
 </g>
 <defs>
  <clipPath id="p1fe5727713">
   <rect x="63" y="43.2" width="390.6" height="271.8"/>
  </clipPath>
 </defs>
</svg>
