<?xml version="1.0" encoding="utf-8" standalone="no"?>
<!DOCTYPE svg PUBLIC "-//W3C//DTD SVG 1.1//EN"
  "http://www.w3.org/Graphics/SVG/1.1/DTD/svg11.dtd">
<svg xmlns:xlink="http://www.w3.org/1999/xlink" width="504pt" height="360pt" viewBox="0 0 504 360" xmlns="http://www.w3.org/2000/svg" version="1.1">
 <metadata>
  <rdf:RDF xmlns:dc="http://purl.org/dc/elements/1.1/" xmlns:cc="http://creativecommons.org/ns#" xmlns:rdf="http://www.w3.org/1999/02/22-rdf-syntax-ns#">
   <cc:Work>
    <dc:type rdf:resource="http://purl.org/dc/dcmitype/StillImage"/>
    <dc:date>2024-10-20T17:46:54.749693</dc:date>
    <dc:format>image/svg+xml</dc:format>
    <dc:creator>
     <cc:Agent>
      <dc:title>Matplotlib v3.9.2, https://matplotlib.org/</dc:title>
     </cc:Agent>
    </dc:creator>
   </cc:Work>
  </rdf:RDF>
 </metadata>
 <defs>
  <style type="text/css">*{stroke-linejoin: round; stroke-linecap: butt}</style>
 </defs>
 <g id="figure_1">
  <g id="patch_1">
   <path d="M 0 360 
L 504 360 
L 504 0 
L 0 0 
z
" style="fill: #ffffff"/>
  </g>
  <g id="axes_1">
   <g id="patch_2">
    <path d="M 67.127188 309.1 
L 493.2 309.1 
L 493.2 28.8 
L 67.127188 28.8 
z
" style="fill: #ffffff"/>
   </g>
   <g id="matplotlib.axis_1">
    <g id="xtick_1">
     <g id="line2d_1">
      <path d="M 86.494134 309.1 
L 86.494134 28.8 
" clip-path="url(#p3e2f0f84e4)" style="fill: none; stroke: #808080; stroke-width: 0.8; stroke-linecap: square"/>
     </g>
     <g id="line2d_2">
      <defs>
       <path id="m70bcabe856" d="M 0 0 
L 0 3.5 
" style="stroke: #000000; stroke-width: 0.8"/>
      </defs>
      <g>
       <use xlink:href="#m70bcabe856" x="86.494134" y="309.1" style="stroke: #000000; stroke-width: 0.8"/>
      </g>
     </g>
     <g id="text_1">
      <!-- 0.00 -->
      <g transform="translate(73.134759 325.218125) scale(0.12 -0.12)">
       <defs>
        <path id="DejaVuSans-30" d="M 2034 4250 
Q 1547 4250 1301 3770 
Q 1056 3291 1056 2328 
Q 1056 1369 1301 889 
Q 1547 409 2034 409 
Q 2525 409 2770 889 
Q 3016 1369 3016 2328 
Q 3016 3291 2770 3770 
Q 2525 4250 2034 4250 
z
M 2034 4750 
Q 2819 4750 3233 4129 
Q 3647 3509 3647 2328 
Q 3647 1150 3233 529 
Q 2819 -91 2034 -91 
Q 1250 -91 836 529 
Q 422 1150 422 2328 
Q 422 3509 836 4129 
Q 1250 4750 2034 4750 
z
" transform="scale(0.015625)"/>
        <path id="DejaVuSans-2e" d="M 684 794 
L 1344 794 
L 1344 0 
L 684 0 
L 684 794 
z
" transform="scale(0.015625)"/>
       </defs>
       <use xlink:href="#DejaVuSans-30"/>
       <use xlink:href="#DejaVuSans-2e" x="63.623047"/>
       <use xlink:href="#DejaVuSans-30" x="95.410156"/>
       <use xlink:href="#DejaVuSans-30" x="159.033203"/>
      </g>
     </g>
    </g>
    <g id="xtick_2">
     <g id="line2d_3">
      <path d="M 140.291206 309.1 
L 140.291206 28.8 
" clip-path="url(#p3e2f0f84e4)" style="fill: none; stroke: #808080; stroke-width: 0.8; stroke-linecap: square"/>
     </g>
     <g id="line2d_4">
      <g>
       <use xlink:href="#m70bcabe856" x="140.291206" y="309.1" style="stroke: #000000; stroke-width: 0.8"/>
      </g>
     </g>
     <g id="text_2">
      <!-- 0.25 -->
      <g transform="translate(126.931831 325.218125) scale(0.12 -0.12)">
       <defs>
        <path id="DejaVuSans-32" d="M 1228 531 
L 3431 531 
L 3431 0 
L 469 0 
L 469 531 
Q 828 903 1448 1529 
Q 2069 2156 2228 2338 
Q 2531 2678 2651 2914 
Q 2772 3150 2772 3378 
Q 2772 3750 2511 3984 
Q 2250 4219 1831 4219 
Q 1534 4219 1204 4116 
Q 875 4013 500 3803 
L 500 4441 
Q 881 4594 1212 4672 
Q 1544 4750 1819 4750 
Q 2544 4750 2975 4387 
Q 3406 4025 3406 3419 
Q 3406 3131 3298 2873 
Q 3191 2616 2906 2266 
Q 2828 2175 2409 1742 
Q 1991 1309 1228 531 
z
" transform="scale(0.015625)"/>
        <path id="DejaVuSans-35" d="M 691 4666 
L 3169 4666 
L 3169 4134 
L 1269 4134 
L 1269 2991 
Q 1406 3038 1543 3061 
Q 1681 3084 1819 3084 
Q 2600 3084 3056 2656 
Q 3513 2228 3513 1497 
Q 3513 744 3044 326 
Q 2575 -91 1722 -91 
Q 1428 -91 1123 -41 
Q 819 9 494 109 
L 494 744 
Q 775 591 1075 516 
Q 1375 441 1709 441 
Q 2250 441 2565 725 
Q 2881 1009 2881 1497 
Q 2881 1984 2565 2268 
Q 2250 2553 1709 2553 
Q 1456 2553 1204 2497 
Q 953 2441 691 2322 
L 691 4666 
z
" transform="scale(0.015625)"/>
       </defs>
       <use xlink:href="#DejaVuSans-30"/>
       <use xlink:href="#DejaVuSans-2e" x="63.623047"/>
       <use xlink:href="#DejaVuSans-32" x="95.410156"/>
       <use xlink:href="#DejaVuSans-35" x="159.033203"/>
      </g>
     </g>
    </g>
    <g id="xtick_3">
     <g id="line2d_5">
      <path d="M 194.088278 309.1 
L 194.088278 28.8 
" clip-path="url(#p3e2f0f84e4)" style="fill: none; stroke: #808080; stroke-width: 0.8; stroke-linecap: square"/>
     </g>
     <g id="line2d_6">
      <g>
       <use xlink:href="#m70bcabe856" x="194.088278" y="309.1" style="stroke: #000000; stroke-width: 0.8"/>
      </g>
     </g>
     <g id="text_3">
      <!-- 0.50 -->
      <g transform="translate(180.728903 325.218125) scale(0.12 -0.12)">
       <use xlink:href="#DejaVuSans-30"/>
       <use xlink:href="#DejaVuSans-2e" x="63.623047"/>
       <use xlink:href="#DejaVuSans-35" x="95.410156"/>
       <use xlink:href="#DejaVuSans-30" x="159.033203"/>
      </g>
     </g>
    </g>
    <g id="xtick_4">
     <g id="line2d_7">
      <path d="M 247.88535 309.1 
L 247.88535 28.8 
" clip-path="url(#p3e2f0f84e4)" style="fill: none; stroke: #808080; stroke-width: 0.8; stroke-linecap: square"/>
     </g>
     <g id="line2d_8">
      <g>
       <use xlink:href="#m70bcabe856" x="247.88535" y="309.1" style="stroke: #000000; stroke-width: 0.8"/>
      </g>
     </g>
     <g id="text_4">
      <!-- 0.75 -->
      <g transform="translate(234.525975 325.218125) scale(0.12 -0.12)">
       <defs>
        <path id="DejaVuSans-37" d="M 525 4666 
L 3525 4666 
L 3525 4397 
L 1831 0 
L 1172 0 
L 2766 4134 
L 525 4134 
L 525 4666 
z
" transform="scale(0.015625)"/>
       </defs>
       <use xlink:href="#DejaVuSans-30"/>
       <use xlink:href="#DejaVuSans-2e" x="63.623047"/>
       <use xlink:href="#DejaVuSans-37" x="95.410156"/>
       <use xlink:href="#DejaVuSans-35" x="159.033203"/>
      </g>
     </g>
    </g>
    <g id="xtick_5">
     <g id="line2d_9">
      <path d="M 301.682423 309.1 
L 301.682423 28.8 
" clip-path="url(#p3e2f0f84e4)" style="fill: none; stroke: #808080; stroke-width: 0.8; stroke-linecap: square"/>
     </g>
     <g id="line2d_10">
      <g>
       <use xlink:href="#m70bcabe856" x="301.682423" y="309.1" style="stroke: #000000; stroke-width: 0.8"/>
      </g>
     </g>
     <g id="text_5">
      <!-- 1.00 -->
      <g transform="translate(288.323048 325.218125) scale(0.12 -0.12)">
       <defs>
        <path id="DejaVuSans-31" d="M 794 531 
L 1825 531 
L 1825 4091 
L 703 3866 
L 703 4441 
L 1819 4666 
L 2450 4666 
L 2450 531 
L 3481 531 
L 3481 0 
L 794 0 
L 794 531 
z
" transform="scale(0.015625)"/>
       </defs>
       <use xlink:href="#DejaVuSans-31"/>
       <use xlink:href="#DejaVuSans-2e" x="63.623047"/>
       <use xlink:href="#DejaVuSans-30" x="95.410156"/>
       <use xlink:href="#DejaVuSans-30" x="159.033203"/>
      </g>
     </g>
    </g>
    <g id="xtick_6">
     <g id="line2d_11">
      <path d="M 355.479495 309.1 
L 355.479495 28.8 
" clip-path="url(#p3e2f0f84e4)" style="fill: none; stroke: #808080; stroke-width: 0.8; stroke-linecap: square"/>
     </g>
     <g id="line2d_12">
      <g>
       <use xlink:href="#m70bcabe856" x="355.479495" y="309.1" style="stroke: #000000; stroke-width: 0.8"/>
      </g>
     </g>
     <g id="text_6">
      <!-- 1.25 -->
      <g transform="translate(342.12012 325.218125) scale(0.12 -0.12)">
       <use xlink:href="#DejaVuSans-31"/>
       <use xlink:href="#DejaVuSans-2e" x="63.623047"/>
       <use xlink:href="#DejaVuSans-32" x="95.410156"/>
       <use xlink:href="#DejaVuSans-35" x="159.033203"/>
      </g>
     </g>
    </g>
    <g id="xtick_7">
     <g id="line2d_13">
      <path d="M 409.276567 309.1 
L 409.276567 28.8 
" clip-path="url(#p3e2f0f84e4)" style="fill: none; stroke: #808080; stroke-width: 0.8; stroke-linecap: square"/>
     </g>
     <g id="line2d_14">
      <g>
       <use xlink:href="#m70bcabe856" x="409.276567" y="309.1" style="stroke: #000000; stroke-width: 0.8"/>
      </g>
     </g>
     <g id="text_7">
      <!-- 1.50 -->
      <g transform="translate(395.917192 325.218125) scale(0.12 -0.12)">
       <use xlink:href="#DejaVuSans-31"/>
       <use xlink:href="#DejaVuSans-2e" x="63.623047"/>
       <use xlink:href="#DejaVuSans-35" x="95.410156"/>
       <use xlink:href="#DejaVuSans-30" x="159.033203"/>
      </g>
     </g>
    </g>
    <g id="xtick_8">
     <g id="line2d_15">
      <path d="M 463.07364 309.1 
L 463.07364 28.8 
" clip-path="url(#p3e2f0f84e4)" style="fill: none; stroke: #808080; stroke-width: 0.8; stroke-linecap: square"/>
     </g>
     <g id="line2d_16">
      <g>
       <use xlink:href="#m70bcabe856" x="463.07364" y="309.1" style="stroke: #000000; stroke-width: 0.8"/>
      </g>
     </g>
     <g id="text_8">
      <!-- 1.75 -->
      <g transform="translate(449.714265 325.218125) scale(0.12 -0.12)">
       <use xlink:href="#DejaVuSans-31"/>
       <use xlink:href="#DejaVuSans-2e" x="63.623047"/>
       <use xlink:href="#DejaVuSans-37" x="95.410156"/>
       <use xlink:href="#DejaVuSans-35" x="159.033203"/>
      </g>
     </g>
    </g>
    <g id="text_9">
     <!-- $V_{G}$ [V] -->
     <g transform="translate(261.923594 340.831875) scale(0.12 -0.12)">
      <defs>
       <path id="DejaVuSans-Oblique-56" d="M 1319 0 
L 500 4666 
L 1119 4666 
L 1797 653 
L 4063 4666 
L 4750 4666 
L 2053 0 
L 1319 0 
z
" transform="scale(0.015625)"/>
       <path id="DejaVuSans-Oblique-47" d="M 3494 697 
L 3738 1919 
L 2700 1919 
L 2797 2438 
L 4453 2438 
L 4050 384 
Q 3634 156 3143 32 
Q 2653 -91 2156 -91 
Q 1278 -91 783 396 
Q 288 884 288 1753 
Q 288 2475 589 3126 
Q 891 3778 1422 4213 
Q 1756 4484 2153 4617 
Q 2550 4750 3034 4750 
Q 3472 4750 3873 4639 
Q 4275 4528 4641 4306 
L 4513 3634 
Q 4231 3928 3853 4083 
Q 3475 4238 3047 4238 
Q 2550 4238 2172 4048 
Q 1794 3859 1497 3463 
Q 1244 3125 1098 2667 
Q 953 2209 953 1734 
Q 953 1081 1287 751 
Q 1622 422 2284 422 
Q 2616 422 2925 492 
Q 3234 563 3494 697 
z
" transform="scale(0.015625)"/>
       <path id="DejaVuSans-20" transform="scale(0.015625)"/>
       <path id="DejaVuSans-5b" d="M 550 4863 
L 1875 4863 
L 1875 4416 
L 1125 4416 
L 1125 -397 
L 1875 -397 
L 1875 -844 
L 550 -844 
L 550 4863 
z
" transform="scale(0.015625)"/>
       <path id="DejaVuSans-56" d="M 1831 0 
L 50 4666 
L 709 4666 
L 2188 738 
L 3669 4666 
L 4325 4666 
L 2547 0 
L 1831 0 
z
" transform="scale(0.015625)"/>
       <path id="DejaVuSans-5d" d="M 1947 4863 
L 1947 -844 
L 622 -844 
L 622 -397 
L 1369 -397 
L 1369 4416 
L 622 4416 
L 622 4863 
L 1947 4863 
z
" transform="scale(0.015625)"/>
      </defs>
      <use xlink:href="#DejaVuSans-Oblique-56" transform="translate(0 0.015625)"/>
      <use xlink:href="#DejaVuSans-Oblique-47" transform="translate(68.408203 -16.390625) scale(0.7)"/>
      <use xlink:href="#DejaVuSans-20" transform="translate(125.385742 0.015625)"/>
      <use xlink:href="#DejaVuSans-5b" transform="translate(157.172852 0.015625)"/>
      <use xlink:href="#DejaVuSans-56" transform="translate(196.186523 0.015625)"/>
      <use xlink:href="#DejaVuSans-5d" transform="translate(264.594727 0.015625)"/>
     </g>
    </g>
   </g>
   <g id="matplotlib.axis_2">
    <g id="ytick_1">
     <g id="line2d_17">
      <path d="M 67.127188 280.982675 
L 493.2 280.982675 
" clip-path="url(#p3e2f0f84e4)" style="fill: none; stroke: #808080; stroke-width: 0.8; stroke-linecap: square"/>
     </g>
     <g id="line2d_18">
      <defs>
       <path id="m3f066593dd" d="M 0 0 
L -3.5 0 
" style="stroke: #000000; stroke-width: 0.8"/>
      </defs>
      <g>
       <use xlink:href="#m3f066593dd" x="67.127188" y="280.982675" style="stroke: #000000; stroke-width: 0.8"/>
      </g>
     </g>
     <g id="text_10">
      <!-- $\mathdefault{10^{-5}}$ -->
      <g transform="translate(31.927188 285.541738) scale(0.12 -0.12)">
       <defs>
        <path id="DejaVuSans-2212" d="M 678 2272 
L 4684 2272 
L 4684 1741 
L 678 1741 
L 678 2272 
z
" transform="scale(0.015625)"/>
       </defs>
       <use xlink:href="#DejaVuSans-31" transform="translate(0 0.684375)"/>
       <use xlink:href="#DejaVuSans-30" transform="translate(63.623047 0.684375)"/>
       <use xlink:href="#DejaVuSans-2212" transform="translate(128.203125 38.965625) scale(0.7)"/>
       <use xlink:href="#DejaVuSans-35" transform="translate(186.855469 38.965625) scale(0.7)"/>
      </g>
     </g>
    </g>
    <g id="ytick_2">
     <g id="line2d_19">
      <path d="M 67.127188 248.409834 
L 493.2 248.409834 
" clip-path="url(#p3e2f0f84e4)" style="fill: none; stroke: #808080; stroke-width: 0.8; stroke-linecap: square"/>
     </g>
     <g id="line2d_20">
      <g>
       <use xlink:href="#m3f066593dd" x="67.127188" y="248.409834" style="stroke: #000000; stroke-width: 0.8"/>
      </g>
     </g>
     <g id="text_11">
      <!-- $\mathdefault{10^{-4}}$ -->
      <g transform="translate(31.927188 252.968897) scale(0.12 -0.12)">
       <defs>
        <path id="DejaVuSans-34" d="M 2419 4116 
L 825 1625 
L 2419 1625 
L 2419 4116 
z
M 2253 4666 
L 3047 4666 
L 3047 1625 
L 3713 1625 
L 3713 1100 
L 3047 1100 
L 3047 0 
L 2419 0 
L 2419 1100 
L 313 1100 
L 313 1709 
L 2253 4666 
z
" transform="scale(0.015625)"/>
       </defs>
       <use xlink:href="#DejaVuSans-31" transform="translate(0 0.684375)"/>
       <use xlink:href="#DejaVuSans-30" transform="translate(63.623047 0.684375)"/>
       <use xlink:href="#DejaVuSans-2212" transform="translate(128.203125 38.965625) scale(0.7)"/>
       <use xlink:href="#DejaVuSans-34" transform="translate(186.855469 38.965625) scale(0.7)"/>
      </g>
     </g>
    </g>
    <g id="ytick_3">
     <g id="line2d_21">
      <path d="M 67.127188 215.836993 
L 493.2 215.836993 
" clip-path="url(#p3e2f0f84e4)" style="fill: none; stroke: #808080; stroke-width: 0.8; stroke-linecap: square"/>
     </g>
     <g id="line2d_22">
      <g>
       <use xlink:href="#m3f066593dd" x="67.127188" y="215.836993" style="stroke: #000000; stroke-width: 0.8"/>
      </g>
     </g>
     <g id="text_12">
      <!-- $\mathdefault{10^{-3}}$ -->
      <g transform="translate(31.927188 220.396056) scale(0.12 -0.12)">
       <defs>
        <path id="DejaVuSans-33" d="M 2597 2516 
Q 3050 2419 3304 2112 
Q 3559 1806 3559 1356 
Q 3559 666 3084 287 
Q 2609 -91 1734 -91 
Q 1441 -91 1130 -33 
Q 819 25 488 141 
L 488 750 
Q 750 597 1062 519 
Q 1375 441 1716 441 
Q 2309 441 2620 675 
Q 2931 909 2931 1356 
Q 2931 1769 2642 2001 
Q 2353 2234 1838 2234 
L 1294 2234 
L 1294 2753 
L 1863 2753 
Q 2328 2753 2575 2939 
Q 2822 3125 2822 3475 
Q 2822 3834 2567 4026 
Q 2313 4219 1838 4219 
Q 1578 4219 1281 4162 
Q 984 4106 628 3988 
L 628 4550 
Q 988 4650 1302 4700 
Q 1616 4750 1894 4750 
Q 2613 4750 3031 4423 
Q 3450 4097 3450 3541 
Q 3450 3153 3228 2886 
Q 3006 2619 2597 2516 
z
" transform="scale(0.015625)"/>
       </defs>
       <use xlink:href="#DejaVuSans-31" transform="translate(0 0.765625)"/>
       <use xlink:href="#DejaVuSans-30" transform="translate(63.623047 0.765625)"/>
       <use xlink:href="#DejaVuSans-2212" transform="translate(128.203125 39.046875) scale(0.7)"/>
       <use xlink:href="#DejaVuSans-33" transform="translate(186.855469 39.046875) scale(0.7)"/>
      </g>
     </g>
    </g>
    <g id="ytick_4">
     <g id="line2d_23">
      <path d="M 67.127188 183.264152 
L 493.2 183.264152 
" clip-path="url(#p3e2f0f84e4)" style="fill: none; stroke: #808080; stroke-width: 0.8; stroke-linecap: square"/>
     </g>
     <g id="line2d_24">
      <g>
       <use xlink:href="#m3f066593dd" x="67.127188" y="183.264152" style="stroke: #000000; stroke-width: 0.8"/>
      </g>
     </g>
     <g id="text_13">
      <!-- $\mathdefault{10^{-2}}$ -->
      <g transform="translate(31.927188 187.823215) scale(0.12 -0.12)">
       <use xlink:href="#DejaVuSans-31" transform="translate(0 0.765625)"/>
       <use xlink:href="#DejaVuSans-30" transform="translate(63.623047 0.765625)"/>
       <use xlink:href="#DejaVuSans-2212" transform="translate(128.203125 39.046875) scale(0.7)"/>
       <use xlink:href="#DejaVuSans-32" transform="translate(186.855469 39.046875) scale(0.7)"/>
      </g>
     </g>
    </g>
    <g id="ytick_5">
     <g id="line2d_25">
      <path d="M 67.127188 150.691311 
L 493.2 150.691311 
" clip-path="url(#p3e2f0f84e4)" style="fill: none; stroke: #808080; stroke-width: 0.8; stroke-linecap: square"/>
     </g>
     <g id="line2d_26">
      <g>
       <use xlink:href="#m3f066593dd" x="67.127188" y="150.691311" style="stroke: #000000; stroke-width: 0.8"/>
      </g>
     </g>
     <g id="text_14">
      <!-- $\mathdefault{10^{-1}}$ -->
      <g transform="translate(31.927188 155.250374) scale(0.12 -0.12)">
       <use xlink:href="#DejaVuSans-31" transform="translate(0 0.684375)"/>
       <use xlink:href="#DejaVuSans-30" transform="translate(63.623047 0.684375)"/>
       <use xlink:href="#DejaVuSans-2212" transform="translate(128.203125 38.965625) scale(0.7)"/>
       <use xlink:href="#DejaVuSans-31" transform="translate(186.855469 38.965625) scale(0.7)"/>
      </g>
     </g>
    </g>
    <g id="ytick_6">
     <g id="line2d_27">
      <path d="M 67.127188 118.11847 
L 493.2 118.11847 
" clip-path="url(#p3e2f0f84e4)" style="fill: none; stroke: #808080; stroke-width: 0.8; stroke-linecap: square"/>
     </g>
     <g id="line2d_28">
      <g>
       <use xlink:href="#m3f066593dd" x="67.127188" y="118.11847" style="stroke: #000000; stroke-width: 0.8"/>
      </g>
     </g>
     <g id="text_15">
      <!-- $\mathdefault{10^{0}}$ -->
      <g transform="translate(39.007188 122.677533) scale(0.12 -0.12)">
       <use xlink:href="#DejaVuSans-31" transform="translate(0 0.765625)"/>
       <use xlink:href="#DejaVuSans-30" transform="translate(63.623047 0.765625)"/>
       <use xlink:href="#DejaVuSans-30" transform="translate(128.203125 39.046875) scale(0.7)"/>
      </g>
     </g>
    </g>
    <g id="ytick_7">
     <g id="line2d_29">
      <path d="M 67.127188 85.545629 
L 493.2 85.545629 
" clip-path="url(#p3e2f0f84e4)" style="fill: none; stroke: #808080; stroke-width: 0.8; stroke-linecap: square"/>
     </g>
     <g id="line2d_30">
      <g>
       <use xlink:href="#m3f066593dd" x="67.127188" y="85.545629" style="stroke: #000000; stroke-width: 0.8"/>
      </g>
     </g>
     <g id="text_16">
      <!-- $\mathdefault{10^{1}}$ -->
      <g transform="translate(39.007188 90.104692) scale(0.12 -0.12)">
       <use xlink:href="#DejaVuSans-31" transform="translate(0 0.684375)"/>
       <use xlink:href="#DejaVuSans-30" transform="translate(63.623047 0.684375)"/>
       <use xlink:href="#DejaVuSans-31" transform="translate(128.203125 38.965625) scale(0.7)"/>
      </g>
     </g>
    </g>
    <g id="ytick_8">
     <g id="line2d_31">
      <path d="M 67.127188 52.972788 
L 493.2 52.972788 
" clip-path="url(#p3e2f0f84e4)" style="fill: none; stroke: #808080; stroke-width: 0.8; stroke-linecap: square"/>
     </g>
     <g id="line2d_32">
      <g>
       <use xlink:href="#m3f066593dd" x="67.127188" y="52.972788" style="stroke: #000000; stroke-width: 0.8"/>
      </g>
     </g>
     <g id="text_17">
      <!-- $\mathdefault{10^{2}}$ -->
      <g transform="translate(39.007188 57.531851) scale(0.12 -0.12)">
       <use xlink:href="#DejaVuSans-31" transform="translate(0 0.765625)"/>
       <use xlink:href="#DejaVuSans-30" transform="translate(63.623047 0.765625)"/>
       <use xlink:href="#DejaVuSans-32" transform="translate(128.203125 39.046875) scale(0.7)"/>
      </g>
     </g>
    </g>
    <g id="ytick_9">
     <g id="line2d_33">
      <path d="M 67.127188 303.750114 
L 493.2 303.750114 
" clip-path="url(#p3e2f0f84e4)" style="fill: none; stroke-dasharray: 0.8,1.32; stroke-dashoffset: 0; stroke: #808080; stroke-width: 0.8"/>
     </g>
     <g id="line2d_34">
      <defs>
       <path id="m85abe34ba3" d="M 0 0 
L -2 0 
" style="stroke: #000000; stroke-width: 0.6"/>
      </defs>
      <g>
       <use xlink:href="#m85abe34ba3" x="67.127188" y="303.750114" style="stroke: #000000; stroke-width: 0.6"/>
      </g>
     </g>
    </g>
    <g id="ytick_10">
     <g id="line2d_35">
      <path d="M 67.127188 298.014322 
L 493.2 298.014322 
" clip-path="url(#p3e2f0f84e4)" style="fill: none; stroke-dasharray: 0.8,1.32; stroke-dashoffset: 0; stroke: #808080; stroke-width: 0.8"/>
     </g>
     <g id="line2d_36">
      <g>
       <use xlink:href="#m85abe34ba3" x="67.127188" y="298.014322" style="stroke: #000000; stroke-width: 0.6"/>
      </g>
     </g>
    </g>
    <g id="ytick_11">
     <g id="line2d_37">
      <path d="M 67.127188 293.944712 
L 493.2 293.944712 
" clip-path="url(#p3e2f0f84e4)" style="fill: none; stroke-dasharray: 0.8,1.32; stroke-dashoffset: 0; stroke: #808080; stroke-width: 0.8"/>
     </g>
     <g id="line2d_38">
      <g>
       <use xlink:href="#m85abe34ba3" x="67.127188" y="293.944712" style="stroke: #000000; stroke-width: 0.6"/>
      </g>
     </g>
    </g>
    <g id="ytick_12">
     <g id="line2d_39">
      <path d="M 67.127188 290.788077 
L 493.2 290.788077 
" clip-path="url(#p3e2f0f84e4)" style="fill: none; stroke-dasharray: 0.8,1.32; stroke-dashoffset: 0; stroke: #808080; stroke-width: 0.8"/>
     </g>
     <g id="line2d_40">
      <g>
       <use xlink:href="#m85abe34ba3" x="67.127188" y="290.788077" style="stroke: #000000; stroke-width: 0.6"/>
      </g>
     </g>
    </g>
    <g id="ytick_13">
     <g id="line2d_41">
      <path d="M 67.127188 288.208919 
L 493.2 288.208919 
" clip-path="url(#p3e2f0f84e4)" style="fill: none; stroke-dasharray: 0.8,1.32; stroke-dashoffset: 0; stroke: #808080; stroke-width: 0.8"/>
     </g>
     <g id="line2d_42">
      <g>
       <use xlink:href="#m85abe34ba3" x="67.127188" y="288.208919" style="stroke: #000000; stroke-width: 0.6"/>
      </g>
     </g>
    </g>
    <g id="ytick_14">
     <g id="line2d_43">
      <path d="M 67.127188 286.028272 
L 493.2 286.028272 
" clip-path="url(#p3e2f0f84e4)" style="fill: none; stroke-dasharray: 0.8,1.32; stroke-dashoffset: 0; stroke: #808080; stroke-width: 0.8"/>
     </g>
     <g id="line2d_44">
      <g>
       <use xlink:href="#m85abe34ba3" x="67.127188" y="286.028272" style="stroke: #000000; stroke-width: 0.6"/>
      </g>
     </g>
    </g>
    <g id="ytick_15">
     <g id="line2d_45">
      <path d="M 67.127188 284.13931 
L 493.2 284.13931 
" clip-path="url(#p3e2f0f84e4)" style="fill: none; stroke-dasharray: 0.8,1.32; stroke-dashoffset: 0; stroke: #808080; stroke-width: 0.8"/>
     </g>
     <g id="line2d_46">
      <g>
       <use xlink:href="#m85abe34ba3" x="67.127188" y="284.13931" style="stroke: #000000; stroke-width: 0.6"/>
      </g>
     </g>
    </g>
    <g id="ytick_16">
     <g id="line2d_47">
      <path d="M 67.127188 282.473127 
L 493.2 282.473127 
" clip-path="url(#p3e2f0f84e4)" style="fill: none; stroke-dasharray: 0.8,1.32; stroke-dashoffset: 0; stroke: #808080; stroke-width: 0.8"/>
     </g>
     <g id="line2d_48">
      <g>
       <use xlink:href="#m85abe34ba3" x="67.127188" y="282.473127" style="stroke: #000000; stroke-width: 0.6"/>
      </g>
     </g>
    </g>
    <g id="ytick_17">
     <g id="line2d_49">
      <path d="M 67.127188 271.177273 
L 493.2 271.177273 
" clip-path="url(#p3e2f0f84e4)" style="fill: none; stroke-dasharray: 0.8,1.32; stroke-dashoffset: 0; stroke: #808080; stroke-width: 0.8"/>
     </g>
     <g id="line2d_50">
      <g>
       <use xlink:href="#m85abe34ba3" x="67.127188" y="271.177273" style="stroke: #000000; stroke-width: 0.6"/>
      </g>
     </g>
    </g>
    <g id="ytick_18">
     <g id="line2d_51">
      <path d="M 67.127188 265.441481 
L 493.2 265.441481 
" clip-path="url(#p3e2f0f84e4)" style="fill: none; stroke-dasharray: 0.8,1.32; stroke-dashoffset: 0; stroke: #808080; stroke-width: 0.8"/>
     </g>
     <g id="line2d_52">
      <g>
       <use xlink:href="#m85abe34ba3" x="67.127188" y="265.441481" style="stroke: #000000; stroke-width: 0.6"/>
      </g>
     </g>
    </g>
    <g id="ytick_19">
     <g id="line2d_53">
      <path d="M 67.127188 261.371871 
L 493.2 261.371871 
" clip-path="url(#p3e2f0f84e4)" style="fill: none; stroke-dasharray: 0.8,1.32; stroke-dashoffset: 0; stroke: #808080; stroke-width: 0.8"/>
     </g>
     <g id="line2d_54">
      <g>
       <use xlink:href="#m85abe34ba3" x="67.127188" y="261.371871" style="stroke: #000000; stroke-width: 0.6"/>
      </g>
     </g>
    </g>
    <g id="ytick_20">
     <g id="line2d_55">
      <path d="M 67.127188 258.215236 
L 493.2 258.215236 
" clip-path="url(#p3e2f0f84e4)" style="fill: none; stroke-dasharray: 0.8,1.32; stroke-dashoffset: 0; stroke: #808080; stroke-width: 0.8"/>
     </g>
     <g id="line2d_56">
      <g>
       <use xlink:href="#m85abe34ba3" x="67.127188" y="258.215236" style="stroke: #000000; stroke-width: 0.6"/>
      </g>
     </g>
    </g>
    <g id="ytick_21">
     <g id="line2d_57">
      <path d="M 67.127188 255.636078 
L 493.2 255.636078 
" clip-path="url(#p3e2f0f84e4)" style="fill: none; stroke-dasharray: 0.8,1.32; stroke-dashoffset: 0; stroke: #808080; stroke-width: 0.8"/>
     </g>
     <g id="line2d_58">
      <g>
       <use xlink:href="#m85abe34ba3" x="67.127188" y="255.636078" style="stroke: #000000; stroke-width: 0.6"/>
      </g>
     </g>
    </g>
    <g id="ytick_22">
     <g id="line2d_59">
      <path d="M 67.127188 253.455431 
L 493.2 253.455431 
" clip-path="url(#p3e2f0f84e4)" style="fill: none; stroke-dasharray: 0.8,1.32; stroke-dashoffset: 0; stroke: #808080; stroke-width: 0.8"/>
     </g>
     <g id="line2d_60">
      <g>
       <use xlink:href="#m85abe34ba3" x="67.127188" y="253.455431" style="stroke: #000000; stroke-width: 0.6"/>
      </g>
     </g>
    </g>
    <g id="ytick_23">
     <g id="line2d_61">
      <path d="M 67.127188 251.566469 
L 493.2 251.566469 
" clip-path="url(#p3e2f0f84e4)" style="fill: none; stroke-dasharray: 0.8,1.32; stroke-dashoffset: 0; stroke: #808080; stroke-width: 0.8"/>
     </g>
     <g id="line2d_62">
      <g>
       <use xlink:href="#m85abe34ba3" x="67.127188" y="251.566469" style="stroke: #000000; stroke-width: 0.6"/>
      </g>
     </g>
    </g>
    <g id="ytick_24">
     <g id="line2d_63">
      <path d="M 67.127188 249.900286 
L 493.2 249.900286 
" clip-path="url(#p3e2f0f84e4)" style="fill: none; stroke-dasharray: 0.8,1.32; stroke-dashoffset: 0; stroke: #808080; stroke-width: 0.8"/>
     </g>
     <g id="line2d_64">
      <g>
       <use xlink:href="#m85abe34ba3" x="67.127188" y="249.900286" style="stroke: #000000; stroke-width: 0.6"/>
      </g>
     </g>
    </g>
    <g id="ytick_25">
     <g id="line2d_65">
      <path d="M 67.127188 238.604432 
L 493.2 238.604432 
" clip-path="url(#p3e2f0f84e4)" style="fill: none; stroke-dasharray: 0.8,1.32; stroke-dashoffset: 0; stroke: #808080; stroke-width: 0.8"/>
     </g>
     <g id="line2d_66">
      <g>
       <use xlink:href="#m85abe34ba3" x="67.127188" y="238.604432" style="stroke: #000000; stroke-width: 0.6"/>
      </g>
     </g>
    </g>
    <g id="ytick_26">
     <g id="line2d_67">
      <path d="M 67.127188 232.86864 
L 493.2 232.86864 
" clip-path="url(#p3e2f0f84e4)" style="fill: none; stroke-dasharray: 0.8,1.32; stroke-dashoffset: 0; stroke: #808080; stroke-width: 0.8"/>
     </g>
     <g id="line2d_68">
      <g>
       <use xlink:href="#m85abe34ba3" x="67.127188" y="232.86864" style="stroke: #000000; stroke-width: 0.6"/>
      </g>
     </g>
    </g>
    <g id="ytick_27">
     <g id="line2d_69">
      <path d="M 67.127188 228.79903 
L 493.2 228.79903 
" clip-path="url(#p3e2f0f84e4)" style="fill: none; stroke-dasharray: 0.8,1.32; stroke-dashoffset: 0; stroke: #808080; stroke-width: 0.8"/>
     </g>
     <g id="line2d_70">
      <g>
       <use xlink:href="#m85abe34ba3" x="67.127188" y="228.79903" style="stroke: #000000; stroke-width: 0.6"/>
      </g>
     </g>
    </g>
    <g id="ytick_28">
     <g id="line2d_71">
      <path d="M 67.127188 225.642395 
L 493.2 225.642395 
" clip-path="url(#p3e2f0f84e4)" style="fill: none; stroke-dasharray: 0.8,1.32; stroke-dashoffset: 0; stroke: #808080; stroke-width: 0.8"/>
     </g>
     <g id="line2d_72">
      <g>
       <use xlink:href="#m85abe34ba3" x="67.127188" y="225.642395" style="stroke: #000000; stroke-width: 0.6"/>
      </g>
     </g>
    </g>
    <g id="ytick_29">
     <g id="line2d_73">
      <path d="M 67.127188 223.063237 
L 493.2 223.063237 
" clip-path="url(#p3e2f0f84e4)" style="fill: none; stroke-dasharray: 0.8,1.32; stroke-dashoffset: 0; stroke: #808080; stroke-width: 0.8"/>
     </g>
     <g id="line2d_74">
      <g>
       <use xlink:href="#m85abe34ba3" x="67.127188" y="223.063237" style="stroke: #000000; stroke-width: 0.6"/>
      </g>
     </g>
    </g>
    <g id="ytick_30">
     <g id="line2d_75">
      <path d="M 67.127188 220.88259 
L 493.2 220.88259 
" clip-path="url(#p3e2f0f84e4)" style="fill: none; stroke-dasharray: 0.8,1.32; stroke-dashoffset: 0; stroke: #808080; stroke-width: 0.8"/>
     </g>
     <g id="line2d_76">
      <g>
       <use xlink:href="#m85abe34ba3" x="67.127188" y="220.88259" style="stroke: #000000; stroke-width: 0.6"/>
      </g>
     </g>
    </g>
    <g id="ytick_31">
     <g id="line2d_77">
      <path d="M 67.127188 218.993628 
L 493.2 218.993628 
" clip-path="url(#p3e2f0f84e4)" style="fill: none; stroke-dasharray: 0.8,1.32; stroke-dashoffset: 0; stroke: #808080; stroke-width: 0.8"/>
     </g>
     <g id="line2d_78">
      <g>
       <use xlink:href="#m85abe34ba3" x="67.127188" y="218.993628" style="stroke: #000000; stroke-width: 0.6"/>
      </g>
     </g>
    </g>
    <g id="ytick_32">
     <g id="line2d_79">
      <path d="M 67.127188 217.327445 
L 493.2 217.327445 
" clip-path="url(#p3e2f0f84e4)" style="fill: none; stroke-dasharray: 0.8,1.32; stroke-dashoffset: 0; stroke: #808080; stroke-width: 0.8"/>
     </g>
     <g id="line2d_80">
      <g>
       <use xlink:href="#m85abe34ba3" x="67.127188" y="217.327445" style="stroke: #000000; stroke-width: 0.6"/>
      </g>
     </g>
    </g>
    <g id="ytick_33">
     <g id="line2d_81">
      <path d="M 67.127188 206.031591 
L 493.2 206.031591 
" clip-path="url(#p3e2f0f84e4)" style="fill: none; stroke-dasharray: 0.8,1.32; stroke-dashoffset: 0; stroke: #808080; stroke-width: 0.8"/>
     </g>
     <g id="line2d_82">
      <g>
       <use xlink:href="#m85abe34ba3" x="67.127188" y="206.031591" style="stroke: #000000; stroke-width: 0.6"/>
      </g>
     </g>
    </g>
    <g id="ytick_34">
     <g id="line2d_83">
      <path d="M 67.127188 200.295798 
L 493.2 200.295798 
" clip-path="url(#p3e2f0f84e4)" style="fill: none; stroke-dasharray: 0.8,1.32; stroke-dashoffset: 0; stroke: #808080; stroke-width: 0.8"/>
     </g>
     <g id="line2d_84">
      <g>
       <use xlink:href="#m85abe34ba3" x="67.127188" y="200.295798" style="stroke: #000000; stroke-width: 0.6"/>
      </g>
     </g>
    </g>
    <g id="ytick_35">
     <g id="line2d_85">
      <path d="M 67.127188 196.226189 
L 493.2 196.226189 
" clip-path="url(#p3e2f0f84e4)" style="fill: none; stroke-dasharray: 0.8,1.32; stroke-dashoffset: 0; stroke: #808080; stroke-width: 0.8"/>
     </g>
     <g id="line2d_86">
      <g>
       <use xlink:href="#m85abe34ba3" x="67.127188" y="196.226189" style="stroke: #000000; stroke-width: 0.6"/>
      </g>
     </g>
    </g>
    <g id="ytick_36">
     <g id="line2d_87">
      <path d="M 67.127188 193.069554 
L 493.2 193.069554 
" clip-path="url(#p3e2f0f84e4)" style="fill: none; stroke-dasharray: 0.8,1.32; stroke-dashoffset: 0; stroke: #808080; stroke-width: 0.8"/>
     </g>
     <g id="line2d_88">
      <g>
       <use xlink:href="#m85abe34ba3" x="67.127188" y="193.069554" style="stroke: #000000; stroke-width: 0.6"/>
      </g>
     </g>
    </g>
    <g id="ytick_37">
     <g id="line2d_89">
      <path d="M 67.127188 190.490396 
L 493.2 190.490396 
" clip-path="url(#p3e2f0f84e4)" style="fill: none; stroke-dasharray: 0.8,1.32; stroke-dashoffset: 0; stroke: #808080; stroke-width: 0.8"/>
     </g>
     <g id="line2d_90">
      <g>
       <use xlink:href="#m85abe34ba3" x="67.127188" y="190.490396" style="stroke: #000000; stroke-width: 0.6"/>
      </g>
     </g>
    </g>
    <g id="ytick_38">
     <g id="line2d_91">
      <path d="M 67.127188 188.309749 
L 493.2 188.309749 
" clip-path="url(#p3e2f0f84e4)" style="fill: none; stroke-dasharray: 0.8,1.32; stroke-dashoffset: 0; stroke: #808080; stroke-width: 0.8"/>
     </g>
     <g id="line2d_92">
      <g>
       <use xlink:href="#m85abe34ba3" x="67.127188" y="188.309749" style="stroke: #000000; stroke-width: 0.6"/>
      </g>
     </g>
    </g>
    <g id="ytick_39">
     <g id="line2d_93">
      <path d="M 67.127188 186.420787 
L 493.2 186.420787 
" clip-path="url(#p3e2f0f84e4)" style="fill: none; stroke-dasharray: 0.8,1.32; stroke-dashoffset: 0; stroke: #808080; stroke-width: 0.8"/>
     </g>
     <g id="line2d_94">
      <g>
       <use xlink:href="#m85abe34ba3" x="67.127188" y="186.420787" style="stroke: #000000; stroke-width: 0.6"/>
      </g>
     </g>
    </g>
    <g id="ytick_40">
     <g id="line2d_95">
      <path d="M 67.127188 184.754604 
L 493.2 184.754604 
" clip-path="url(#p3e2f0f84e4)" style="fill: none; stroke-dasharray: 0.8,1.32; stroke-dashoffset: 0; stroke: #808080; stroke-width: 0.8"/>
     </g>
     <g id="line2d_96">
      <g>
       <use xlink:href="#m85abe34ba3" x="67.127188" y="184.754604" style="stroke: #000000; stroke-width: 0.6"/>
      </g>
     </g>
    </g>
    <g id="ytick_41">
     <g id="line2d_97">
      <path d="M 67.127188 173.45875 
L 493.2 173.45875 
" clip-path="url(#p3e2f0f84e4)" style="fill: none; stroke-dasharray: 0.8,1.32; stroke-dashoffset: 0; stroke: #808080; stroke-width: 0.8"/>
     </g>
     <g id="line2d_98">
      <g>
       <use xlink:href="#m85abe34ba3" x="67.127188" y="173.45875" style="stroke: #000000; stroke-width: 0.6"/>
      </g>
     </g>
    </g>
    <g id="ytick_42">
     <g id="line2d_99">
      <path d="M 67.127188 167.722957 
L 493.2 167.722957 
" clip-path="url(#p3e2f0f84e4)" style="fill: none; stroke-dasharray: 0.8,1.32; stroke-dashoffset: 0; stroke: #808080; stroke-width: 0.8"/>
     </g>
     <g id="line2d_100">
      <g>
       <use xlink:href="#m85abe34ba3" x="67.127188" y="167.722957" style="stroke: #000000; stroke-width: 0.6"/>
      </g>
     </g>
    </g>
    <g id="ytick_43">
     <g id="line2d_101">
      <path d="M 67.127188 163.653348 
L 493.2 163.653348 
" clip-path="url(#p3e2f0f84e4)" style="fill: none; stroke-dasharray: 0.8,1.32; stroke-dashoffset: 0; stroke: #808080; stroke-width: 0.8"/>
     </g>
     <g id="line2d_102">
      <g>
       <use xlink:href="#m85abe34ba3" x="67.127188" y="163.653348" style="stroke: #000000; stroke-width: 0.6"/>
      </g>
     </g>
    </g>
    <g id="ytick_44">
     <g id="line2d_103">
      <path d="M 67.127188 160.496713 
L 493.2 160.496713 
" clip-path="url(#p3e2f0f84e4)" style="fill: none; stroke-dasharray: 0.8,1.32; stroke-dashoffset: 0; stroke: #808080; stroke-width: 0.8"/>
     </g>
     <g id="line2d_104">
      <g>
       <use xlink:href="#m85abe34ba3" x="67.127188" y="160.496713" style="stroke: #000000; stroke-width: 0.6"/>
      </g>
     </g>
    </g>
    <g id="ytick_45">
     <g id="line2d_105">
      <path d="M 67.127188 157.917555 
L 493.2 157.917555 
" clip-path="url(#p3e2f0f84e4)" style="fill: none; stroke-dasharray: 0.8,1.32; stroke-dashoffset: 0; stroke: #808080; stroke-width: 0.8"/>
     </g>
     <g id="line2d_106">
      <g>
       <use xlink:href="#m85abe34ba3" x="67.127188" y="157.917555" style="stroke: #000000; stroke-width: 0.6"/>
      </g>
     </g>
    </g>
    <g id="ytick_46">
     <g id="line2d_107">
      <path d="M 67.127188 155.736908 
L 493.2 155.736908 
" clip-path="url(#p3e2f0f84e4)" style="fill: none; stroke-dasharray: 0.8,1.32; stroke-dashoffset: 0; stroke: #808080; stroke-width: 0.8"/>
     </g>
     <g id="line2d_108">
      <g>
       <use xlink:href="#m85abe34ba3" x="67.127188" y="155.736908" style="stroke: #000000; stroke-width: 0.6"/>
      </g>
     </g>
    </g>
    <g id="ytick_47">
     <g id="line2d_109">
      <path d="M 67.127188 153.847946 
L 493.2 153.847946 
" clip-path="url(#p3e2f0f84e4)" style="fill: none; stroke-dasharray: 0.8,1.32; stroke-dashoffset: 0; stroke: #808080; stroke-width: 0.8"/>
     </g>
     <g id="line2d_110">
      <g>
       <use xlink:href="#m85abe34ba3" x="67.127188" y="153.847946" style="stroke: #000000; stroke-width: 0.6"/>
      </g>
     </g>
    </g>
    <g id="ytick_48">
     <g id="line2d_111">
      <path d="M 67.127188 152.181763 
L 493.2 152.181763 
" clip-path="url(#p3e2f0f84e4)" style="fill: none; stroke-dasharray: 0.8,1.32; stroke-dashoffset: 0; stroke: #808080; stroke-width: 0.8"/>
     </g>
     <g id="line2d_112">
      <g>
       <use xlink:href="#m85abe34ba3" x="67.127188" y="152.181763" style="stroke: #000000; stroke-width: 0.6"/>
      </g>
     </g>
    </g>
    <g id="ytick_49">
     <g id="line2d_113">
      <path d="M 67.127188 140.885909 
L 493.2 140.885909 
" clip-path="url(#p3e2f0f84e4)" style="fill: none; stroke-dasharray: 0.8,1.32; stroke-dashoffset: 0; stroke: #808080; stroke-width: 0.8"/>
     </g>
     <g id="line2d_114">
      <g>
       <use xlink:href="#m85abe34ba3" x="67.127188" y="140.885909" style="stroke: #000000; stroke-width: 0.6"/>
      </g>
     </g>
    </g>
    <g id="ytick_50">
     <g id="line2d_115">
      <path d="M 67.127188 135.150116 
L 493.2 135.150116 
" clip-path="url(#p3e2f0f84e4)" style="fill: none; stroke-dasharray: 0.8,1.32; stroke-dashoffset: 0; stroke: #808080; stroke-width: 0.8"/>
     </g>
     <g id="line2d_116">
      <g>
       <use xlink:href="#m85abe34ba3" x="67.127188" y="135.150116" style="stroke: #000000; stroke-width: 0.6"/>
      </g>
     </g>
    </g>
    <g id="ytick_51">
     <g id="line2d_117">
      <path d="M 67.127188 131.080507 
L 493.2 131.080507 
" clip-path="url(#p3e2f0f84e4)" style="fill: none; stroke-dasharray: 0.8,1.32; stroke-dashoffset: 0; stroke: #808080; stroke-width: 0.8"/>
     </g>
     <g id="line2d_118">
      <g>
       <use xlink:href="#m85abe34ba3" x="67.127188" y="131.080507" style="stroke: #000000; stroke-width: 0.6"/>
      </g>
     </g>
    </g>
    <g id="ytick_52">
     <g id="line2d_119">
      <path d="M 67.127188 127.923872 
L 493.2 127.923872 
" clip-path="url(#p3e2f0f84e4)" style="fill: none; stroke-dasharray: 0.8,1.32; stroke-dashoffset: 0; stroke: #808080; stroke-width: 0.8"/>
     </g>
     <g id="line2d_120">
      <g>
       <use xlink:href="#m85abe34ba3" x="67.127188" y="127.923872" style="stroke: #000000; stroke-width: 0.6"/>
      </g>
     </g>
    </g>
    <g id="ytick_53">
     <g id="line2d_121">
      <path d="M 67.127188 125.344714 
L 493.2 125.344714 
" clip-path="url(#p3e2f0f84e4)" style="fill: none; stroke-dasharray: 0.8,1.32; stroke-dashoffset: 0; stroke: #808080; stroke-width: 0.8"/>
     </g>
     <g id="line2d_122">
      <g>
       <use xlink:href="#m85abe34ba3" x="67.127188" y="125.344714" style="stroke: #000000; stroke-width: 0.6"/>
      </g>
     </g>
    </g>
    <g id="ytick_54">
     <g id="line2d_123">
      <path d="M 67.127188 123.164067 
L 493.2 123.164067 
" clip-path="url(#p3e2f0f84e4)" style="fill: none; stroke-dasharray: 0.8,1.32; stroke-dashoffset: 0; stroke: #808080; stroke-width: 0.8"/>
     </g>
     <g id="line2d_124">
      <g>
       <use xlink:href="#m85abe34ba3" x="67.127188" y="123.164067" style="stroke: #000000; stroke-width: 0.6"/>
      </g>
     </g>
    </g>
    <g id="ytick_55">
     <g id="line2d_125">
      <path d="M 67.127188 121.275105 
L 493.2 121.275105 
" clip-path="url(#p3e2f0f84e4)" style="fill: none; stroke-dasharray: 0.8,1.32; stroke-dashoffset: 0; stroke: #808080; stroke-width: 0.8"/>
     </g>
     <g id="line2d_126">
      <g>
       <use xlink:href="#m85abe34ba3" x="67.127188" y="121.275105" style="stroke: #000000; stroke-width: 0.6"/>
      </g>
     </g>
    </g>
    <g id="ytick_56">
     <g id="line2d_127">
      <path d="M 67.127188 119.608922 
L 493.2 119.608922 
" clip-path="url(#p3e2f0f84e4)" style="fill: none; stroke-dasharray: 0.8,1.32; stroke-dashoffset: 0; stroke: #808080; stroke-width: 0.8"/>
     </g>
     <g id="line2d_128">
      <g>
       <use xlink:href="#m85abe34ba3" x="67.127188" y="119.608922" style="stroke: #000000; stroke-width: 0.6"/>
      </g>
     </g>
    </g>
    <g id="ytick_57">
     <g id="line2d_129">
      <path d="M 67.127188 108.313068 
L 493.2 108.313068 
" clip-path="url(#p3e2f0f84e4)" style="fill: none; stroke-dasharray: 0.8,1.32; stroke-dashoffset: 0; stroke: #808080; stroke-width: 0.8"/>
     </g>
     <g id="line2d_130">
      <g>
       <use xlink:href="#m85abe34ba3" x="67.127188" y="108.313068" style="stroke: #000000; stroke-width: 0.6"/>
      </g>
     </g>
    </g>
    <g id="ytick_58">
     <g id="line2d_131">
      <path d="M 67.127188 102.577275 
L 493.2 102.577275 
" clip-path="url(#p3e2f0f84e4)" style="fill: none; stroke-dasharray: 0.8,1.32; stroke-dashoffset: 0; stroke: #808080; stroke-width: 0.8"/>
     </g>
     <g id="line2d_132">
      <g>
       <use xlink:href="#m85abe34ba3" x="67.127188" y="102.577275" style="stroke: #000000; stroke-width: 0.6"/>
      </g>
     </g>
    </g>
    <g id="ytick_59">
     <g id="line2d_133">
      <path d="M 67.127188 98.507666 
L 493.2 98.507666 
" clip-path="url(#p3e2f0f84e4)" style="fill: none; stroke-dasharray: 0.8,1.32; stroke-dashoffset: 0; stroke: #808080; stroke-width: 0.8"/>
     </g>
     <g id="line2d_134">
      <g>
       <use xlink:href="#m85abe34ba3" x="67.127188" y="98.507666" style="stroke: #000000; stroke-width: 0.6"/>
      </g>
     </g>
    </g>
    <g id="ytick_60">
     <g id="line2d_135">
      <path d="M 67.127188 95.351031 
L 493.2 95.351031 
" clip-path="url(#p3e2f0f84e4)" style="fill: none; stroke-dasharray: 0.8,1.32; stroke-dashoffset: 0; stroke: #808080; stroke-width: 0.8"/>
     </g>
     <g id="line2d_136">
      <g>
       <use xlink:href="#m85abe34ba3" x="67.127188" y="95.351031" style="stroke: #000000; stroke-width: 0.6"/>
      </g>
     </g>
    </g>
    <g id="ytick_61">
     <g id="line2d_137">
      <path d="M 67.127188 92.771873 
L 493.2 92.771873 
" clip-path="url(#p3e2f0f84e4)" style="fill: none; stroke-dasharray: 0.8,1.32; stroke-dashoffset: 0; stroke: #808080; stroke-width: 0.8"/>
     </g>
     <g id="line2d_138">
      <g>
       <use xlink:href="#m85abe34ba3" x="67.127188" y="92.771873" style="stroke: #000000; stroke-width: 0.6"/>
      </g>
     </g>
    </g>
    <g id="ytick_62">
     <g id="line2d_139">
      <path d="M 67.127188 90.591226 
L 493.2 90.591226 
" clip-path="url(#p3e2f0f84e4)" style="fill: none; stroke-dasharray: 0.8,1.32; stroke-dashoffset: 0; stroke: #808080; stroke-width: 0.8"/>
     </g>
     <g id="line2d_140">
      <g>
       <use xlink:href="#m85abe34ba3" x="67.127188" y="90.591226" style="stroke: #000000; stroke-width: 0.6"/>
      </g>
     </g>
    </g>
    <g id="ytick_63">
     <g id="line2d_141">
      <path d="M 67.127188 88.702264 
L 493.2 88.702264 
" clip-path="url(#p3e2f0f84e4)" style="fill: none; stroke-dasharray: 0.8,1.32; stroke-dashoffset: 0; stroke: #808080; stroke-width: 0.8"/>
     </g>
     <g id="line2d_142">
      <g>
       <use xlink:href="#m85abe34ba3" x="67.127188" y="88.702264" style="stroke: #000000; stroke-width: 0.6"/>
      </g>
     </g>
    </g>
    <g id="ytick_64">
     <g id="line2d_143">
      <path d="M 67.127188 87.036081 
L 493.2 87.036081 
" clip-path="url(#p3e2f0f84e4)" style="fill: none; stroke-dasharray: 0.8,1.32; stroke-dashoffset: 0; stroke: #808080; stroke-width: 0.8"/>
     </g>
     <g id="line2d_144">
      <g>
       <use xlink:href="#m85abe34ba3" x="67.127188" y="87.036081" style="stroke: #000000; stroke-width: 0.6"/>
      </g>
     </g>
    </g>
    <g id="ytick_65">
     <g id="line2d_145">
      <path d="M 67.127188 75.740227 
L 493.2 75.740227 
" clip-path="url(#p3e2f0f84e4)" style="fill: none; stroke-dasharray: 0.8,1.32; stroke-dashoffset: 0; stroke: #808080; stroke-width: 0.8"/>
     </g>
     <g id="line2d_146">
      <g>
       <use xlink:href="#m85abe34ba3" x="67.127188" y="75.740227" style="stroke: #000000; stroke-width: 0.6"/>
      </g>
     </g>
    </g>
    <g id="ytick_66">
     <g id="line2d_147">
      <path d="M 67.127188 70.004434 
L 493.2 70.004434 
" clip-path="url(#p3e2f0f84e4)" style="fill: none; stroke-dasharray: 0.8,1.32; stroke-dashoffset: 0; stroke: #808080; stroke-width: 0.8"/>
     </g>
     <g id="line2d_148">
      <g>
       <use xlink:href="#m85abe34ba3" x="67.127188" y="70.004434" style="stroke: #000000; stroke-width: 0.6"/>
      </g>
     </g>
    </g>
    <g id="ytick_67">
     <g id="line2d_149">
      <path d="M 67.127188 65.934825 
L 493.2 65.934825 
" clip-path="url(#p3e2f0f84e4)" style="fill: none; stroke-dasharray: 0.8,1.32; stroke-dashoffset: 0; stroke: #808080; stroke-width: 0.8"/>
     </g>
     <g id="line2d_150">
      <g>
       <use xlink:href="#m85abe34ba3" x="67.127188" y="65.934825" style="stroke: #000000; stroke-width: 0.6"/>
      </g>
     </g>
    </g>
    <g id="ytick_68">
     <g id="line2d_151">
      <path d="M 67.127188 62.77819 
L 493.2 62.77819 
" clip-path="url(#p3e2f0f84e4)" style="fill: none; stroke-dasharray: 0.8,1.32; stroke-dashoffset: 0; stroke: #808080; stroke-width: 0.8"/>
     </g>
     <g id="line2d_152">
      <g>
       <use xlink:href="#m85abe34ba3" x="67.127188" y="62.77819" style="stroke: #000000; stroke-width: 0.6"/>
      </g>
     </g>
    </g>
    <g id="ytick_69">
     <g id="line2d_153">
      <path d="M 67.127188 60.199032 
L 493.2 60.199032 
" clip-path="url(#p3e2f0f84e4)" style="fill: none; stroke-dasharray: 0.8,1.32; stroke-dashoffset: 0; stroke: #808080; stroke-width: 0.8"/>
     </g>
     <g id="line2d_154">
      <g>
       <use xlink:href="#m85abe34ba3" x="67.127188" y="60.199032" style="stroke: #000000; stroke-width: 0.6"/>
      </g>
     </g>
    </g>
    <g id="ytick_70">
     <g id="line2d_155">
      <path d="M 67.127188 58.018385 
L 493.2 58.018385 
" clip-path="url(#p3e2f0f84e4)" style="fill: none; stroke-dasharray: 0.8,1.32; stroke-dashoffset: 0; stroke: #808080; stroke-width: 0.8"/>
     </g>
     <g id="line2d_156">
      <g>
       <use xlink:href="#m85abe34ba3" x="67.127188" y="58.018385" style="stroke: #000000; stroke-width: 0.6"/>
      </g>
     </g>
    </g>
    <g id="ytick_71">
     <g id="line2d_157">
      <path d="M 67.127188 56.129423 
L 493.2 56.129423 
" clip-path="url(#p3e2f0f84e4)" style="fill: none; stroke-dasharray: 0.8,1.32; stroke-dashoffset: 0; stroke: #808080; stroke-width: 0.8"/>
     </g>
     <g id="line2d_158">
      <g>
       <use xlink:href="#m85abe34ba3" x="67.127188" y="56.129423" style="stroke: #000000; stroke-width: 0.6"/>
      </g>
     </g>
    </g>
    <g id="ytick_72">
     <g id="line2d_159">
      <path d="M 67.127188 54.46324 
L 493.2 54.46324 
" clip-path="url(#p3e2f0f84e4)" style="fill: none; stroke-dasharray: 0.8,1.32; stroke-dashoffset: 0; stroke: #808080; stroke-width: 0.8"/>
     </g>
     <g id="line2d_160">
      <g>
       <use xlink:href="#m85abe34ba3" x="67.127188" y="54.46324" style="stroke: #000000; stroke-width: 0.6"/>
      </g>
     </g>
    </g>
    <g id="ytick_73">
     <g id="line2d_161">
      <path d="M 67.127188 43.167386 
L 493.2 43.167386 
" clip-path="url(#p3e2f0f84e4)" style="fill: none; stroke-dasharray: 0.8,1.32; stroke-dashoffset: 0; stroke: #808080; stroke-width: 0.8"/>
     </g>
     <g id="line2d_162">
      <g>
       <use xlink:href="#m85abe34ba3" x="67.127188" y="43.167386" style="stroke: #000000; stroke-width: 0.6"/>
      </g>
     </g>
    </g>
    <g id="ytick_74">
     <g id="line2d_163">
      <path d="M 67.127188 37.431593 
L 493.2 37.431593 
" clip-path="url(#p3e2f0f84e4)" style="fill: none; stroke-dasharray: 0.8,1.32; stroke-dashoffset: 0; stroke: #808080; stroke-width: 0.8"/>
     </g>
     <g id="line2d_164">
      <g>
       <use xlink:href="#m85abe34ba3" x="67.127188" y="37.431593" style="stroke: #000000; stroke-width: 0.6"/>
      </g>
     </g>
    </g>
    <g id="ytick_75">
     <g id="line2d_165">
      <path d="M 67.127188 33.361984 
L 493.2 33.361984 
" clip-path="url(#p3e2f0f84e4)" style="fill: none; stroke-dasharray: 0.8,1.32; stroke-dashoffset: 0; stroke: #808080; stroke-width: 0.8"/>
     </g>
     <g id="line2d_166">
      <g>
       <use xlink:href="#m85abe34ba3" x="67.127188" y="33.361984" style="stroke: #000000; stroke-width: 0.6"/>
      </g>
     </g>
    </g>
    <g id="ytick_76">
     <g id="line2d_167">
      <path d="M 67.127188 30.205349 
L 493.2 30.205349 
" clip-path="url(#p3e2f0f84e4)" style="fill: none; stroke-dasharray: 0.8,1.32; stroke-dashoffset: 0; stroke: #808080; stroke-width: 0.8"/>
     </g>
     <g id="line2d_168">
      <g>
       <use xlink:href="#m85abe34ba3" x="67.127188" y="30.205349" style="stroke: #000000; stroke-width: 0.6"/>
      </g>
     </g>
    </g>
    <g id="text_18">
     <!-- $I_{DS X1}\,$ [uA] -->
     <g transform="translate(25.431563 197.81) rotate(-90) scale(0.12 -0.12)">
      <defs>
       <path id="DejaVuSans-Oblique-49" d="M 1081 4666 
L 1716 4666 
L 806 0 
L 172 0 
L 1081 4666 
z
" transform="scale(0.015625)"/>
       <path id="DejaVuSans-Oblique-44" d="M 1081 4666 
L 2438 4666 
Q 3519 4666 4070 4208 
Q 4622 3750 4622 2847 
Q 4622 2250 4412 1698 
Q 4203 1147 3834 769 
Q 3463 381 2891 190 
Q 2319 0 1538 0 
L 172 0 
L 1081 4666 
z
M 1613 4147 
L 909 519 
L 1734 519 
Q 2794 519 3375 1128 
Q 3956 1738 3956 2847 
Q 3956 3519 3581 3833 
Q 3206 4147 2406 4147 
L 1613 4147 
z
" transform="scale(0.015625)"/>
       <path id="DejaVuSans-Oblique-53" d="M 3859 4513 
L 3738 3897 
Q 3422 4066 3111 4152 
Q 2800 4238 2509 4238 
Q 1944 4238 1609 3991 
Q 1275 3744 1275 3334 
Q 1275 3109 1398 2989 
Q 1522 2869 2034 2731 
L 2413 2638 
Q 3053 2472 3303 2217 
Q 3553 1963 3553 1503 
Q 3553 797 2998 353 
Q 2444 -91 1538 -91 
Q 1166 -91 791 -17 
Q 416 56 38 206 
L 166 856 
Q 513 641 861 531 
Q 1209 422 1556 422 
Q 2147 422 2503 684 
Q 2859 947 2859 1369 
Q 2859 1650 2717 1795 
Q 2575 1941 2106 2059 
L 1728 2156 
Q 1081 2325 845 2545 
Q 609 2766 609 3163 
Q 609 3859 1145 4304 
Q 1681 4750 2541 4750 
Q 2875 4750 3203 4690 
Q 3531 4631 3859 4513 
z
" transform="scale(0.015625)"/>
       <path id="DejaVuSans-Oblique-58" d="M 878 4666 
L 1516 4666 
L 2316 2981 
L 3763 4666 
L 4500 4666 
L 2578 2438 
L 3738 0 
L 3103 0 
L 2163 1966 
L 459 0 
L -275 0 
L 1906 2509 
L 878 4666 
z
" transform="scale(0.015625)"/>
       <path id="DejaVuSans-75" d="M 544 1381 
L 544 3500 
L 1119 3500 
L 1119 1403 
Q 1119 906 1312 657 
Q 1506 409 1894 409 
Q 2359 409 2629 706 
Q 2900 1003 2900 1516 
L 2900 3500 
L 3475 3500 
L 3475 0 
L 2900 0 
L 2900 538 
Q 2691 219 2414 64 
Q 2138 -91 1772 -91 
Q 1169 -91 856 284 
Q 544 659 544 1381 
z
M 1991 3584 
L 1991 3584 
z
" transform="scale(0.015625)"/>
       <path id="DejaVuSans-41" d="M 2188 4044 
L 1331 1722 
L 3047 1722 
L 2188 4044 
z
M 1831 4666 
L 2547 4666 
L 4325 0 
L 3669 0 
L 3244 1197 
L 1141 1197 
L 716 0 
L 50 0 
L 1831 4666 
z
" transform="scale(0.015625)"/>
      </defs>
      <use xlink:href="#DejaVuSans-Oblique-49" transform="translate(0 0.015625)"/>
      <use xlink:href="#DejaVuSans-Oblique-44" transform="translate(29.492188 -16.390625) scale(0.7)"/>
      <use xlink:href="#DejaVuSans-Oblique-53" transform="translate(83.393555 -16.390625) scale(0.7)"/>
      <use xlink:href="#DejaVuSans-Oblique-58" transform="translate(127.827148 -16.390625) scale(0.7)"/>
      <use xlink:href="#DejaVuSans-31" transform="translate(175.78125 -16.390625) scale(0.7)"/>
      <use xlink:href="#DejaVuSans-20" transform="translate(239.287434 0.015625)"/>
      <use xlink:href="#DejaVuSans-5b" transform="translate(271.074543 0.015625)"/>
      <use xlink:href="#DejaVuSans-75" transform="translate(310.088215 0.015625)"/>
      <use xlink:href="#DejaVuSans-41" transform="translate(373.467122 0.015625)"/>
      <use xlink:href="#DejaVuSans-5d" transform="translate(441.875325 0.015625)"/>
     </g>
    </g>
   </g>
   <g id="line2d_169">
    <path d="M 88.646016 287.015113 
L 96.506976 273.247626 
L 104.367936 259.491656 
L 112.228896 245.754368 
L 120.089856 232.047318 
L 127.950816 218.389043 
L 135.811776 204.808994 
L 143.672736 191.353283 
L 151.533696 178.092416 
L 159.394656 165.130259 
L 167.255616 152.611245 
L 175.116576 140.719357 
L 182.977536 129.660178 
L 190.838496 119.622206 
L 198.699456 110.728947 
L 206.560416 103.007414 
L 214.421376 96.391548 
L 222.282336 90.754046 
L 230.143296 85.944495 
L 238.004255 81.817203 
L 245.865215 78.245127 
L 253.726175 75.12369 
L 261.587135 72.369359 
L 269.448095 69.916286 
L 277.309055 67.712727 
L 285.170015 65.717896 
L 293.030975 63.899436 
L 300.891935 62.231455 
L 308.752895 60.693048 
L 316.613855 59.267189 
L 324.474815 57.939915 
L 332.335775 56.699757 
L 340.196735 55.537414 
L 348.057695 54.445679 
L 355.918655 53.419687 
L 363.779615 52.457398 
L 371.640575 51.559957 
L 379.501535 50.731128 
L 387.362495 49.975282 
L 395.223454 49.294628 
L 403.084414 48.687424 
L 410.945374 48.148163 
L 418.806334 47.669094 
L 426.667294 47.241884 
L 434.528254 46.858734 
L 442.389214 46.512871 
L 450.250174 46.198648 
L 458.111134 45.911435 
L 465.972094 45.647459 
L 473.833054 45.403633 
" clip-path="url(#p3e2f0f84e4)" style="fill: none; stroke: #ff0000; stroke-width: 2; stroke-linecap: square"/>
   </g>
   <g id="line2d_170">
    <path d="M 88.646016 286.814454 
L 96.506976 273.046968 
L 104.367936 259.290997 
L 112.228896 245.553709 
L 120.089856 231.846659 
L 127.950816 218.188384 
L 135.811776 204.608335 
L 143.672736 191.152624 
L 151.533696 177.891757 
L 159.394656 164.9296 
L 167.255616 152.410586 
L 175.116576 140.518698 
L 182.977536 129.459519 
L 190.838496 119.421547 
L 198.699456 110.528288 
L 206.560416 102.806755 
L 214.421376 96.190889 
L 222.282336 90.553388 
L 230.143296 85.743837 
L 238.004255 81.616544 
L 245.865215 78.044468 
L 253.726175 74.923031 
L 261.587135 72.1687 
L 269.448095 69.715626 
L 277.309055 67.512065 
L 285.170015 65.517231 
L 293.030975 63.698761 
L 300.891935 62.03076 
L 308.752895 60.492304 
L 316.613855 59.066326 
L 324.474815 57.738771 
L 332.335775 56.49795 
L 340.196735 55.334063 
L 348.057695 54.238822 
L 355.918655 53.205163 
L 363.779615 52.227025 
L 371.640575 51.299171 
L 379.501535 50.417053 
L 387.362495 49.5767 
L 395.223454 48.774646 
L 403.084414 48.007875 
L 410.945374 47.273829 
L 418.806334 46.570481 
L 426.667294 45.896553 
L 434.528254 45.251893 
L 442.389214 44.637935 
L 450.250174 44.057891 
L 458.111134 43.516136 
L 465.972094 43.016666 
L 473.833054 42.561428 
" clip-path="url(#p3e2f0f84e4)" style="fill: none; stroke: #0000ff; stroke-width: 2; stroke-linecap: square"/>
   </g>
   <g id="line2d_171">
    <path d="M 88.646016 286.616602 
L 96.506976 272.849115 
L 104.367936 259.093145 
L 112.228896 245.355857 
L 120.089856 231.648807 
L 127.950816 217.990532 
L 135.811776 204.410483 
L 143.672736 190.954772 
L 151.533696 177.693905 
L 159.394656 164.731748 
L 167.255616 152.212734 
L 175.116576 140.320846 
L 182.977536 129.261667 
L 190.838496 119.223695 
L 198.699456 110.330436 
L 206.560416 102.608903 
L 214.421376 95.993036 
L 222.282336 90.355535 
L 230.143296 85.545984 
L 238.004255 81.418692 
L 245.865215 77.846615 
L 253.726175 74.725179 
L 261.587135 71.970847 
L 269.448095 69.517773 
L 277.309055 67.314213 
L 285.170015 65.319378 
L 293.030975 63.500909 
L 300.891935 61.832907 
L 308.752895 60.294451 
L 316.613855 58.868474 
L 324.474815 57.540918 
L 332.335775 56.300098 
L 340.196735 55.136211 
L 348.057695 54.040969 
L 355.918655 53.00731 
L 363.779615 52.029169 
L 371.640575 51.101309 
L 379.501535 50.219176 
L 387.362495 49.378787 
L 395.223454 48.576643 
L 403.084414 47.809651 
L 410.945374 47.075071 
L 418.806334 46.370456 
L 426.667294 45.693621 
L 434.528254 45.042603 
L 442.389214 44.415635 
L 450.250174 43.811119 
L 458.111134 43.22761 
L 465.972094 42.663805 
L 473.833054 42.118532 
" clip-path="url(#p3e2f0f84e4)" style="fill: none; stroke: #008000; stroke-width: 2; stroke-linecap: square"/>
   </g>
   <g id="line2d_172">
    <path d="M 88.646016 286.421479 
L 96.506976 272.653992 
L 104.367936 258.898022 
L 112.228896 245.160733 
L 120.089856 231.453684 
L 127.950816 217.795409 
L 135.811776 204.21536 
L 143.672736 190.759649 
L 151.533696 177.498782 
L 159.394656 164.536625 
L 167.255616 152.017611 
L 175.116576 140.125722 
L 182.977536 129.066544 
L 190.838496 119.028571 
L 198.699456 110.135313 
L 206.560416 102.41378 
L 214.421376 95.797913 
L 222.282336 90.160412 
L 230.143296 85.350861 
L 238.004255 81.223569 
L 245.865215 77.651492 
L 253.726175 74.530056 
L 261.587135 71.775724 
L 269.448095 69.32265 
L 277.309055 67.119089 
L 285.170015 65.124255 
L 293.030975 63.305786 
L 300.891935 61.637784 
L 308.752895 60.099328 
L 316.613855 58.673351 
L 324.474815 57.345795 
L 332.335775 56.104974 
L 340.196735 54.941088 
L 348.057695 53.845846 
L 355.918655 52.812186 
L 363.779615 51.834046 
L 371.640575 50.906186 
L 379.501535 50.024053 
L 387.362495 49.183664 
L 395.223454 48.381519 
L 403.084414 47.614528 
L 410.945374 46.879947 
L 418.806334 46.175333 
L 426.667294 45.498497 
L 434.528254 44.847479 
L 442.389214 44.220508 
L 450.250174 43.615986 
L 458.111134 43.032464 
L 465.972094 42.468623 
L 473.833054 41.923262 
" clip-path="url(#p3e2f0f84e4)" style="fill: none; stroke: #00bfbf; stroke-width: 2; stroke-linecap: square"/>
   </g>
   <g id="line2d_173">
    <path d="M 88.646016 286.229011 
L 96.506976 272.461524 
L 104.367936 258.705553 
L 112.228896 244.968265 
L 120.089856 231.261216 
L 127.950816 217.60294 
L 135.811776 204.022891 
L 143.672736 190.567181 
L 151.533696 177.306313 
L 159.394656 164.344156 
L 167.255616 151.825142 
L 175.116576 139.933254 
L 182.977536 128.874075 
L 190.838496 118.836103 
L 198.699456 109.942845 
L 206.560416 102.221312 
L 214.421376 95.605445 
L 222.282336 89.967944 
L 230.143296 85.158393 
L 238.004255 81.0311 
L 245.865215 77.459024 
L 253.726175 74.337587 
L 261.587135 71.583256 
L 269.448095 69.130182 
L 277.309055 66.926621 
L 285.170015 64.931787 
L 293.030975 63.113318 
L 300.891935 61.445316 
L 308.752895 59.90686 
L 316.613855 58.480883 
L 324.474815 57.153327 
L 332.335775 55.912506 
L 340.196735 54.748619 
L 348.057695 53.653378 
L 355.918655 52.619718 
L 363.779615 51.641578 
L 371.640575 50.713718 
L 379.501535 49.831584 
L 387.362495 48.991195 
L 395.223454 48.189051 
L 403.084414 47.42206 
L 410.945374 46.687479 
L 418.806334 45.982864 
L 426.667294 45.306029 
L 434.528254 44.655011 
L 442.389214 44.02804 
L 450.250174 43.423518 
L 458.111134 42.839996 
L 465.972094 42.276155 
L 473.833054 41.730794 
" clip-path="url(#p3e2f0f84e4)" style="fill: none; stroke: #bf00bf; stroke-width: 2; stroke-linecap: square"/>
   </g>
   <g id="line2d_174">
    <path d="M 88.646016 286.039126 
L 96.506976 272.271639 
L 104.367936 258.515669 
L 112.228896 244.77838 
L 120.089856 231.071331 
L 127.950816 217.413055 
L 135.811776 203.833007 
L 143.672736 190.377296 
L 151.533696 177.116428 
L 159.394656 164.154271 
L 167.255616 151.635257 
L 175.116576 139.743369 
L 182.977536 128.68419 
L 190.838496 118.646218 
L 198.699456 109.75296 
L 206.560416 102.031427 
L 214.421376 95.41556 
L 222.282336 89.778059 
L 230.143296 84.968508 
L 238.004255 80.841216 
L 245.865215 77.269139 
L 253.726175 74.147703 
L 261.587135 71.393371 
L 269.448095 68.940297 
L 277.309055 66.736736 
L 285.170015 64.741902 
L 293.030975 62.923433 
L 300.891935 61.255431 
L 308.752895 59.716975 
L 316.613855 58.290998 
L 324.474815 56.963442 
L 332.335775 55.722621 
L 340.196735 54.558734 
L 348.057695 53.463493 
L 355.918655 52.429833 
L 363.779615 51.451693 
L 371.640575 50.523833 
L 379.501535 49.6417 
L 387.362495 48.801311 
L 395.223454 47.999166 
L 403.084414 47.232175 
L 410.945374 46.497594 
L 418.806334 45.792979 
L 426.667294 45.116144 
L 434.528254 44.465126 
L 442.389214 43.838155 
L 450.250174 43.233633 
L 458.111134 42.650111 
L 465.972094 42.08627 
L 473.833054 41.540909 
" clip-path="url(#p3e2f0f84e4)" style="fill: none; stroke: #bfbf00; stroke-width: 2; stroke-linecap: square"/>
   </g>
   <g id="line2d_175">
    <path d="M 86.494134 296.359091 
L 90.797899 289.815365 
L 95.101665 282.844035 
L 101.557314 271.90868 
L 112.316728 253.116079 
L 140.291206 204.000052 
L 151.05062 185.560233 
L 159.658152 171.18801 
L 168.265683 157.253687 
L 176.873215 143.81422 
L 183.328864 134.109326 
L 189.784512 124.842021 
L 194.088278 118.998633 
L 198.392044 113.49638 
L 202.69581 108.387894 
L 206.999575 103.70581 
L 211.303341 99.459478 
L 215.607107 95.637317 
L 219.910873 92.212291 
L 224.214639 89.148159 
L 228.518404 86.404847 
L 232.82217 83.942383 
L 237.125936 81.723373 
L 241.429702 79.714212 
L 245.733467 77.885581 
L 252.189116 75.427264 
L 258.644765 73.250519 
L 265.100414 71.302295 
L 273.707945 68.991284 
L 282.315477 66.943878 
L 290.923008 65.108953 
L 301.682423 63.058062 
L 312.441837 61.22815 
L 325.353134 59.270388 
L 338.264432 57.52699 
L 353.327612 55.71652 
L 370.542675 53.89113 
L 387.757738 52.281461 
L 407.124684 50.686196 
L 428.643513 49.140645 
L 452.314225 47.678333 
L 473.833054 46.541493 
L 473.833054 46.541493 
" clip-path="url(#p3e2f0f84e4)" style="fill: none; stroke: #000000; stroke-width: 2; stroke-linecap: square"/>
   </g>
   <g id="line2d_176">
    <path d="M 86.494134 291.441679 
L 90.797899 285.365813 
L 95.101665 278.712725 
L 99.405431 271.671605 
L 105.86108 260.682703 
L 118.772377 238.087779 
L 140.291206 200.38606 
L 151.05062 181.958726 
L 159.658152 167.611857 
L 168.265683 153.73783 
L 174.721332 143.697162 
L 181.176981 134.018417 
L 187.632629 124.793472 
L 191.936395 118.971492 
L 196.240161 113.476141 
L 200.543927 108.35706 
L 204.847693 103.648158 
L 209.151458 99.362899 
L 213.455224 95.494869 
L 217.75899 92.021867 
L 222.062756 88.911365 
L 226.366521 86.125693 
L 230.670287 83.626116 
L 234.974053 81.375578 
L 239.277819 79.340282 
L 243.581585 77.490391 
L 250.037233 75.007824 
L 256.492882 72.814005 
L 262.948531 70.853876 
L 271.556062 68.532326 
L 280.163594 66.478042 
L 288.771125 64.638098 
L 299.53054 62.581855 
L 310.289954 60.746369 
L 323.201252 58.780529 
L 336.112549 57.026744 
L 351.175729 55.200428 
L 368.390792 53.350936 
L 387.757738 51.516857 
L 409.276567 49.726727 
L 432.947279 48.000434 
L 458.769874 46.35088 
L 473.833054 45.482381 
L 473.833054 45.482381 
" clip-path="url(#p3e2f0f84e4)" style="fill: none; stroke: #ff0000; stroke-width: 2; stroke-linecap: square"/>
   </g>
   <g id="line2d_177">
    <path d="M 86.494134 285.730322 
L 90.797899 279.648114 
L 95.101665 272.990614 
L 99.405431 265.946623 
L 105.86108 254.955368 
L 118.772377 232.359183 
L 140.291206 194.66179 
L 151.05062 176.246657 
L 159.658152 161.927687 
L 166.113801 151.517836 
L 172.569449 141.451381 
L 179.025098 131.788548 
L 185.480747 122.621537 
L 189.784512 116.855041 
L 194.088278 111.423097 
L 198.392044 106.371722 
L 202.69581 101.732574 
L 206.999575 97.51778 
L 211.303341 93.720078 
L 215.607107 90.316716 
L 219.910873 87.274792 
L 224.214639 84.556347 
L 228.518404 82.122439 
L 232.82217 79.935778 
L 237.125936 77.962399 
L 241.429702 76.172276 
L 247.88535 73.775081 
L 254.340999 71.661229 
L 260.796648 69.775562 
L 269.404179 67.54486 
L 278.011711 65.572241 
L 286.619242 63.805487 
L 297.378657 61.830046 
L 308.138071 60.064955 
L 321.049369 58.171866 
L 336.112549 56.215068 
L 351.175729 54.478505 
L 368.390792 52.71328 
L 387.757738 50.955495 
L 409.276567 49.232012 
L 432.947279 47.561564 
L 458.769874 45.956439 
L 473.833054 45.107334 
L 473.833054 45.107334 
" clip-path="url(#p3e2f0f84e4)" style="fill: none; stroke: #0000ff; stroke-width: 2; stroke-linecap: square"/>
   </g>
   <g id="patch_3">
    <path d="M 67.127188 309.1 
L 67.127188 28.8 
" style="fill: none; stroke: #000000; stroke-width: 0.8; stroke-linejoin: miter; stroke-linecap: square"/>
   </g>
   <g id="patch_4">
    <path d="M 493.2 309.1 
L 493.2 28.8 
" style="fill: none; stroke: #000000; stroke-width: 0.8; stroke-linejoin: miter; stroke-linecap: square"/>
   </g>
   <g id="patch_5">
    <path d="M 67.127188 309.1 
L 493.2 309.1 
" style="fill: none; stroke: #000000; stroke-width: 0.8; stroke-linejoin: miter; stroke-linecap: square"/>
   </g>
   <g id="patch_6">
    <path d="M 67.127188 28.8 
L 493.2 28.8 
" style="fill: none; stroke: #000000; stroke-width: 0.8; stroke-linejoin: miter; stroke-linecap: square"/>
   </g>
   <g id="text_19">
    <!-- $I_{ds}(V_{gs})$ -->
    <g transform="translate(259.523594 22.8) scale(0.12 -0.12)">
     <defs>
      <path id="DejaVuSans-Oblique-64" d="M 2675 525 
Q 2444 222 2128 65 
Q 1813 -91 1428 -91 
Q 903 -91 598 267 
Q 294 625 294 1247 
Q 294 1766 478 2236 
Q 663 2706 1013 3078 
Q 1244 3325 1534 3454 
Q 1825 3584 2144 3584 
Q 2481 3584 2739 3421 
Q 2997 3259 3138 2956 
L 3513 4863 
L 4091 4863 
L 3144 0 
L 2566 0 
L 2675 525 
z
M 891 1350 
Q 891 897 1095 644 
Q 1300 391 1663 391 
Q 1931 391 2161 520 
Q 2391 650 2566 903 
Q 2750 1166 2856 1509 
Q 2963 1853 2963 2188 
Q 2963 2622 2758 2865 
Q 2553 3109 2194 3109 
Q 1922 3109 1687 2981 
Q 1453 2853 1288 2613 
Q 1106 2353 998 2009 
Q 891 1666 891 1350 
z
" transform="scale(0.015625)"/>
      <path id="DejaVuSans-Oblique-73" d="M 3200 3397 
L 3091 2853 
Q 2863 2978 2609 3040 
Q 2356 3103 2088 3103 
Q 1634 3103 1373 2948 
Q 1113 2794 1113 2528 
Q 1113 2219 1719 2053 
Q 1766 2041 1788 2034 
L 1972 1978 
Q 2547 1819 2739 1644 
Q 2931 1469 2931 1166 
Q 2931 609 2489 259 
Q 2047 -91 1331 -91 
Q 1053 -91 747 -37 
Q 441 16 72 128 
L 184 722 
Q 500 559 806 475 
Q 1113 391 1394 391 
Q 1816 391 2080 572 
Q 2344 753 2344 1031 
Q 2344 1331 1650 1516 
L 1591 1531 
L 1394 1581 
Q 956 1697 753 1886 
Q 550 2075 550 2369 
Q 550 2928 970 3256 
Q 1391 3584 2113 3584 
Q 2397 3584 2667 3537 
Q 2938 3491 3200 3397 
z
" transform="scale(0.015625)"/>
      <path id="DejaVuSans-28" d="M 1984 4856 
Q 1566 4138 1362 3434 
Q 1159 2731 1159 2009 
Q 1159 1288 1364 580 
Q 1569 -128 1984 -844 
L 1484 -844 
Q 1016 -109 783 600 
Q 550 1309 550 2009 
Q 550 2706 781 3412 
Q 1013 4119 1484 4856 
L 1984 4856 
z
" transform="scale(0.015625)"/>
      <path id="DejaVuSans-Oblique-67" d="M 3816 3500 
L 3219 434 
Q 3047 -456 2561 -893 
Q 2075 -1331 1253 -1331 
Q 950 -1331 690 -1286 
Q 431 -1241 206 -1147 
L 313 -588 
Q 525 -725 762 -790 
Q 1000 -856 1269 -856 
Q 1816 -856 2167 -557 
Q 2519 -259 2631 300 
L 2681 563 
Q 2441 288 2122 144 
Q 1803 0 1434 0 
Q 903 0 598 351 
Q 294 703 294 1319 
Q 294 1803 478 2267 
Q 663 2731 997 3091 
Q 1219 3328 1514 3456 
Q 1809 3584 2131 3584 
Q 2484 3584 2746 3420 
Q 3009 3256 3138 2956 
L 3238 3500 
L 3816 3500 
z
M 2950 2216 
Q 2950 2641 2750 2872 
Q 2550 3103 2181 3103 
Q 1953 3103 1747 3012 
Q 1541 2922 1394 2759 
Q 1156 2491 1023 2127 
Q 891 1763 891 1375 
Q 891 944 1092 712 
Q 1294 481 1672 481 
Q 2219 481 2584 976 
Q 2950 1472 2950 2216 
z
" transform="scale(0.015625)"/>
      <path id="DejaVuSans-29" d="M 513 4856 
L 1013 4856 
Q 1481 4119 1714 3412 
Q 1947 2706 1947 2009 
Q 1947 1309 1714 600 
Q 1481 -109 1013 -844 
L 513 -844 
Q 928 -128 1133 580 
Q 1338 1288 1338 2009 
Q 1338 2731 1133 3434 
Q 928 4138 513 4856 
z
" transform="scale(0.015625)"/>
     </defs>
     <use xlink:href="#DejaVuSans-Oblique-49" transform="translate(0 0.125)"/>
     <use xlink:href="#DejaVuSans-Oblique-64" transform="translate(29.492188 -16.28125) scale(0.7)"/>
     <use xlink:href="#DejaVuSans-Oblique-73" transform="translate(73.925781 -16.28125) scale(0.7)"/>
     <use xlink:href="#DejaVuSans-28" transform="translate(113.129883 0.125)"/>
     <use xlink:href="#DejaVuSans-Oblique-56" transform="translate(152.143555 0.125)"/>
     <use xlink:href="#DejaVuSans-Oblique-67" transform="translate(220.551758 -16.28125) scale(0.7)"/>
     <use xlink:href="#DejaVuSans-Oblique-73" transform="translate(264.985352 -16.28125) scale(0.7)"/>
     <use xlink:href="#DejaVuSans-29" transform="translate(304.189453 0.125)"/>
    </g>
   </g>
   <g id="legend_1">
    <g id="patch_7">
     <path d="M 350.36 304.1 
L 486.2 304.1 
Q 488.2 304.1 488.2 302.1 
L 488.2 197.57625 
Q 488.2 195.57625 486.2 195.57625 
L 350.36 195.57625 
Q 348.36 195.57625 348.36 197.57625 
L 348.36 302.1 
Q 348.36 304.1 350.36 304.1 
z
" style="fill: #ffffff; opacity: 0.8; stroke: #cccccc; stroke-linejoin: miter"/>
    </g>
    <g id="line2d_178">
     <path d="M 350.36 203.194375 
L 355.36 203.194375 
L 360.36 203.194375 
" style="fill: none; stroke: #ff0000; stroke-width: 2; stroke-linecap: square"/>
    </g>
    <g id="text_20">
     <!-- $I_{DS X1}: V_{D}$ =  6.0e-01 -->
     <g transform="translate(362.36 206.694375) scale(0.12 -0.12)">
      <defs>
       <path id="DejaVuSans-3a" d="M 750 794 
L 1409 794 
L 1409 0 
L 750 0 
L 750 794 
z
M 750 3309 
L 1409 3309 
L 1409 2516 
L 750 2516 
L 750 3309 
z
" transform="scale(0.015625)"/>
       <path id="DejaVuSans-3d" d="M 678 2906 
L 4684 2906 
L 4684 2381 
L 678 2381 
L 678 2906 
z
M 678 1631 
L 4684 1631 
L 4684 1100 
L 678 1100 
L 678 1631 
z
" transform="scale(0.015625)"/>
       <path id="DejaVuSans-36" d="M 2113 2584 
Q 1688 2584 1439 2293 
Q 1191 2003 1191 1497 
Q 1191 994 1439 701 
Q 1688 409 2113 409 
Q 2538 409 2786 701 
Q 3034 994 3034 1497 
Q 3034 2003 2786 2293 
Q 2538 2584 2113 2584 
z
M 3366 4563 
L 3366 3988 
Q 3128 4100 2886 4159 
Q 2644 4219 2406 4219 
Q 1781 4219 1451 3797 
Q 1122 3375 1075 2522 
Q 1259 2794 1537 2939 
Q 1816 3084 2150 3084 
Q 2853 3084 3261 2657 
Q 3669 2231 3669 1497 
Q 3669 778 3244 343 
Q 2819 -91 2113 -91 
Q 1303 -91 875 529 
Q 447 1150 447 2328 
Q 447 3434 972 4092 
Q 1497 4750 2381 4750 
Q 2619 4750 2861 4703 
Q 3103 4656 3366 4563 
z
" transform="scale(0.015625)"/>
       <path id="DejaVuSans-65" d="M 3597 1894 
L 3597 1613 
L 953 1613 
Q 991 1019 1311 708 
Q 1631 397 2203 397 
Q 2534 397 2845 478 
Q 3156 559 3463 722 
L 3463 178 
Q 3153 47 2828 -22 
Q 2503 -91 2169 -91 
Q 1331 -91 842 396 
Q 353 884 353 1716 
Q 353 2575 817 3079 
Q 1281 3584 2069 3584 
Q 2775 3584 3186 3129 
Q 3597 2675 3597 1894 
z
M 3022 2063 
Q 3016 2534 2758 2815 
Q 2500 3097 2075 3097 
Q 1594 3097 1305 2825 
Q 1016 2553 972 2059 
L 3022 2063 
z
" transform="scale(0.015625)"/>
       <path id="DejaVuSans-2d" d="M 313 2009 
L 1997 2009 
L 1997 1497 
L 313 1497 
L 313 2009 
z
" transform="scale(0.015625)"/>
      </defs>
      <use xlink:href="#DejaVuSans-Oblique-49" transform="translate(0 0.78125)"/>
      <use xlink:href="#DejaVuSans-Oblique-44" transform="translate(29.492188 -15.625) scale(0.7)"/>
      <use xlink:href="#DejaVuSans-Oblique-53" transform="translate(83.393555 -15.625) scale(0.7)"/>
      <use xlink:href="#DejaVuSans-Oblique-58" transform="translate(127.827148 -15.625) scale(0.7)"/>
      <use xlink:href="#DejaVuSans-31" transform="translate(175.78125 -15.625) scale(0.7)"/>
      <use xlink:href="#DejaVuSans-3a" transform="translate(242.53418 0.78125)"/>
      <use xlink:href="#DejaVuSans-Oblique-56" transform="translate(295.708008 0.78125)"/>
      <use xlink:href="#DejaVuSans-Oblique-44" transform="translate(364.116211 -15.625) scale(0.7)"/>
      <use xlink:href="#DejaVuSans-20" transform="translate(420.751953 0.78125)"/>
      <use xlink:href="#DejaVuSans-3d" transform="translate(452.539062 0.78125)"/>
      <use xlink:href="#DejaVuSans-20" transform="translate(536.328125 0.78125)"/>
      <use xlink:href="#DejaVuSans-20" transform="translate(568.115234 0.78125)"/>
      <use xlink:href="#DejaVuSans-36" transform="translate(599.902344 0.78125)"/>
      <use xlink:href="#DejaVuSans-2e" transform="translate(663.525391 0.78125)"/>
      <use xlink:href="#DejaVuSans-30" transform="translate(695.3125 0.78125)"/>
      <use xlink:href="#DejaVuSans-65" transform="translate(758.935547 0.78125)"/>
      <use xlink:href="#DejaVuSans-2d" transform="translate(820.458984 0.78125)"/>
      <use xlink:href="#DejaVuSans-30" transform="translate(856.542969 0.78125)"/>
      <use xlink:href="#DejaVuSans-31" transform="translate(920.166016 0.78125)"/>
     </g>
    </g>
    <g id="line2d_179">
     <path d="M 350.36 214.808125 
L 355.36 214.808125 
L 360.36 214.808125 
" style="fill: none; stroke: #0000ff; stroke-width: 2; stroke-linecap: square"/>
    </g>
    <g id="text_21">
     <!-- $I_{DS X1}: V_{D}$ =  8.4e-01 -->
     <g transform="translate(362.36 218.308125) scale(0.12 -0.12)">
      <defs>
       <path id="DejaVuSans-38" d="M 2034 2216 
Q 1584 2216 1326 1975 
Q 1069 1734 1069 1313 
Q 1069 891 1326 650 
Q 1584 409 2034 409 
Q 2484 409 2743 651 
Q 3003 894 3003 1313 
Q 3003 1734 2745 1975 
Q 2488 2216 2034 2216 
z
M 1403 2484 
Q 997 2584 770 2862 
Q 544 3141 544 3541 
Q 544 4100 942 4425 
Q 1341 4750 2034 4750 
Q 2731 4750 3128 4425 
Q 3525 4100 3525 3541 
Q 3525 3141 3298 2862 
Q 3072 2584 2669 2484 
Q 3125 2378 3379 2068 
Q 3634 1759 3634 1313 
Q 3634 634 3220 271 
Q 2806 -91 2034 -91 
Q 1263 -91 848 271 
Q 434 634 434 1313 
Q 434 1759 690 2068 
Q 947 2378 1403 2484 
z
M 1172 3481 
Q 1172 3119 1398 2916 
Q 1625 2713 2034 2713 
Q 2441 2713 2670 2916 
Q 2900 3119 2900 3481 
Q 2900 3844 2670 4047 
Q 2441 4250 2034 4250 
Q 1625 4250 1398 4047 
Q 1172 3844 1172 3481 
z
" transform="scale(0.015625)"/>
      </defs>
      <use xlink:href="#DejaVuSans-Oblique-49" transform="translate(0 0.78125)"/>
      <use xlink:href="#DejaVuSans-Oblique-44" transform="translate(29.492188 -15.625) scale(0.7)"/>
      <use xlink:href="#DejaVuSans-Oblique-53" transform="translate(83.393555 -15.625) scale(0.7)"/>
      <use xlink:href="#DejaVuSans-Oblique-58" transform="translate(127.827148 -15.625) scale(0.7)"/>
      <use xlink:href="#DejaVuSans-31" transform="translate(175.78125 -15.625) scale(0.7)"/>
      <use xlink:href="#DejaVuSans-3a" transform="translate(242.53418 0.78125)"/>
      <use xlink:href="#DejaVuSans-Oblique-56" transform="translate(295.708008 0.78125)"/>
      <use xlink:href="#DejaVuSans-Oblique-44" transform="translate(364.116211 -15.625) scale(0.7)"/>
      <use xlink:href="#DejaVuSans-20" transform="translate(420.751953 0.78125)"/>
      <use xlink:href="#DejaVuSans-3d" transform="translate(452.539062 0.78125)"/>
      <use xlink:href="#DejaVuSans-20" transform="translate(536.328125 0.78125)"/>
      <use xlink:href="#DejaVuSans-20" transform="translate(568.115234 0.78125)"/>
      <use xlink:href="#DejaVuSans-38" transform="translate(599.902344 0.78125)"/>
      <use xlink:href="#DejaVuSans-2e" transform="translate(663.525391 0.78125)"/>
      <use xlink:href="#DejaVuSans-34" transform="translate(695.3125 0.78125)"/>
      <use xlink:href="#DejaVuSans-65" transform="translate(758.935547 0.78125)"/>
      <use xlink:href="#DejaVuSans-2d" transform="translate(820.458984 0.78125)"/>
      <use xlink:href="#DejaVuSans-30" transform="translate(856.542969 0.78125)"/>
      <use xlink:href="#DejaVuSans-31" transform="translate(920.166016 0.78125)"/>
     </g>
    </g>
    <g id="line2d_180">
     <path d="M 350.36 226.421875 
L 355.36 226.421875 
L 360.36 226.421875 
" style="fill: none; stroke: #008000; stroke-width: 2; stroke-linecap: square"/>
    </g>
    <g id="text_22">
     <!-- $I_{DS X1}: V_{D}$ =  1.1e+00 -->
     <g transform="translate(362.36 229.921875) scale(0.12 -0.12)">
      <defs>
       <path id="DejaVuSans-2b" d="M 2944 4013 
L 2944 2272 
L 4684 2272 
L 4684 1741 
L 2944 1741 
L 2944 0 
L 2419 0 
L 2419 1741 
L 678 1741 
L 678 2272 
L 2419 2272 
L 2419 4013 
L 2944 4013 
z
" transform="scale(0.015625)"/>
      </defs>
      <use xlink:href="#DejaVuSans-Oblique-49" transform="translate(0 0.78125)"/>
      <use xlink:href="#DejaVuSans-Oblique-44" transform="translate(29.492188 -15.625) scale(0.7)"/>
      <use xlink:href="#DejaVuSans-Oblique-53" transform="translate(83.393555 -15.625) scale(0.7)"/>
      <use xlink:href="#DejaVuSans-Oblique-58" transform="translate(127.827148 -15.625) scale(0.7)"/>
      <use xlink:href="#DejaVuSans-31" transform="translate(175.78125 -15.625) scale(0.7)"/>
      <use xlink:href="#DejaVuSans-3a" transform="translate(242.53418 0.78125)"/>
      <use xlink:href="#DejaVuSans-Oblique-56" transform="translate(295.708008 0.78125)"/>
      <use xlink:href="#DejaVuSans-Oblique-44" transform="translate(364.116211 -15.625) scale(0.7)"/>
      <use xlink:href="#DejaVuSans-20" transform="translate(420.751953 0.78125)"/>
      <use xlink:href="#DejaVuSans-3d" transform="translate(452.539062 0.78125)"/>
      <use xlink:href="#DejaVuSans-20" transform="translate(536.328125 0.78125)"/>
      <use xlink:href="#DejaVuSans-20" transform="translate(568.115234 0.78125)"/>
      <use xlink:href="#DejaVuSans-31" transform="translate(599.902344 0.78125)"/>
      <use xlink:href="#DejaVuSans-2e" transform="translate(663.525391 0.78125)"/>
      <use xlink:href="#DejaVuSans-31" transform="translate(695.3125 0.78125)"/>
      <use xlink:href="#DejaVuSans-65" transform="translate(758.935547 0.78125)"/>
      <use xlink:href="#DejaVuSans-2b" transform="translate(820.458984 0.78125)"/>
      <use xlink:href="#DejaVuSans-30" transform="translate(904.248047 0.78125)"/>
      <use xlink:href="#DejaVuSans-30" transform="translate(967.871094 0.78125)"/>
     </g>
    </g>
    <g id="line2d_181">
     <path d="M 350.36 238.035625 
L 355.36 238.035625 
L 360.36 238.035625 
" style="fill: none; stroke: #00bfbf; stroke-width: 2; stroke-linecap: square"/>
    </g>
    <g id="text_23">
     <!-- $I_{DS X1}: V_{D}$ =  1.3e+00 -->
     <g transform="translate(362.36 241.535625) scale(0.12 -0.12)">
      <use xlink:href="#DejaVuSans-Oblique-49" transform="translate(0 0.78125)"/>
      <use xlink:href="#DejaVuSans-Oblique-44" transform="translate(29.492188 -15.625) scale(0.7)"/>
      <use xlink:href="#DejaVuSans-Oblique-53" transform="translate(83.393555 -15.625) scale(0.7)"/>
      <use xlink:href="#DejaVuSans-Oblique-58" transform="translate(127.827148 -15.625) scale(0.7)"/>
      <use xlink:href="#DejaVuSans-31" transform="translate(175.78125 -15.625) scale(0.7)"/>
      <use xlink:href="#DejaVuSans-3a" transform="translate(242.53418 0.78125)"/>
      <use xlink:href="#DejaVuSans-Oblique-56" transform="translate(295.708008 0.78125)"/>
      <use xlink:href="#DejaVuSans-Oblique-44" transform="translate(364.116211 -15.625) scale(0.7)"/>
      <use xlink:href="#DejaVuSans-20" transform="translate(420.751953 0.78125)"/>
      <use xlink:href="#DejaVuSans-3d" transform="translate(452.539062 0.78125)"/>
      <use xlink:href="#DejaVuSans-20" transform="translate(536.328125 0.78125)"/>
      <use xlink:href="#DejaVuSans-20" transform="translate(568.115234 0.78125)"/>
      <use xlink:href="#DejaVuSans-31" transform="translate(599.902344 0.78125)"/>
      <use xlink:href="#DejaVuSans-2e" transform="translate(663.525391 0.78125)"/>
      <use xlink:href="#DejaVuSans-33" transform="translate(695.3125 0.78125)"/>
      <use xlink:href="#DejaVuSans-65" transform="translate(758.935547 0.78125)"/>
      <use xlink:href="#DejaVuSans-2b" transform="translate(820.458984 0.78125)"/>
      <use xlink:href="#DejaVuSans-30" transform="translate(904.248047 0.78125)"/>
      <use xlink:href="#DejaVuSans-30" transform="translate(967.871094 0.78125)"/>
     </g>
    </g>
    <g id="line2d_182">
     <path d="M 350.36 249.649375 
L 355.36 249.649375 
L 360.36 249.649375 
" style="fill: none; stroke: #bf00bf; stroke-width: 2; stroke-linecap: square"/>
    </g>
    <g id="text_24">
     <!-- $I_{DS X1}: V_{D}$ =  1.6e+00 -->
     <g transform="translate(362.36 253.149375) scale(0.12 -0.12)">
      <use xlink:href="#DejaVuSans-Oblique-49" transform="translate(0 0.78125)"/>
      <use xlink:href="#DejaVuSans-Oblique-44" transform="translate(29.492188 -15.625) scale(0.7)"/>
      <use xlink:href="#DejaVuSans-Oblique-53" transform="translate(83.393555 -15.625) scale(0.7)"/>
      <use xlink:href="#DejaVuSans-Oblique-58" transform="translate(127.827148 -15.625) scale(0.7)"/>
      <use xlink:href="#DejaVuSans-31" transform="translate(175.78125 -15.625) scale(0.7)"/>
      <use xlink:href="#DejaVuSans-3a" transform="translate(242.53418 0.78125)"/>
      <use xlink:href="#DejaVuSans-Oblique-56" transform="translate(295.708008 0.78125)"/>
      <use xlink:href="#DejaVuSans-Oblique-44" transform="translate(364.116211 -15.625) scale(0.7)"/>
      <use xlink:href="#DejaVuSans-20" transform="translate(420.751953 0.78125)"/>
      <use xlink:href="#DejaVuSans-3d" transform="translate(452.539062 0.78125)"/>
      <use xlink:href="#DejaVuSans-20" transform="translate(536.328125 0.78125)"/>
      <use xlink:href="#DejaVuSans-20" transform="translate(568.115234 0.78125)"/>
      <use xlink:href="#DejaVuSans-31" transform="translate(599.902344 0.78125)"/>
      <use xlink:href="#DejaVuSans-2e" transform="translate(663.525391 0.78125)"/>
      <use xlink:href="#DejaVuSans-36" transform="translate(695.3125 0.78125)"/>
      <use xlink:href="#DejaVuSans-65" transform="translate(758.935547 0.78125)"/>
      <use xlink:href="#DejaVuSans-2b" transform="translate(820.458984 0.78125)"/>
      <use xlink:href="#DejaVuSans-30" transform="translate(904.248047 0.78125)"/>
      <use xlink:href="#DejaVuSans-30" transform="translate(967.871094 0.78125)"/>
     </g>
    </g>
    <g id="line2d_183">
     <path d="M 350.36 261.263125 
L 355.36 261.263125 
L 360.36 261.263125 
" style="fill: none; stroke: #bfbf00; stroke-width: 2; stroke-linecap: square"/>
    </g>
    <g id="text_25">
     <!-- $I_{DS X1}: V_{D}$ =  1.8e+00 -->
     <g transform="translate(362.36 264.763125) scale(0.12 -0.12)">
      <use xlink:href="#DejaVuSans-Oblique-49" transform="translate(0 0.78125)"/>
      <use xlink:href="#DejaVuSans-Oblique-44" transform="translate(29.492188 -15.625) scale(0.7)"/>
      <use xlink:href="#DejaVuSans-Oblique-53" transform="translate(83.393555 -15.625) scale(0.7)"/>
      <use xlink:href="#DejaVuSans-Oblique-58" transform="translate(127.827148 -15.625) scale(0.7)"/>
      <use xlink:href="#DejaVuSans-31" transform="translate(175.78125 -15.625) scale(0.7)"/>
      <use xlink:href="#DejaVuSans-3a" transform="translate(242.53418 0.78125)"/>
      <use xlink:href="#DejaVuSans-Oblique-56" transform="translate(295.708008 0.78125)"/>
      <use xlink:href="#DejaVuSans-Oblique-44" transform="translate(364.116211 -15.625) scale(0.7)"/>
      <use xlink:href="#DejaVuSans-20" transform="translate(420.751953 0.78125)"/>
      <use xlink:href="#DejaVuSans-3d" transform="translate(452.539062 0.78125)"/>
      <use xlink:href="#DejaVuSans-20" transform="translate(536.328125 0.78125)"/>
      <use xlink:href="#DejaVuSans-20" transform="translate(568.115234 0.78125)"/>
      <use xlink:href="#DejaVuSans-31" transform="translate(599.902344 0.78125)"/>
      <use xlink:href="#DejaVuSans-2e" transform="translate(663.525391 0.78125)"/>
      <use xlink:href="#DejaVuSans-38" transform="translate(692.6875 0.78125)"/>
      <use xlink:href="#DejaVuSans-65" transform="translate(756.310547 0.78125)"/>
      <use xlink:href="#DejaVuSans-2b" transform="translate(817.833984 0.78125)"/>
      <use xlink:href="#DejaVuSans-30" transform="translate(901.623047 0.78125)"/>
      <use xlink:href="#DejaVuSans-30" transform="translate(965.246094 0.78125)"/>
     </g>
    </g>
    <g id="line2d_184">
     <path d="M 350.36 272.876875 
L 355.36 272.876875 
L 360.36 272.876875 
" style="fill: none; stroke: #000000; stroke-width: 2; stroke-linecap: square"/>
    </g>
    <g id="text_26">
     <!-- V2=600m -->
     <g transform="translate(362.36 276.376875) scale(0.12 -0.12)">
      <defs>
       <path id="DejaVuSans-6d" d="M 3328 2828 
Q 3544 3216 3844 3400 
Q 4144 3584 4550 3584 
Q 5097 3584 5394 3201 
Q 5691 2819 5691 2113 
L 5691 0 
L 5113 0 
L 5113 2094 
Q 5113 2597 4934 2840 
Q 4756 3084 4391 3084 
Q 3944 3084 3684 2787 
Q 3425 2491 3425 1978 
L 3425 0 
L 2847 0 
L 2847 2094 
Q 2847 2600 2669 2842 
Q 2491 3084 2119 3084 
Q 1678 3084 1418 2786 
Q 1159 2488 1159 1978 
L 1159 0 
L 581 0 
L 581 3500 
L 1159 3500 
L 1159 2956 
Q 1356 3278 1631 3431 
Q 1906 3584 2284 3584 
Q 2666 3584 2933 3390 
Q 3200 3197 3328 2828 
z
" transform="scale(0.015625)"/>
      </defs>
      <use xlink:href="#DejaVuSans-56"/>
      <use xlink:href="#DejaVuSans-32" x="68.408203"/>
      <use xlink:href="#DejaVuSans-3d" x="132.03125"/>
      <use xlink:href="#DejaVuSans-36" x="215.820312"/>
      <use xlink:href="#DejaVuSans-30" x="279.443359"/>
      <use xlink:href="#DejaVuSans-30" x="343.066406"/>
      <use xlink:href="#DejaVuSans-6d" x="406.689453"/>
     </g>
    </g>
    <g id="line2d_185">
     <path d="M 350.36 284.490625 
L 355.36 284.490625 
L 360.36 284.490625 
" style="fill: none; stroke: #ff0000; stroke-width: 2; stroke-linecap: square"/>
    </g>
    <g id="text_27">
     <!-- V2=1.2 -->
     <g transform="translate(362.36 287.990625) scale(0.12 -0.12)">
      <use xlink:href="#DejaVuSans-56"/>
      <use xlink:href="#DejaVuSans-32" x="68.408203"/>
      <use xlink:href="#DejaVuSans-3d" x="132.03125"/>
      <use xlink:href="#DejaVuSans-31" x="215.820312"/>
      <use xlink:href="#DejaVuSans-2e" x="279.443359"/>
      <use xlink:href="#DejaVuSans-32" x="311.230469"/>
     </g>
    </g>
    <g id="line2d_186">
     <path d="M 350.36 296.104375 
L 355.36 296.104375 
L 360.36 296.104375 
" style="fill: none; stroke: #0000ff; stroke-width: 2; stroke-linecap: square"/>
    </g>
    <g id="text_28">
     <!-- V2=1.8 -->
     <g transform="translate(362.36 299.604375) scale(0.12 -0.12)">
      <use xlink:href="#DejaVuSans-56"/>
      <use xlink:href="#DejaVuSans-32" x="68.408203"/>
      <use xlink:href="#DejaVuSans-3d" x="132.03125"/>
      <use xlink:href="#DejaVuSans-31" x="215.820312"/>
      <use xlink:href="#DejaVuSans-2e" x="279.443359"/>
      <use xlink:href="#DejaVuSans-38" x="311.230469"/>
     </g>
    </g>
   </g>
  </g>
 </g>
 <defs>
  <clipPath id="p3e2f0f84e4">
   <rect x="67.127188" y="28.8" width="426.072812" height="280.3"/>
  </clipPath>
 </defs>
</svg>
