<?xml version="1.0" encoding="utf-8" standalone="no"?>
<!DOCTYPE svg PUBLIC "-//W3C//DTD SVG 1.1//EN"
  "http://www.w3.org/Graphics/SVG/1.1/DTD/svg11.dtd">
<svg xmlns:xlink="http://www.w3.org/1999/xlink" width="504pt" height="360pt" viewBox="0 0 504 360" xmlns="http://www.w3.org/2000/svg" version="1.1">
 <metadata>
  <rdf:RDF xmlns:dc="http://purl.org/dc/elements/1.1/" xmlns:cc="http://creativecommons.org/ns#" xmlns:rdf="http://www.w3.org/1999/02/22-rdf-syntax-ns#">
   <cc:Work>
    <dc:type rdf:resource="http://purl.org/dc/dcmitype/StillImage"/>
    <dc:date>2024-10-20T17:46:53.097299</dc:date>
    <dc:format>image/svg+xml</dc:format>
    <dc:creator>
     <cc:Agent>
      <dc:title>Matplotlib v3.9.2, https://matplotlib.org/</dc:title>
     </cc:Agent>
    </dc:creator>
   </cc:Work>
  </rdf:RDF>
 </metadata>
 <defs>
  <style type="text/css">*{stroke-linejoin: round; stroke-linecap: butt}</style>
 </defs>
 <g id="figure_1">
  <g id="patch_1">
   <path d="M 0 360 
L 504 360 
L 504 0 
L 0 0 
z
" style="fill: #ffffff"/>
  </g>
  <g id="axes_1">
   <g id="patch_2">
    <path d="M 61.55 309.1 
L 493.2 309.1 
L 493.2 28.8 
L 61.55 28.8 
z
" style="fill: #ffffff"/>
   </g>
   <g id="matplotlib.axis_1">
    <g id="xtick_1">
     <g id="line2d_1">
      <path d="M 81.170446 309.1 
L 81.170446 28.8 
" clip-path="url(#p9698c9ce7b)" style="fill: none; stroke: #808080; stroke-width: 0.8; stroke-linecap: square"/>
     </g>
     <g id="line2d_2">
      <defs>
       <path id="mdb34d7fa09" d="M 0 0 
L 0 3.5 
" style="stroke: #000000; stroke-width: 0.8"/>
      </defs>
      <g>
       <use xlink:href="#mdb34d7fa09" x="81.170446" y="309.1" style="stroke: #000000; stroke-width: 0.8"/>
      </g>
     </g>
     <g id="text_1">
      <!-- 0 -->
      <g transform="translate(77.352946 325.218125) scale(0.12 -0.12)">
       <defs>
        <path id="DejaVuSans-30" d="M 2034 4250 
Q 1547 4250 1301 3770 
Q 1056 3291 1056 2328 
Q 1056 1369 1301 889 
Q 1547 409 2034 409 
Q 2525 409 2770 889 
Q 3016 1369 3016 2328 
Q 3016 3291 2770 3770 
Q 2525 4250 2034 4250 
z
M 2034 4750 
Q 2819 4750 3233 4129 
Q 3647 3509 3647 2328 
Q 3647 1150 3233 529 
Q 2819 -91 2034 -91 
Q 1250 -91 836 529 
Q 422 1150 422 2328 
Q 422 3509 836 4129 
Q 1250 4750 2034 4750 
z
" transform="scale(0.015625)"/>
       </defs>
       <use xlink:href="#DejaVuSans-30"/>
      </g>
     </g>
    </g>
    <g id="xtick_2">
     <g id="line2d_3">
      <path d="M 168.617573 309.1 
L 168.617573 28.8 
" clip-path="url(#p9698c9ce7b)" style="fill: none; stroke: #808080; stroke-width: 0.8; stroke-linecap: square"/>
     </g>
     <g id="line2d_4">
      <g>
       <use xlink:href="#mdb34d7fa09" x="168.617573" y="309.1" style="stroke: #000000; stroke-width: 0.8"/>
      </g>
     </g>
     <g id="text_2">
      <!-- 50 -->
      <g transform="translate(160.982573 325.218125) scale(0.12 -0.12)">
       <defs>
        <path id="DejaVuSans-35" d="M 691 4666 
L 3169 4666 
L 3169 4134 
L 1269 4134 
L 1269 2991 
Q 1406 3038 1543 3061 
Q 1681 3084 1819 3084 
Q 2600 3084 3056 2656 
Q 3513 2228 3513 1497 
Q 3513 744 3044 326 
Q 2575 -91 1722 -91 
Q 1428 -91 1123 -41 
Q 819 9 494 109 
L 494 744 
Q 775 591 1075 516 
Q 1375 441 1709 441 
Q 2250 441 2565 725 
Q 2881 1009 2881 1497 
Q 2881 1984 2565 2268 
Q 2250 2553 1709 2553 
Q 1456 2553 1204 2497 
Q 953 2441 691 2322 
L 691 4666 
z
" transform="scale(0.015625)"/>
       </defs>
       <use xlink:href="#DejaVuSans-35"/>
       <use xlink:href="#DejaVuSans-30" x="63.623047"/>
      </g>
     </g>
    </g>
    <g id="xtick_3">
     <g id="line2d_5">
      <path d="M 256.064701 309.1 
L 256.064701 28.8 
" clip-path="url(#p9698c9ce7b)" style="fill: none; stroke: #808080; stroke-width: 0.8; stroke-linecap: square"/>
     </g>
     <g id="line2d_6">
      <g>
       <use xlink:href="#mdb34d7fa09" x="256.064701" y="309.1" style="stroke: #000000; stroke-width: 0.8"/>
      </g>
     </g>
     <g id="text_3">
      <!-- 100 -->
      <g transform="translate(244.612201 325.218125) scale(0.12 -0.12)">
       <defs>
        <path id="DejaVuSans-31" d="M 794 531 
L 1825 531 
L 1825 4091 
L 703 3866 
L 703 4441 
L 1819 4666 
L 2450 4666 
L 2450 531 
L 3481 531 
L 3481 0 
L 794 0 
L 794 531 
z
" transform="scale(0.015625)"/>
       </defs>
       <use xlink:href="#DejaVuSans-31"/>
       <use xlink:href="#DejaVuSans-30" x="63.623047"/>
       <use xlink:href="#DejaVuSans-30" x="127.246094"/>
      </g>
     </g>
    </g>
    <g id="xtick_4">
     <g id="line2d_7">
      <path d="M 343.511829 309.1 
L 343.511829 28.8 
" clip-path="url(#p9698c9ce7b)" style="fill: none; stroke: #808080; stroke-width: 0.8; stroke-linecap: square"/>
     </g>
     <g id="line2d_8">
      <g>
       <use xlink:href="#mdb34d7fa09" x="343.511829" y="309.1" style="stroke: #000000; stroke-width: 0.8"/>
      </g>
     </g>
     <g id="text_4">
      <!-- 150 -->
      <g transform="translate(332.059329 325.218125) scale(0.12 -0.12)">
       <use xlink:href="#DejaVuSans-31"/>
       <use xlink:href="#DejaVuSans-35" x="63.623047"/>
       <use xlink:href="#DejaVuSans-30" x="127.246094"/>
      </g>
     </g>
    </g>
    <g id="xtick_5">
     <g id="line2d_9">
      <path d="M 430.958957 309.1 
L 430.958957 28.8 
" clip-path="url(#p9698c9ce7b)" style="fill: none; stroke: #808080; stroke-width: 0.8; stroke-linecap: square"/>
     </g>
     <g id="line2d_10">
      <g>
       <use xlink:href="#mdb34d7fa09" x="430.958957" y="309.1" style="stroke: #000000; stroke-width: 0.8"/>
      </g>
     </g>
     <g id="text_5">
      <!-- 200 -->
      <g transform="translate(419.506457 325.218125) scale(0.12 -0.12)">
       <defs>
        <path id="DejaVuSans-32" d="M 1228 531 
L 3431 531 
L 3431 0 
L 469 0 
L 469 531 
Q 828 903 1448 1529 
Q 2069 2156 2228 2338 
Q 2531 2678 2651 2914 
Q 2772 3150 2772 3378 
Q 2772 3750 2511 3984 
Q 2250 4219 1831 4219 
Q 1534 4219 1204 4116 
Q 875 4013 500 3803 
L 500 4441 
Q 881 4594 1212 4672 
Q 1544 4750 1819 4750 
Q 2544 4750 2975 4387 
Q 3406 4025 3406 3419 
Q 3406 3131 3298 2873 
Q 3191 2616 2906 2266 
Q 2828 2175 2409 1742 
Q 1991 1309 1228 531 
z
" transform="scale(0.015625)"/>
       </defs>
       <use xlink:href="#DejaVuSans-32"/>
       <use xlink:href="#DejaVuSans-30" x="63.623047"/>
       <use xlink:href="#DejaVuSans-30" x="127.246094"/>
      </g>
     </g>
    </g>
    <g id="text_6">
     <!-- $I_{DS X1}$ [uA] -->
     <g transform="translate(249.475 340.831875) scale(0.12 -0.12)">
      <defs>
       <path id="DejaVuSans-Oblique-49" d="M 1081 4666 
L 1716 4666 
L 806 0 
L 172 0 
L 1081 4666 
z
" transform="scale(0.015625)"/>
       <path id="DejaVuSans-Oblique-44" d="M 1081 4666 
L 2438 4666 
Q 3519 4666 4070 4208 
Q 4622 3750 4622 2847 
Q 4622 2250 4412 1698 
Q 4203 1147 3834 769 
Q 3463 381 2891 190 
Q 2319 0 1538 0 
L 172 0 
L 1081 4666 
z
M 1613 4147 
L 909 519 
L 1734 519 
Q 2794 519 3375 1128 
Q 3956 1738 3956 2847 
Q 3956 3519 3581 3833 
Q 3206 4147 2406 4147 
L 1613 4147 
z
" transform="scale(0.015625)"/>
       <path id="DejaVuSans-Oblique-53" d="M 3859 4513 
L 3738 3897 
Q 3422 4066 3111 4152 
Q 2800 4238 2509 4238 
Q 1944 4238 1609 3991 
Q 1275 3744 1275 3334 
Q 1275 3109 1398 2989 
Q 1522 2869 2034 2731 
L 2413 2638 
Q 3053 2472 3303 2217 
Q 3553 1963 3553 1503 
Q 3553 797 2998 353 
Q 2444 -91 1538 -91 
Q 1166 -91 791 -17 
Q 416 56 38 206 
L 166 856 
Q 513 641 861 531 
Q 1209 422 1556 422 
Q 2147 422 2503 684 
Q 2859 947 2859 1369 
Q 2859 1650 2717 1795 
Q 2575 1941 2106 2059 
L 1728 2156 
Q 1081 2325 845 2545 
Q 609 2766 609 3163 
Q 609 3859 1145 4304 
Q 1681 4750 2541 4750 
Q 2875 4750 3203 4690 
Q 3531 4631 3859 4513 
z
" transform="scale(0.015625)"/>
       <path id="DejaVuSans-Oblique-58" d="M 878 4666 
L 1516 4666 
L 2316 2981 
L 3763 4666 
L 4500 4666 
L 2578 2438 
L 3738 0 
L 3103 0 
L 2163 1966 
L 459 0 
L -275 0 
L 1906 2509 
L 878 4666 
z
" transform="scale(0.015625)"/>
       <path id="DejaVuSans-20" transform="scale(0.015625)"/>
       <path id="DejaVuSans-5b" d="M 550 4863 
L 1875 4863 
L 1875 4416 
L 1125 4416 
L 1125 -397 
L 1875 -397 
L 1875 -844 
L 550 -844 
L 550 4863 
z
" transform="scale(0.015625)"/>
       <path id="DejaVuSans-75" d="M 544 1381 
L 544 3500 
L 1119 3500 
L 1119 1403 
Q 1119 906 1312 657 
Q 1506 409 1894 409 
Q 2359 409 2629 706 
Q 2900 1003 2900 1516 
L 2900 3500 
L 3475 3500 
L 3475 0 
L 2900 0 
L 2900 538 
Q 2691 219 2414 64 
Q 2138 -91 1772 -91 
Q 1169 -91 856 284 
Q 544 659 544 1381 
z
M 1991 3584 
L 1991 3584 
z
" transform="scale(0.015625)"/>
       <path id="DejaVuSans-41" d="M 2188 4044 
L 1331 1722 
L 3047 1722 
L 2188 4044 
z
M 1831 4666 
L 2547 4666 
L 4325 0 
L 3669 0 
L 3244 1197 
L 1141 1197 
L 716 0 
L 50 0 
L 1831 4666 
z
" transform="scale(0.015625)"/>
       <path id="DejaVuSans-5d" d="M 1947 4863 
L 1947 -844 
L 622 -844 
L 622 -397 
L 1369 -397 
L 1369 4416 
L 622 4416 
L 622 4863 
L 1947 4863 
z
" transform="scale(0.015625)"/>
      </defs>
      <use xlink:href="#DejaVuSans-Oblique-49" transform="translate(0 0.015625)"/>
      <use xlink:href="#DejaVuSans-Oblique-44" transform="translate(29.492188 -16.390625) scale(0.7)"/>
      <use xlink:href="#DejaVuSans-Oblique-53" transform="translate(83.393555 -16.390625) scale(0.7)"/>
      <use xlink:href="#DejaVuSans-Oblique-58" transform="translate(127.827148 -16.390625) scale(0.7)"/>
      <use xlink:href="#DejaVuSans-31" transform="translate(175.78125 -16.390625) scale(0.7)"/>
      <use xlink:href="#DejaVuSans-20" transform="translate(223.051758 0.015625)"/>
      <use xlink:href="#DejaVuSans-5b" transform="translate(254.838867 0.015625)"/>
      <use xlink:href="#DejaVuSans-75" transform="translate(293.852539 0.015625)"/>
      <use xlink:href="#DejaVuSans-41" transform="translate(357.231445 0.015625)"/>
      <use xlink:href="#DejaVuSans-5d" transform="translate(425.639648 0.015625)"/>
     </g>
    </g>
   </g>
   <g id="matplotlib.axis_2">
    <g id="ytick_1">
     <g id="line2d_11">
      <path d="M 61.55 283.915198 
L 493.2 283.915198 
" clip-path="url(#p9698c9ce7b)" style="fill: none; stroke: #808080; stroke-width: 0.8; stroke-linecap: square"/>
     </g>
     <g id="line2d_12">
      <defs>
       <path id="m0c69520ca8" d="M 0 0 
L -3.5 0 
" style="stroke: #000000; stroke-width: 0.8"/>
      </defs>
      <g>
       <use xlink:href="#m0c69520ca8" x="61.55" y="283.915198" style="stroke: #000000; stroke-width: 0.8"/>
      </g>
     </g>
     <g id="text_7">
      <!-- 0 -->
      <g transform="translate(46.915 288.474261) scale(0.12 -0.12)">
       <use xlink:href="#DejaVuSans-30"/>
      </g>
     </g>
    </g>
    <g id="ytick_2">
     <g id="line2d_13">
      <path d="M 61.55 252.281228 
L 493.2 252.281228 
" clip-path="url(#p9698c9ce7b)" style="fill: none; stroke: #808080; stroke-width: 0.8; stroke-linecap: square"/>
     </g>
     <g id="line2d_14">
      <g>
       <use xlink:href="#m0c69520ca8" x="61.55" y="252.281228" style="stroke: #000000; stroke-width: 0.8"/>
      </g>
     </g>
     <g id="text_8">
      <!-- 20 -->
      <g transform="translate(39.28 256.84029) scale(0.12 -0.12)">
       <use xlink:href="#DejaVuSans-32"/>
       <use xlink:href="#DejaVuSans-30" x="63.623047"/>
      </g>
     </g>
    </g>
    <g id="ytick_3">
     <g id="line2d_15">
      <path d="M 61.55 220.647257 
L 493.2 220.647257 
" clip-path="url(#p9698c9ce7b)" style="fill: none; stroke: #808080; stroke-width: 0.8; stroke-linecap: square"/>
     </g>
     <g id="line2d_16">
      <g>
       <use xlink:href="#m0c69520ca8" x="61.55" y="220.647257" style="stroke: #000000; stroke-width: 0.8"/>
      </g>
     </g>
     <g id="text_9">
      <!-- 40 -->
      <g transform="translate(39.28 225.20632) scale(0.12 -0.12)">
       <defs>
        <path id="DejaVuSans-34" d="M 2419 4116 
L 825 1625 
L 2419 1625 
L 2419 4116 
z
M 2253 4666 
L 3047 4666 
L 3047 1625 
L 3713 1625 
L 3713 1100 
L 3047 1100 
L 3047 0 
L 2419 0 
L 2419 1100 
L 313 1100 
L 313 1709 
L 2253 4666 
z
" transform="scale(0.015625)"/>
       </defs>
       <use xlink:href="#DejaVuSans-34"/>
       <use xlink:href="#DejaVuSans-30" x="63.623047"/>
      </g>
     </g>
    </g>
    <g id="ytick_4">
     <g id="line2d_17">
      <path d="M 61.55 189.013287 
L 493.2 189.013287 
" clip-path="url(#p9698c9ce7b)" style="fill: none; stroke: #808080; stroke-width: 0.8; stroke-linecap: square"/>
     </g>
     <g id="line2d_18">
      <g>
       <use xlink:href="#m0c69520ca8" x="61.55" y="189.013287" style="stroke: #000000; stroke-width: 0.8"/>
      </g>
     </g>
     <g id="text_10">
      <!-- 60 -->
      <g transform="translate(39.28 193.572349) scale(0.12 -0.12)">
       <defs>
        <path id="DejaVuSans-36" d="M 2113 2584 
Q 1688 2584 1439 2293 
Q 1191 2003 1191 1497 
Q 1191 994 1439 701 
Q 1688 409 2113 409 
Q 2538 409 2786 701 
Q 3034 994 3034 1497 
Q 3034 2003 2786 2293 
Q 2538 2584 2113 2584 
z
M 3366 4563 
L 3366 3988 
Q 3128 4100 2886 4159 
Q 2644 4219 2406 4219 
Q 1781 4219 1451 3797 
Q 1122 3375 1075 2522 
Q 1259 2794 1537 2939 
Q 1816 3084 2150 3084 
Q 2853 3084 3261 2657 
Q 3669 2231 3669 1497 
Q 3669 778 3244 343 
Q 2819 -91 2113 -91 
Q 1303 -91 875 529 
Q 447 1150 447 2328 
Q 447 3434 972 4092 
Q 1497 4750 2381 4750 
Q 2619 4750 2861 4703 
Q 3103 4656 3366 4563 
z
" transform="scale(0.015625)"/>
       </defs>
       <use xlink:href="#DejaVuSans-36"/>
       <use xlink:href="#DejaVuSans-30" x="63.623047"/>
      </g>
     </g>
    </g>
    <g id="ytick_5">
     <g id="line2d_19">
      <path d="M 61.55 157.379316 
L 493.2 157.379316 
" clip-path="url(#p9698c9ce7b)" style="fill: none; stroke: #808080; stroke-width: 0.8; stroke-linecap: square"/>
     </g>
     <g id="line2d_20">
      <g>
       <use xlink:href="#m0c69520ca8" x="61.55" y="157.379316" style="stroke: #000000; stroke-width: 0.8"/>
      </g>
     </g>
     <g id="text_11">
      <!-- 80 -->
      <g transform="translate(39.28 161.938379) scale(0.12 -0.12)">
       <defs>
        <path id="DejaVuSans-38" d="M 2034 2216 
Q 1584 2216 1326 1975 
Q 1069 1734 1069 1313 
Q 1069 891 1326 650 
Q 1584 409 2034 409 
Q 2484 409 2743 651 
Q 3003 894 3003 1313 
Q 3003 1734 2745 1975 
Q 2488 2216 2034 2216 
z
M 1403 2484 
Q 997 2584 770 2862 
Q 544 3141 544 3541 
Q 544 4100 942 4425 
Q 1341 4750 2034 4750 
Q 2731 4750 3128 4425 
Q 3525 4100 3525 3541 
Q 3525 3141 3298 2862 
Q 3072 2584 2669 2484 
Q 3125 2378 3379 2068 
Q 3634 1759 3634 1313 
Q 3634 634 3220 271 
Q 2806 -91 2034 -91 
Q 1263 -91 848 271 
Q 434 634 434 1313 
Q 434 1759 690 2068 
Q 947 2378 1403 2484 
z
M 1172 3481 
Q 1172 3119 1398 2916 
Q 1625 2713 2034 2713 
Q 2441 2713 2670 2916 
Q 2900 3119 2900 3481 
Q 2900 3844 2670 4047 
Q 2441 4250 2034 4250 
Q 1625 4250 1398 4047 
Q 1172 3844 1172 3481 
z
" transform="scale(0.015625)"/>
       </defs>
       <use xlink:href="#DejaVuSans-38"/>
       <use xlink:href="#DejaVuSans-30" x="63.623047"/>
      </g>
     </g>
    </g>
    <g id="ytick_6">
     <g id="line2d_21">
      <path d="M 61.55 125.745346 
L 493.2 125.745346 
" clip-path="url(#p9698c9ce7b)" style="fill: none; stroke: #808080; stroke-width: 0.8; stroke-linecap: square"/>
     </g>
     <g id="line2d_22">
      <g>
       <use xlink:href="#m0c69520ca8" x="61.55" y="125.745346" style="stroke: #000000; stroke-width: 0.8"/>
      </g>
     </g>
     <g id="text_12">
      <!-- 100 -->
      <g transform="translate(31.645 130.304409) scale(0.12 -0.12)">
       <use xlink:href="#DejaVuSans-31"/>
       <use xlink:href="#DejaVuSans-30" x="63.623047"/>
       <use xlink:href="#DejaVuSans-30" x="127.246094"/>
      </g>
     </g>
    </g>
    <g id="ytick_7">
     <g id="line2d_23">
      <path d="M 61.55 94.111376 
L 493.2 94.111376 
" clip-path="url(#p9698c9ce7b)" style="fill: none; stroke: #808080; stroke-width: 0.8; stroke-linecap: square"/>
     </g>
     <g id="line2d_24">
      <g>
       <use xlink:href="#m0c69520ca8" x="61.55" y="94.111376" style="stroke: #000000; stroke-width: 0.8"/>
      </g>
     </g>
     <g id="text_13">
      <!-- 120 -->
      <g transform="translate(31.645 98.670438) scale(0.12 -0.12)">
       <use xlink:href="#DejaVuSans-31"/>
       <use xlink:href="#DejaVuSans-32" x="63.623047"/>
       <use xlink:href="#DejaVuSans-30" x="127.246094"/>
      </g>
     </g>
    </g>
    <g id="ytick_8">
     <g id="line2d_25">
      <path d="M 61.55 62.477405 
L 493.2 62.477405 
" clip-path="url(#p9698c9ce7b)" style="fill: none; stroke: #808080; stroke-width: 0.8; stroke-linecap: square"/>
     </g>
     <g id="line2d_26">
      <g>
       <use xlink:href="#m0c69520ca8" x="61.55" y="62.477405" style="stroke: #000000; stroke-width: 0.8"/>
      </g>
     </g>
     <g id="text_14">
      <!-- 140 -->
      <g transform="translate(31.645 67.036468) scale(0.12 -0.12)">
       <use xlink:href="#DejaVuSans-31"/>
       <use xlink:href="#DejaVuSans-34" x="63.623047"/>
       <use xlink:href="#DejaVuSans-30" x="127.246094"/>
      </g>
     </g>
    </g>
    <g id="ytick_9">
     <g id="line2d_27">
      <path d="M 61.55 30.843435 
L 493.2 30.843435 
" clip-path="url(#p9698c9ce7b)" style="fill: none; stroke: #808080; stroke-width: 0.8; stroke-linecap: square"/>
     </g>
     <g id="line2d_28">
      <g>
       <use xlink:href="#m0c69520ca8" x="61.55" y="30.843435" style="stroke: #000000; stroke-width: 0.8"/>
      </g>
     </g>
     <g id="text_15">
      <!-- 160 -->
      <g transform="translate(31.645 35.402497) scale(0.12 -0.12)">
       <use xlink:href="#DejaVuSans-31"/>
       <use xlink:href="#DejaVuSans-36" x="63.623047"/>
       <use xlink:href="#DejaVuSans-30" x="127.246094"/>
      </g>
     </g>
    </g>
    <g id="text_16">
     <!-- $g_{m X1}\,$ [uS] -->
     <g transform="translate(25.125 197.75) rotate(-90) scale(0.12 -0.12)">
      <defs>
       <path id="DejaVuSans-Oblique-67" d="M 3816 3500 
L 3219 434 
Q 3047 -456 2561 -893 
Q 2075 -1331 1253 -1331 
Q 950 -1331 690 -1286 
Q 431 -1241 206 -1147 
L 313 -588 
Q 525 -725 762 -790 
Q 1000 -856 1269 -856 
Q 1816 -856 2167 -557 
Q 2519 -259 2631 300 
L 2681 563 
Q 2441 288 2122 144 
Q 1803 0 1434 0 
Q 903 0 598 351 
Q 294 703 294 1319 
Q 294 1803 478 2267 
Q 663 2731 997 3091 
Q 1219 3328 1514 3456 
Q 1809 3584 2131 3584 
Q 2484 3584 2746 3420 
Q 3009 3256 3138 2956 
L 3238 3500 
L 3816 3500 
z
M 2950 2216 
Q 2950 2641 2750 2872 
Q 2550 3103 2181 3103 
Q 1953 3103 1747 3012 
Q 1541 2922 1394 2759 
Q 1156 2491 1023 2127 
Q 891 1763 891 1375 
Q 891 944 1092 712 
Q 1294 481 1672 481 
Q 2219 481 2584 976 
Q 2950 1472 2950 2216 
z
" transform="scale(0.015625)"/>
       <path id="DejaVuSans-Oblique-6d" d="M 5747 2113 
L 5338 0 
L 4763 0 
L 5166 2094 
Q 5191 2228 5203 2325 
Q 5216 2422 5216 2491 
Q 5216 2772 5059 2928 
Q 4903 3084 4622 3084 
Q 4203 3084 3875 2770 
Q 3547 2456 3450 1953 
L 3066 0 
L 2491 0 
L 2900 2094 
Q 2925 2209 2937 2307 
Q 2950 2406 2950 2484 
Q 2950 2769 2794 2926 
Q 2638 3084 2363 3084 
Q 1938 3084 1609 2770 
Q 1281 2456 1184 1953 
L 800 0 
L 225 0 
L 909 3500 
L 1484 3500 
L 1375 2956 
Q 1609 3263 1923 3423 
Q 2238 3584 2597 3584 
Q 2978 3584 3223 3384 
Q 3469 3184 3519 2828 
Q 3781 3197 4126 3390 
Q 4472 3584 4856 3584 
Q 5306 3584 5551 3325 
Q 5797 3066 5797 2591 
Q 5797 2488 5784 2364 
Q 5772 2241 5747 2113 
z
" transform="scale(0.015625)"/>
       <path id="DejaVuSans-53" d="M 3425 4513 
L 3425 3897 
Q 3066 4069 2747 4153 
Q 2428 4238 2131 4238 
Q 1616 4238 1336 4038 
Q 1056 3838 1056 3469 
Q 1056 3159 1242 3001 
Q 1428 2844 1947 2747 
L 2328 2669 
Q 3034 2534 3370 2195 
Q 3706 1856 3706 1288 
Q 3706 609 3251 259 
Q 2797 -91 1919 -91 
Q 1588 -91 1214 -16 
Q 841 59 441 206 
L 441 856 
Q 825 641 1194 531 
Q 1563 422 1919 422 
Q 2459 422 2753 634 
Q 3047 847 3047 1241 
Q 3047 1584 2836 1778 
Q 2625 1972 2144 2069 
L 1759 2144 
Q 1053 2284 737 2584 
Q 422 2884 422 3419 
Q 422 4038 858 4394 
Q 1294 4750 2059 4750 
Q 2388 4750 2728 4690 
Q 3069 4631 3425 4513 
z
" transform="scale(0.015625)"/>
      </defs>
      <use xlink:href="#DejaVuSans-Oblique-67" transform="translate(0 0.015625)"/>
      <use xlink:href="#DejaVuSans-Oblique-6d" transform="translate(63.476562 -16.390625) scale(0.7)"/>
      <use xlink:href="#DejaVuSans-Oblique-58" transform="translate(131.665039 -16.390625) scale(0.7)"/>
      <use xlink:href="#DejaVuSans-31" transform="translate(179.619141 -16.390625) scale(0.7)"/>
      <use xlink:href="#DejaVuSans-20" transform="translate(243.125325 0.015625)"/>
      <use xlink:href="#DejaVuSans-5b" transform="translate(274.912434 0.015625)"/>
      <use xlink:href="#DejaVuSans-75" transform="translate(313.926106 0.015625)"/>
      <use xlink:href="#DejaVuSans-53" transform="translate(377.305012 0.015625)"/>
      <use xlink:href="#DejaVuSans-5d" transform="translate(440.781575 0.015625)"/>
     </g>
    </g>
   </g>
   <g id="line2d_29">
    <path d="M 81.170455 283.914987 
L 81.170469 283.914637 
L 81.170508 283.913706 
L 81.17061 283.911238 
L 81.170882 283.904712 
L 81.171598 283.887536 
L 81.173476 283.842683 
L 81.178352 283.727025 
L 81.190815 283.434821 
L 81.221918 282.720403 
L 81.296781 281.061666 
L 81.467843 277.500974 
L 81.832144 270.662155 
L 82.542505 259.258347 
L 83.795265 242.96989 
L 85.787564 222.826833 
L 88.665015 200.656429 
L 92.49276 178.268659 
L 97.261241 157.013214 
L 102.911967 137.712559 
L 109.364174 120.763132 
L 116.533135 106.268356 
L 124.339689 94.150974 
L 132.713852 84.23385 
L 141.595265 76.293248 
L 150.932292 70.091913 
L 160.680712 65.398543 
L 170.802426 61.998679 
L 181.264302 59.700802 
L 192.037145 58.340988 
L 203.09465 57.790389 
L 214.412001 57.972914 
L 225.963444 58.906828 
L 237.717552 60.790829 
L 249.628331 64.144022 
L 261.621051 69.929272 
L 273.576319 79.418469 
L 285.32467 93.559944 
L 296.667172 112.207444 
L 307.421067 134.051614 
L 317.464254 157.301658 
L 326.751583 180.364518 
L 335.301427 202.126663 
L 343.169833 221.946576 
L 350.427732 239.541705 
L 357.146656 254.867863 
L 363.391905 268.023712 
L 369.220319 279.184212 
L 374.680359 288.557591 
L 379.813093 296.359091 
" clip-path="url(#p9698c9ce7b)" style="fill: none; stroke: #ff0000; stroke-width: 2; stroke-linecap: square"/>
   </g>
   <g id="line2d_30">
    <path d="M 81.170455 283.914984 
L 81.170469 283.914629 
L 81.170509 283.913685 
L 81.170613 283.911182 
L 81.170888 283.904562 
L 81.171614 283.887141 
L 81.173519 283.841647 
L 81.178465 283.724337 
L 81.191106 283.427958 
L 81.222653 282.703335 
L 81.298585 281.020901 
L 81.472092 277.409342 
L 81.841596 270.472825 
L 82.562105 258.906106 
L 83.832763 242.384957 
L 85.853522 221.954142 
L 88.77208 199.467018 
L 92.654508 176.759422 
L 97.491109 155.200328 
L 103.22256 135.623948 
L 109.766942 118.432383 
L 117.038317 103.730529 
L 124.956394 91.440018 
L 133.450191 81.381157 
L 142.458488 73.326949 
L 151.928919 67.036574 
L 161.816652 62.274962 
L 172.083094 58.823365 
L 182.694773 56.484306 
L 193.62243 55.083122 
L 204.840295 54.467547 
L 216.325516 54.506212 
L 228.057707 55.086665 
L 240.018592 56.113216 
L 252.191707 57.504845 
L 264.562161 59.193322 
L 277.116427 61.121687 
L 289.842148 63.243415 
L 302.727907 65.522996 
L 315.762904 67.939773 
L 328.936307 70.499386 
L 342.235862 73.262274 
L 355.644814 76.406353 
L 369.13557 80.342654 
L 382.658367 85.864094 
L 396.125637 94.174306 
L 409.39986 106.504619 
L 422.300453 123.323277 
L 434.639006 143.860315 
L 446.267817 166.501145 
" clip-path="url(#p9698c9ce7b)" style="fill: none; stroke: #0000ff; stroke-width: 2; stroke-linecap: square"/>
   </g>
   <g id="line2d_31">
    <path d="M 81.170455 283.914981 
L 81.17047 283.914621 
L 81.170509 283.913664 
L 81.170615 283.911125 
L 81.170894 283.904412 
L 81.171631 283.886746 
L 81.173563 283.840611 
L 81.178578 283.721649 
L 81.191397 283.421096 
L 81.223388 282.686266 
L 81.30039 280.980136 
L 81.47634 277.317711 
L 81.851049 270.283496 
L 82.581706 258.553866 
L 83.87026 241.800024 
L 85.919481 221.081451 
L 88.879145 198.277607 
L 92.816255 175.250186 
L 97.720978 153.387442 
L 103.533153 133.535338 
L 110.16971 116.101639 
L 117.543498 101.192717 
L 125.573098 88.7291 
L 134.186526 78.528565 
L 143.3217 70.360917 
L 152.925518 63.981945 
L 162.952515 59.153268 
L 173.363554 55.653057 
L 184.124693 53.281052 
L 195.206261 51.860132 
L 206.582124 51.235881 
L 218.229109 51.275076 
L 230.126545 51.863665 
L 242.255897 52.904569 
L 254.600476 54.315521 
L 267.145192 56.027039 
L 279.876361 57.9806 
L 292.781533 60.127014 
L 305.849352 62.425012 
L 319.069438 64.840028 
L 332.432278 67.343154 
L 345.929139 69.910255 
L 359.551986 72.521231 
L 373.293412 75.159403 
L 387.146578 77.811045 
L 401.105147 80.465118 
L 415.163216 83.113359 
L 429.315225 85.75121 
L 443.555783 88.380738 
L 457.879288 91.018441 
" clip-path="url(#p9698c9ce7b)" style="fill: none; stroke: #008000; stroke-width: 2; stroke-linecap: square"/>
   </g>
   <g id="line2d_32">
    <path d="M 81.170455 283.914978 
L 81.17047 283.914613 
L 81.17051 283.913642 
L 81.170617 283.911069 
L 81.1709 283.904262 
L 81.171647 283.88635 
L 81.173606 283.839575 
L 81.178691 283.71896 
L 81.191688 283.414233 
L 81.224124 282.669198 
L 81.302195 280.939371 
L 81.480589 277.226079 
L 81.860502 270.094167 
L 82.601307 258.201625 
L 83.907758 241.215092 
L 85.98544 220.20876 
L 88.986211 197.088196 
L 92.978002 173.74095 
L 97.950846 151.574557 
L 103.843746 131.446729 
L 110.572477 113.770895 
L 118.048679 98.654905 
L 126.189801 86.018182 
L 134.92286 75.675973 
L 144.184912 67.394886 
L 153.922116 60.927317 
L 164.088377 56.031575 
L 174.644014 52.48275 
L 185.554613 50.0778 
L 196.790092 48.637145 
L 208.323953 48.004223 
L 220.132702 48.043963 
L 232.195379 48.640727 
L 244.493195 49.696088 
L 257.009226 51.126636 
L 269.728175 52.861925 
L 282.636165 54.842619 
L 295.720575 57.018844 
L 308.969893 59.348758 
L 322.373591 61.797312 
L 335.922027 64.335194 
L 349.606345 66.937925 
L 363.4184 69.5851 
L 377.350687 72.25974 
L 391.396277 74.947752 
L 405.548765 77.637469 
L 419.802219 80.319263 
L 434.151139 82.985226 
L 448.590417 85.628896 
L 463.115302 88.245027 
" clip-path="url(#p9698c9ce7b)" style="fill: none; stroke: #00bfbf; stroke-width: 2; stroke-linecap: square"/>
   </g>
   <g id="line2d_33">
    <path d="M 81.170455 283.914975 
L 81.17047 283.914605 
L 81.170511 283.913621 
L 81.17062 283.911012 
L 81.170907 283.904113 
L 81.171664 283.885955 
L 81.173649 283.838539 
L 81.178803 283.716272 
L 81.191979 283.407371 
L 81.224859 282.652129 
L 81.304 280.898607 
L 81.484837 277.134447 
L 81.869955 269.904838 
L 82.620908 257.849384 
L 83.945255 240.630159 
L 86.051399 219.336069 
L 89.093276 195.898785 
L 93.13975 172.231714 
L 98.180715 149.761671 
L 104.15434 129.35812 
L 110.975245 111.440151 
L 118.55386 96.117093 
L 126.806505 83.307264 
L 135.659194 72.823381 
L 145.048124 64.428854 
L 154.918714 57.872688 
L 165.224239 52.909881 
L 175.924474 49.312442 
L 186.984533 46.874548 
L 198.373923 45.414158 
L 210.065782 44.772566 
L 222.036294 44.81285 
L 234.264214 45.417789 
L 246.730493 46.487608 
L 259.417976 47.937752 
L 272.311157 49.696812 
L 285.39597 51.704638 
L 298.659618 53.910674 
L 312.090433 56.272505 
L 325.677744 58.754601 
L 339.411774 61.327249 
L 353.283549 63.965634 
L 367.284811 66.649071 
L 381.407951 69.360351 
L 395.645946 72.085185 
L 409.992304 74.811746 
L 424.441011 77.530277 
L 438.986491 80.232759 
L 453.623567 82.912642 
L 468.347424 85.564604 
" clip-path="url(#p9698c9ce7b)" style="fill: none; stroke: #bf00bf; stroke-width: 2; stroke-linecap: square"/>
   </g>
   <g id="line2d_34">
    <path d="M 81.170455 283.914972 
L 81.170471 283.914597 
L 81.170512 283.9136 
L 81.170622 283.910955 
L 81.170913 283.903963 
L 81.17168 283.88556 
L 81.173692 283.837503 
L 81.178916 283.713584 
L 81.19227 283.400508 
L 81.225594 282.635061 
L 81.305805 280.857842 
L 81.489086 277.042815 
L 81.879408 269.715509 
L 82.640509 257.497144 
L 83.982753 240.045226 
L 86.117358 218.463378 
L 89.200341 194.709374 
L 93.301497 170.722477 
L 98.410583 147.948786 
L 104.464933 127.269511 
L 111.378012 109.109408 
L 119.059042 93.57928 
L 127.423208 80.596346 
L 136.395529 69.970789 
L 145.911336 61.462822 
L 155.915312 54.81806 
L 166.360101 49.788188 
L 177.204933 46.142135 
L 188.414454 43.671296 
L 199.957753 42.191171 
L 211.807611 41.540909 
L 223.939887 41.581738 
L 236.333049 42.194851 
L 248.967791 43.279127 
L 261.826727 44.748867 
L 274.89414 46.531699 
L 288.155774 48.566658 
L 301.598661 50.802505 
L 315.210973 53.196252 
L 328.981896 55.711891 
L 342.901522 58.319303 
L 356.960753 60.993342 
L 371.151221 63.713043 
L 385.465214 66.460961 
L 399.895615 69.222617 
L 414.435843 71.986024 
L 429.079802 74.741291 
L 443.821843 77.480294 
L 458.656718 80.196391 
L 473.579545 82.884191 
" clip-path="url(#p9698c9ce7b)" style="fill: none; stroke: #bfbf00; stroke-width: 2; stroke-linecap: square"/>
   </g>
   <g id="patch_3">
    <path d="M 61.55 309.1 
L 61.55 28.8 
" style="fill: none; stroke: #000000; stroke-width: 0.8; stroke-linejoin: miter; stroke-linecap: square"/>
   </g>
   <g id="patch_4">
    <path d="M 493.2 309.1 
L 493.2 28.8 
" style="fill: none; stroke: #000000; stroke-width: 0.8; stroke-linejoin: miter; stroke-linecap: square"/>
   </g>
   <g id="patch_5">
    <path d="M 61.55 309.1 
L 493.2 309.1 
" style="fill: none; stroke: #000000; stroke-width: 0.8; stroke-linejoin: miter; stroke-linecap: square"/>
   </g>
   <g id="patch_6">
    <path d="M 61.55 28.8 
L 493.2 28.8 
" style="fill: none; stroke: #000000; stroke-width: 0.8; stroke-linejoin: miter; stroke-linecap: square"/>
   </g>
   <g id="text_17">
    <!-- $g_m(I_{ds})$ -->
    <g transform="translate(257.815 22.8) scale(0.12 -0.12)">
     <defs>
      <path id="DejaVuSans-28" d="M 1984 4856 
Q 1566 4138 1362 3434 
Q 1159 2731 1159 2009 
Q 1159 1288 1364 580 
Q 1569 -128 1984 -844 
L 1484 -844 
Q 1016 -109 783 600 
Q 550 1309 550 2009 
Q 550 2706 781 3412 
Q 1013 4119 1484 4856 
L 1984 4856 
z
" transform="scale(0.015625)"/>
      <path id="DejaVuSans-Oblique-64" d="M 2675 525 
Q 2444 222 2128 65 
Q 1813 -91 1428 -91 
Q 903 -91 598 267 
Q 294 625 294 1247 
Q 294 1766 478 2236 
Q 663 2706 1013 3078 
Q 1244 3325 1534 3454 
Q 1825 3584 2144 3584 
Q 2481 3584 2739 3421 
Q 2997 3259 3138 2956 
L 3513 4863 
L 4091 4863 
L 3144 0 
L 2566 0 
L 2675 525 
z
M 891 1350 
Q 891 897 1095 644 
Q 1300 391 1663 391 
Q 1931 391 2161 520 
Q 2391 650 2566 903 
Q 2750 1166 2856 1509 
Q 2963 1853 2963 2188 
Q 2963 2622 2758 2865 
Q 2553 3109 2194 3109 
Q 1922 3109 1687 2981 
Q 1453 2853 1288 2613 
Q 1106 2353 998 2009 
Q 891 1666 891 1350 
z
" transform="scale(0.015625)"/>
      <path id="DejaVuSans-Oblique-73" d="M 3200 3397 
L 3091 2853 
Q 2863 2978 2609 3040 
Q 2356 3103 2088 3103 
Q 1634 3103 1373 2948 
Q 1113 2794 1113 2528 
Q 1113 2219 1719 2053 
Q 1766 2041 1788 2034 
L 1972 1978 
Q 2547 1819 2739 1644 
Q 2931 1469 2931 1166 
Q 2931 609 2489 259 
Q 2047 -91 1331 -91 
Q 1053 -91 747 -37 
Q 441 16 72 128 
L 184 722 
Q 500 559 806 475 
Q 1113 391 1394 391 
Q 1816 391 2080 572 
Q 2344 753 2344 1031 
Q 2344 1331 1650 1516 
L 1591 1531 
L 1394 1581 
Q 956 1697 753 1886 
Q 550 2075 550 2369 
Q 550 2928 970 3256 
Q 1391 3584 2113 3584 
Q 2397 3584 2667 3537 
Q 2938 3491 3200 3397 
z
" transform="scale(0.015625)"/>
      <path id="DejaVuSans-29" d="M 513 4856 
L 1013 4856 
Q 1481 4119 1714 3412 
Q 1947 2706 1947 2009 
Q 1947 1309 1714 600 
Q 1481 -109 1013 -844 
L 513 -844 
Q 928 -128 1133 580 
Q 1338 1288 1338 2009 
Q 1338 2731 1133 3434 
Q 928 4138 513 4856 
z
" transform="scale(0.015625)"/>
     </defs>
     <use xlink:href="#DejaVuSans-Oblique-67" transform="translate(0 0.125)"/>
     <use xlink:href="#DejaVuSans-Oblique-6d" transform="translate(63.476562 -16.28125) scale(0.7)"/>
     <use xlink:href="#DejaVuSans-28" transform="translate(134.399414 0.125)"/>
     <use xlink:href="#DejaVuSans-Oblique-49" transform="translate(173.413086 0.125)"/>
     <use xlink:href="#DejaVuSans-Oblique-64" transform="translate(202.905273 -16.28125) scale(0.7)"/>
     <use xlink:href="#DejaVuSans-Oblique-73" transform="translate(247.338867 -16.28125) scale(0.7)"/>
     <use xlink:href="#DejaVuSans-29" transform="translate(286.542969 0.125)"/>
    </g>
   </g>
   <g id="legend_1">
    <g id="patch_7">
     <path d="M 209.215 304.1 
L 345.535 304.1 
Q 347.535 304.1 347.535 302.1 
L 347.535 232.27125 
Q 347.535 230.27125 345.535 230.27125 
L 209.215 230.27125 
Q 207.215 230.27125 207.215 232.27125 
L 207.215 302.1 
Q 207.215 304.1 209.215 304.1 
z
" style="fill: #ffffff; opacity: 0.8; stroke: #cccccc; stroke-linejoin: miter"/>
    </g>
    <g id="line2d_35">
     <path d="M 209.215 237.889375 
L 214.215 237.889375 
L 219.215 237.889375 
" style="fill: none; stroke: #ff0000; stroke-width: 2; stroke-linecap: square"/>
    </g>
    <g id="text_18">
     <!-- $g_{m X1}: V_{D}$ =  6.0e-01 -->
     <g transform="translate(221.215 241.389375) scale(0.12 -0.12)">
      <defs>
       <path id="DejaVuSans-3a" d="M 750 794 
L 1409 794 
L 1409 0 
L 750 0 
L 750 794 
z
M 750 3309 
L 1409 3309 
L 1409 2516 
L 750 2516 
L 750 3309 
z
" transform="scale(0.015625)"/>
       <path id="DejaVuSans-Oblique-56" d="M 1319 0 
L 500 4666 
L 1119 4666 
L 1797 653 
L 4063 4666 
L 4750 4666 
L 2053 0 
L 1319 0 
z
" transform="scale(0.015625)"/>
       <path id="DejaVuSans-3d" d="M 678 2906 
L 4684 2906 
L 4684 2381 
L 678 2381 
L 678 2906 
z
M 678 1631 
L 4684 1631 
L 4684 1100 
L 678 1100 
L 678 1631 
z
" transform="scale(0.015625)"/>
       <path id="DejaVuSans-2e" d="M 684 794 
L 1344 794 
L 1344 0 
L 684 0 
L 684 794 
z
" transform="scale(0.015625)"/>
       <path id="DejaVuSans-65" d="M 3597 1894 
L 3597 1613 
L 953 1613 
Q 991 1019 1311 708 
Q 1631 397 2203 397 
Q 2534 397 2845 478 
Q 3156 559 3463 722 
L 3463 178 
Q 3153 47 2828 -22 
Q 2503 -91 2169 -91 
Q 1331 -91 842 396 
Q 353 884 353 1716 
Q 353 2575 817 3079 
Q 1281 3584 2069 3584 
Q 2775 3584 3186 3129 
Q 3597 2675 3597 1894 
z
M 3022 2063 
Q 3016 2534 2758 2815 
Q 2500 3097 2075 3097 
Q 1594 3097 1305 2825 
Q 1016 2553 972 2059 
L 3022 2063 
z
" transform="scale(0.015625)"/>
       <path id="DejaVuSans-2d" d="M 313 2009 
L 1997 2009 
L 1997 1497 
L 313 1497 
L 313 2009 
z
" transform="scale(0.015625)"/>
      </defs>
      <use xlink:href="#DejaVuSans-Oblique-67" transform="translate(0 0.78125)"/>
      <use xlink:href="#DejaVuSans-Oblique-6d" transform="translate(63.476562 -15.625) scale(0.7)"/>
      <use xlink:href="#DejaVuSans-Oblique-58" transform="translate(131.665039 -15.625) scale(0.7)"/>
      <use xlink:href="#DejaVuSans-31" transform="translate(179.619141 -15.625) scale(0.7)"/>
      <use xlink:href="#DejaVuSans-3a" transform="translate(246.37207 0.78125)"/>
      <use xlink:href="#DejaVuSans-Oblique-56" transform="translate(299.545898 0.78125)"/>
      <use xlink:href="#DejaVuSans-Oblique-44" transform="translate(367.954102 -15.625) scale(0.7)"/>
      <use xlink:href="#DejaVuSans-20" transform="translate(424.589844 0.78125)"/>
      <use xlink:href="#DejaVuSans-3d" transform="translate(456.376953 0.78125)"/>
      <use xlink:href="#DejaVuSans-20" transform="translate(540.166016 0.78125)"/>
      <use xlink:href="#DejaVuSans-20" transform="translate(571.953125 0.78125)"/>
      <use xlink:href="#DejaVuSans-36" transform="translate(603.740234 0.78125)"/>
      <use xlink:href="#DejaVuSans-2e" transform="translate(667.363281 0.78125)"/>
      <use xlink:href="#DejaVuSans-30" transform="translate(699.150391 0.78125)"/>
      <use xlink:href="#DejaVuSans-65" transform="translate(762.773438 0.78125)"/>
      <use xlink:href="#DejaVuSans-2d" transform="translate(824.296875 0.78125)"/>
      <use xlink:href="#DejaVuSans-30" transform="translate(860.380859 0.78125)"/>
      <use xlink:href="#DejaVuSans-31" transform="translate(924.003906 0.78125)"/>
     </g>
    </g>
    <g id="line2d_36">
     <path d="M 209.215 249.5275 
L 214.215 249.5275 
L 219.215 249.5275 
" style="fill: none; stroke: #0000ff; stroke-width: 2; stroke-linecap: square"/>
    </g>
    <g id="text_19">
     <!-- $g_{m X1}: V_{D}$ =  8.4e-01 -->
     <g transform="translate(221.215 253.0275) scale(0.12 -0.12)">
      <use xlink:href="#DejaVuSans-Oblique-67" transform="translate(0 0.78125)"/>
      <use xlink:href="#DejaVuSans-Oblique-6d" transform="translate(63.476562 -15.625) scale(0.7)"/>
      <use xlink:href="#DejaVuSans-Oblique-58" transform="translate(131.665039 -15.625) scale(0.7)"/>
      <use xlink:href="#DejaVuSans-31" transform="translate(179.619141 -15.625) scale(0.7)"/>
      <use xlink:href="#DejaVuSans-3a" transform="translate(246.37207 0.78125)"/>
      <use xlink:href="#DejaVuSans-Oblique-56" transform="translate(299.545898 0.78125)"/>
      <use xlink:href="#DejaVuSans-Oblique-44" transform="translate(367.954102 -15.625) scale(0.7)"/>
      <use xlink:href="#DejaVuSans-20" transform="translate(424.589844 0.78125)"/>
      <use xlink:href="#DejaVuSans-3d" transform="translate(456.376953 0.78125)"/>
      <use xlink:href="#DejaVuSans-20" transform="translate(540.166016 0.78125)"/>
      <use xlink:href="#DejaVuSans-20" transform="translate(571.953125 0.78125)"/>
      <use xlink:href="#DejaVuSans-38" transform="translate(603.740234 0.78125)"/>
      <use xlink:href="#DejaVuSans-2e" transform="translate(667.363281 0.78125)"/>
      <use xlink:href="#DejaVuSans-34" transform="translate(699.150391 0.78125)"/>
      <use xlink:href="#DejaVuSans-65" transform="translate(762.773438 0.78125)"/>
      <use xlink:href="#DejaVuSans-2d" transform="translate(824.296875 0.78125)"/>
      <use xlink:href="#DejaVuSans-30" transform="translate(860.380859 0.78125)"/>
      <use xlink:href="#DejaVuSans-31" transform="translate(924.003906 0.78125)"/>
     </g>
    </g>
    <g id="line2d_37">
     <path d="M 209.215 261.165625 
L 214.215 261.165625 
L 219.215 261.165625 
" style="fill: none; stroke: #008000; stroke-width: 2; stroke-linecap: square"/>
    </g>
    <g id="text_20">
     <!-- $g_{m X1}: V_{D}$ =  1.1e+00 -->
     <g transform="translate(221.215 264.665625) scale(0.12 -0.12)">
      <defs>
       <path id="DejaVuSans-2b" d="M 2944 4013 
L 2944 2272 
L 4684 2272 
L 4684 1741 
L 2944 1741 
L 2944 0 
L 2419 0 
L 2419 1741 
L 678 1741 
L 678 2272 
L 2419 2272 
L 2419 4013 
L 2944 4013 
z
" transform="scale(0.015625)"/>
      </defs>
      <use xlink:href="#DejaVuSans-Oblique-67" transform="translate(0 0.78125)"/>
      <use xlink:href="#DejaVuSans-Oblique-6d" transform="translate(63.476562 -15.625) scale(0.7)"/>
      <use xlink:href="#DejaVuSans-Oblique-58" transform="translate(131.665039 -15.625) scale(0.7)"/>
      <use xlink:href="#DejaVuSans-31" transform="translate(179.619141 -15.625) scale(0.7)"/>
      <use xlink:href="#DejaVuSans-3a" transform="translate(246.37207 0.78125)"/>
      <use xlink:href="#DejaVuSans-Oblique-56" transform="translate(299.545898 0.78125)"/>
      <use xlink:href="#DejaVuSans-Oblique-44" transform="translate(367.954102 -15.625) scale(0.7)"/>
      <use xlink:href="#DejaVuSans-20" transform="translate(424.589844 0.78125)"/>
      <use xlink:href="#DejaVuSans-3d" transform="translate(456.376953 0.78125)"/>
      <use xlink:href="#DejaVuSans-20" transform="translate(540.166016 0.78125)"/>
      <use xlink:href="#DejaVuSans-20" transform="translate(571.953125 0.78125)"/>
      <use xlink:href="#DejaVuSans-31" transform="translate(603.740234 0.78125)"/>
      <use xlink:href="#DejaVuSans-2e" transform="translate(667.363281 0.78125)"/>
      <use xlink:href="#DejaVuSans-31" transform="translate(699.150391 0.78125)"/>
      <use xlink:href="#DejaVuSans-65" transform="translate(762.773438 0.78125)"/>
      <use xlink:href="#DejaVuSans-2b" transform="translate(824.296875 0.78125)"/>
      <use xlink:href="#DejaVuSans-30" transform="translate(908.085938 0.78125)"/>
      <use xlink:href="#DejaVuSans-30" transform="translate(971.708984 0.78125)"/>
     </g>
    </g>
    <g id="line2d_38">
     <path d="M 209.215 272.80375 
L 214.215 272.80375 
L 219.215 272.80375 
" style="fill: none; stroke: #00bfbf; stroke-width: 2; stroke-linecap: square"/>
    </g>
    <g id="text_21">
     <!-- $g_{m X1}: V_{D}$ =  1.3e+00 -->
     <g transform="translate(221.215 276.30375) scale(0.12 -0.12)">
      <defs>
       <path id="DejaVuSans-33" d="M 2597 2516 
Q 3050 2419 3304 2112 
Q 3559 1806 3559 1356 
Q 3559 666 3084 287 
Q 2609 -91 1734 -91 
Q 1441 -91 1130 -33 
Q 819 25 488 141 
L 488 750 
Q 750 597 1062 519 
Q 1375 441 1716 441 
Q 2309 441 2620 675 
Q 2931 909 2931 1356 
Q 2931 1769 2642 2001 
Q 2353 2234 1838 2234 
L 1294 2234 
L 1294 2753 
L 1863 2753 
Q 2328 2753 2575 2939 
Q 2822 3125 2822 3475 
Q 2822 3834 2567 4026 
Q 2313 4219 1838 4219 
Q 1578 4219 1281 4162 
Q 984 4106 628 3988 
L 628 4550 
Q 988 4650 1302 4700 
Q 1616 4750 1894 4750 
Q 2613 4750 3031 4423 
Q 3450 4097 3450 3541 
Q 3450 3153 3228 2886 
Q 3006 2619 2597 2516 
z
" transform="scale(0.015625)"/>
      </defs>
      <use xlink:href="#DejaVuSans-Oblique-67" transform="translate(0 0.78125)"/>
      <use xlink:href="#DejaVuSans-Oblique-6d" transform="translate(63.476562 -15.625) scale(0.7)"/>
      <use xlink:href="#DejaVuSans-Oblique-58" transform="translate(131.665039 -15.625) scale(0.7)"/>
      <use xlink:href="#DejaVuSans-31" transform="translate(179.619141 -15.625) scale(0.7)"/>
      <use xlink:href="#DejaVuSans-3a" transform="translate(246.37207 0.78125)"/>
      <use xlink:href="#DejaVuSans-Oblique-56" transform="translate(299.545898 0.78125)"/>
      <use xlink:href="#DejaVuSans-Oblique-44" transform="translate(367.954102 -15.625) scale(0.7)"/>
      <use xlink:href="#DejaVuSans-20" transform="translate(424.589844 0.78125)"/>
      <use xlink:href="#DejaVuSans-3d" transform="translate(456.376953 0.78125)"/>
      <use xlink:href="#DejaVuSans-20" transform="translate(540.166016 0.78125)"/>
      <use xlink:href="#DejaVuSans-20" transform="translate(571.953125 0.78125)"/>
      <use xlink:href="#DejaVuSans-31" transform="translate(603.740234 0.78125)"/>
      <use xlink:href="#DejaVuSans-2e" transform="translate(667.363281 0.78125)"/>
      <use xlink:href="#DejaVuSans-33" transform="translate(699.150391 0.78125)"/>
      <use xlink:href="#DejaVuSans-65" transform="translate(762.773438 0.78125)"/>
      <use xlink:href="#DejaVuSans-2b" transform="translate(824.296875 0.78125)"/>
      <use xlink:href="#DejaVuSans-30" transform="translate(908.085938 0.78125)"/>
      <use xlink:href="#DejaVuSans-30" transform="translate(971.708984 0.78125)"/>
     </g>
    </g>
    <g id="line2d_39">
     <path d="M 209.215 284.441875 
L 214.215 284.441875 
L 219.215 284.441875 
" style="fill: none; stroke: #bf00bf; stroke-width: 2; stroke-linecap: square"/>
    </g>
    <g id="text_22">
     <!-- $g_{m X1}: V_{D}$ =  1.6e+00 -->
     <g transform="translate(221.215 287.941875) scale(0.12 -0.12)">
      <use xlink:href="#DejaVuSans-Oblique-67" transform="translate(0 0.78125)"/>
      <use xlink:href="#DejaVuSans-Oblique-6d" transform="translate(63.476562 -15.625) scale(0.7)"/>
      <use xlink:href="#DejaVuSans-Oblique-58" transform="translate(131.665039 -15.625) scale(0.7)"/>
      <use xlink:href="#DejaVuSans-31" transform="translate(179.619141 -15.625) scale(0.7)"/>
      <use xlink:href="#DejaVuSans-3a" transform="translate(246.37207 0.78125)"/>
      <use xlink:href="#DejaVuSans-Oblique-56" transform="translate(299.545898 0.78125)"/>
      <use xlink:href="#DejaVuSans-Oblique-44" transform="translate(367.954102 -15.625) scale(0.7)"/>
      <use xlink:href="#DejaVuSans-20" transform="translate(424.589844 0.78125)"/>
      <use xlink:href="#DejaVuSans-3d" transform="translate(456.376953 0.78125)"/>
      <use xlink:href="#DejaVuSans-20" transform="translate(540.166016 0.78125)"/>
      <use xlink:href="#DejaVuSans-20" transform="translate(571.953125 0.78125)"/>
      <use xlink:href="#DejaVuSans-31" transform="translate(603.740234 0.78125)"/>
      <use xlink:href="#DejaVuSans-2e" transform="translate(667.363281 0.78125)"/>
      <use xlink:href="#DejaVuSans-36" transform="translate(699.150391 0.78125)"/>
      <use xlink:href="#DejaVuSans-65" transform="translate(762.773438 0.78125)"/>
      <use xlink:href="#DejaVuSans-2b" transform="translate(824.296875 0.78125)"/>
      <use xlink:href="#DejaVuSans-30" transform="translate(908.085938 0.78125)"/>
      <use xlink:href="#DejaVuSans-30" transform="translate(971.708984 0.78125)"/>
     </g>
    </g>
    <g id="line2d_40">
     <path d="M 209.215 296.08 
L 214.215 296.08 
L 219.215 296.08 
" style="fill: none; stroke: #bfbf00; stroke-width: 2; stroke-linecap: square"/>
    </g>
    <g id="text_23">
     <!-- $g_{m X1}: V_{D}$ =  1.8e+00 -->
     <g transform="translate(221.215 299.58) scale(0.12 -0.12)">
      <use xlink:href="#DejaVuSans-Oblique-67" transform="translate(0 0.78125)"/>
      <use xlink:href="#DejaVuSans-Oblique-6d" transform="translate(63.476562 -15.625) scale(0.7)"/>
      <use xlink:href="#DejaVuSans-Oblique-58" transform="translate(131.665039 -15.625) scale(0.7)"/>
      <use xlink:href="#DejaVuSans-31" transform="translate(179.619141 -15.625) scale(0.7)"/>
      <use xlink:href="#DejaVuSans-3a" transform="translate(246.37207 0.78125)"/>
      <use xlink:href="#DejaVuSans-Oblique-56" transform="translate(299.545898 0.78125)"/>
      <use xlink:href="#DejaVuSans-Oblique-44" transform="translate(367.954102 -15.625) scale(0.7)"/>
      <use xlink:href="#DejaVuSans-20" transform="translate(424.589844 0.78125)"/>
      <use xlink:href="#DejaVuSans-3d" transform="translate(456.376953 0.78125)"/>
      <use xlink:href="#DejaVuSans-20" transform="translate(540.166016 0.78125)"/>
      <use xlink:href="#DejaVuSans-20" transform="translate(571.953125 0.78125)"/>
      <use xlink:href="#DejaVuSans-31" transform="translate(603.740234 0.78125)"/>
      <use xlink:href="#DejaVuSans-2e" transform="translate(667.363281 0.78125)"/>
      <use xlink:href="#DejaVuSans-38" transform="translate(696.525391 0.78125)"/>
      <use xlink:href="#DejaVuSans-65" transform="translate(760.148438 0.78125)"/>
      <use xlink:href="#DejaVuSans-2b" transform="translate(821.671875 0.78125)"/>
      <use xlink:href="#DejaVuSans-30" transform="translate(905.460938 0.78125)"/>
      <use xlink:href="#DejaVuSans-30" transform="translate(969.083984 0.78125)"/>
     </g>
    </g>
   </g>
  </g>
 </g>
 <defs>
  <clipPath id="p9698c9ce7b">
   <rect x="61.55" y="28.8" width="431.65" height="280.3"/>
  </clipPath>
 </defs>
</svg>
