<?xml version="1.0" encoding="utf-8" standalone="no"?>
<!DOCTYPE svg PUBLIC "-//W3C//DTD SVG 1.1//EN"
  "http://www.w3.org/Graphics/SVG/1.1/DTD/svg11.dtd">
<svg xmlns:xlink="http://www.w3.org/1999/xlink" width="504pt" height="360pt" viewBox="0 0 504 360" xmlns="http://www.w3.org/2000/svg" version="1.1">
 <metadata>
  <rdf:RDF xmlns:dc="http://purl.org/dc/elements/1.1/" xmlns:cc="http://creativecommons.org/ns#" xmlns:rdf="http://www.w3.org/1999/02/22-rdf-syntax-ns#">
   <cc:Work>
    <dc:type rdf:resource="http://purl.org/dc/dcmitype/StillImage"/>
    <dc:date>2024-10-20T17:46:51.720734</dc:date>
    <dc:format>image/svg+xml</dc:format>
    <dc:creator>
     <cc:Agent>
      <dc:title>Matplotlib v3.9.2, https://matplotlib.org/</dc:title>
     </cc:Agent>
    </dc:creator>
   </cc:Work>
  </rdf:RDF>
 </metadata>
 <defs>
  <style type="text/css">*{stroke-linejoin: round; stroke-linecap: butt}</style>
 </defs>
 <g id="figure_1">
  <g id="patch_1">
   <path d="M 0 360 
L 504 360 
L 504 0 
L 0 0 
z
" style="fill: #ffffff"/>
  </g>
  <g id="axes_1">
   <g id="patch_2">
    <path d="M 60.525 309.1 
L 493.2 309.1 
L 493.2 28.8 
L 60.525 28.8 
z
" style="fill: #ffffff"/>
   </g>
   <g id="matplotlib.axis_1">
    <g id="xtick_1">
     <g id="line2d_1">
      <path d="M 80.192045 309.1 
L 80.192045 28.8 
" clip-path="url(#p323ceb885e)" style="fill: none; stroke: #808080; stroke-width: 0.8; stroke-linecap: square"/>
     </g>
     <g id="line2d_2">
      <defs>
       <path id="m6ca42ab419" d="M 0 0 
L 0 3.5 
" style="stroke: #000000; stroke-width: 0.8"/>
      </defs>
      <g>
       <use xlink:href="#m6ca42ab419" x="80.192045" y="309.1" style="stroke: #000000; stroke-width: 0.8"/>
      </g>
     </g>
     <g id="text_1">
      <!-- 0.00 -->
      <g transform="translate(66.83267 325.218125) scale(0.12 -0.12)">
       <defs>
        <path id="DejaVuSans-30" d="M 2034 4250 
Q 1547 4250 1301 3770 
Q 1056 3291 1056 2328 
Q 1056 1369 1301 889 
Q 1547 409 2034 409 
Q 2525 409 2770 889 
Q 3016 1369 3016 2328 
Q 3016 3291 2770 3770 
Q 2525 4250 2034 4250 
z
M 2034 4750 
Q 2819 4750 3233 4129 
Q 3647 3509 3647 2328 
Q 3647 1150 3233 529 
Q 2819 -91 2034 -91 
Q 1250 -91 836 529 
Q 422 1150 422 2328 
Q 422 3509 836 4129 
Q 1250 4750 2034 4750 
z
" transform="scale(0.015625)"/>
        <path id="DejaVuSans-2e" d="M 684 794 
L 1344 794 
L 1344 0 
L 684 0 
L 684 794 
z
" transform="scale(0.015625)"/>
       </defs>
       <use xlink:href="#DejaVuSans-30"/>
       <use xlink:href="#DejaVuSans-2e" x="63.623047"/>
       <use xlink:href="#DejaVuSans-30" x="95.410156"/>
       <use xlink:href="#DejaVuSans-30" x="159.033203"/>
      </g>
     </g>
    </g>
    <g id="xtick_2">
     <g id="line2d_3">
      <path d="M 134.822727 309.1 
L 134.822727 28.8 
" clip-path="url(#p323ceb885e)" style="fill: none; stroke: #808080; stroke-width: 0.8; stroke-linecap: square"/>
     </g>
     <g id="line2d_4">
      <g>
       <use xlink:href="#m6ca42ab419" x="134.822727" y="309.1" style="stroke: #000000; stroke-width: 0.8"/>
      </g>
     </g>
     <g id="text_2">
      <!-- 0.25 -->
      <g transform="translate(121.463352 325.218125) scale(0.12 -0.12)">
       <defs>
        <path id="DejaVuSans-32" d="M 1228 531 
L 3431 531 
L 3431 0 
L 469 0 
L 469 531 
Q 828 903 1448 1529 
Q 2069 2156 2228 2338 
Q 2531 2678 2651 2914 
Q 2772 3150 2772 3378 
Q 2772 3750 2511 3984 
Q 2250 4219 1831 4219 
Q 1534 4219 1204 4116 
Q 875 4013 500 3803 
L 500 4441 
Q 881 4594 1212 4672 
Q 1544 4750 1819 4750 
Q 2544 4750 2975 4387 
Q 3406 4025 3406 3419 
Q 3406 3131 3298 2873 
Q 3191 2616 2906 2266 
Q 2828 2175 2409 1742 
Q 1991 1309 1228 531 
z
" transform="scale(0.015625)"/>
        <path id="DejaVuSans-35" d="M 691 4666 
L 3169 4666 
L 3169 4134 
L 1269 4134 
L 1269 2991 
Q 1406 3038 1543 3061 
Q 1681 3084 1819 3084 
Q 2600 3084 3056 2656 
Q 3513 2228 3513 1497 
Q 3513 744 3044 326 
Q 2575 -91 1722 -91 
Q 1428 -91 1123 -41 
Q 819 9 494 109 
L 494 744 
Q 775 591 1075 516 
Q 1375 441 1709 441 
Q 2250 441 2565 725 
Q 2881 1009 2881 1497 
Q 2881 1984 2565 2268 
Q 2250 2553 1709 2553 
Q 1456 2553 1204 2497 
Q 953 2441 691 2322 
L 691 4666 
z
" transform="scale(0.015625)"/>
       </defs>
       <use xlink:href="#DejaVuSans-30"/>
       <use xlink:href="#DejaVuSans-2e" x="63.623047"/>
       <use xlink:href="#DejaVuSans-32" x="95.410156"/>
       <use xlink:href="#DejaVuSans-35" x="159.033203"/>
      </g>
     </g>
    </g>
    <g id="xtick_3">
     <g id="line2d_5">
      <path d="M 189.453409 309.1 
L 189.453409 28.8 
" clip-path="url(#p323ceb885e)" style="fill: none; stroke: #808080; stroke-width: 0.8; stroke-linecap: square"/>
     </g>
     <g id="line2d_6">
      <g>
       <use xlink:href="#m6ca42ab419" x="189.453409" y="309.1" style="stroke: #000000; stroke-width: 0.8"/>
      </g>
     </g>
     <g id="text_3">
      <!-- 0.50 -->
      <g transform="translate(176.094034 325.218125) scale(0.12 -0.12)">
       <use xlink:href="#DejaVuSans-30"/>
       <use xlink:href="#DejaVuSans-2e" x="63.623047"/>
       <use xlink:href="#DejaVuSans-35" x="95.410156"/>
       <use xlink:href="#DejaVuSans-30" x="159.033203"/>
      </g>
     </g>
    </g>
    <g id="xtick_4">
     <g id="line2d_7">
      <path d="M 244.084091 309.1 
L 244.084091 28.8 
" clip-path="url(#p323ceb885e)" style="fill: none; stroke: #808080; stroke-width: 0.8; stroke-linecap: square"/>
     </g>
     <g id="line2d_8">
      <g>
       <use xlink:href="#m6ca42ab419" x="244.084091" y="309.1" style="stroke: #000000; stroke-width: 0.8"/>
      </g>
     </g>
     <g id="text_4">
      <!-- 0.75 -->
      <g transform="translate(230.724716 325.218125) scale(0.12 -0.12)">
       <defs>
        <path id="DejaVuSans-37" d="M 525 4666 
L 3525 4666 
L 3525 4397 
L 1831 0 
L 1172 0 
L 2766 4134 
L 525 4134 
L 525 4666 
z
" transform="scale(0.015625)"/>
       </defs>
       <use xlink:href="#DejaVuSans-30"/>
       <use xlink:href="#DejaVuSans-2e" x="63.623047"/>
       <use xlink:href="#DejaVuSans-37" x="95.410156"/>
       <use xlink:href="#DejaVuSans-35" x="159.033203"/>
      </g>
     </g>
    </g>
    <g id="xtick_5">
     <g id="line2d_9">
      <path d="M 298.714773 309.1 
L 298.714773 28.8 
" clip-path="url(#p323ceb885e)" style="fill: none; stroke: #808080; stroke-width: 0.8; stroke-linecap: square"/>
     </g>
     <g id="line2d_10">
      <g>
       <use xlink:href="#m6ca42ab419" x="298.714773" y="309.1" style="stroke: #000000; stroke-width: 0.8"/>
      </g>
     </g>
     <g id="text_5">
      <!-- 1.00 -->
      <g transform="translate(285.355398 325.218125) scale(0.12 -0.12)">
       <defs>
        <path id="DejaVuSans-31" d="M 794 531 
L 1825 531 
L 1825 4091 
L 703 3866 
L 703 4441 
L 1819 4666 
L 2450 4666 
L 2450 531 
L 3481 531 
L 3481 0 
L 794 0 
L 794 531 
z
" transform="scale(0.015625)"/>
       </defs>
       <use xlink:href="#DejaVuSans-31"/>
       <use xlink:href="#DejaVuSans-2e" x="63.623047"/>
       <use xlink:href="#DejaVuSans-30" x="95.410156"/>
       <use xlink:href="#DejaVuSans-30" x="159.033203"/>
      </g>
     </g>
    </g>
    <g id="xtick_6">
     <g id="line2d_11">
      <path d="M 353.345455 309.1 
L 353.345455 28.8 
" clip-path="url(#p323ceb885e)" style="fill: none; stroke: #808080; stroke-width: 0.8; stroke-linecap: square"/>
     </g>
     <g id="line2d_12">
      <g>
       <use xlink:href="#m6ca42ab419" x="353.345455" y="309.1" style="stroke: #000000; stroke-width: 0.8"/>
      </g>
     </g>
     <g id="text_6">
      <!-- 1.25 -->
      <g transform="translate(339.98608 325.218125) scale(0.12 -0.12)">
       <use xlink:href="#DejaVuSans-31"/>
       <use xlink:href="#DejaVuSans-2e" x="63.623047"/>
       <use xlink:href="#DejaVuSans-32" x="95.410156"/>
       <use xlink:href="#DejaVuSans-35" x="159.033203"/>
      </g>
     </g>
    </g>
    <g id="xtick_7">
     <g id="line2d_13">
      <path d="M 407.976136 309.1 
L 407.976136 28.8 
" clip-path="url(#p323ceb885e)" style="fill: none; stroke: #808080; stroke-width: 0.8; stroke-linecap: square"/>
     </g>
     <g id="line2d_14">
      <g>
       <use xlink:href="#m6ca42ab419" x="407.976136" y="309.1" style="stroke: #000000; stroke-width: 0.8"/>
      </g>
     </g>
     <g id="text_7">
      <!-- 1.50 -->
      <g transform="translate(394.616761 325.218125) scale(0.12 -0.12)">
       <use xlink:href="#DejaVuSans-31"/>
       <use xlink:href="#DejaVuSans-2e" x="63.623047"/>
       <use xlink:href="#DejaVuSans-35" x="95.410156"/>
       <use xlink:href="#DejaVuSans-30" x="159.033203"/>
      </g>
     </g>
    </g>
    <g id="xtick_8">
     <g id="line2d_15">
      <path d="M 462.606818 309.1 
L 462.606818 28.8 
" clip-path="url(#p323ceb885e)" style="fill: none; stroke: #808080; stroke-width: 0.8; stroke-linecap: square"/>
     </g>
     <g id="line2d_16">
      <g>
       <use xlink:href="#m6ca42ab419" x="462.606818" y="309.1" style="stroke: #000000; stroke-width: 0.8"/>
      </g>
     </g>
     <g id="text_8">
      <!-- 1.75 -->
      <g transform="translate(449.247443 325.218125) scale(0.12 -0.12)">
       <use xlink:href="#DejaVuSans-31"/>
       <use xlink:href="#DejaVuSans-2e" x="63.623047"/>
       <use xlink:href="#DejaVuSans-37" x="95.410156"/>
       <use xlink:href="#DejaVuSans-35" x="159.033203"/>
      </g>
     </g>
    </g>
    <g id="text_9">
     <!-- $V_{D}$ [V] -->
     <g transform="translate(258.6225 340.831875) scale(0.12 -0.12)">
      <defs>
       <path id="DejaVuSans-Oblique-56" d="M 1319 0 
L 500 4666 
L 1119 4666 
L 1797 653 
L 4063 4666 
L 4750 4666 
L 2053 0 
L 1319 0 
z
" transform="scale(0.015625)"/>
       <path id="DejaVuSans-Oblique-44" d="M 1081 4666 
L 2438 4666 
Q 3519 4666 4070 4208 
Q 4622 3750 4622 2847 
Q 4622 2250 4412 1698 
Q 4203 1147 3834 769 
Q 3463 381 2891 190 
Q 2319 0 1538 0 
L 172 0 
L 1081 4666 
z
M 1613 4147 
L 909 519 
L 1734 519 
Q 2794 519 3375 1128 
Q 3956 1738 3956 2847 
Q 3956 3519 3581 3833 
Q 3206 4147 2406 4147 
L 1613 4147 
z
" transform="scale(0.015625)"/>
       <path id="DejaVuSans-20" transform="scale(0.015625)"/>
       <path id="DejaVuSans-5b" d="M 550 4863 
L 1875 4863 
L 1875 4416 
L 1125 4416 
L 1125 -397 
L 1875 -397 
L 1875 -844 
L 550 -844 
L 550 4863 
z
" transform="scale(0.015625)"/>
       <path id="DejaVuSans-56" d="M 1831 0 
L 50 4666 
L 709 4666 
L 2188 738 
L 3669 4666 
L 4325 4666 
L 2547 0 
L 1831 0 
z
" transform="scale(0.015625)"/>
       <path id="DejaVuSans-5d" d="M 1947 4863 
L 1947 -844 
L 622 -844 
L 622 -397 
L 1369 -397 
L 1369 4416 
L 622 4416 
L 622 4863 
L 1947 4863 
z
" transform="scale(0.015625)"/>
      </defs>
      <use xlink:href="#DejaVuSans-Oblique-56" transform="translate(0 0.015625)"/>
      <use xlink:href="#DejaVuSans-Oblique-44" transform="translate(68.408203 -16.390625) scale(0.7)"/>
      <use xlink:href="#DejaVuSans-20" transform="translate(125.043945 0.015625)"/>
      <use xlink:href="#DejaVuSans-5b" transform="translate(156.831055 0.015625)"/>
      <use xlink:href="#DejaVuSans-56" transform="translate(195.844727 0.015625)"/>
      <use xlink:href="#DejaVuSans-5d" transform="translate(264.25293 0.015625)"/>
     </g>
    </g>
   </g>
   <g id="matplotlib.axis_2">
    <g id="ytick_1">
     <g id="line2d_17">
      <path d="M 60.525 296.359091 
L 493.2 296.359091 
" clip-path="url(#p323ceb885e)" style="fill: none; stroke: #808080; stroke-width: 0.8; stroke-linecap: square"/>
     </g>
     <g id="line2d_18">
      <defs>
       <path id="m4b6dc3fa42" d="M 0 0 
L -3.5 0 
" style="stroke: #000000; stroke-width: 0.8"/>
      </defs>
      <g>
       <use xlink:href="#m4b6dc3fa42" x="60.525" y="296.359091" style="stroke: #000000; stroke-width: 0.8"/>
      </g>
     </g>
     <g id="text_10">
      <!-- 0 -->
      <g transform="translate(45.89 300.918153) scale(0.12 -0.12)">
       <use xlink:href="#DejaVuSans-30"/>
      </g>
     </g>
    </g>
    <g id="ytick_2">
     <g id="line2d_19">
      <path d="M 60.525 239.573664 
L 493.2 239.573664 
" clip-path="url(#p323ceb885e)" style="fill: none; stroke: #808080; stroke-width: 0.8; stroke-linecap: square"/>
     </g>
     <g id="line2d_20">
      <g>
       <use xlink:href="#m4b6dc3fa42" x="60.525" y="239.573664" style="stroke: #000000; stroke-width: 0.8"/>
      </g>
     </g>
     <g id="text_11">
      <!-- 50 -->
      <g transform="translate(38.255 244.132727) scale(0.12 -0.12)">
       <use xlink:href="#DejaVuSans-35"/>
       <use xlink:href="#DejaVuSans-30" x="63.623047"/>
      </g>
     </g>
    </g>
    <g id="ytick_3">
     <g id="line2d_21">
      <path d="M 60.525 182.788238 
L 493.2 182.788238 
" clip-path="url(#p323ceb885e)" style="fill: none; stroke: #808080; stroke-width: 0.8; stroke-linecap: square"/>
     </g>
     <g id="line2d_22">
      <g>
       <use xlink:href="#m4b6dc3fa42" x="60.525" y="182.788238" style="stroke: #000000; stroke-width: 0.8"/>
      </g>
     </g>
     <g id="text_12">
      <!-- 100 -->
      <g transform="translate(30.62 187.3473) scale(0.12 -0.12)">
       <use xlink:href="#DejaVuSans-31"/>
       <use xlink:href="#DejaVuSans-30" x="63.623047"/>
       <use xlink:href="#DejaVuSans-30" x="127.246094"/>
      </g>
     </g>
    </g>
    <g id="ytick_4">
     <g id="line2d_23">
      <path d="M 60.525 126.002811 
L 493.2 126.002811 
" clip-path="url(#p323ceb885e)" style="fill: none; stroke: #808080; stroke-width: 0.8; stroke-linecap: square"/>
     </g>
     <g id="line2d_24">
      <g>
       <use xlink:href="#m4b6dc3fa42" x="60.525" y="126.002811" style="stroke: #000000; stroke-width: 0.8"/>
      </g>
     </g>
     <g id="text_13">
      <!-- 150 -->
      <g transform="translate(30.62 130.561874) scale(0.12 -0.12)">
       <use xlink:href="#DejaVuSans-31"/>
       <use xlink:href="#DejaVuSans-35" x="63.623047"/>
       <use xlink:href="#DejaVuSans-30" x="127.246094"/>
      </g>
     </g>
    </g>
    <g id="ytick_5">
     <g id="line2d_25">
      <path d="M 60.525 69.217385 
L 493.2 69.217385 
" clip-path="url(#p323ceb885e)" style="fill: none; stroke: #808080; stroke-width: 0.8; stroke-linecap: square"/>
     </g>
     <g id="line2d_26">
      <g>
       <use xlink:href="#m4b6dc3fa42" x="60.525" y="69.217385" style="stroke: #000000; stroke-width: 0.8"/>
      </g>
     </g>
     <g id="text_14">
      <!-- 200 -->
      <g transform="translate(30.62 73.776447) scale(0.12 -0.12)">
       <use xlink:href="#DejaVuSans-32"/>
       <use xlink:href="#DejaVuSans-30" x="63.623047"/>
       <use xlink:href="#DejaVuSans-30" x="127.246094"/>
      </g>
     </g>
    </g>
    <g id="text_15">
     <!-- $I_{DS X1}\,$ [uA] -->
     <g transform="translate(24.124375 197.81) rotate(-90) scale(0.12 -0.12)">
      <defs>
       <path id="DejaVuSans-Oblique-49" d="M 1081 4666 
L 1716 4666 
L 806 0 
L 172 0 
L 1081 4666 
z
" transform="scale(0.015625)"/>
       <path id="DejaVuSans-Oblique-53" d="M 3859 4513 
L 3738 3897 
Q 3422 4066 3111 4152 
Q 2800 4238 2509 4238 
Q 1944 4238 1609 3991 
Q 1275 3744 1275 3334 
Q 1275 3109 1398 2989 
Q 1522 2869 2034 2731 
L 2413 2638 
Q 3053 2472 3303 2217 
Q 3553 1963 3553 1503 
Q 3553 797 2998 353 
Q 2444 -91 1538 -91 
Q 1166 -91 791 -17 
Q 416 56 38 206 
L 166 856 
Q 513 641 861 531 
Q 1209 422 1556 422 
Q 2147 422 2503 684 
Q 2859 947 2859 1369 
Q 2859 1650 2717 1795 
Q 2575 1941 2106 2059 
L 1728 2156 
Q 1081 2325 845 2545 
Q 609 2766 609 3163 
Q 609 3859 1145 4304 
Q 1681 4750 2541 4750 
Q 2875 4750 3203 4690 
Q 3531 4631 3859 4513 
z
" transform="scale(0.015625)"/>
       <path id="DejaVuSans-Oblique-58" d="M 878 4666 
L 1516 4666 
L 2316 2981 
L 3763 4666 
L 4500 4666 
L 2578 2438 
L 3738 0 
L 3103 0 
L 2163 1966 
L 459 0 
L -275 0 
L 1906 2509 
L 878 4666 
z
" transform="scale(0.015625)"/>
       <path id="DejaVuSans-75" d="M 544 1381 
L 544 3500 
L 1119 3500 
L 1119 1403 
Q 1119 906 1312 657 
Q 1506 409 1894 409 
Q 2359 409 2629 706 
Q 2900 1003 2900 1516 
L 2900 3500 
L 3475 3500 
L 3475 0 
L 2900 0 
L 2900 538 
Q 2691 219 2414 64 
Q 2138 -91 1772 -91 
Q 1169 -91 856 284 
Q 544 659 544 1381 
z
M 1991 3584 
L 1991 3584 
z
" transform="scale(0.015625)"/>
       <path id="DejaVuSans-41" d="M 2188 4044 
L 1331 1722 
L 3047 1722 
L 2188 4044 
z
M 1831 4666 
L 2547 4666 
L 4325 0 
L 3669 0 
L 3244 1197 
L 1141 1197 
L 716 0 
L 50 0 
L 1831 4666 
z
" transform="scale(0.015625)"/>
      </defs>
      <use xlink:href="#DejaVuSans-Oblique-49" transform="translate(0 0.015625)"/>
      <use xlink:href="#DejaVuSans-Oblique-44" transform="translate(29.492188 -16.390625) scale(0.7)"/>
      <use xlink:href="#DejaVuSans-Oblique-53" transform="translate(83.393555 -16.390625) scale(0.7)"/>
      <use xlink:href="#DejaVuSans-Oblique-58" transform="translate(127.827148 -16.390625) scale(0.7)"/>
      <use xlink:href="#DejaVuSans-31" transform="translate(175.78125 -16.390625) scale(0.7)"/>
      <use xlink:href="#DejaVuSans-20" transform="translate(239.287434 0.015625)"/>
      <use xlink:href="#DejaVuSans-5b" transform="translate(271.074543 0.015625)"/>
      <use xlink:href="#DejaVuSans-75" transform="translate(310.088215 0.015625)"/>
      <use xlink:href="#DejaVuSans-41" transform="translate(373.467122 0.015625)"/>
      <use xlink:href="#DejaVuSans-5d" transform="translate(441.875325 0.015625)"/>
     </g>
    </g>
   </g>
   <g id="line2d_27">
    <path d="M 80.192045 296.359091 
L 88.219411 293.633752 
L 96.246776 292.053811 
L 104.274142 291.303256 
L 112.301507 291.009175 
L 120.328873 290.906744 
L 128.356238 290.868966 
L 136.383604 290.849983 
L 144.410969 290.836 
L 152.438335 290.823284 
L 160.4657 290.810881 
L 168.493066 290.798555 
L 176.520431 290.786247 
L 184.547797 290.773943 
L 192.575162 290.761641 
L 200.602528 290.749339 
L 208.629893 290.737036 
L 216.657259 290.724734 
L 224.684624 290.712432 
L 232.71199 290.70013 
L 240.739355 290.687828 
L 248.766721 290.675526 
L 256.794086 290.663224 
L 264.821452 290.650922 
L 272.848817 290.63862 
L 280.876183 290.626318 
L 288.903548 290.614016 
L 296.930914 290.601713 
L 304.958279 290.589411 
L 312.985645 290.577109 
L 321.01301 290.564807 
L 329.040376 290.552505 
L 337.067741 290.540203 
L 345.095107 290.527901 
L 353.122472 290.515599 
L 361.149838 290.503297 
L 369.177203 290.490995 
L 377.204569 290.478693 
L 385.231934 290.466391 
L 393.2593 290.454088 
L 401.286665 290.441786 
L 409.314031 290.429484 
L 417.341396 290.417182 
L 425.368762 290.40488 
L 433.396127 290.392578 
L 441.423493 290.380276 
L 449.450858 290.367974 
L 457.478224 290.355672 
L 465.505589 290.34337 
L 473.532955 290.331068 
" clip-path="url(#p323ceb885e)" style="fill: none; stroke: #ff0000; stroke-width: 2; stroke-linecap: square"/>
   </g>
   <g id="line2d_28">
    <path d="M 80.192045 296.359091 
L 88.219411 288.810012 
L 96.246776 282.091608 
L 104.274142 276.344758 
L 112.301507 271.720684 
L 120.328873 268.332667 
L 128.356238 266.164364 
L 136.383604 264.994268 
L 144.410969 264.457313 
L 152.438335 264.223964 
L 160.4657 264.104055 
L 168.493066 264.019396 
L 176.520431 263.944483 
L 184.547797 263.872092 
L 192.575162 263.80033 
L 200.602528 263.728722 
L 208.629893 263.657152 
L 216.657259 263.585592 
L 224.684624 263.514033 
L 232.71199 263.442475 
L 240.739355 263.370917 
L 248.766721 263.299359 
L 256.794086 263.227801 
L 264.821452 263.156244 
L 272.848817 263.084686 
L 280.876183 263.013128 
L 288.903548 262.94157 
L 296.930914 262.870012 
L 304.958279 262.798454 
L 312.985645 262.726896 
L 321.01301 262.655339 
L 329.040376 262.583781 
L 337.067741 262.512223 
L 345.095107 262.440665 
L 353.122472 262.369107 
L 361.149838 262.297549 
L 369.177203 262.225991 
L 377.204569 262.154434 
L 385.231934 262.082876 
L 393.2593 262.011318 
L 401.286665 261.93976 
L 409.314031 261.868202 
L 417.341396 261.796644 
L 425.368762 261.725086 
L 433.396127 261.653529 
L 441.423493 261.581971 
L 449.450858 261.510413 
L 457.478224 261.438855 
L 465.505589 261.367297 
L 473.532955 261.295739 
" clip-path="url(#p323ceb885e)" style="fill: none; stroke: #0000ff; stroke-width: 2; stroke-linecap: square"/>
   </g>
   <g id="line2d_29">
    <path d="M 80.192045 296.359091 
L 88.219411 286.225957 
L 96.246776 276.547866 
L 104.274142 267.378922 
L 112.301507 258.785361 
L 120.328873 250.849546 
L 128.356238 243.674736 
L 136.383604 237.388634 
L 144.410969 232.138978 
L 152.438335 228.065684 
L 160.4657 225.230321 
L 168.493066 223.519647 
L 176.520431 222.625693 
L 184.547797 222.182669 
L 192.575162 221.929505 
L 200.602528 221.740521 
L 208.629893 221.570218 
L 216.657259 221.404889 
L 224.684624 221.24082 
L 232.71199 221.077063 
L 240.739355 220.913382 
L 248.766721 220.74972 
L 256.794086 220.586062 
L 264.821452 220.422405 
L 272.848817 220.258748 
L 280.876183 220.095091 
L 288.903548 219.931435 
L 296.930914 219.767778 
L 304.958279 219.604121 
L 312.985645 219.440465 
L 321.01301 219.276808 
L 329.040376 219.113151 
L 337.067741 218.949495 
L 345.095107 218.785838 
L 353.122472 218.622181 
L 361.149838 218.458525 
L 369.177203 218.294868 
L 377.204569 218.131212 
L 385.231934 217.967555 
L 393.2593 217.803898 
L 401.286665 217.640242 
L 409.314031 217.476585 
L 417.341396 217.312928 
L 425.368762 217.149272 
L 433.396127 216.985615 
L 441.423493 216.821958 
L 449.450858 216.658302 
L 457.478224 216.494645 
L 465.505589 216.330988 
L 473.532955 216.167332 
" clip-path="url(#p323ceb885e)" style="fill: none; stroke: #008000; stroke-width: 2; stroke-linecap: square"/>
   </g>
   <g id="line2d_30">
    <path d="M 80.192045 296.359091 
L 88.219411 284.647301 
L 96.246776 273.232788 
L 104.274142 262.141028 
L 112.301507 251.401523 
L 120.328873 241.048726 
L 128.356238 231.123299 
L 136.383604 221.67386 
L 144.410969 212.759432 
L 152.438335 204.452862 
L 160.4657 196.845245 
L 168.493066 190.050489 
L 176.520431 184.206224 
L 184.547797 179.460488 
L 192.575162 175.92494 
L 200.602528 173.585423 
L 208.629893 172.227164 
L 216.657259 171.493223 
L 224.684624 171.059579 
L 232.71199 170.738416 
L 240.739355 170.452263 
L 248.766721 170.1758 
L 256.794086 169.901844 
L 264.821452 169.628514 
L 272.848817 169.355339 
L 280.876183 169.082201 
L 288.903548 168.809071 
L 296.930914 168.535944 
L 304.958279 168.262818 
L 312.985645 167.989691 
L 321.01301 167.716565 
L 329.040376 167.443438 
L 337.067741 167.170312 
L 345.095107 166.897186 
L 353.122472 166.624059 
L 361.149838 166.350933 
L 369.177203 166.077807 
L 377.204569 165.80468 
L 385.231934 165.531554 
L 393.2593 165.258427 
L 401.286665 164.985301 
L 409.314031 164.712175 
L 417.341396 164.439048 
L 425.368762 164.165922 
L 433.396127 163.892795 
L 441.423493 163.619669 
L 449.450858 163.346543 
L 457.478224 163.073416 
L 465.505589 162.80029 
L 473.532955 162.527164 
" clip-path="url(#p323ceb885e)" style="fill: none; stroke: #00bfbf; stroke-width: 2; stroke-linecap: square"/>
   </g>
   <g id="line2d_31">
    <path d="M 80.192045 296.359091 
L 88.219411 283.549207 
L 96.246776 270.954415 
L 104.274142 258.588701 
L 112.301507 246.467876 
L 120.328873 234.609883 
L 128.356238 223.035181 
L 136.383604 211.76723 
L 144.410969 200.833096 
L 152.438335 190.264244 
L 160.4657 180.097606 
L 168.493066 170.377033 
L 176.520431 161.155342 
L 184.547797 152.497179 
L 192.575162 144.482921 
L 200.602528 137.213341 
L 208.629893 130.813109 
L 216.657259 125.426631 
L 224.684624 121.19115 
L 232.71199 118.168211 
L 240.739355 116.24912 
L 248.766721 115.133902 
L 256.794086 114.463927 
L 264.821452 113.981949 
L 272.848817 113.563653 
L 280.876183 113.163917 
L 288.903548 112.769126 
L 296.930914 112.375589 
L 304.958279 111.982362 
L 312.985645 111.58921 
L 321.01301 111.196077 
L 329.040376 110.802948 
L 337.067741 110.40982 
L 345.095107 110.016693 
L 353.122472 109.623565 
L 361.149838 109.230438 
L 369.177203 108.83731 
L 377.204569 108.444183 
L 385.231934 108.051055 
L 393.2593 107.657928 
L 401.286665 107.264801 
L 409.314031 106.871673 
L 417.341396 106.478546 
L 425.368762 106.085418 
L 433.396127 105.692291 
L 441.423493 105.299164 
L 449.450858 104.906036 
L 457.478224 104.512909 
L 465.505589 104.119781 
L 473.532955 103.726654 
" clip-path="url(#p323ceb885e)" style="fill: none; stroke: #bf00bf; stroke-width: 2; stroke-linecap: square"/>
   </g>
   <g id="line2d_32">
    <path d="M 80.192045 296.359091 
L 88.219411 282.718265 
L 96.246776 269.244971 
L 104.274142 255.947534 
L 112.301507 242.835218 
L 120.328873 229.918367 
L 128.356238 217.208569 
L 136.383604 204.718844 
L 144.410969 192.463881 
L 152.438335 180.460313 
L 160.4657 168.727063 
L 168.493066 157.285763 
L 176.520431 146.161289 
L 184.547797 135.382447 
L 192.575162 124.982872 
L 200.602528 115.002258 
L 208.629893 105.488056 
L 216.657259 96.497865 
L 224.684624 88.102763 
L 232.71199 80.391625 
L 240.739355 73.475601 
L 248.766721 67.489082 
L 256.794086 62.576912 
L 264.821452 58.849079 
L 272.848817 56.293518 
L 280.876183 54.702097 
L 288.903548 53.726 
L 296.930914 53.046783 
L 304.958279 52.479044 
L 312.985645 51.946061 
L 321.01301 51.422705 
L 329.040376 50.901843 
L 337.067741 50.381605 
L 345.095107 49.861518 
L 353.122472 49.341469 
L 361.149838 48.821429 
L 369.177203 48.301392 
L 377.204569 47.781354 
L 385.231934 47.261317 
L 393.2593 46.74128 
L 401.286665 46.221243 
L 409.314031 45.701206 
L 417.341396 45.181169 
L 425.368762 44.661132 
L 433.396127 44.141095 
L 441.423493 43.621058 
L 449.450858 43.10102 
L 457.478224 42.580983 
L 465.505589 42.060946 
L 473.532955 41.540909 
" clip-path="url(#p323ceb885e)" style="fill: none; stroke: #bfbf00; stroke-width: 2; stroke-linecap: square"/>
   </g>
   <g id="patch_3">
    <path d="M 60.525 309.1 
L 60.525 28.8 
" style="fill: none; stroke: #000000; stroke-width: 0.8; stroke-linejoin: miter; stroke-linecap: square"/>
   </g>
   <g id="patch_4">
    <path d="M 493.2 309.1 
L 493.2 28.8 
" style="fill: none; stroke: #000000; stroke-width: 0.8; stroke-linejoin: miter; stroke-linecap: square"/>
   </g>
   <g id="patch_5">
    <path d="M 60.525 309.1 
L 493.2 309.1 
" style="fill: none; stroke: #000000; stroke-width: 0.8; stroke-linejoin: miter; stroke-linecap: square"/>
   </g>
   <g id="patch_6">
    <path d="M 60.525 28.8 
L 493.2 28.8 
" style="fill: none; stroke: #000000; stroke-width: 0.8; stroke-linejoin: miter; stroke-linecap: square"/>
   </g>
   <g id="text_16">
    <!-- $I_{ds}(V_{ds})$ -->
    <g transform="translate(256.2225 22.8) scale(0.12 -0.12)">
     <defs>
      <path id="DejaVuSans-Oblique-64" d="M 2675 525 
Q 2444 222 2128 65 
Q 1813 -91 1428 -91 
Q 903 -91 598 267 
Q 294 625 294 1247 
Q 294 1766 478 2236 
Q 663 2706 1013 3078 
Q 1244 3325 1534 3454 
Q 1825 3584 2144 3584 
Q 2481 3584 2739 3421 
Q 2997 3259 3138 2956 
L 3513 4863 
L 4091 4863 
L 3144 0 
L 2566 0 
L 2675 525 
z
M 891 1350 
Q 891 897 1095 644 
Q 1300 391 1663 391 
Q 1931 391 2161 520 
Q 2391 650 2566 903 
Q 2750 1166 2856 1509 
Q 2963 1853 2963 2188 
Q 2963 2622 2758 2865 
Q 2553 3109 2194 3109 
Q 1922 3109 1687 2981 
Q 1453 2853 1288 2613 
Q 1106 2353 998 2009 
Q 891 1666 891 1350 
z
" transform="scale(0.015625)"/>
      <path id="DejaVuSans-Oblique-73" d="M 3200 3397 
L 3091 2853 
Q 2863 2978 2609 3040 
Q 2356 3103 2088 3103 
Q 1634 3103 1373 2948 
Q 1113 2794 1113 2528 
Q 1113 2219 1719 2053 
Q 1766 2041 1788 2034 
L 1972 1978 
Q 2547 1819 2739 1644 
Q 2931 1469 2931 1166 
Q 2931 609 2489 259 
Q 2047 -91 1331 -91 
Q 1053 -91 747 -37 
Q 441 16 72 128 
L 184 722 
Q 500 559 806 475 
Q 1113 391 1394 391 
Q 1816 391 2080 572 
Q 2344 753 2344 1031 
Q 2344 1331 1650 1516 
L 1591 1531 
L 1394 1581 
Q 956 1697 753 1886 
Q 550 2075 550 2369 
Q 550 2928 970 3256 
Q 1391 3584 2113 3584 
Q 2397 3584 2667 3537 
Q 2938 3491 3200 3397 
z
" transform="scale(0.015625)"/>
      <path id="DejaVuSans-28" d="M 1984 4856 
Q 1566 4138 1362 3434 
Q 1159 2731 1159 2009 
Q 1159 1288 1364 580 
Q 1569 -128 1984 -844 
L 1484 -844 
Q 1016 -109 783 600 
Q 550 1309 550 2009 
Q 550 2706 781 3412 
Q 1013 4119 1484 4856 
L 1984 4856 
z
" transform="scale(0.015625)"/>
      <path id="DejaVuSans-29" d="M 513 4856 
L 1013 4856 
Q 1481 4119 1714 3412 
Q 1947 2706 1947 2009 
Q 1947 1309 1714 600 
Q 1481 -109 1013 -844 
L 513 -844 
Q 928 -128 1133 580 
Q 1338 1288 1338 2009 
Q 1338 2731 1133 3434 
Q 928 4138 513 4856 
z
" transform="scale(0.015625)"/>
     </defs>
     <use xlink:href="#DejaVuSans-Oblique-49" transform="translate(0 0.125)"/>
     <use xlink:href="#DejaVuSans-Oblique-64" transform="translate(29.492188 -16.28125) scale(0.7)"/>
     <use xlink:href="#DejaVuSans-Oblique-73" transform="translate(73.925781 -16.28125) scale(0.7)"/>
     <use xlink:href="#DejaVuSans-28" transform="translate(113.129883 0.125)"/>
     <use xlink:href="#DejaVuSans-Oblique-56" transform="translate(152.143555 0.125)"/>
     <use xlink:href="#DejaVuSans-Oblique-64" transform="translate(220.551758 -16.28125) scale(0.7)"/>
     <use xlink:href="#DejaVuSans-Oblique-73" transform="translate(264.985352 -16.28125) scale(0.7)"/>
     <use xlink:href="#DejaVuSans-29" transform="translate(304.189453 0.125)"/>
    </g>
   </g>
   <g id="legend_1">
    <g id="patch_7">
     <path d="M 67.525 107.4825 
L 203.365 107.4825 
Q 205.365 107.4825 205.365 105.4825 
L 205.365 35.8 
Q 205.365 33.8 203.365 33.8 
L 67.525 33.8 
Q 65.525 33.8 65.525 35.8 
L 65.525 105.4825 
Q 65.525 107.4825 67.525 107.4825 
z
" style="fill: #ffffff; opacity: 0.8; stroke: #cccccc; stroke-linejoin: miter"/>
    </g>
    <g id="line2d_33">
     <path d="M 67.525 41.418125 
L 72.525 41.418125 
L 77.525 41.418125 
" style="fill: none; stroke: #ff0000; stroke-width: 2; stroke-linecap: square"/>
    </g>
    <g id="text_17">
     <!-- $I_{DS X1}: V_{G}$ =  6.0e-01 -->
     <g transform="translate(79.525 44.918125) scale(0.12 -0.12)">
      <defs>
       <path id="DejaVuSans-3a" d="M 750 794 
L 1409 794 
L 1409 0 
L 750 0 
L 750 794 
z
M 750 3309 
L 1409 3309 
L 1409 2516 
L 750 2516 
L 750 3309 
z
" transform="scale(0.015625)"/>
       <path id="DejaVuSans-Oblique-47" d="M 3494 697 
L 3738 1919 
L 2700 1919 
L 2797 2438 
L 4453 2438 
L 4050 384 
Q 3634 156 3143 32 
Q 2653 -91 2156 -91 
Q 1278 -91 783 396 
Q 288 884 288 1753 
Q 288 2475 589 3126 
Q 891 3778 1422 4213 
Q 1756 4484 2153 4617 
Q 2550 4750 3034 4750 
Q 3472 4750 3873 4639 
Q 4275 4528 4641 4306 
L 4513 3634 
Q 4231 3928 3853 4083 
Q 3475 4238 3047 4238 
Q 2550 4238 2172 4048 
Q 1794 3859 1497 3463 
Q 1244 3125 1098 2667 
Q 953 2209 953 1734 
Q 953 1081 1287 751 
Q 1622 422 2284 422 
Q 2616 422 2925 492 
Q 3234 563 3494 697 
z
" transform="scale(0.015625)"/>
       <path id="DejaVuSans-3d" d="M 678 2906 
L 4684 2906 
L 4684 2381 
L 678 2381 
L 678 2906 
z
M 678 1631 
L 4684 1631 
L 4684 1100 
L 678 1100 
L 678 1631 
z
" transform="scale(0.015625)"/>
       <path id="DejaVuSans-36" d="M 2113 2584 
Q 1688 2584 1439 2293 
Q 1191 2003 1191 1497 
Q 1191 994 1439 701 
Q 1688 409 2113 409 
Q 2538 409 2786 701 
Q 3034 994 3034 1497 
Q 3034 2003 2786 2293 
Q 2538 2584 2113 2584 
z
M 3366 4563 
L 3366 3988 
Q 3128 4100 2886 4159 
Q 2644 4219 2406 4219 
Q 1781 4219 1451 3797 
Q 1122 3375 1075 2522 
Q 1259 2794 1537 2939 
Q 1816 3084 2150 3084 
Q 2853 3084 3261 2657 
Q 3669 2231 3669 1497 
Q 3669 778 3244 343 
Q 2819 -91 2113 -91 
Q 1303 -91 875 529 
Q 447 1150 447 2328 
Q 447 3434 972 4092 
Q 1497 4750 2381 4750 
Q 2619 4750 2861 4703 
Q 3103 4656 3366 4563 
z
" transform="scale(0.015625)"/>
       <path id="DejaVuSans-65" d="M 3597 1894 
L 3597 1613 
L 953 1613 
Q 991 1019 1311 708 
Q 1631 397 2203 397 
Q 2534 397 2845 478 
Q 3156 559 3463 722 
L 3463 178 
Q 3153 47 2828 -22 
Q 2503 -91 2169 -91 
Q 1331 -91 842 396 
Q 353 884 353 1716 
Q 353 2575 817 3079 
Q 1281 3584 2069 3584 
Q 2775 3584 3186 3129 
Q 3597 2675 3597 1894 
z
M 3022 2063 
Q 3016 2534 2758 2815 
Q 2500 3097 2075 3097 
Q 1594 3097 1305 2825 
Q 1016 2553 972 2059 
L 3022 2063 
z
" transform="scale(0.015625)"/>
       <path id="DejaVuSans-2d" d="M 313 2009 
L 1997 2009 
L 1997 1497 
L 313 1497 
L 313 2009 
z
" transform="scale(0.015625)"/>
      </defs>
      <use xlink:href="#DejaVuSans-Oblique-49" transform="translate(0 0.78125)"/>
      <use xlink:href="#DejaVuSans-Oblique-44" transform="translate(29.492188 -15.625) scale(0.7)"/>
      <use xlink:href="#DejaVuSans-Oblique-53" transform="translate(83.393555 -15.625) scale(0.7)"/>
      <use xlink:href="#DejaVuSans-Oblique-58" transform="translate(127.827148 -15.625) scale(0.7)"/>
      <use xlink:href="#DejaVuSans-31" transform="translate(175.78125 -15.625) scale(0.7)"/>
      <use xlink:href="#DejaVuSans-3a" transform="translate(242.53418 0.78125)"/>
      <use xlink:href="#DejaVuSans-Oblique-56" transform="translate(295.708008 0.78125)"/>
      <use xlink:href="#DejaVuSans-Oblique-47" transform="translate(364.116211 -15.625) scale(0.7)"/>
      <use xlink:href="#DejaVuSans-20" transform="translate(421.09375 0.78125)"/>
      <use xlink:href="#DejaVuSans-3d" transform="translate(452.880859 0.78125)"/>
      <use xlink:href="#DejaVuSans-20" transform="translate(536.669922 0.78125)"/>
      <use xlink:href="#DejaVuSans-20" transform="translate(568.457031 0.78125)"/>
      <use xlink:href="#DejaVuSans-36" transform="translate(600.244141 0.78125)"/>
      <use xlink:href="#DejaVuSans-2e" transform="translate(663.867188 0.78125)"/>
      <use xlink:href="#DejaVuSans-30" transform="translate(695.654297 0.78125)"/>
      <use xlink:href="#DejaVuSans-65" transform="translate(759.277344 0.78125)"/>
      <use xlink:href="#DejaVuSans-2d" transform="translate(820.800781 0.78125)"/>
      <use xlink:href="#DejaVuSans-30" transform="translate(856.884766 0.78125)"/>
      <use xlink:href="#DejaVuSans-31" transform="translate(920.507812 0.78125)"/>
     </g>
    </g>
    <g id="line2d_34">
     <path d="M 67.525 53.031875 
L 72.525 53.031875 
L 77.525 53.031875 
" style="fill: none; stroke: #0000ff; stroke-width: 2; stroke-linecap: square"/>
    </g>
    <g id="text_18">
     <!-- $I_{DS X1}: V_{G}$ =  8.4e-01 -->
     <g transform="translate(79.525 56.531875) scale(0.12 -0.12)">
      <defs>
       <path id="DejaVuSans-38" d="M 2034 2216 
Q 1584 2216 1326 1975 
Q 1069 1734 1069 1313 
Q 1069 891 1326 650 
Q 1584 409 2034 409 
Q 2484 409 2743 651 
Q 3003 894 3003 1313 
Q 3003 1734 2745 1975 
Q 2488 2216 2034 2216 
z
M 1403 2484 
Q 997 2584 770 2862 
Q 544 3141 544 3541 
Q 544 4100 942 4425 
Q 1341 4750 2034 4750 
Q 2731 4750 3128 4425 
Q 3525 4100 3525 3541 
Q 3525 3141 3298 2862 
Q 3072 2584 2669 2484 
Q 3125 2378 3379 2068 
Q 3634 1759 3634 1313 
Q 3634 634 3220 271 
Q 2806 -91 2034 -91 
Q 1263 -91 848 271 
Q 434 634 434 1313 
Q 434 1759 690 2068 
Q 947 2378 1403 2484 
z
M 1172 3481 
Q 1172 3119 1398 2916 
Q 1625 2713 2034 2713 
Q 2441 2713 2670 2916 
Q 2900 3119 2900 3481 
Q 2900 3844 2670 4047 
Q 2441 4250 2034 4250 
Q 1625 4250 1398 4047 
Q 1172 3844 1172 3481 
z
" transform="scale(0.015625)"/>
       <path id="DejaVuSans-34" d="M 2419 4116 
L 825 1625 
L 2419 1625 
L 2419 4116 
z
M 2253 4666 
L 3047 4666 
L 3047 1625 
L 3713 1625 
L 3713 1100 
L 3047 1100 
L 3047 0 
L 2419 0 
L 2419 1100 
L 313 1100 
L 313 1709 
L 2253 4666 
z
" transform="scale(0.015625)"/>
      </defs>
      <use xlink:href="#DejaVuSans-Oblique-49" transform="translate(0 0.78125)"/>
      <use xlink:href="#DejaVuSans-Oblique-44" transform="translate(29.492188 -15.625) scale(0.7)"/>
      <use xlink:href="#DejaVuSans-Oblique-53" transform="translate(83.393555 -15.625) scale(0.7)"/>
      <use xlink:href="#DejaVuSans-Oblique-58" transform="translate(127.827148 -15.625) scale(0.7)"/>
      <use xlink:href="#DejaVuSans-31" transform="translate(175.78125 -15.625) scale(0.7)"/>
      <use xlink:href="#DejaVuSans-3a" transform="translate(242.53418 0.78125)"/>
      <use xlink:href="#DejaVuSans-Oblique-56" transform="translate(295.708008 0.78125)"/>
      <use xlink:href="#DejaVuSans-Oblique-47" transform="translate(364.116211 -15.625) scale(0.7)"/>
      <use xlink:href="#DejaVuSans-20" transform="translate(421.09375 0.78125)"/>
      <use xlink:href="#DejaVuSans-3d" transform="translate(452.880859 0.78125)"/>
      <use xlink:href="#DejaVuSans-20" transform="translate(536.669922 0.78125)"/>
      <use xlink:href="#DejaVuSans-20" transform="translate(568.457031 0.78125)"/>
      <use xlink:href="#DejaVuSans-38" transform="translate(600.244141 0.78125)"/>
      <use xlink:href="#DejaVuSans-2e" transform="translate(663.867188 0.78125)"/>
      <use xlink:href="#DejaVuSans-34" transform="translate(695.654297 0.78125)"/>
      <use xlink:href="#DejaVuSans-65" transform="translate(759.277344 0.78125)"/>
      <use xlink:href="#DejaVuSans-2d" transform="translate(820.800781 0.78125)"/>
      <use xlink:href="#DejaVuSans-30" transform="translate(856.884766 0.78125)"/>
      <use xlink:href="#DejaVuSans-31" transform="translate(920.507812 0.78125)"/>
     </g>
    </g>
    <g id="line2d_35">
     <path d="M 67.525 64.645625 
L 72.525 64.645625 
L 77.525 64.645625 
" style="fill: none; stroke: #008000; stroke-width: 2; stroke-linecap: square"/>
    </g>
    <g id="text_19">
     <!-- $I_{DS X1}: V_{G}$ =  1.1e+00 -->
     <g transform="translate(79.525 68.145625) scale(0.12 -0.12)">
      <defs>
       <path id="DejaVuSans-2b" d="M 2944 4013 
L 2944 2272 
L 4684 2272 
L 4684 1741 
L 2944 1741 
L 2944 0 
L 2419 0 
L 2419 1741 
L 678 1741 
L 678 2272 
L 2419 2272 
L 2419 4013 
L 2944 4013 
z
" transform="scale(0.015625)"/>
      </defs>
      <use xlink:href="#DejaVuSans-Oblique-49" transform="translate(0 0.78125)"/>
      <use xlink:href="#DejaVuSans-Oblique-44" transform="translate(29.492188 -15.625) scale(0.7)"/>
      <use xlink:href="#DejaVuSans-Oblique-53" transform="translate(83.393555 -15.625) scale(0.7)"/>
      <use xlink:href="#DejaVuSans-Oblique-58" transform="translate(127.827148 -15.625) scale(0.7)"/>
      <use xlink:href="#DejaVuSans-31" transform="translate(175.78125 -15.625) scale(0.7)"/>
      <use xlink:href="#DejaVuSans-3a" transform="translate(242.53418 0.78125)"/>
      <use xlink:href="#DejaVuSans-Oblique-56" transform="translate(295.708008 0.78125)"/>
      <use xlink:href="#DejaVuSans-Oblique-47" transform="translate(364.116211 -15.625) scale(0.7)"/>
      <use xlink:href="#DejaVuSans-20" transform="translate(421.09375 0.78125)"/>
      <use xlink:href="#DejaVuSans-3d" transform="translate(452.880859 0.78125)"/>
      <use xlink:href="#DejaVuSans-20" transform="translate(536.669922 0.78125)"/>
      <use xlink:href="#DejaVuSans-20" transform="translate(568.457031 0.78125)"/>
      <use xlink:href="#DejaVuSans-31" transform="translate(600.244141 0.78125)"/>
      <use xlink:href="#DejaVuSans-2e" transform="translate(663.867188 0.78125)"/>
      <use xlink:href="#DejaVuSans-31" transform="translate(695.654297 0.78125)"/>
      <use xlink:href="#DejaVuSans-65" transform="translate(759.277344 0.78125)"/>
      <use xlink:href="#DejaVuSans-2b" transform="translate(820.800781 0.78125)"/>
      <use xlink:href="#DejaVuSans-30" transform="translate(904.589844 0.78125)"/>
      <use xlink:href="#DejaVuSans-30" transform="translate(968.212891 0.78125)"/>
     </g>
    </g>
    <g id="line2d_36">
     <path d="M 67.525 76.259375 
L 72.525 76.259375 
L 77.525 76.259375 
" style="fill: none; stroke: #00bfbf; stroke-width: 2; stroke-linecap: square"/>
    </g>
    <g id="text_20">
     <!-- $I_{DS X1}: V_{G}$ =  1.3e+00 -->
     <g transform="translate(79.525 79.759375) scale(0.12 -0.12)">
      <defs>
       <path id="DejaVuSans-33" d="M 2597 2516 
Q 3050 2419 3304 2112 
Q 3559 1806 3559 1356 
Q 3559 666 3084 287 
Q 2609 -91 1734 -91 
Q 1441 -91 1130 -33 
Q 819 25 488 141 
L 488 750 
Q 750 597 1062 519 
Q 1375 441 1716 441 
Q 2309 441 2620 675 
Q 2931 909 2931 1356 
Q 2931 1769 2642 2001 
Q 2353 2234 1838 2234 
L 1294 2234 
L 1294 2753 
L 1863 2753 
Q 2328 2753 2575 2939 
Q 2822 3125 2822 3475 
Q 2822 3834 2567 4026 
Q 2313 4219 1838 4219 
Q 1578 4219 1281 4162 
Q 984 4106 628 3988 
L 628 4550 
Q 988 4650 1302 4700 
Q 1616 4750 1894 4750 
Q 2613 4750 3031 4423 
Q 3450 4097 3450 3541 
Q 3450 3153 3228 2886 
Q 3006 2619 2597 2516 
z
" transform="scale(0.015625)"/>
      </defs>
      <use xlink:href="#DejaVuSans-Oblique-49" transform="translate(0 0.78125)"/>
      <use xlink:href="#DejaVuSans-Oblique-44" transform="translate(29.492188 -15.625) scale(0.7)"/>
      <use xlink:href="#DejaVuSans-Oblique-53" transform="translate(83.393555 -15.625) scale(0.7)"/>
      <use xlink:href="#DejaVuSans-Oblique-58" transform="translate(127.827148 -15.625) scale(0.7)"/>
      <use xlink:href="#DejaVuSans-31" transform="translate(175.78125 -15.625) scale(0.7)"/>
      <use xlink:href="#DejaVuSans-3a" transform="translate(242.53418 0.78125)"/>
      <use xlink:href="#DejaVuSans-Oblique-56" transform="translate(295.708008 0.78125)"/>
      <use xlink:href="#DejaVuSans-Oblique-47" transform="translate(364.116211 -15.625) scale(0.7)"/>
      <use xlink:href="#DejaVuSans-20" transform="translate(421.09375 0.78125)"/>
      <use xlink:href="#DejaVuSans-3d" transform="translate(452.880859 0.78125)"/>
      <use xlink:href="#DejaVuSans-20" transform="translate(536.669922 0.78125)"/>
      <use xlink:href="#DejaVuSans-20" transform="translate(568.457031 0.78125)"/>
      <use xlink:href="#DejaVuSans-31" transform="translate(600.244141 0.78125)"/>
      <use xlink:href="#DejaVuSans-2e" transform="translate(663.867188 0.78125)"/>
      <use xlink:href="#DejaVuSans-33" transform="translate(695.654297 0.78125)"/>
      <use xlink:href="#DejaVuSans-65" transform="translate(759.277344 0.78125)"/>
      <use xlink:href="#DejaVuSans-2b" transform="translate(820.800781 0.78125)"/>
      <use xlink:href="#DejaVuSans-30" transform="translate(904.589844 0.78125)"/>
      <use xlink:href="#DejaVuSans-30" transform="translate(968.212891 0.78125)"/>
     </g>
    </g>
    <g id="line2d_37">
     <path d="M 67.525 87.873125 
L 72.525 87.873125 
L 77.525 87.873125 
" style="fill: none; stroke: #bf00bf; stroke-width: 2; stroke-linecap: square"/>
    </g>
    <g id="text_21">
     <!-- $I_{DS X1}: V_{G}$ =  1.6e+00 -->
     <g transform="translate(79.525 91.373125) scale(0.12 -0.12)">
      <use xlink:href="#DejaVuSans-Oblique-49" transform="translate(0 0.78125)"/>
      <use xlink:href="#DejaVuSans-Oblique-44" transform="translate(29.492188 -15.625) scale(0.7)"/>
      <use xlink:href="#DejaVuSans-Oblique-53" transform="translate(83.393555 -15.625) scale(0.7)"/>
      <use xlink:href="#DejaVuSans-Oblique-58" transform="translate(127.827148 -15.625) scale(0.7)"/>
      <use xlink:href="#DejaVuSans-31" transform="translate(175.78125 -15.625) scale(0.7)"/>
      <use xlink:href="#DejaVuSans-3a" transform="translate(242.53418 0.78125)"/>
      <use xlink:href="#DejaVuSans-Oblique-56" transform="translate(295.708008 0.78125)"/>
      <use xlink:href="#DejaVuSans-Oblique-47" transform="translate(364.116211 -15.625) scale(0.7)"/>
      <use xlink:href="#DejaVuSans-20" transform="translate(421.09375 0.78125)"/>
      <use xlink:href="#DejaVuSans-3d" transform="translate(452.880859 0.78125)"/>
      <use xlink:href="#DejaVuSans-20" transform="translate(536.669922 0.78125)"/>
      <use xlink:href="#DejaVuSans-20" transform="translate(568.457031 0.78125)"/>
      <use xlink:href="#DejaVuSans-31" transform="translate(600.244141 0.78125)"/>
      <use xlink:href="#DejaVuSans-2e" transform="translate(663.867188 0.78125)"/>
      <use xlink:href="#DejaVuSans-36" transform="translate(695.654297 0.78125)"/>
      <use xlink:href="#DejaVuSans-65" transform="translate(759.277344 0.78125)"/>
      <use xlink:href="#DejaVuSans-2b" transform="translate(820.800781 0.78125)"/>
      <use xlink:href="#DejaVuSans-30" transform="translate(904.589844 0.78125)"/>
      <use xlink:href="#DejaVuSans-30" transform="translate(968.212891 0.78125)"/>
     </g>
    </g>
    <g id="line2d_38">
     <path d="M 67.525 99.486875 
L 72.525 99.486875 
L 77.525 99.486875 
" style="fill: none; stroke: #bfbf00; stroke-width: 2; stroke-linecap: square"/>
    </g>
    <g id="text_22">
     <!-- $I_{DS X1}: V_{G}$ =  1.8e+00 -->
     <g transform="translate(79.525 102.986875) scale(0.12 -0.12)">
      <use xlink:href="#DejaVuSans-Oblique-49" transform="translate(0 0.78125)"/>
      <use xlink:href="#DejaVuSans-Oblique-44" transform="translate(29.492188 -15.625) scale(0.7)"/>
      <use xlink:href="#DejaVuSans-Oblique-53" transform="translate(83.393555 -15.625) scale(0.7)"/>
      <use xlink:href="#DejaVuSans-Oblique-58" transform="translate(127.827148 -15.625) scale(0.7)"/>
      <use xlink:href="#DejaVuSans-31" transform="translate(175.78125 -15.625) scale(0.7)"/>
      <use xlink:href="#DejaVuSans-3a" transform="translate(242.53418 0.78125)"/>
      <use xlink:href="#DejaVuSans-Oblique-56" transform="translate(295.708008 0.78125)"/>
      <use xlink:href="#DejaVuSans-Oblique-47" transform="translate(364.116211 -15.625) scale(0.7)"/>
      <use xlink:href="#DejaVuSans-20" transform="translate(421.09375 0.78125)"/>
      <use xlink:href="#DejaVuSans-3d" transform="translate(452.880859 0.78125)"/>
      <use xlink:href="#DejaVuSans-20" transform="translate(536.669922 0.78125)"/>
      <use xlink:href="#DejaVuSans-20" transform="translate(568.457031 0.78125)"/>
      <use xlink:href="#DejaVuSans-31" transform="translate(600.244141 0.78125)"/>
      <use xlink:href="#DejaVuSans-2e" transform="translate(663.867188 0.78125)"/>
      <use xlink:href="#DejaVuSans-38" transform="translate(693.029297 0.78125)"/>
      <use xlink:href="#DejaVuSans-65" transform="translate(756.652344 0.78125)"/>
      <use xlink:href="#DejaVuSans-2b" transform="translate(818.175781 0.78125)"/>
      <use xlink:href="#DejaVuSans-30" transform="translate(901.964844 0.78125)"/>
      <use xlink:href="#DejaVuSans-30" transform="translate(965.587891 0.78125)"/>
     </g>
    </g>
   </g>
  </g>
 </g>
 <defs>
  <clipPath id="p323ceb885e">
   <rect x="60.525" y="28.8" width="432.675" height="280.3"/>
  </clipPath>
 </defs>
</svg>
