<?xml version="1.0" encoding="utf-8" standalone="no"?>
<!DOCTYPE svg PUBLIC "-//W3C//DTD SVG 1.1//EN"
  "http://www.w3.org/Graphics/SVG/1.1/DTD/svg11.dtd">
<svg xmlns:xlink="http://www.w3.org/1999/xlink" width="504pt" height="360pt" viewBox="0 0 504 360" xmlns="http://www.w3.org/2000/svg" version="1.1">
 <metadata>
  <rdf:RDF xmlns:dc="http://purl.org/dc/elements/1.1/" xmlns:cc="http://creativecommons.org/ns#" xmlns:rdf="http://www.w3.org/1999/02/22-rdf-syntax-ns#">
   <cc:Work>
    <dc:type rdf:resource="http://purl.org/dc/dcmitype/StillImage"/>
    <dc:date>2024-10-20T17:19:38.676974</dc:date>
    <dc:format>image/svg+xml</dc:format>
    <dc:creator>
     <cc:Agent>
      <dc:title>Matplotlib v3.9.2, https://matplotlib.org/</dc:title>
     </cc:Agent>
    </dc:creator>
   </cc:Work>
  </rdf:RDF>
 </metadata>
 <defs>
  <style type="text/css">*{stroke-linejoin: round; stroke-linecap: butt}</style>
 </defs>
 <g id="figure_1">
  <g id="patch_1">
   <path d="M 0 360 
L 504 360 
L 504 0 
L 0 0 
z
" style="fill: #ffffff"/>
  </g>
  <g id="axes_1">
   <g id="patch_2">
    <path d="M 53.025 309.1 
L 493.2 309.1 
L 493.2 28.8 
L 53.025 28.8 
z
" style="fill: #ffffff"/>
   </g>
   <g id="matplotlib.axis_1">
    <g id="xtick_1">
     <g id="line2d_1">
      <path d="M 119.627146 309.1 
L 119.627146 28.8 
" clip-path="url(#pd54e4ff757)" style="fill: none; stroke: #808080; stroke-width: 0.8; stroke-linecap: square"/>
     </g>
     <g id="line2d_2">
      <defs>
       <path id="m5af25a1f82" d="M 0 0 
L 0 3.5 
" style="stroke: #000000; stroke-width: 0.8"/>
      </defs>
      <g>
       <use xlink:href="#m5af25a1f82" x="119.627146" y="309.1" style="stroke: #000000; stroke-width: 0.8"/>
      </g>
     </g>
     <g id="text_1">
      <!-- −80 -->
      <g transform="translate(106.964334 325.218125) scale(0.12 -0.12)">
       <defs>
        <path id="DejaVuSans-2212" d="M 678 2272 
L 4684 2272 
L 4684 1741 
L 678 1741 
L 678 2272 
z
" transform="scale(0.015625)"/>
        <path id="DejaVuSans-38" d="M 2034 2216 
Q 1584 2216 1326 1975 
Q 1069 1734 1069 1313 
Q 1069 891 1326 650 
Q 1584 409 2034 409 
Q 2484 409 2743 651 
Q 3003 894 3003 1313 
Q 3003 1734 2745 1975 
Q 2488 2216 2034 2216 
z
M 1403 2484 
Q 997 2584 770 2862 
Q 544 3141 544 3541 
Q 544 4100 942 4425 
Q 1341 4750 2034 4750 
Q 2731 4750 3128 4425 
Q 3525 4100 3525 3541 
Q 3525 3141 3298 2862 
Q 3072 2584 2669 2484 
Q 3125 2378 3379 2068 
Q 3634 1759 3634 1313 
Q 3634 634 3220 271 
Q 2806 -91 2034 -91 
Q 1263 -91 848 271 
Q 434 634 434 1313 
Q 434 1759 690 2068 
Q 947 2378 1403 2484 
z
M 1172 3481 
Q 1172 3119 1398 2916 
Q 1625 2713 2034 2713 
Q 2441 2713 2670 2916 
Q 2900 3119 2900 3481 
Q 2900 3844 2670 4047 
Q 2441 4250 2034 4250 
Q 1625 4250 1398 4047 
Q 1172 3844 1172 3481 
z
" transform="scale(0.015625)"/>
        <path id="DejaVuSans-30" d="M 2034 4250 
Q 1547 4250 1301 3770 
Q 1056 3291 1056 2328 
Q 1056 1369 1301 889 
Q 1547 409 2034 409 
Q 2525 409 2770 889 
Q 3016 1369 3016 2328 
Q 3016 3291 2770 3770 
Q 2525 4250 2034 4250 
z
M 2034 4750 
Q 2819 4750 3233 4129 
Q 3647 3509 3647 2328 
Q 3647 1150 3233 529 
Q 2819 -91 2034 -91 
Q 1250 -91 836 529 
Q 422 1150 422 2328 
Q 422 3509 836 4129 
Q 1250 4750 2034 4750 
z
" transform="scale(0.015625)"/>
       </defs>
       <use xlink:href="#DejaVuSans-2212"/>
       <use xlink:href="#DejaVuSans-38" x="83.789062"/>
       <use xlink:href="#DejaVuSans-30" x="147.412109"/>
      </g>
     </g>
    </g>
    <g id="xtick_2">
     <g id="line2d_3">
      <path d="M 208.018372 309.1 
L 208.018372 28.8 
" clip-path="url(#pd54e4ff757)" style="fill: none; stroke: #808080; stroke-width: 0.8; stroke-linecap: square"/>
     </g>
     <g id="line2d_4">
      <g>
       <use xlink:href="#m5af25a1f82" x="208.018372" y="309.1" style="stroke: #000000; stroke-width: 0.8"/>
      </g>
     </g>
     <g id="text_2">
      <!-- −60 -->
      <g transform="translate(195.35556 325.218125) scale(0.12 -0.12)">
       <defs>
        <path id="DejaVuSans-36" d="M 2113 2584 
Q 1688 2584 1439 2293 
Q 1191 2003 1191 1497 
Q 1191 994 1439 701 
Q 1688 409 2113 409 
Q 2538 409 2786 701 
Q 3034 994 3034 1497 
Q 3034 2003 2786 2293 
Q 2538 2584 2113 2584 
z
M 3366 4563 
L 3366 3988 
Q 3128 4100 2886 4159 
Q 2644 4219 2406 4219 
Q 1781 4219 1451 3797 
Q 1122 3375 1075 2522 
Q 1259 2794 1537 2939 
Q 1816 3084 2150 3084 
Q 2853 3084 3261 2657 
Q 3669 2231 3669 1497 
Q 3669 778 3244 343 
Q 2819 -91 2113 -91 
Q 1303 -91 875 529 
Q 447 1150 447 2328 
Q 447 3434 972 4092 
Q 1497 4750 2381 4750 
Q 2619 4750 2861 4703 
Q 3103 4656 3366 4563 
z
" transform="scale(0.015625)"/>
       </defs>
       <use xlink:href="#DejaVuSans-2212"/>
       <use xlink:href="#DejaVuSans-36" x="83.789062"/>
       <use xlink:href="#DejaVuSans-30" x="147.412109"/>
      </g>
     </g>
    </g>
    <g id="xtick_3">
     <g id="line2d_5">
      <path d="M 296.409599 309.1 
L 296.409599 28.8 
" clip-path="url(#pd54e4ff757)" style="fill: none; stroke: #808080; stroke-width: 0.8; stroke-linecap: square"/>
     </g>
     <g id="line2d_6">
      <g>
       <use xlink:href="#m5af25a1f82" x="296.409599" y="309.1" style="stroke: #000000; stroke-width: 0.8"/>
      </g>
     </g>
     <g id="text_3">
      <!-- −40 -->
      <g transform="translate(283.746786 325.218125) scale(0.12 -0.12)">
       <defs>
        <path id="DejaVuSans-34" d="M 2419 4116 
L 825 1625 
L 2419 1625 
L 2419 4116 
z
M 2253 4666 
L 3047 4666 
L 3047 1625 
L 3713 1625 
L 3713 1100 
L 3047 1100 
L 3047 0 
L 2419 0 
L 2419 1100 
L 313 1100 
L 313 1709 
L 2253 4666 
z
" transform="scale(0.015625)"/>
       </defs>
       <use xlink:href="#DejaVuSans-2212"/>
       <use xlink:href="#DejaVuSans-34" x="83.789062"/>
       <use xlink:href="#DejaVuSans-30" x="147.412109"/>
      </g>
     </g>
    </g>
    <g id="xtick_4">
     <g id="line2d_7">
      <path d="M 384.800825 309.1 
L 384.800825 28.8 
" clip-path="url(#pd54e4ff757)" style="fill: none; stroke: #808080; stroke-width: 0.8; stroke-linecap: square"/>
     </g>
     <g id="line2d_8">
      <g>
       <use xlink:href="#m5af25a1f82" x="384.800825" y="309.1" style="stroke: #000000; stroke-width: 0.8"/>
      </g>
     </g>
     <g id="text_4">
      <!-- −20 -->
      <g transform="translate(372.138012 325.218125) scale(0.12 -0.12)">
       <defs>
        <path id="DejaVuSans-32" d="M 1228 531 
L 3431 531 
L 3431 0 
L 469 0 
L 469 531 
Q 828 903 1448 1529 
Q 2069 2156 2228 2338 
Q 2531 2678 2651 2914 
Q 2772 3150 2772 3378 
Q 2772 3750 2511 3984 
Q 2250 4219 1831 4219 
Q 1534 4219 1204 4116 
Q 875 4013 500 3803 
L 500 4441 
Q 881 4594 1212 4672 
Q 1544 4750 1819 4750 
Q 2544 4750 2975 4387 
Q 3406 4025 3406 3419 
Q 3406 3131 3298 2873 
Q 3191 2616 2906 2266 
Q 2828 2175 2409 1742 
Q 1991 1309 1228 531 
z
" transform="scale(0.015625)"/>
       </defs>
       <use xlink:href="#DejaVuSans-2212"/>
       <use xlink:href="#DejaVuSans-32" x="83.789062"/>
       <use xlink:href="#DejaVuSans-30" x="147.412109"/>
      </g>
     </g>
    </g>
    <g id="xtick_5">
     <g id="line2d_9">
      <path d="M 473.192051 309.1 
L 473.192051 28.8 
" clip-path="url(#pd54e4ff757)" style="fill: none; stroke: #808080; stroke-width: 0.8; stroke-linecap: square"/>
     </g>
     <g id="line2d_10">
      <g>
       <use xlink:href="#m5af25a1f82" x="473.192051" y="309.1" style="stroke: #000000; stroke-width: 0.8"/>
      </g>
     </g>
     <g id="text_5">
      <!-- 0 -->
      <g transform="translate(469.374551 325.218125) scale(0.12 -0.12)">
       <use xlink:href="#DejaVuSans-30"/>
      </g>
     </g>
    </g>
    <g id="text_6">
     <!-- $I_{DS X1}$ [uA] -->
     <g transform="translate(245.2125 340.831875) scale(0.12 -0.12)">
      <defs>
       <path id="DejaVuSans-Oblique-49" d="M 1081 4666 
L 1716 4666 
L 806 0 
L 172 0 
L 1081 4666 
z
" transform="scale(0.015625)"/>
       <path id="DejaVuSans-Oblique-44" d="M 1081 4666 
L 2438 4666 
Q 3519 4666 4070 4208 
Q 4622 3750 4622 2847 
Q 4622 2250 4412 1698 
Q 4203 1147 3834 769 
Q 3463 381 2891 190 
Q 2319 0 1538 0 
L 172 0 
L 1081 4666 
z
M 1613 4147 
L 909 519 
L 1734 519 
Q 2794 519 3375 1128 
Q 3956 1738 3956 2847 
Q 3956 3519 3581 3833 
Q 3206 4147 2406 4147 
L 1613 4147 
z
" transform="scale(0.015625)"/>
       <path id="DejaVuSans-Oblique-53" d="M 3859 4513 
L 3738 3897 
Q 3422 4066 3111 4152 
Q 2800 4238 2509 4238 
Q 1944 4238 1609 3991 
Q 1275 3744 1275 3334 
Q 1275 3109 1398 2989 
Q 1522 2869 2034 2731 
L 2413 2638 
Q 3053 2472 3303 2217 
Q 3553 1963 3553 1503 
Q 3553 797 2998 353 
Q 2444 -91 1538 -91 
Q 1166 -91 791 -17 
Q 416 56 38 206 
L 166 856 
Q 513 641 861 531 
Q 1209 422 1556 422 
Q 2147 422 2503 684 
Q 2859 947 2859 1369 
Q 2859 1650 2717 1795 
Q 2575 1941 2106 2059 
L 1728 2156 
Q 1081 2325 845 2545 
Q 609 2766 609 3163 
Q 609 3859 1145 4304 
Q 1681 4750 2541 4750 
Q 2875 4750 3203 4690 
Q 3531 4631 3859 4513 
z
" transform="scale(0.015625)"/>
       <path id="DejaVuSans-Oblique-58" d="M 878 4666 
L 1516 4666 
L 2316 2981 
L 3763 4666 
L 4500 4666 
L 2578 2438 
L 3738 0 
L 3103 0 
L 2163 1966 
L 459 0 
L -275 0 
L 1906 2509 
L 878 4666 
z
" transform="scale(0.015625)"/>
       <path id="DejaVuSans-31" d="M 794 531 
L 1825 531 
L 1825 4091 
L 703 3866 
L 703 4441 
L 1819 4666 
L 2450 4666 
L 2450 531 
L 3481 531 
L 3481 0 
L 794 0 
L 794 531 
z
" transform="scale(0.015625)"/>
       <path id="DejaVuSans-20" transform="scale(0.015625)"/>
       <path id="DejaVuSans-5b" d="M 550 4863 
L 1875 4863 
L 1875 4416 
L 1125 4416 
L 1125 -397 
L 1875 -397 
L 1875 -844 
L 550 -844 
L 550 4863 
z
" transform="scale(0.015625)"/>
       <path id="DejaVuSans-75" d="M 544 1381 
L 544 3500 
L 1119 3500 
L 1119 1403 
Q 1119 906 1312 657 
Q 1506 409 1894 409 
Q 2359 409 2629 706 
Q 2900 1003 2900 1516 
L 2900 3500 
L 3475 3500 
L 3475 0 
L 2900 0 
L 2900 538 
Q 2691 219 2414 64 
Q 2138 -91 1772 -91 
Q 1169 -91 856 284 
Q 544 659 544 1381 
z
M 1991 3584 
L 1991 3584 
z
" transform="scale(0.015625)"/>
       <path id="DejaVuSans-41" d="M 2188 4044 
L 1331 1722 
L 3047 1722 
L 2188 4044 
z
M 1831 4666 
L 2547 4666 
L 4325 0 
L 3669 0 
L 3244 1197 
L 1141 1197 
L 716 0 
L 50 0 
L 1831 4666 
z
" transform="scale(0.015625)"/>
       <path id="DejaVuSans-5d" d="M 1947 4863 
L 1947 -844 
L 622 -844 
L 622 -397 
L 1369 -397 
L 1369 4416 
L 622 4416 
L 622 4863 
L 1947 4863 
z
" transform="scale(0.015625)"/>
      </defs>
      <use xlink:href="#DejaVuSans-Oblique-49" transform="translate(0 0.015625)"/>
      <use xlink:href="#DejaVuSans-Oblique-44" transform="translate(29.492188 -16.390625) scale(0.7)"/>
      <use xlink:href="#DejaVuSans-Oblique-53" transform="translate(83.393555 -16.390625) scale(0.7)"/>
      <use xlink:href="#DejaVuSans-Oblique-58" transform="translate(127.827148 -16.390625) scale(0.7)"/>
      <use xlink:href="#DejaVuSans-31" transform="translate(175.78125 -16.390625) scale(0.7)"/>
      <use xlink:href="#DejaVuSans-20" transform="translate(223.051758 0.015625)"/>
      <use xlink:href="#DejaVuSans-5b" transform="translate(254.838867 0.015625)"/>
      <use xlink:href="#DejaVuSans-75" transform="translate(293.852539 0.015625)"/>
      <use xlink:href="#DejaVuSans-41" transform="translate(357.231445 0.015625)"/>
      <use xlink:href="#DejaVuSans-5d" transform="translate(425.639648 0.015625)"/>
     </g>
    </g>
   </g>
   <g id="matplotlib.axis_2">
    <g id="ytick_1">
     <g id="line2d_11">
      <path d="M 53.025 296.359341 
L 493.2 296.359341 
" clip-path="url(#pd54e4ff757)" style="fill: none; stroke: #808080; stroke-width: 0.8; stroke-linecap: square"/>
     </g>
     <g id="line2d_12">
      <defs>
       <path id="md9eee976ee" d="M 0 0 
L -3.5 0 
" style="stroke: #000000; stroke-width: 0.8"/>
      </defs>
      <g>
       <use xlink:href="#md9eee976ee" x="53.025" y="296.359341" style="stroke: #000000; stroke-width: 0.8"/>
      </g>
     </g>
     <g id="text_7">
      <!-- 0 -->
      <g transform="translate(38.39 300.918404) scale(0.12 -0.12)">
       <use xlink:href="#DejaVuSans-30"/>
      </g>
     </g>
    </g>
    <g id="ytick_2">
     <g id="line2d_13">
      <path d="M 53.025 246.721678 
L 493.2 246.721678 
" clip-path="url(#pd54e4ff757)" style="fill: none; stroke: #808080; stroke-width: 0.8; stroke-linecap: square"/>
     </g>
     <g id="line2d_14">
      <g>
       <use xlink:href="#md9eee976ee" x="53.025" y="246.721678" style="stroke: #000000; stroke-width: 0.8"/>
      </g>
     </g>
     <g id="text_8">
      <!-- 5 -->
      <g transform="translate(38.39 251.280741) scale(0.12 -0.12)">
       <defs>
        <path id="DejaVuSans-35" d="M 691 4666 
L 3169 4666 
L 3169 4134 
L 1269 4134 
L 1269 2991 
Q 1406 3038 1543 3061 
Q 1681 3084 1819 3084 
Q 2600 3084 3056 2656 
Q 3513 2228 3513 1497 
Q 3513 744 3044 326 
Q 2575 -91 1722 -91 
Q 1428 -91 1123 -41 
Q 819 9 494 109 
L 494 744 
Q 775 591 1075 516 
Q 1375 441 1709 441 
Q 2250 441 2565 725 
Q 2881 1009 2881 1497 
Q 2881 1984 2565 2268 
Q 2250 2553 1709 2553 
Q 1456 2553 1204 2497 
Q 953 2441 691 2322 
L 691 4666 
z
" transform="scale(0.015625)"/>
       </defs>
       <use xlink:href="#DejaVuSans-35"/>
      </g>
     </g>
    </g>
    <g id="ytick_3">
     <g id="line2d_15">
      <path d="M 53.025 197.084015 
L 493.2 197.084015 
" clip-path="url(#pd54e4ff757)" style="fill: none; stroke: #808080; stroke-width: 0.8; stroke-linecap: square"/>
     </g>
     <g id="line2d_16">
      <g>
       <use xlink:href="#md9eee976ee" x="53.025" y="197.084015" style="stroke: #000000; stroke-width: 0.8"/>
      </g>
     </g>
     <g id="text_9">
      <!-- 10 -->
      <g transform="translate(30.755 201.643078) scale(0.12 -0.12)">
       <use xlink:href="#DejaVuSans-31"/>
       <use xlink:href="#DejaVuSans-30" x="63.623047"/>
      </g>
     </g>
    </g>
    <g id="ytick_4">
     <g id="line2d_17">
      <path d="M 53.025 147.446352 
L 493.2 147.446352 
" clip-path="url(#pd54e4ff757)" style="fill: none; stroke: #808080; stroke-width: 0.8; stroke-linecap: square"/>
     </g>
     <g id="line2d_18">
      <g>
       <use xlink:href="#md9eee976ee" x="53.025" y="147.446352" style="stroke: #000000; stroke-width: 0.8"/>
      </g>
     </g>
     <g id="text_10">
      <!-- 15 -->
      <g transform="translate(30.755 152.005415) scale(0.12 -0.12)">
       <use xlink:href="#DejaVuSans-31"/>
       <use xlink:href="#DejaVuSans-35" x="63.623047"/>
      </g>
     </g>
    </g>
    <g id="ytick_5">
     <g id="line2d_19">
      <path d="M 53.025 97.808689 
L 493.2 97.808689 
" clip-path="url(#pd54e4ff757)" style="fill: none; stroke: #808080; stroke-width: 0.8; stroke-linecap: square"/>
     </g>
     <g id="line2d_20">
      <g>
       <use xlink:href="#md9eee976ee" x="53.025" y="97.808689" style="stroke: #000000; stroke-width: 0.8"/>
      </g>
     </g>
     <g id="text_11">
      <!-- 20 -->
      <g transform="translate(30.755 102.367752) scale(0.12 -0.12)">
       <use xlink:href="#DejaVuSans-32"/>
       <use xlink:href="#DejaVuSans-30" x="63.623047"/>
      </g>
     </g>
    </g>
    <g id="ytick_6">
     <g id="line2d_21">
      <path d="M 53.025 48.171026 
L 493.2 48.171026 
" clip-path="url(#pd54e4ff757)" style="fill: none; stroke: #808080; stroke-width: 0.8; stroke-linecap: square"/>
     </g>
     <g id="line2d_22">
      <g>
       <use xlink:href="#md9eee976ee" x="53.025" y="48.171026" style="stroke: #000000; stroke-width: 0.8"/>
      </g>
     </g>
     <g id="text_12">
      <!-- 25 -->
      <g transform="translate(30.755 52.730089) scale(0.12 -0.12)">
       <use xlink:href="#DejaVuSans-32"/>
       <use xlink:href="#DejaVuSans-35" x="63.623047"/>
      </g>
     </g>
    </g>
    <g id="text_13">
     <!-- $f_{T X1}\,$ [GHz] -->
     <g transform="translate(24.259375 199.25) rotate(-90) scale(0.12 -0.12)">
      <defs>
       <path id="DejaVuSans-Oblique-66" d="M 3059 4863 
L 2969 4384 
L 2419 4384 
Q 2106 4384 1964 4261 
Q 1822 4138 1753 3809 
L 1691 3500 
L 2638 3500 
L 2553 3053 
L 1606 3053 
L 1013 0 
L 434 0 
L 1031 3053 
L 481 3053 
L 563 3500 
L 1113 3500 
L 1159 3744 
Q 1278 4363 1576 4613 
Q 1875 4863 2516 4863 
L 3059 4863 
z
" transform="scale(0.015625)"/>
       <path id="DejaVuSans-Oblique-54" d="M 378 4666 
L 4325 4666 
L 4225 4134 
L 2559 4134 
L 1759 0 
L 1125 0 
L 1925 4134 
L 275 4134 
L 378 4666 
z
" transform="scale(0.015625)"/>
       <path id="DejaVuSans-47" d="M 3809 666 
L 3809 1919 
L 2778 1919 
L 2778 2438 
L 4434 2438 
L 4434 434 
Q 4069 175 3628 42 
Q 3188 -91 2688 -91 
Q 1594 -91 976 548 
Q 359 1188 359 2328 
Q 359 3472 976 4111 
Q 1594 4750 2688 4750 
Q 3144 4750 3555 4637 
Q 3966 4525 4313 4306 
L 4313 3634 
Q 3963 3931 3569 4081 
Q 3175 4231 2741 4231 
Q 1884 4231 1454 3753 
Q 1025 3275 1025 2328 
Q 1025 1384 1454 906 
Q 1884 428 2741 428 
Q 3075 428 3337 486 
Q 3600 544 3809 666 
z
" transform="scale(0.015625)"/>
       <path id="DejaVuSans-48" d="M 628 4666 
L 1259 4666 
L 1259 2753 
L 3553 2753 
L 3553 4666 
L 4184 4666 
L 4184 0 
L 3553 0 
L 3553 2222 
L 1259 2222 
L 1259 0 
L 628 0 
L 628 4666 
z
" transform="scale(0.015625)"/>
       <path id="DejaVuSans-7a" d="M 353 3500 
L 3084 3500 
L 3084 2975 
L 922 459 
L 3084 459 
L 3084 0 
L 275 0 
L 275 525 
L 2438 3041 
L 353 3041 
L 353 3500 
z
" transform="scale(0.015625)"/>
      </defs>
      <use xlink:href="#DejaVuSans-Oblique-66" transform="translate(0 0.015625)"/>
      <use xlink:href="#DejaVuSans-Oblique-54" transform="translate(35.205078 -16.390625) scale(0.7)"/>
      <use xlink:href="#DejaVuSans-Oblique-58" transform="translate(77.963867 -16.390625) scale(0.7)"/>
      <use xlink:href="#DejaVuSans-31" transform="translate(125.917969 -16.390625) scale(0.7)"/>
      <use xlink:href="#DejaVuSans-20" transform="translate(189.424153 0.015625)"/>
      <use xlink:href="#DejaVuSans-5b" transform="translate(221.211262 0.015625)"/>
      <use xlink:href="#DejaVuSans-47" transform="translate(260.224934 0.015625)"/>
      <use xlink:href="#DejaVuSans-48" transform="translate(337.715168 0.015625)"/>
      <use xlink:href="#DejaVuSans-7a" transform="translate(412.910481 0.015625)"/>
      <use xlink:href="#DejaVuSans-5d" transform="translate(465.400715 0.015625)"/>
     </g>
    </g>
   </g>
   <g id="line2d_23">
    <path d="M 473.192045 296.359052 
L 473.192033 296.358515 
L 473.192 296.356982 
L 473.191907 296.352613 
L 473.191641 296.34022 
L 473.190888 296.30531 
L 473.188779 296.208183 
L 473.182948 295.943834 
L 473.167205 295.252221 
L 473.126206 293.565282 
L 473.025053 289.899774 
L 472.793669 283.113025 
L 472.31324 272.531208 
L 471.420986 258.307558 
L 469.94311 241.294662 
L 467.739616 222.65919 
L 464.730995 203.499546 
L 460.895935 184.658419 
L 456.252624 166.701475 
L 450.839267 149.967394 
L 444.700801 134.631129 
L 437.881863 120.757499 
L 430.423871 108.340354 
L 422.364258 97.32935 
L 413.736646 87.647784 
L 404.571331 79.204411 
L 394.895804 71.901292 
L 384.735211 65.639018 
L 374.112717 60.320163 
L 363.049797 55.851505 
L 351.566455 52.145381 
L 339.681399 49.120437 
L 327.412176 46.701941 
L 314.775283 44.821793 
L 301.786258 43.418338 
L 288.459762 42.436038 
L 274.809638 41.825076 
L 260.84898 41.540909 
L 246.590177 41.54382 
L 232.044969 41.798464 
L 217.224483 42.273441 
L 202.139277 42.94089 
L 186.799376 43.776113 
L 171.214304 44.757235 
L 155.393116 45.864887 
L 139.344427 47.081929 
L 123.076436 48.393196 
L 106.596955 49.785272 
L 89.913429 51.246292 
L 73.032955 52.765761 
" clip-path="url(#pd54e4ff757)" style="fill: none; stroke: #ff0000; stroke-width: 2; stroke-linecap: square"/>
   </g>
   <g id="line2d_24">
    <path d="M 473.192045 296.359072 
L 473.192034 296.35857 
L 473.192004 296.357139 
L 473.191916 296.353062 
L 473.191668 296.341495 
L 473.190966 296.308912 
L 473.188997 296.21826 
L 473.183555 295.971534 
L 473.168862 295.326029 
L 473.130596 293.751553 
L 473.036186 290.330412 
L 472.820227 283.996113 
L 472.371828 274.11975 
L 471.539057 260.844344 
L 470.159706 244.965641 
L 468.103112 227.572534 
L 465.295065 209.690199 
L 461.715676 192.105148 
L 457.381919 175.345333 
L 452.329453 159.726857 
L 446.600218 145.41301 
L 440.235876 132.464289 
L 433.275083 120.874953 
L 425.752777 110.598016 
L 417.70034 101.561888 
L 409.146045 93.681407 
L 400.115554 86.865162 
L 390.632333 81.020373 
L 380.718006 76.056109 
L 370.392613 71.885361 
L 359.674828 68.426312 
L 348.582109 65.603031 
L 337.130834 63.345767 
L 325.3364 61.590963 
L 313.213311 60.281071 
L 300.775248 59.364258 
L 288.035132 58.794027 
L 275.005184 58.528805 
L 261.696969 58.531522 
L 248.121441 58.76919 
L 234.288987 59.212503 
L 220.209462 59.835459 
L 205.892221 60.615012 
L 191.346155 61.530756 
L 176.579715 62.564651 
L 161.600946 63.700803 
L 146.417508 64.925348 
L 131.036715 66.22659 
L 115.465583 67.595761 
L 99.710926 69.02949 
" clip-path="url(#pd54e4ff757)" style="fill: none; stroke: #0000ff; stroke-width: 2; stroke-linecap: square"/>
   </g>
   <g id="line2d_25">
    <path d="M 473.192045 296.359091 
L 473.192036 296.358625 
L 473.192007 296.357296 
L 473.191926 296.35351 
L 473.191695 296.342769 
L 473.191043 296.312514 
L 473.189215 296.228338 
L 473.184162 295.999235 
L 473.170518 295.399837 
L 473.134985 293.937823 
L 473.04732 290.76105 
L 472.846786 284.879201 
L 472.430415 275.708293 
L 471.657128 263.381129 
L 470.376302 248.636619 
L 468.466607 232.485877 
L 465.859136 215.880852 
L 462.535417 199.551877 
L 458.511214 183.989193 
L 453.819638 169.486329 
L 448.499635 156.194914 
L 442.58989 144.171146 
L 436.126299 133.409743 
L 429.141309 123.867221 
L 421.664068 115.477513 
L 413.72086 108.162688 
L 405.335589 101.841068 
L 396.530265 96.435355 
L 387.325574 91.885199 
L 377.741775 88.173499 
L 367.800539 85.384442 
L 357.52885 83.815481 
L 346.966542 84.120925 
L 336.177721 87.299525 
L 325.261117 94.226479 
L 314.347608 104.934309 
L 303.577044 118.469954 
L 293.065318 133.483117 
L 282.883811 148.817618 
L 273.060178 163.709802 
L 263.591807 177.73493 
L 254.460291 190.694741 
L 245.641456 202.525344 
L 237.110742 213.237435 
L 228.845485 222.881049 
L 220.825552 231.525634 
L 213.033262 239.248914 
L 205.453055 246.130635 
L 198.071128 252.249024 
L 190.875114 257.678773 
" clip-path="url(#pd54e4ff757)" style="fill: none; stroke: #008000; stroke-width: 2; stroke-linecap: square"/>
   </g>
   <g id="patch_3">
    <path d="M 53.025 309.1 
L 53.025 28.8 
" style="fill: none; stroke: #000000; stroke-width: 0.8; stroke-linejoin: miter; stroke-linecap: square"/>
   </g>
   <g id="patch_4">
    <path d="M 493.2 309.1 
L 493.2 28.8 
" style="fill: none; stroke: #000000; stroke-width: 0.8; stroke-linejoin: miter; stroke-linecap: square"/>
   </g>
   <g id="patch_5">
    <path d="M 53.025 309.1 
L 493.2 309.1 
" style="fill: none; stroke: #000000; stroke-width: 0.8; stroke-linejoin: miter; stroke-linecap: square"/>
   </g>
   <g id="patch_6">
    <path d="M 53.025 28.8 
L 493.2 28.8 
" style="fill: none; stroke: #000000; stroke-width: 0.8; stroke-linejoin: miter; stroke-linecap: square"/>
   </g>
   <g id="text_14">
    <!-- $f_{T}(I_{ds})$ -->
    <g transform="translate(256.7925 22.8) scale(0.12 -0.12)">
     <defs>
      <path id="DejaVuSans-28" d="M 1984 4856 
Q 1566 4138 1362 3434 
Q 1159 2731 1159 2009 
Q 1159 1288 1364 580 
Q 1569 -128 1984 -844 
L 1484 -844 
Q 1016 -109 783 600 
Q 550 1309 550 2009 
Q 550 2706 781 3412 
Q 1013 4119 1484 4856 
L 1984 4856 
z
" transform="scale(0.015625)"/>
      <path id="DejaVuSans-Oblique-64" d="M 2675 525 
Q 2444 222 2128 65 
Q 1813 -91 1428 -91 
Q 903 -91 598 267 
Q 294 625 294 1247 
Q 294 1766 478 2236 
Q 663 2706 1013 3078 
Q 1244 3325 1534 3454 
Q 1825 3584 2144 3584 
Q 2481 3584 2739 3421 
Q 2997 3259 3138 2956 
L 3513 4863 
L 4091 4863 
L 3144 0 
L 2566 0 
L 2675 525 
z
M 891 1350 
Q 891 897 1095 644 
Q 1300 391 1663 391 
Q 1931 391 2161 520 
Q 2391 650 2566 903 
Q 2750 1166 2856 1509 
Q 2963 1853 2963 2188 
Q 2963 2622 2758 2865 
Q 2553 3109 2194 3109 
Q 1922 3109 1687 2981 
Q 1453 2853 1288 2613 
Q 1106 2353 998 2009 
Q 891 1666 891 1350 
z
" transform="scale(0.015625)"/>
      <path id="DejaVuSans-Oblique-73" d="M 3200 3397 
L 3091 2853 
Q 2863 2978 2609 3040 
Q 2356 3103 2088 3103 
Q 1634 3103 1373 2948 
Q 1113 2794 1113 2528 
Q 1113 2219 1719 2053 
Q 1766 2041 1788 2034 
L 1972 1978 
Q 2547 1819 2739 1644 
Q 2931 1469 2931 1166 
Q 2931 609 2489 259 
Q 2047 -91 1331 -91 
Q 1053 -91 747 -37 
Q 441 16 72 128 
L 184 722 
Q 500 559 806 475 
Q 1113 391 1394 391 
Q 1816 391 2080 572 
Q 2344 753 2344 1031 
Q 2344 1331 1650 1516 
L 1591 1531 
L 1394 1581 
Q 956 1697 753 1886 
Q 550 2075 550 2369 
Q 550 2928 970 3256 
Q 1391 3584 2113 3584 
Q 2397 3584 2667 3537 
Q 2938 3491 3200 3397 
z
" transform="scale(0.015625)"/>
      <path id="DejaVuSans-29" d="M 513 4856 
L 1013 4856 
Q 1481 4119 1714 3412 
Q 1947 2706 1947 2009 
Q 1947 1309 1714 600 
Q 1481 -109 1013 -844 
L 513 -844 
Q 928 -128 1133 580 
Q 1338 1288 1338 2009 
Q 1338 2731 1133 3434 
Q 928 4138 513 4856 
z
" transform="scale(0.015625)"/>
     </defs>
     <use xlink:href="#DejaVuSans-Oblique-66" transform="translate(0 0.015625)"/>
     <use xlink:href="#DejaVuSans-Oblique-54" transform="translate(35.205078 -16.390625) scale(0.7)"/>
     <use xlink:href="#DejaVuSans-28" transform="translate(80.698242 0.015625)"/>
     <use xlink:href="#DejaVuSans-Oblique-49" transform="translate(119.711914 0.015625)"/>
     <use xlink:href="#DejaVuSans-Oblique-64" transform="translate(149.204102 -16.390625) scale(0.7)"/>
     <use xlink:href="#DejaVuSans-Oblique-73" transform="translate(193.637695 -16.390625) scale(0.7)"/>
     <use xlink:href="#DejaVuSans-29" transform="translate(232.841797 0.015625)"/>
    </g>
   </g>
   <g id="legend_1">
    <g id="patch_7">
     <path d="M 60.025 304.1 
L 190.105 304.1 
Q 192.105 304.1 192.105 302.1 
L 192.105 267.25875 
Q 192.105 265.25875 190.105 265.25875 
L 60.025 265.25875 
Q 58.025 265.25875 58.025 267.25875 
L 58.025 302.1 
Q 58.025 304.1 60.025 304.1 
z
" style="fill: #ffffff; opacity: 0.8; stroke: #cccccc; stroke-linejoin: miter"/>
    </g>
    <g id="line2d_26">
     <path d="M 60.025 272.876875 
L 65.025 272.876875 
L 70.025 272.876875 
" style="fill: none; stroke: #ff0000; stroke-width: 2; stroke-linecap: square"/>
    </g>
    <g id="text_15">
     <!-- $f_{T X1}: V_{D}$ = -6.0e-01 -->
     <g transform="translate(72.025 276.376875) scale(0.12 -0.12)">
      <defs>
       <path id="DejaVuSans-3a" d="M 750 794 
L 1409 794 
L 1409 0 
L 750 0 
L 750 794 
z
M 750 3309 
L 1409 3309 
L 1409 2516 
L 750 2516 
L 750 3309 
z
" transform="scale(0.015625)"/>
       <path id="DejaVuSans-Oblique-56" d="M 1319 0 
L 500 4666 
L 1119 4666 
L 1797 653 
L 4063 4666 
L 4750 4666 
L 2053 0 
L 1319 0 
z
" transform="scale(0.015625)"/>
       <path id="DejaVuSans-3d" d="M 678 2906 
L 4684 2906 
L 4684 2381 
L 678 2381 
L 678 2906 
z
M 678 1631 
L 4684 1631 
L 4684 1100 
L 678 1100 
L 678 1631 
z
" transform="scale(0.015625)"/>
       <path id="DejaVuSans-2d" d="M 313 2009 
L 1997 2009 
L 1997 1497 
L 313 1497 
L 313 2009 
z
" transform="scale(0.015625)"/>
       <path id="DejaVuSans-2e" d="M 684 794 
L 1344 794 
L 1344 0 
L 684 0 
L 684 794 
z
" transform="scale(0.015625)"/>
       <path id="DejaVuSans-65" d="M 3597 1894 
L 3597 1613 
L 953 1613 
Q 991 1019 1311 708 
Q 1631 397 2203 397 
Q 2534 397 2845 478 
Q 3156 559 3463 722 
L 3463 178 
Q 3153 47 2828 -22 
Q 2503 -91 2169 -91 
Q 1331 -91 842 396 
Q 353 884 353 1716 
Q 353 2575 817 3079 
Q 1281 3584 2069 3584 
Q 2775 3584 3186 3129 
Q 3597 2675 3597 1894 
z
M 3022 2063 
Q 3016 2534 2758 2815 
Q 2500 3097 2075 3097 
Q 1594 3097 1305 2825 
Q 1016 2553 972 2059 
L 3022 2063 
z
" transform="scale(0.015625)"/>
      </defs>
      <use xlink:href="#DejaVuSans-Oblique-66" transform="translate(0 0.015625)"/>
      <use xlink:href="#DejaVuSans-Oblique-54" transform="translate(35.205078 -16.390625) scale(0.7)"/>
      <use xlink:href="#DejaVuSans-Oblique-58" transform="translate(77.963867 -16.390625) scale(0.7)"/>
      <use xlink:href="#DejaVuSans-31" transform="translate(125.917969 -16.390625) scale(0.7)"/>
      <use xlink:href="#DejaVuSans-3a" transform="translate(192.670898 0.015625)"/>
      <use xlink:href="#DejaVuSans-Oblique-56" transform="translate(245.844727 0.015625)"/>
      <use xlink:href="#DejaVuSans-Oblique-44" transform="translate(314.25293 -16.390625) scale(0.7)"/>
      <use xlink:href="#DejaVuSans-20" transform="translate(370.888672 0.015625)"/>
      <use xlink:href="#DejaVuSans-3d" transform="translate(402.675781 0.015625)"/>
      <use xlink:href="#DejaVuSans-20" transform="translate(486.464844 0.015625)"/>
      <use xlink:href="#DejaVuSans-2d" transform="translate(518.251953 0.015625)"/>
      <use xlink:href="#DejaVuSans-36" transform="translate(554.335938 0.015625)"/>
      <use xlink:href="#DejaVuSans-2e" transform="translate(617.958984 0.015625)"/>
      <use xlink:href="#DejaVuSans-30" transform="translate(649.746094 0.015625)"/>
      <use xlink:href="#DejaVuSans-65" transform="translate(713.369141 0.015625)"/>
      <use xlink:href="#DejaVuSans-2d" transform="translate(774.892578 0.015625)"/>
      <use xlink:href="#DejaVuSans-30" transform="translate(810.976562 0.015625)"/>
      <use xlink:href="#DejaVuSans-31" transform="translate(874.599609 0.015625)"/>
     </g>
    </g>
    <g id="line2d_27">
     <path d="M 60.025 284.490625 
L 65.025 284.490625 
L 70.025 284.490625 
" style="fill: none; stroke: #0000ff; stroke-width: 2; stroke-linecap: square"/>
    </g>
    <g id="text_16">
     <!-- $f_{T X1}: V_{D}$ = -1.2e+00 -->
     <g transform="translate(72.025 287.990625) scale(0.12 -0.12)">
      <defs>
       <path id="DejaVuSans-2b" d="M 2944 4013 
L 2944 2272 
L 4684 2272 
L 4684 1741 
L 2944 1741 
L 2944 0 
L 2419 0 
L 2419 1741 
L 678 1741 
L 678 2272 
L 2419 2272 
L 2419 4013 
L 2944 4013 
z
" transform="scale(0.015625)"/>
      </defs>
      <use xlink:href="#DejaVuSans-Oblique-66" transform="translate(0 0.015625)"/>
      <use xlink:href="#DejaVuSans-Oblique-54" transform="translate(35.205078 -16.390625) scale(0.7)"/>
      <use xlink:href="#DejaVuSans-Oblique-58" transform="translate(77.963867 -16.390625) scale(0.7)"/>
      <use xlink:href="#DejaVuSans-31" transform="translate(125.917969 -16.390625) scale(0.7)"/>
      <use xlink:href="#DejaVuSans-3a" transform="translate(192.670898 0.015625)"/>
      <use xlink:href="#DejaVuSans-Oblique-56" transform="translate(245.844727 0.015625)"/>
      <use xlink:href="#DejaVuSans-Oblique-44" transform="translate(314.25293 -16.390625) scale(0.7)"/>
      <use xlink:href="#DejaVuSans-20" transform="translate(370.888672 0.015625)"/>
      <use xlink:href="#DejaVuSans-3d" transform="translate(402.675781 0.015625)"/>
      <use xlink:href="#DejaVuSans-20" transform="translate(486.464844 0.015625)"/>
      <use xlink:href="#DejaVuSans-2d" transform="translate(518.251953 0.015625)"/>
      <use xlink:href="#DejaVuSans-31" transform="translate(554.335938 0.015625)"/>
      <use xlink:href="#DejaVuSans-2e" transform="translate(617.958984 0.015625)"/>
      <use xlink:href="#DejaVuSans-32" transform="translate(644.246094 0.015625)"/>
      <use xlink:href="#DejaVuSans-65" transform="translate(707.869141 0.015625)"/>
      <use xlink:href="#DejaVuSans-2b" transform="translate(769.392578 0.015625)"/>
      <use xlink:href="#DejaVuSans-30" transform="translate(853.181641 0.015625)"/>
      <use xlink:href="#DejaVuSans-30" transform="translate(916.804688 0.015625)"/>
     </g>
    </g>
    <g id="line2d_28">
     <path d="M 60.025 296.104375 
L 65.025 296.104375 
L 70.025 296.104375 
" style="fill: none; stroke: #008000; stroke-width: 2; stroke-linecap: square"/>
    </g>
    <g id="text_17">
     <!-- $f_{T X1}: V_{D}$ = -1.8e+00 -->
     <g transform="translate(72.025 299.604375) scale(0.12 -0.12)">
      <use xlink:href="#DejaVuSans-Oblique-66" transform="translate(0 0.015625)"/>
      <use xlink:href="#DejaVuSans-Oblique-54" transform="translate(35.205078 -16.390625) scale(0.7)"/>
      <use xlink:href="#DejaVuSans-Oblique-58" transform="translate(77.963867 -16.390625) scale(0.7)"/>
      <use xlink:href="#DejaVuSans-31" transform="translate(125.917969 -16.390625) scale(0.7)"/>
      <use xlink:href="#DejaVuSans-3a" transform="translate(192.670898 0.015625)"/>
      <use xlink:href="#DejaVuSans-Oblique-56" transform="translate(245.844727 0.015625)"/>
      <use xlink:href="#DejaVuSans-Oblique-44" transform="translate(314.25293 -16.390625) scale(0.7)"/>
      <use xlink:href="#DejaVuSans-20" transform="translate(370.888672 0.015625)"/>
      <use xlink:href="#DejaVuSans-3d" transform="translate(402.675781 0.015625)"/>
      <use xlink:href="#DejaVuSans-20" transform="translate(486.464844 0.015625)"/>
      <use xlink:href="#DejaVuSans-2d" transform="translate(518.251953 0.015625)"/>
      <use xlink:href="#DejaVuSans-31" transform="translate(554.335938 0.015625)"/>
      <use xlink:href="#DejaVuSans-2e" transform="translate(617.958984 0.015625)"/>
      <use xlink:href="#DejaVuSans-38" transform="translate(647.121094 0.015625)"/>
      <use xlink:href="#DejaVuSans-65" transform="translate(710.744141 0.015625)"/>
      <use xlink:href="#DejaVuSans-2b" transform="translate(772.267578 0.015625)"/>
      <use xlink:href="#DejaVuSans-30" transform="translate(856.056641 0.015625)"/>
      <use xlink:href="#DejaVuSans-30" transform="translate(919.679688 0.015625)"/>
     </g>
    </g>
   </g>
  </g>
 </g>
 <defs>
  <clipPath id="pd54e4ff757">
   <rect x="53.025" y="28.8" width="440.175" height="280.3"/>
  </clipPath>
 </defs>
</svg>
