<?xml version="1.0" encoding="utf-8" standalone="no"?>
<!DOCTYPE svg PUBLIC "-//W3C//DTD SVG 1.1//EN"
  "http://www.w3.org/Graphics/SVG/1.1/DTD/svg11.dtd">
<svg xmlns:xlink="http://www.w3.org/1999/xlink" width="504pt" height="360pt" viewBox="0 0 504 360" xmlns="http://www.w3.org/2000/svg" version="1.1">
 <metadata>
  <rdf:RDF xmlns:dc="http://purl.org/dc/elements/1.1/" xmlns:cc="http://creativecommons.org/ns#" xmlns:rdf="http://www.w3.org/1999/02/22-rdf-syntax-ns#">
   <cc:Work>
    <dc:type rdf:resource="http://purl.org/dc/dcmitype/StillImage"/>
    <dc:date>2024-10-20T17:19:39.080773</dc:date>
    <dc:format>image/svg+xml</dc:format>
    <dc:creator>
     <cc:Agent>
      <dc:title>Matplotlib v3.9.2, https://matplotlib.org/</dc:title>
     </cc:Agent>
    </dc:creator>
   </cc:Work>
  </rdf:RDF>
 </metadata>
 <defs>
  <style type="text/css">*{stroke-linejoin: round; stroke-linecap: butt}</style>
 </defs>
 <g id="figure_1">
  <g id="patch_1">
   <path d="M 0 360 
L 504 360 
L 504 0 
L 0 0 
z
" style="fill: #ffffff"/>
  </g>
  <g id="axes_1">
   <g id="patch_2">
    <path d="M 70.525 309.1 
L 493.2 309.1 
L 493.2 28.8 
L 70.525 28.8 
z
" style="fill: #ffffff"/>
   </g>
   <g id="matplotlib.axis_1">
    <g id="xtick_1">
     <g id="line2d_1">
      <path d="M 121.758333 309.1 
L 121.758333 28.8 
" clip-path="url(#p5473ed8eae)" style="fill: none; stroke: #808080; stroke-width: 0.8; stroke-linecap: square"/>
     </g>
     <g id="line2d_2">
      <defs>
       <path id="meffe07b23b" d="M 0 0 
L 0 3.5 
" style="stroke: #000000; stroke-width: 0.8"/>
      </defs>
      <g>
       <use xlink:href="#meffe07b23b" x="121.758333" y="309.1" style="stroke: #000000; stroke-width: 0.8"/>
      </g>
     </g>
     <g id="text_1">
      <!-- −1.5 -->
      <g transform="translate(107.188646 325.218125) scale(0.12 -0.12)">
       <defs>
        <path id="DejaVuSans-2212" d="M 678 2272 
L 4684 2272 
L 4684 1741 
L 678 1741 
L 678 2272 
z
" transform="scale(0.015625)"/>
        <path id="DejaVuSans-31" d="M 794 531 
L 1825 531 
L 1825 4091 
L 703 3866 
L 703 4441 
L 1819 4666 
L 2450 4666 
L 2450 531 
L 3481 531 
L 3481 0 
L 794 0 
L 794 531 
z
" transform="scale(0.015625)"/>
        <path id="DejaVuSans-2e" d="M 684 794 
L 1344 794 
L 1344 0 
L 684 0 
L 684 794 
z
" transform="scale(0.015625)"/>
        <path id="DejaVuSans-35" d="M 691 4666 
L 3169 4666 
L 3169 4134 
L 1269 4134 
L 1269 2991 
Q 1406 3038 1543 3061 
Q 1681 3084 1819 3084 
Q 2600 3084 3056 2656 
Q 3513 2228 3513 1497 
Q 3513 744 3044 326 
Q 2575 -91 1722 -91 
Q 1428 -91 1123 -41 
Q 819 9 494 109 
L 494 744 
Q 775 591 1075 516 
Q 1375 441 1709 441 
Q 2250 441 2565 725 
Q 2881 1009 2881 1497 
Q 2881 1984 2565 2268 
Q 2250 2553 1709 2553 
Q 1456 2553 1204 2497 
Q 953 2441 691 2322 
L 691 4666 
z
" transform="scale(0.015625)"/>
       </defs>
       <use xlink:href="#DejaVuSans-2212"/>
       <use xlink:href="#DejaVuSans-31" x="83.789062"/>
       <use xlink:href="#DejaVuSans-2e" x="147.412109"/>
       <use xlink:href="#DejaVuSans-35" x="179.199219"/>
      </g>
     </g>
    </g>
    <g id="xtick_2">
     <g id="line2d_3">
      <path d="M 175.126389 309.1 
L 175.126389 28.8 
" clip-path="url(#p5473ed8eae)" style="fill: none; stroke: #808080; stroke-width: 0.8; stroke-linecap: square"/>
     </g>
     <g id="line2d_4">
      <g>
       <use xlink:href="#meffe07b23b" x="175.126389" y="309.1" style="stroke: #000000; stroke-width: 0.8"/>
      </g>
     </g>
     <g id="text_2">
      <!-- −1.0 -->
      <g transform="translate(160.556701 325.218125) scale(0.12 -0.12)">
       <defs>
        <path id="DejaVuSans-30" d="M 2034 4250 
Q 1547 4250 1301 3770 
Q 1056 3291 1056 2328 
Q 1056 1369 1301 889 
Q 1547 409 2034 409 
Q 2525 409 2770 889 
Q 3016 1369 3016 2328 
Q 3016 3291 2770 3770 
Q 2525 4250 2034 4250 
z
M 2034 4750 
Q 2819 4750 3233 4129 
Q 3647 3509 3647 2328 
Q 3647 1150 3233 529 
Q 2819 -91 2034 -91 
Q 1250 -91 836 529 
Q 422 1150 422 2328 
Q 422 3509 836 4129 
Q 1250 4750 2034 4750 
z
" transform="scale(0.015625)"/>
       </defs>
       <use xlink:href="#DejaVuSans-2212"/>
       <use xlink:href="#DejaVuSans-31" x="83.789062"/>
       <use xlink:href="#DejaVuSans-2e" x="147.412109"/>
       <use xlink:href="#DejaVuSans-30" x="179.199219"/>
      </g>
     </g>
    </g>
    <g id="xtick_3">
     <g id="line2d_5">
      <path d="M 228.494444 309.1 
L 228.494444 28.8 
" clip-path="url(#p5473ed8eae)" style="fill: none; stroke: #808080; stroke-width: 0.8; stroke-linecap: square"/>
     </g>
     <g id="line2d_6">
      <g>
       <use xlink:href="#meffe07b23b" x="228.494444" y="309.1" style="stroke: #000000; stroke-width: 0.8"/>
      </g>
     </g>
     <g id="text_3">
      <!-- −0.5 -->
      <g transform="translate(213.924757 325.218125) scale(0.12 -0.12)">
       <use xlink:href="#DejaVuSans-2212"/>
       <use xlink:href="#DejaVuSans-30" x="83.789062"/>
       <use xlink:href="#DejaVuSans-2e" x="147.412109"/>
       <use xlink:href="#DejaVuSans-35" x="179.199219"/>
      </g>
     </g>
    </g>
    <g id="xtick_4">
     <g id="line2d_7">
      <path d="M 281.8625 309.1 
L 281.8625 28.8 
" clip-path="url(#p5473ed8eae)" style="fill: none; stroke: #808080; stroke-width: 0.8; stroke-linecap: square"/>
     </g>
     <g id="line2d_8">
      <g>
       <use xlink:href="#meffe07b23b" x="281.8625" y="309.1" style="stroke: #000000; stroke-width: 0.8"/>
      </g>
     </g>
     <g id="text_4">
      <!-- 0.0 -->
      <g transform="translate(272.320625 325.218125) scale(0.12 -0.12)">
       <use xlink:href="#DejaVuSans-30"/>
       <use xlink:href="#DejaVuSans-2e" x="63.623047"/>
       <use xlink:href="#DejaVuSans-30" x="95.410156"/>
      </g>
     </g>
    </g>
    <g id="xtick_5">
     <g id="line2d_9">
      <path d="M 335.230556 309.1 
L 335.230556 28.8 
" clip-path="url(#p5473ed8eae)" style="fill: none; stroke: #808080; stroke-width: 0.8; stroke-linecap: square"/>
     </g>
     <g id="line2d_10">
      <g>
       <use xlink:href="#meffe07b23b" x="335.230556" y="309.1" style="stroke: #000000; stroke-width: 0.8"/>
      </g>
     </g>
     <g id="text_5">
      <!-- 0.5 -->
      <g transform="translate(325.688681 325.218125) scale(0.12 -0.12)">
       <use xlink:href="#DejaVuSans-30"/>
       <use xlink:href="#DejaVuSans-2e" x="63.623047"/>
       <use xlink:href="#DejaVuSans-35" x="95.410156"/>
      </g>
     </g>
    </g>
    <g id="xtick_6">
     <g id="line2d_11">
      <path d="M 388.598611 309.1 
L 388.598611 28.8 
" clip-path="url(#p5473ed8eae)" style="fill: none; stroke: #808080; stroke-width: 0.8; stroke-linecap: square"/>
     </g>
     <g id="line2d_12">
      <g>
       <use xlink:href="#meffe07b23b" x="388.598611" y="309.1" style="stroke: #000000; stroke-width: 0.8"/>
      </g>
     </g>
     <g id="text_6">
      <!-- 1.0 -->
      <g transform="translate(379.056736 325.218125) scale(0.12 -0.12)">
       <use xlink:href="#DejaVuSans-31"/>
       <use xlink:href="#DejaVuSans-2e" x="63.623047"/>
       <use xlink:href="#DejaVuSans-30" x="95.410156"/>
      </g>
     </g>
    </g>
    <g id="xtick_7">
     <g id="line2d_13">
      <path d="M 441.966667 309.1 
L 441.966667 28.8 
" clip-path="url(#p5473ed8eae)" style="fill: none; stroke: #808080; stroke-width: 0.8; stroke-linecap: square"/>
     </g>
     <g id="line2d_14">
      <g>
       <use xlink:href="#meffe07b23b" x="441.966667" y="309.1" style="stroke: #000000; stroke-width: 0.8"/>
      </g>
     </g>
     <g id="text_7">
      <!-- 1.5 -->
      <g transform="translate(432.424792 325.218125) scale(0.12 -0.12)">
       <use xlink:href="#DejaVuSans-31"/>
       <use xlink:href="#DejaVuSans-2e" x="63.623047"/>
       <use xlink:href="#DejaVuSans-35" x="95.410156"/>
      </g>
     </g>
    </g>
    <g id="text_8">
     <!-- $V_{G}$ [V] -->
     <g transform="translate(263.6225 340.831875) scale(0.12 -0.12)">
      <defs>
       <path id="DejaVuSans-Oblique-56" d="M 1319 0 
L 500 4666 
L 1119 4666 
L 1797 653 
L 4063 4666 
L 4750 4666 
L 2053 0 
L 1319 0 
z
" transform="scale(0.015625)"/>
       <path id="DejaVuSans-Oblique-47" d="M 3494 697 
L 3738 1919 
L 2700 1919 
L 2797 2438 
L 4453 2438 
L 4050 384 
Q 3634 156 3143 32 
Q 2653 -91 2156 -91 
Q 1278 -91 783 396 
Q 288 884 288 1753 
Q 288 2475 589 3126 
Q 891 3778 1422 4213 
Q 1756 4484 2153 4617 
Q 2550 4750 3034 4750 
Q 3472 4750 3873 4639 
Q 4275 4528 4641 4306 
L 4513 3634 
Q 4231 3928 3853 4083 
Q 3475 4238 3047 4238 
Q 2550 4238 2172 4048 
Q 1794 3859 1497 3463 
Q 1244 3125 1098 2667 
Q 953 2209 953 1734 
Q 953 1081 1287 751 
Q 1622 422 2284 422 
Q 2616 422 2925 492 
Q 3234 563 3494 697 
z
" transform="scale(0.015625)"/>
       <path id="DejaVuSans-20" transform="scale(0.015625)"/>
       <path id="DejaVuSans-5b" d="M 550 4863 
L 1875 4863 
L 1875 4416 
L 1125 4416 
L 1125 -397 
L 1875 -397 
L 1875 -844 
L 550 -844 
L 550 4863 
z
" transform="scale(0.015625)"/>
       <path id="DejaVuSans-56" d="M 1831 0 
L 50 4666 
L 709 4666 
L 2188 738 
L 3669 4666 
L 4325 4666 
L 2547 0 
L 1831 0 
z
" transform="scale(0.015625)"/>
       <path id="DejaVuSans-5d" d="M 1947 4863 
L 1947 -844 
L 622 -844 
L 622 -397 
L 1369 -397 
L 1369 4416 
L 622 4416 
L 622 4863 
L 1947 4863 
z
" transform="scale(0.015625)"/>
      </defs>
      <use xlink:href="#DejaVuSans-Oblique-56" transform="translate(0 0.015625)"/>
      <use xlink:href="#DejaVuSans-Oblique-47" transform="translate(68.408203 -16.390625) scale(0.7)"/>
      <use xlink:href="#DejaVuSans-20" transform="translate(125.385742 0.015625)"/>
      <use xlink:href="#DejaVuSans-5b" transform="translate(157.172852 0.015625)"/>
      <use xlink:href="#DejaVuSans-56" transform="translate(196.186523 0.015625)"/>
      <use xlink:href="#DejaVuSans-5d" transform="translate(264.594727 0.015625)"/>
     </g>
    </g>
   </g>
   <g id="matplotlib.axis_2">
    <g id="ytick_1">
     <g id="line2d_15">
      <path d="M 70.525 305.455987 
L 493.2 305.455987 
" clip-path="url(#p5473ed8eae)" style="fill: none; stroke: #808080; stroke-width: 0.8; stroke-linecap: square"/>
     </g>
     <g id="line2d_16">
      <defs>
       <path id="mcb72b20b2c" d="M 0 0 
L -3.5 0 
" style="stroke: #000000; stroke-width: 0.8"/>
      </defs>
      <g>
       <use xlink:href="#mcb72b20b2c" x="70.525" y="305.455987" style="stroke: #000000; stroke-width: 0.8"/>
      </g>
     </g>
     <g id="text_9">
      <!-- −100 -->
      <g transform="translate(30.564375 310.01505) scale(0.12 -0.12)">
       <use xlink:href="#DejaVuSans-2212"/>
       <use xlink:href="#DejaVuSans-31" x="83.789062"/>
       <use xlink:href="#DejaVuSans-30" x="147.412109"/>
       <use xlink:href="#DejaVuSans-30" x="211.035156"/>
      </g>
     </g>
    </g>
    <g id="ytick_2">
     <g id="line2d_17">
      <path d="M 70.525 257.361317 
L 493.2 257.361317 
" clip-path="url(#p5473ed8eae)" style="fill: none; stroke: #808080; stroke-width: 0.8; stroke-linecap: square"/>
     </g>
     <g id="line2d_18">
      <g>
       <use xlink:href="#mcb72b20b2c" x="70.525" y="257.361317" style="stroke: #000000; stroke-width: 0.8"/>
      </g>
     </g>
     <g id="text_10">
      <!-- −50 -->
      <g transform="translate(38.199375 261.92038) scale(0.12 -0.12)">
       <use xlink:href="#DejaVuSans-2212"/>
       <use xlink:href="#DejaVuSans-35" x="83.789062"/>
       <use xlink:href="#DejaVuSans-30" x="147.412109"/>
      </g>
     </g>
    </g>
    <g id="ytick_3">
     <g id="line2d_19">
      <path d="M 70.525 209.266647 
L 493.2 209.266647 
" clip-path="url(#p5473ed8eae)" style="fill: none; stroke: #808080; stroke-width: 0.8; stroke-linecap: square"/>
     </g>
     <g id="line2d_20">
      <g>
       <use xlink:href="#mcb72b20b2c" x="70.525" y="209.266647" style="stroke: #000000; stroke-width: 0.8"/>
      </g>
     </g>
     <g id="text_11">
      <!-- 0 -->
      <g transform="translate(55.89 213.825709) scale(0.12 -0.12)">
       <use xlink:href="#DejaVuSans-30"/>
      </g>
     </g>
    </g>
    <g id="ytick_4">
     <g id="line2d_21">
      <path d="M 70.525 161.171977 
L 493.2 161.171977 
" clip-path="url(#p5473ed8eae)" style="fill: none; stroke: #808080; stroke-width: 0.8; stroke-linecap: square"/>
     </g>
     <g id="line2d_22">
      <g>
       <use xlink:href="#mcb72b20b2c" x="70.525" y="161.171977" style="stroke: #000000; stroke-width: 0.8"/>
      </g>
     </g>
     <g id="text_12">
      <!-- 50 -->
      <g transform="translate(48.255 165.731039) scale(0.12 -0.12)">
       <use xlink:href="#DejaVuSans-35"/>
       <use xlink:href="#DejaVuSans-30" x="63.623047"/>
      </g>
     </g>
    </g>
    <g id="ytick_5">
     <g id="line2d_23">
      <path d="M 70.525 113.077306 
L 493.2 113.077306 
" clip-path="url(#p5473ed8eae)" style="fill: none; stroke: #808080; stroke-width: 0.8; stroke-linecap: square"/>
     </g>
     <g id="line2d_24">
      <g>
       <use xlink:href="#mcb72b20b2c" x="70.525" y="113.077306" style="stroke: #000000; stroke-width: 0.8"/>
      </g>
     </g>
     <g id="text_13">
      <!-- 100 -->
      <g transform="translate(40.62 117.636369) scale(0.12 -0.12)">
       <use xlink:href="#DejaVuSans-31"/>
       <use xlink:href="#DejaVuSans-30" x="63.623047"/>
       <use xlink:href="#DejaVuSans-30" x="127.246094"/>
      </g>
     </g>
    </g>
    <g id="ytick_6">
     <g id="line2d_25">
      <path d="M 70.525 64.982636 
L 493.2 64.982636 
" clip-path="url(#p5473ed8eae)" style="fill: none; stroke: #808080; stroke-width: 0.8; stroke-linecap: square"/>
     </g>
     <g id="line2d_26">
      <g>
       <use xlink:href="#mcb72b20b2c" x="70.525" y="64.982636" style="stroke: #000000; stroke-width: 0.8"/>
      </g>
     </g>
     <g id="text_14">
      <!-- 150 -->
      <g transform="translate(40.62 69.541699) scale(0.12 -0.12)">
       <use xlink:href="#DejaVuSans-31"/>
       <use xlink:href="#DejaVuSans-35" x="63.623047"/>
       <use xlink:href="#DejaVuSans-30" x="127.246094"/>
      </g>
     </g>
    </g>
    <g id="text_15">
     <!-- $I_{DS X1}\,$ [uA] -->
     <g transform="translate(24.06875 197.81) rotate(-90) scale(0.12 -0.12)">
      <defs>
       <path id="DejaVuSans-Oblique-49" d="M 1081 4666 
L 1716 4666 
L 806 0 
L 172 0 
L 1081 4666 
z
" transform="scale(0.015625)"/>
       <path id="DejaVuSans-Oblique-44" d="M 1081 4666 
L 2438 4666 
Q 3519 4666 4070 4208 
Q 4622 3750 4622 2847 
Q 4622 2250 4412 1698 
Q 4203 1147 3834 769 
Q 3463 381 2891 190 
Q 2319 0 1538 0 
L 172 0 
L 1081 4666 
z
M 1613 4147 
L 909 519 
L 1734 519 
Q 2794 519 3375 1128 
Q 3956 1738 3956 2847 
Q 3956 3519 3581 3833 
Q 3206 4147 2406 4147 
L 1613 4147 
z
" transform="scale(0.015625)"/>
       <path id="DejaVuSans-Oblique-53" d="M 3859 4513 
L 3738 3897 
Q 3422 4066 3111 4152 
Q 2800 4238 2509 4238 
Q 1944 4238 1609 3991 
Q 1275 3744 1275 3334 
Q 1275 3109 1398 2989 
Q 1522 2869 2034 2731 
L 2413 2638 
Q 3053 2472 3303 2217 
Q 3553 1963 3553 1503 
Q 3553 797 2998 353 
Q 2444 -91 1538 -91 
Q 1166 -91 791 -17 
Q 416 56 38 206 
L 166 856 
Q 513 641 861 531 
Q 1209 422 1556 422 
Q 2147 422 2503 684 
Q 2859 947 2859 1369 
Q 2859 1650 2717 1795 
Q 2575 1941 2106 2059 
L 1728 2156 
Q 1081 2325 845 2545 
Q 609 2766 609 3163 
Q 609 3859 1145 4304 
Q 1681 4750 2541 4750 
Q 2875 4750 3203 4690 
Q 3531 4631 3859 4513 
z
" transform="scale(0.015625)"/>
       <path id="DejaVuSans-Oblique-58" d="M 878 4666 
L 1516 4666 
L 2316 2981 
L 3763 4666 
L 4500 4666 
L 2578 2438 
L 3738 0 
L 3103 0 
L 2163 1966 
L 459 0 
L -275 0 
L 1906 2509 
L 878 4666 
z
" transform="scale(0.015625)"/>
       <path id="DejaVuSans-75" d="M 544 1381 
L 544 3500 
L 1119 3500 
L 1119 1403 
Q 1119 906 1312 657 
Q 1506 409 1894 409 
Q 2359 409 2629 706 
Q 2900 1003 2900 1516 
L 2900 3500 
L 3475 3500 
L 3475 0 
L 2900 0 
L 2900 538 
Q 2691 219 2414 64 
Q 2138 -91 1772 -91 
Q 1169 -91 856 284 
Q 544 659 544 1381 
z
M 1991 3584 
L 1991 3584 
z
" transform="scale(0.015625)"/>
       <path id="DejaVuSans-41" d="M 2188 4044 
L 1331 1722 
L 3047 1722 
L 2188 4044 
z
M 1831 4666 
L 2547 4666 
L 4325 0 
L 3669 0 
L 3244 1197 
L 1141 1197 
L 716 0 
L 50 0 
L 1831 4666 
z
" transform="scale(0.015625)"/>
      </defs>
      <use xlink:href="#DejaVuSans-Oblique-49" transform="translate(0 0.015625)"/>
      <use xlink:href="#DejaVuSans-Oblique-44" transform="translate(29.492188 -16.390625) scale(0.7)"/>
      <use xlink:href="#DejaVuSans-Oblique-53" transform="translate(83.393555 -16.390625) scale(0.7)"/>
      <use xlink:href="#DejaVuSans-Oblique-58" transform="translate(127.827148 -16.390625) scale(0.7)"/>
      <use xlink:href="#DejaVuSans-31" transform="translate(175.78125 -16.390625) scale(0.7)"/>
      <use xlink:href="#DejaVuSans-20" transform="translate(239.287434 0.015625)"/>
      <use xlink:href="#DejaVuSans-5b" transform="translate(271.074543 0.015625)"/>
      <use xlink:href="#DejaVuSans-75" transform="translate(310.088215 0.015625)"/>
      <use xlink:href="#DejaVuSans-41" transform="translate(373.467122 0.015625)"/>
      <use xlink:href="#DejaVuSans-5d" transform="translate(441.875325 0.015625)"/>
     </g>
    </g>
   </g>
   <g id="line2d_27">
    <path d="M 281.8625 209.266648 
L 277.941582 209.266651 
L 274.020663 209.266658 
L 270.099745 209.266678 
L 266.178827 209.266736 
L 262.257908 209.2669 
L 258.33699 209.267359 
L 254.416071 209.268628 
L 250.495153 209.272054 
L 246.574235 209.280978 
L 242.653316 209.302993 
L 238.732398 209.353353 
L 234.81148 209.457915 
L 230.890561 209.652109 
L 226.969643 209.973761 
L 223.048724 210.45334 
L 219.127806 211.10815 
L 215.206888 211.942829 
L 211.285969 212.953421 
L 207.365051 214.131608 
L 203.444133 215.467612 
L 199.523214 216.951717 
L 195.602296 218.574908 
L 191.681378 220.329039 
L 187.760459 222.206791 
L 183.839541 224.201572 
L 179.918622 226.307398 
L 175.997704 228.518796 
L 172.076786 230.830723 
L 168.155867 233.238508 
L 164.234949 235.737794 
L 160.314031 238.324512 
L 156.393112 240.994841 
L 152.472194 243.745192 
L 148.551276 246.572182 
L 144.630357 249.472622 
L 140.709439 252.443497 
L 136.78852 255.481958 
L 132.867602 258.585308 
L 128.946684 261.750994 
L 125.025765 264.976592 
L 121.104847 268.259804 
L 117.183929 271.59845 
L 113.26301 274.990456 
L 109.342092 278.433851 
L 105.421173 281.926761 
L 101.500255 285.4674 
L 97.579337 289.054069 
L 93.658418 292.685148 
L 89.7375 296.359091 
" clip-path="url(#p5473ed8eae)" style="fill: none; stroke: #ff0000; stroke-width: 2; stroke-linecap: square"/>
   </g>
   <g id="line2d_28">
    <path d="M 281.8625 209.266648 
L 277.941582 209.26665 
L 274.020663 209.266657 
L 270.099745 209.266676 
L 266.178827 209.26673 
L 262.257908 209.266883 
L 258.33699 209.267312 
L 254.416071 209.268496 
L 250.495153 209.271694 
L 246.574235 209.280022 
L 242.653316 209.30057 
L 238.732398 209.347572 
L 234.81148 209.445164 
L 230.890561 209.626412 
L 226.969643 209.92662 
L 223.048724 210.374227 
L 219.127806 210.985383 
L 215.206888 211.764417 
L 211.285969 212.707636 
L 207.365051 213.807278 
L 203.444133 215.054214 
L 199.523214 216.439379 
L 195.602296 217.954357 
L 191.681378 219.591546 
L 187.760459 221.344115 
L 183.839541 223.205911 
L 179.918622 225.171348 
L 175.997704 227.235319 
L 172.076786 229.393118 
L 168.155867 231.640384 
L 164.234949 233.973051 
L 160.314031 236.387321 
L 156.393112 238.879628 
L 152.472194 241.446622 
L 148.551276 244.085147 
L 144.630357 246.792223 
L 140.709439 249.56504 
L 136.78852 252.400937 
L 132.867602 255.297398 
L 128.946684 258.252037 
L 125.025765 261.262595 
L 121.104847 264.326927 
L 117.183929 267.442996 
L 113.26301 270.608868 
L 109.342092 273.822703 
L 105.421173 277.082751 
L 101.500255 280.387343 
L 97.579337 283.734889 
L 93.658418 287.123861 
L 89.7375 290.552776 
" clip-path="url(#p5473ed8eae)" style="fill: none; stroke: #0000ff; stroke-width: 2; stroke-linecap: square"/>
   </g>
   <g id="line2d_29">
    <path d="M 281.8625 209.266648 
L 277.941582 209.26665 
L 274.020663 209.266656 
L 270.099745 209.266674 
L 266.178827 209.266724 
L 262.257908 209.266866 
L 258.33699 209.267264 
L 254.416071 209.268364 
L 250.495153 209.271333 
L 246.574235 209.279067 
L 242.653316 209.298147 
L 238.732398 209.341792 
L 234.81148 209.432413 
L 230.890561 209.600714 
L 226.969643 209.879479 
L 223.048724 210.295114 
L 219.127806 210.862616 
L 215.206888 211.586005 
L 211.285969 212.461851 
L 207.365051 213.482947 
L 203.444133 214.640816 
L 199.523214 215.92704 
L 195.602296 217.333805 
L 191.681378 218.85405 
L 187.760459 220.481431 
L 183.839541 222.210227 
L 179.918622 224.035236 
L 175.997704 225.951666 
L 172.076786 227.955017 
L 168.155867 230.040879 
L 164.234949 232.204534 
L 160.314031 234.440111 
L 156.393112 236.73894 
L 152.472194 239.087068 
L 148.551276 241.463007 
L 144.630357 243.838273 
L 140.709439 246.182428 
L 136.78852 248.470247 
L 132.867602 250.686197 
L 128.946684 252.824257 
L 125.025765 254.884996 
L 121.104847 256.872421 
L 117.183929 258.791792 
L 113.26301 260.648456 
L 109.342092 262.447344 
L 105.421173 264.192838 
L 101.500255 265.888788 
L 97.579337 267.538578 
L 93.658418 269.145215 
L 89.7375 270.711388 
" clip-path="url(#p5473ed8eae)" style="fill: none; stroke: #008000; stroke-width: 2; stroke-linecap: square"/>
   </g>
   <g id="line2d_30">
    <path d="M 281.8625 209.266644 
L 324.556944 209.168934 
L 329.89375 208.956047 
L 333.095833 208.668633 
L 336.297917 208.165138 
L 338.432639 207.663277 
L 340.567361 206.999908 
L 342.702083 206.158889 
L 344.836806 205.134063 
L 346.971528 203.9291 
L 350.173611 201.810271 
L 353.375694 199.368562 
L 356.577778 196.663708 
L 360.847222 192.735855 
L 365.116667 188.521723 
L 370.453472 182.939528 
L 376.857639 175.871593 
L 383.261806 168.477788 
L 390.733333 159.525465 
L 400.339583 147.637242 
L 414.215278 130.035997 
L 437.697222 100.195245 
L 448.370833 87.017402 
L 456.909722 76.810847 
L 464.38125 68.206903 
L 470.785417 61.13083 
L 473.9875 57.711588 
L 473.9875 57.711588 
" clip-path="url(#p5473ed8eae)" style="fill: none; stroke: #00bfbf; stroke-width: 2; stroke-linecap: square"/>
   </g>
   <g id="line2d_31">
    <path d="M 281.8625 209.266642 
L 323.489583 209.168136 
L 328.826389 208.954045 
L 332.028472 208.666577 
L 335.230556 208.163456 
L 337.365278 207.660629 
L 339.5 206.993099 
L 341.634722 206.142165 
L 343.769444 205.099163 
L 345.904167 203.865931 
L 349.10625 201.684409 
L 352.308333 199.157542 
L 355.510417 196.350015 
L 359.779861 192.267538 
L 364.049306 187.887777 
L 369.386111 182.091619 
L 375.790278 174.761174 
L 382.194444 167.097288 
L 389.665972 157.81469 
L 398.204861 146.856454 
L 408.878472 132.793187 
L 425.95625 109.854867 
L 453.707639 72.562933 
L 468.650694 52.865569 
L 473.9875 45.929259 
L 473.9875 45.929259 
" clip-path="url(#p5473ed8eae)" style="fill: none; stroke: #bf00bf; stroke-width: 2; stroke-linecap: square"/>
   </g>
   <g id="line2d_32">
    <path d="M 281.8625 209.26664 
L 321.354861 209.175917 
L 326.691667 208.974174 
L 329.89375 208.700403 
L 333.095833 208.214891 
L 335.230556 207.722539 
L 337.365278 207.059877 
L 339.5 206.203408 
L 341.634722 205.140194 
L 343.769444 203.869454 
L 345.904167 202.401457 
L 349.10625 199.870804 
L 352.308333 197.01427 
L 356.577778 192.825378 
L 360.847222 188.324563 
L 366.184028 182.3892 
L 372.588194 174.929976 
L 380.059722 165.863458 
L 388.598611 155.118628 
L 398.204861 142.660694 
L 411.013194 125.652254 
L 437.697222 89.702623 
L 457.977083 62.582904 
L 473.9875 41.540909 
L 473.9875 41.540909 
" clip-path="url(#p5473ed8eae)" style="fill: none; stroke: #bfbf00; stroke-width: 2; stroke-linecap: square"/>
   </g>
   <g id="patch_3">
    <path d="M 70.525 309.1 
L 70.525 28.8 
" style="fill: none; stroke: #000000; stroke-width: 0.8; stroke-linejoin: miter; stroke-linecap: square"/>
   </g>
   <g id="patch_4">
    <path d="M 493.2 309.1 
L 493.2 28.8 
" style="fill: none; stroke: #000000; stroke-width: 0.8; stroke-linejoin: miter; stroke-linecap: square"/>
   </g>
   <g id="patch_5">
    <path d="M 70.525 309.1 
L 493.2 309.1 
" style="fill: none; stroke: #000000; stroke-width: 0.8; stroke-linejoin: miter; stroke-linecap: square"/>
   </g>
   <g id="patch_6">
    <path d="M 70.525 28.8 
L 493.2 28.8 
" style="fill: none; stroke: #000000; stroke-width: 0.8; stroke-linejoin: miter; stroke-linecap: square"/>
   </g>
   <g id="text_16">
    <!-- $I_{ds}(V_{gs})$ -->
    <g transform="translate(261.2225 22.8) scale(0.12 -0.12)">
     <defs>
      <path id="DejaVuSans-Oblique-64" d="M 2675 525 
Q 2444 222 2128 65 
Q 1813 -91 1428 -91 
Q 903 -91 598 267 
Q 294 625 294 1247 
Q 294 1766 478 2236 
Q 663 2706 1013 3078 
Q 1244 3325 1534 3454 
Q 1825 3584 2144 3584 
Q 2481 3584 2739 3421 
Q 2997 3259 3138 2956 
L 3513 4863 
L 4091 4863 
L 3144 0 
L 2566 0 
L 2675 525 
z
M 891 1350 
Q 891 897 1095 644 
Q 1300 391 1663 391 
Q 1931 391 2161 520 
Q 2391 650 2566 903 
Q 2750 1166 2856 1509 
Q 2963 1853 2963 2188 
Q 2963 2622 2758 2865 
Q 2553 3109 2194 3109 
Q 1922 3109 1687 2981 
Q 1453 2853 1288 2613 
Q 1106 2353 998 2009 
Q 891 1666 891 1350 
z
" transform="scale(0.015625)"/>
      <path id="DejaVuSans-Oblique-73" d="M 3200 3397 
L 3091 2853 
Q 2863 2978 2609 3040 
Q 2356 3103 2088 3103 
Q 1634 3103 1373 2948 
Q 1113 2794 1113 2528 
Q 1113 2219 1719 2053 
Q 1766 2041 1788 2034 
L 1972 1978 
Q 2547 1819 2739 1644 
Q 2931 1469 2931 1166 
Q 2931 609 2489 259 
Q 2047 -91 1331 -91 
Q 1053 -91 747 -37 
Q 441 16 72 128 
L 184 722 
Q 500 559 806 475 
Q 1113 391 1394 391 
Q 1816 391 2080 572 
Q 2344 753 2344 1031 
Q 2344 1331 1650 1516 
L 1591 1531 
L 1394 1581 
Q 956 1697 753 1886 
Q 550 2075 550 2369 
Q 550 2928 970 3256 
Q 1391 3584 2113 3584 
Q 2397 3584 2667 3537 
Q 2938 3491 3200 3397 
z
" transform="scale(0.015625)"/>
      <path id="DejaVuSans-28" d="M 1984 4856 
Q 1566 4138 1362 3434 
Q 1159 2731 1159 2009 
Q 1159 1288 1364 580 
Q 1569 -128 1984 -844 
L 1484 -844 
Q 1016 -109 783 600 
Q 550 1309 550 2009 
Q 550 2706 781 3412 
Q 1013 4119 1484 4856 
L 1984 4856 
z
" transform="scale(0.015625)"/>
      <path id="DejaVuSans-Oblique-67" d="M 3816 3500 
L 3219 434 
Q 3047 -456 2561 -893 
Q 2075 -1331 1253 -1331 
Q 950 -1331 690 -1286 
Q 431 -1241 206 -1147 
L 313 -588 
Q 525 -725 762 -790 
Q 1000 -856 1269 -856 
Q 1816 -856 2167 -557 
Q 2519 -259 2631 300 
L 2681 563 
Q 2441 288 2122 144 
Q 1803 0 1434 0 
Q 903 0 598 351 
Q 294 703 294 1319 
Q 294 1803 478 2267 
Q 663 2731 997 3091 
Q 1219 3328 1514 3456 
Q 1809 3584 2131 3584 
Q 2484 3584 2746 3420 
Q 3009 3256 3138 2956 
L 3238 3500 
L 3816 3500 
z
M 2950 2216 
Q 2950 2641 2750 2872 
Q 2550 3103 2181 3103 
Q 1953 3103 1747 3012 
Q 1541 2922 1394 2759 
Q 1156 2491 1023 2127 
Q 891 1763 891 1375 
Q 891 944 1092 712 
Q 1294 481 1672 481 
Q 2219 481 2584 976 
Q 2950 1472 2950 2216 
z
" transform="scale(0.015625)"/>
      <path id="DejaVuSans-29" d="M 513 4856 
L 1013 4856 
Q 1481 4119 1714 3412 
Q 1947 2706 1947 2009 
Q 1947 1309 1714 600 
Q 1481 -109 1013 -844 
L 513 -844 
Q 928 -128 1133 580 
Q 1338 1288 1338 2009 
Q 1338 2731 1133 3434 
Q 928 4138 513 4856 
z
" transform="scale(0.015625)"/>
     </defs>
     <use xlink:href="#DejaVuSans-Oblique-49" transform="translate(0 0.125)"/>
     <use xlink:href="#DejaVuSans-Oblique-64" transform="translate(29.492188 -16.28125) scale(0.7)"/>
     <use xlink:href="#DejaVuSans-Oblique-73" transform="translate(73.925781 -16.28125) scale(0.7)"/>
     <use xlink:href="#DejaVuSans-28" transform="translate(113.129883 0.125)"/>
     <use xlink:href="#DejaVuSans-Oblique-56" transform="translate(152.143555 0.125)"/>
     <use xlink:href="#DejaVuSans-Oblique-67" transform="translate(220.551758 -16.28125) scale(0.7)"/>
     <use xlink:href="#DejaVuSans-Oblique-73" transform="translate(264.985352 -16.28125) scale(0.7)"/>
     <use xlink:href="#DejaVuSans-29" transform="translate(304.189453 0.125)"/>
    </g>
   </g>
   <g id="legend_1">
    <g id="patch_7">
     <path d="M 77.525 107.4825 
L 213.605 107.4825 
Q 215.605 107.4825 215.605 105.4825 
L 215.605 35.8 
Q 215.605 33.8 213.605 33.8 
L 77.525 33.8 
Q 75.525 33.8 75.525 35.8 
L 75.525 105.4825 
Q 75.525 107.4825 77.525 107.4825 
z
" style="fill: #ffffff; opacity: 0.8; stroke: #cccccc; stroke-linejoin: miter"/>
    </g>
    <g id="line2d_33">
     <path d="M 77.525 41.418125 
L 82.525 41.418125 
L 87.525 41.418125 
" style="fill: none; stroke: #ff0000; stroke-width: 2; stroke-linecap: square"/>
    </g>
    <g id="text_17">
     <!-- $I_{DS X1}: V_{D}$ = -6.0e-01 -->
     <g transform="translate(89.525 44.918125) scale(0.12 -0.12)">
      <defs>
       <path id="DejaVuSans-3a" d="M 750 794 
L 1409 794 
L 1409 0 
L 750 0 
L 750 794 
z
M 750 3309 
L 1409 3309 
L 1409 2516 
L 750 2516 
L 750 3309 
z
" transform="scale(0.015625)"/>
       <path id="DejaVuSans-3d" d="M 678 2906 
L 4684 2906 
L 4684 2381 
L 678 2381 
L 678 2906 
z
M 678 1631 
L 4684 1631 
L 4684 1100 
L 678 1100 
L 678 1631 
z
" transform="scale(0.015625)"/>
       <path id="DejaVuSans-2d" d="M 313 2009 
L 1997 2009 
L 1997 1497 
L 313 1497 
L 313 2009 
z
" transform="scale(0.015625)"/>
       <path id="DejaVuSans-36" d="M 2113 2584 
Q 1688 2584 1439 2293 
Q 1191 2003 1191 1497 
Q 1191 994 1439 701 
Q 1688 409 2113 409 
Q 2538 409 2786 701 
Q 3034 994 3034 1497 
Q 3034 2003 2786 2293 
Q 2538 2584 2113 2584 
z
M 3366 4563 
L 3366 3988 
Q 3128 4100 2886 4159 
Q 2644 4219 2406 4219 
Q 1781 4219 1451 3797 
Q 1122 3375 1075 2522 
Q 1259 2794 1537 2939 
Q 1816 3084 2150 3084 
Q 2853 3084 3261 2657 
Q 3669 2231 3669 1497 
Q 3669 778 3244 343 
Q 2819 -91 2113 -91 
Q 1303 -91 875 529 
Q 447 1150 447 2328 
Q 447 3434 972 4092 
Q 1497 4750 2381 4750 
Q 2619 4750 2861 4703 
Q 3103 4656 3366 4563 
z
" transform="scale(0.015625)"/>
       <path id="DejaVuSans-65" d="M 3597 1894 
L 3597 1613 
L 953 1613 
Q 991 1019 1311 708 
Q 1631 397 2203 397 
Q 2534 397 2845 478 
Q 3156 559 3463 722 
L 3463 178 
Q 3153 47 2828 -22 
Q 2503 -91 2169 -91 
Q 1331 -91 842 396 
Q 353 884 353 1716 
Q 353 2575 817 3079 
Q 1281 3584 2069 3584 
Q 2775 3584 3186 3129 
Q 3597 2675 3597 1894 
z
M 3022 2063 
Q 3016 2534 2758 2815 
Q 2500 3097 2075 3097 
Q 1594 3097 1305 2825 
Q 1016 2553 972 2059 
L 3022 2063 
z
" transform="scale(0.015625)"/>
      </defs>
      <use xlink:href="#DejaVuSans-Oblique-49" transform="translate(0 0.78125)"/>
      <use xlink:href="#DejaVuSans-Oblique-44" transform="translate(29.492188 -15.625) scale(0.7)"/>
      <use xlink:href="#DejaVuSans-Oblique-53" transform="translate(83.393555 -15.625) scale(0.7)"/>
      <use xlink:href="#DejaVuSans-Oblique-58" transform="translate(127.827148 -15.625) scale(0.7)"/>
      <use xlink:href="#DejaVuSans-31" transform="translate(175.78125 -15.625) scale(0.7)"/>
      <use xlink:href="#DejaVuSans-3a" transform="translate(242.53418 0.78125)"/>
      <use xlink:href="#DejaVuSans-Oblique-56" transform="translate(295.708008 0.78125)"/>
      <use xlink:href="#DejaVuSans-Oblique-44" transform="translate(364.116211 -15.625) scale(0.7)"/>
      <use xlink:href="#DejaVuSans-20" transform="translate(420.751953 0.78125)"/>
      <use xlink:href="#DejaVuSans-3d" transform="translate(452.539062 0.78125)"/>
      <use xlink:href="#DejaVuSans-20" transform="translate(536.328125 0.78125)"/>
      <use xlink:href="#DejaVuSans-2d" transform="translate(568.115234 0.78125)"/>
      <use xlink:href="#DejaVuSans-36" transform="translate(604.199219 0.78125)"/>
      <use xlink:href="#DejaVuSans-2e" transform="translate(667.822266 0.78125)"/>
      <use xlink:href="#DejaVuSans-30" transform="translate(699.609375 0.78125)"/>
      <use xlink:href="#DejaVuSans-65" transform="translate(763.232422 0.78125)"/>
      <use xlink:href="#DejaVuSans-2d" transform="translate(824.755859 0.78125)"/>
      <use xlink:href="#DejaVuSans-30" transform="translate(860.839844 0.78125)"/>
      <use xlink:href="#DejaVuSans-31" transform="translate(924.462891 0.78125)"/>
     </g>
    </g>
    <g id="line2d_34">
     <path d="M 77.525 53.031875 
L 82.525 53.031875 
L 87.525 53.031875 
" style="fill: none; stroke: #0000ff; stroke-width: 2; stroke-linecap: square"/>
    </g>
    <g id="text_18">
     <!-- $I_{DS X1}: V_{D}$ = -1.2e+00 -->
     <g transform="translate(89.525 56.531875) scale(0.12 -0.12)">
      <defs>
       <path id="DejaVuSans-32" d="M 1228 531 
L 3431 531 
L 3431 0 
L 469 0 
L 469 531 
Q 828 903 1448 1529 
Q 2069 2156 2228 2338 
Q 2531 2678 2651 2914 
Q 2772 3150 2772 3378 
Q 2772 3750 2511 3984 
Q 2250 4219 1831 4219 
Q 1534 4219 1204 4116 
Q 875 4013 500 3803 
L 500 4441 
Q 881 4594 1212 4672 
Q 1544 4750 1819 4750 
Q 2544 4750 2975 4387 
Q 3406 4025 3406 3419 
Q 3406 3131 3298 2873 
Q 3191 2616 2906 2266 
Q 2828 2175 2409 1742 
Q 1991 1309 1228 531 
z
" transform="scale(0.015625)"/>
       <path id="DejaVuSans-2b" d="M 2944 4013 
L 2944 2272 
L 4684 2272 
L 4684 1741 
L 2944 1741 
L 2944 0 
L 2419 0 
L 2419 1741 
L 678 1741 
L 678 2272 
L 2419 2272 
L 2419 4013 
L 2944 4013 
z
" transform="scale(0.015625)"/>
      </defs>
      <use xlink:href="#DejaVuSans-Oblique-49" transform="translate(0 0.78125)"/>
      <use xlink:href="#DejaVuSans-Oblique-44" transform="translate(29.492188 -15.625) scale(0.7)"/>
      <use xlink:href="#DejaVuSans-Oblique-53" transform="translate(83.393555 -15.625) scale(0.7)"/>
      <use xlink:href="#DejaVuSans-Oblique-58" transform="translate(127.827148 -15.625) scale(0.7)"/>
      <use xlink:href="#DejaVuSans-31" transform="translate(175.78125 -15.625) scale(0.7)"/>
      <use xlink:href="#DejaVuSans-3a" transform="translate(242.53418 0.78125)"/>
      <use xlink:href="#DejaVuSans-Oblique-56" transform="translate(295.708008 0.78125)"/>
      <use xlink:href="#DejaVuSans-Oblique-44" transform="translate(364.116211 -15.625) scale(0.7)"/>
      <use xlink:href="#DejaVuSans-20" transform="translate(420.751953 0.78125)"/>
      <use xlink:href="#DejaVuSans-3d" transform="translate(452.539062 0.78125)"/>
      <use xlink:href="#DejaVuSans-20" transform="translate(536.328125 0.78125)"/>
      <use xlink:href="#DejaVuSans-2d" transform="translate(568.115234 0.78125)"/>
      <use xlink:href="#DejaVuSans-31" transform="translate(604.199219 0.78125)"/>
      <use xlink:href="#DejaVuSans-2e" transform="translate(667.822266 0.78125)"/>
      <use xlink:href="#DejaVuSans-32" transform="translate(694.109375 0.78125)"/>
      <use xlink:href="#DejaVuSans-65" transform="translate(757.732422 0.78125)"/>
      <use xlink:href="#DejaVuSans-2b" transform="translate(819.255859 0.78125)"/>
      <use xlink:href="#DejaVuSans-30" transform="translate(903.044922 0.78125)"/>
      <use xlink:href="#DejaVuSans-30" transform="translate(966.667969 0.78125)"/>
     </g>
    </g>
    <g id="line2d_35">
     <path d="M 77.525 64.645625 
L 82.525 64.645625 
L 87.525 64.645625 
" style="fill: none; stroke: #008000; stroke-width: 2; stroke-linecap: square"/>
    </g>
    <g id="text_19">
     <!-- $I_{DS X1}: V_{D}$ = -1.8e+00 -->
     <g transform="translate(89.525 68.145625) scale(0.12 -0.12)">
      <defs>
       <path id="DejaVuSans-38" d="M 2034 2216 
Q 1584 2216 1326 1975 
Q 1069 1734 1069 1313 
Q 1069 891 1326 650 
Q 1584 409 2034 409 
Q 2484 409 2743 651 
Q 3003 894 3003 1313 
Q 3003 1734 2745 1975 
Q 2488 2216 2034 2216 
z
M 1403 2484 
Q 997 2584 770 2862 
Q 544 3141 544 3541 
Q 544 4100 942 4425 
Q 1341 4750 2034 4750 
Q 2731 4750 3128 4425 
Q 3525 4100 3525 3541 
Q 3525 3141 3298 2862 
Q 3072 2584 2669 2484 
Q 3125 2378 3379 2068 
Q 3634 1759 3634 1313 
Q 3634 634 3220 271 
Q 2806 -91 2034 -91 
Q 1263 -91 848 271 
Q 434 634 434 1313 
Q 434 1759 690 2068 
Q 947 2378 1403 2484 
z
M 1172 3481 
Q 1172 3119 1398 2916 
Q 1625 2713 2034 2713 
Q 2441 2713 2670 2916 
Q 2900 3119 2900 3481 
Q 2900 3844 2670 4047 
Q 2441 4250 2034 4250 
Q 1625 4250 1398 4047 
Q 1172 3844 1172 3481 
z
" transform="scale(0.015625)"/>
      </defs>
      <use xlink:href="#DejaVuSans-Oblique-49" transform="translate(0 0.78125)"/>
      <use xlink:href="#DejaVuSans-Oblique-44" transform="translate(29.492188 -15.625) scale(0.7)"/>
      <use xlink:href="#DejaVuSans-Oblique-53" transform="translate(83.393555 -15.625) scale(0.7)"/>
      <use xlink:href="#DejaVuSans-Oblique-58" transform="translate(127.827148 -15.625) scale(0.7)"/>
      <use xlink:href="#DejaVuSans-31" transform="translate(175.78125 -15.625) scale(0.7)"/>
      <use xlink:href="#DejaVuSans-3a" transform="translate(242.53418 0.78125)"/>
      <use xlink:href="#DejaVuSans-Oblique-56" transform="translate(295.708008 0.78125)"/>
      <use xlink:href="#DejaVuSans-Oblique-44" transform="translate(364.116211 -15.625) scale(0.7)"/>
      <use xlink:href="#DejaVuSans-20" transform="translate(420.751953 0.78125)"/>
      <use xlink:href="#DejaVuSans-3d" transform="translate(452.539062 0.78125)"/>
      <use xlink:href="#DejaVuSans-20" transform="translate(536.328125 0.78125)"/>
      <use xlink:href="#DejaVuSans-2d" transform="translate(568.115234 0.78125)"/>
      <use xlink:href="#DejaVuSans-31" transform="translate(604.199219 0.78125)"/>
      <use xlink:href="#DejaVuSans-2e" transform="translate(667.822266 0.78125)"/>
      <use xlink:href="#DejaVuSans-38" transform="translate(696.984375 0.78125)"/>
      <use xlink:href="#DejaVuSans-65" transform="translate(760.607422 0.78125)"/>
      <use xlink:href="#DejaVuSans-2b" transform="translate(822.130859 0.78125)"/>
      <use xlink:href="#DejaVuSans-30" transform="translate(905.919922 0.78125)"/>
      <use xlink:href="#DejaVuSans-30" transform="translate(969.542969 0.78125)"/>
     </g>
    </g>
    <g id="line2d_36">
     <path d="M 77.525 76.259375 
L 82.525 76.259375 
L 87.525 76.259375 
" style="fill: none; stroke: #00bfbf; stroke-width: 2; stroke-linecap: square"/>
    </g>
    <g id="text_20">
     <!-- V2=600m -->
     <g transform="translate(89.525 79.759375) scale(0.12 -0.12)">
      <defs>
       <path id="DejaVuSans-6d" d="M 3328 2828 
Q 3544 3216 3844 3400 
Q 4144 3584 4550 3584 
Q 5097 3584 5394 3201 
Q 5691 2819 5691 2113 
L 5691 0 
L 5113 0 
L 5113 2094 
Q 5113 2597 4934 2840 
Q 4756 3084 4391 3084 
Q 3944 3084 3684 2787 
Q 3425 2491 3425 1978 
L 3425 0 
L 2847 0 
L 2847 2094 
Q 2847 2600 2669 2842 
Q 2491 3084 2119 3084 
Q 1678 3084 1418 2786 
Q 1159 2488 1159 1978 
L 1159 0 
L 581 0 
L 581 3500 
L 1159 3500 
L 1159 2956 
Q 1356 3278 1631 3431 
Q 1906 3584 2284 3584 
Q 2666 3584 2933 3390 
Q 3200 3197 3328 2828 
z
" transform="scale(0.015625)"/>
      </defs>
      <use xlink:href="#DejaVuSans-56"/>
      <use xlink:href="#DejaVuSans-32" x="68.408203"/>
      <use xlink:href="#DejaVuSans-3d" x="132.03125"/>
      <use xlink:href="#DejaVuSans-36" x="215.820312"/>
      <use xlink:href="#DejaVuSans-30" x="279.443359"/>
      <use xlink:href="#DejaVuSans-30" x="343.066406"/>
      <use xlink:href="#DejaVuSans-6d" x="406.689453"/>
     </g>
    </g>
    <g id="line2d_37">
     <path d="M 77.525 87.873125 
L 82.525 87.873125 
L 87.525 87.873125 
" style="fill: none; stroke: #bf00bf; stroke-width: 2; stroke-linecap: square"/>
    </g>
    <g id="text_21">
     <!-- V2=1.2 -->
     <g transform="translate(89.525 91.373125) scale(0.12 -0.12)">
      <use xlink:href="#DejaVuSans-56"/>
      <use xlink:href="#DejaVuSans-32" x="68.408203"/>
      <use xlink:href="#DejaVuSans-3d" x="132.03125"/>
      <use xlink:href="#DejaVuSans-31" x="215.820312"/>
      <use xlink:href="#DejaVuSans-2e" x="279.443359"/>
      <use xlink:href="#DejaVuSans-32" x="311.230469"/>
     </g>
    </g>
    <g id="line2d_38">
     <path d="M 77.525 99.486875 
L 82.525 99.486875 
L 87.525 99.486875 
" style="fill: none; stroke: #bfbf00; stroke-width: 2; stroke-linecap: square"/>
    </g>
    <g id="text_22">
     <!-- V2=1.8 -->
     <g transform="translate(89.525 102.986875) scale(0.12 -0.12)">
      <use xlink:href="#DejaVuSans-56"/>
      <use xlink:href="#DejaVuSans-32" x="68.408203"/>
      <use xlink:href="#DejaVuSans-3d" x="132.03125"/>
      <use xlink:href="#DejaVuSans-31" x="215.820312"/>
      <use xlink:href="#DejaVuSans-2e" x="279.443359"/>
      <use xlink:href="#DejaVuSans-38" x="311.230469"/>
     </g>
    </g>
   </g>
  </g>
 </g>
 <defs>
  <clipPath id="p5473ed8eae">
   <rect x="70.525" y="28.8" width="422.675" height="280.3"/>
  </clipPath>
 </defs>
</svg>
