<?xml version="1.0" encoding="utf-8" standalone="no"?>
<!DOCTYPE svg PUBLIC "-//W3C//DTD SVG 1.1//EN"
  "http://www.w3.org/Graphics/SVG/1.1/DTD/svg11.dtd">
<svg xmlns:xlink="http://www.w3.org/1999/xlink" width="504pt" height="360pt" viewBox="0 0 504 360" xmlns="http://www.w3.org/2000/svg" version="1.1">
 <metadata>
  <rdf:RDF xmlns:dc="http://purl.org/dc/elements/1.1/" xmlns:cc="http://creativecommons.org/ns#" xmlns:rdf="http://www.w3.org/1999/02/22-rdf-syntax-ns#">
   <cc:Work>
    <dc:type rdf:resource="http://purl.org/dc/dcmitype/StillImage"/>
    <dc:date>2024-11-18T11:14:07.258272</dc:date>
    <dc:format>image/svg+xml</dc:format>
    <dc:creator>
     <cc:Agent>
      <dc:title>Matplotlib v3.9.2, https://matplotlib.org/</dc:title>
     </cc:Agent>
    </dc:creator>
   </cc:Work>
  </rdf:RDF>
 </metadata>
 <defs>
  <style type="text/css">*{stroke-linejoin: round; stroke-linecap: butt}</style>
 </defs>
 <g id="figure_1">
  <g id="patch_1">
   <path d="M 0 360 
L 504 360 
L 504 0 
L 0 0 
z
" style="fill: #ffffff"/>
  </g>
  <g id="axes_1">
   <g id="patch_2">
    <path d="M 53.025 309.1 
L 493.2 309.1 
L 493.2 28.8 
L 53.025 28.8 
z
" style="fill: #ffffff"/>
   </g>
   <g id="matplotlib.axis_1">
    <g id="xtick_1">
     <g id="line2d_1">
      <path d="M 73.032952 309.1 
L 73.032952 28.8 
" clip-path="url(#pc61cf3432d)" style="fill: none; stroke: #808080; stroke-width: 0.8; stroke-linecap: square"/>
     </g>
     <g id="line2d_2">
      <defs>
       <path id="m40cd84110d" d="M 0 0 
L 0 3.5 
" style="stroke: #000000; stroke-width: 0.8"/>
      </defs>
      <g>
       <use xlink:href="#m40cd84110d" x="73.032952" y="309.1" style="stroke: #000000; stroke-width: 0.8"/>
      </g>
     </g>
     <g id="text_1">
      <!-- 0 -->
      <g transform="translate(69.215452 325.218125) scale(0.12 -0.12)">
       <defs>
        <path id="DejaVuSans-30" d="M 2034 4250 
Q 1547 4250 1301 3770 
Q 1056 3291 1056 2328 
Q 1056 1369 1301 889 
Q 1547 409 2034 409 
Q 2525 409 2770 889 
Q 3016 1369 3016 2328 
Q 3016 3291 2770 3770 
Q 2525 4250 2034 4250 
z
M 2034 4750 
Q 2819 4750 3233 4129 
Q 3647 3509 3647 2328 
Q 3647 1150 3233 529 
Q 2819 -91 2034 -91 
Q 1250 -91 836 529 
Q 422 1150 422 2328 
Q 422 3509 836 4129 
Q 1250 4750 2034 4750 
z
" transform="scale(0.015625)"/>
       </defs>
       <use xlink:href="#DejaVuSans-30"/>
      </g>
     </g>
    </g>
    <g id="xtick_2">
     <g id="line2d_3">
      <path d="M 129.840721 309.1 
L 129.840721 28.8 
" clip-path="url(#pc61cf3432d)" style="fill: none; stroke: #808080; stroke-width: 0.8; stroke-linecap: square"/>
     </g>
     <g id="line2d_4">
      <g>
       <use xlink:href="#m40cd84110d" x="129.840721" y="309.1" style="stroke: #000000; stroke-width: 0.8"/>
      </g>
     </g>
     <g id="text_2">
      <!-- 25 -->
      <g transform="translate(122.205721 325.218125) scale(0.12 -0.12)">
       <defs>
        <path id="DejaVuSans-32" d="M 1228 531 
L 3431 531 
L 3431 0 
L 469 0 
L 469 531 
Q 828 903 1448 1529 
Q 2069 2156 2228 2338 
Q 2531 2678 2651 2914 
Q 2772 3150 2772 3378 
Q 2772 3750 2511 3984 
Q 2250 4219 1831 4219 
Q 1534 4219 1204 4116 
Q 875 4013 500 3803 
L 500 4441 
Q 881 4594 1212 4672 
Q 1544 4750 1819 4750 
Q 2544 4750 2975 4387 
Q 3406 4025 3406 3419 
Q 3406 3131 3298 2873 
Q 3191 2616 2906 2266 
Q 2828 2175 2409 1742 
Q 1991 1309 1228 531 
z
" transform="scale(0.015625)"/>
        <path id="DejaVuSans-35" d="M 691 4666 
L 3169 4666 
L 3169 4134 
L 1269 4134 
L 1269 2991 
Q 1406 3038 1543 3061 
Q 1681 3084 1819 3084 
Q 2600 3084 3056 2656 
Q 3513 2228 3513 1497 
Q 3513 744 3044 326 
Q 2575 -91 1722 -91 
Q 1428 -91 1123 -41 
Q 819 9 494 109 
L 494 744 
Q 775 591 1075 516 
Q 1375 441 1709 441 
Q 2250 441 2565 725 
Q 2881 1009 2881 1497 
Q 2881 1984 2565 2268 
Q 2250 2553 1709 2553 
Q 1456 2553 1204 2497 
Q 953 2441 691 2322 
L 691 4666 
z
" transform="scale(0.015625)"/>
       </defs>
       <use xlink:href="#DejaVuSans-32"/>
       <use xlink:href="#DejaVuSans-35" x="63.623047"/>
      </g>
     </g>
    </g>
    <g id="xtick_3">
     <g id="line2d_5">
      <path d="M 186.648489 309.1 
L 186.648489 28.8 
" clip-path="url(#pc61cf3432d)" style="fill: none; stroke: #808080; stroke-width: 0.8; stroke-linecap: square"/>
     </g>
     <g id="line2d_6">
      <g>
       <use xlink:href="#m40cd84110d" x="186.648489" y="309.1" style="stroke: #000000; stroke-width: 0.8"/>
      </g>
     </g>
     <g id="text_3">
      <!-- 50 -->
      <g transform="translate(179.013489 325.218125) scale(0.12 -0.12)">
       <use xlink:href="#DejaVuSans-35"/>
       <use xlink:href="#DejaVuSans-30" x="63.623047"/>
      </g>
     </g>
    </g>
    <g id="xtick_4">
     <g id="line2d_7">
      <path d="M 243.456257 309.1 
L 243.456257 28.8 
" clip-path="url(#pc61cf3432d)" style="fill: none; stroke: #808080; stroke-width: 0.8; stroke-linecap: square"/>
     </g>
     <g id="line2d_8">
      <g>
       <use xlink:href="#m40cd84110d" x="243.456257" y="309.1" style="stroke: #000000; stroke-width: 0.8"/>
      </g>
     </g>
     <g id="text_4">
      <!-- 75 -->
      <g transform="translate(235.821257 325.218125) scale(0.12 -0.12)">
       <defs>
        <path id="DejaVuSans-37" d="M 525 4666 
L 3525 4666 
L 3525 4397 
L 1831 0 
L 1172 0 
L 2766 4134 
L 525 4134 
L 525 4666 
z
" transform="scale(0.015625)"/>
       </defs>
       <use xlink:href="#DejaVuSans-37"/>
       <use xlink:href="#DejaVuSans-35" x="63.623047"/>
      </g>
     </g>
    </g>
    <g id="xtick_5">
     <g id="line2d_9">
      <path d="M 300.264026 309.1 
L 300.264026 28.8 
" clip-path="url(#pc61cf3432d)" style="fill: none; stroke: #808080; stroke-width: 0.8; stroke-linecap: square"/>
     </g>
     <g id="line2d_10">
      <g>
       <use xlink:href="#m40cd84110d" x="300.264026" y="309.1" style="stroke: #000000; stroke-width: 0.8"/>
      </g>
     </g>
     <g id="text_5">
      <!-- 100 -->
      <g transform="translate(288.811526 325.218125) scale(0.12 -0.12)">
       <defs>
        <path id="DejaVuSans-31" d="M 794 531 
L 1825 531 
L 1825 4091 
L 703 3866 
L 703 4441 
L 1819 4666 
L 2450 4666 
L 2450 531 
L 3481 531 
L 3481 0 
L 794 0 
L 794 531 
z
" transform="scale(0.015625)"/>
       </defs>
       <use xlink:href="#DejaVuSans-31"/>
       <use xlink:href="#DejaVuSans-30" x="63.623047"/>
       <use xlink:href="#DejaVuSans-30" x="127.246094"/>
      </g>
     </g>
    </g>
    <g id="xtick_6">
     <g id="line2d_11">
      <path d="M 357.071794 309.1 
L 357.071794 28.8 
" clip-path="url(#pc61cf3432d)" style="fill: none; stroke: #808080; stroke-width: 0.8; stroke-linecap: square"/>
     </g>
     <g id="line2d_12">
      <g>
       <use xlink:href="#m40cd84110d" x="357.071794" y="309.1" style="stroke: #000000; stroke-width: 0.8"/>
      </g>
     </g>
     <g id="text_6">
      <!-- 125 -->
      <g transform="translate(345.619294 325.218125) scale(0.12 -0.12)">
       <use xlink:href="#DejaVuSans-31"/>
       <use xlink:href="#DejaVuSans-32" x="63.623047"/>
       <use xlink:href="#DejaVuSans-35" x="127.246094"/>
      </g>
     </g>
    </g>
    <g id="xtick_7">
     <g id="line2d_13">
      <path d="M 413.879562 309.1 
L 413.879562 28.8 
" clip-path="url(#pc61cf3432d)" style="fill: none; stroke: #808080; stroke-width: 0.8; stroke-linecap: square"/>
     </g>
     <g id="line2d_14">
      <g>
       <use xlink:href="#m40cd84110d" x="413.879562" y="309.1" style="stroke: #000000; stroke-width: 0.8"/>
      </g>
     </g>
     <g id="text_7">
      <!-- 150 -->
      <g transform="translate(402.427062 325.218125) scale(0.12 -0.12)">
       <use xlink:href="#DejaVuSans-31"/>
       <use xlink:href="#DejaVuSans-35" x="63.623047"/>
       <use xlink:href="#DejaVuSans-30" x="127.246094"/>
      </g>
     </g>
    </g>
    <g id="xtick_8">
     <g id="line2d_15">
      <path d="M 470.687331 309.1 
L 470.687331 28.8 
" clip-path="url(#pc61cf3432d)" style="fill: none; stroke: #808080; stroke-width: 0.8; stroke-linecap: square"/>
     </g>
     <g id="line2d_16">
      <g>
       <use xlink:href="#m40cd84110d" x="470.687331" y="309.1" style="stroke: #000000; stroke-width: 0.8"/>
      </g>
     </g>
     <g id="text_8">
      <!-- 175 -->
      <g transform="translate(459.234831 325.218125) scale(0.12 -0.12)">
       <use xlink:href="#DejaVuSans-31"/>
       <use xlink:href="#DejaVuSans-37" x="63.623047"/>
       <use xlink:href="#DejaVuSans-35" x="127.246094"/>
      </g>
     </g>
    </g>
    <g id="text_9">
     <!-- $I_{DS X1}$ [uA] -->
     <g transform="translate(245.2125 340.831875) scale(0.12 -0.12)">
      <defs>
       <path id="DejaVuSans-Oblique-49" d="M 1081 4666 
L 1716 4666 
L 806 0 
L 172 0 
L 1081 4666 
z
" transform="scale(0.015625)"/>
       <path id="DejaVuSans-Oblique-44" d="M 1081 4666 
L 2438 4666 
Q 3519 4666 4070 4208 
Q 4622 3750 4622 2847 
Q 4622 2250 4412 1698 
Q 4203 1147 3834 769 
Q 3463 381 2891 190 
Q 2319 0 1538 0 
L 172 0 
L 1081 4666 
z
M 1613 4147 
L 909 519 
L 1734 519 
Q 2794 519 3375 1128 
Q 3956 1738 3956 2847 
Q 3956 3519 3581 3833 
Q 3206 4147 2406 4147 
L 1613 4147 
z
" transform="scale(0.015625)"/>
       <path id="DejaVuSans-Oblique-53" d="M 3859 4513 
L 3738 3897 
Q 3422 4066 3111 4152 
Q 2800 4238 2509 4238 
Q 1944 4238 1609 3991 
Q 1275 3744 1275 3334 
Q 1275 3109 1398 2989 
Q 1522 2869 2034 2731 
L 2413 2638 
Q 3053 2472 3303 2217 
Q 3553 1963 3553 1503 
Q 3553 797 2998 353 
Q 2444 -91 1538 -91 
Q 1166 -91 791 -17 
Q 416 56 38 206 
L 166 856 
Q 513 641 861 531 
Q 1209 422 1556 422 
Q 2147 422 2503 684 
Q 2859 947 2859 1369 
Q 2859 1650 2717 1795 
Q 2575 1941 2106 2059 
L 1728 2156 
Q 1081 2325 845 2545 
Q 609 2766 609 3163 
Q 609 3859 1145 4304 
Q 1681 4750 2541 4750 
Q 2875 4750 3203 4690 
Q 3531 4631 3859 4513 
z
" transform="scale(0.015625)"/>
       <path id="DejaVuSans-Oblique-58" d="M 878 4666 
L 1516 4666 
L 2316 2981 
L 3763 4666 
L 4500 4666 
L 2578 2438 
L 3738 0 
L 3103 0 
L 2163 1966 
L 459 0 
L -275 0 
L 1906 2509 
L 878 4666 
z
" transform="scale(0.015625)"/>
       <path id="DejaVuSans-20" transform="scale(0.015625)"/>
       <path id="DejaVuSans-5b" d="M 550 4863 
L 1875 4863 
L 1875 4416 
L 1125 4416 
L 1125 -397 
L 1875 -397 
L 1875 -844 
L 550 -844 
L 550 4863 
z
" transform="scale(0.015625)"/>
       <path id="DejaVuSans-75" d="M 544 1381 
L 544 3500 
L 1119 3500 
L 1119 1403 
Q 1119 906 1312 657 
Q 1506 409 1894 409 
Q 2359 409 2629 706 
Q 2900 1003 2900 1516 
L 2900 3500 
L 3475 3500 
L 3475 0 
L 2900 0 
L 2900 538 
Q 2691 219 2414 64 
Q 2138 -91 1772 -91 
Q 1169 -91 856 284 
Q 544 659 544 1381 
z
M 1991 3584 
L 1991 3584 
z
" transform="scale(0.015625)"/>
       <path id="DejaVuSans-41" d="M 2188 4044 
L 1331 1722 
L 3047 1722 
L 2188 4044 
z
M 1831 4666 
L 2547 4666 
L 4325 0 
L 3669 0 
L 3244 1197 
L 1141 1197 
L 716 0 
L 50 0 
L 1831 4666 
z
" transform="scale(0.015625)"/>
       <path id="DejaVuSans-5d" d="M 1947 4863 
L 1947 -844 
L 622 -844 
L 622 -397 
L 1369 -397 
L 1369 4416 
L 622 4416 
L 622 4863 
L 1947 4863 
z
" transform="scale(0.015625)"/>
      </defs>
      <use xlink:href="#DejaVuSans-Oblique-49" transform="translate(0 0.015625)"/>
      <use xlink:href="#DejaVuSans-Oblique-44" transform="translate(29.492188 -16.390625) scale(0.7)"/>
      <use xlink:href="#DejaVuSans-Oblique-53" transform="translate(83.393555 -16.390625) scale(0.7)"/>
      <use xlink:href="#DejaVuSans-Oblique-58" transform="translate(127.827148 -16.390625) scale(0.7)"/>
      <use xlink:href="#DejaVuSans-31" transform="translate(175.78125 -16.390625) scale(0.7)"/>
      <use xlink:href="#DejaVuSans-20" transform="translate(223.051758 0.015625)"/>
      <use xlink:href="#DejaVuSans-5b" transform="translate(254.838867 0.015625)"/>
      <use xlink:href="#DejaVuSans-75" transform="translate(293.852539 0.015625)"/>
      <use xlink:href="#DejaVuSans-41" transform="translate(357.231445 0.015625)"/>
      <use xlink:href="#DejaVuSans-5d" transform="translate(425.639648 0.015625)"/>
     </g>
    </g>
   </g>
   <g id="matplotlib.axis_2">
    <g id="ytick_1">
     <g id="line2d_17">
      <path d="M 53.025 284.51873 
L 493.2 284.51873 
" clip-path="url(#pc61cf3432d)" style="fill: none; stroke: #808080; stroke-width: 0.8; stroke-linecap: square"/>
     </g>
     <g id="line2d_18">
      <defs>
       <path id="maab1b27927" d="M 0 0 
L -3.5 0 
" style="stroke: #000000; stroke-width: 0.8"/>
      </defs>
      <g>
       <use xlink:href="#maab1b27927" x="53.025" y="284.51873" style="stroke: #000000; stroke-width: 0.8"/>
      </g>
     </g>
     <g id="text_10">
      <!-- 0 -->
      <g transform="translate(38.39 289.077792) scale(0.12 -0.12)">
       <use xlink:href="#DejaVuSans-30"/>
      </g>
     </g>
    </g>
    <g id="ytick_2">
     <g id="line2d_19">
      <path d="M 53.025 250.084724 
L 493.2 250.084724 
" clip-path="url(#pc61cf3432d)" style="fill: none; stroke: #808080; stroke-width: 0.8; stroke-linecap: square"/>
     </g>
     <g id="line2d_20">
      <g>
       <use xlink:href="#maab1b27927" x="53.025" y="250.084724" style="stroke: #000000; stroke-width: 0.8"/>
      </g>
     </g>
     <g id="text_11">
      <!-- 5 -->
      <g transform="translate(38.39 254.643786) scale(0.12 -0.12)">
       <use xlink:href="#DejaVuSans-35"/>
      </g>
     </g>
    </g>
    <g id="ytick_3">
     <g id="line2d_21">
      <path d="M 53.025 215.650717 
L 493.2 215.650717 
" clip-path="url(#pc61cf3432d)" style="fill: none; stroke: #808080; stroke-width: 0.8; stroke-linecap: square"/>
     </g>
     <g id="line2d_22">
      <g>
       <use xlink:href="#maab1b27927" x="53.025" y="215.650717" style="stroke: #000000; stroke-width: 0.8"/>
      </g>
     </g>
     <g id="text_12">
      <!-- 10 -->
      <g transform="translate(30.755 220.20978) scale(0.12 -0.12)">
       <use xlink:href="#DejaVuSans-31"/>
       <use xlink:href="#DejaVuSans-30" x="63.623047"/>
      </g>
     </g>
    </g>
    <g id="ytick_4">
     <g id="line2d_23">
      <path d="M 53.025 181.216711 
L 493.2 181.216711 
" clip-path="url(#pc61cf3432d)" style="fill: none; stroke: #808080; stroke-width: 0.8; stroke-linecap: square"/>
     </g>
     <g id="line2d_24">
      <g>
       <use xlink:href="#maab1b27927" x="53.025" y="181.216711" style="stroke: #000000; stroke-width: 0.8"/>
      </g>
     </g>
     <g id="text_13">
      <!-- 15 -->
      <g transform="translate(30.755 185.775773) scale(0.12 -0.12)">
       <use xlink:href="#DejaVuSans-31"/>
       <use xlink:href="#DejaVuSans-35" x="63.623047"/>
      </g>
     </g>
    </g>
    <g id="ytick_5">
     <g id="line2d_25">
      <path d="M 53.025 146.782705 
L 493.2 146.782705 
" clip-path="url(#pc61cf3432d)" style="fill: none; stroke: #808080; stroke-width: 0.8; stroke-linecap: square"/>
     </g>
     <g id="line2d_26">
      <g>
       <use xlink:href="#maab1b27927" x="53.025" y="146.782705" style="stroke: #000000; stroke-width: 0.8"/>
      </g>
     </g>
     <g id="text_14">
      <!-- 20 -->
      <g transform="translate(30.755 151.341767) scale(0.12 -0.12)">
       <use xlink:href="#DejaVuSans-32"/>
       <use xlink:href="#DejaVuSans-30" x="63.623047"/>
      </g>
     </g>
    </g>
    <g id="ytick_6">
     <g id="line2d_27">
      <path d="M 53.025 112.348698 
L 493.2 112.348698 
" clip-path="url(#pc61cf3432d)" style="fill: none; stroke: #808080; stroke-width: 0.8; stroke-linecap: square"/>
     </g>
     <g id="line2d_28">
      <g>
       <use xlink:href="#maab1b27927" x="53.025" y="112.348698" style="stroke: #000000; stroke-width: 0.8"/>
      </g>
     </g>
     <g id="text_15">
      <!-- 25 -->
      <g transform="translate(30.755 116.907761) scale(0.12 -0.12)">
       <use xlink:href="#DejaVuSans-32"/>
       <use xlink:href="#DejaVuSans-35" x="63.623047"/>
      </g>
     </g>
    </g>
    <g id="ytick_7">
     <g id="line2d_29">
      <path d="M 53.025 77.914692 
L 493.2 77.914692 
" clip-path="url(#pc61cf3432d)" style="fill: none; stroke: #808080; stroke-width: 0.8; stroke-linecap: square"/>
     </g>
     <g id="line2d_30">
      <g>
       <use xlink:href="#maab1b27927" x="53.025" y="77.914692" style="stroke: #000000; stroke-width: 0.8"/>
      </g>
     </g>
     <g id="text_16">
      <!-- 30 -->
      <g transform="translate(30.755 82.473755) scale(0.12 -0.12)">
       <defs>
        <path id="DejaVuSans-33" d="M 2597 2516 
Q 3050 2419 3304 2112 
Q 3559 1806 3559 1356 
Q 3559 666 3084 287 
Q 2609 -91 1734 -91 
Q 1441 -91 1130 -33 
Q 819 25 488 141 
L 488 750 
Q 750 597 1062 519 
Q 1375 441 1716 441 
Q 2309 441 2620 675 
Q 2931 909 2931 1356 
Q 2931 1769 2642 2001 
Q 2353 2234 1838 2234 
L 1294 2234 
L 1294 2753 
L 1863 2753 
Q 2328 2753 2575 2939 
Q 2822 3125 2822 3475 
Q 2822 3834 2567 4026 
Q 2313 4219 1838 4219 
Q 1578 4219 1281 4162 
Q 984 4106 628 3988 
L 628 4550 
Q 988 4650 1302 4700 
Q 1616 4750 1894 4750 
Q 2613 4750 3031 4423 
Q 3450 4097 3450 3541 
Q 3450 3153 3228 2886 
Q 3006 2619 2597 2516 
z
" transform="scale(0.015625)"/>
       </defs>
       <use xlink:href="#DejaVuSans-33"/>
       <use xlink:href="#DejaVuSans-30" x="63.623047"/>
      </g>
     </g>
    </g>
    <g id="ytick_8">
     <g id="line2d_31">
      <path d="M 53.025 43.480686 
L 493.2 43.480686 
" clip-path="url(#pc61cf3432d)" style="fill: none; stroke: #808080; stroke-width: 0.8; stroke-linecap: square"/>
     </g>
     <g id="line2d_32">
      <g>
       <use xlink:href="#maab1b27927" x="53.025" y="43.480686" style="stroke: #000000; stroke-width: 0.8"/>
      </g>
     </g>
     <g id="text_17">
      <!-- 35 -->
      <g transform="translate(30.755 48.039748) scale(0.12 -0.12)">
       <use xlink:href="#DejaVuSans-33"/>
       <use xlink:href="#DejaVuSans-35" x="63.623047"/>
      </g>
     </g>
    </g>
    <g id="text_18">
     <!-- $f_{T X1}\,$ [GHz] -->
     <g transform="translate(24.259375 199.25) rotate(-90) scale(0.12 -0.12)">
      <defs>
       <path id="DejaVuSans-Oblique-66" d="M 3059 4863 
L 2969 4384 
L 2419 4384 
Q 2106 4384 1964 4261 
Q 1822 4138 1753 3809 
L 1691 3500 
L 2638 3500 
L 2553 3053 
L 1606 3053 
L 1013 0 
L 434 0 
L 1031 3053 
L 481 3053 
L 563 3500 
L 1113 3500 
L 1159 3744 
Q 1278 4363 1576 4613 
Q 1875 4863 2516 4863 
L 3059 4863 
z
" transform="scale(0.015625)"/>
       <path id="DejaVuSans-Oblique-54" d="M 378 4666 
L 4325 4666 
L 4225 4134 
L 2559 4134 
L 1759 0 
L 1125 0 
L 1925 4134 
L 275 4134 
L 378 4666 
z
" transform="scale(0.015625)"/>
       <path id="DejaVuSans-47" d="M 3809 666 
L 3809 1919 
L 2778 1919 
L 2778 2438 
L 4434 2438 
L 4434 434 
Q 4069 175 3628 42 
Q 3188 -91 2688 -91 
Q 1594 -91 976 548 
Q 359 1188 359 2328 
Q 359 3472 976 4111 
Q 1594 4750 2688 4750 
Q 3144 4750 3555 4637 
Q 3966 4525 4313 4306 
L 4313 3634 
Q 3963 3931 3569 4081 
Q 3175 4231 2741 4231 
Q 1884 4231 1454 3753 
Q 1025 3275 1025 2328 
Q 1025 1384 1454 906 
Q 1884 428 2741 428 
Q 3075 428 3337 486 
Q 3600 544 3809 666 
z
" transform="scale(0.015625)"/>
       <path id="DejaVuSans-48" d="M 628 4666 
L 1259 4666 
L 1259 2753 
L 3553 2753 
L 3553 4666 
L 4184 4666 
L 4184 0 
L 3553 0 
L 3553 2222 
L 1259 2222 
L 1259 0 
L 628 0 
L 628 4666 
z
" transform="scale(0.015625)"/>
       <path id="DejaVuSans-7a" d="M 353 3500 
L 3084 3500 
L 3084 2975 
L 922 459 
L 3084 459 
L 3084 0 
L 275 0 
L 275 525 
L 2438 3041 
L 353 3041 
L 353 3500 
z
" transform="scale(0.015625)"/>
      </defs>
      <use xlink:href="#DejaVuSans-Oblique-66" transform="translate(0 0.015625)"/>
      <use xlink:href="#DejaVuSans-Oblique-54" transform="translate(35.205078 -16.390625) scale(0.7)"/>
      <use xlink:href="#DejaVuSans-Oblique-58" transform="translate(77.963867 -16.390625) scale(0.7)"/>
      <use xlink:href="#DejaVuSans-31" transform="translate(125.917969 -16.390625) scale(0.7)"/>
      <use xlink:href="#DejaVuSans-20" transform="translate(189.424153 0.015625)"/>
      <use xlink:href="#DejaVuSans-5b" transform="translate(221.211262 0.015625)"/>
      <use xlink:href="#DejaVuSans-47" transform="translate(260.224934 0.015625)"/>
      <use xlink:href="#DejaVuSans-48" transform="translate(337.715168 0.015625)"/>
      <use xlink:href="#DejaVuSans-7a" transform="translate(412.910481 0.015625)"/>
      <use xlink:href="#DejaVuSans-5d" transform="translate(465.400715 0.015625)"/>
     </g>
    </g>
   </g>
   <g id="line2d_33">
    <path d="M 73.032955 284.51859 
L 73.032959 284.518332 
L 73.03297 284.517604 
L 73.033003 284.515578 
L 73.033093 284.510059 
L 73.033336 284.4956 
L 73.033967 284.460353 
L 73.035515 284.38484 
L 73.038995 284.253453 
L 73.045961 284.079774 
L 73.058038 283.909739 
L 73.075929 283.790731 
L 73.098733 283.743576 
L 73.124376 283.760757 
L 73.150692 283.821739 
L 73.176173 283.905703 
L 73.200069 283.996816 
L 73.222163 284.085029 
L 73.24252 284.164996 
L 73.261313 284.234577 
L 73.278737 284.293536 
L 73.294973 284.342629 
L 73.310176 284.383031 
L 73.324473 284.416021 
L 73.337972 284.442813 
L 73.35076 284.464486 
L 73.36291 284.481964 
L 73.374486 284.496023 
L 73.38554 284.507298 
L 73.39612 284.516313 
L 73.406267 284.523491 
L 73.416017 284.529177 
L 73.425403 284.53365 
L 73.434453 284.537137 
L 73.443194 284.53982 
L 73.45165 284.541849 
L 73.459841 284.543344 
L 73.467788 284.544405 
L 73.475508 284.545111 
L 73.483017 284.54553 
L 73.49033 284.545714 
L 73.497461 284.545708 
L 73.504421 284.54555 
L 73.511222 284.545268 
L 73.517875 284.544887 
L 73.524389 284.544428 
L 73.530773 284.543908 
L 73.537035 284.543341 
L 73.543183 284.542738 
L 73.549224 284.542109 
" clip-path="url(#pc61cf3432d)" style="fill: none; stroke: #ff0000; stroke-width: 2; stroke-linecap: square"/>
   </g>
   <g id="line2d_34">
    <path d="M 73.033012 284.514948 
L 73.033123 284.507951 
L 73.033439 284.488127 
L 73.03433 284.432402 
L 73.036822 284.277932 
L 73.043678 283.860231 
L 73.06206 282.779918 
L 73.109417 280.19644 
L 73.224407 274.751402 
L 73.481768 265.055376 
L 74.001676 250.568379 
L 74.937381 231.996541 
L 76.436664 211.060351 
L 78.598929 189.947904 
L 81.454105 170.892015 
L 84.964551 156.115117 
L 89.03327 147.770539 
L 93.509778 147.255436 
L 98.203272 154.228754 
L 102.915404 166.644453 
L 107.4832 181.881657 
L 111.805652 197.756608 
L 115.841882 212.849253 
L 119.592139 226.409245 
L 123.077604 238.151805 
L 126.326593 248.073248 
L 129.367341 256.317439 
L 132.22509 263.090439 
L 134.921399 268.611241 
L 137.474391 273.08635 
L 139.899294 276.69872 
L 142.208992 279.604661 
L 144.414504 281.934789 
L 146.525359 283.796754 
L 148.549878 285.278528 
L 150.495398 286.451651 
L 152.368432 287.374142 
L 154.174803 288.093013 
L 155.919738 288.646356 
L 157.60795 289.065064 
L 159.243706 289.374223 
L 160.830874 289.594241 
L 162.372976 289.741746 
L 163.873219 289.830314 
L 165.334535 289.871052 
L 166.759605 289.873061 
L 168.150885 289.843812 
L 169.510633 289.789448 
L 170.840919 289.715029 
L 172.143653 289.624723 
" clip-path="url(#pc61cf3432d)" style="fill: none; stroke: #0000ff; stroke-width: 2; stroke-linecap: square"/>
   </g>
   <g id="line2d_35">
    <path d="M 73.033014 284.514844 
L 73.033128 284.507655 
L 73.033452 284.487287 
L 73.034368 284.430034 
L 73.036928 284.271323 
L 73.043972 283.842145 
L 73.06286 282.732094 
L 73.111521 280.077244 
L 73.22969 274.48063 
L 73.494207 264.510141 
L 74.02874 249.597071 
L 74.991352 230.42767 
L 76.53566 208.664436 
L 78.768613 186.29034 
L 81.733113 164.992462 
L 85.418575 145.882355 
L 89.782872 129.505823 
L 94.771221 115.987637 
L 100.327449 105.202531 
L 106.398753 96.92976 
L 112.936085 90.999673 
L 119.891023 87.471508 
L 127.208561 86.863857 
L 134.814937 90.294391 
L 142.603315 99.090619 
L 150.428428 113.703706 
L 158.124257 132.94171 
L 165.542087 154.518018 
L 172.58378 176.192371 
L 179.209483 196.412466 
L 185.423526 214.363568 
L 191.254452 229.77504 
L 196.739672 242.706958 
L 201.916828 253.388619 
L 206.820078 262.11498 
L 211.479079 269.187758 
L 215.91918 274.885941 
L 220.162016 279.45381 
L 224.226165 283.098488 
L 228.127719 285.992166 
L 231.880748 288.276273 
L 235.497661 290.066122 
L 238.989486 291.455347 
L 242.366084 292.519826 
L 245.63632 293.321011 
L 248.808197 293.908697 
L 251.888966 294.323267 
L 254.885214 294.597526 
L 257.802944 294.758163 
L 260.647634 294.826934 
" clip-path="url(#pc61cf3432d)" style="fill: none; stroke: #008000; stroke-width: 2; stroke-linecap: square"/>
   </g>
   <g id="line2d_36">
    <path d="M 73.033016 284.514742 
L 73.033133 284.507364 
L 73.033466 284.486461 
L 73.034405 284.427701 
L 73.037033 284.264816 
L 73.044262 283.824352 
L 73.063646 282.685108 
L 73.113587 279.960439 
L 73.234863 274.216641 
L 73.506337 263.983937 
L 74.054928 248.67866 
L 75.042856 229.005089 
L 76.627779 206.669391 
L 78.919462 183.706535 
L 81.961941 161.847549 
L 85.744373 142.232047 
L 90.223583 125.416925 
L 95.343514 111.521243 
L 101.046973 100.391957 
L 107.281042 91.737306 
L 113.99877 85.216091 
L 121.159125 80.489783 
L 128.726293 77.24905 
L 136.668843 75.224992 
L 144.958926 74.192994 
L 153.571532 73.975922 
L 162.483648 74.455196 
L 171.672974 75.604956 
L 181.115386 77.576499 
L 190.779722 80.860986 
L 200.618188 86.476789 
L 210.553004 95.875436 
L 220.466982 110.161159 
L 230.212373 129.051238 
L 239.643217 150.811266 
L 248.652684 173.240198 
L 257.190116 194.570235 
L 265.253181 213.75138 
L 272.868941 230.347761 
L 280.076921 244.329948 
L 286.918639 255.89251 
L 293.432674 265.328291 
L 299.653022 272.953363 
L 305.609034 279.067613 
L 311.325949 283.937326 
L 316.825562 287.790098 
L 322.126843 290.816023 
L 327.246441 293.171631 
L 332.199093 294.984716 
L 336.997936 296.359091 
" clip-path="url(#pc61cf3432d)" style="fill: none; stroke: #00bfbf; stroke-width: 2; stroke-linecap: square"/>
   </g>
   <g id="line2d_37">
    <path d="M 73.033017 284.514639 
L 73.033137 284.507073 
L 73.033479 284.485634 
L 73.034442 284.425368 
L 73.037137 284.25831 
L 73.044552 283.806559 
L 73.064433 282.638122 
L 73.115654 279.843634 
L 73.240037 273.952654 
L 73.518467 263.457742 
L 74.081116 247.760273 
L 75.094359 227.582575 
L 76.719895 204.674533 
L 79.070301 181.123263 
L 82.190742 158.704149 
L 86.070098 138.586007 
L 90.664086 121.340001 
L 95.915213 107.088238 
L 101.764822 95.673741 
L 108.158638 86.797241 
L 115.048508 80.108706 
L 122.392356 75.260682 
L 130.153463 71.935207 
L 138.299632 69.854532 
L 146.802412 68.782837 
L 155.636466 68.523471 
L 164.779063 68.914324 
L 174.209681 69.822758 
L 183.90969 71.140818 
L 193.862102 72.781091 
L 204.05136 74.673508 
L 214.463136 76.763636 
L 225.084106 79.013918 
L 235.901601 81.411731 
L 246.902866 83.993828 
L 258.073386 86.907348 
L 269.393095 90.537184 
L 280.828814 95.695898 
L 292.322269 103.697906 
L 303.778314 115.90281 
L 315.065965 132.699645 
L 326.042786 152.957055 
L 336.592603 174.652121 
L 346.650717 195.871673 
L 356.203672 215.325475 
L 365.272851 232.371371 
L 373.896514 246.842238 
L 382.117438 258.855664 
L 389.976544 268.669446 
L 397.51044 276.589652 
" clip-path="url(#pc61cf3432d)" style="fill: none; stroke: #bf00bf; stroke-width: 2; stroke-linecap: square"/>
   </g>
   <g id="line2d_38">
    <path d="M 73.033019 284.514537 
L 73.033142 284.506782 
L 73.033492 284.484807 
L 73.03448 284.423036 
L 73.037242 284.251803 
L 73.044841 283.788766 
L 73.06522 282.591137 
L 73.11772 279.72683 
L 73.245211 273.688667 
L 73.530598 262.931546 
L 74.107303 246.841886 
L 75.145862 226.160061 
L 76.812011 202.679676 
L 79.22114 178.539992 
L 82.419544 155.560751 
L 86.395823 134.939969 
L 91.104589 117.263082 
L 96.486912 102.655248 
L 102.48267 90.955567 
L 109.036231 81.857293 
L 116.098241 75.001649 
L 123.62557 70.0325 
L 131.580583 66.62394 
L 139.930279 64.491278 
L 148.645496 63.392802 
L 157.700264 63.126939 
L 167.071284 63.52751 
L 176.737522 64.45851 
L 186.679888 65.809132 
L 196.880978 67.489345 
L 207.324871 69.42611 
L 217.996959 71.560225 
L 228.883798 73.843722 
L 239.972997 76.237747 
L 251.253102 78.71086 
L 262.713515 81.237674 
L 274.344404 83.797848 
L 286.13663 86.37549 
L 298.081661 88.959317 
L 310.171459 91.544518 
L 322.398267 94.13897 
L 334.754128 96.78044 
L 347.229717 99.579784 
L 359.811583 102.816609 
L 372.476315 107.105879 
L 385.180298 113.549144 
L 397.847247 123.53892 
L 410.363282 137.930332 
L 422.59257 156.200509 
L 434.411979 176.636729 
" clip-path="url(#pc61cf3432d)" style="fill: none; stroke: #bfbf00; stroke-width: 2; stroke-linecap: square"/>
   </g>
   <g id="line2d_39">
    <path d="M 73.03302 284.514435 
L 73.033147 284.50649 
L 73.033505 284.48398 
L 73.034517 284.420703 
L 73.037346 284.245297 
L 73.045131 283.770973 
L 73.066006 282.544151 
L 73.119786 279.610026 
L 73.250385 273.42468 
L 73.542728 262.40535 
L 74.133491 245.923499 
L 75.197365 224.737546 
L 76.904127 200.684818 
L 79.37198 175.956721 
L 82.648346 152.417352 
L 86.721548 131.293931 
L 91.545092 113.186163 
L 97.058611 98.222258 
L 103.200518 86.237392 
L 109.913824 76.917345 
L 117.147973 69.894592 
L 124.858784 64.804318 
L 133.007704 61.312673 
L 141.560926 59.128027 
L 150.48858 58.002775 
L 159.764061 57.730431 
L 169.363504 58.140767 
L 179.26536 59.09446 
L 189.450074 60.478004 
L 199.899819 62.199172 
L 210.598287 64.183146 
L 221.53051 66.369277 
L 232.682721 68.708424 
L 244.042224 71.160776 
L 255.597288 73.69409 
L 267.337058 76.282264 
L 279.251469 78.904184 
L 291.331177 81.542794 
L 303.567494 84.184342 
L 315.952331 86.817775 
L 328.478146 89.434248 
L 341.137899 92.026728 
L 353.925012 94.589703 
L 366.833327 97.118979 
L 379.857067 99.611678 
L 392.990796 102.066638 
L 406.229346 104.485894 
L 419.567684 106.879013 
L 433.000587 109.274897 
L 446.521829 111.751944 
" clip-path="url(#pc61cf3432d)" style="fill: none; stroke: #000000; stroke-width: 2; stroke-linecap: square"/>
   </g>
   <g id="line2d_40">
    <path d="M 73.033022 284.514333 
L 73.033151 284.506199 
L 73.033518 284.483153 
L 73.034554 284.418371 
L 73.037451 284.238791 
L 73.045421 283.75318 
L 73.066793 282.497165 
L 73.121852 279.493221 
L 73.255559 273.160693 
L 73.554858 261.879155 
L 74.159679 245.005112 
L 75.248868 223.315032 
L 76.996243 198.689961 
L 79.522819 173.373449 
L 82.877147 149.273953 
L 87.047273 127.647893 
L 91.985595 109.109245 
L 97.63031 93.789268 
L 103.918365 81.519218 
L 110.791418 71.977397 
L 118.197706 64.787536 
L 126.091997 59.576136 
L 134.434824 56.001406 
L 143.191573 53.764776 
L 152.331664 52.612748 
L 161.827859 52.333924 
L 171.655723 52.754024 
L 181.793197 53.730411 
L 192.22026 55.146876 
L 202.918661 56.909 
L 213.871702 58.940183 
L 225.064062 61.178334 
L 236.481644 63.573142 
L 248.111449 66.083848 
L 259.94147 68.677443 
L 271.960592 71.327203 
L 284.158511 74.011513 
L 296.52566 76.712908 
L 309.053145 79.417311 
L 321.732683 82.113402 
L 334.556555 84.792115 
L 347.517553 87.446232 
L 360.608943 90.070044 
L 373.824426 92.65908 
L 387.1581 95.209887 
L 400.604432 97.719847 
L 414.158231 100.187027 
L 427.814618 102.610061 
L 441.569005 104.988051 
L 455.417074 107.320505 
" clip-path="url(#pc61cf3432d)" style="fill: none; stroke: #ff0000; stroke-width: 2; stroke-linecap: square"/>
   </g>
   <g id="line2d_41">
    <path d="M 73.033024 284.514231 
L 73.033156 284.505908 
L 73.033531 284.482326 
L 73.034591 284.416038 
L 73.037555 284.232284 
L 73.045711 283.735386 
L 73.067579 282.450179 
L 73.123919 279.376417 
L 73.260733 272.896707 
L 73.566989 261.352959 
L 74.185866 244.086724 
L 75.300371 221.892518 
L 77.088359 196.695103 
L 79.673659 170.790178 
L 83.105949 146.130554 
L 87.372998 124.001855 
L 92.426098 105.032326 
L 98.202009 89.356278 
L 104.636213 76.801044 
L 111.669011 67.037449 
L 119.247438 59.680479 
L 127.325211 54.347955 
L 135.861944 50.69014 
L 144.822221 48.401525 
L 154.174748 47.222721 
L 163.891656 46.937416 
L 173.947942 47.36728 
L 184.321035 48.366361 
L 194.990447 49.815748 
L 205.937503 51.618828 
L 217.145118 53.69722 
L 228.597614 55.987391 
L 240.280566 58.43786 
L 252.180675 61.006921 
L 264.285653 63.660797 
L 276.584127 66.372143 
L 289.065553 69.118842 
L 301.720144 71.883025 
L 314.538796 74.650284 
L 327.513035 77.409038 
L 340.634963 80.150011 
L 353.897204 82.865815 
L 367.292869 85.55061 
L 380.815509 88.199821 
L 394.459088 90.809915 
L 408.217945 93.37821 
L 422.086765 95.902729 
L 436.060558 98.382068 
L 450.13463 100.815294 
L 464.304561 103.201862 
" clip-path="url(#pc61cf3432d)" style="fill: none; stroke: #0000ff; stroke-width: 2; stroke-linecap: square"/>
   </g>
   <g id="line2d_42">
    <path d="M 73.033025 284.514129 
L 73.03316 284.505617 
L 73.033544 284.481499 
L 73.034629 284.413705 
L 73.03766 284.225778 
L 73.046001 283.717593 
L 73.068366 282.403193 
L 73.125985 279.259613 
L 73.265907 272.63272 
L 73.579119 260.826763 
L 74.212054 243.168337 
L 75.351874 220.470003 
L 77.180475 194.700246 
L 79.824498 168.206907 
L 83.334751 142.987155 
L 87.698723 120.355817 
L 92.866601 100.955407 
L 98.773708 84.923287 
L 105.354061 72.08287 
L 112.546604 62.097501 
L 120.297171 54.573422 
L 128.558425 49.119773 
L 137.289065 45.378873 
L 146.452868 43.038274 
L 156.017832 41.832694 
L 165.955453 41.540909 
L 176.240162 41.980537 
L 186.848872 43.002311 
L 197.760633 44.48462 
L 208.956345 46.328655 
L 220.418534 48.454257 
L 232.131165 50.796448 
L 244.079489 53.302577 
L 256.249901 55.929993 
L 268.629836 58.64415 
L 281.207661 61.417083 
L 293.972596 64.226172 
L 306.914627 67.053141 
L 320.024446 69.883256 
L 333.293388 72.704673 
L 346.713371 75.507906 
L 360.276856 78.285399 
L 373.976794 81.031177 
L 387.806593 83.740563 
L 401.760077 86.409943 
L 415.831457 89.036576 
L 430.015299 91.618438 
L 444.306498 94.154093 
L 458.700253 96.642588 
L 473.192045 99.083365 
" clip-path="url(#pc61cf3432d)" style="fill: none; stroke: #008000; stroke-width: 2; stroke-linecap: square"/>
   </g>
   <g id="patch_3">
    <path d="M 53.025 309.1 
L 53.025 28.8 
" style="fill: none; stroke: #000000; stroke-width: 0.8; stroke-linejoin: miter; stroke-linecap: square"/>
   </g>
   <g id="patch_4">
    <path d="M 493.2 309.1 
L 493.2 28.8 
" style="fill: none; stroke: #000000; stroke-width: 0.8; stroke-linejoin: miter; stroke-linecap: square"/>
   </g>
   <g id="patch_5">
    <path d="M 53.025 309.1 
L 493.2 309.1 
" style="fill: none; stroke: #000000; stroke-width: 0.8; stroke-linejoin: miter; stroke-linecap: square"/>
   </g>
   <g id="patch_6">
    <path d="M 53.025 28.8 
L 493.2 28.8 
" style="fill: none; stroke: #000000; stroke-width: 0.8; stroke-linejoin: miter; stroke-linecap: square"/>
   </g>
   <g id="text_19">
    <!-- $f_{T}(I_{ds})$ -->
    <g transform="translate(256.7925 22.8) scale(0.12 -0.12)">
     <defs>
      <path id="DejaVuSans-28" d="M 1984 4856 
Q 1566 4138 1362 3434 
Q 1159 2731 1159 2009 
Q 1159 1288 1364 580 
Q 1569 -128 1984 -844 
L 1484 -844 
Q 1016 -109 783 600 
Q 550 1309 550 2009 
Q 550 2706 781 3412 
Q 1013 4119 1484 4856 
L 1984 4856 
z
" transform="scale(0.015625)"/>
      <path id="DejaVuSans-Oblique-64" d="M 2675 525 
Q 2444 222 2128 65 
Q 1813 -91 1428 -91 
Q 903 -91 598 267 
Q 294 625 294 1247 
Q 294 1766 478 2236 
Q 663 2706 1013 3078 
Q 1244 3325 1534 3454 
Q 1825 3584 2144 3584 
Q 2481 3584 2739 3421 
Q 2997 3259 3138 2956 
L 3513 4863 
L 4091 4863 
L 3144 0 
L 2566 0 
L 2675 525 
z
M 891 1350 
Q 891 897 1095 644 
Q 1300 391 1663 391 
Q 1931 391 2161 520 
Q 2391 650 2566 903 
Q 2750 1166 2856 1509 
Q 2963 1853 2963 2188 
Q 2963 2622 2758 2865 
Q 2553 3109 2194 3109 
Q 1922 3109 1687 2981 
Q 1453 2853 1288 2613 
Q 1106 2353 998 2009 
Q 891 1666 891 1350 
z
" transform="scale(0.015625)"/>
      <path id="DejaVuSans-Oblique-73" d="M 3200 3397 
L 3091 2853 
Q 2863 2978 2609 3040 
Q 2356 3103 2088 3103 
Q 1634 3103 1373 2948 
Q 1113 2794 1113 2528 
Q 1113 2219 1719 2053 
Q 1766 2041 1788 2034 
L 1972 1978 
Q 2547 1819 2739 1644 
Q 2931 1469 2931 1166 
Q 2931 609 2489 259 
Q 2047 -91 1331 -91 
Q 1053 -91 747 -37 
Q 441 16 72 128 
L 184 722 
Q 500 559 806 475 
Q 1113 391 1394 391 
Q 1816 391 2080 572 
Q 2344 753 2344 1031 
Q 2344 1331 1650 1516 
L 1591 1531 
L 1394 1581 
Q 956 1697 753 1886 
Q 550 2075 550 2369 
Q 550 2928 970 3256 
Q 1391 3584 2113 3584 
Q 2397 3584 2667 3537 
Q 2938 3491 3200 3397 
z
" transform="scale(0.015625)"/>
      <path id="DejaVuSans-29" d="M 513 4856 
L 1013 4856 
Q 1481 4119 1714 3412 
Q 1947 2706 1947 2009 
Q 1947 1309 1714 600 
Q 1481 -109 1013 -844 
L 513 -844 
Q 928 -128 1133 580 
Q 1338 1288 1338 2009 
Q 1338 2731 1133 3434 
Q 928 4138 513 4856 
z
" transform="scale(0.015625)"/>
     </defs>
     <use xlink:href="#DejaVuSans-Oblique-66" transform="translate(0 0.015625)"/>
     <use xlink:href="#DejaVuSans-Oblique-54" transform="translate(35.205078 -16.390625) scale(0.7)"/>
     <use xlink:href="#DejaVuSans-28" transform="translate(80.698242 0.015625)"/>
     <use xlink:href="#DejaVuSans-Oblique-49" transform="translate(119.711914 0.015625)"/>
     <use xlink:href="#DejaVuSans-Oblique-64" transform="translate(149.204102 -16.390625) scale(0.7)"/>
     <use xlink:href="#DejaVuSans-Oblique-73" transform="translate(193.637695 -16.390625) scale(0.7)"/>
     <use xlink:href="#DejaVuSans-29" transform="translate(232.841797 0.015625)"/>
    </g>
   </g>
   <g id="legend_1">
    <g id="patch_7">
     <path d="M 356.36 304.1 
L 486.2 304.1 
Q 488.2 304.1 488.2 302.1 
L 488.2 185.9625 
Q 488.2 183.9625 486.2 183.9625 
L 356.36 183.9625 
Q 354.36 183.9625 354.36 185.9625 
L 354.36 302.1 
Q 354.36 304.1 356.36 304.1 
z
" style="fill: #ffffff; opacity: 0.8; stroke: #cccccc; stroke-linejoin: miter"/>
    </g>
    <g id="line2d_43">
     <path d="M 356.36 191.580625 
L 361.36 191.580625 
L 366.36 191.580625 
" style="fill: none; stroke: #ff0000; stroke-width: 2; stroke-linecap: square"/>
    </g>
    <g id="text_20">
     <!-- $f_{T X1}: V_{D}$ =  1.0e-03 -->
     <g transform="translate(368.36 195.080625) scale(0.12 -0.12)">
      <defs>
       <path id="DejaVuSans-3a" d="M 750 794 
L 1409 794 
L 1409 0 
L 750 0 
L 750 794 
z
M 750 3309 
L 1409 3309 
L 1409 2516 
L 750 2516 
L 750 3309 
z
" transform="scale(0.015625)"/>
       <path id="DejaVuSans-Oblique-56" d="M 1319 0 
L 500 4666 
L 1119 4666 
L 1797 653 
L 4063 4666 
L 4750 4666 
L 2053 0 
L 1319 0 
z
" transform="scale(0.015625)"/>
       <path id="DejaVuSans-3d" d="M 678 2906 
L 4684 2906 
L 4684 2381 
L 678 2381 
L 678 2906 
z
M 678 1631 
L 4684 1631 
L 4684 1100 
L 678 1100 
L 678 1631 
z
" transform="scale(0.015625)"/>
       <path id="DejaVuSans-2e" d="M 684 794 
L 1344 794 
L 1344 0 
L 684 0 
L 684 794 
z
" transform="scale(0.015625)"/>
       <path id="DejaVuSans-65" d="M 3597 1894 
L 3597 1613 
L 953 1613 
Q 991 1019 1311 708 
Q 1631 397 2203 397 
Q 2534 397 2845 478 
Q 3156 559 3463 722 
L 3463 178 
Q 3153 47 2828 -22 
Q 2503 -91 2169 -91 
Q 1331 -91 842 396 
Q 353 884 353 1716 
Q 353 2575 817 3079 
Q 1281 3584 2069 3584 
Q 2775 3584 3186 3129 
Q 3597 2675 3597 1894 
z
M 3022 2063 
Q 3016 2534 2758 2815 
Q 2500 3097 2075 3097 
Q 1594 3097 1305 2825 
Q 1016 2553 972 2059 
L 3022 2063 
z
" transform="scale(0.015625)"/>
       <path id="DejaVuSans-2d" d="M 313 2009 
L 1997 2009 
L 1997 1497 
L 313 1497 
L 313 2009 
z
" transform="scale(0.015625)"/>
      </defs>
      <use xlink:href="#DejaVuSans-Oblique-66" transform="translate(0 0.015625)"/>
      <use xlink:href="#DejaVuSans-Oblique-54" transform="translate(35.205078 -16.390625) scale(0.7)"/>
      <use xlink:href="#DejaVuSans-Oblique-58" transform="translate(77.963867 -16.390625) scale(0.7)"/>
      <use xlink:href="#DejaVuSans-31" transform="translate(125.917969 -16.390625) scale(0.7)"/>
      <use xlink:href="#DejaVuSans-3a" transform="translate(192.670898 0.015625)"/>
      <use xlink:href="#DejaVuSans-Oblique-56" transform="translate(245.844727 0.015625)"/>
      <use xlink:href="#DejaVuSans-Oblique-44" transform="translate(314.25293 -16.390625) scale(0.7)"/>
      <use xlink:href="#DejaVuSans-20" transform="translate(370.888672 0.015625)"/>
      <use xlink:href="#DejaVuSans-3d" transform="translate(402.675781 0.015625)"/>
      <use xlink:href="#DejaVuSans-20" transform="translate(486.464844 0.015625)"/>
      <use xlink:href="#DejaVuSans-20" transform="translate(518.251953 0.015625)"/>
      <use xlink:href="#DejaVuSans-31" transform="translate(550.039062 0.015625)"/>
      <use xlink:href="#DejaVuSans-2e" transform="translate(613.662109 0.015625)"/>
      <use xlink:href="#DejaVuSans-30" transform="translate(645.449219 0.015625)"/>
      <use xlink:href="#DejaVuSans-65" transform="translate(709.072266 0.015625)"/>
      <use xlink:href="#DejaVuSans-2d" transform="translate(770.595703 0.015625)"/>
      <use xlink:href="#DejaVuSans-30" transform="translate(806.679688 0.015625)"/>
      <use xlink:href="#DejaVuSans-33" transform="translate(870.302734 0.015625)"/>
     </g>
    </g>
    <g id="line2d_44">
     <path d="M 356.36 203.194375 
L 361.36 203.194375 
L 366.36 203.194375 
" style="fill: none; stroke: #0000ff; stroke-width: 2; stroke-linecap: square"/>
    </g>
    <g id="text_21">
     <!-- $f_{T X1}: V_{D}$ =  2.0e-01 -->
     <g transform="translate(368.36 206.694375) scale(0.12 -0.12)">
      <use xlink:href="#DejaVuSans-Oblique-66" transform="translate(0 0.015625)"/>
      <use xlink:href="#DejaVuSans-Oblique-54" transform="translate(35.205078 -16.390625) scale(0.7)"/>
      <use xlink:href="#DejaVuSans-Oblique-58" transform="translate(77.963867 -16.390625) scale(0.7)"/>
      <use xlink:href="#DejaVuSans-31" transform="translate(125.917969 -16.390625) scale(0.7)"/>
      <use xlink:href="#DejaVuSans-3a" transform="translate(192.670898 0.015625)"/>
      <use xlink:href="#DejaVuSans-Oblique-56" transform="translate(245.844727 0.015625)"/>
      <use xlink:href="#DejaVuSans-Oblique-44" transform="translate(314.25293 -16.390625) scale(0.7)"/>
      <use xlink:href="#DejaVuSans-20" transform="translate(370.888672 0.015625)"/>
      <use xlink:href="#DejaVuSans-3d" transform="translate(402.675781 0.015625)"/>
      <use xlink:href="#DejaVuSans-20" transform="translate(486.464844 0.015625)"/>
      <use xlink:href="#DejaVuSans-20" transform="translate(518.251953 0.015625)"/>
      <use xlink:href="#DejaVuSans-32" transform="translate(550.039062 0.015625)"/>
      <use xlink:href="#DejaVuSans-2e" transform="translate(613.662109 0.015625)"/>
      <use xlink:href="#DejaVuSans-30" transform="translate(645.449219 0.015625)"/>
      <use xlink:href="#DejaVuSans-65" transform="translate(709.072266 0.015625)"/>
      <use xlink:href="#DejaVuSans-2d" transform="translate(770.595703 0.015625)"/>
      <use xlink:href="#DejaVuSans-30" transform="translate(806.679688 0.015625)"/>
      <use xlink:href="#DejaVuSans-31" transform="translate(870.302734 0.015625)"/>
     </g>
    </g>
    <g id="line2d_45">
     <path d="M 356.36 214.808125 
L 361.36 214.808125 
L 366.36 214.808125 
" style="fill: none; stroke: #008000; stroke-width: 2; stroke-linecap: square"/>
    </g>
    <g id="text_22">
     <!-- $f_{T X1}: V_{D}$ =  4.0e-01 -->
     <g transform="translate(368.36 218.308125) scale(0.12 -0.12)">
      <defs>
       <path id="DejaVuSans-34" d="M 2419 4116 
L 825 1625 
L 2419 1625 
L 2419 4116 
z
M 2253 4666 
L 3047 4666 
L 3047 1625 
L 3713 1625 
L 3713 1100 
L 3047 1100 
L 3047 0 
L 2419 0 
L 2419 1100 
L 313 1100 
L 313 1709 
L 2253 4666 
z
" transform="scale(0.015625)"/>
      </defs>
      <use xlink:href="#DejaVuSans-Oblique-66" transform="translate(0 0.015625)"/>
      <use xlink:href="#DejaVuSans-Oblique-54" transform="translate(35.205078 -16.390625) scale(0.7)"/>
      <use xlink:href="#DejaVuSans-Oblique-58" transform="translate(77.963867 -16.390625) scale(0.7)"/>
      <use xlink:href="#DejaVuSans-31" transform="translate(125.917969 -16.390625) scale(0.7)"/>
      <use xlink:href="#DejaVuSans-3a" transform="translate(192.670898 0.015625)"/>
      <use xlink:href="#DejaVuSans-Oblique-56" transform="translate(245.844727 0.015625)"/>
      <use xlink:href="#DejaVuSans-Oblique-44" transform="translate(314.25293 -16.390625) scale(0.7)"/>
      <use xlink:href="#DejaVuSans-20" transform="translate(370.888672 0.015625)"/>
      <use xlink:href="#DejaVuSans-3d" transform="translate(402.675781 0.015625)"/>
      <use xlink:href="#DejaVuSans-20" transform="translate(486.464844 0.015625)"/>
      <use xlink:href="#DejaVuSans-20" transform="translate(518.251953 0.015625)"/>
      <use xlink:href="#DejaVuSans-34" transform="translate(550.039062 0.015625)"/>
      <use xlink:href="#DejaVuSans-2e" transform="translate(613.662109 0.015625)"/>
      <use xlink:href="#DejaVuSans-30" transform="translate(645.449219 0.015625)"/>
      <use xlink:href="#DejaVuSans-65" transform="translate(709.072266 0.015625)"/>
      <use xlink:href="#DejaVuSans-2d" transform="translate(770.595703 0.015625)"/>
      <use xlink:href="#DejaVuSans-30" transform="translate(806.679688 0.015625)"/>
      <use xlink:href="#DejaVuSans-31" transform="translate(870.302734 0.015625)"/>
     </g>
    </g>
    <g id="line2d_46">
     <path d="M 356.36 226.421875 
L 361.36 226.421875 
L 366.36 226.421875 
" style="fill: none; stroke: #00bfbf; stroke-width: 2; stroke-linecap: square"/>
    </g>
    <g id="text_23">
     <!-- $f_{T X1}: V_{D}$ =  6.0e-01 -->
     <g transform="translate(368.36 229.921875) scale(0.12 -0.12)">
      <defs>
       <path id="DejaVuSans-36" d="M 2113 2584 
Q 1688 2584 1439 2293 
Q 1191 2003 1191 1497 
Q 1191 994 1439 701 
Q 1688 409 2113 409 
Q 2538 409 2786 701 
Q 3034 994 3034 1497 
Q 3034 2003 2786 2293 
Q 2538 2584 2113 2584 
z
M 3366 4563 
L 3366 3988 
Q 3128 4100 2886 4159 
Q 2644 4219 2406 4219 
Q 1781 4219 1451 3797 
Q 1122 3375 1075 2522 
Q 1259 2794 1537 2939 
Q 1816 3084 2150 3084 
Q 2853 3084 3261 2657 
Q 3669 2231 3669 1497 
Q 3669 778 3244 343 
Q 2819 -91 2113 -91 
Q 1303 -91 875 529 
Q 447 1150 447 2328 
Q 447 3434 972 4092 
Q 1497 4750 2381 4750 
Q 2619 4750 2861 4703 
Q 3103 4656 3366 4563 
z
" transform="scale(0.015625)"/>
      </defs>
      <use xlink:href="#DejaVuSans-Oblique-66" transform="translate(0 0.015625)"/>
      <use xlink:href="#DejaVuSans-Oblique-54" transform="translate(35.205078 -16.390625) scale(0.7)"/>
      <use xlink:href="#DejaVuSans-Oblique-58" transform="translate(77.963867 -16.390625) scale(0.7)"/>
      <use xlink:href="#DejaVuSans-31" transform="translate(125.917969 -16.390625) scale(0.7)"/>
      <use xlink:href="#DejaVuSans-3a" transform="translate(192.670898 0.015625)"/>
      <use xlink:href="#DejaVuSans-Oblique-56" transform="translate(245.844727 0.015625)"/>
      <use xlink:href="#DejaVuSans-Oblique-44" transform="translate(314.25293 -16.390625) scale(0.7)"/>
      <use xlink:href="#DejaVuSans-20" transform="translate(370.888672 0.015625)"/>
      <use xlink:href="#DejaVuSans-3d" transform="translate(402.675781 0.015625)"/>
      <use xlink:href="#DejaVuSans-20" transform="translate(486.464844 0.015625)"/>
      <use xlink:href="#DejaVuSans-20" transform="translate(518.251953 0.015625)"/>
      <use xlink:href="#DejaVuSans-36" transform="translate(550.039062 0.015625)"/>
      <use xlink:href="#DejaVuSans-2e" transform="translate(613.662109 0.015625)"/>
      <use xlink:href="#DejaVuSans-30" transform="translate(645.449219 0.015625)"/>
      <use xlink:href="#DejaVuSans-65" transform="translate(709.072266 0.015625)"/>
      <use xlink:href="#DejaVuSans-2d" transform="translate(770.595703 0.015625)"/>
      <use xlink:href="#DejaVuSans-30" transform="translate(806.679688 0.015625)"/>
      <use xlink:href="#DejaVuSans-31" transform="translate(870.302734 0.015625)"/>
     </g>
    </g>
    <g id="line2d_47">
     <path d="M 356.36 238.035625 
L 361.36 238.035625 
L 366.36 238.035625 
" style="fill: none; stroke: #bf00bf; stroke-width: 2; stroke-linecap: square"/>
    </g>
    <g id="text_24">
     <!-- $f_{T X1}: V_{D}$ =  8.0e-01 -->
     <g transform="translate(368.36 241.535625) scale(0.12 -0.12)">
      <defs>
       <path id="DejaVuSans-38" d="M 2034 2216 
Q 1584 2216 1326 1975 
Q 1069 1734 1069 1313 
Q 1069 891 1326 650 
Q 1584 409 2034 409 
Q 2484 409 2743 651 
Q 3003 894 3003 1313 
Q 3003 1734 2745 1975 
Q 2488 2216 2034 2216 
z
M 1403 2484 
Q 997 2584 770 2862 
Q 544 3141 544 3541 
Q 544 4100 942 4425 
Q 1341 4750 2034 4750 
Q 2731 4750 3128 4425 
Q 3525 4100 3525 3541 
Q 3525 3141 3298 2862 
Q 3072 2584 2669 2484 
Q 3125 2378 3379 2068 
Q 3634 1759 3634 1313 
Q 3634 634 3220 271 
Q 2806 -91 2034 -91 
Q 1263 -91 848 271 
Q 434 634 434 1313 
Q 434 1759 690 2068 
Q 947 2378 1403 2484 
z
M 1172 3481 
Q 1172 3119 1398 2916 
Q 1625 2713 2034 2713 
Q 2441 2713 2670 2916 
Q 2900 3119 2900 3481 
Q 2900 3844 2670 4047 
Q 2441 4250 2034 4250 
Q 1625 4250 1398 4047 
Q 1172 3844 1172 3481 
z
" transform="scale(0.015625)"/>
      </defs>
      <use xlink:href="#DejaVuSans-Oblique-66" transform="translate(0 0.015625)"/>
      <use xlink:href="#DejaVuSans-Oblique-54" transform="translate(35.205078 -16.390625) scale(0.7)"/>
      <use xlink:href="#DejaVuSans-Oblique-58" transform="translate(77.963867 -16.390625) scale(0.7)"/>
      <use xlink:href="#DejaVuSans-31" transform="translate(125.917969 -16.390625) scale(0.7)"/>
      <use xlink:href="#DejaVuSans-3a" transform="translate(192.670898 0.015625)"/>
      <use xlink:href="#DejaVuSans-Oblique-56" transform="translate(245.844727 0.015625)"/>
      <use xlink:href="#DejaVuSans-Oblique-44" transform="translate(314.25293 -16.390625) scale(0.7)"/>
      <use xlink:href="#DejaVuSans-20" transform="translate(370.888672 0.015625)"/>
      <use xlink:href="#DejaVuSans-3d" transform="translate(402.675781 0.015625)"/>
      <use xlink:href="#DejaVuSans-20" transform="translate(486.464844 0.015625)"/>
      <use xlink:href="#DejaVuSans-20" transform="translate(518.251953 0.015625)"/>
      <use xlink:href="#DejaVuSans-38" transform="translate(550.039062 0.015625)"/>
      <use xlink:href="#DejaVuSans-2e" transform="translate(613.662109 0.015625)"/>
      <use xlink:href="#DejaVuSans-30" transform="translate(645.449219 0.015625)"/>
      <use xlink:href="#DejaVuSans-65" transform="translate(709.072266 0.015625)"/>
      <use xlink:href="#DejaVuSans-2d" transform="translate(770.595703 0.015625)"/>
      <use xlink:href="#DejaVuSans-30" transform="translate(806.679688 0.015625)"/>
      <use xlink:href="#DejaVuSans-31" transform="translate(870.302734 0.015625)"/>
     </g>
    </g>
    <g id="line2d_48">
     <path d="M 356.36 249.649375 
L 361.36 249.649375 
L 366.36 249.649375 
" style="fill: none; stroke: #bfbf00; stroke-width: 2; stroke-linecap: square"/>
    </g>
    <g id="text_25">
     <!-- $f_{T X1}: V_{D}$ =  1.0e+00 -->
     <g transform="translate(368.36 253.149375) scale(0.12 -0.12)">
      <defs>
       <path id="DejaVuSans-2b" d="M 2944 4013 
L 2944 2272 
L 4684 2272 
L 4684 1741 
L 2944 1741 
L 2944 0 
L 2419 0 
L 2419 1741 
L 678 1741 
L 678 2272 
L 2419 2272 
L 2419 4013 
L 2944 4013 
z
" transform="scale(0.015625)"/>
      </defs>
      <use xlink:href="#DejaVuSans-Oblique-66" transform="translate(0 0.015625)"/>
      <use xlink:href="#DejaVuSans-Oblique-54" transform="translate(35.205078 -16.390625) scale(0.7)"/>
      <use xlink:href="#DejaVuSans-Oblique-58" transform="translate(77.963867 -16.390625) scale(0.7)"/>
      <use xlink:href="#DejaVuSans-31" transform="translate(125.917969 -16.390625) scale(0.7)"/>
      <use xlink:href="#DejaVuSans-3a" transform="translate(192.670898 0.015625)"/>
      <use xlink:href="#DejaVuSans-Oblique-56" transform="translate(245.844727 0.015625)"/>
      <use xlink:href="#DejaVuSans-Oblique-44" transform="translate(314.25293 -16.390625) scale(0.7)"/>
      <use xlink:href="#DejaVuSans-20" transform="translate(370.888672 0.015625)"/>
      <use xlink:href="#DejaVuSans-3d" transform="translate(402.675781 0.015625)"/>
      <use xlink:href="#DejaVuSans-20" transform="translate(486.464844 0.015625)"/>
      <use xlink:href="#DejaVuSans-20" transform="translate(518.251953 0.015625)"/>
      <use xlink:href="#DejaVuSans-31" transform="translate(550.039062 0.015625)"/>
      <use xlink:href="#DejaVuSans-2e" transform="translate(613.662109 0.015625)"/>
      <use xlink:href="#DejaVuSans-30" transform="translate(645.449219 0.015625)"/>
      <use xlink:href="#DejaVuSans-65" transform="translate(709.072266 0.015625)"/>
      <use xlink:href="#DejaVuSans-2b" transform="translate(770.595703 0.015625)"/>
      <use xlink:href="#DejaVuSans-30" transform="translate(854.384766 0.015625)"/>
      <use xlink:href="#DejaVuSans-30" transform="translate(918.007812 0.015625)"/>
     </g>
    </g>
    <g id="line2d_49">
     <path d="M 356.36 261.263125 
L 361.36 261.263125 
L 366.36 261.263125 
" style="fill: none; stroke: #000000; stroke-width: 2; stroke-linecap: square"/>
    </g>
    <g id="text_26">
     <!-- $f_{T X1}: V_{D}$ =  1.2e+00 -->
     <g transform="translate(368.36 264.763125) scale(0.12 -0.12)">
      <use xlink:href="#DejaVuSans-Oblique-66" transform="translate(0 0.015625)"/>
      <use xlink:href="#DejaVuSans-Oblique-54" transform="translate(35.205078 -16.390625) scale(0.7)"/>
      <use xlink:href="#DejaVuSans-Oblique-58" transform="translate(77.963867 -16.390625) scale(0.7)"/>
      <use xlink:href="#DejaVuSans-31" transform="translate(125.917969 -16.390625) scale(0.7)"/>
      <use xlink:href="#DejaVuSans-3a" transform="translate(192.670898 0.015625)"/>
      <use xlink:href="#DejaVuSans-Oblique-56" transform="translate(245.844727 0.015625)"/>
      <use xlink:href="#DejaVuSans-Oblique-44" transform="translate(314.25293 -16.390625) scale(0.7)"/>
      <use xlink:href="#DejaVuSans-20" transform="translate(370.888672 0.015625)"/>
      <use xlink:href="#DejaVuSans-3d" transform="translate(402.675781 0.015625)"/>
      <use xlink:href="#DejaVuSans-20" transform="translate(486.464844 0.015625)"/>
      <use xlink:href="#DejaVuSans-20" transform="translate(518.251953 0.015625)"/>
      <use xlink:href="#DejaVuSans-31" transform="translate(550.039062 0.015625)"/>
      <use xlink:href="#DejaVuSans-2e" transform="translate(613.662109 0.015625)"/>
      <use xlink:href="#DejaVuSans-32" transform="translate(639.949219 0.015625)"/>
      <use xlink:href="#DejaVuSans-65" transform="translate(703.572266 0.015625)"/>
      <use xlink:href="#DejaVuSans-2b" transform="translate(765.095703 0.015625)"/>
      <use xlink:href="#DejaVuSans-30" transform="translate(848.884766 0.015625)"/>
      <use xlink:href="#DejaVuSans-30" transform="translate(912.507812 0.015625)"/>
     </g>
    </g>
    <g id="line2d_50">
     <path d="M 356.36 272.876875 
L 361.36 272.876875 
L 366.36 272.876875 
" style="fill: none; stroke: #ff0000; stroke-width: 2; stroke-linecap: square"/>
    </g>
    <g id="text_27">
     <!-- $f_{T X1}: V_{D}$ =  1.4e+00 -->
     <g transform="translate(368.36 276.376875) scale(0.12 -0.12)">
      <use xlink:href="#DejaVuSans-Oblique-66" transform="translate(0 0.015625)"/>
      <use xlink:href="#DejaVuSans-Oblique-54" transform="translate(35.205078 -16.390625) scale(0.7)"/>
      <use xlink:href="#DejaVuSans-Oblique-58" transform="translate(77.963867 -16.390625) scale(0.7)"/>
      <use xlink:href="#DejaVuSans-31" transform="translate(125.917969 -16.390625) scale(0.7)"/>
      <use xlink:href="#DejaVuSans-3a" transform="translate(192.670898 0.015625)"/>
      <use xlink:href="#DejaVuSans-Oblique-56" transform="translate(245.844727 0.015625)"/>
      <use xlink:href="#DejaVuSans-Oblique-44" transform="translate(314.25293 -16.390625) scale(0.7)"/>
      <use xlink:href="#DejaVuSans-20" transform="translate(370.888672 0.015625)"/>
      <use xlink:href="#DejaVuSans-3d" transform="translate(402.675781 0.015625)"/>
      <use xlink:href="#DejaVuSans-20" transform="translate(486.464844 0.015625)"/>
      <use xlink:href="#DejaVuSans-20" transform="translate(518.251953 0.015625)"/>
      <use xlink:href="#DejaVuSans-31" transform="translate(550.039062 0.015625)"/>
      <use xlink:href="#DejaVuSans-2e" transform="translate(613.662109 0.015625)"/>
      <use xlink:href="#DejaVuSans-34" transform="translate(645.449219 0.015625)"/>
      <use xlink:href="#DejaVuSans-65" transform="translate(709.072266 0.015625)"/>
      <use xlink:href="#DejaVuSans-2b" transform="translate(770.595703 0.015625)"/>
      <use xlink:href="#DejaVuSans-30" transform="translate(854.384766 0.015625)"/>
      <use xlink:href="#DejaVuSans-30" transform="translate(918.007812 0.015625)"/>
     </g>
    </g>
    <g id="line2d_51">
     <path d="M 356.36 284.490625 
L 361.36 284.490625 
L 366.36 284.490625 
" style="fill: none; stroke: #0000ff; stroke-width: 2; stroke-linecap: square"/>
    </g>
    <g id="text_28">
     <!-- $f_{T X1}: V_{D}$ =  1.6e+00 -->
     <g transform="translate(368.36 287.990625) scale(0.12 -0.12)">
      <use xlink:href="#DejaVuSans-Oblique-66" transform="translate(0 0.015625)"/>
      <use xlink:href="#DejaVuSans-Oblique-54" transform="translate(35.205078 -16.390625) scale(0.7)"/>
      <use xlink:href="#DejaVuSans-Oblique-58" transform="translate(77.963867 -16.390625) scale(0.7)"/>
      <use xlink:href="#DejaVuSans-31" transform="translate(125.917969 -16.390625) scale(0.7)"/>
      <use xlink:href="#DejaVuSans-3a" transform="translate(192.670898 0.015625)"/>
      <use xlink:href="#DejaVuSans-Oblique-56" transform="translate(245.844727 0.015625)"/>
      <use xlink:href="#DejaVuSans-Oblique-44" transform="translate(314.25293 -16.390625) scale(0.7)"/>
      <use xlink:href="#DejaVuSans-20" transform="translate(370.888672 0.015625)"/>
      <use xlink:href="#DejaVuSans-3d" transform="translate(402.675781 0.015625)"/>
      <use xlink:href="#DejaVuSans-20" transform="translate(486.464844 0.015625)"/>
      <use xlink:href="#DejaVuSans-20" transform="translate(518.251953 0.015625)"/>
      <use xlink:href="#DejaVuSans-31" transform="translate(550.039062 0.015625)"/>
      <use xlink:href="#DejaVuSans-2e" transform="translate(613.662109 0.015625)"/>
      <use xlink:href="#DejaVuSans-36" transform="translate(645.449219 0.015625)"/>
      <use xlink:href="#DejaVuSans-65" transform="translate(709.072266 0.015625)"/>
      <use xlink:href="#DejaVuSans-2b" transform="translate(770.595703 0.015625)"/>
      <use xlink:href="#DejaVuSans-30" transform="translate(854.384766 0.015625)"/>
      <use xlink:href="#DejaVuSans-30" transform="translate(918.007812 0.015625)"/>
     </g>
    </g>
    <g id="line2d_52">
     <path d="M 356.36 296.104375 
L 361.36 296.104375 
L 366.36 296.104375 
" style="fill: none; stroke: #008000; stroke-width: 2; stroke-linecap: square"/>
    </g>
    <g id="text_29">
     <!-- $f_{T X1}: V_{D}$ =  1.8e+00 -->
     <g transform="translate(368.36 299.604375) scale(0.12 -0.12)">
      <use xlink:href="#DejaVuSans-Oblique-66" transform="translate(0 0.015625)"/>
      <use xlink:href="#DejaVuSans-Oblique-54" transform="translate(35.205078 -16.390625) scale(0.7)"/>
      <use xlink:href="#DejaVuSans-Oblique-58" transform="translate(77.963867 -16.390625) scale(0.7)"/>
      <use xlink:href="#DejaVuSans-31" transform="translate(125.917969 -16.390625) scale(0.7)"/>
      <use xlink:href="#DejaVuSans-3a" transform="translate(192.670898 0.015625)"/>
      <use xlink:href="#DejaVuSans-Oblique-56" transform="translate(245.844727 0.015625)"/>
      <use xlink:href="#DejaVuSans-Oblique-44" transform="translate(314.25293 -16.390625) scale(0.7)"/>
      <use xlink:href="#DejaVuSans-20" transform="translate(370.888672 0.015625)"/>
      <use xlink:href="#DejaVuSans-3d" transform="translate(402.675781 0.015625)"/>
      <use xlink:href="#DejaVuSans-20" transform="translate(486.464844 0.015625)"/>
      <use xlink:href="#DejaVuSans-20" transform="translate(518.251953 0.015625)"/>
      <use xlink:href="#DejaVuSans-31" transform="translate(550.039062 0.015625)"/>
      <use xlink:href="#DejaVuSans-2e" transform="translate(613.662109 0.015625)"/>
      <use xlink:href="#DejaVuSans-38" transform="translate(642.824219 0.015625)"/>
      <use xlink:href="#DejaVuSans-65" transform="translate(706.447266 0.015625)"/>
      <use xlink:href="#DejaVuSans-2b" transform="translate(767.970703 0.015625)"/>
      <use xlink:href="#DejaVuSans-30" transform="translate(851.759766 0.015625)"/>
      <use xlink:href="#DejaVuSans-30" transform="translate(915.382812 0.015625)"/>
     </g>
    </g>
   </g>
  </g>
 </g>
 <defs>
  <clipPath id="pc61cf3432d">
   <rect x="53.025" y="28.8" width="440.175" height="280.3"/>
  </clipPath>
 </defs>
</svg>
