<?xml version="1.0" encoding="utf-8" standalone="no"?>
<!DOCTYPE svg PUBLIC "-//W3C//DTD SVG 1.1//EN"
  "http://www.w3.org/Graphics/SVG/1.1/DTD/svg11.dtd">
<svg xmlns:xlink="http://www.w3.org/1999/xlink" width="504pt" height="360pt" viewBox="0 0 504 360" xmlns="http://www.w3.org/2000/svg" version="1.1">
 <metadata>
  <rdf:RDF xmlns:dc="http://purl.org/dc/elements/1.1/" xmlns:cc="http://creativecommons.org/ns#" xmlns:rdf="http://www.w3.org/1999/02/22-rdf-syntax-ns#">
   <cc:Work>
    <dc:type rdf:resource="http://purl.org/dc/dcmitype/StillImage"/>
    <dc:date>2024-11-18T11:14:05.938837</dc:date>
    <dc:format>image/svg+xml</dc:format>
    <dc:creator>
     <cc:Agent>
      <dc:title>Matplotlib v3.9.2, https://matplotlib.org/</dc:title>
     </cc:Agent>
    </dc:creator>
   </cc:Work>
  </rdf:RDF>
 </metadata>
 <defs>
  <style type="text/css">*{stroke-linejoin: round; stroke-linecap: butt}</style>
 </defs>
 <g id="figure_1">
  <g id="patch_1">
   <path d="M 0 360 
L 504 360 
L 504 0 
L 0 0 
z
" style="fill: #ffffff"/>
  </g>
  <g id="axes_1">
   <g id="patch_2">
    <path d="M 60.65 309.1 
L 493.2 309.1 
L 493.2 28.8 
L 60.65 28.8 
z
" style="fill: #ffffff"/>
   </g>
   <g id="matplotlib.axis_1">
    <g id="xtick_1">
     <g id="line2d_1">
      <path d="M 80.311364 309.1 
L 80.311364 28.8 
" clip-path="url(#p2d19cd36c9)" style="fill: none; stroke: #808080; stroke-width: 0.8; stroke-linecap: square"/>
     </g>
     <g id="line2d_2">
      <defs>
       <path id="md246c5c842" d="M 0 0 
L 0 3.5 
" style="stroke: #000000; stroke-width: 0.8"/>
      </defs>
      <g>
       <use xlink:href="#md246c5c842" x="80.311364" y="309.1" style="stroke: #000000; stroke-width: 0.8"/>
      </g>
     </g>
     <g id="text_1">
      <!-- 0.00 -->
      <g transform="translate(66.951989 325.218125) scale(0.12 -0.12)">
       <defs>
        <path id="DejaVuSans-30" d="M 2034 4250 
Q 1547 4250 1301 3770 
Q 1056 3291 1056 2328 
Q 1056 1369 1301 889 
Q 1547 409 2034 409 
Q 2525 409 2770 889 
Q 3016 1369 3016 2328 
Q 3016 3291 2770 3770 
Q 2525 4250 2034 4250 
z
M 2034 4750 
Q 2819 4750 3233 4129 
Q 3647 3509 3647 2328 
Q 3647 1150 3233 529 
Q 2819 -91 2034 -91 
Q 1250 -91 836 529 
Q 422 1150 422 2328 
Q 422 3509 836 4129 
Q 1250 4750 2034 4750 
z
" transform="scale(0.015625)"/>
        <path id="DejaVuSans-2e" d="M 684 794 
L 1344 794 
L 1344 0 
L 684 0 
L 684 794 
z
" transform="scale(0.015625)"/>
       </defs>
       <use xlink:href="#DejaVuSans-30"/>
       <use xlink:href="#DejaVuSans-2e" x="63.623047"/>
       <use xlink:href="#DejaVuSans-30" x="95.410156"/>
       <use xlink:href="#DejaVuSans-30" x="159.033203"/>
      </g>
     </g>
    </g>
    <g id="xtick_2">
     <g id="line2d_3">
      <path d="M 134.926263 309.1 
L 134.926263 28.8 
" clip-path="url(#p2d19cd36c9)" style="fill: none; stroke: #808080; stroke-width: 0.8; stroke-linecap: square"/>
     </g>
     <g id="line2d_4">
      <g>
       <use xlink:href="#md246c5c842" x="134.926263" y="309.1" style="stroke: #000000; stroke-width: 0.8"/>
      </g>
     </g>
     <g id="text_2">
      <!-- 0.25 -->
      <g transform="translate(121.566888 325.218125) scale(0.12 -0.12)">
       <defs>
        <path id="DejaVuSans-32" d="M 1228 531 
L 3431 531 
L 3431 0 
L 469 0 
L 469 531 
Q 828 903 1448 1529 
Q 2069 2156 2228 2338 
Q 2531 2678 2651 2914 
Q 2772 3150 2772 3378 
Q 2772 3750 2511 3984 
Q 2250 4219 1831 4219 
Q 1534 4219 1204 4116 
Q 875 4013 500 3803 
L 500 4441 
Q 881 4594 1212 4672 
Q 1544 4750 1819 4750 
Q 2544 4750 2975 4387 
Q 3406 4025 3406 3419 
Q 3406 3131 3298 2873 
Q 3191 2616 2906 2266 
Q 2828 2175 2409 1742 
Q 1991 1309 1228 531 
z
" transform="scale(0.015625)"/>
        <path id="DejaVuSans-35" d="M 691 4666 
L 3169 4666 
L 3169 4134 
L 1269 4134 
L 1269 2991 
Q 1406 3038 1543 3061 
Q 1681 3084 1819 3084 
Q 2600 3084 3056 2656 
Q 3513 2228 3513 1497 
Q 3513 744 3044 326 
Q 2575 -91 1722 -91 
Q 1428 -91 1123 -41 
Q 819 9 494 109 
L 494 744 
Q 775 591 1075 516 
Q 1375 441 1709 441 
Q 2250 441 2565 725 
Q 2881 1009 2881 1497 
Q 2881 1984 2565 2268 
Q 2250 2553 1709 2553 
Q 1456 2553 1204 2497 
Q 953 2441 691 2322 
L 691 4666 
z
" transform="scale(0.015625)"/>
       </defs>
       <use xlink:href="#DejaVuSans-30"/>
       <use xlink:href="#DejaVuSans-2e" x="63.623047"/>
       <use xlink:href="#DejaVuSans-32" x="95.410156"/>
       <use xlink:href="#DejaVuSans-35" x="159.033203"/>
      </g>
     </g>
    </g>
    <g id="xtick_3">
     <g id="line2d_5">
      <path d="M 189.541162 309.1 
L 189.541162 28.8 
" clip-path="url(#p2d19cd36c9)" style="fill: none; stroke: #808080; stroke-width: 0.8; stroke-linecap: square"/>
     </g>
     <g id="line2d_6">
      <g>
       <use xlink:href="#md246c5c842" x="189.541162" y="309.1" style="stroke: #000000; stroke-width: 0.8"/>
      </g>
     </g>
     <g id="text_3">
      <!-- 0.50 -->
      <g transform="translate(176.181787 325.218125) scale(0.12 -0.12)">
       <use xlink:href="#DejaVuSans-30"/>
       <use xlink:href="#DejaVuSans-2e" x="63.623047"/>
       <use xlink:href="#DejaVuSans-35" x="95.410156"/>
       <use xlink:href="#DejaVuSans-30" x="159.033203"/>
      </g>
     </g>
    </g>
    <g id="xtick_4">
     <g id="line2d_7">
      <path d="M 244.156061 309.1 
L 244.156061 28.8 
" clip-path="url(#p2d19cd36c9)" style="fill: none; stroke: #808080; stroke-width: 0.8; stroke-linecap: square"/>
     </g>
     <g id="line2d_8">
      <g>
       <use xlink:href="#md246c5c842" x="244.156061" y="309.1" style="stroke: #000000; stroke-width: 0.8"/>
      </g>
     </g>
     <g id="text_4">
      <!-- 0.75 -->
      <g transform="translate(230.796686 325.218125) scale(0.12 -0.12)">
       <defs>
        <path id="DejaVuSans-37" d="M 525 4666 
L 3525 4666 
L 3525 4397 
L 1831 0 
L 1172 0 
L 2766 4134 
L 525 4134 
L 525 4666 
z
" transform="scale(0.015625)"/>
       </defs>
       <use xlink:href="#DejaVuSans-30"/>
       <use xlink:href="#DejaVuSans-2e" x="63.623047"/>
       <use xlink:href="#DejaVuSans-37" x="95.410156"/>
       <use xlink:href="#DejaVuSans-35" x="159.033203"/>
      </g>
     </g>
    </g>
    <g id="xtick_5">
     <g id="line2d_9">
      <path d="M 298.77096 309.1 
L 298.77096 28.8 
" clip-path="url(#p2d19cd36c9)" style="fill: none; stroke: #808080; stroke-width: 0.8; stroke-linecap: square"/>
     </g>
     <g id="line2d_10">
      <g>
       <use xlink:href="#md246c5c842" x="298.77096" y="309.1" style="stroke: #000000; stroke-width: 0.8"/>
      </g>
     </g>
     <g id="text_5">
      <!-- 1.00 -->
      <g transform="translate(285.411585 325.218125) scale(0.12 -0.12)">
       <defs>
        <path id="DejaVuSans-31" d="M 794 531 
L 1825 531 
L 1825 4091 
L 703 3866 
L 703 4441 
L 1819 4666 
L 2450 4666 
L 2450 531 
L 3481 531 
L 3481 0 
L 794 0 
L 794 531 
z
" transform="scale(0.015625)"/>
       </defs>
       <use xlink:href="#DejaVuSans-31"/>
       <use xlink:href="#DejaVuSans-2e" x="63.623047"/>
       <use xlink:href="#DejaVuSans-30" x="95.410156"/>
       <use xlink:href="#DejaVuSans-30" x="159.033203"/>
      </g>
     </g>
    </g>
    <g id="xtick_6">
     <g id="line2d_11">
      <path d="M 353.385859 309.1 
L 353.385859 28.8 
" clip-path="url(#p2d19cd36c9)" style="fill: none; stroke: #808080; stroke-width: 0.8; stroke-linecap: square"/>
     </g>
     <g id="line2d_12">
      <g>
       <use xlink:href="#md246c5c842" x="353.385859" y="309.1" style="stroke: #000000; stroke-width: 0.8"/>
      </g>
     </g>
     <g id="text_6">
      <!-- 1.25 -->
      <g transform="translate(340.026484 325.218125) scale(0.12 -0.12)">
       <use xlink:href="#DejaVuSans-31"/>
       <use xlink:href="#DejaVuSans-2e" x="63.623047"/>
       <use xlink:href="#DejaVuSans-32" x="95.410156"/>
       <use xlink:href="#DejaVuSans-35" x="159.033203"/>
      </g>
     </g>
    </g>
    <g id="xtick_7">
     <g id="line2d_13">
      <path d="M 408.000758 309.1 
L 408.000758 28.8 
" clip-path="url(#p2d19cd36c9)" style="fill: none; stroke: #808080; stroke-width: 0.8; stroke-linecap: square"/>
     </g>
     <g id="line2d_14">
      <g>
       <use xlink:href="#md246c5c842" x="408.000758" y="309.1" style="stroke: #000000; stroke-width: 0.8"/>
      </g>
     </g>
     <g id="text_7">
      <!-- 1.50 -->
      <g transform="translate(394.641383 325.218125) scale(0.12 -0.12)">
       <use xlink:href="#DejaVuSans-31"/>
       <use xlink:href="#DejaVuSans-2e" x="63.623047"/>
       <use xlink:href="#DejaVuSans-35" x="95.410156"/>
       <use xlink:href="#DejaVuSans-30" x="159.033203"/>
      </g>
     </g>
    </g>
    <g id="xtick_8">
     <g id="line2d_15">
      <path d="M 462.615657 309.1 
L 462.615657 28.8 
" clip-path="url(#p2d19cd36c9)" style="fill: none; stroke: #808080; stroke-width: 0.8; stroke-linecap: square"/>
     </g>
     <g id="line2d_16">
      <g>
       <use xlink:href="#md246c5c842" x="462.615657" y="309.1" style="stroke: #000000; stroke-width: 0.8"/>
      </g>
     </g>
     <g id="text_8">
      <!-- 1.75 -->
      <g transform="translate(449.256282 325.218125) scale(0.12 -0.12)">
       <use xlink:href="#DejaVuSans-31"/>
       <use xlink:href="#DejaVuSans-2e" x="63.623047"/>
       <use xlink:href="#DejaVuSans-37" x="95.410156"/>
       <use xlink:href="#DejaVuSans-35" x="159.033203"/>
      </g>
     </g>
    </g>
    <g id="text_9">
     <!-- $V_{G}$ [V] -->
     <g transform="translate(258.685 340.831875) scale(0.12 -0.12)">
      <defs>
       <path id="DejaVuSans-Oblique-56" d="M 1319 0 
L 500 4666 
L 1119 4666 
L 1797 653 
L 4063 4666 
L 4750 4666 
L 2053 0 
L 1319 0 
z
" transform="scale(0.015625)"/>
       <path id="DejaVuSans-Oblique-47" d="M 3494 697 
L 3738 1919 
L 2700 1919 
L 2797 2438 
L 4453 2438 
L 4050 384 
Q 3634 156 3143 32 
Q 2653 -91 2156 -91 
Q 1278 -91 783 396 
Q 288 884 288 1753 
Q 288 2475 589 3126 
Q 891 3778 1422 4213 
Q 1756 4484 2153 4617 
Q 2550 4750 3034 4750 
Q 3472 4750 3873 4639 
Q 4275 4528 4641 4306 
L 4513 3634 
Q 4231 3928 3853 4083 
Q 3475 4238 3047 4238 
Q 2550 4238 2172 4048 
Q 1794 3859 1497 3463 
Q 1244 3125 1098 2667 
Q 953 2209 953 1734 
Q 953 1081 1287 751 
Q 1622 422 2284 422 
Q 2616 422 2925 492 
Q 3234 563 3494 697 
z
" transform="scale(0.015625)"/>
       <path id="DejaVuSans-20" transform="scale(0.015625)"/>
       <path id="DejaVuSans-5b" d="M 550 4863 
L 1875 4863 
L 1875 4416 
L 1125 4416 
L 1125 -397 
L 1875 -397 
L 1875 -844 
L 550 -844 
L 550 4863 
z
" transform="scale(0.015625)"/>
       <path id="DejaVuSans-56" d="M 1831 0 
L 50 4666 
L 709 4666 
L 2188 738 
L 3669 4666 
L 4325 4666 
L 2547 0 
L 1831 0 
z
" transform="scale(0.015625)"/>
       <path id="DejaVuSans-5d" d="M 1947 4863 
L 1947 -844 
L 622 -844 
L 622 -397 
L 1369 -397 
L 1369 4416 
L 622 4416 
L 622 4863 
L 1947 4863 
z
" transform="scale(0.015625)"/>
      </defs>
      <use xlink:href="#DejaVuSans-Oblique-56" transform="translate(0 0.015625)"/>
      <use xlink:href="#DejaVuSans-Oblique-47" transform="translate(68.408203 -16.390625) scale(0.7)"/>
      <use xlink:href="#DejaVuSans-20" transform="translate(125.385742 0.015625)"/>
      <use xlink:href="#DejaVuSans-5b" transform="translate(157.172852 0.015625)"/>
      <use xlink:href="#DejaVuSans-56" transform="translate(196.186523 0.015625)"/>
      <use xlink:href="#DejaVuSans-5d" transform="translate(264.594727 0.015625)"/>
     </g>
    </g>
   </g>
   <g id="matplotlib.axis_2">
    <g id="ytick_1">
     <g id="line2d_17">
      <path d="M 60.65 296.359092 
L 493.2 296.359092 
" clip-path="url(#p2d19cd36c9)" style="fill: none; stroke: #808080; stroke-width: 0.8; stroke-linecap: square"/>
     </g>
     <g id="line2d_18">
      <defs>
       <path id="m66f57c6ba1" d="M 0 0 
L -3.5 0 
" style="stroke: #000000; stroke-width: 0.8"/>
      </defs>
      <g>
       <use xlink:href="#m66f57c6ba1" x="60.65" y="296.359092" style="stroke: #000000; stroke-width: 0.8"/>
      </g>
     </g>
     <g id="text_10">
      <!-- 0 -->
      <g transform="translate(46.015 300.918155) scale(0.12 -0.12)">
       <use xlink:href="#DejaVuSans-30"/>
      </g>
     </g>
    </g>
    <g id="ytick_2">
     <g id="line2d_19">
      <path d="M 60.65 260.184349 
L 493.2 260.184349 
" clip-path="url(#p2d19cd36c9)" style="fill: none; stroke: #808080; stroke-width: 0.8; stroke-linecap: square"/>
     </g>
     <g id="line2d_20">
      <g>
       <use xlink:href="#m66f57c6ba1" x="60.65" y="260.184349" style="stroke: #000000; stroke-width: 0.8"/>
      </g>
     </g>
     <g id="text_11">
      <!-- 25 -->
      <g transform="translate(38.38 264.743412) scale(0.12 -0.12)">
       <use xlink:href="#DejaVuSans-32"/>
       <use xlink:href="#DejaVuSans-35" x="63.623047"/>
      </g>
     </g>
    </g>
    <g id="ytick_3">
     <g id="line2d_21">
      <path d="M 60.65 224.009607 
L 493.2 224.009607 
" clip-path="url(#p2d19cd36c9)" style="fill: none; stroke: #808080; stroke-width: 0.8; stroke-linecap: square"/>
     </g>
     <g id="line2d_22">
      <g>
       <use xlink:href="#m66f57c6ba1" x="60.65" y="224.009607" style="stroke: #000000; stroke-width: 0.8"/>
      </g>
     </g>
     <g id="text_12">
      <!-- 50 -->
      <g transform="translate(38.38 228.568669) scale(0.12 -0.12)">
       <use xlink:href="#DejaVuSans-35"/>
       <use xlink:href="#DejaVuSans-30" x="63.623047"/>
      </g>
     </g>
    </g>
    <g id="ytick_4">
     <g id="line2d_23">
      <path d="M 60.65 187.834864 
L 493.2 187.834864 
" clip-path="url(#p2d19cd36c9)" style="fill: none; stroke: #808080; stroke-width: 0.8; stroke-linecap: square"/>
     </g>
     <g id="line2d_24">
      <g>
       <use xlink:href="#m66f57c6ba1" x="60.65" y="187.834864" style="stroke: #000000; stroke-width: 0.8"/>
      </g>
     </g>
     <g id="text_13">
      <!-- 75 -->
      <g transform="translate(38.38 192.393926) scale(0.12 -0.12)">
       <use xlink:href="#DejaVuSans-37"/>
       <use xlink:href="#DejaVuSans-35" x="63.623047"/>
      </g>
     </g>
    </g>
    <g id="ytick_5">
     <g id="line2d_25">
      <path d="M 60.65 151.660121 
L 493.2 151.660121 
" clip-path="url(#p2d19cd36c9)" style="fill: none; stroke: #808080; stroke-width: 0.8; stroke-linecap: square"/>
     </g>
     <g id="line2d_26">
      <g>
       <use xlink:href="#m66f57c6ba1" x="60.65" y="151.660121" style="stroke: #000000; stroke-width: 0.8"/>
      </g>
     </g>
     <g id="text_14">
      <!-- 100 -->
      <g transform="translate(30.745 156.219183) scale(0.12 -0.12)">
       <use xlink:href="#DejaVuSans-31"/>
       <use xlink:href="#DejaVuSans-30" x="63.623047"/>
       <use xlink:href="#DejaVuSans-30" x="127.246094"/>
      </g>
     </g>
    </g>
    <g id="ytick_6">
     <g id="line2d_27">
      <path d="M 60.65 115.485378 
L 493.2 115.485378 
" clip-path="url(#p2d19cd36c9)" style="fill: none; stroke: #808080; stroke-width: 0.8; stroke-linecap: square"/>
     </g>
     <g id="line2d_28">
      <g>
       <use xlink:href="#m66f57c6ba1" x="60.65" y="115.485378" style="stroke: #000000; stroke-width: 0.8"/>
      </g>
     </g>
     <g id="text_15">
      <!-- 125 -->
      <g transform="translate(30.745 120.04444) scale(0.12 -0.12)">
       <use xlink:href="#DejaVuSans-31"/>
       <use xlink:href="#DejaVuSans-32" x="63.623047"/>
       <use xlink:href="#DejaVuSans-35" x="127.246094"/>
      </g>
     </g>
    </g>
    <g id="ytick_7">
     <g id="line2d_29">
      <path d="M 60.65 79.310635 
L 493.2 79.310635 
" clip-path="url(#p2d19cd36c9)" style="fill: none; stroke: #808080; stroke-width: 0.8; stroke-linecap: square"/>
     </g>
     <g id="line2d_30">
      <g>
       <use xlink:href="#m66f57c6ba1" x="60.65" y="79.310635" style="stroke: #000000; stroke-width: 0.8"/>
      </g>
     </g>
     <g id="text_16">
      <!-- 150 -->
      <g transform="translate(30.745 83.869697) scale(0.12 -0.12)">
       <use xlink:href="#DejaVuSans-31"/>
       <use xlink:href="#DejaVuSans-35" x="63.623047"/>
       <use xlink:href="#DejaVuSans-30" x="127.246094"/>
      </g>
     </g>
    </g>
    <g id="ytick_8">
     <g id="line2d_31">
      <path d="M 60.65 43.135892 
L 493.2 43.135892 
" clip-path="url(#p2d19cd36c9)" style="fill: none; stroke: #808080; stroke-width: 0.8; stroke-linecap: square"/>
     </g>
     <g id="line2d_32">
      <g>
       <use xlink:href="#m66f57c6ba1" x="60.65" y="43.135892" style="stroke: #000000; stroke-width: 0.8"/>
      </g>
     </g>
     <g id="text_17">
      <!-- 175 -->
      <g transform="translate(30.745 47.694954) scale(0.12 -0.12)">
       <use xlink:href="#DejaVuSans-31"/>
       <use xlink:href="#DejaVuSans-37" x="63.623047"/>
       <use xlink:href="#DejaVuSans-35" x="127.246094"/>
      </g>
     </g>
    </g>
    <g id="text_18">
     <!-- $I_{DS X1}\,$ [uA] -->
     <g transform="translate(24.249375 197.81) rotate(-90) scale(0.12 -0.12)">
      <defs>
       <path id="DejaVuSans-Oblique-49" d="M 1081 4666 
L 1716 4666 
L 806 0 
L 172 0 
L 1081 4666 
z
" transform="scale(0.015625)"/>
       <path id="DejaVuSans-Oblique-44" d="M 1081 4666 
L 2438 4666 
Q 3519 4666 4070 4208 
Q 4622 3750 4622 2847 
Q 4622 2250 4412 1698 
Q 4203 1147 3834 769 
Q 3463 381 2891 190 
Q 2319 0 1538 0 
L 172 0 
L 1081 4666 
z
M 1613 4147 
L 909 519 
L 1734 519 
Q 2794 519 3375 1128 
Q 3956 1738 3956 2847 
Q 3956 3519 3581 3833 
Q 3206 4147 2406 4147 
L 1613 4147 
z
" transform="scale(0.015625)"/>
       <path id="DejaVuSans-Oblique-53" d="M 3859 4513 
L 3738 3897 
Q 3422 4066 3111 4152 
Q 2800 4238 2509 4238 
Q 1944 4238 1609 3991 
Q 1275 3744 1275 3334 
Q 1275 3109 1398 2989 
Q 1522 2869 2034 2731 
L 2413 2638 
Q 3053 2472 3303 2217 
Q 3553 1963 3553 1503 
Q 3553 797 2998 353 
Q 2444 -91 1538 -91 
Q 1166 -91 791 -17 
Q 416 56 38 206 
L 166 856 
Q 513 641 861 531 
Q 1209 422 1556 422 
Q 2147 422 2503 684 
Q 2859 947 2859 1369 
Q 2859 1650 2717 1795 
Q 2575 1941 2106 2059 
L 1728 2156 
Q 1081 2325 845 2545 
Q 609 2766 609 3163 
Q 609 3859 1145 4304 
Q 1681 4750 2541 4750 
Q 2875 4750 3203 4690 
Q 3531 4631 3859 4513 
z
" transform="scale(0.015625)"/>
       <path id="DejaVuSans-Oblique-58" d="M 878 4666 
L 1516 4666 
L 2316 2981 
L 3763 4666 
L 4500 4666 
L 2578 2438 
L 3738 0 
L 3103 0 
L 2163 1966 
L 459 0 
L -275 0 
L 1906 2509 
L 878 4666 
z
" transform="scale(0.015625)"/>
       <path id="DejaVuSans-75" d="M 544 1381 
L 544 3500 
L 1119 3500 
L 1119 1403 
Q 1119 906 1312 657 
Q 1506 409 1894 409 
Q 2359 409 2629 706 
Q 2900 1003 2900 1516 
L 2900 3500 
L 3475 3500 
L 3475 0 
L 2900 0 
L 2900 538 
Q 2691 219 2414 64 
Q 2138 -91 1772 -91 
Q 1169 -91 856 284 
Q 544 659 544 1381 
z
M 1991 3584 
L 1991 3584 
z
" transform="scale(0.015625)"/>
       <path id="DejaVuSans-41" d="M 2188 4044 
L 1331 1722 
L 3047 1722 
L 2188 4044 
z
M 1831 4666 
L 2547 4666 
L 4325 0 
L 3669 0 
L 3244 1197 
L 1141 1197 
L 716 0 
L 50 0 
L 1831 4666 
z
" transform="scale(0.015625)"/>
      </defs>
      <use xlink:href="#DejaVuSans-Oblique-49" transform="translate(0 0.015625)"/>
      <use xlink:href="#DejaVuSans-Oblique-44" transform="translate(29.492188 -16.390625) scale(0.7)"/>
      <use xlink:href="#DejaVuSans-Oblique-53" transform="translate(83.393555 -16.390625) scale(0.7)"/>
      <use xlink:href="#DejaVuSans-Oblique-58" transform="translate(127.827148 -16.390625) scale(0.7)"/>
      <use xlink:href="#DejaVuSans-31" transform="translate(175.78125 -16.390625) scale(0.7)"/>
      <use xlink:href="#DejaVuSans-20" transform="translate(239.287434 0.015625)"/>
      <use xlink:href="#DejaVuSans-5b" transform="translate(271.074543 0.015625)"/>
      <use xlink:href="#DejaVuSans-75" transform="translate(310.088215 0.015625)"/>
      <use xlink:href="#DejaVuSans-41" transform="translate(373.467122 0.015625)"/>
      <use xlink:href="#DejaVuSans-5d" transform="translate(441.875325 0.015625)"/>
     </g>
    </g>
   </g>
   <g id="line2d_33">
    <path d="M 80.311364 296.359091 
L 88.33641 296.359088 
L 96.361456 296.359081 
L 104.386503 296.35906 
L 112.411549 296.359003 
L 120.436596 296.358848 
L 128.461642 296.358446 
L 136.486688 296.357461 
L 144.511735 296.355244 
L 152.536781 296.350808 
L 160.561827 296.343118 
L 168.586874 296.331725 
L 176.61192 296.317203 
L 184.636967 296.300874 
L 192.662013 296.284116 
L 200.687059 296.26789 
L 208.712106 296.252674 
L 216.737152 296.238604 
L 224.762199 296.225641 
L 232.787245 296.213674 
L 240.812291 296.202579 
L 248.837338 296.19224 
L 256.862384 296.182559 
L 264.88743 296.173454 
L 272.912477 296.164858 
L 280.937523 296.156715 
L 288.96257 296.148978 
L 296.987616 296.141606 
L 305.012662 296.134567 
L 313.037709 296.12783 
L 321.062755 296.121368 
L 329.087801 296.11516 
L 337.112848 296.109183 
L 345.137894 296.10342 
L 353.162941 296.097853 
L 361.187987 296.092469 
L 369.213033 296.087253 
L 377.23808 296.082192 
L 385.263126 296.077276 
L 393.288173 296.072494 
L 401.313219 296.067838 
L 409.338265 296.063297 
L 417.363312 296.058865 
L 425.388358 296.054534 
L 433.413404 296.050297 
L 441.438451 296.046149 
L 449.463497 296.042084 
L 457.488544 296.038096 
L 465.51359 296.034181 
L 473.538636 296.030335 
" clip-path="url(#p2d19cd36c9)" style="fill: none; stroke: #ff0000; stroke-width: 2; stroke-linecap: square"/>
   </g>
   <g id="line2d_34">
    <path d="M 80.311364 296.359054 
L 88.33641 296.358983 
L 96.361456 296.358782 
L 104.386503 296.358215 
L 112.411549 296.356628 
L 120.436596 296.352263 
L 128.461642 296.340557 
L 136.486688 296.3104 
L 144.511735 296.237175 
L 152.536781 296.07329 
L 160.561827 295.742216 
L 168.586874 295.146367 
L 176.61192 294.191635 
L 184.636967 292.814722 
L 192.662013 290.996568 
L 200.687059 288.761143 
L 208.712106 286.170215 
L 216.737152 283.31961 
L 224.762199 280.33083 
L 232.787245 277.330181 
L 240.812291 274.421444 
L 248.837338 271.66894 
L 256.862384 269.0987 
L 264.88743 266.710566 
L 272.912477 264.491049 
L 280.937523 262.422119 
L 288.96257 260.485794 
L 296.987616 258.666002 
L 305.012662 256.949013 
L 313.037709 255.323288 
L 321.062755 253.779129 
L 329.087801 252.308331 
L 337.112848 250.903878 
L 345.137894 249.559702 
L 353.162941 248.270504 
L 361.187987 247.031612 
L 369.213033 245.838879 
L 377.23808 244.688596 
L 385.263126 243.577435 
L 393.288173 242.502395 
L 401.313219 241.460758 
L 409.338265 240.450062 
L 417.363312 239.468064 
L 425.388358 238.51272 
L 433.413404 237.582166 
L 441.438451 236.674693 
L 449.463497 235.788736 
L 457.488544 234.92286 
L 465.51359 234.075743 
L 473.538636 233.246172 
" clip-path="url(#p2d19cd36c9)" style="fill: none; stroke: #0000ff; stroke-width: 2; stroke-linecap: square"/>
   </g>
   <g id="line2d_35">
    <path d="M 80.311364 296.359053 
L 88.33641 296.35898 
L 96.361456 296.358774 
L 104.386503 296.358191 
L 112.411549 296.356561 
L 120.436596 296.352075 
L 128.461642 296.340047 
L 136.486688 296.30906 
L 144.511735 296.233812 
L 152.536781 296.065369 
L 160.561827 295.724983 
L 168.586874 295.111999 
L 176.61192 294.128595 
L 184.636967 292.706668 
L 192.662013 290.818898 
L 200.687059 288.472025 
L 208.712106 285.692875 
L 216.737152 282.516332 
L 224.762199 278.97817 
L 232.787245 275.112011 
L 240.812291 270.949089 
L 248.837338 266.520239 
L 256.862384 261.860488 
L 264.88743 257.016807 
L 272.912477 252.057229 
L 280.937523 247.074258 
L 288.96257 242.173614 
L 296.987616 237.449999 
L 305.012662 232.965903 
L 313.037709 228.746707 
L 321.062755 224.789654 
L 329.087801 221.076565 
L 337.112848 217.58362 
L 345.137894 214.286848 
L 353.162941 211.164497 
L 361.187987 208.197681 
L 369.213033 205.370259 
L 377.23808 202.668455 
L 385.263126 200.080436 
L 393.288173 197.595957 
L 401.313219 195.206058 
L 409.338265 192.902835 
L 417.363312 190.679269 
L 425.388358 188.529077 
L 433.413404 186.446617 
L 441.438451 184.42679 
L 449.463497 182.464981 
L 457.488544 180.556993 
L 465.51359 178.699006 
L 473.538636 176.887529 
" clip-path="url(#p2d19cd36c9)" style="fill: none; stroke: #008000; stroke-width: 2; stroke-linecap: square"/>
   </g>
   <g id="line2d_36">
    <path d="M 80.311364 296.359052 
L 88.33641 296.358977 
L 96.361456 296.358766 
L 104.386503 296.358167 
L 112.411549 296.356494 
L 120.436596 296.351891 
L 128.461642 296.339547 
L 136.486688 296.307745 
L 144.511735 296.230517 
L 152.536781 296.057645 
L 160.561827 295.708306 
L 168.586874 295.079201 
L 176.61192 294.069935 
L 184.636967 292.610609 
L 192.662013 290.673182 
L 200.687059 288.264559 
L 208.712106 285.412233 
L 216.737152 282.151901 
L 224.762199 278.519983 
L 232.787245 274.550176 
L 240.812291 270.27238 
L 248.837338 265.712722 
L 256.862384 260.894008 
L 264.88743 255.836254 
L 272.912477 250.557194 
L 280.937523 245.072754 
L 288.96257 239.397588 
L 296.987616 233.545897 
L 305.012662 227.533043 
L 313.037709 221.37887 
L 321.062755 215.113811 
L 329.087801 208.787398 
L 337.112848 202.474255 
L 345.137894 196.268465 
L 353.162941 190.262978 
L 361.187987 184.52582 
L 369.213033 179.08925 
L 377.23808 173.954753 
L 385.263126 169.105096 
L 393.288173 164.515111 
L 401.313219 160.158359 
L 409.338265 156.010272 
L 417.363312 152.049203 
L 425.388358 148.256461 
L 433.413404 144.615975 
L 441.438451 141.113864 
L 449.463497 137.73805 
L 457.488544 134.47793 
L 465.51359 131.324119 
L 473.538636 128.268253 
" clip-path="url(#p2d19cd36c9)" style="fill: none; stroke: #00bfbf; stroke-width: 2; stroke-linecap: square"/>
   </g>
   <g id="line2d_37">
    <path d="M 80.311364 296.359051 
L 88.33641 296.358974 
L 96.361456 296.358757 
L 104.386503 296.358143 
L 112.411549 296.356427 
L 120.436596 296.351706 
L 128.461642 296.339046 
L 136.486688 296.306429 
L 144.511735 296.227222 
L 152.536781 296.04992 
L 160.561827 295.69163 
L 168.586874 295.046405 
L 176.61192 294.011276 
L 184.636967 292.514556 
L 192.662013 290.527483 
L 200.687059 288.05714 
L 208.712106 285.131724 
L 216.737152 281.787847 
L 224.762199 278.062862 
L 232.787245 273.99133 
L 240.812291 269.603915 
L 248.837338 264.92741 
L 256.862384 259.985198 
L 264.88743 254.797781 
L 272.912477 249.383277 
L 280.937523 243.75782 
L 288.96257 237.935886 
L 296.987616 231.930542 
L 305.012662 225.753653 
L 313.037709 219.416034 
L 321.062755 212.927594 
L 329.087801 206.297457 
L 337.112848 199.534106 
L 345.137894 192.64561 
L 353.162941 185.64009 
L 361.187987 178.52679 
L 369.213033 171.318488 
L 377.23808 164.036312 
L 385.263126 156.71737 
L 393.288173 149.42225 
L 401.313219 142.234361 
L 409.338265 135.244408 
L 417.363312 128.526367 
L 425.388358 122.121438 
L 433.413404 116.038191 
L 441.438451 110.263009 
L 449.463497 104.771528 
L 457.488544 99.536507 
L 465.51359 94.53189 
L 473.538636 89.734364 
" clip-path="url(#p2d19cd36c9)" style="fill: none; stroke: #bf00bf; stroke-width: 2; stroke-linecap: square"/>
   </g>
   <g id="line2d_38">
    <path d="M 80.311364 296.35905 
L 88.33641 296.358972 
L 96.361456 296.358749 
L 104.386503 296.35812 
L 112.411549 296.356361 
L 120.436596 296.351521 
L 128.461642 296.338545 
L 136.486688 296.305113 
L 144.511735 296.223927 
L 152.536781 296.042196 
L 160.561827 295.674954 
L 168.586874 295.013608 
L 176.61192 293.952617 
L 184.636967 292.418502 
L 192.662013 290.381784 
L 200.687059 287.849721 
L 208.712106 284.851215 
L 216.737152 281.423794 
L 224.762199 277.605742 
L 232.787245 273.432486 
L 240.812291 268.935453 
L 248.837338 264.142109 
L 256.862384 259.076418 
L 264.88743 253.759398 
L 272.912477 248.209615 
L 280.937523 242.44361 
L 288.96257 236.476217 
L 296.987616 230.320833 
L 305.012662 223.989612 
L 313.037709 217.493638 
L 321.062755 210.843048 
L 329.087801 204.047146 
L 337.112848 197.114491 
L 345.137894 190.052977 
L 353.162941 182.869894 
L 361.187987 175.571992 
L 369.213033 168.165533 
L 377.23808 160.656336 
L 385.263126 153.049834 
L 393.288173 145.351145 
L 401.313219 137.565209 
L 409.338265 129.697093 
L 417.363312 121.752736 
L 425.388358 113.740701 
L 433.413404 105.675899 
L 441.438451 97.586102 
L 449.463497 89.519888 
L 457.488544 81.549774 
L 465.51359 73.76226 
L 473.538636 66.235752 
" clip-path="url(#p2d19cd36c9)" style="fill: none; stroke: #bfbf00; stroke-width: 2; stroke-linecap: square"/>
   </g>
   <g id="line2d_39">
    <path d="M 80.311364 296.359049 
L 88.33641 296.358969 
L 96.361456 296.35874 
L 104.386503 296.358096 
L 112.411549 296.356294 
L 120.436596 296.351337 
L 128.461642 296.338044 
L 136.486688 296.303797 
L 144.511735 296.220633 
L 152.536781 296.034471 
L 160.561827 295.658278 
L 168.586874 294.980811 
L 176.61192 293.893959 
L 184.636967 292.322449 
L 192.662013 290.236085 
L 200.687059 287.642301 
L 208.712106 284.570706 
L 216.737152 281.059741 
L 224.762199 277.148623 
L 232.787245 272.873641 
L 240.812291 268.266992 
L 248.837338 263.356808 
L 256.862384 258.167639 
L 264.88743 252.721014 
L 272.912477 247.035954 
L 280.937523 241.1294 
L 288.96257 235.01655 
L 296.987616 228.711125 
L 305.012662 222.225579 
L 313.037709 215.571263 
L 321.062755 208.758562 
L 329.087801 201.797008 
L 337.112848 194.695367 
L 345.137894 187.461725 
L 353.162941 180.10355 
L 361.187987 172.627757 
L 369.213033 165.040753 
L 377.23808 157.348489 
L 385.263126 149.556498 
L 393.288173 141.66993 
L 401.313219 133.69359 
L 409.338265 125.631957 
L 417.363312 117.489224 
L 425.388358 109.26931 
L 433.413404 100.975894 
L 441.438451 92.612438 
L 449.463497 84.182233 
L 457.488544 75.688483 
L 465.51359 67.134516 
L 473.538636 58.524295 
" clip-path="url(#p2d19cd36c9)" style="fill: none; stroke: #000000; stroke-width: 2; stroke-linecap: square"/>
   </g>
   <g id="line2d_40">
    <path d="M 80.311364 296.359048 
L 88.33641 296.358966 
L 96.361456 296.358732 
L 104.386503 296.358072 
L 112.411549 296.356228 
L 120.436596 296.351152 
L 128.461642 296.337543 
L 136.486688 296.302482 
L 144.511735 296.217338 
L 152.536781 296.026747 
L 160.561827 295.641602 
L 168.586874 294.948014 
L 176.61192 293.8353 
L 184.636967 292.226396 
L 192.662013 290.090386 
L 200.687059 287.434882 
L 208.712106 284.290198 
L 216.737152 280.695687 
L 224.762199 276.691503 
L 232.787245 272.314797 
L 240.812291 267.59853 
L 248.837338 262.571507 
L 256.862384 257.25886 
L 264.88743 251.682631 
L 272.912477 245.862293 
L 280.937523 239.81519 
L 288.96257 233.556883 
L 296.987616 227.101418 
L 305.012662 220.461546 
L 313.037709 213.648888 
L 321.062755 206.674077 
L 329.087801 199.54687 
L 337.112848 192.276243 
L 345.137894 184.870474 
L 353.162941 177.337209 
L 361.187987 169.683526 
L 369.213033 161.915986 
L 377.23808 154.040682 
L 385.263126 146.063278 
L 393.288173 137.989047 
L 401.313219 129.822906 
L 409.338265 121.569444 
L 417.363312 113.232949 
L 425.388358 104.817433 
L 433.413404 96.326653 
L 441.438451 87.764134 
L 449.463497 79.133181 
L 457.488544 70.4369 
L 465.51359 61.678214 
L 473.538636 52.859872 
" clip-path="url(#p2d19cd36c9)" style="fill: none; stroke: #ff0000; stroke-width: 2; stroke-linecap: square"/>
   </g>
   <g id="line2d_41">
    <path d="M 80.311364 296.359047 
L 88.33641 296.358963 
L 96.361456 296.358724 
L 104.386503 296.358049 
L 112.411549 296.356161 
L 120.436596 296.350968 
L 128.461642 296.337042 
L 136.486688 296.301166 
L 144.511735 296.214043 
L 152.536781 296.019022 
L 160.561827 295.624926 
L 168.586874 294.915218 
L 176.61192 293.776641 
L 184.636967 292.130342 
L 192.662013 289.944687 
L 200.687059 287.227463 
L 208.712106 284.009689 
L 216.737152 280.331634 
L 224.762199 276.234383 
L 232.787245 271.755952 
L 240.812291 266.930069 
L 248.837338 261.786206 
L 256.862384 256.350081 
L 264.88743 250.644247 
L 272.912477 244.688631 
L 280.937523 238.50098 
L 288.96257 232.097215 
L 296.987616 225.491711 
L 305.012662 218.697513 
L 313.037709 211.726513 
L 321.062755 204.589591 
L 329.087801 197.296732 
L 337.112848 189.857119 
L 345.137894 182.279222 
L 353.162941 174.570867 
L 361.187987 166.739295 
L 369.213033 158.79122 
L 377.23808 150.732876 
L 385.263126 142.570059 
L 393.288173 134.308164 
L 401.313219 125.952223 
L 409.338265 117.506932 
L 417.363312 108.976677 
L 425.388358 100.365565 
L 433.413404 91.677441 
L 441.438451 82.915909 
L 449.463497 74.084352 
L 457.488544 65.18595 
L 465.51359 56.223691 
L 473.538636 47.200389 
" clip-path="url(#p2d19cd36c9)" style="fill: none; stroke: #0000ff; stroke-width: 2; stroke-linecap: square"/>
   </g>
   <g id="line2d_42">
    <path d="M 80.311364 296.359046 
L 88.33641 296.35896 
L 96.361456 296.358715 
L 104.386503 296.358025 
L 112.411549 296.356095 
L 120.436596 296.350783 
L 128.461642 296.336541 
L 136.486688 296.29985 
L 144.511735 296.210749 
L 152.536781 296.011298 
L 160.561827 295.60825 
L 168.586874 294.882421 
L 176.61192 293.717982 
L 184.636967 292.034289 
L 192.662013 289.798988 
L 200.687059 287.020044 
L 208.712106 283.72918 
L 216.737152 279.96758 
L 224.762199 275.777263 
L 232.787245 271.197107 
L 240.812291 266.261607 
L 248.837338 261.000905 
L 256.862384 255.441302 
L 264.88743 249.605864 
L 272.912477 243.51497 
L 280.937523 237.18677 
L 288.96257 230.637548 
L 296.987616 223.882004 
L 305.012662 216.93348 
L 313.037709 209.804138 
L 321.062755 202.505106 
L 329.087801 195.046594 
L 337.112848 187.437995 
L 345.137894 179.687971 
L 353.162941 171.804526 
L 361.187987 163.795064 
L 369.213033 155.666454 
L 377.23808 147.42507 
L 385.263126 139.076839 
L 393.288173 130.627281 
L 401.313219 122.08154 
L 409.338265 113.444419 
L 417.363312 104.720406 
L 425.388358 95.913698 
L 433.413404 87.028228 
L 441.438451 78.067683 
L 449.463497 69.035524 
L 457.488544 59.935 
L 465.51359 50.769169 
L 473.538636 41.540909 
" clip-path="url(#p2d19cd36c9)" style="fill: none; stroke: #008000; stroke-width: 2; stroke-linecap: square"/>
   </g>
   <g id="patch_3">
    <path d="M 60.65 309.1 
L 60.65 28.8 
" style="fill: none; stroke: #000000; stroke-width: 0.8; stroke-linejoin: miter; stroke-linecap: square"/>
   </g>
   <g id="patch_4">
    <path d="M 493.2 309.1 
L 493.2 28.8 
" style="fill: none; stroke: #000000; stroke-width: 0.8; stroke-linejoin: miter; stroke-linecap: square"/>
   </g>
   <g id="patch_5">
    <path d="M 60.65 309.1 
L 493.2 309.1 
" style="fill: none; stroke: #000000; stroke-width: 0.8; stroke-linejoin: miter; stroke-linecap: square"/>
   </g>
   <g id="patch_6">
    <path d="M 60.65 28.8 
L 493.2 28.8 
" style="fill: none; stroke: #000000; stroke-width: 0.8; stroke-linejoin: miter; stroke-linecap: square"/>
   </g>
   <g id="text_19">
    <!-- $I_{ds}(V_{gs})$ -->
    <g transform="translate(256.285 22.8) scale(0.12 -0.12)">
     <defs>
      <path id="DejaVuSans-Oblique-64" d="M 2675 525 
Q 2444 222 2128 65 
Q 1813 -91 1428 -91 
Q 903 -91 598 267 
Q 294 625 294 1247 
Q 294 1766 478 2236 
Q 663 2706 1013 3078 
Q 1244 3325 1534 3454 
Q 1825 3584 2144 3584 
Q 2481 3584 2739 3421 
Q 2997 3259 3138 2956 
L 3513 4863 
L 4091 4863 
L 3144 0 
L 2566 0 
L 2675 525 
z
M 891 1350 
Q 891 897 1095 644 
Q 1300 391 1663 391 
Q 1931 391 2161 520 
Q 2391 650 2566 903 
Q 2750 1166 2856 1509 
Q 2963 1853 2963 2188 
Q 2963 2622 2758 2865 
Q 2553 3109 2194 3109 
Q 1922 3109 1687 2981 
Q 1453 2853 1288 2613 
Q 1106 2353 998 2009 
Q 891 1666 891 1350 
z
" transform="scale(0.015625)"/>
      <path id="DejaVuSans-Oblique-73" d="M 3200 3397 
L 3091 2853 
Q 2863 2978 2609 3040 
Q 2356 3103 2088 3103 
Q 1634 3103 1373 2948 
Q 1113 2794 1113 2528 
Q 1113 2219 1719 2053 
Q 1766 2041 1788 2034 
L 1972 1978 
Q 2547 1819 2739 1644 
Q 2931 1469 2931 1166 
Q 2931 609 2489 259 
Q 2047 -91 1331 -91 
Q 1053 -91 747 -37 
Q 441 16 72 128 
L 184 722 
Q 500 559 806 475 
Q 1113 391 1394 391 
Q 1816 391 2080 572 
Q 2344 753 2344 1031 
Q 2344 1331 1650 1516 
L 1591 1531 
L 1394 1581 
Q 956 1697 753 1886 
Q 550 2075 550 2369 
Q 550 2928 970 3256 
Q 1391 3584 2113 3584 
Q 2397 3584 2667 3537 
Q 2938 3491 3200 3397 
z
" transform="scale(0.015625)"/>
      <path id="DejaVuSans-28" d="M 1984 4856 
Q 1566 4138 1362 3434 
Q 1159 2731 1159 2009 
Q 1159 1288 1364 580 
Q 1569 -128 1984 -844 
L 1484 -844 
Q 1016 -109 783 600 
Q 550 1309 550 2009 
Q 550 2706 781 3412 
Q 1013 4119 1484 4856 
L 1984 4856 
z
" transform="scale(0.015625)"/>
      <path id="DejaVuSans-Oblique-67" d="M 3816 3500 
L 3219 434 
Q 3047 -456 2561 -893 
Q 2075 -1331 1253 -1331 
Q 950 -1331 690 -1286 
Q 431 -1241 206 -1147 
L 313 -588 
Q 525 -725 762 -790 
Q 1000 -856 1269 -856 
Q 1816 -856 2167 -557 
Q 2519 -259 2631 300 
L 2681 563 
Q 2441 288 2122 144 
Q 1803 0 1434 0 
Q 903 0 598 351 
Q 294 703 294 1319 
Q 294 1803 478 2267 
Q 663 2731 997 3091 
Q 1219 3328 1514 3456 
Q 1809 3584 2131 3584 
Q 2484 3584 2746 3420 
Q 3009 3256 3138 2956 
L 3238 3500 
L 3816 3500 
z
M 2950 2216 
Q 2950 2641 2750 2872 
Q 2550 3103 2181 3103 
Q 1953 3103 1747 3012 
Q 1541 2922 1394 2759 
Q 1156 2491 1023 2127 
Q 891 1763 891 1375 
Q 891 944 1092 712 
Q 1294 481 1672 481 
Q 2219 481 2584 976 
Q 2950 1472 2950 2216 
z
" transform="scale(0.015625)"/>
      <path id="DejaVuSans-29" d="M 513 4856 
L 1013 4856 
Q 1481 4119 1714 3412 
Q 1947 2706 1947 2009 
Q 1947 1309 1714 600 
Q 1481 -109 1013 -844 
L 513 -844 
Q 928 -128 1133 580 
Q 1338 1288 1338 2009 
Q 1338 2731 1133 3434 
Q 928 4138 513 4856 
z
" transform="scale(0.015625)"/>
     </defs>
     <use xlink:href="#DejaVuSans-Oblique-49" transform="translate(0 0.125)"/>
     <use xlink:href="#DejaVuSans-Oblique-64" transform="translate(29.492188 -16.28125) scale(0.7)"/>
     <use xlink:href="#DejaVuSans-Oblique-73" transform="translate(73.925781 -16.28125) scale(0.7)"/>
     <use xlink:href="#DejaVuSans-28" transform="translate(113.129883 0.125)"/>
     <use xlink:href="#DejaVuSans-Oblique-56" transform="translate(152.143555 0.125)"/>
     <use xlink:href="#DejaVuSans-Oblique-67" transform="translate(220.551758 -16.28125) scale(0.7)"/>
     <use xlink:href="#DejaVuSans-Oblique-73" transform="translate(264.985352 -16.28125) scale(0.7)"/>
     <use xlink:href="#DejaVuSans-29" transform="translate(304.189453 0.125)"/>
    </g>
   </g>
   <g id="legend_1">
    <g id="patch_7">
     <path d="M 67.65 153.9375 
L 203.49 153.9375 
Q 205.49 153.9375 205.49 151.9375 
L 205.49 35.8 
Q 205.49 33.8 203.49 33.8 
L 67.65 33.8 
Q 65.65 33.8 65.65 35.8 
L 65.65 151.9375 
Q 65.65 153.9375 67.65 153.9375 
z
" style="fill: #ffffff; opacity: 0.8; stroke: #cccccc; stroke-linejoin: miter"/>
    </g>
    <g id="line2d_43">
     <path d="M 67.65 41.418125 
L 72.65 41.418125 
L 77.65 41.418125 
" style="fill: none; stroke: #ff0000; stroke-width: 2; stroke-linecap: square"/>
    </g>
    <g id="text_20">
     <!-- $I_{DS X1}: V_{D}$ =  1.0e-03 -->
     <g transform="translate(79.65 44.918125) scale(0.12 -0.12)">
      <defs>
       <path id="DejaVuSans-3a" d="M 750 794 
L 1409 794 
L 1409 0 
L 750 0 
L 750 794 
z
M 750 3309 
L 1409 3309 
L 1409 2516 
L 750 2516 
L 750 3309 
z
" transform="scale(0.015625)"/>
       <path id="DejaVuSans-3d" d="M 678 2906 
L 4684 2906 
L 4684 2381 
L 678 2381 
L 678 2906 
z
M 678 1631 
L 4684 1631 
L 4684 1100 
L 678 1100 
L 678 1631 
z
" transform="scale(0.015625)"/>
       <path id="DejaVuSans-65" d="M 3597 1894 
L 3597 1613 
L 953 1613 
Q 991 1019 1311 708 
Q 1631 397 2203 397 
Q 2534 397 2845 478 
Q 3156 559 3463 722 
L 3463 178 
Q 3153 47 2828 -22 
Q 2503 -91 2169 -91 
Q 1331 -91 842 396 
Q 353 884 353 1716 
Q 353 2575 817 3079 
Q 1281 3584 2069 3584 
Q 2775 3584 3186 3129 
Q 3597 2675 3597 1894 
z
M 3022 2063 
Q 3016 2534 2758 2815 
Q 2500 3097 2075 3097 
Q 1594 3097 1305 2825 
Q 1016 2553 972 2059 
L 3022 2063 
z
" transform="scale(0.015625)"/>
       <path id="DejaVuSans-2d" d="M 313 2009 
L 1997 2009 
L 1997 1497 
L 313 1497 
L 313 2009 
z
" transform="scale(0.015625)"/>
       <path id="DejaVuSans-33" d="M 2597 2516 
Q 3050 2419 3304 2112 
Q 3559 1806 3559 1356 
Q 3559 666 3084 287 
Q 2609 -91 1734 -91 
Q 1441 -91 1130 -33 
Q 819 25 488 141 
L 488 750 
Q 750 597 1062 519 
Q 1375 441 1716 441 
Q 2309 441 2620 675 
Q 2931 909 2931 1356 
Q 2931 1769 2642 2001 
Q 2353 2234 1838 2234 
L 1294 2234 
L 1294 2753 
L 1863 2753 
Q 2328 2753 2575 2939 
Q 2822 3125 2822 3475 
Q 2822 3834 2567 4026 
Q 2313 4219 1838 4219 
Q 1578 4219 1281 4162 
Q 984 4106 628 3988 
L 628 4550 
Q 988 4650 1302 4700 
Q 1616 4750 1894 4750 
Q 2613 4750 3031 4423 
Q 3450 4097 3450 3541 
Q 3450 3153 3228 2886 
Q 3006 2619 2597 2516 
z
" transform="scale(0.015625)"/>
      </defs>
      <use xlink:href="#DejaVuSans-Oblique-49" transform="translate(0 0.78125)"/>
      <use xlink:href="#DejaVuSans-Oblique-44" transform="translate(29.492188 -15.625) scale(0.7)"/>
      <use xlink:href="#DejaVuSans-Oblique-53" transform="translate(83.393555 -15.625) scale(0.7)"/>
      <use xlink:href="#DejaVuSans-Oblique-58" transform="translate(127.827148 -15.625) scale(0.7)"/>
      <use xlink:href="#DejaVuSans-31" transform="translate(175.78125 -15.625) scale(0.7)"/>
      <use xlink:href="#DejaVuSans-3a" transform="translate(242.53418 0.78125)"/>
      <use xlink:href="#DejaVuSans-Oblique-56" transform="translate(295.708008 0.78125)"/>
      <use xlink:href="#DejaVuSans-Oblique-44" transform="translate(364.116211 -15.625) scale(0.7)"/>
      <use xlink:href="#DejaVuSans-20" transform="translate(420.751953 0.78125)"/>
      <use xlink:href="#DejaVuSans-3d" transform="translate(452.539062 0.78125)"/>
      <use xlink:href="#DejaVuSans-20" transform="translate(536.328125 0.78125)"/>
      <use xlink:href="#DejaVuSans-20" transform="translate(568.115234 0.78125)"/>
      <use xlink:href="#DejaVuSans-31" transform="translate(599.902344 0.78125)"/>
      <use xlink:href="#DejaVuSans-2e" transform="translate(663.525391 0.78125)"/>
      <use xlink:href="#DejaVuSans-30" transform="translate(695.3125 0.78125)"/>
      <use xlink:href="#DejaVuSans-65" transform="translate(758.935547 0.78125)"/>
      <use xlink:href="#DejaVuSans-2d" transform="translate(820.458984 0.78125)"/>
      <use xlink:href="#DejaVuSans-30" transform="translate(856.542969 0.78125)"/>
      <use xlink:href="#DejaVuSans-33" transform="translate(920.166016 0.78125)"/>
     </g>
    </g>
    <g id="line2d_44">
     <path d="M 67.65 53.031875 
L 72.65 53.031875 
L 77.65 53.031875 
" style="fill: none; stroke: #0000ff; stroke-width: 2; stroke-linecap: square"/>
    </g>
    <g id="text_21">
     <!-- $I_{DS X1}: V_{D}$ =  2.0e-01 -->
     <g transform="translate(79.65 56.531875) scale(0.12 -0.12)">
      <use xlink:href="#DejaVuSans-Oblique-49" transform="translate(0 0.78125)"/>
      <use xlink:href="#DejaVuSans-Oblique-44" transform="translate(29.492188 -15.625) scale(0.7)"/>
      <use xlink:href="#DejaVuSans-Oblique-53" transform="translate(83.393555 -15.625) scale(0.7)"/>
      <use xlink:href="#DejaVuSans-Oblique-58" transform="translate(127.827148 -15.625) scale(0.7)"/>
      <use xlink:href="#DejaVuSans-31" transform="translate(175.78125 -15.625) scale(0.7)"/>
      <use xlink:href="#DejaVuSans-3a" transform="translate(242.53418 0.78125)"/>
      <use xlink:href="#DejaVuSans-Oblique-56" transform="translate(295.708008 0.78125)"/>
      <use xlink:href="#DejaVuSans-Oblique-44" transform="translate(364.116211 -15.625) scale(0.7)"/>
      <use xlink:href="#DejaVuSans-20" transform="translate(420.751953 0.78125)"/>
      <use xlink:href="#DejaVuSans-3d" transform="translate(452.539062 0.78125)"/>
      <use xlink:href="#DejaVuSans-20" transform="translate(536.328125 0.78125)"/>
      <use xlink:href="#DejaVuSans-20" transform="translate(568.115234 0.78125)"/>
      <use xlink:href="#DejaVuSans-32" transform="translate(599.902344 0.78125)"/>
      <use xlink:href="#DejaVuSans-2e" transform="translate(663.525391 0.78125)"/>
      <use xlink:href="#DejaVuSans-30" transform="translate(695.3125 0.78125)"/>
      <use xlink:href="#DejaVuSans-65" transform="translate(758.935547 0.78125)"/>
      <use xlink:href="#DejaVuSans-2d" transform="translate(820.458984 0.78125)"/>
      <use xlink:href="#DejaVuSans-30" transform="translate(856.542969 0.78125)"/>
      <use xlink:href="#DejaVuSans-31" transform="translate(920.166016 0.78125)"/>
     </g>
    </g>
    <g id="line2d_45">
     <path d="M 67.65 64.645625 
L 72.65 64.645625 
L 77.65 64.645625 
" style="fill: none; stroke: #008000; stroke-width: 2; stroke-linecap: square"/>
    </g>
    <g id="text_22">
     <!-- $I_{DS X1}: V_{D}$ =  4.0e-01 -->
     <g transform="translate(79.65 68.145625) scale(0.12 -0.12)">
      <defs>
       <path id="DejaVuSans-34" d="M 2419 4116 
L 825 1625 
L 2419 1625 
L 2419 4116 
z
M 2253 4666 
L 3047 4666 
L 3047 1625 
L 3713 1625 
L 3713 1100 
L 3047 1100 
L 3047 0 
L 2419 0 
L 2419 1100 
L 313 1100 
L 313 1709 
L 2253 4666 
z
" transform="scale(0.015625)"/>
      </defs>
      <use xlink:href="#DejaVuSans-Oblique-49" transform="translate(0 0.78125)"/>
      <use xlink:href="#DejaVuSans-Oblique-44" transform="translate(29.492188 -15.625) scale(0.7)"/>
      <use xlink:href="#DejaVuSans-Oblique-53" transform="translate(83.393555 -15.625) scale(0.7)"/>
      <use xlink:href="#DejaVuSans-Oblique-58" transform="translate(127.827148 -15.625) scale(0.7)"/>
      <use xlink:href="#DejaVuSans-31" transform="translate(175.78125 -15.625) scale(0.7)"/>
      <use xlink:href="#DejaVuSans-3a" transform="translate(242.53418 0.78125)"/>
      <use xlink:href="#DejaVuSans-Oblique-56" transform="translate(295.708008 0.78125)"/>
      <use xlink:href="#DejaVuSans-Oblique-44" transform="translate(364.116211 -15.625) scale(0.7)"/>
      <use xlink:href="#DejaVuSans-20" transform="translate(420.751953 0.78125)"/>
      <use xlink:href="#DejaVuSans-3d" transform="translate(452.539062 0.78125)"/>
      <use xlink:href="#DejaVuSans-20" transform="translate(536.328125 0.78125)"/>
      <use xlink:href="#DejaVuSans-20" transform="translate(568.115234 0.78125)"/>
      <use xlink:href="#DejaVuSans-34" transform="translate(599.902344 0.78125)"/>
      <use xlink:href="#DejaVuSans-2e" transform="translate(663.525391 0.78125)"/>
      <use xlink:href="#DejaVuSans-30" transform="translate(695.3125 0.78125)"/>
      <use xlink:href="#DejaVuSans-65" transform="translate(758.935547 0.78125)"/>
      <use xlink:href="#DejaVuSans-2d" transform="translate(820.458984 0.78125)"/>
      <use xlink:href="#DejaVuSans-30" transform="translate(856.542969 0.78125)"/>
      <use xlink:href="#DejaVuSans-31" transform="translate(920.166016 0.78125)"/>
     </g>
    </g>
    <g id="line2d_46">
     <path d="M 67.65 76.259375 
L 72.65 76.259375 
L 77.65 76.259375 
" style="fill: none; stroke: #00bfbf; stroke-width: 2; stroke-linecap: square"/>
    </g>
    <g id="text_23">
     <!-- $I_{DS X1}: V_{D}$ =  6.0e-01 -->
     <g transform="translate(79.65 79.759375) scale(0.12 -0.12)">
      <defs>
       <path id="DejaVuSans-36" d="M 2113 2584 
Q 1688 2584 1439 2293 
Q 1191 2003 1191 1497 
Q 1191 994 1439 701 
Q 1688 409 2113 409 
Q 2538 409 2786 701 
Q 3034 994 3034 1497 
Q 3034 2003 2786 2293 
Q 2538 2584 2113 2584 
z
M 3366 4563 
L 3366 3988 
Q 3128 4100 2886 4159 
Q 2644 4219 2406 4219 
Q 1781 4219 1451 3797 
Q 1122 3375 1075 2522 
Q 1259 2794 1537 2939 
Q 1816 3084 2150 3084 
Q 2853 3084 3261 2657 
Q 3669 2231 3669 1497 
Q 3669 778 3244 343 
Q 2819 -91 2113 -91 
Q 1303 -91 875 529 
Q 447 1150 447 2328 
Q 447 3434 972 4092 
Q 1497 4750 2381 4750 
Q 2619 4750 2861 4703 
Q 3103 4656 3366 4563 
z
" transform="scale(0.015625)"/>
      </defs>
      <use xlink:href="#DejaVuSans-Oblique-49" transform="translate(0 0.78125)"/>
      <use xlink:href="#DejaVuSans-Oblique-44" transform="translate(29.492188 -15.625) scale(0.7)"/>
      <use xlink:href="#DejaVuSans-Oblique-53" transform="translate(83.393555 -15.625) scale(0.7)"/>
      <use xlink:href="#DejaVuSans-Oblique-58" transform="translate(127.827148 -15.625) scale(0.7)"/>
      <use xlink:href="#DejaVuSans-31" transform="translate(175.78125 -15.625) scale(0.7)"/>
      <use xlink:href="#DejaVuSans-3a" transform="translate(242.53418 0.78125)"/>
      <use xlink:href="#DejaVuSans-Oblique-56" transform="translate(295.708008 0.78125)"/>
      <use xlink:href="#DejaVuSans-Oblique-44" transform="translate(364.116211 -15.625) scale(0.7)"/>
      <use xlink:href="#DejaVuSans-20" transform="translate(420.751953 0.78125)"/>
      <use xlink:href="#DejaVuSans-3d" transform="translate(452.539062 0.78125)"/>
      <use xlink:href="#DejaVuSans-20" transform="translate(536.328125 0.78125)"/>
      <use xlink:href="#DejaVuSans-20" transform="translate(568.115234 0.78125)"/>
      <use xlink:href="#DejaVuSans-36" transform="translate(599.902344 0.78125)"/>
      <use xlink:href="#DejaVuSans-2e" transform="translate(663.525391 0.78125)"/>
      <use xlink:href="#DejaVuSans-30" transform="translate(695.3125 0.78125)"/>
      <use xlink:href="#DejaVuSans-65" transform="translate(758.935547 0.78125)"/>
      <use xlink:href="#DejaVuSans-2d" transform="translate(820.458984 0.78125)"/>
      <use xlink:href="#DejaVuSans-30" transform="translate(856.542969 0.78125)"/>
      <use xlink:href="#DejaVuSans-31" transform="translate(920.166016 0.78125)"/>
     </g>
    </g>
    <g id="line2d_47">
     <path d="M 67.65 87.873125 
L 72.65 87.873125 
L 77.65 87.873125 
" style="fill: none; stroke: #bf00bf; stroke-width: 2; stroke-linecap: square"/>
    </g>
    <g id="text_24">
     <!-- $I_{DS X1}: V_{D}$ =  8.0e-01 -->
     <g transform="translate(79.65 91.373125) scale(0.12 -0.12)">
      <defs>
       <path id="DejaVuSans-38" d="M 2034 2216 
Q 1584 2216 1326 1975 
Q 1069 1734 1069 1313 
Q 1069 891 1326 650 
Q 1584 409 2034 409 
Q 2484 409 2743 651 
Q 3003 894 3003 1313 
Q 3003 1734 2745 1975 
Q 2488 2216 2034 2216 
z
M 1403 2484 
Q 997 2584 770 2862 
Q 544 3141 544 3541 
Q 544 4100 942 4425 
Q 1341 4750 2034 4750 
Q 2731 4750 3128 4425 
Q 3525 4100 3525 3541 
Q 3525 3141 3298 2862 
Q 3072 2584 2669 2484 
Q 3125 2378 3379 2068 
Q 3634 1759 3634 1313 
Q 3634 634 3220 271 
Q 2806 -91 2034 -91 
Q 1263 -91 848 271 
Q 434 634 434 1313 
Q 434 1759 690 2068 
Q 947 2378 1403 2484 
z
M 1172 3481 
Q 1172 3119 1398 2916 
Q 1625 2713 2034 2713 
Q 2441 2713 2670 2916 
Q 2900 3119 2900 3481 
Q 2900 3844 2670 4047 
Q 2441 4250 2034 4250 
Q 1625 4250 1398 4047 
Q 1172 3844 1172 3481 
z
" transform="scale(0.015625)"/>
      </defs>
      <use xlink:href="#DejaVuSans-Oblique-49" transform="translate(0 0.78125)"/>
      <use xlink:href="#DejaVuSans-Oblique-44" transform="translate(29.492188 -15.625) scale(0.7)"/>
      <use xlink:href="#DejaVuSans-Oblique-53" transform="translate(83.393555 -15.625) scale(0.7)"/>
      <use xlink:href="#DejaVuSans-Oblique-58" transform="translate(127.827148 -15.625) scale(0.7)"/>
      <use xlink:href="#DejaVuSans-31" transform="translate(175.78125 -15.625) scale(0.7)"/>
      <use xlink:href="#DejaVuSans-3a" transform="translate(242.53418 0.78125)"/>
      <use xlink:href="#DejaVuSans-Oblique-56" transform="translate(295.708008 0.78125)"/>
      <use xlink:href="#DejaVuSans-Oblique-44" transform="translate(364.116211 -15.625) scale(0.7)"/>
      <use xlink:href="#DejaVuSans-20" transform="translate(420.751953 0.78125)"/>
      <use xlink:href="#DejaVuSans-3d" transform="translate(452.539062 0.78125)"/>
      <use xlink:href="#DejaVuSans-20" transform="translate(536.328125 0.78125)"/>
      <use xlink:href="#DejaVuSans-20" transform="translate(568.115234 0.78125)"/>
      <use xlink:href="#DejaVuSans-38" transform="translate(599.902344 0.78125)"/>
      <use xlink:href="#DejaVuSans-2e" transform="translate(663.525391 0.78125)"/>
      <use xlink:href="#DejaVuSans-30" transform="translate(695.3125 0.78125)"/>
      <use xlink:href="#DejaVuSans-65" transform="translate(758.935547 0.78125)"/>
      <use xlink:href="#DejaVuSans-2d" transform="translate(820.458984 0.78125)"/>
      <use xlink:href="#DejaVuSans-30" transform="translate(856.542969 0.78125)"/>
      <use xlink:href="#DejaVuSans-31" transform="translate(920.166016 0.78125)"/>
     </g>
    </g>
    <g id="line2d_48">
     <path d="M 67.65 99.486875 
L 72.65 99.486875 
L 77.65 99.486875 
" style="fill: none; stroke: #bfbf00; stroke-width: 2; stroke-linecap: square"/>
    </g>
    <g id="text_25">
     <!-- $I_{DS X1}: V_{D}$ =  1.0e+00 -->
     <g transform="translate(79.65 102.986875) scale(0.12 -0.12)">
      <defs>
       <path id="DejaVuSans-2b" d="M 2944 4013 
L 2944 2272 
L 4684 2272 
L 4684 1741 
L 2944 1741 
L 2944 0 
L 2419 0 
L 2419 1741 
L 678 1741 
L 678 2272 
L 2419 2272 
L 2419 4013 
L 2944 4013 
z
" transform="scale(0.015625)"/>
      </defs>
      <use xlink:href="#DejaVuSans-Oblique-49" transform="translate(0 0.78125)"/>
      <use xlink:href="#DejaVuSans-Oblique-44" transform="translate(29.492188 -15.625) scale(0.7)"/>
      <use xlink:href="#DejaVuSans-Oblique-53" transform="translate(83.393555 -15.625) scale(0.7)"/>
      <use xlink:href="#DejaVuSans-Oblique-58" transform="translate(127.827148 -15.625) scale(0.7)"/>
      <use xlink:href="#DejaVuSans-31" transform="translate(175.78125 -15.625) scale(0.7)"/>
      <use xlink:href="#DejaVuSans-3a" transform="translate(242.53418 0.78125)"/>
      <use xlink:href="#DejaVuSans-Oblique-56" transform="translate(295.708008 0.78125)"/>
      <use xlink:href="#DejaVuSans-Oblique-44" transform="translate(364.116211 -15.625) scale(0.7)"/>
      <use xlink:href="#DejaVuSans-20" transform="translate(420.751953 0.78125)"/>
      <use xlink:href="#DejaVuSans-3d" transform="translate(452.539062 0.78125)"/>
      <use xlink:href="#DejaVuSans-20" transform="translate(536.328125 0.78125)"/>
      <use xlink:href="#DejaVuSans-20" transform="translate(568.115234 0.78125)"/>
      <use xlink:href="#DejaVuSans-31" transform="translate(599.902344 0.78125)"/>
      <use xlink:href="#DejaVuSans-2e" transform="translate(663.525391 0.78125)"/>
      <use xlink:href="#DejaVuSans-30" transform="translate(695.3125 0.78125)"/>
      <use xlink:href="#DejaVuSans-65" transform="translate(758.935547 0.78125)"/>
      <use xlink:href="#DejaVuSans-2b" transform="translate(820.458984 0.78125)"/>
      <use xlink:href="#DejaVuSans-30" transform="translate(904.248047 0.78125)"/>
      <use xlink:href="#DejaVuSans-30" transform="translate(967.871094 0.78125)"/>
     </g>
    </g>
    <g id="line2d_49">
     <path d="M 67.65 111.100625 
L 72.65 111.100625 
L 77.65 111.100625 
" style="fill: none; stroke: #000000; stroke-width: 2; stroke-linecap: square"/>
    </g>
    <g id="text_26">
     <!-- $I_{DS X1}: V_{D}$ =  1.2e+00 -->
     <g transform="translate(79.65 114.600625) scale(0.12 -0.12)">
      <use xlink:href="#DejaVuSans-Oblique-49" transform="translate(0 0.78125)"/>
      <use xlink:href="#DejaVuSans-Oblique-44" transform="translate(29.492188 -15.625) scale(0.7)"/>
      <use xlink:href="#DejaVuSans-Oblique-53" transform="translate(83.393555 -15.625) scale(0.7)"/>
      <use xlink:href="#DejaVuSans-Oblique-58" transform="translate(127.827148 -15.625) scale(0.7)"/>
      <use xlink:href="#DejaVuSans-31" transform="translate(175.78125 -15.625) scale(0.7)"/>
      <use xlink:href="#DejaVuSans-3a" transform="translate(242.53418 0.78125)"/>
      <use xlink:href="#DejaVuSans-Oblique-56" transform="translate(295.708008 0.78125)"/>
      <use xlink:href="#DejaVuSans-Oblique-44" transform="translate(364.116211 -15.625) scale(0.7)"/>
      <use xlink:href="#DejaVuSans-20" transform="translate(420.751953 0.78125)"/>
      <use xlink:href="#DejaVuSans-3d" transform="translate(452.539062 0.78125)"/>
      <use xlink:href="#DejaVuSans-20" transform="translate(536.328125 0.78125)"/>
      <use xlink:href="#DejaVuSans-20" transform="translate(568.115234 0.78125)"/>
      <use xlink:href="#DejaVuSans-31" transform="translate(599.902344 0.78125)"/>
      <use xlink:href="#DejaVuSans-2e" transform="translate(663.525391 0.78125)"/>
      <use xlink:href="#DejaVuSans-32" transform="translate(689.8125 0.78125)"/>
      <use xlink:href="#DejaVuSans-65" transform="translate(753.435547 0.78125)"/>
      <use xlink:href="#DejaVuSans-2b" transform="translate(814.958984 0.78125)"/>
      <use xlink:href="#DejaVuSans-30" transform="translate(898.748047 0.78125)"/>
      <use xlink:href="#DejaVuSans-30" transform="translate(962.371094 0.78125)"/>
     </g>
    </g>
    <g id="line2d_50">
     <path d="M 67.65 122.714375 
L 72.65 122.714375 
L 77.65 122.714375 
" style="fill: none; stroke: #ff0000; stroke-width: 2; stroke-linecap: square"/>
    </g>
    <g id="text_27">
     <!-- $I_{DS X1}: V_{D}$ =  1.4e+00 -->
     <g transform="translate(79.65 126.214375) scale(0.12 -0.12)">
      <use xlink:href="#DejaVuSans-Oblique-49" transform="translate(0 0.78125)"/>
      <use xlink:href="#DejaVuSans-Oblique-44" transform="translate(29.492188 -15.625) scale(0.7)"/>
      <use xlink:href="#DejaVuSans-Oblique-53" transform="translate(83.393555 -15.625) scale(0.7)"/>
      <use xlink:href="#DejaVuSans-Oblique-58" transform="translate(127.827148 -15.625) scale(0.7)"/>
      <use xlink:href="#DejaVuSans-31" transform="translate(175.78125 -15.625) scale(0.7)"/>
      <use xlink:href="#DejaVuSans-3a" transform="translate(242.53418 0.78125)"/>
      <use xlink:href="#DejaVuSans-Oblique-56" transform="translate(295.708008 0.78125)"/>
      <use xlink:href="#DejaVuSans-Oblique-44" transform="translate(364.116211 -15.625) scale(0.7)"/>
      <use xlink:href="#DejaVuSans-20" transform="translate(420.751953 0.78125)"/>
      <use xlink:href="#DejaVuSans-3d" transform="translate(452.539062 0.78125)"/>
      <use xlink:href="#DejaVuSans-20" transform="translate(536.328125 0.78125)"/>
      <use xlink:href="#DejaVuSans-20" transform="translate(568.115234 0.78125)"/>
      <use xlink:href="#DejaVuSans-31" transform="translate(599.902344 0.78125)"/>
      <use xlink:href="#DejaVuSans-2e" transform="translate(663.525391 0.78125)"/>
      <use xlink:href="#DejaVuSans-34" transform="translate(695.3125 0.78125)"/>
      <use xlink:href="#DejaVuSans-65" transform="translate(758.935547 0.78125)"/>
      <use xlink:href="#DejaVuSans-2b" transform="translate(820.458984 0.78125)"/>
      <use xlink:href="#DejaVuSans-30" transform="translate(904.248047 0.78125)"/>
      <use xlink:href="#DejaVuSans-30" transform="translate(967.871094 0.78125)"/>
     </g>
    </g>
    <g id="line2d_51">
     <path d="M 67.65 134.328125 
L 72.65 134.328125 
L 77.65 134.328125 
" style="fill: none; stroke: #0000ff; stroke-width: 2; stroke-linecap: square"/>
    </g>
    <g id="text_28">
     <!-- $I_{DS X1}: V_{D}$ =  1.6e+00 -->
     <g transform="translate(79.65 137.828125) scale(0.12 -0.12)">
      <use xlink:href="#DejaVuSans-Oblique-49" transform="translate(0 0.78125)"/>
      <use xlink:href="#DejaVuSans-Oblique-44" transform="translate(29.492188 -15.625) scale(0.7)"/>
      <use xlink:href="#DejaVuSans-Oblique-53" transform="translate(83.393555 -15.625) scale(0.7)"/>
      <use xlink:href="#DejaVuSans-Oblique-58" transform="translate(127.827148 -15.625) scale(0.7)"/>
      <use xlink:href="#DejaVuSans-31" transform="translate(175.78125 -15.625) scale(0.7)"/>
      <use xlink:href="#DejaVuSans-3a" transform="translate(242.53418 0.78125)"/>
      <use xlink:href="#DejaVuSans-Oblique-56" transform="translate(295.708008 0.78125)"/>
      <use xlink:href="#DejaVuSans-Oblique-44" transform="translate(364.116211 -15.625) scale(0.7)"/>
      <use xlink:href="#DejaVuSans-20" transform="translate(420.751953 0.78125)"/>
      <use xlink:href="#DejaVuSans-3d" transform="translate(452.539062 0.78125)"/>
      <use xlink:href="#DejaVuSans-20" transform="translate(536.328125 0.78125)"/>
      <use xlink:href="#DejaVuSans-20" transform="translate(568.115234 0.78125)"/>
      <use xlink:href="#DejaVuSans-31" transform="translate(599.902344 0.78125)"/>
      <use xlink:href="#DejaVuSans-2e" transform="translate(663.525391 0.78125)"/>
      <use xlink:href="#DejaVuSans-36" transform="translate(695.3125 0.78125)"/>
      <use xlink:href="#DejaVuSans-65" transform="translate(758.935547 0.78125)"/>
      <use xlink:href="#DejaVuSans-2b" transform="translate(820.458984 0.78125)"/>
      <use xlink:href="#DejaVuSans-30" transform="translate(904.248047 0.78125)"/>
      <use xlink:href="#DejaVuSans-30" transform="translate(967.871094 0.78125)"/>
     </g>
    </g>
    <g id="line2d_52">
     <path d="M 67.65 145.941875 
L 72.65 145.941875 
L 77.65 145.941875 
" style="fill: none; stroke: #008000; stroke-width: 2; stroke-linecap: square"/>
    </g>
    <g id="text_29">
     <!-- $I_{DS X1}: V_{D}$ =  1.8e+00 -->
     <g transform="translate(79.65 149.441875) scale(0.12 -0.12)">
      <use xlink:href="#DejaVuSans-Oblique-49" transform="translate(0 0.78125)"/>
      <use xlink:href="#DejaVuSans-Oblique-44" transform="translate(29.492188 -15.625) scale(0.7)"/>
      <use xlink:href="#DejaVuSans-Oblique-53" transform="translate(83.393555 -15.625) scale(0.7)"/>
      <use xlink:href="#DejaVuSans-Oblique-58" transform="translate(127.827148 -15.625) scale(0.7)"/>
      <use xlink:href="#DejaVuSans-31" transform="translate(175.78125 -15.625) scale(0.7)"/>
      <use xlink:href="#DejaVuSans-3a" transform="translate(242.53418 0.78125)"/>
      <use xlink:href="#DejaVuSans-Oblique-56" transform="translate(295.708008 0.78125)"/>
      <use xlink:href="#DejaVuSans-Oblique-44" transform="translate(364.116211 -15.625) scale(0.7)"/>
      <use xlink:href="#DejaVuSans-20" transform="translate(420.751953 0.78125)"/>
      <use xlink:href="#DejaVuSans-3d" transform="translate(452.539062 0.78125)"/>
      <use xlink:href="#DejaVuSans-20" transform="translate(536.328125 0.78125)"/>
      <use xlink:href="#DejaVuSans-20" transform="translate(568.115234 0.78125)"/>
      <use xlink:href="#DejaVuSans-31" transform="translate(599.902344 0.78125)"/>
      <use xlink:href="#DejaVuSans-2e" transform="translate(663.525391 0.78125)"/>
      <use xlink:href="#DejaVuSans-38" transform="translate(692.6875 0.78125)"/>
      <use xlink:href="#DejaVuSans-65" transform="translate(756.310547 0.78125)"/>
      <use xlink:href="#DejaVuSans-2b" transform="translate(817.833984 0.78125)"/>
      <use xlink:href="#DejaVuSans-30" transform="translate(901.623047 0.78125)"/>
      <use xlink:href="#DejaVuSans-30" transform="translate(965.246094 0.78125)"/>
     </g>
    </g>
   </g>
  </g>
 </g>
 <defs>
  <clipPath id="p2d19cd36c9">
   <rect x="60.65" y="28.8" width="432.55" height="280.3"/>
  </clipPath>
 </defs>
</svg>
