<?xml version="1.0" encoding="utf-8" standalone="no"?>
<!DOCTYPE svg PUBLIC "-//W3C//DTD SVG 1.1//EN"
  "http://www.w3.org/Graphics/SVG/1.1/DTD/svg11.dtd">
<svg xmlns:xlink="http://www.w3.org/1999/xlink" width="504pt" height="360pt" viewBox="0 0 504 360" xmlns="http://www.w3.org/2000/svg" version="1.1">
 <metadata>
  <rdf:RDF xmlns:dc="http://purl.org/dc/elements/1.1/" xmlns:cc="http://creativecommons.org/ns#" xmlns:rdf="http://www.w3.org/1999/02/22-rdf-syntax-ns#">
   <cc:Work>
    <dc:type rdf:resource="http://purl.org/dc/dcmitype/StillImage"/>
    <dc:date>2026-02-23T08:55:28.304207</dc:date>
    <dc:format>image/svg+xml</dc:format>
    <dc:creator>
     <cc:Agent>
      <dc:title>Matplotlib v3.10.8, https://matplotlib.org/</dc:title>
     </cc:Agent>
    </dc:creator>
   </cc:Work>
  </rdf:RDF>
 </metadata>
 <defs>
  <style type="text/css">*{stroke-linejoin: round; stroke-linecap: butt}</style>
 </defs>
 <g id="figure_1">
  <g id="patch_1">
   <path d="M 0 360 
L 504 360 
L 504 0 
L 0 0 
z
" style="fill: #ffffff"/>
  </g>
  <g id="axes_1">
   <g id="patch_2">
    <path d="M 387.08 181 
C 387.08 163.261457 383.585894 145.695399 376.797647 129.307122 
C 370.009401 112.918845 360.059028 98.02706 347.515984 85.484016 
C 334.97294 72.940972 320.081155 62.990599 303.692878 56.202353 
C 287.304601 49.414106 269.738543 45.92 252 45.92 
C 234.261457 45.92 216.695399 49.414106 200.307122 56.202353 
C 183.918845 62.990599 169.02706 72.940972 156.484016 85.484016 
C 143.940972 98.02706 133.990599 112.918845 127.202353 129.307122 
C 120.414106 145.695399 116.92 163.261457 116.92 181 
C 116.92 198.738543 120.414106 216.304601 127.202353 232.692878 
C 133.990599 249.081155 143.940972 263.97294 156.484016 276.515984 
C 169.02706 289.059028 183.918845 299.009401 200.307122 305.797647 
C 216.695399 312.585894 234.261457 316.08 252 316.08 
C 269.738543 316.08 287.304601 312.585894 303.692878 305.797647 
C 320.081155 299.009401 334.97294 289.059028 347.515984 276.515984 
C 360.059028 263.97294 370.009401 249.081155 376.797647 232.692878 
C 383.585894 216.304601 387.08 198.738543 387.08 181 
M 252 181 
C 252 181 252 181 252 181 
C 252 181 252 181 252 181 
C 252 181 252 181 252 181 
C 252 181 252 181 252 181 
C 252 181 252 181 252 181 
C 252 181 252 181 252 181 
C 252 181 252 181 252 181 
C 252 181 252 181 252 181 
C 252 181 252 181 252 181 
C 252 181 252 181 252 181 
C 252 181 252 181 252 181 
C 252 181 252 181 252 181 
C 252 181 252 181 252 181 
C 252 181 252 181 252 181 
C 252 181 252 181 252 181 
C 252 181 252 181 252 181 
z
" style="fill: #ffffff"/>
   </g>
   <g id="matplotlib.axis_1">
    <g id="xtick_1">
     <g id="line2d_1">
      <path d="M 252 181 
L 387.08 181 
" clip-path="url(#p37dc929f6d)" style="fill: none; stroke: #808080; stroke-width: 0.8; stroke-linecap: square"/>
     </g>
     <g id="text_1">
      <!-- 0° -->
      <g transform="translate(394.2625 184.31125) scale(0.12 -0.12)">
       <defs>
        <path id="DejaVuSans-30" d="M 2034 4250 
Q 1547 4250 1301 3770 
Q 1056 3291 1056 2328 
Q 1056 1369 1301 889 
Q 1547 409 2034 409 
Q 2525 409 2770 889 
Q 3016 1369 3016 2328 
Q 3016 3291 2770 3770 
Q 2525 4250 2034 4250 
z
M 2034 4750 
Q 2819 4750 3233 4129 
Q 3647 3509 3647 2328 
Q 3647 1150 3233 529 
Q 2819 -91 2034 -91 
Q 1250 -91 836 529 
Q 422 1150 422 2328 
Q 422 3509 836 4129 
Q 1250 4750 2034 4750 
z
" transform="scale(0.015625)"/>
        <path id="DejaVuSans-b0" d="M 1600 4347 
Q 1350 4347 1178 4173 
Q 1006 4000 1006 3750 
Q 1006 3503 1178 3333 
Q 1350 3163 1600 3163 
Q 1850 3163 2022 3333 
Q 2194 3503 2194 3750 
Q 2194 3997 2020 4172 
Q 1847 4347 1600 4347 
z
M 1600 4750 
Q 1800 4750 1984 4673 
Q 2169 4597 2303 4453 
Q 2447 4313 2519 4134 
Q 2591 3956 2591 3750 
Q 2591 3338 2302 3052 
Q 2013 2766 1594 2766 
Q 1172 2766 890 3047 
Q 609 3328 609 3750 
Q 609 4169 896 4459 
Q 1184 4750 1600 4750 
z
" transform="scale(0.015625)"/>
       </defs>
       <use xlink:href="#DejaVuSans-30"/>
       <use xlink:href="#DejaVuSans-b0" transform="translate(63.623047 0)"/>
      </g>
     </g>
    </g>
    <g id="xtick_2">
     <g id="line2d_2">
      <path d="M 252 181 
L 347.515984 85.484016 
" clip-path="url(#p37dc929f6d)" style="fill: none; stroke: #808080; stroke-width: 0.8; stroke-linecap: square"/>
     </g>
     <g id="text_2">
      <!-- 45° -->
      <g transform="translate(346.780479 78.895771) scale(0.12 -0.12)">
       <defs>
        <path id="DejaVuSans-34" d="M 2419 4116 
L 825 1625 
L 2419 1625 
L 2419 4116 
z
M 2253 4666 
L 3047 4666 
L 3047 1625 
L 3713 1625 
L 3713 1100 
L 3047 1100 
L 3047 0 
L 2419 0 
L 2419 1100 
L 313 1100 
L 313 1709 
L 2253 4666 
z
" transform="scale(0.015625)"/>
        <path id="DejaVuSans-35" d="M 691 4666 
L 3169 4666 
L 3169 4134 
L 1269 4134 
L 1269 2991 
Q 1406 3038 1543 3061 
Q 1681 3084 1819 3084 
Q 2600 3084 3056 2656 
Q 3513 2228 3513 1497 
Q 3513 744 3044 326 
Q 2575 -91 1722 -91 
Q 1428 -91 1123 -41 
Q 819 9 494 109 
L 494 744 
Q 775 591 1075 516 
Q 1375 441 1709 441 
Q 2250 441 2565 725 
Q 2881 1009 2881 1497 
Q 2881 1984 2565 2268 
Q 2250 2553 1709 2553 
Q 1456 2553 1204 2497 
Q 953 2441 691 2322 
L 691 4666 
z
" transform="scale(0.015625)"/>
       </defs>
       <use xlink:href="#DejaVuSans-34"/>
       <use xlink:href="#DejaVuSans-35" transform="translate(63.623047 0)"/>
       <use xlink:href="#DejaVuSans-b0" transform="translate(127.246094 0)"/>
      </g>
     </g>
    </g>
    <g id="xtick_3">
     <g id="line2d_3">
      <path d="M 252 181 
L 252 45.92 
" clip-path="url(#p37dc929f6d)" style="fill: none; stroke: #808080; stroke-width: 0.8; stroke-linecap: square"/>
     </g>
     <g id="text_3">
      <!-- 90° -->
      <g transform="translate(241.365 35.23125) scale(0.12 -0.12)">
       <defs>
        <path id="DejaVuSans-39" d="M 703 97 
L 703 672 
Q 941 559 1184 500 
Q 1428 441 1663 441 
Q 2288 441 2617 861 
Q 2947 1281 2994 2138 
Q 2813 1869 2534 1725 
Q 2256 1581 1919 1581 
Q 1219 1581 811 2004 
Q 403 2428 403 3163 
Q 403 3881 828 4315 
Q 1253 4750 1959 4750 
Q 2769 4750 3195 4129 
Q 3622 3509 3622 2328 
Q 3622 1225 3098 567 
Q 2575 -91 1691 -91 
Q 1453 -91 1209 -44 
Q 966 3 703 97 
z
M 1959 2075 
Q 2384 2075 2632 2365 
Q 2881 2656 2881 3163 
Q 2881 3666 2632 3958 
Q 2384 4250 1959 4250 
Q 1534 4250 1286 3958 
Q 1038 3666 1038 3163 
Q 1038 2656 1286 2365 
Q 1534 2075 1959 2075 
z
" transform="scale(0.015625)"/>
       </defs>
       <use xlink:href="#DejaVuSans-39"/>
       <use xlink:href="#DejaVuSans-30" transform="translate(63.623047 0)"/>
       <use xlink:href="#DejaVuSans-b0" transform="translate(127.246094 0)"/>
      </g>
     </g>
    </g>
    <g id="xtick_4">
     <g id="line2d_4">
      <path d="M 252 181 
L 156.484016 85.484016 
" clip-path="url(#p37dc929f6d)" style="fill: none; stroke: #808080; stroke-width: 0.8; stroke-linecap: square"/>
     </g>
     <g id="text_4">
      <!-- 135° -->
      <g transform="translate(132.132021 78.895771) scale(0.12 -0.12)">
       <defs>
        <path id="DejaVuSans-31" d="M 794 531 
L 1825 531 
L 1825 4091 
L 703 3866 
L 703 4441 
L 1819 4666 
L 2450 4666 
L 2450 531 
L 3481 531 
L 3481 0 
L 794 0 
L 794 531 
z
" transform="scale(0.015625)"/>
        <path id="DejaVuSans-33" d="M 2597 2516 
Q 3050 2419 3304 2112 
Q 3559 1806 3559 1356 
Q 3559 666 3084 287 
Q 2609 -91 1734 -91 
Q 1441 -91 1130 -33 
Q 819 25 488 141 
L 488 750 
Q 750 597 1062 519 
Q 1375 441 1716 441 
Q 2309 441 2620 675 
Q 2931 909 2931 1356 
Q 2931 1769 2642 2001 
Q 2353 2234 1838 2234 
L 1294 2234 
L 1294 2753 
L 1863 2753 
Q 2328 2753 2575 2939 
Q 2822 3125 2822 3475 
Q 2822 3834 2567 4026 
Q 2313 4219 1838 4219 
Q 1578 4219 1281 4162 
Q 984 4106 628 3988 
L 628 4550 
Q 988 4650 1302 4700 
Q 1616 4750 1894 4750 
Q 2613 4750 3031 4423 
Q 3450 4097 3450 3541 
Q 3450 3153 3228 2886 
Q 3006 2619 2597 2516 
z
" transform="scale(0.015625)"/>
       </defs>
       <use xlink:href="#DejaVuSans-31"/>
       <use xlink:href="#DejaVuSans-33" transform="translate(63.623047 0)"/>
       <use xlink:href="#DejaVuSans-35" transform="translate(127.246094 0)"/>
       <use xlink:href="#DejaVuSans-b0" transform="translate(190.869141 0)"/>
      </g>
     </g>
    </g>
    <g id="xtick_5">
     <g id="line2d_5">
      <path d="M 252 181 
L 116.92 181 
" clip-path="url(#p37dc929f6d)" style="fill: none; stroke: #808080; stroke-width: 0.8; stroke-linecap: square"/>
     </g>
     <g id="text_5">
      <!-- 180° -->
      <g transform="translate(88.4675 184.31125) scale(0.12 -0.12)">
       <defs>
        <path id="DejaVuSans-38" d="M 2034 2216 
Q 1584 2216 1326 1975 
Q 1069 1734 1069 1313 
Q 1069 891 1326 650 
Q 1584 409 2034 409 
Q 2484 409 2743 651 
Q 3003 894 3003 1313 
Q 3003 1734 2745 1975 
Q 2488 2216 2034 2216 
z
M 1403 2484 
Q 997 2584 770 2862 
Q 544 3141 544 3541 
Q 544 4100 942 4425 
Q 1341 4750 2034 4750 
Q 2731 4750 3128 4425 
Q 3525 4100 3525 3541 
Q 3525 3141 3298 2862 
Q 3072 2584 2669 2484 
Q 3125 2378 3379 2068 
Q 3634 1759 3634 1313 
Q 3634 634 3220 271 
Q 2806 -91 2034 -91 
Q 1263 -91 848 271 
Q 434 634 434 1313 
Q 434 1759 690 2068 
Q 947 2378 1403 2484 
z
M 1172 3481 
Q 1172 3119 1398 2916 
Q 1625 2713 2034 2713 
Q 2441 2713 2670 2916 
Q 2900 3119 2900 3481 
Q 2900 3844 2670 4047 
Q 2441 4250 2034 4250 
Q 1625 4250 1398 4047 
Q 1172 3844 1172 3481 
z
" transform="scale(0.015625)"/>
       </defs>
       <use xlink:href="#DejaVuSans-31"/>
       <use xlink:href="#DejaVuSans-38" transform="translate(63.623047 0)"/>
       <use xlink:href="#DejaVuSans-30" transform="translate(127.246094 0)"/>
       <use xlink:href="#DejaVuSans-b0" transform="translate(190.869141 0)"/>
      </g>
     </g>
    </g>
    <g id="xtick_6">
     <g id="line2d_6">
      <path d="M 252 181 
L 156.484016 276.515984 
" clip-path="url(#p37dc929f6d)" style="fill: none; stroke: #808080; stroke-width: 0.8; stroke-linecap: square"/>
     </g>
     <g id="text_6">
      <!-- 225° -->
      <g transform="translate(132.132021 289.726729) scale(0.12 -0.12)">
       <defs>
        <path id="DejaVuSans-32" d="M 1228 531 
L 3431 531 
L 3431 0 
L 469 0 
L 469 531 
Q 828 903 1448 1529 
Q 2069 2156 2228 2338 
Q 2531 2678 2651 2914 
Q 2772 3150 2772 3378 
Q 2772 3750 2511 3984 
Q 2250 4219 1831 4219 
Q 1534 4219 1204 4116 
Q 875 4013 500 3803 
L 500 4441 
Q 881 4594 1212 4672 
Q 1544 4750 1819 4750 
Q 2544 4750 2975 4387 
Q 3406 4025 3406 3419 
Q 3406 3131 3298 2873 
Q 3191 2616 2906 2266 
Q 2828 2175 2409 1742 
Q 1991 1309 1228 531 
z
" transform="scale(0.015625)"/>
       </defs>
       <use xlink:href="#DejaVuSans-32"/>
       <use xlink:href="#DejaVuSans-32" transform="translate(63.623047 0)"/>
       <use xlink:href="#DejaVuSans-35" transform="translate(127.246094 0)"/>
       <use xlink:href="#DejaVuSans-b0" transform="translate(190.869141 0)"/>
      </g>
     </g>
    </g>
    <g id="xtick_7">
     <g id="line2d_7">
      <path d="M 252 181 
L 252 316.08 
" clip-path="url(#p37dc929f6d)" style="fill: none; stroke: #808080; stroke-width: 0.8; stroke-linecap: square"/>
     </g>
     <g id="text_7">
      <!-- 270° -->
      <g transform="translate(237.5475 333.39125) scale(0.12 -0.12)">
       <defs>
        <path id="DejaVuSans-37" d="M 525 4666 
L 3525 4666 
L 3525 4397 
L 1831 0 
L 1172 0 
L 2766 4134 
L 525 4134 
L 525 4666 
z
" transform="scale(0.015625)"/>
       </defs>
       <use xlink:href="#DejaVuSans-32"/>
       <use xlink:href="#DejaVuSans-37" transform="translate(63.623047 0)"/>
       <use xlink:href="#DejaVuSans-30" transform="translate(127.246094 0)"/>
       <use xlink:href="#DejaVuSans-b0" transform="translate(190.869141 0)"/>
      </g>
     </g>
    </g>
    <g id="xtick_8">
     <g id="line2d_8">
      <path d="M 252 181 
L 347.515984 276.515984 
" clip-path="url(#p37dc929f6d)" style="fill: none; stroke: #808080; stroke-width: 0.8; stroke-linecap: square"/>
     </g>
     <g id="text_8">
      <!-- 315° -->
      <g transform="translate(342.962979 289.726729) scale(0.12 -0.12)">
       <use xlink:href="#DejaVuSans-33"/>
       <use xlink:href="#DejaVuSans-31" transform="translate(63.623047 0)"/>
       <use xlink:href="#DejaVuSans-35" transform="translate(127.246094 0)"/>
       <use xlink:href="#DejaVuSans-b0" transform="translate(190.869141 0)"/>
      </g>
     </g>
    </g>
    <g id="text_9">
     <!-- frequency [Hz] -->
     <g transform="translate(207.658125 349.005) scale(0.12 -0.12)">
      <defs>
       <path id="DejaVuSans-66" d="M 2375 4863 
L 2375 4384 
L 1825 4384 
Q 1516 4384 1395 4259 
Q 1275 4134 1275 3809 
L 1275 3500 
L 2222 3500 
L 2222 3053 
L 1275 3053 
L 1275 0 
L 697 0 
L 697 3053 
L 147 3053 
L 147 3500 
L 697 3500 
L 697 3744 
Q 697 4328 969 4595 
Q 1241 4863 1831 4863 
L 2375 4863 
z
" transform="scale(0.015625)"/>
       <path id="DejaVuSans-72" d="M 2631 2963 
Q 2534 3019 2420 3045 
Q 2306 3072 2169 3072 
Q 1681 3072 1420 2755 
Q 1159 2438 1159 1844 
L 1159 0 
L 581 0 
L 581 3500 
L 1159 3500 
L 1159 2956 
Q 1341 3275 1631 3429 
Q 1922 3584 2338 3584 
Q 2397 3584 2469 3576 
Q 2541 3569 2628 3553 
L 2631 2963 
z
" transform="scale(0.015625)"/>
       <path id="DejaVuSans-65" d="M 3597 1894 
L 3597 1613 
L 953 1613 
Q 991 1019 1311 708 
Q 1631 397 2203 397 
Q 2534 397 2845 478 
Q 3156 559 3463 722 
L 3463 178 
Q 3153 47 2828 -22 
Q 2503 -91 2169 -91 
Q 1331 -91 842 396 
Q 353 884 353 1716 
Q 353 2575 817 3079 
Q 1281 3584 2069 3584 
Q 2775 3584 3186 3129 
Q 3597 2675 3597 1894 
z
M 3022 2063 
Q 3016 2534 2758 2815 
Q 2500 3097 2075 3097 
Q 1594 3097 1305 2825 
Q 1016 2553 972 2059 
L 3022 2063 
z
" transform="scale(0.015625)"/>
       <path id="DejaVuSans-71" d="M 947 1747 
Q 947 1113 1208 752 
Q 1469 391 1925 391 
Q 2381 391 2643 752 
Q 2906 1113 2906 1747 
Q 2906 2381 2643 2742 
Q 2381 3103 1925 3103 
Q 1469 3103 1208 2742 
Q 947 2381 947 1747 
z
M 2906 525 
Q 2725 213 2448 61 
Q 2172 -91 1784 -91 
Q 1150 -91 751 415 
Q 353 922 353 1747 
Q 353 2572 751 3078 
Q 1150 3584 1784 3584 
Q 2172 3584 2448 3432 
Q 2725 3281 2906 2969 
L 2906 3500 
L 3481 3500 
L 3481 -1331 
L 2906 -1331 
L 2906 525 
z
" transform="scale(0.015625)"/>
       <path id="DejaVuSans-75" d="M 544 1381 
L 544 3500 
L 1119 3500 
L 1119 1403 
Q 1119 906 1312 657 
Q 1506 409 1894 409 
Q 2359 409 2629 706 
Q 2900 1003 2900 1516 
L 2900 3500 
L 3475 3500 
L 3475 0 
L 2900 0 
L 2900 538 
Q 2691 219 2414 64 
Q 2138 -91 1772 -91 
Q 1169 -91 856 284 
Q 544 659 544 1381 
z
M 1991 3584 
L 1991 3584 
z
" transform="scale(0.015625)"/>
       <path id="DejaVuSans-6e" d="M 3513 2113 
L 3513 0 
L 2938 0 
L 2938 2094 
Q 2938 2591 2744 2837 
Q 2550 3084 2163 3084 
Q 1697 3084 1428 2787 
Q 1159 2491 1159 1978 
L 1159 0 
L 581 0 
L 581 3500 
L 1159 3500 
L 1159 2956 
Q 1366 3272 1645 3428 
Q 1925 3584 2291 3584 
Q 2894 3584 3203 3211 
Q 3513 2838 3513 2113 
z
" transform="scale(0.015625)"/>
       <path id="DejaVuSans-63" d="M 3122 3366 
L 3122 2828 
Q 2878 2963 2633 3030 
Q 2388 3097 2138 3097 
Q 1578 3097 1268 2742 
Q 959 2388 959 1747 
Q 959 1106 1268 751 
Q 1578 397 2138 397 
Q 2388 397 2633 464 
Q 2878 531 3122 666 
L 3122 134 
Q 2881 22 2623 -34 
Q 2366 -91 2075 -91 
Q 1284 -91 818 406 
Q 353 903 353 1747 
Q 353 2603 823 3093 
Q 1294 3584 2113 3584 
Q 2378 3584 2631 3529 
Q 2884 3475 3122 3366 
z
" transform="scale(0.015625)"/>
       <path id="DejaVuSans-79" d="M 2059 -325 
Q 1816 -950 1584 -1140 
Q 1353 -1331 966 -1331 
L 506 -1331 
L 506 -850 
L 844 -850 
Q 1081 -850 1212 -737 
Q 1344 -625 1503 -206 
L 1606 56 
L 191 3500 
L 800 3500 
L 1894 763 
L 2988 3500 
L 3597 3500 
L 2059 -325 
z
" transform="scale(0.015625)"/>
       <path id="DejaVuSans-20" transform="scale(0.015625)"/>
       <path id="DejaVuSans-5b" d="M 550 4863 
L 1875 4863 
L 1875 4416 
L 1125 4416 
L 1125 -397 
L 1875 -397 
L 1875 -844 
L 550 -844 
L 550 4863 
z
" transform="scale(0.015625)"/>
       <path id="DejaVuSans-48" d="M 628 4666 
L 1259 4666 
L 1259 2753 
L 3553 2753 
L 3553 4666 
L 4184 4666 
L 4184 0 
L 3553 0 
L 3553 2222 
L 1259 2222 
L 1259 0 
L 628 0 
L 628 4666 
z
" transform="scale(0.015625)"/>
       <path id="DejaVuSans-7a" d="M 353 3500 
L 3084 3500 
L 3084 2975 
L 922 459 
L 3084 459 
L 3084 0 
L 275 0 
L 275 525 
L 2438 3041 
L 353 3041 
L 353 3500 
z
" transform="scale(0.015625)"/>
       <path id="DejaVuSans-5d" d="M 1947 4863 
L 1947 -844 
L 622 -844 
L 622 -397 
L 1369 -397 
L 1369 4416 
L 622 4416 
L 622 4863 
L 1947 4863 
z
" transform="scale(0.015625)"/>
      </defs>
      <use xlink:href="#DejaVuSans-66"/>
      <use xlink:href="#DejaVuSans-72" transform="translate(35.205078 0)"/>
      <use xlink:href="#DejaVuSans-65" transform="translate(74.068359 0)"/>
      <use xlink:href="#DejaVuSans-71" transform="translate(135.591797 0)"/>
      <use xlink:href="#DejaVuSans-75" transform="translate(199.068359 0)"/>
      <use xlink:href="#DejaVuSans-65" transform="translate(262.447266 0)"/>
      <use xlink:href="#DejaVuSans-6e" transform="translate(323.970703 0)"/>
      <use xlink:href="#DejaVuSans-63" transform="translate(387.349609 0)"/>
      <use xlink:href="#DejaVuSans-79" transform="translate(442.330078 0)"/>
      <use xlink:href="#DejaVuSans-20" transform="translate(501.509766 0)"/>
      <use xlink:href="#DejaVuSans-5b" transform="translate(533.296875 0)"/>
      <use xlink:href="#DejaVuSans-48" transform="translate(572.310547 0)"/>
      <use xlink:href="#DejaVuSans-7a" transform="translate(647.505859 0)"/>
      <use xlink:href="#DejaVuSans-5d" transform="translate(699.996094 0)"/>
     </g>
    </g>
   </g>
   <g id="matplotlib.axis_2">
    <g id="ytick_1">
     <g id="line2d_9">
      <path d="M 277.907622 181 
C 277.907622 177.597842 277.237471 174.228766 275.935521 171.085582 
C 274.633572 167.942399 272.725144 165.086234 270.319455 162.680545 
C 267.913766 160.274856 265.057601 158.366428 261.914418 157.064479 
C 258.771234 155.762529 255.402158 155.092378 252 155.092378 
C 248.597842 155.092378 245.228766 155.762529 242.085582 157.064479 
C 238.942399 158.366428 236.086234 160.274856 233.680545 162.680545 
C 231.274856 165.086234 229.366428 167.942399 228.064479 171.085582 
C 226.762529 174.228766 226.092378 177.597842 226.092378 181 
C 226.092378 184.402158 226.762529 187.771234 228.064479 190.914418 
C 229.366428 194.057601 231.274856 196.913766 233.680545 199.319455 
C 236.086234 201.725144 238.942399 203.633572 242.085582 204.935521 
C 245.228766 206.237471 248.597842 206.907622 252 206.907622 
C 255.402158 206.907622 258.771234 206.237471 261.914418 204.935521 
C 265.057601 203.633572 267.913766 201.725144 270.319455 199.319455 
C 272.725144 196.913766 274.633572 194.057601 275.935521 190.914418 
C 277.237471 187.771234 277.907622 184.402158 277.907622 181 
" clip-path="url(#p37dc929f6d)" style="fill: none; stroke: #808080; stroke-width: 0.8; stroke-linecap: square"/>
     </g>
     <g id="text_10">
      <!-- 200 -->
      <g transform="translate(275.935521 168.589957) scale(0.12 -0.12)">
       <use xlink:href="#DejaVuSans-32"/>
       <use xlink:href="#DejaVuSans-30" transform="translate(63.623047 0)"/>
       <use xlink:href="#DejaVuSans-30" transform="translate(127.246094 0)"/>
      </g>
     </g>
    </g>
    <g id="ytick_2">
     <g id="line2d_10">
      <path d="M 303.815243 181 
C 303.815243 174.195685 302.474941 167.457533 299.871043 161.171165 
C 297.267144 154.884797 293.450287 149.172468 288.63891 144.36109 
C 283.827532 139.549713 278.115203 135.732856 271.828835 133.128957 
C 265.542467 130.525059 258.804315 129.184757 252 129.184757 
C 245.195685 129.184757 238.457533 130.525059 232.171165 133.128957 
C 225.884797 135.732856 220.172468 139.549713 215.36109 144.36109 
C 210.549713 149.172468 206.732856 154.884797 204.128957 161.171165 
C 201.525059 167.457533 200.184757 174.195685 200.184757 181 
C 200.184757 187.804315 201.525059 194.542467 204.128957 200.828835 
C 206.732856 207.115203 210.549713 212.827532 215.36109 217.63891 
C 220.172468 222.450287 225.884797 226.267144 232.171165 228.871043 
C 238.457533 231.474941 245.195685 232.815243 252 232.815243 
C 258.804315 232.815243 265.542467 231.474941 271.828835 228.871043 
C 278.115203 226.267144 283.827532 222.450287 288.63891 217.63891 
C 293.450287 212.827532 297.267144 207.115203 299.871043 200.828835 
C 302.474941 194.542467 303.815243 187.804315 303.815243 181 
" clip-path="url(#p37dc929f6d)" style="fill: none; stroke: #808080; stroke-width: 0.8; stroke-linecap: square"/>
     </g>
     <g id="text_11">
      <!-- 400 -->
      <g transform="translate(299.871043 158.67554) scale(0.12 -0.12)">
       <use xlink:href="#DejaVuSans-34"/>
       <use xlink:href="#DejaVuSans-30" transform="translate(63.623047 0)"/>
       <use xlink:href="#DejaVuSans-30" transform="translate(127.246094 0)"/>
      </g>
     </g>
    </g>
    <g id="ytick_3">
     <g id="line2d_11">
      <path d="M 329.722865 181 
C 329.722865 170.793527 327.712412 160.686299 323.806564 151.256747 
C 319.900716 141.827196 314.175431 133.258702 306.958365 126.041635 
C 299.741298 118.824569 291.172804 113.099284 281.743253 109.193436 
C 272.313701 105.287588 262.206473 103.277135 252 103.277135 
C 241.793527 103.277135 231.686299 105.287588 222.256747 109.193436 
C 212.827196 113.099284 204.258702 118.824569 197.041635 126.041635 
C 189.824569 133.258702 184.099284 141.827196 180.193436 151.256747 
C 176.287588 160.686299 174.277135 170.793527 174.277135 181 
C 174.277135 191.206473 176.287588 201.313701 180.193436 210.743253 
C 184.099284 220.172804 189.824569 228.741298 197.041635 235.958365 
C 204.258702 243.175431 212.827196 248.900716 222.256747 252.806564 
C 231.686299 256.712412 241.793527 258.722865 252 258.722865 
C 262.206473 258.722865 272.313701 256.712412 281.743253 252.806564 
C 291.172804 248.900716 299.741298 243.175431 306.958365 235.958365 
C 314.175431 228.741298 319.900716 220.172804 323.806564 210.743253 
C 327.712412 201.313701 329.722865 191.206473 329.722865 181 
" clip-path="url(#p37dc929f6d)" style="fill: none; stroke: #808080; stroke-width: 0.8; stroke-linecap: square"/>
     </g>
     <g id="text_12">
      <!-- 600 -->
      <g transform="translate(323.806564 148.761122) scale(0.12 -0.12)">
       <defs>
        <path id="DejaVuSans-36" d="M 2113 2584 
Q 1688 2584 1439 2293 
Q 1191 2003 1191 1497 
Q 1191 994 1439 701 
Q 1688 409 2113 409 
Q 2538 409 2786 701 
Q 3034 994 3034 1497 
Q 3034 2003 2786 2293 
Q 2538 2584 2113 2584 
z
M 3366 4563 
L 3366 3988 
Q 3128 4100 2886 4159 
Q 2644 4219 2406 4219 
Q 1781 4219 1451 3797 
Q 1122 3375 1075 2522 
Q 1259 2794 1537 2939 
Q 1816 3084 2150 3084 
Q 2853 3084 3261 2657 
Q 3669 2231 3669 1497 
Q 3669 778 3244 343 
Q 2819 -91 2113 -91 
Q 1303 -91 875 529 
Q 447 1150 447 2328 
Q 447 3434 972 4092 
Q 1497 4750 2381 4750 
Q 2619 4750 2861 4703 
Q 3103 4656 3366 4563 
z
" transform="scale(0.015625)"/>
       </defs>
       <use xlink:href="#DejaVuSans-36"/>
       <use xlink:href="#DejaVuSans-30" transform="translate(63.623047 0)"/>
       <use xlink:href="#DejaVuSans-30" transform="translate(127.246094 0)"/>
      </g>
     </g>
    </g>
    <g id="ytick_4">
     <g id="line2d_12">
      <path d="M 355.630486 181 
C 355.630486 167.391369 352.949883 153.915065 347.742085 141.34233 
C 342.534288 128.769594 334.900575 117.344936 325.27782 107.72218 
C 315.655064 98.099425 304.230406 90.465712 291.65767 85.257915 
C 279.084935 80.050117 265.608631 77.369514 252 77.369514 
C 238.391369 77.369514 224.915065 80.050117 212.34233 85.257915 
C 199.769594 90.465712 188.344936 98.099425 178.72218 107.72218 
C 169.099425 117.344936 161.465712 128.769594 156.257915 141.34233 
C 151.050117 153.915065 148.369514 167.391369 148.369514 181 
C 148.369514 194.608631 151.050117 208.084935 156.257915 220.65767 
C 161.465712 233.230406 169.099425 244.655064 178.72218 254.27782 
C 188.344936 263.900575 199.769594 271.534288 212.34233 276.742085 
C 224.915065 281.949883 238.391369 284.630486 252 284.630486 
C 265.608631 284.630486 279.084935 281.949883 291.65767 276.742085 
C 304.230406 271.534288 315.655064 263.900575 325.27782 254.27782 
C 334.900575 244.655064 342.534288 233.230406 347.742085 220.65767 
C 352.949883 208.084935 355.630486 194.608631 355.630486 181 
" clip-path="url(#p37dc929f6d)" style="fill: none; stroke: #808080; stroke-width: 0.8; stroke-linecap: square"/>
     </g>
     <g id="text_13">
      <!-- 800 -->
      <g transform="translate(347.742085 138.846705) scale(0.12 -0.12)">
       <use xlink:href="#DejaVuSans-38"/>
       <use xlink:href="#DejaVuSans-30" transform="translate(63.623047 0)"/>
       <use xlink:href="#DejaVuSans-30" transform="translate(127.246094 0)"/>
      </g>
     </g>
    </g>
    <g id="ytick_5">
     <g id="line2d_13">
      <path d="M 381.538108 181 
C 381.538108 163.989212 378.187353 147.143832 371.677606 131.427912 
C 365.16786 115.711993 355.625718 101.431169 343.597274 89.402726 
C 331.568831 77.374282 317.288007 67.83214 301.572088 61.322394 
C 285.856168 54.812647 269.010788 51.461892 252 51.461892 
C 234.989212 51.461892 218.143832 54.812647 202.427912 61.322394 
C 186.711993 67.83214 172.431169 77.374282 160.402726 89.402726 
C 148.374282 101.431169 138.83214 115.711993 132.322394 131.427912 
C 125.812647 147.143832 122.461892 163.989212 122.461892 181 
C 122.461892 198.010788 125.812647 214.856168 132.322394 230.572088 
C 138.83214 246.288007 148.374282 260.568831 160.402726 272.597274 
C 172.431169 284.625718 186.711993 294.16786 202.427912 300.677606 
C 218.143832 307.187353 234.989212 310.538108 252 310.538108 
C 269.010788 310.538108 285.856168 307.187353 301.572088 300.677606 
C 317.288007 294.16786 331.568831 284.625718 343.597274 272.597274 
C 355.625718 260.568831 365.16786 246.288007 371.677606 230.572088 
C 378.187353 214.856168 381.538108 198.010788 381.538108 181 
" clip-path="url(#p37dc929f6d)" style="fill: none; stroke: #808080; stroke-width: 0.8; stroke-linecap: square"/>
     </g>
     <g id="text_14">
      <!-- 1000 -->
      <g transform="translate(371.677606 128.932287) scale(0.12 -0.12)">
       <use xlink:href="#DejaVuSans-31"/>
       <use xlink:href="#DejaVuSans-30" transform="translate(63.623047 0)"/>
       <use xlink:href="#DejaVuSans-30" transform="translate(127.246094 0)"/>
       <use xlink:href="#DejaVuSans-30" transform="translate(190.869141 0)"/>
      </g>
     </g>
    </g>
    <g id="text_15">
     <!-- magnitude [] -->
     <g transform="translate(110.424375 220.044062) rotate(-90) scale(0.12 -0.12)">
      <defs>
       <path id="DejaVuSans-6d" d="M 3328 2828 
Q 3544 3216 3844 3400 
Q 4144 3584 4550 3584 
Q 5097 3584 5394 3201 
Q 5691 2819 5691 2113 
L 5691 0 
L 5113 0 
L 5113 2094 
Q 5113 2597 4934 2840 
Q 4756 3084 4391 3084 
Q 3944 3084 3684 2787 
Q 3425 2491 3425 1978 
L 3425 0 
L 2847 0 
L 2847 2094 
Q 2847 2600 2669 2842 
Q 2491 3084 2119 3084 
Q 1678 3084 1418 2786 
Q 1159 2488 1159 1978 
L 1159 0 
L 581 0 
L 581 3500 
L 1159 3500 
L 1159 2956 
Q 1356 3278 1631 3431 
Q 1906 3584 2284 3584 
Q 2666 3584 2933 3390 
Q 3200 3197 3328 2828 
z
" transform="scale(0.015625)"/>
       <path id="DejaVuSans-61" d="M 2194 1759 
Q 1497 1759 1228 1600 
Q 959 1441 959 1056 
Q 959 750 1161 570 
Q 1363 391 1709 391 
Q 2188 391 2477 730 
Q 2766 1069 2766 1631 
L 2766 1759 
L 2194 1759 
z
M 3341 1997 
L 3341 0 
L 2766 0 
L 2766 531 
Q 2569 213 2275 61 
Q 1981 -91 1556 -91 
Q 1019 -91 701 211 
Q 384 513 384 1019 
Q 384 1609 779 1909 
Q 1175 2209 1959 2209 
L 2766 2209 
L 2766 2266 
Q 2766 2663 2505 2880 
Q 2244 3097 1772 3097 
Q 1472 3097 1187 3025 
Q 903 2953 641 2809 
L 641 3341 
Q 956 3463 1253 3523 
Q 1550 3584 1831 3584 
Q 2591 3584 2966 3190 
Q 3341 2797 3341 1997 
z
" transform="scale(0.015625)"/>
       <path id="DejaVuSans-67" d="M 2906 1791 
Q 2906 2416 2648 2759 
Q 2391 3103 1925 3103 
Q 1463 3103 1205 2759 
Q 947 2416 947 1791 
Q 947 1169 1205 825 
Q 1463 481 1925 481 
Q 2391 481 2648 825 
Q 2906 1169 2906 1791 
z
M 3481 434 
Q 3481 -459 3084 -895 
Q 2688 -1331 1869 -1331 
Q 1566 -1331 1297 -1286 
Q 1028 -1241 775 -1147 
L 775 -588 
Q 1028 -725 1275 -790 
Q 1522 -856 1778 -856 
Q 2344 -856 2625 -561 
Q 2906 -266 2906 331 
L 2906 616 
Q 2728 306 2450 153 
Q 2172 0 1784 0 
Q 1141 0 747 490 
Q 353 981 353 1791 
Q 353 2603 747 3093 
Q 1141 3584 1784 3584 
Q 2172 3584 2450 3431 
Q 2728 3278 2906 2969 
L 2906 3500 
L 3481 3500 
L 3481 434 
z
" transform="scale(0.015625)"/>
       <path id="DejaVuSans-69" d="M 603 3500 
L 1178 3500 
L 1178 0 
L 603 0 
L 603 3500 
z
M 603 4863 
L 1178 4863 
L 1178 4134 
L 603 4134 
L 603 4863 
z
" transform="scale(0.015625)"/>
       <path id="DejaVuSans-74" d="M 1172 4494 
L 1172 3500 
L 2356 3500 
L 2356 3053 
L 1172 3053 
L 1172 1153 
Q 1172 725 1289 603 
Q 1406 481 1766 481 
L 2356 481 
L 2356 0 
L 1766 0 
Q 1100 0 847 248 
Q 594 497 594 1153 
L 594 3053 
L 172 3053 
L 172 3500 
L 594 3500 
L 594 4494 
L 1172 4494 
z
" transform="scale(0.015625)"/>
       <path id="DejaVuSans-64" d="M 2906 2969 
L 2906 4863 
L 3481 4863 
L 3481 0 
L 2906 0 
L 2906 525 
Q 2725 213 2448 61 
Q 2172 -91 1784 -91 
Q 1150 -91 751 415 
Q 353 922 353 1747 
Q 353 2572 751 3078 
Q 1150 3584 1784 3584 
Q 2172 3584 2448 3432 
Q 2725 3281 2906 2969 
z
M 947 1747 
Q 947 1113 1208 752 
Q 1469 391 1925 391 
Q 2381 391 2643 752 
Q 2906 1113 2906 1747 
Q 2906 2381 2643 2742 
Q 2381 3103 1925 3103 
Q 1469 3103 1208 2742 
Q 947 2381 947 1747 
z
" transform="scale(0.015625)"/>
      </defs>
      <use xlink:href="#DejaVuSans-6d"/>
      <use xlink:href="#DejaVuSans-61" transform="translate(97.412109 0)"/>
      <use xlink:href="#DejaVuSans-67" transform="translate(158.691406 0)"/>
      <use xlink:href="#DejaVuSans-6e" transform="translate(222.167969 0)"/>
      <use xlink:href="#DejaVuSans-69" transform="translate(285.546875 0)"/>
      <use xlink:href="#DejaVuSans-74" transform="translate(313.330078 0)"/>
      <use xlink:href="#DejaVuSans-75" transform="translate(352.539062 0)"/>
      <use xlink:href="#DejaVuSans-64" transform="translate(415.917969 0)"/>
      <use xlink:href="#DejaVuSans-65" transform="translate(479.394531 0)"/>
      <use xlink:href="#DejaVuSans-20" transform="translate(540.917969 0)"/>
      <use xlink:href="#DejaVuSans-5b" transform="translate(572.705078 0)"/>
      <use xlink:href="#DejaVuSans-5d" transform="translate(611.71875 0)"/>
     </g>
    </g>
   </g>
   <g id="line2d_14">
    <path d="M 252.165159 52.352439 
L 252.165159 63.781173 
L 252.165159 74.194614 
L 252.165159 83.682958 
L 252.165159 92.328388 
L 252.165159 100.205787 
L 252.165159 107.383385 
L 252.165159 113.923351 
L 252.165158 119.882331 
L 252.165158 125.311939 
L 252.165158 130.259204 
L 252.165158 134.766976 
L 252.165157 138.874301 
L 252.165157 142.616752 
L 252.165156 146.026746 
L 252.165155 149.133819 
L 252.165154 151.964881 
L 252.165153 154.544456 
L 252.165152 156.894885 
L 252.16515 159.036528 
L 252.165148 160.987933 
L 252.165146 162.766003 
L 252.165143 164.386139 
L 252.16514 165.862374 
L 252.165136 167.207494 
L 252.165131 168.433149 
L 252.165125 169.549957 
L 252.165119 170.56759 
L 252.16511 171.494862 
L 252.1651 172.339805 
L 252.165088 173.109738 
L 252.165073 173.811329 
L 252.165055 174.450655 
L 252.165034 175.033254 
L 252.165008 175.564171 
L 252.164977 176.048005 
L 252.16494 176.488947 
L 252.164895 176.890816 
L 252.164841 177.257092 
L 252.164776 177.590948 
L 252.164698 177.895276 
L 252.164604 178.17271 
L 252.164491 178.425653 
L 252.164355 178.656295 
L 252.164192 178.866633 
L 252.163995 179.058489 
L 252.163759 179.23352 
L 252.163475 179.393243 
L 252.163135 179.539037 
L 252.162727 179.672161 
L 252.162238 179.793765 
L 252.161654 179.904894 
L 252.160955 180.006503 
L 252.160121 180.099462 
L 252.159129 180.184563 
L 252.157949 180.262525 
L 252.156551 180.334 
L 252.1549 180.399582 
L 252.152957 180.4598 
L 252.150681 180.515135 
L 252.148027 180.56601 
L 252.144952 180.6128 
L 252.141413 180.655833 
L 252.137374 180.695389 
L 252.132805 180.731707 
L 252.127689 180.764984 
L 252.122028 180.795386 
L 252.115841 180.823045 
L 252.109174 180.848075 
L 252.102097 180.870577 
L 252.094702 180.890648 
L 252.087103 180.90839 
L 252.079426 180.923917 
L 252.071803 180.937361 
L 252.064363 180.948871 
L 252.057221 180.958613 
L 252.050475 180.966765 
L 252.044199 180.973512 
L 252.038441 180.979036 
L 252.033227 180.983515 
L 252.028562 180.987113 
L 252.024429 180.98998 
L 252.020804 180.992246 
L 252.017649 180.994026 
L 252.014923 180.995416 
L 252.012583 180.996496 
L 252.010583 180.99733 
L 252.008883 180.997973 
L 252.007442 180.998466 
L 252.006226 180.998843 
L 252.005202 180.99913 
L 252.004342 180.999349 
L 252.003621 180.999515 
L 252.003017 180.99964 
L 252.002513 180.999735 
L 252.002091 180.999806 
L 252.00174 180.99986 
L 252.001447 180.9999 
L 252.001203 180.999929 
L 252.001 180.999952 
" clip-path="url(#p37dc929f6d)" style="fill: none; stroke: #0000ff; stroke-width: 2; stroke-linecap: square"/>
   </g>
   <g id="patch_3">
    <path d="M 387.08 181 
C 387.08 163.261457 383.585894 145.695399 376.797647 129.307122 
C 370.009401 112.918845 360.059028 98.02706 347.515984 85.484016 
C 334.97294 72.940972 320.081155 62.990599 303.692878 56.202353 
C 287.304601 49.414106 269.738543 45.92 252 45.92 
C 234.261457 45.92 216.695399 49.414106 200.307122 56.202353 
C 183.918845 62.990599 169.02706 72.940972 156.484016 85.484016 
C 143.940972 98.02706 133.990599 112.918845 127.202353 129.307122 
C 120.414106 145.695399 116.92 163.261457 116.92 181 
C 116.92 198.738543 120.414106 216.304601 127.202353 232.692878 
C 133.990599 249.081155 143.940972 263.97294 156.484016 276.515984 
C 169.02706 289.059028 183.918845 299.009401 200.307122 305.797647 
C 216.695399 312.585894 234.261457 316.08 252 316.08 
C 269.738543 316.08 287.304601 312.585894 303.692878 305.797647 
C 320.081155 299.009401 334.97294 289.059028 347.515984 276.515984 
C 360.059028 263.97294 370.009401 249.081155 376.797647 232.692878 
C 383.585894 216.304601 387.08 198.738543 387.08 181 
" style="fill: none; stroke: #000000; stroke-width: 0.8; stroke-linejoin: miter; stroke-linecap: square"/>
   </g>
   <g id="text_16">
    <!-- Polar plot -->
    <g transform="translate(223.711875 20.113125) scale(0.12 -0.12)">
     <defs>
      <path id="DejaVuSans-50" d="M 1259 4147 
L 1259 2394 
L 2053 2394 
Q 2494 2394 2734 2622 
Q 2975 2850 2975 3272 
Q 2975 3691 2734 3919 
Q 2494 4147 2053 4147 
L 1259 4147 
z
M 628 4666 
L 2053 4666 
Q 2838 4666 3239 4311 
Q 3641 3956 3641 3272 
Q 3641 2581 3239 2228 
Q 2838 1875 2053 1875 
L 1259 1875 
L 1259 0 
L 628 0 
L 628 4666 
z
" transform="scale(0.015625)"/>
      <path id="DejaVuSans-6f" d="M 1959 3097 
Q 1497 3097 1228 2736 
Q 959 2375 959 1747 
Q 959 1119 1226 758 
Q 1494 397 1959 397 
Q 2419 397 2687 759 
Q 2956 1122 2956 1747 
Q 2956 2369 2687 2733 
Q 2419 3097 1959 3097 
z
M 1959 3584 
Q 2709 3584 3137 3096 
Q 3566 2609 3566 1747 
Q 3566 888 3137 398 
Q 2709 -91 1959 -91 
Q 1206 -91 779 398 
Q 353 888 353 1747 
Q 353 2609 779 3096 
Q 1206 3584 1959 3584 
z
" transform="scale(0.015625)"/>
      <path id="DejaVuSans-6c" d="M 603 4863 
L 1178 4863 
L 1178 0 
L 603 0 
L 603 4863 
z
" transform="scale(0.015625)"/>
      <path id="DejaVuSans-70" d="M 1159 525 
L 1159 -1331 
L 581 -1331 
L 581 3500 
L 1159 3500 
L 1159 2969 
Q 1341 3281 1617 3432 
Q 1894 3584 2278 3584 
Q 2916 3584 3314 3078 
Q 3713 2572 3713 1747 
Q 3713 922 3314 415 
Q 2916 -91 2278 -91 
Q 1894 -91 1617 61 
Q 1341 213 1159 525 
z
M 3116 1747 
Q 3116 2381 2855 2742 
Q 2594 3103 2138 3103 
Q 1681 3103 1420 2742 
Q 1159 2381 1159 1747 
Q 1159 1113 1420 752 
Q 1681 391 2138 391 
Q 2594 391 2855 752 
Q 3116 1113 3116 1747 
z
" transform="scale(0.015625)"/>
     </defs>
     <use xlink:href="#DejaVuSans-50"/>
     <use xlink:href="#DejaVuSans-6f" transform="translate(56.677734 0)"/>
     <use xlink:href="#DejaVuSans-6c" transform="translate(117.859375 0)"/>
     <use xlink:href="#DejaVuSans-61" transform="translate(145.642578 0)"/>
     <use xlink:href="#DejaVuSans-72" transform="translate(206.921875 0)"/>
     <use xlink:href="#DejaVuSans-20" transform="translate(248.035156 0)"/>
     <use xlink:href="#DejaVuSans-70" transform="translate(279.822266 0)"/>
     <use xlink:href="#DejaVuSans-6c" transform="translate(343.298828 0)"/>
     <use xlink:href="#DejaVuSans-6f" transform="translate(371.082031 0)"/>
     <use xlink:href="#DejaVuSans-74" transform="translate(432.263672 0)"/>
    </g>
   </g>
   <g id="legend_1">
    <g id="patch_4">
     <path d="M 342.169375 66.53375 
L 380.08 66.53375 
Q 382.08 66.53375 382.08 64.53375 
L 382.08 52.92 
Q 382.08 50.92 380.08 50.92 
L 342.169375 50.92 
Q 340.169375 50.92 340.169375 52.92 
L 340.169375 64.53375 
Q 340.169375 66.53375 342.169375 66.53375 
z
" style="fill: #ffffff; opacity: 0.8; stroke: #cccccc; stroke-linejoin: miter"/>
    </g>
    <g id="line2d_15">
     <path d="M 342.169375 58.538125 
L 347.169375 58.538125 
L 352.169375 58.538125 
" style="fill: none; stroke: #0000ff; stroke-width: 2; stroke-linecap: square"/>
    </g>
    <g id="text_17">
     <!-- gain -->
     <g transform="translate(354.169375 62.038125) scale(0.12 -0.12)">
      <use xlink:href="#DejaVuSans-67"/>
      <use xlink:href="#DejaVuSans-61" transform="translate(63.476562 0)"/>
      <use xlink:href="#DejaVuSans-69" transform="translate(124.755859 0)"/>
      <use xlink:href="#DejaVuSans-6e" transform="translate(152.539062 0)"/>
     </g>
    </g>
   </g>
  </g>
 </g>
 <defs>
  <clipPath id="p37dc929f6d">
   <path d="M 387.08 181 
C 387.08 163.261457 383.585894 145.695399 376.797647 129.307122 
C 370.009401 112.918845 360.059028 98.02706 347.515984 85.484016 
C 334.97294 72.940972 320.081155 62.990599 303.692878 56.202353 
C 287.304601 49.414106 269.738543 45.92 252 45.92 
C 234.261457 45.92 216.695399 49.414106 200.307122 56.202353 
C 183.918845 62.990599 169.02706 72.940972 156.484016 85.484016 
C 143.940972 98.02706 133.990599 112.918845 127.202353 129.307122 
C 120.414106 145.695399 116.92 163.261457 116.92 181 
C 116.92 198.738543 120.414106 216.304601 127.202353 232.692878 
C 133.990599 249.081155 143.940972 263.97294 156.484016 276.515984 
C 169.02706 289.059028 183.918845 299.009401 200.307122 305.797647 
C 216.695399 312.585894 234.261457 316.08 252 316.08 
C 269.738543 316.08 287.304601 312.585894 303.692878 305.797647 
C 320.081155 299.009401 334.97294 289.059028 347.515984 276.515984 
C 360.059028 263.97294 370.009401 249.081155 376.797647 232.692878 
C 383.585894 216.304601 387.08 198.738543 387.08 181 
M 252 181 
C 252 181 252 181 252 181 
C 252 181 252 181 252 181 
C 252 181 252 181 252 181 
C 252 181 252 181 252 181 
C 252 181 252 181 252 181 
C 252 181 252 181 252 181 
C 252 181 252 181 252 181 
C 252 181 252 181 252 181 
C 252 181 252 181 252 181 
C 252 181 252 181 252 181 
C 252 181 252 181 252 181 
C 252 181 252 181 252 181 
C 252 181 252 181 252 181 
C 252 181 252 181 252 181 
C 252 181 252 181 252 181 
C 252 181 252 181 252 181 
z
"/>
  </clipPath>
 </defs>
</svg>
