<?xml version="1.0" encoding="utf-8" standalone="no"?>
<!DOCTYPE svg PUBLIC "-//W3C//DTD SVG 1.1//EN"
  "http://www.w3.org/Graphics/SVG/1.1/DTD/svg11.dtd">
<svg xmlns:xlink="http://www.w3.org/1999/xlink" width="504pt" height="360pt" viewBox="0 0 504 360" xmlns="http://www.w3.org/2000/svg" version="1.1">
 <metadata>
  <rdf:RDF xmlns:dc="http://purl.org/dc/elements/1.1/" xmlns:cc="http://creativecommons.org/ns#" xmlns:rdf="http://www.w3.org/1999/02/22-rdf-syntax-ns#">
   <cc:Work>
    <dc:type rdf:resource="http://purl.org/dc/dcmitype/StillImage"/>
    <dc:date>2024-11-18T11:14:07.743602</dc:date>
    <dc:format>image/svg+xml</dc:format>
    <dc:creator>
     <cc:Agent>
      <dc:title>Matplotlib v3.9.2, https://matplotlib.org/</dc:title>
     </cc:Agent>
    </dc:creator>
   </cc:Work>
  </rdf:RDF>
 </metadata>
 <defs>
  <style type="text/css">*{stroke-linejoin: round; stroke-linecap: butt}</style>
 </defs>
 <g id="figure_1">
  <g id="patch_1">
   <path d="M 0 360 
L 504 360 
L 504 0 
L 0 0 
z
" style="fill: #ffffff"/>
  </g>
  <g id="axes_1">
   <g id="patch_2">
    <path d="M 64.275 309.1 
L 493.2 309.1 
L 493.2 28.8 
L 64.275 28.8 
z
" style="fill: #ffffff"/>
   </g>
   <g id="matplotlib.axis_1">
    <g id="xtick_1">
     <g id="line2d_1">
      <path d="M 83.771591 309.1 
L 83.771591 28.8 
" clip-path="url(#p69fab00265)" style="fill: none; stroke: #808080; stroke-width: 0.8; stroke-linecap: square"/>
     </g>
     <g id="line2d_2">
      <defs>
       <path id="mf21b3c314c" d="M 0 0 
L 0 3.5 
" style="stroke: #000000; stroke-width: 0.8"/>
      </defs>
      <g>
       <use xlink:href="#mf21b3c314c" x="83.771591" y="309.1" style="stroke: #000000; stroke-width: 0.8"/>
      </g>
     </g>
     <g id="text_1">
      <!-- 0.00 -->
      <g transform="translate(70.412216 325.218125) scale(0.12 -0.12)">
       <defs>
        <path id="DejaVuSans-30" d="M 2034 4250 
Q 1547 4250 1301 3770 
Q 1056 3291 1056 2328 
Q 1056 1369 1301 889 
Q 1547 409 2034 409 
Q 2525 409 2770 889 
Q 3016 1369 3016 2328 
Q 3016 3291 2770 3770 
Q 2525 4250 2034 4250 
z
M 2034 4750 
Q 2819 4750 3233 4129 
Q 3647 3509 3647 2328 
Q 3647 1150 3233 529 
Q 2819 -91 2034 -91 
Q 1250 -91 836 529 
Q 422 1150 422 2328 
Q 422 3509 836 4129 
Q 1250 4750 2034 4750 
z
" transform="scale(0.015625)"/>
        <path id="DejaVuSans-2e" d="M 684 794 
L 1344 794 
L 1344 0 
L 684 0 
L 684 794 
z
" transform="scale(0.015625)"/>
       </defs>
       <use xlink:href="#DejaVuSans-30"/>
       <use xlink:href="#DejaVuSans-2e" x="63.623047"/>
       <use xlink:href="#DejaVuSans-30" x="95.410156"/>
       <use xlink:href="#DejaVuSans-30" x="159.033203"/>
      </g>
     </g>
    </g>
    <g id="xtick_2">
     <g id="line2d_3">
      <path d="M 137.928788 309.1 
L 137.928788 28.8 
" clip-path="url(#p69fab00265)" style="fill: none; stroke: #808080; stroke-width: 0.8; stroke-linecap: square"/>
     </g>
     <g id="line2d_4">
      <g>
       <use xlink:href="#mf21b3c314c" x="137.928788" y="309.1" style="stroke: #000000; stroke-width: 0.8"/>
      </g>
     </g>
     <g id="text_2">
      <!-- 0.25 -->
      <g transform="translate(124.569413 325.218125) scale(0.12 -0.12)">
       <defs>
        <path id="DejaVuSans-32" d="M 1228 531 
L 3431 531 
L 3431 0 
L 469 0 
L 469 531 
Q 828 903 1448 1529 
Q 2069 2156 2228 2338 
Q 2531 2678 2651 2914 
Q 2772 3150 2772 3378 
Q 2772 3750 2511 3984 
Q 2250 4219 1831 4219 
Q 1534 4219 1204 4116 
Q 875 4013 500 3803 
L 500 4441 
Q 881 4594 1212 4672 
Q 1544 4750 1819 4750 
Q 2544 4750 2975 4387 
Q 3406 4025 3406 3419 
Q 3406 3131 3298 2873 
Q 3191 2616 2906 2266 
Q 2828 2175 2409 1742 
Q 1991 1309 1228 531 
z
" transform="scale(0.015625)"/>
        <path id="DejaVuSans-35" d="M 691 4666 
L 3169 4666 
L 3169 4134 
L 1269 4134 
L 1269 2991 
Q 1406 3038 1543 3061 
Q 1681 3084 1819 3084 
Q 2600 3084 3056 2656 
Q 3513 2228 3513 1497 
Q 3513 744 3044 326 
Q 2575 -91 1722 -91 
Q 1428 -91 1123 -41 
Q 819 9 494 109 
L 494 744 
Q 775 591 1075 516 
Q 1375 441 1709 441 
Q 2250 441 2565 725 
Q 2881 1009 2881 1497 
Q 2881 1984 2565 2268 
Q 2250 2553 1709 2553 
Q 1456 2553 1204 2497 
Q 953 2441 691 2322 
L 691 4666 
z
" transform="scale(0.015625)"/>
       </defs>
       <use xlink:href="#DejaVuSans-30"/>
       <use xlink:href="#DejaVuSans-2e" x="63.623047"/>
       <use xlink:href="#DejaVuSans-32" x="95.410156"/>
       <use xlink:href="#DejaVuSans-35" x="159.033203"/>
      </g>
     </g>
    </g>
    <g id="xtick_3">
     <g id="line2d_5">
      <path d="M 192.085985 309.1 
L 192.085985 28.8 
" clip-path="url(#p69fab00265)" style="fill: none; stroke: #808080; stroke-width: 0.8; stroke-linecap: square"/>
     </g>
     <g id="line2d_6">
      <g>
       <use xlink:href="#mf21b3c314c" x="192.085985" y="309.1" style="stroke: #000000; stroke-width: 0.8"/>
      </g>
     </g>
     <g id="text_3">
      <!-- 0.50 -->
      <g transform="translate(178.72661 325.218125) scale(0.12 -0.12)">
       <use xlink:href="#DejaVuSans-30"/>
       <use xlink:href="#DejaVuSans-2e" x="63.623047"/>
       <use xlink:href="#DejaVuSans-35" x="95.410156"/>
       <use xlink:href="#DejaVuSans-30" x="159.033203"/>
      </g>
     </g>
    </g>
    <g id="xtick_4">
     <g id="line2d_7">
      <path d="M 246.243182 309.1 
L 246.243182 28.8 
" clip-path="url(#p69fab00265)" style="fill: none; stroke: #808080; stroke-width: 0.8; stroke-linecap: square"/>
     </g>
     <g id="line2d_8">
      <g>
       <use xlink:href="#mf21b3c314c" x="246.243182" y="309.1" style="stroke: #000000; stroke-width: 0.8"/>
      </g>
     </g>
     <g id="text_4">
      <!-- 0.75 -->
      <g transform="translate(232.883807 325.218125) scale(0.12 -0.12)">
       <defs>
        <path id="DejaVuSans-37" d="M 525 4666 
L 3525 4666 
L 3525 4397 
L 1831 0 
L 1172 0 
L 2766 4134 
L 525 4134 
L 525 4666 
z
" transform="scale(0.015625)"/>
       </defs>
       <use xlink:href="#DejaVuSans-30"/>
       <use xlink:href="#DejaVuSans-2e" x="63.623047"/>
       <use xlink:href="#DejaVuSans-37" x="95.410156"/>
       <use xlink:href="#DejaVuSans-35" x="159.033203"/>
      </g>
     </g>
    </g>
    <g id="xtick_5">
     <g id="line2d_9">
      <path d="M 300.400379 309.1 
L 300.400379 28.8 
" clip-path="url(#p69fab00265)" style="fill: none; stroke: #808080; stroke-width: 0.8; stroke-linecap: square"/>
     </g>
     <g id="line2d_10">
      <g>
       <use xlink:href="#mf21b3c314c" x="300.400379" y="309.1" style="stroke: #000000; stroke-width: 0.8"/>
      </g>
     </g>
     <g id="text_5">
      <!-- 1.00 -->
      <g transform="translate(287.041004 325.218125) scale(0.12 -0.12)">
       <defs>
        <path id="DejaVuSans-31" d="M 794 531 
L 1825 531 
L 1825 4091 
L 703 3866 
L 703 4441 
L 1819 4666 
L 2450 4666 
L 2450 531 
L 3481 531 
L 3481 0 
L 794 0 
L 794 531 
z
" transform="scale(0.015625)"/>
       </defs>
       <use xlink:href="#DejaVuSans-31"/>
       <use xlink:href="#DejaVuSans-2e" x="63.623047"/>
       <use xlink:href="#DejaVuSans-30" x="95.410156"/>
       <use xlink:href="#DejaVuSans-30" x="159.033203"/>
      </g>
     </g>
    </g>
    <g id="xtick_6">
     <g id="line2d_11">
      <path d="M 354.557576 309.1 
L 354.557576 28.8 
" clip-path="url(#p69fab00265)" style="fill: none; stroke: #808080; stroke-width: 0.8; stroke-linecap: square"/>
     </g>
     <g id="line2d_12">
      <g>
       <use xlink:href="#mf21b3c314c" x="354.557576" y="309.1" style="stroke: #000000; stroke-width: 0.8"/>
      </g>
     </g>
     <g id="text_6">
      <!-- 1.25 -->
      <g transform="translate(341.198201 325.218125) scale(0.12 -0.12)">
       <use xlink:href="#DejaVuSans-31"/>
       <use xlink:href="#DejaVuSans-2e" x="63.623047"/>
       <use xlink:href="#DejaVuSans-32" x="95.410156"/>
       <use xlink:href="#DejaVuSans-35" x="159.033203"/>
      </g>
     </g>
    </g>
    <g id="xtick_7">
     <g id="line2d_13">
      <path d="M 408.714773 309.1 
L 408.714773 28.8 
" clip-path="url(#p69fab00265)" style="fill: none; stroke: #808080; stroke-width: 0.8; stroke-linecap: square"/>
     </g>
     <g id="line2d_14">
      <g>
       <use xlink:href="#mf21b3c314c" x="408.714773" y="309.1" style="stroke: #000000; stroke-width: 0.8"/>
      </g>
     </g>
     <g id="text_7">
      <!-- 1.50 -->
      <g transform="translate(395.355398 325.218125) scale(0.12 -0.12)">
       <use xlink:href="#DejaVuSans-31"/>
       <use xlink:href="#DejaVuSans-2e" x="63.623047"/>
       <use xlink:href="#DejaVuSans-35" x="95.410156"/>
       <use xlink:href="#DejaVuSans-30" x="159.033203"/>
      </g>
     </g>
    </g>
    <g id="xtick_8">
     <g id="line2d_15">
      <path d="M 462.87197 309.1 
L 462.87197 28.8 
" clip-path="url(#p69fab00265)" style="fill: none; stroke: #808080; stroke-width: 0.8; stroke-linecap: square"/>
     </g>
     <g id="line2d_16">
      <g>
       <use xlink:href="#mf21b3c314c" x="462.87197" y="309.1" style="stroke: #000000; stroke-width: 0.8"/>
      </g>
     </g>
     <g id="text_8">
      <!-- 1.75 -->
      <g transform="translate(449.512595 325.218125) scale(0.12 -0.12)">
       <use xlink:href="#DejaVuSans-31"/>
       <use xlink:href="#DejaVuSans-2e" x="63.623047"/>
       <use xlink:href="#DejaVuSans-37" x="95.410156"/>
       <use xlink:href="#DejaVuSans-35" x="159.033203"/>
      </g>
     </g>
    </g>
    <g id="text_9">
     <!-- $V_{G}$ [V] -->
     <g transform="translate(260.4975 340.831875) scale(0.12 -0.12)">
      <defs>
       <path id="DejaVuSans-Oblique-56" d="M 1319 0 
L 500 4666 
L 1119 4666 
L 1797 653 
L 4063 4666 
L 4750 4666 
L 2053 0 
L 1319 0 
z
" transform="scale(0.015625)"/>
       <path id="DejaVuSans-Oblique-47" d="M 3494 697 
L 3738 1919 
L 2700 1919 
L 2797 2438 
L 4453 2438 
L 4050 384 
Q 3634 156 3143 32 
Q 2653 -91 2156 -91 
Q 1278 -91 783 396 
Q 288 884 288 1753 
Q 288 2475 589 3126 
Q 891 3778 1422 4213 
Q 1756 4484 2153 4617 
Q 2550 4750 3034 4750 
Q 3472 4750 3873 4639 
Q 4275 4528 4641 4306 
L 4513 3634 
Q 4231 3928 3853 4083 
Q 3475 4238 3047 4238 
Q 2550 4238 2172 4048 
Q 1794 3859 1497 3463 
Q 1244 3125 1098 2667 
Q 953 2209 953 1734 
Q 953 1081 1287 751 
Q 1622 422 2284 422 
Q 2616 422 2925 492 
Q 3234 563 3494 697 
z
" transform="scale(0.015625)"/>
       <path id="DejaVuSans-20" transform="scale(0.015625)"/>
       <path id="DejaVuSans-5b" d="M 550 4863 
L 1875 4863 
L 1875 4416 
L 1125 4416 
L 1125 -397 
L 1875 -397 
L 1875 -844 
L 550 -844 
L 550 4863 
z
" transform="scale(0.015625)"/>
       <path id="DejaVuSans-56" d="M 1831 0 
L 50 4666 
L 709 4666 
L 2188 738 
L 3669 4666 
L 4325 4666 
L 2547 0 
L 1831 0 
z
" transform="scale(0.015625)"/>
       <path id="DejaVuSans-5d" d="M 1947 4863 
L 1947 -844 
L 622 -844 
L 622 -397 
L 1369 -397 
L 1369 4416 
L 622 4416 
L 622 4863 
L 1947 4863 
z
" transform="scale(0.015625)"/>
      </defs>
      <use xlink:href="#DejaVuSans-Oblique-56" transform="translate(0 0.015625)"/>
      <use xlink:href="#DejaVuSans-Oblique-47" transform="translate(68.408203 -16.390625) scale(0.7)"/>
      <use xlink:href="#DejaVuSans-20" transform="translate(125.385742 0.015625)"/>
      <use xlink:href="#DejaVuSans-5b" transform="translate(157.172852 0.015625)"/>
      <use xlink:href="#DejaVuSans-56" transform="translate(196.186523 0.015625)"/>
      <use xlink:href="#DejaVuSans-5d" transform="translate(264.594727 0.015625)"/>
     </g>
    </g>
   </g>
   <g id="matplotlib.axis_2">
    <g id="ytick_1">
     <g id="line2d_17">
      <path d="M 64.275 263.416867 
L 493.2 263.416867 
" clip-path="url(#p69fab00265)" style="fill: none; stroke: #808080; stroke-width: 0.8; stroke-linecap: square"/>
     </g>
     <g id="line2d_18">
      <defs>
       <path id="mcfb3d45cca" d="M 0 0 
L -3.5 0 
" style="stroke: #000000; stroke-width: 0.8"/>
      </defs>
      <g>
       <use xlink:href="#mcfb3d45cca" x="64.275" y="263.416867" style="stroke: #000000; stroke-width: 0.8"/>
      </g>
     </g>
     <g id="text_10">
      <!-- 0.25 -->
      <g transform="translate(30.55625 267.97593) scale(0.12 -0.12)">
       <use xlink:href="#DejaVuSans-30"/>
       <use xlink:href="#DejaVuSans-2e" x="63.623047"/>
       <use xlink:href="#DejaVuSans-32" x="95.410156"/>
       <use xlink:href="#DejaVuSans-35" x="159.033203"/>
      </g>
     </g>
    </g>
    <g id="ytick_2">
     <g id="line2d_19">
      <path d="M 64.275 210.562435 
L 493.2 210.562435 
" clip-path="url(#p69fab00265)" style="fill: none; stroke: #808080; stroke-width: 0.8; stroke-linecap: square"/>
     </g>
     <g id="line2d_20">
      <g>
       <use xlink:href="#mcfb3d45cca" x="64.275" y="210.562435" style="stroke: #000000; stroke-width: 0.8"/>
      </g>
     </g>
     <g id="text_11">
      <!-- 0.30 -->
      <g transform="translate(30.55625 215.121497) scale(0.12 -0.12)">
       <defs>
        <path id="DejaVuSans-33" d="M 2597 2516 
Q 3050 2419 3304 2112 
Q 3559 1806 3559 1356 
Q 3559 666 3084 287 
Q 2609 -91 1734 -91 
Q 1441 -91 1130 -33 
Q 819 25 488 141 
L 488 750 
Q 750 597 1062 519 
Q 1375 441 1716 441 
Q 2309 441 2620 675 
Q 2931 909 2931 1356 
Q 2931 1769 2642 2001 
Q 2353 2234 1838 2234 
L 1294 2234 
L 1294 2753 
L 1863 2753 
Q 2328 2753 2575 2939 
Q 2822 3125 2822 3475 
Q 2822 3834 2567 4026 
Q 2313 4219 1838 4219 
Q 1578 4219 1281 4162 
Q 984 4106 628 3988 
L 628 4550 
Q 988 4650 1302 4700 
Q 1616 4750 1894 4750 
Q 2613 4750 3031 4423 
Q 3450 4097 3450 3541 
Q 3450 3153 3228 2886 
Q 3006 2619 2597 2516 
z
" transform="scale(0.015625)"/>
       </defs>
       <use xlink:href="#DejaVuSans-30"/>
       <use xlink:href="#DejaVuSans-2e" x="63.623047"/>
       <use xlink:href="#DejaVuSans-33" x="95.410156"/>
       <use xlink:href="#DejaVuSans-30" x="159.033203"/>
      </g>
     </g>
    </g>
    <g id="ytick_3">
     <g id="line2d_21">
      <path d="M 64.275 157.708002 
L 493.2 157.708002 
" clip-path="url(#p69fab00265)" style="fill: none; stroke: #808080; stroke-width: 0.8; stroke-linecap: square"/>
     </g>
     <g id="line2d_22">
      <g>
       <use xlink:href="#mcfb3d45cca" x="64.275" y="157.708002" style="stroke: #000000; stroke-width: 0.8"/>
      </g>
     </g>
     <g id="text_12">
      <!-- 0.35 -->
      <g transform="translate(30.55625 162.267065) scale(0.12 -0.12)">
       <use xlink:href="#DejaVuSans-30"/>
       <use xlink:href="#DejaVuSans-2e" x="63.623047"/>
       <use xlink:href="#DejaVuSans-33" x="95.410156"/>
       <use xlink:href="#DejaVuSans-35" x="159.033203"/>
      </g>
     </g>
    </g>
    <g id="ytick_4">
     <g id="line2d_23">
      <path d="M 64.275 104.85357 
L 493.2 104.85357 
" clip-path="url(#p69fab00265)" style="fill: none; stroke: #808080; stroke-width: 0.8; stroke-linecap: square"/>
     </g>
     <g id="line2d_24">
      <g>
       <use xlink:href="#mcfb3d45cca" x="64.275" y="104.85357" style="stroke: #000000; stroke-width: 0.8"/>
      </g>
     </g>
     <g id="text_13">
      <!-- 0.40 -->
      <g transform="translate(30.55625 109.412632) scale(0.12 -0.12)">
       <defs>
        <path id="DejaVuSans-34" d="M 2419 4116 
L 825 1625 
L 2419 1625 
L 2419 4116 
z
M 2253 4666 
L 3047 4666 
L 3047 1625 
L 3713 1625 
L 3713 1100 
L 3047 1100 
L 3047 0 
L 2419 0 
L 2419 1100 
L 313 1100 
L 313 1709 
L 2253 4666 
z
" transform="scale(0.015625)"/>
       </defs>
       <use xlink:href="#DejaVuSans-30"/>
       <use xlink:href="#DejaVuSans-2e" x="63.623047"/>
       <use xlink:href="#DejaVuSans-34" x="95.410156"/>
       <use xlink:href="#DejaVuSans-30" x="159.033203"/>
      </g>
     </g>
    </g>
    <g id="ytick_5">
     <g id="line2d_25">
      <path d="M 64.275 51.999137 
L 493.2 51.999137 
" clip-path="url(#p69fab00265)" style="fill: none; stroke: #808080; stroke-width: 0.8; stroke-linecap: square"/>
     </g>
     <g id="line2d_26">
      <g>
       <use xlink:href="#mcfb3d45cca" x="64.275" y="51.999137" style="stroke: #000000; stroke-width: 0.8"/>
      </g>
     </g>
     <g id="text_14">
      <!-- 0.45 -->
      <g transform="translate(30.55625 56.558199) scale(0.12 -0.12)">
       <use xlink:href="#DejaVuSans-30"/>
       <use xlink:href="#DejaVuSans-2e" x="63.623047"/>
       <use xlink:href="#DejaVuSans-34" x="95.410156"/>
       <use xlink:href="#DejaVuSans-35" x="159.033203"/>
      </g>
     </g>
    </g>
    <g id="text_15">
     <!-- $c_{iss X1}\,$ [fF] -->
     <g transform="translate(24.060625 196.67) rotate(-90) scale(0.12 -0.12)">
      <defs>
       <path id="DejaVuSans-Oblique-63" d="M 3431 3366 
L 3316 2797 
Q 3109 2947 2876 3022 
Q 2644 3097 2394 3097 
Q 2119 3097 1870 3000 
Q 1622 2903 1453 2725 
Q 1184 2453 1037 2087 
Q 891 1722 891 1331 
Q 891 859 1127 628 
Q 1363 397 1844 397 
Q 2081 397 2348 469 
Q 2616 541 2906 684 
L 2797 116 
Q 2547 13 2283 -39 
Q 2019 -91 1741 -91 
Q 1044 -91 669 257 
Q 294 606 294 1253 
Q 294 1797 489 2255 
Q 684 2713 1069 3078 
Q 1331 3328 1684 3456 
Q 2038 3584 2456 3584 
Q 2700 3584 2940 3529 
Q 3181 3475 3431 3366 
z
" transform="scale(0.015625)"/>
       <path id="DejaVuSans-Oblique-69" d="M 1172 4863 
L 1747 4863 
L 1606 4134 
L 1031 4134 
L 1172 4863 
z
M 909 3500 
L 1484 3500 
L 800 0 
L 225 0 
L 909 3500 
z
" transform="scale(0.015625)"/>
       <path id="DejaVuSans-Oblique-73" d="M 3200 3397 
L 3091 2853 
Q 2863 2978 2609 3040 
Q 2356 3103 2088 3103 
Q 1634 3103 1373 2948 
Q 1113 2794 1113 2528 
Q 1113 2219 1719 2053 
Q 1766 2041 1788 2034 
L 1972 1978 
Q 2547 1819 2739 1644 
Q 2931 1469 2931 1166 
Q 2931 609 2489 259 
Q 2047 -91 1331 -91 
Q 1053 -91 747 -37 
Q 441 16 72 128 
L 184 722 
Q 500 559 806 475 
Q 1113 391 1394 391 
Q 1816 391 2080 572 
Q 2344 753 2344 1031 
Q 2344 1331 1650 1516 
L 1591 1531 
L 1394 1581 
Q 956 1697 753 1886 
Q 550 2075 550 2369 
Q 550 2928 970 3256 
Q 1391 3584 2113 3584 
Q 2397 3584 2667 3537 
Q 2938 3491 3200 3397 
z
" transform="scale(0.015625)"/>
       <path id="DejaVuSans-Oblique-58" d="M 878 4666 
L 1516 4666 
L 2316 2981 
L 3763 4666 
L 4500 4666 
L 2578 2438 
L 3738 0 
L 3103 0 
L 2163 1966 
L 459 0 
L -275 0 
L 1906 2509 
L 878 4666 
z
" transform="scale(0.015625)"/>
       <path id="DejaVuSans-66" d="M 2375 4863 
L 2375 4384 
L 1825 4384 
Q 1516 4384 1395 4259 
Q 1275 4134 1275 3809 
L 1275 3500 
L 2222 3500 
L 2222 3053 
L 1275 3053 
L 1275 0 
L 697 0 
L 697 3053 
L 147 3053 
L 147 3500 
L 697 3500 
L 697 3744 
Q 697 4328 969 4595 
Q 1241 4863 1831 4863 
L 2375 4863 
z
" transform="scale(0.015625)"/>
       <path id="DejaVuSans-46" d="M 628 4666 
L 3309 4666 
L 3309 4134 
L 1259 4134 
L 1259 2759 
L 3109 2759 
L 3109 2228 
L 1259 2228 
L 1259 0 
L 628 0 
L 628 4666 
z
" transform="scale(0.015625)"/>
      </defs>
      <use xlink:href="#DejaVuSans-Oblique-63" transform="translate(0 0.015625)"/>
      <use xlink:href="#DejaVuSans-Oblique-69" transform="translate(54.980469 -16.390625) scale(0.7)"/>
      <use xlink:href="#DejaVuSans-Oblique-73" transform="translate(74.428711 -16.390625) scale(0.7)"/>
      <use xlink:href="#DejaVuSans-Oblique-73" transform="translate(110.898438 -16.390625) scale(0.7)"/>
      <use xlink:href="#DejaVuSans-Oblique-58" transform="translate(147.368164 -16.390625) scale(0.7)"/>
      <use xlink:href="#DejaVuSans-31" transform="translate(195.322266 -16.390625) scale(0.7)"/>
      <use xlink:href="#DejaVuSans-20" transform="translate(258.82845 0.015625)"/>
      <use xlink:href="#DejaVuSans-5b" transform="translate(290.615559 0.015625)"/>
      <use xlink:href="#DejaVuSans-66" transform="translate(329.629231 0.015625)"/>
      <use xlink:href="#DejaVuSans-46" transform="translate(364.834309 0.015625)"/>
      <use xlink:href="#DejaVuSans-5d" transform="translate(422.35384 0.015625)"/>
     </g>
    </g>
   </g>
   <g id="line2d_27">
    <path d="M 83.771591 296.350815 
L 91.729383 296.319538 
L 99.687175 296.230709 
L 107.644968 295.980133 
L 115.60276 295.28215 
L 123.560552 293.38496 
L 131.518344 288.473976 
L 139.476136 276.931279 
L 147.433929 254.17011 
L 155.391721 219.724916 
L 163.349513 181.138833 
L 171.307305 147.346789 
L 179.265097 121.749152 
L 187.22289 103.480143 
L 195.180682 90.557304 
L 203.138474 81.273797 
L 211.096266 74.436003 
L 219.054058 69.261153 
L 227.011851 65.242016 
L 234.969643 62.046542 
L 242.927435 59.453048 
L 250.885227 57.310078 
L 258.843019 55.511672 
L 266.800812 53.981983 
L 274.758604 52.665542 
L 282.716396 51.520974 
L 290.674188 50.516857 
L 298.631981 49.628932 
L 306.589773 48.838195 
L 314.547565 48.129553 
L 322.505357 47.490875 
L 330.463149 46.912301 
L 338.420942 46.38574 
L 346.378734 45.904486 
L 354.336526 45.462938 
L 362.294318 45.056381 
L 370.25211 44.680816 
L 378.209903 44.332832 
L 386.167695 44.009501 
L 394.125487 43.708293 
L 402.083279 43.427013 
L 410.041071 43.16375 
L 417.998864 42.916825 
L 425.956656 42.684765 
L 433.914448 42.466267 
L 441.87224 42.260176 
L 449.830032 42.065465 
L 457.787825 41.881217 
L 465.745617 41.706611 
L 473.703409 41.540909 
" clip-path="url(#p69fab00265)" style="fill: none; stroke: #ff0000; stroke-width: 2; stroke-linecap: square"/>
   </g>
   <g id="line2d_28">
    <path d="M 83.771591 296.359087 
L 91.729383 296.34314 
L 99.687175 296.297846 
L 107.644968 296.170039 
L 115.60276 295.813699 
L 123.560552 294.842432 
L 131.518344 292.30891 
L 139.476136 286.239327 
L 147.433929 273.773473 
L 155.391721 253.56648 
L 163.349513 228.871731 
L 171.307305 205.374468 
L 179.265097 186.352078 
L 187.22289 171.877602 
L 195.180682 160.471866 
L 203.138474 150.266003 
L 211.096266 139.641175 
L 219.054058 127.950968 
L 227.011851 115.792589 
L 234.969643 104.274157 
L 242.927435 94.183676 
L 250.885227 85.776002 
L 258.843019 78.946754 
L 266.800812 73.445026 
L 274.758604 69.002174 
L 282.716396 65.38498 
L 290.674188 62.407888 
L 298.631981 59.928785 
L 306.589773 57.840366 
L 314.547565 56.061731 
L 322.505357 54.531566 
L 330.463149 53.202997 
L 338.420942 52.039809 
L 346.378734 51.013711 
L 354.336526 50.102354 
L 362.294318 49.287897 
L 370.25211 48.555946 
L 378.209903 47.894778 
L 386.167695 47.294759 
L 394.125487 46.747904 
L 402.083279 46.247544 
L 410.041071 45.788068 
L 417.998864 45.364725 
L 425.956656 44.973463 
L 433.914448 44.61081 
L 441.87224 44.273772 
L 449.830032 43.959757 
L 457.787825 43.666506 
L 465.745617 43.392045 
L 473.703409 43.134641 
" clip-path="url(#p69fab00265)" style="fill: none; stroke: #0000ff; stroke-width: 2; stroke-linecap: square"/>
   </g>
   <g id="line2d_29">
    <path d="M 83.771591 296.359091 
L 91.729383 296.34315 
L 99.687175 296.297876 
L 107.644968 296.170124 
L 115.60276 295.813944 
L 123.560552 294.84313 
L 131.518344 292.310881 
L 139.476136 286.244788 
L 147.433929 273.788073 
L 155.391721 253.603682 
L 163.349513 228.962748 
L 171.307305 205.592401 
L 179.265097 186.868265 
L 187.22289 173.082828 
L 195.180682 163.200691 
L 203.138474 156.079489 
L 211.096266 150.843258 
L 219.054058 146.889705 
L 227.011851 143.810761 
L 234.969643 141.310738 
L 242.927435 139.128033 
L 250.885227 136.943733 
L 258.843019 134.278791 
L 266.800812 130.482725 
L 274.758604 125.024043 
L 282.716396 117.959813 
L 290.674188 109.970271 
L 298.631981 101.903315 
L 306.589773 94.383649 
L 314.547565 87.716961 
L 322.505357 81.969391 
L 330.463149 77.078006 
L 338.420942 72.930157 
L 346.378734 69.406187 
L 354.336526 66.397732 
L 362.294318 63.813227 
L 370.25211 61.57777 
L 378.209903 59.630945 
L 386.167695 57.924233 
L 394.125487 56.418624 
L 402.083279 55.082621 
L 410.041071 53.890649 
L 417.998864 52.821803 
L 425.956656 51.858877 
L 433.914448 50.987613 
L 441.87224 50.196116 
L 449.830032 49.474399 
L 457.787825 48.814023 
L 465.745617 48.20782 
L 473.703409 47.649661 
" clip-path="url(#p69fab00265)" style="fill: none; stroke: #008000; stroke-width: 2; stroke-linecap: square"/>
   </g>
   <g id="line2d_30">
    <path d="M 83.771591 296.359091 
L 91.729383 296.34315 
L 99.687175 296.297876 
L 107.644968 296.170124 
L 115.60276 295.813944 
L 123.560552 294.84313 
L 131.518344 292.310882 
L 139.476136 286.24479 
L 147.433929 273.788079 
L 155.391721 253.603699 
L 163.349513 228.962789 
L 171.307305 205.592501 
L 179.265097 186.868508 
L 187.22289 173.083425 
L 195.180682 163.202178 
L 203.138474 156.083228 
L 211.096266 150.852753 
L 219.054058 146.913983 
L 227.011851 143.873044 
L 234.969643 141.470168 
L 242.927435 139.531604 
L 250.885227 137.938701 
L 258.843019 136.608442 
L 266.800812 135.480956 
L 274.758604 134.510874 
L 282.716396 133.659856 
L 290.674188 132.886888 
L 298.631981 132.130334 
L 306.589773 131.271631 
L 314.547565 130.073348 
L 322.505357 128.127541 
L 330.463149 124.952427 
L 338.420942 120.318043 
L 346.378734 114.479874 
L 354.336526 108.016694 
L 362.294318 101.511854 
L 370.25211 95.369478 
L 378.209903 89.793229 
L 386.167695 84.841877 
L 394.125487 80.492871 
L 402.083279 76.687585 
L 410.041071 73.357042 
L 417.998864 70.434363 
L 425.956656 67.859751 
L 433.914448 65.581789 
L 441.87224 63.557092 
L 449.830032 61.749352 
L 457.787825 60.12826 
L 465.745617 58.668488 
L 473.703409 57.348805 
" clip-path="url(#p69fab00265)" style="fill: none; stroke: #00bfbf; stroke-width: 2; stroke-linecap: square"/>
   </g>
   <g id="line2d_31">
    <path d="M 83.771591 296.359091 
L 91.729383 296.34315 
L 99.687175 296.297876 
L 107.644968 296.170124 
L 115.60276 295.813944 
L 123.560552 294.84313 
L 131.518344 292.310882 
L 139.476136 286.24479 
L 147.433929 273.788079 
L 155.391721 253.603699 
L 163.349513 228.962789 
L 171.307305 205.592501 
L 179.265097 186.868508 
L 187.22289 173.083425 
L 195.180682 163.202179 
L 203.138474 156.08323 
L 211.096266 150.852757 
L 219.054058 146.913994 
L 227.011851 143.873072 
L 234.969643 141.470242 
L 242.927435 139.531799 
L 250.885227 137.939219 
L 258.843019 136.60982 
L 266.800812 135.484638 
L 274.758604 134.520723 
L 282.716396 133.686175 
L 290.674188 132.956863 
L 298.631981 132.314219 
L 306.589773 131.743713 
L 314.547565 131.233733 
L 322.505357 130.774662 
L 330.463149 130.357852 
L 338.420942 129.973906 
L 346.378734 129.608911 
L 354.336526 129.235413 
L 362.294318 128.79156 
L 370.25211 128.139791 
L 378.209903 127.012969 
L 386.167695 125.023207 
L 394.125487 121.850623 
L 402.083279 117.500865 
L 410.041071 112.318985 
L 417.998864 106.77588 
L 425.956656 101.27339 
L 433.914448 96.069372 
L 441.87224 91.289806 
L 449.830032 86.971348 
L 457.787825 83.100886 
L 465.745617 79.642279 
L 473.703409 76.551631 
" clip-path="url(#p69fab00265)" style="fill: none; stroke: #bf00bf; stroke-width: 2; stroke-linecap: square"/>
   </g>
   <g id="line2d_32">
    <path d="M 83.771591 296.359091 
L 91.729383 296.34315 
L 99.687175 296.297876 
L 107.644968 296.170124 
L 115.60276 295.813944 
L 123.560552 294.84313 
L 131.518344 292.310882 
L 139.476136 286.24479 
L 147.433929 273.788079 
L 155.391721 253.603699 
L 163.349513 228.962789 
L 171.307305 205.592501 
L 179.265097 186.868508 
L 187.22289 173.083425 
L 195.180682 163.202179 
L 203.138474 156.08323 
L 211.096266 150.852757 
L 219.054058 146.913994 
L 227.011851 143.873072 
L 234.969643 141.470242 
L 242.927435 139.531799 
L 250.885227 137.939219 
L 258.843019 136.609821 
L 266.800812 135.484639 
L 274.758604 134.520728 
L 282.716396 133.686187 
L 290.674188 132.956895 
L 298.631981 132.314306 
L 306.589773 131.74395 
L 314.547565 131.234381 
L 322.505357 130.776432 
L 330.463149 130.362682 
L 338.420942 129.987058 
L 346.378734 129.644541 
L 354.336526 129.330945 
L 362.294318 129.042734 
L 370.25211 128.776857 
L 378.209903 128.530548 
L 386.167695 128.300978 
L 394.125487 128.084446 
L 402.083279 127.874353 
L 410.041071 127.656009 
L 417.998864 127.394003 
L 425.956656 127.00486 
L 433.914448 126.312442 
L 441.87224 125.021524 
L 449.830032 122.808473 
L 457.787825 119.538668 
L 465.745617 115.378206 
L 473.703409 110.680145 
" clip-path="url(#p69fab00265)" style="fill: none; stroke: #bfbf00; stroke-width: 2; stroke-linecap: square"/>
   </g>
   <g id="line2d_33">
    <path d="M 83.771591 296.359091 
L 91.729383 296.34315 
L 99.687175 296.297876 
L 107.644968 296.170124 
L 115.60276 295.813944 
L 123.560552 294.84313 
L 131.518344 292.310882 
L 139.476136 286.24479 
L 147.433929 273.788079 
L 155.391721 253.603699 
L 163.349513 228.962789 
L 171.307305 205.592501 
L 179.265097 186.868508 
L 187.22289 173.083425 
L 195.180682 163.202179 
L 203.138474 156.08323 
L 211.096266 150.852757 
L 219.054058 146.913994 
L 227.011851 143.873072 
L 234.969643 141.470242 
L 242.927435 139.531799 
L 250.885227 137.939219 
L 258.843019 136.609821 
L 266.800812 135.484639 
L 274.758604 134.520728 
L 282.716396 133.686187 
L 290.674188 132.956895 
L 298.631981 132.314306 
L 306.589773 131.743951 
L 314.547565 131.234381 
L 322.505357 130.776433 
L 330.463149 130.362684 
L 338.420942 129.987063 
L 346.378734 129.644557 
L 354.336526 129.330989 
L 362.294318 129.042857 
L 370.25211 128.777197 
L 378.209903 128.531489 
L 386.167695 128.303573 
L 394.125487 128.091589 
L 402.083279 127.893926 
L 410.041071 127.709177 
L 417.998864 127.536099 
L 425.956656 127.373569 
L 433.914448 127.2205 
L 441.87224 127.075669 
L 449.830032 126.937267 
L 457.787825 126.801721 
L 465.745617 126.660583 
L 473.703409 126.492712 
" clip-path="url(#p69fab00265)" style="fill: none; stroke: #000000; stroke-width: 2; stroke-linecap: square"/>
   </g>
   <g id="line2d_34">
    <path d="M 83.771591 296.359091 
L 91.729383 296.34315 
L 99.687175 296.297876 
L 107.644968 296.170124 
L 115.60276 295.813944 
L 123.560552 294.84313 
L 131.518344 292.310882 
L 139.476136 286.24479 
L 147.433929 273.788079 
L 155.391721 253.603699 
L 163.349513 228.962789 
L 171.307305 205.592501 
L 179.265097 186.868508 
L 187.22289 173.083425 
L 195.180682 163.202179 
L 203.138474 156.08323 
L 211.096266 150.852757 
L 219.054058 146.913994 
L 227.011851 143.873072 
L 234.969643 141.470242 
L 242.927435 139.531799 
L 250.885227 137.939219 
L 258.843019 136.609821 
L 266.800812 135.484639 
L 274.758604 134.520728 
L 282.716396 133.686187 
L 290.674188 132.956895 
L 298.631981 132.314306 
L 306.589773 131.743951 
L 314.547565 131.234381 
L 322.505357 130.776433 
L 330.463149 130.362684 
L 338.420942 129.987063 
L 346.378734 129.644557 
L 354.336526 129.330989 
L 362.294318 129.042857 
L 370.25211 128.777197 
L 378.209903 128.531489 
L 386.167695 128.303574 
L 394.125487 128.091592 
L 402.083279 127.893935 
L 410.041071 127.709201 
L 417.998864 127.536168 
L 425.956656 127.373759 
L 433.914448 127.221029 
L 441.87224 127.077139 
L 449.830032 126.941343 
L 457.787825 126.812979 
L 465.745617 126.691448 
L 473.703409 126.57621 
" clip-path="url(#p69fab00265)" style="fill: none; stroke: #ff0000; stroke-width: 2; stroke-linecap: square"/>
   </g>
   <g id="line2d_35">
    <path d="M 83.771591 296.359091 
L 91.729383 296.34315 
L 99.687175 296.297876 
L 107.644968 296.170124 
L 115.60276 295.813944 
L 123.560552 294.84313 
L 131.518344 292.310882 
L 139.476136 286.24479 
L 147.433929 273.788079 
L 155.391721 253.603699 
L 163.349513 228.962789 
L 171.307305 205.592501 
L 179.265097 186.868508 
L 187.22289 173.083425 
L 195.180682 163.202179 
L 203.138474 156.08323 
L 211.096266 150.852757 
L 219.054058 146.913994 
L 227.011851 143.873072 
L 234.969643 141.470242 
L 242.927435 139.531799 
L 250.885227 137.939219 
L 258.843019 136.609821 
L 266.800812 135.484639 
L 274.758604 134.520728 
L 282.716396 133.686187 
L 290.674188 132.956895 
L 298.631981 132.314306 
L 306.589773 131.743951 
L 314.547565 131.234381 
L 322.505357 130.776433 
L 330.463149 130.362684 
L 338.420942 129.987063 
L 346.378734 129.644557 
L 354.336526 129.330989 
L 362.294318 129.042857 
L 370.25211 128.777197 
L 378.209903 128.531489 
L 386.167695 128.303574 
L 394.125487 128.091592 
L 402.083279 127.893935 
L 410.041071 127.709201 
L 417.998864 127.536168 
L 425.956656 127.373759 
L 433.914448 127.221029 
L 441.87224 127.077139 
L 449.830032 126.941345 
L 457.787825 126.812984 
L 465.745617 126.691462 
L 473.703409 126.57625 
" clip-path="url(#p69fab00265)" style="fill: none; stroke: #0000ff; stroke-width: 2; stroke-linecap: square"/>
   </g>
   <g id="line2d_36">
    <path d="M 83.771591 296.359091 
L 91.729383 296.34315 
L 99.687175 296.297876 
L 107.644968 296.170124 
L 115.60276 295.813944 
L 123.560552 294.84313 
L 131.518344 292.310882 
L 139.476136 286.24479 
L 147.433929 273.788079 
L 155.391721 253.603699 
L 163.349513 228.962789 
L 171.307305 205.592501 
L 179.265097 186.868508 
L 187.22289 173.083425 
L 195.180682 163.202179 
L 203.138474 156.08323 
L 211.096266 150.852757 
L 219.054058 146.913994 
L 227.011851 143.873072 
L 234.969643 141.470242 
L 242.927435 139.531799 
L 250.885227 137.939219 
L 258.843019 136.609821 
L 266.800812 135.484639 
L 274.758604 134.520728 
L 282.716396 133.686187 
L 290.674188 132.956895 
L 298.631981 132.314306 
L 306.589773 131.743951 
L 314.547565 131.234381 
L 322.505357 130.776433 
L 330.463149 130.362684 
L 338.420942 129.987063 
L 346.378734 129.644557 
L 354.336526 129.330989 
L 362.294318 129.042857 
L 370.25211 128.777197 
L 378.209903 128.531489 
L 386.167695 128.303574 
L 394.125487 128.091592 
L 402.083279 127.893935 
L 410.041071 127.709201 
L 417.998864 127.536168 
L 425.956656 127.373759 
L 433.914448 127.221029 
L 441.87224 127.077139 
L 449.830032 126.941345 
L 457.787825 126.812984 
L 465.745617 126.691462 
L 473.703409 126.57625 
" clip-path="url(#p69fab00265)" style="fill: none; stroke: #008000; stroke-width: 2; stroke-linecap: square"/>
   </g>
   <g id="patch_3">
    <path d="M 64.275 309.1 
L 64.275 28.8 
" style="fill: none; stroke: #000000; stroke-width: 0.8; stroke-linejoin: miter; stroke-linecap: square"/>
   </g>
   <g id="patch_4">
    <path d="M 493.2 309.1 
L 493.2 28.8 
" style="fill: none; stroke: #000000; stroke-width: 0.8; stroke-linejoin: miter; stroke-linecap: square"/>
   </g>
   <g id="patch_5">
    <path d="M 64.275 309.1 
L 493.2 309.1 
" style="fill: none; stroke: #000000; stroke-width: 0.8; stroke-linejoin: miter; stroke-linecap: square"/>
   </g>
   <g id="patch_6">
    <path d="M 64.275 28.8 
L 493.2 28.8 
" style="fill: none; stroke: #000000; stroke-width: 0.8; stroke-linejoin: miter; stroke-linecap: square"/>
   </g>
   <g id="text_16">
    <!-- $c_{iss}(V_{gs})$ -->
    <g transform="translate(255.8775 22.8) scale(0.12 -0.12)">
     <defs>
      <path id="DejaVuSans-28" d="M 1984 4856 
Q 1566 4138 1362 3434 
Q 1159 2731 1159 2009 
Q 1159 1288 1364 580 
Q 1569 -128 1984 -844 
L 1484 -844 
Q 1016 -109 783 600 
Q 550 1309 550 2009 
Q 550 2706 781 3412 
Q 1013 4119 1484 4856 
L 1984 4856 
z
" transform="scale(0.015625)"/>
      <path id="DejaVuSans-Oblique-67" d="M 3816 3500 
L 3219 434 
Q 3047 -456 2561 -893 
Q 2075 -1331 1253 -1331 
Q 950 -1331 690 -1286 
Q 431 -1241 206 -1147 
L 313 -588 
Q 525 -725 762 -790 
Q 1000 -856 1269 -856 
Q 1816 -856 2167 -557 
Q 2519 -259 2631 300 
L 2681 563 
Q 2441 288 2122 144 
Q 1803 0 1434 0 
Q 903 0 598 351 
Q 294 703 294 1319 
Q 294 1803 478 2267 
Q 663 2731 997 3091 
Q 1219 3328 1514 3456 
Q 1809 3584 2131 3584 
Q 2484 3584 2746 3420 
Q 3009 3256 3138 2956 
L 3238 3500 
L 3816 3500 
z
M 2950 2216 
Q 2950 2641 2750 2872 
Q 2550 3103 2181 3103 
Q 1953 3103 1747 3012 
Q 1541 2922 1394 2759 
Q 1156 2491 1023 2127 
Q 891 1763 891 1375 
Q 891 944 1092 712 
Q 1294 481 1672 481 
Q 2219 481 2584 976 
Q 2950 1472 2950 2216 
z
" transform="scale(0.015625)"/>
      <path id="DejaVuSans-29" d="M 513 4856 
L 1013 4856 
Q 1481 4119 1714 3412 
Q 1947 2706 1947 2009 
Q 1947 1309 1714 600 
Q 1481 -109 1013 -844 
L 513 -844 
Q 928 -128 1133 580 
Q 1338 1288 1338 2009 
Q 1338 2731 1133 3434 
Q 928 4138 513 4856 
z
" transform="scale(0.015625)"/>
     </defs>
     <use xlink:href="#DejaVuSans-Oblique-63" transform="translate(0 0.125)"/>
     <use xlink:href="#DejaVuSans-Oblique-69" transform="translate(54.980469 -16.28125) scale(0.7)"/>
     <use xlink:href="#DejaVuSans-Oblique-73" transform="translate(74.428711 -16.28125) scale(0.7)"/>
     <use xlink:href="#DejaVuSans-Oblique-73" transform="translate(110.898438 -16.28125) scale(0.7)"/>
     <use xlink:href="#DejaVuSans-28" transform="translate(150.102539 0.125)"/>
     <use xlink:href="#DejaVuSans-Oblique-56" transform="translate(189.116211 0.125)"/>
     <use xlink:href="#DejaVuSans-Oblique-67" transform="translate(257.524414 -16.28125) scale(0.7)"/>
     <use xlink:href="#DejaVuSans-Oblique-73" transform="translate(301.958008 -16.28125) scale(0.7)"/>
     <use xlink:href="#DejaVuSans-29" transform="translate(341.162109 0.125)"/>
    </g>
   </g>
   <g id="legend_1">
    <g id="patch_7">
     <path d="M 347.96 304.1 
L 486.2 304.1 
Q 488.2 304.1 488.2 302.1 
L 488.2 185.9625 
Q 488.2 183.9625 486.2 183.9625 
L 347.96 183.9625 
Q 345.96 183.9625 345.96 185.9625 
L 345.96 302.1 
Q 345.96 304.1 347.96 304.1 
z
" style="fill: #ffffff; opacity: 0.8; stroke: #cccccc; stroke-linejoin: miter"/>
    </g>
    <g id="line2d_37">
     <path d="M 347.96 191.580625 
L 352.96 191.580625 
L 357.96 191.580625 
" style="fill: none; stroke: #ff0000; stroke-width: 2; stroke-linecap: square"/>
    </g>
    <g id="text_17">
     <!-- $c_{iss X1}: V_{D}$ =  1.0e-03 -->
     <g transform="translate(359.96 195.080625) scale(0.12 -0.12)">
      <defs>
       <path id="DejaVuSans-3a" d="M 750 794 
L 1409 794 
L 1409 0 
L 750 0 
L 750 794 
z
M 750 3309 
L 1409 3309 
L 1409 2516 
L 750 2516 
L 750 3309 
z
" transform="scale(0.015625)"/>
       <path id="DejaVuSans-Oblique-44" d="M 1081 4666 
L 2438 4666 
Q 3519 4666 4070 4208 
Q 4622 3750 4622 2847 
Q 4622 2250 4412 1698 
Q 4203 1147 3834 769 
Q 3463 381 2891 190 
Q 2319 0 1538 0 
L 172 0 
L 1081 4666 
z
M 1613 4147 
L 909 519 
L 1734 519 
Q 2794 519 3375 1128 
Q 3956 1738 3956 2847 
Q 3956 3519 3581 3833 
Q 3206 4147 2406 4147 
L 1613 4147 
z
" transform="scale(0.015625)"/>
       <path id="DejaVuSans-3d" d="M 678 2906 
L 4684 2906 
L 4684 2381 
L 678 2381 
L 678 2906 
z
M 678 1631 
L 4684 1631 
L 4684 1100 
L 678 1100 
L 678 1631 
z
" transform="scale(0.015625)"/>
       <path id="DejaVuSans-65" d="M 3597 1894 
L 3597 1613 
L 953 1613 
Q 991 1019 1311 708 
Q 1631 397 2203 397 
Q 2534 397 2845 478 
Q 3156 559 3463 722 
L 3463 178 
Q 3153 47 2828 -22 
Q 2503 -91 2169 -91 
Q 1331 -91 842 396 
Q 353 884 353 1716 
Q 353 2575 817 3079 
Q 1281 3584 2069 3584 
Q 2775 3584 3186 3129 
Q 3597 2675 3597 1894 
z
M 3022 2063 
Q 3016 2534 2758 2815 
Q 2500 3097 2075 3097 
Q 1594 3097 1305 2825 
Q 1016 2553 972 2059 
L 3022 2063 
z
" transform="scale(0.015625)"/>
       <path id="DejaVuSans-2d" d="M 313 2009 
L 1997 2009 
L 1997 1497 
L 313 1497 
L 313 2009 
z
" transform="scale(0.015625)"/>
      </defs>
      <use xlink:href="#DejaVuSans-Oblique-63" transform="translate(0 0.78125)"/>
      <use xlink:href="#DejaVuSans-Oblique-69" transform="translate(54.980469 -15.625) scale(0.7)"/>
      <use xlink:href="#DejaVuSans-Oblique-73" transform="translate(74.428711 -15.625) scale(0.7)"/>
      <use xlink:href="#DejaVuSans-Oblique-73" transform="translate(110.898438 -15.625) scale(0.7)"/>
      <use xlink:href="#DejaVuSans-Oblique-58" transform="translate(147.368164 -15.625) scale(0.7)"/>
      <use xlink:href="#DejaVuSans-31" transform="translate(195.322266 -15.625) scale(0.7)"/>
      <use xlink:href="#DejaVuSans-3a" transform="translate(262.075195 0.78125)"/>
      <use xlink:href="#DejaVuSans-Oblique-56" transform="translate(315.249023 0.78125)"/>
      <use xlink:href="#DejaVuSans-Oblique-44" transform="translate(383.657227 -15.625) scale(0.7)"/>
      <use xlink:href="#DejaVuSans-20" transform="translate(440.292969 0.78125)"/>
      <use xlink:href="#DejaVuSans-3d" transform="translate(472.080078 0.78125)"/>
      <use xlink:href="#DejaVuSans-20" transform="translate(555.869141 0.78125)"/>
      <use xlink:href="#DejaVuSans-20" transform="translate(587.65625 0.78125)"/>
      <use xlink:href="#DejaVuSans-31" transform="translate(619.443359 0.78125)"/>
      <use xlink:href="#DejaVuSans-2e" transform="translate(683.066406 0.78125)"/>
      <use xlink:href="#DejaVuSans-30" transform="translate(714.853516 0.78125)"/>
      <use xlink:href="#DejaVuSans-65" transform="translate(778.476562 0.78125)"/>
      <use xlink:href="#DejaVuSans-2d" transform="translate(840 0.78125)"/>
      <use xlink:href="#DejaVuSans-30" transform="translate(876.083984 0.78125)"/>
      <use xlink:href="#DejaVuSans-33" transform="translate(939.707031 0.78125)"/>
     </g>
    </g>
    <g id="line2d_38">
     <path d="M 347.96 203.194375 
L 352.96 203.194375 
L 357.96 203.194375 
" style="fill: none; stroke: #0000ff; stroke-width: 2; stroke-linecap: square"/>
    </g>
    <g id="text_18">
     <!-- $c_{iss X1}: V_{D}$ =  2.0e-01 -->
     <g transform="translate(359.96 206.694375) scale(0.12 -0.12)">
      <use xlink:href="#DejaVuSans-Oblique-63" transform="translate(0 0.78125)"/>
      <use xlink:href="#DejaVuSans-Oblique-69" transform="translate(54.980469 -15.625) scale(0.7)"/>
      <use xlink:href="#DejaVuSans-Oblique-73" transform="translate(74.428711 -15.625) scale(0.7)"/>
      <use xlink:href="#DejaVuSans-Oblique-73" transform="translate(110.898438 -15.625) scale(0.7)"/>
      <use xlink:href="#DejaVuSans-Oblique-58" transform="translate(147.368164 -15.625) scale(0.7)"/>
      <use xlink:href="#DejaVuSans-31" transform="translate(195.322266 -15.625) scale(0.7)"/>
      <use xlink:href="#DejaVuSans-3a" transform="translate(262.075195 0.78125)"/>
      <use xlink:href="#DejaVuSans-Oblique-56" transform="translate(315.249023 0.78125)"/>
      <use xlink:href="#DejaVuSans-Oblique-44" transform="translate(383.657227 -15.625) scale(0.7)"/>
      <use xlink:href="#DejaVuSans-20" transform="translate(440.292969 0.78125)"/>
      <use xlink:href="#DejaVuSans-3d" transform="translate(472.080078 0.78125)"/>
      <use xlink:href="#DejaVuSans-20" transform="translate(555.869141 0.78125)"/>
      <use xlink:href="#DejaVuSans-20" transform="translate(587.65625 0.78125)"/>
      <use xlink:href="#DejaVuSans-32" transform="translate(619.443359 0.78125)"/>
      <use xlink:href="#DejaVuSans-2e" transform="translate(683.066406 0.78125)"/>
      <use xlink:href="#DejaVuSans-30" transform="translate(714.853516 0.78125)"/>
      <use xlink:href="#DejaVuSans-65" transform="translate(778.476562 0.78125)"/>
      <use xlink:href="#DejaVuSans-2d" transform="translate(840 0.78125)"/>
      <use xlink:href="#DejaVuSans-30" transform="translate(876.083984 0.78125)"/>
      <use xlink:href="#DejaVuSans-31" transform="translate(939.707031 0.78125)"/>
     </g>
    </g>
    <g id="line2d_39">
     <path d="M 347.96 214.808125 
L 352.96 214.808125 
L 357.96 214.808125 
" style="fill: none; stroke: #008000; stroke-width: 2; stroke-linecap: square"/>
    </g>
    <g id="text_19">
     <!-- $c_{iss X1}: V_{D}$ =  4.0e-01 -->
     <g transform="translate(359.96 218.308125) scale(0.12 -0.12)">
      <use xlink:href="#DejaVuSans-Oblique-63" transform="translate(0 0.78125)"/>
      <use xlink:href="#DejaVuSans-Oblique-69" transform="translate(54.980469 -15.625) scale(0.7)"/>
      <use xlink:href="#DejaVuSans-Oblique-73" transform="translate(74.428711 -15.625) scale(0.7)"/>
      <use xlink:href="#DejaVuSans-Oblique-73" transform="translate(110.898438 -15.625) scale(0.7)"/>
      <use xlink:href="#DejaVuSans-Oblique-58" transform="translate(147.368164 -15.625) scale(0.7)"/>
      <use xlink:href="#DejaVuSans-31" transform="translate(195.322266 -15.625) scale(0.7)"/>
      <use xlink:href="#DejaVuSans-3a" transform="translate(262.075195 0.78125)"/>
      <use xlink:href="#DejaVuSans-Oblique-56" transform="translate(315.249023 0.78125)"/>
      <use xlink:href="#DejaVuSans-Oblique-44" transform="translate(383.657227 -15.625) scale(0.7)"/>
      <use xlink:href="#DejaVuSans-20" transform="translate(440.292969 0.78125)"/>
      <use xlink:href="#DejaVuSans-3d" transform="translate(472.080078 0.78125)"/>
      <use xlink:href="#DejaVuSans-20" transform="translate(555.869141 0.78125)"/>
      <use xlink:href="#DejaVuSans-20" transform="translate(587.65625 0.78125)"/>
      <use xlink:href="#DejaVuSans-34" transform="translate(619.443359 0.78125)"/>
      <use xlink:href="#DejaVuSans-2e" transform="translate(683.066406 0.78125)"/>
      <use xlink:href="#DejaVuSans-30" transform="translate(714.853516 0.78125)"/>
      <use xlink:href="#DejaVuSans-65" transform="translate(778.476562 0.78125)"/>
      <use xlink:href="#DejaVuSans-2d" transform="translate(840 0.78125)"/>
      <use xlink:href="#DejaVuSans-30" transform="translate(876.083984 0.78125)"/>
      <use xlink:href="#DejaVuSans-31" transform="translate(939.707031 0.78125)"/>
     </g>
    </g>
    <g id="line2d_40">
     <path d="M 347.96 226.421875 
L 352.96 226.421875 
L 357.96 226.421875 
" style="fill: none; stroke: #00bfbf; stroke-width: 2; stroke-linecap: square"/>
    </g>
    <g id="text_20">
     <!-- $c_{iss X1}: V_{D}$ =  6.0e-01 -->
     <g transform="translate(359.96 229.921875) scale(0.12 -0.12)">
      <defs>
       <path id="DejaVuSans-36" d="M 2113 2584 
Q 1688 2584 1439 2293 
Q 1191 2003 1191 1497 
Q 1191 994 1439 701 
Q 1688 409 2113 409 
Q 2538 409 2786 701 
Q 3034 994 3034 1497 
Q 3034 2003 2786 2293 
Q 2538 2584 2113 2584 
z
M 3366 4563 
L 3366 3988 
Q 3128 4100 2886 4159 
Q 2644 4219 2406 4219 
Q 1781 4219 1451 3797 
Q 1122 3375 1075 2522 
Q 1259 2794 1537 2939 
Q 1816 3084 2150 3084 
Q 2853 3084 3261 2657 
Q 3669 2231 3669 1497 
Q 3669 778 3244 343 
Q 2819 -91 2113 -91 
Q 1303 -91 875 529 
Q 447 1150 447 2328 
Q 447 3434 972 4092 
Q 1497 4750 2381 4750 
Q 2619 4750 2861 4703 
Q 3103 4656 3366 4563 
z
" transform="scale(0.015625)"/>
      </defs>
      <use xlink:href="#DejaVuSans-Oblique-63" transform="translate(0 0.78125)"/>
      <use xlink:href="#DejaVuSans-Oblique-69" transform="translate(54.980469 -15.625) scale(0.7)"/>
      <use xlink:href="#DejaVuSans-Oblique-73" transform="translate(74.428711 -15.625) scale(0.7)"/>
      <use xlink:href="#DejaVuSans-Oblique-73" transform="translate(110.898438 -15.625) scale(0.7)"/>
      <use xlink:href="#DejaVuSans-Oblique-58" transform="translate(147.368164 -15.625) scale(0.7)"/>
      <use xlink:href="#DejaVuSans-31" transform="translate(195.322266 -15.625) scale(0.7)"/>
      <use xlink:href="#DejaVuSans-3a" transform="translate(262.075195 0.78125)"/>
      <use xlink:href="#DejaVuSans-Oblique-56" transform="translate(315.249023 0.78125)"/>
      <use xlink:href="#DejaVuSans-Oblique-44" transform="translate(383.657227 -15.625) scale(0.7)"/>
      <use xlink:href="#DejaVuSans-20" transform="translate(440.292969 0.78125)"/>
      <use xlink:href="#DejaVuSans-3d" transform="translate(472.080078 0.78125)"/>
      <use xlink:href="#DejaVuSans-20" transform="translate(555.869141 0.78125)"/>
      <use xlink:href="#DejaVuSans-20" transform="translate(587.65625 0.78125)"/>
      <use xlink:href="#DejaVuSans-36" transform="translate(619.443359 0.78125)"/>
      <use xlink:href="#DejaVuSans-2e" transform="translate(683.066406 0.78125)"/>
      <use xlink:href="#DejaVuSans-30" transform="translate(714.853516 0.78125)"/>
      <use xlink:href="#DejaVuSans-65" transform="translate(778.476562 0.78125)"/>
      <use xlink:href="#DejaVuSans-2d" transform="translate(840 0.78125)"/>
      <use xlink:href="#DejaVuSans-30" transform="translate(876.083984 0.78125)"/>
      <use xlink:href="#DejaVuSans-31" transform="translate(939.707031 0.78125)"/>
     </g>
    </g>
    <g id="line2d_41">
     <path d="M 347.96 238.035625 
L 352.96 238.035625 
L 357.96 238.035625 
" style="fill: none; stroke: #bf00bf; stroke-width: 2; stroke-linecap: square"/>
    </g>
    <g id="text_21">
     <!-- $c_{iss X1}: V_{D}$ =  8.0e-01 -->
     <g transform="translate(359.96 241.535625) scale(0.12 -0.12)">
      <defs>
       <path id="DejaVuSans-38" d="M 2034 2216 
Q 1584 2216 1326 1975 
Q 1069 1734 1069 1313 
Q 1069 891 1326 650 
Q 1584 409 2034 409 
Q 2484 409 2743 651 
Q 3003 894 3003 1313 
Q 3003 1734 2745 1975 
Q 2488 2216 2034 2216 
z
M 1403 2484 
Q 997 2584 770 2862 
Q 544 3141 544 3541 
Q 544 4100 942 4425 
Q 1341 4750 2034 4750 
Q 2731 4750 3128 4425 
Q 3525 4100 3525 3541 
Q 3525 3141 3298 2862 
Q 3072 2584 2669 2484 
Q 3125 2378 3379 2068 
Q 3634 1759 3634 1313 
Q 3634 634 3220 271 
Q 2806 -91 2034 -91 
Q 1263 -91 848 271 
Q 434 634 434 1313 
Q 434 1759 690 2068 
Q 947 2378 1403 2484 
z
M 1172 3481 
Q 1172 3119 1398 2916 
Q 1625 2713 2034 2713 
Q 2441 2713 2670 2916 
Q 2900 3119 2900 3481 
Q 2900 3844 2670 4047 
Q 2441 4250 2034 4250 
Q 1625 4250 1398 4047 
Q 1172 3844 1172 3481 
z
" transform="scale(0.015625)"/>
      </defs>
      <use xlink:href="#DejaVuSans-Oblique-63" transform="translate(0 0.78125)"/>
      <use xlink:href="#DejaVuSans-Oblique-69" transform="translate(54.980469 -15.625) scale(0.7)"/>
      <use xlink:href="#DejaVuSans-Oblique-73" transform="translate(74.428711 -15.625) scale(0.7)"/>
      <use xlink:href="#DejaVuSans-Oblique-73" transform="translate(110.898438 -15.625) scale(0.7)"/>
      <use xlink:href="#DejaVuSans-Oblique-58" transform="translate(147.368164 -15.625) scale(0.7)"/>
      <use xlink:href="#DejaVuSans-31" transform="translate(195.322266 -15.625) scale(0.7)"/>
      <use xlink:href="#DejaVuSans-3a" transform="translate(262.075195 0.78125)"/>
      <use xlink:href="#DejaVuSans-Oblique-56" transform="translate(315.249023 0.78125)"/>
      <use xlink:href="#DejaVuSans-Oblique-44" transform="translate(383.657227 -15.625) scale(0.7)"/>
      <use xlink:href="#DejaVuSans-20" transform="translate(440.292969 0.78125)"/>
      <use xlink:href="#DejaVuSans-3d" transform="translate(472.080078 0.78125)"/>
      <use xlink:href="#DejaVuSans-20" transform="translate(555.869141 0.78125)"/>
      <use xlink:href="#DejaVuSans-20" transform="translate(587.65625 0.78125)"/>
      <use xlink:href="#DejaVuSans-38" transform="translate(619.443359 0.78125)"/>
      <use xlink:href="#DejaVuSans-2e" transform="translate(683.066406 0.78125)"/>
      <use xlink:href="#DejaVuSans-30" transform="translate(714.853516 0.78125)"/>
      <use xlink:href="#DejaVuSans-65" transform="translate(778.476562 0.78125)"/>
      <use xlink:href="#DejaVuSans-2d" transform="translate(840 0.78125)"/>
      <use xlink:href="#DejaVuSans-30" transform="translate(876.083984 0.78125)"/>
      <use xlink:href="#DejaVuSans-31" transform="translate(939.707031 0.78125)"/>
     </g>
    </g>
    <g id="line2d_42">
     <path d="M 347.96 249.649375 
L 352.96 249.649375 
L 357.96 249.649375 
" style="fill: none; stroke: #bfbf00; stroke-width: 2; stroke-linecap: square"/>
    </g>
    <g id="text_22">
     <!-- $c_{iss X1}: V_{D}$ =  1.0e+00 -->
     <g transform="translate(359.96 253.149375) scale(0.12 -0.12)">
      <defs>
       <path id="DejaVuSans-2b" d="M 2944 4013 
L 2944 2272 
L 4684 2272 
L 4684 1741 
L 2944 1741 
L 2944 0 
L 2419 0 
L 2419 1741 
L 678 1741 
L 678 2272 
L 2419 2272 
L 2419 4013 
L 2944 4013 
z
" transform="scale(0.015625)"/>
      </defs>
      <use xlink:href="#DejaVuSans-Oblique-63" transform="translate(0 0.78125)"/>
      <use xlink:href="#DejaVuSans-Oblique-69" transform="translate(54.980469 -15.625) scale(0.7)"/>
      <use xlink:href="#DejaVuSans-Oblique-73" transform="translate(74.428711 -15.625) scale(0.7)"/>
      <use xlink:href="#DejaVuSans-Oblique-73" transform="translate(110.898438 -15.625) scale(0.7)"/>
      <use xlink:href="#DejaVuSans-Oblique-58" transform="translate(147.368164 -15.625) scale(0.7)"/>
      <use xlink:href="#DejaVuSans-31" transform="translate(195.322266 -15.625) scale(0.7)"/>
      <use xlink:href="#DejaVuSans-3a" transform="translate(262.075195 0.78125)"/>
      <use xlink:href="#DejaVuSans-Oblique-56" transform="translate(315.249023 0.78125)"/>
      <use xlink:href="#DejaVuSans-Oblique-44" transform="translate(383.657227 -15.625) scale(0.7)"/>
      <use xlink:href="#DejaVuSans-20" transform="translate(440.292969 0.78125)"/>
      <use xlink:href="#DejaVuSans-3d" transform="translate(472.080078 0.78125)"/>
      <use xlink:href="#DejaVuSans-20" transform="translate(555.869141 0.78125)"/>
      <use xlink:href="#DejaVuSans-20" transform="translate(587.65625 0.78125)"/>
      <use xlink:href="#DejaVuSans-31" transform="translate(619.443359 0.78125)"/>
      <use xlink:href="#DejaVuSans-2e" transform="translate(683.066406 0.78125)"/>
      <use xlink:href="#DejaVuSans-30" transform="translate(714.853516 0.78125)"/>
      <use xlink:href="#DejaVuSans-65" transform="translate(778.476562 0.78125)"/>
      <use xlink:href="#DejaVuSans-2b" transform="translate(840 0.78125)"/>
      <use xlink:href="#DejaVuSans-30" transform="translate(923.789062 0.78125)"/>
      <use xlink:href="#DejaVuSans-30" transform="translate(987.412109 0.78125)"/>
     </g>
    </g>
    <g id="line2d_43">
     <path d="M 347.96 261.263125 
L 352.96 261.263125 
L 357.96 261.263125 
" style="fill: none; stroke: #000000; stroke-width: 2; stroke-linecap: square"/>
    </g>
    <g id="text_23">
     <!-- $c_{iss X1}: V_{D}$ =  1.2e+00 -->
     <g transform="translate(359.96 264.763125) scale(0.12 -0.12)">
      <use xlink:href="#DejaVuSans-Oblique-63" transform="translate(0 0.78125)"/>
      <use xlink:href="#DejaVuSans-Oblique-69" transform="translate(54.980469 -15.625) scale(0.7)"/>
      <use xlink:href="#DejaVuSans-Oblique-73" transform="translate(74.428711 -15.625) scale(0.7)"/>
      <use xlink:href="#DejaVuSans-Oblique-73" transform="translate(110.898438 -15.625) scale(0.7)"/>
      <use xlink:href="#DejaVuSans-Oblique-58" transform="translate(147.368164 -15.625) scale(0.7)"/>
      <use xlink:href="#DejaVuSans-31" transform="translate(195.322266 -15.625) scale(0.7)"/>
      <use xlink:href="#DejaVuSans-3a" transform="translate(262.075195 0.78125)"/>
      <use xlink:href="#DejaVuSans-Oblique-56" transform="translate(315.249023 0.78125)"/>
      <use xlink:href="#DejaVuSans-Oblique-44" transform="translate(383.657227 -15.625) scale(0.7)"/>
      <use xlink:href="#DejaVuSans-20" transform="translate(440.292969 0.78125)"/>
      <use xlink:href="#DejaVuSans-3d" transform="translate(472.080078 0.78125)"/>
      <use xlink:href="#DejaVuSans-20" transform="translate(555.869141 0.78125)"/>
      <use xlink:href="#DejaVuSans-20" transform="translate(587.65625 0.78125)"/>
      <use xlink:href="#DejaVuSans-31" transform="translate(619.443359 0.78125)"/>
      <use xlink:href="#DejaVuSans-2e" transform="translate(683.066406 0.78125)"/>
      <use xlink:href="#DejaVuSans-32" transform="translate(709.353516 0.78125)"/>
      <use xlink:href="#DejaVuSans-65" transform="translate(772.976562 0.78125)"/>
      <use xlink:href="#DejaVuSans-2b" transform="translate(834.5 0.78125)"/>
      <use xlink:href="#DejaVuSans-30" transform="translate(918.289062 0.78125)"/>
      <use xlink:href="#DejaVuSans-30" transform="translate(981.912109 0.78125)"/>
     </g>
    </g>
    <g id="line2d_44">
     <path d="M 347.96 272.876875 
L 352.96 272.876875 
L 357.96 272.876875 
" style="fill: none; stroke: #ff0000; stroke-width: 2; stroke-linecap: square"/>
    </g>
    <g id="text_24">
     <!-- $c_{iss X1}: V_{D}$ =  1.4e+00 -->
     <g transform="translate(359.96 276.376875) scale(0.12 -0.12)">
      <use xlink:href="#DejaVuSans-Oblique-63" transform="translate(0 0.78125)"/>
      <use xlink:href="#DejaVuSans-Oblique-69" transform="translate(54.980469 -15.625) scale(0.7)"/>
      <use xlink:href="#DejaVuSans-Oblique-73" transform="translate(74.428711 -15.625) scale(0.7)"/>
      <use xlink:href="#DejaVuSans-Oblique-73" transform="translate(110.898438 -15.625) scale(0.7)"/>
      <use xlink:href="#DejaVuSans-Oblique-58" transform="translate(147.368164 -15.625) scale(0.7)"/>
      <use xlink:href="#DejaVuSans-31" transform="translate(195.322266 -15.625) scale(0.7)"/>
      <use xlink:href="#DejaVuSans-3a" transform="translate(262.075195 0.78125)"/>
      <use xlink:href="#DejaVuSans-Oblique-56" transform="translate(315.249023 0.78125)"/>
      <use xlink:href="#DejaVuSans-Oblique-44" transform="translate(383.657227 -15.625) scale(0.7)"/>
      <use xlink:href="#DejaVuSans-20" transform="translate(440.292969 0.78125)"/>
      <use xlink:href="#DejaVuSans-3d" transform="translate(472.080078 0.78125)"/>
      <use xlink:href="#DejaVuSans-20" transform="translate(555.869141 0.78125)"/>
      <use xlink:href="#DejaVuSans-20" transform="translate(587.65625 0.78125)"/>
      <use xlink:href="#DejaVuSans-31" transform="translate(619.443359 0.78125)"/>
      <use xlink:href="#DejaVuSans-2e" transform="translate(683.066406 0.78125)"/>
      <use xlink:href="#DejaVuSans-34" transform="translate(714.853516 0.78125)"/>
      <use xlink:href="#DejaVuSans-65" transform="translate(778.476562 0.78125)"/>
      <use xlink:href="#DejaVuSans-2b" transform="translate(840 0.78125)"/>
      <use xlink:href="#DejaVuSans-30" transform="translate(923.789062 0.78125)"/>
      <use xlink:href="#DejaVuSans-30" transform="translate(987.412109 0.78125)"/>
     </g>
    </g>
    <g id="line2d_45">
     <path d="M 347.96 284.490625 
L 352.96 284.490625 
L 357.96 284.490625 
" style="fill: none; stroke: #0000ff; stroke-width: 2; stroke-linecap: square"/>
    </g>
    <g id="text_25">
     <!-- $c_{iss X1}: V_{D}$ =  1.6e+00 -->
     <g transform="translate(359.96 287.990625) scale(0.12 -0.12)">
      <use xlink:href="#DejaVuSans-Oblique-63" transform="translate(0 0.78125)"/>
      <use xlink:href="#DejaVuSans-Oblique-69" transform="translate(54.980469 -15.625) scale(0.7)"/>
      <use xlink:href="#DejaVuSans-Oblique-73" transform="translate(74.428711 -15.625) scale(0.7)"/>
      <use xlink:href="#DejaVuSans-Oblique-73" transform="translate(110.898438 -15.625) scale(0.7)"/>
      <use xlink:href="#DejaVuSans-Oblique-58" transform="translate(147.368164 -15.625) scale(0.7)"/>
      <use xlink:href="#DejaVuSans-31" transform="translate(195.322266 -15.625) scale(0.7)"/>
      <use xlink:href="#DejaVuSans-3a" transform="translate(262.075195 0.78125)"/>
      <use xlink:href="#DejaVuSans-Oblique-56" transform="translate(315.249023 0.78125)"/>
      <use xlink:href="#DejaVuSans-Oblique-44" transform="translate(383.657227 -15.625) scale(0.7)"/>
      <use xlink:href="#DejaVuSans-20" transform="translate(440.292969 0.78125)"/>
      <use xlink:href="#DejaVuSans-3d" transform="translate(472.080078 0.78125)"/>
      <use xlink:href="#DejaVuSans-20" transform="translate(555.869141 0.78125)"/>
      <use xlink:href="#DejaVuSans-20" transform="translate(587.65625 0.78125)"/>
      <use xlink:href="#DejaVuSans-31" transform="translate(619.443359 0.78125)"/>
      <use xlink:href="#DejaVuSans-2e" transform="translate(683.066406 0.78125)"/>
      <use xlink:href="#DejaVuSans-36" transform="translate(714.853516 0.78125)"/>
      <use xlink:href="#DejaVuSans-65" transform="translate(778.476562 0.78125)"/>
      <use xlink:href="#DejaVuSans-2b" transform="translate(840 0.78125)"/>
      <use xlink:href="#DejaVuSans-30" transform="translate(923.789062 0.78125)"/>
      <use xlink:href="#DejaVuSans-30" transform="translate(987.412109 0.78125)"/>
     </g>
    </g>
    <g id="line2d_46">
     <path d="M 347.96 296.104375 
L 352.96 296.104375 
L 357.96 296.104375 
" style="fill: none; stroke: #008000; stroke-width: 2; stroke-linecap: square"/>
    </g>
    <g id="text_26">
     <!-- $c_{iss X1}: V_{D}$ =  1.8e+00 -->
     <g transform="translate(359.96 299.604375) scale(0.12 -0.12)">
      <use xlink:href="#DejaVuSans-Oblique-63" transform="translate(0 0.78125)"/>
      <use xlink:href="#DejaVuSans-Oblique-69" transform="translate(54.980469 -15.625) scale(0.7)"/>
      <use xlink:href="#DejaVuSans-Oblique-73" transform="translate(74.428711 -15.625) scale(0.7)"/>
      <use xlink:href="#DejaVuSans-Oblique-73" transform="translate(110.898438 -15.625) scale(0.7)"/>
      <use xlink:href="#DejaVuSans-Oblique-58" transform="translate(147.368164 -15.625) scale(0.7)"/>
      <use xlink:href="#DejaVuSans-31" transform="translate(195.322266 -15.625) scale(0.7)"/>
      <use xlink:href="#DejaVuSans-3a" transform="translate(262.075195 0.78125)"/>
      <use xlink:href="#DejaVuSans-Oblique-56" transform="translate(315.249023 0.78125)"/>
      <use xlink:href="#DejaVuSans-Oblique-44" transform="translate(383.657227 -15.625) scale(0.7)"/>
      <use xlink:href="#DejaVuSans-20" transform="translate(440.292969 0.78125)"/>
      <use xlink:href="#DejaVuSans-3d" transform="translate(472.080078 0.78125)"/>
      <use xlink:href="#DejaVuSans-20" transform="translate(555.869141 0.78125)"/>
      <use xlink:href="#DejaVuSans-20" transform="translate(587.65625 0.78125)"/>
      <use xlink:href="#DejaVuSans-31" transform="translate(619.443359 0.78125)"/>
      <use xlink:href="#DejaVuSans-2e" transform="translate(683.066406 0.78125)"/>
      <use xlink:href="#DejaVuSans-38" transform="translate(712.228516 0.78125)"/>
      <use xlink:href="#DejaVuSans-65" transform="translate(775.851562 0.78125)"/>
      <use xlink:href="#DejaVuSans-2b" transform="translate(837.375 0.78125)"/>
      <use xlink:href="#DejaVuSans-30" transform="translate(921.164062 0.78125)"/>
      <use xlink:href="#DejaVuSans-30" transform="translate(984.787109 0.78125)"/>
     </g>
    </g>
   </g>
  </g>
 </g>
 <defs>
  <clipPath id="p69fab00265">
   <rect x="64.275" y="28.8" width="428.925" height="280.3"/>
  </clipPath>
 </defs>
</svg>
