<?xml version="1.0" encoding="utf-8" standalone="no"?>
<!DOCTYPE svg PUBLIC "-//W3C//DTD SVG 1.1//EN"
  "http://www.w3.org/Graphics/SVG/1.1/DTD/svg11.dtd">
<svg xmlns:xlink="http://www.w3.org/1999/xlink" width="504pt" height="360pt" viewBox="0 0 504 360" xmlns="http://www.w3.org/2000/svg" version="1.1">
 <metadata>
  <rdf:RDF xmlns:dc="http://purl.org/dc/elements/1.1/" xmlns:cc="http://creativecommons.org/ns#" xmlns:rdf="http://www.w3.org/1999/02/22-rdf-syntax-ns#">
   <cc:Work>
    <dc:type rdf:resource="http://purl.org/dc/dcmitype/StillImage"/>
    <dc:date>2024-11-18T11:14:06.505145</dc:date>
    <dc:format>image/svg+xml</dc:format>
    <dc:creator>
     <cc:Agent>
      <dc:title>Matplotlib v3.9.2, https://matplotlib.org/</dc:title>
     </cc:Agent>
    </dc:creator>
   </cc:Work>
  </rdf:RDF>
 </metadata>
 <defs>
  <style type="text/css">*{stroke-linejoin: round; stroke-linecap: butt}</style>
 </defs>
 <g id="figure_1">
  <g id="patch_1">
   <path d="M 0 360 
L 504 360 
L 504 0 
L 0 0 
z
" style="fill: #ffffff"/>
  </g>
  <g id="axes_1">
   <g id="patch_2">
    <path d="M 54.05 309.1 
L 493.2 309.1 
L 493.2 28.8 
L 54.05 28.8 
z
" style="fill: #ffffff"/>
   </g>
   <g id="matplotlib.axis_1">
    <g id="xtick_1">
     <g id="line2d_1">
      <path d="M 74.011361 309.1 
L 74.011361 28.8 
" clip-path="url(#p42c4346dc5)" style="fill: none; stroke: #808080; stroke-width: 0.8; stroke-linecap: square"/>
     </g>
     <g id="line2d_2">
      <defs>
       <path id="mdd01bd3d28" d="M 0 0 
L 0 3.5 
" style="stroke: #000000; stroke-width: 0.8"/>
      </defs>
      <g>
       <use xlink:href="#mdd01bd3d28" x="74.011361" y="309.1" style="stroke: #000000; stroke-width: 0.8"/>
      </g>
     </g>
     <g id="text_1">
      <!-- 0 -->
      <g transform="translate(70.193861 325.218125) scale(0.12 -0.12)">
       <defs>
        <path id="DejaVuSans-30" d="M 2034 4250 
Q 1547 4250 1301 3770 
Q 1056 3291 1056 2328 
Q 1056 1369 1301 889 
Q 1547 409 2034 409 
Q 2525 409 2770 889 
Q 3016 1369 3016 2328 
Q 3016 3291 2770 3770 
Q 2525 4250 2034 4250 
z
M 2034 4750 
Q 2819 4750 3233 4129 
Q 3647 3509 3647 2328 
Q 3647 1150 3233 529 
Q 2819 -91 2034 -91 
Q 1250 -91 836 529 
Q 422 1150 422 2328 
Q 422 3509 836 4129 
Q 1250 4750 2034 4750 
z
" transform="scale(0.015625)"/>
       </defs>
       <use xlink:href="#DejaVuSans-30"/>
      </g>
     </g>
    </g>
    <g id="xtick_2">
     <g id="line2d_3">
      <path d="M 130.686846 309.1 
L 130.686846 28.8 
" clip-path="url(#p42c4346dc5)" style="fill: none; stroke: #808080; stroke-width: 0.8; stroke-linecap: square"/>
     </g>
     <g id="line2d_4">
      <g>
       <use xlink:href="#mdd01bd3d28" x="130.686846" y="309.1" style="stroke: #000000; stroke-width: 0.8"/>
      </g>
     </g>
     <g id="text_2">
      <!-- 25 -->
      <g transform="translate(123.051846 325.218125) scale(0.12 -0.12)">
       <defs>
        <path id="DejaVuSans-32" d="M 1228 531 
L 3431 531 
L 3431 0 
L 469 0 
L 469 531 
Q 828 903 1448 1529 
Q 2069 2156 2228 2338 
Q 2531 2678 2651 2914 
Q 2772 3150 2772 3378 
Q 2772 3750 2511 3984 
Q 2250 4219 1831 4219 
Q 1534 4219 1204 4116 
Q 875 4013 500 3803 
L 500 4441 
Q 881 4594 1212 4672 
Q 1544 4750 1819 4750 
Q 2544 4750 2975 4387 
Q 3406 4025 3406 3419 
Q 3406 3131 3298 2873 
Q 3191 2616 2906 2266 
Q 2828 2175 2409 1742 
Q 1991 1309 1228 531 
z
" transform="scale(0.015625)"/>
        <path id="DejaVuSans-35" d="M 691 4666 
L 3169 4666 
L 3169 4134 
L 1269 4134 
L 1269 2991 
Q 1406 3038 1543 3061 
Q 1681 3084 1819 3084 
Q 2600 3084 3056 2656 
Q 3513 2228 3513 1497 
Q 3513 744 3044 326 
Q 2575 -91 1722 -91 
Q 1428 -91 1123 -41 
Q 819 9 494 109 
L 494 744 
Q 775 591 1075 516 
Q 1375 441 1709 441 
Q 2250 441 2565 725 
Q 2881 1009 2881 1497 
Q 2881 1984 2565 2268 
Q 2250 2553 1709 2553 
Q 1456 2553 1204 2497 
Q 953 2441 691 2322 
L 691 4666 
z
" transform="scale(0.015625)"/>
       </defs>
       <use xlink:href="#DejaVuSans-32"/>
       <use xlink:href="#DejaVuSans-35" x="63.623047"/>
      </g>
     </g>
    </g>
    <g id="xtick_3">
     <g id="line2d_5">
      <path d="M 187.362331 309.1 
L 187.362331 28.8 
" clip-path="url(#p42c4346dc5)" style="fill: none; stroke: #808080; stroke-width: 0.8; stroke-linecap: square"/>
     </g>
     <g id="line2d_6">
      <g>
       <use xlink:href="#mdd01bd3d28" x="187.362331" y="309.1" style="stroke: #000000; stroke-width: 0.8"/>
      </g>
     </g>
     <g id="text_3">
      <!-- 50 -->
      <g transform="translate(179.727331 325.218125) scale(0.12 -0.12)">
       <use xlink:href="#DejaVuSans-35"/>
       <use xlink:href="#DejaVuSans-30" x="63.623047"/>
      </g>
     </g>
    </g>
    <g id="xtick_4">
     <g id="line2d_7">
      <path d="M 244.037815 309.1 
L 244.037815 28.8 
" clip-path="url(#p42c4346dc5)" style="fill: none; stroke: #808080; stroke-width: 0.8; stroke-linecap: square"/>
     </g>
     <g id="line2d_8">
      <g>
       <use xlink:href="#mdd01bd3d28" x="244.037815" y="309.1" style="stroke: #000000; stroke-width: 0.8"/>
      </g>
     </g>
     <g id="text_4">
      <!-- 75 -->
      <g transform="translate(236.402815 325.218125) scale(0.12 -0.12)">
       <defs>
        <path id="DejaVuSans-37" d="M 525 4666 
L 3525 4666 
L 3525 4397 
L 1831 0 
L 1172 0 
L 2766 4134 
L 525 4134 
L 525 4666 
z
" transform="scale(0.015625)"/>
       </defs>
       <use xlink:href="#DejaVuSans-37"/>
       <use xlink:href="#DejaVuSans-35" x="63.623047"/>
      </g>
     </g>
    </g>
    <g id="xtick_5">
     <g id="line2d_9">
      <path d="M 300.7133 309.1 
L 300.7133 28.8 
" clip-path="url(#p42c4346dc5)" style="fill: none; stroke: #808080; stroke-width: 0.8; stroke-linecap: square"/>
     </g>
     <g id="line2d_10">
      <g>
       <use xlink:href="#mdd01bd3d28" x="300.7133" y="309.1" style="stroke: #000000; stroke-width: 0.8"/>
      </g>
     </g>
     <g id="text_5">
      <!-- 100 -->
      <g transform="translate(289.2608 325.218125) scale(0.12 -0.12)">
       <defs>
        <path id="DejaVuSans-31" d="M 794 531 
L 1825 531 
L 1825 4091 
L 703 3866 
L 703 4441 
L 1819 4666 
L 2450 4666 
L 2450 531 
L 3481 531 
L 3481 0 
L 794 0 
L 794 531 
z
" transform="scale(0.015625)"/>
       </defs>
       <use xlink:href="#DejaVuSans-31"/>
       <use xlink:href="#DejaVuSans-30" x="63.623047"/>
       <use xlink:href="#DejaVuSans-30" x="127.246094"/>
      </g>
     </g>
    </g>
    <g id="xtick_6">
     <g id="line2d_11">
      <path d="M 357.388785 309.1 
L 357.388785 28.8 
" clip-path="url(#p42c4346dc5)" style="fill: none; stroke: #808080; stroke-width: 0.8; stroke-linecap: square"/>
     </g>
     <g id="line2d_12">
      <g>
       <use xlink:href="#mdd01bd3d28" x="357.388785" y="309.1" style="stroke: #000000; stroke-width: 0.8"/>
      </g>
     </g>
     <g id="text_6">
      <!-- 125 -->
      <g transform="translate(345.936285 325.218125) scale(0.12 -0.12)">
       <use xlink:href="#DejaVuSans-31"/>
       <use xlink:href="#DejaVuSans-32" x="63.623047"/>
       <use xlink:href="#DejaVuSans-35" x="127.246094"/>
      </g>
     </g>
    </g>
    <g id="xtick_7">
     <g id="line2d_13">
      <path d="M 414.064269 309.1 
L 414.064269 28.8 
" clip-path="url(#p42c4346dc5)" style="fill: none; stroke: #808080; stroke-width: 0.8; stroke-linecap: square"/>
     </g>
     <g id="line2d_14">
      <g>
       <use xlink:href="#mdd01bd3d28" x="414.064269" y="309.1" style="stroke: #000000; stroke-width: 0.8"/>
      </g>
     </g>
     <g id="text_7">
      <!-- 150 -->
      <g transform="translate(402.611769 325.218125) scale(0.12 -0.12)">
       <use xlink:href="#DejaVuSans-31"/>
       <use xlink:href="#DejaVuSans-35" x="63.623047"/>
       <use xlink:href="#DejaVuSans-30" x="127.246094"/>
      </g>
     </g>
    </g>
    <g id="xtick_8">
     <g id="line2d_15">
      <path d="M 470.739754 309.1 
L 470.739754 28.8 
" clip-path="url(#p42c4346dc5)" style="fill: none; stroke: #808080; stroke-width: 0.8; stroke-linecap: square"/>
     </g>
     <g id="line2d_16">
      <g>
       <use xlink:href="#mdd01bd3d28" x="470.739754" y="309.1" style="stroke: #000000; stroke-width: 0.8"/>
      </g>
     </g>
     <g id="text_8">
      <!-- 175 -->
      <g transform="translate(459.287254 325.218125) scale(0.12 -0.12)">
       <use xlink:href="#DejaVuSans-31"/>
       <use xlink:href="#DejaVuSans-37" x="63.623047"/>
       <use xlink:href="#DejaVuSans-35" x="127.246094"/>
      </g>
     </g>
    </g>
    <g id="text_9">
     <!-- $I_{DS X1}$ [uA] -->
     <g transform="translate(245.725 340.831875) scale(0.12 -0.12)">
      <defs>
       <path id="DejaVuSans-Oblique-49" d="M 1081 4666 
L 1716 4666 
L 806 0 
L 172 0 
L 1081 4666 
z
" transform="scale(0.015625)"/>
       <path id="DejaVuSans-Oblique-44" d="M 1081 4666 
L 2438 4666 
Q 3519 4666 4070 4208 
Q 4622 3750 4622 2847 
Q 4622 2250 4412 1698 
Q 4203 1147 3834 769 
Q 3463 381 2891 190 
Q 2319 0 1538 0 
L 172 0 
L 1081 4666 
z
M 1613 4147 
L 909 519 
L 1734 519 
Q 2794 519 3375 1128 
Q 3956 1738 3956 2847 
Q 3956 3519 3581 3833 
Q 3206 4147 2406 4147 
L 1613 4147 
z
" transform="scale(0.015625)"/>
       <path id="DejaVuSans-Oblique-53" d="M 3859 4513 
L 3738 3897 
Q 3422 4066 3111 4152 
Q 2800 4238 2509 4238 
Q 1944 4238 1609 3991 
Q 1275 3744 1275 3334 
Q 1275 3109 1398 2989 
Q 1522 2869 2034 2731 
L 2413 2638 
Q 3053 2472 3303 2217 
Q 3553 1963 3553 1503 
Q 3553 797 2998 353 
Q 2444 -91 1538 -91 
Q 1166 -91 791 -17 
Q 416 56 38 206 
L 166 856 
Q 513 641 861 531 
Q 1209 422 1556 422 
Q 2147 422 2503 684 
Q 2859 947 2859 1369 
Q 2859 1650 2717 1795 
Q 2575 1941 2106 2059 
L 1728 2156 
Q 1081 2325 845 2545 
Q 609 2766 609 3163 
Q 609 3859 1145 4304 
Q 1681 4750 2541 4750 
Q 2875 4750 3203 4690 
Q 3531 4631 3859 4513 
z
" transform="scale(0.015625)"/>
       <path id="DejaVuSans-Oblique-58" d="M 878 4666 
L 1516 4666 
L 2316 2981 
L 3763 4666 
L 4500 4666 
L 2578 2438 
L 3738 0 
L 3103 0 
L 2163 1966 
L 459 0 
L -275 0 
L 1906 2509 
L 878 4666 
z
" transform="scale(0.015625)"/>
       <path id="DejaVuSans-20" transform="scale(0.015625)"/>
       <path id="DejaVuSans-5b" d="M 550 4863 
L 1875 4863 
L 1875 4416 
L 1125 4416 
L 1125 -397 
L 1875 -397 
L 1875 -844 
L 550 -844 
L 550 4863 
z
" transform="scale(0.015625)"/>
       <path id="DejaVuSans-75" d="M 544 1381 
L 544 3500 
L 1119 3500 
L 1119 1403 
Q 1119 906 1312 657 
Q 1506 409 1894 409 
Q 2359 409 2629 706 
Q 2900 1003 2900 1516 
L 2900 3500 
L 3475 3500 
L 3475 0 
L 2900 0 
L 2900 538 
Q 2691 219 2414 64 
Q 2138 -91 1772 -91 
Q 1169 -91 856 284 
Q 544 659 544 1381 
z
M 1991 3584 
L 1991 3584 
z
" transform="scale(0.015625)"/>
       <path id="DejaVuSans-41" d="M 2188 4044 
L 1331 1722 
L 3047 1722 
L 2188 4044 
z
M 1831 4666 
L 2547 4666 
L 4325 0 
L 3669 0 
L 3244 1197 
L 1141 1197 
L 716 0 
L 50 0 
L 1831 4666 
z
" transform="scale(0.015625)"/>
       <path id="DejaVuSans-5d" d="M 1947 4863 
L 1947 -844 
L 622 -844 
L 622 -397 
L 1369 -397 
L 1369 4416 
L 622 4416 
L 622 4863 
L 1947 4863 
z
" transform="scale(0.015625)"/>
      </defs>
      <use xlink:href="#DejaVuSans-Oblique-49" transform="translate(0 0.015625)"/>
      <use xlink:href="#DejaVuSans-Oblique-44" transform="translate(29.492188 -16.390625) scale(0.7)"/>
      <use xlink:href="#DejaVuSans-Oblique-53" transform="translate(83.393555 -16.390625) scale(0.7)"/>
      <use xlink:href="#DejaVuSans-Oblique-58" transform="translate(127.827148 -16.390625) scale(0.7)"/>
      <use xlink:href="#DejaVuSans-31" transform="translate(175.78125 -16.390625) scale(0.7)"/>
      <use xlink:href="#DejaVuSans-20" transform="translate(223.051758 0.015625)"/>
      <use xlink:href="#DejaVuSans-5b" transform="translate(254.838867 0.015625)"/>
      <use xlink:href="#DejaVuSans-75" transform="translate(293.852539 0.015625)"/>
      <use xlink:href="#DejaVuSans-41" transform="translate(357.231445 0.015625)"/>
      <use xlink:href="#DejaVuSans-5d" transform="translate(425.639648 0.015625)"/>
     </g>
    </g>
   </g>
   <g id="matplotlib.axis_2">
    <g id="ytick_1">
     <g id="line2d_17">
      <path d="M 54.05 282.351299 
L 493.2 282.351299 
" clip-path="url(#p42c4346dc5)" style="fill: none; stroke: #808080; stroke-width: 0.8; stroke-linecap: square"/>
     </g>
     <g id="line2d_18">
      <defs>
       <path id="mab9d99b5ae" d="M 0 0 
L -3.5 0 
" style="stroke: #000000; stroke-width: 0.8"/>
      </defs>
      <g>
       <use xlink:href="#mab9d99b5ae" x="54.05" y="282.351299" style="stroke: #000000; stroke-width: 0.8"/>
      </g>
     </g>
     <g id="text_10">
      <!-- 0 -->
      <g transform="translate(39.415 286.910362) scale(0.12 -0.12)">
       <use xlink:href="#DejaVuSans-30"/>
      </g>
     </g>
    </g>
    <g id="ytick_2">
     <g id="line2d_19">
      <path d="M 54.05 224.064301 
L 493.2 224.064301 
" clip-path="url(#p42c4346dc5)" style="fill: none; stroke: #808080; stroke-width: 0.8; stroke-linecap: square"/>
     </g>
     <g id="line2d_20">
      <g>
       <use xlink:href="#mab9d99b5ae" x="54.05" y="224.064301" style="stroke: #000000; stroke-width: 0.8"/>
      </g>
     </g>
     <g id="text_11">
      <!-- 20 -->
      <g transform="translate(31.78 228.623364) scale(0.12 -0.12)">
       <use xlink:href="#DejaVuSans-32"/>
       <use xlink:href="#DejaVuSans-30" x="63.623047"/>
      </g>
     </g>
    </g>
    <g id="ytick_3">
     <g id="line2d_21">
      <path d="M 54.05 165.777303 
L 493.2 165.777303 
" clip-path="url(#p42c4346dc5)" style="fill: none; stroke: #808080; stroke-width: 0.8; stroke-linecap: square"/>
     </g>
     <g id="line2d_22">
      <g>
       <use xlink:href="#mab9d99b5ae" x="54.05" y="165.777303" style="stroke: #000000; stroke-width: 0.8"/>
      </g>
     </g>
     <g id="text_12">
      <!-- 40 -->
      <g transform="translate(31.78 170.336366) scale(0.12 -0.12)">
       <defs>
        <path id="DejaVuSans-34" d="M 2419 4116 
L 825 1625 
L 2419 1625 
L 2419 4116 
z
M 2253 4666 
L 3047 4666 
L 3047 1625 
L 3713 1625 
L 3713 1100 
L 3047 1100 
L 3047 0 
L 2419 0 
L 2419 1100 
L 313 1100 
L 313 1709 
L 2253 4666 
z
" transform="scale(0.015625)"/>
       </defs>
       <use xlink:href="#DejaVuSans-34"/>
       <use xlink:href="#DejaVuSans-30" x="63.623047"/>
      </g>
     </g>
    </g>
    <g id="ytick_4">
     <g id="line2d_23">
      <path d="M 54.05 107.490305 
L 493.2 107.490305 
" clip-path="url(#p42c4346dc5)" style="fill: none; stroke: #808080; stroke-width: 0.8; stroke-linecap: square"/>
     </g>
     <g id="line2d_24">
      <g>
       <use xlink:href="#mab9d99b5ae" x="54.05" y="107.490305" style="stroke: #000000; stroke-width: 0.8"/>
      </g>
     </g>
     <g id="text_13">
      <!-- 60 -->
      <g transform="translate(31.78 112.049368) scale(0.12 -0.12)">
       <defs>
        <path id="DejaVuSans-36" d="M 2113 2584 
Q 1688 2584 1439 2293 
Q 1191 2003 1191 1497 
Q 1191 994 1439 701 
Q 1688 409 2113 409 
Q 2538 409 2786 701 
Q 3034 994 3034 1497 
Q 3034 2003 2786 2293 
Q 2538 2584 2113 2584 
z
M 3366 4563 
L 3366 3988 
Q 3128 4100 2886 4159 
Q 2644 4219 2406 4219 
Q 1781 4219 1451 3797 
Q 1122 3375 1075 2522 
Q 1259 2794 1537 2939 
Q 1816 3084 2150 3084 
Q 2853 3084 3261 2657 
Q 3669 2231 3669 1497 
Q 3669 778 3244 343 
Q 2819 -91 2113 -91 
Q 1303 -91 875 529 
Q 447 1150 447 2328 
Q 447 3434 972 4092 
Q 1497 4750 2381 4750 
Q 2619 4750 2861 4703 
Q 3103 4656 3366 4563 
z
" transform="scale(0.015625)"/>
       </defs>
       <use xlink:href="#DejaVuSans-36"/>
       <use xlink:href="#DejaVuSans-30" x="63.623047"/>
      </g>
     </g>
    </g>
    <g id="ytick_5">
     <g id="line2d_25">
      <path d="M 54.05 49.203307 
L 493.2 49.203307 
" clip-path="url(#p42c4346dc5)" style="fill: none; stroke: #808080; stroke-width: 0.8; stroke-linecap: square"/>
     </g>
     <g id="line2d_26">
      <g>
       <use xlink:href="#mab9d99b5ae" x="54.05" y="49.203307" style="stroke: #000000; stroke-width: 0.8"/>
      </g>
     </g>
     <g id="text_14">
      <!-- 80 -->
      <g transform="translate(31.78 53.76237) scale(0.12 -0.12)">
       <defs>
        <path id="DejaVuSans-38" d="M 2034 2216 
Q 1584 2216 1326 1975 
Q 1069 1734 1069 1313 
Q 1069 891 1326 650 
Q 1584 409 2034 409 
Q 2484 409 2743 651 
Q 3003 894 3003 1313 
Q 3003 1734 2745 1975 
Q 2488 2216 2034 2216 
z
M 1403 2484 
Q 997 2584 770 2862 
Q 544 3141 544 3541 
Q 544 4100 942 4425 
Q 1341 4750 2034 4750 
Q 2731 4750 3128 4425 
Q 3525 4100 3525 3541 
Q 3525 3141 3298 2862 
Q 3072 2584 2669 2484 
Q 3125 2378 3379 2068 
Q 3634 1759 3634 1313 
Q 3634 634 3220 271 
Q 2806 -91 2034 -91 
Q 1263 -91 848 271 
Q 434 634 434 1313 
Q 434 1759 690 2068 
Q 947 2378 1403 2484 
z
M 1172 3481 
Q 1172 3119 1398 2916 
Q 1625 2713 2034 2713 
Q 2441 2713 2670 2916 
Q 2900 3119 2900 3481 
Q 2900 3844 2670 4047 
Q 2441 4250 2034 4250 
Q 1625 4250 1398 4047 
Q 1172 3844 1172 3481 
z
" transform="scale(0.015625)"/>
       </defs>
       <use xlink:href="#DejaVuSans-38"/>
       <use xlink:href="#DejaVuSans-30" x="63.623047"/>
      </g>
     </g>
    </g>
    <g id="text_15">
     <!-- $g_{m X1}\,$ [uS] -->
     <g transform="translate(25.26 197.75) rotate(-90) scale(0.12 -0.12)">
      <defs>
       <path id="DejaVuSans-Oblique-67" d="M 3816 3500 
L 3219 434 
Q 3047 -456 2561 -893 
Q 2075 -1331 1253 -1331 
Q 950 -1331 690 -1286 
Q 431 -1241 206 -1147 
L 313 -588 
Q 525 -725 762 -790 
Q 1000 -856 1269 -856 
Q 1816 -856 2167 -557 
Q 2519 -259 2631 300 
L 2681 563 
Q 2441 288 2122 144 
Q 1803 0 1434 0 
Q 903 0 598 351 
Q 294 703 294 1319 
Q 294 1803 478 2267 
Q 663 2731 997 3091 
Q 1219 3328 1514 3456 
Q 1809 3584 2131 3584 
Q 2484 3584 2746 3420 
Q 3009 3256 3138 2956 
L 3238 3500 
L 3816 3500 
z
M 2950 2216 
Q 2950 2641 2750 2872 
Q 2550 3103 2181 3103 
Q 1953 3103 1747 3012 
Q 1541 2922 1394 2759 
Q 1156 2491 1023 2127 
Q 891 1763 891 1375 
Q 891 944 1092 712 
Q 1294 481 1672 481 
Q 2219 481 2584 976 
Q 2950 1472 2950 2216 
z
" transform="scale(0.015625)"/>
       <path id="DejaVuSans-Oblique-6d" d="M 5747 2113 
L 5338 0 
L 4763 0 
L 5166 2094 
Q 5191 2228 5203 2325 
Q 5216 2422 5216 2491 
Q 5216 2772 5059 2928 
Q 4903 3084 4622 3084 
Q 4203 3084 3875 2770 
Q 3547 2456 3450 1953 
L 3066 0 
L 2491 0 
L 2900 2094 
Q 2925 2209 2937 2307 
Q 2950 2406 2950 2484 
Q 2950 2769 2794 2926 
Q 2638 3084 2363 3084 
Q 1938 3084 1609 2770 
Q 1281 2456 1184 1953 
L 800 0 
L 225 0 
L 909 3500 
L 1484 3500 
L 1375 2956 
Q 1609 3263 1923 3423 
Q 2238 3584 2597 3584 
Q 2978 3584 3223 3384 
Q 3469 3184 3519 2828 
Q 3781 3197 4126 3390 
Q 4472 3584 4856 3584 
Q 5306 3584 5551 3325 
Q 5797 3066 5797 2591 
Q 5797 2488 5784 2364 
Q 5772 2241 5747 2113 
z
" transform="scale(0.015625)"/>
       <path id="DejaVuSans-53" d="M 3425 4513 
L 3425 3897 
Q 3066 4069 2747 4153 
Q 2428 4238 2131 4238 
Q 1616 4238 1336 4038 
Q 1056 3838 1056 3469 
Q 1056 3159 1242 3001 
Q 1428 2844 1947 2747 
L 2328 2669 
Q 3034 2534 3370 2195 
Q 3706 1856 3706 1288 
Q 3706 609 3251 259 
Q 2797 -91 1919 -91 
Q 1588 -91 1214 -16 
Q 841 59 441 206 
L 441 856 
Q 825 641 1194 531 
Q 1563 422 1919 422 
Q 2459 422 2753 634 
Q 3047 847 3047 1241 
Q 3047 1584 2836 1778 
Q 2625 1972 2144 2069 
L 1759 2144 
Q 1053 2284 737 2584 
Q 422 2884 422 3419 
Q 422 4038 858 4394 
Q 1294 4750 2059 4750 
Q 2388 4750 2728 4690 
Q 3069 4631 3425 4513 
z
" transform="scale(0.015625)"/>
      </defs>
      <use xlink:href="#DejaVuSans-Oblique-67" transform="translate(0 0.015625)"/>
      <use xlink:href="#DejaVuSans-Oblique-6d" transform="translate(63.476562 -16.390625) scale(0.7)"/>
      <use xlink:href="#DejaVuSans-Oblique-58" transform="translate(131.665039 -16.390625) scale(0.7)"/>
      <use xlink:href="#DejaVuSans-31" transform="translate(179.619141 -16.390625) scale(0.7)"/>
      <use xlink:href="#DejaVuSans-20" transform="translate(243.125325 0.015625)"/>
      <use xlink:href="#DejaVuSans-5b" transform="translate(274.912434 0.015625)"/>
      <use xlink:href="#DejaVuSans-75" transform="translate(313.926106 0.015625)"/>
      <use xlink:href="#DejaVuSans-53" transform="translate(377.305012 0.015625)"/>
      <use xlink:href="#DejaVuSans-5d" transform="translate(440.781575 0.015625)"/>
     </g>
    </g>
   </g>
   <g id="line2d_27">
    <path d="M 74.011364 282.351218 
L 74.011368 282.351068 
L 74.011379 282.350644 
L 74.011412 282.349463 
L 74.011502 282.346231 
L 74.011744 282.337668 
L 74.012374 282.316174 
L 74.013918 282.26685 
L 74.01739 282.168792 
L 74.02434 282.011272 
L 74.036388 281.820453 
L 74.054238 281.654837 
L 74.076989 281.559815 
L 74.102572 281.542527 
L 74.128827 281.584941 
L 74.154249 281.662947 
L 74.178089 281.756279 
L 74.200132 281.851202 
L 74.220441 281.939836 
L 74.23919 282.018489 
L 74.256574 282.086075 
L 74.272772 282.142945 
L 74.287939 282.190133 
L 74.302204 282.228919 
L 74.315671 282.260591 
L 74.328429 282.28633 
L 74.340551 282.307172 
L 74.3521 282.323995 
L 74.363128 282.33753 
L 74.373684 282.348384 
L 74.383807 282.35705 
L 74.393534 282.363933 
L 74.402898 282.369363 
L 74.411927 282.373606 
L 74.420648 282.376881 
L 74.429084 282.379365 
L 74.437257 282.381203 
L 74.445185 282.382515 
L 74.452887 282.383395 
L 74.460378 282.383925 
L 74.467674 282.384168 
L 74.474788 282.384179 
L 74.481732 282.384002 
L 74.488517 282.383674 
L 74.495155 282.383224 
L 74.501654 282.382677 
L 74.508023 282.382055 
L 74.51427 282.381373 
L 74.520404 282.380647 
L 74.526431 282.379888 
" clip-path="url(#p42c4346dc5)" style="fill: none; stroke: #ff0000; stroke-width: 2; stroke-linecap: square"/>
   </g>
   <g id="line2d_28">
    <path d="M 74.011421 282.349099 
L 74.011532 282.345027 
L 74.011847 282.333488 
L 74.012736 282.301027 
L 74.015222 282.210856 
L 74.022062 281.965628 
L 74.040401 281.321826 
L 74.087648 279.726276 
L 74.202371 276.113123 
L 74.459132 268.931221 
L 74.97783 256.833536 
L 75.911356 239.770349 
L 77.407147 219.28211 
L 79.564377 197.712465 
L 82.412905 177.398018 
L 85.915176 160.452834 
L 89.97442 148.876438 
L 94.440504 144.337497 
L 99.123069 147.364393 
L 103.824228 156.812564 
L 108.381388 170.43552 
L 112.693774 185.910773 
L 116.720606 201.455901 
L 120.462129 215.9573 
L 123.939478 228.855807 
L 127.180901 239.971002 
L 130.214568 249.346505 
L 133.065663 257.139524 
L 135.755694 263.551543 
L 138.302741 268.78916 
L 140.721996 273.044387 
L 143.026316 276.486445 
L 145.226693 279.259852 
L 147.332632 281.485658 
L 149.352437 283.264031 
L 151.293426 284.677242 
L 153.162099 285.79256 
L 154.964264 286.664867 
L 156.705135 287.33889 
L 158.389416 287.851086 
L 160.021363 288.231193 
L 161.604835 288.503496 
L 163.143346 288.687853 
L 164.640096 288.800531 
L 166.098009 288.854877 
L 167.51976 288.861857 
L 168.907801 288.830497 
L 170.264382 288.768239 
L 171.591571 288.681223 
L 172.891271 288.574522 
" clip-path="url(#p42c4346dc5)" style="fill: none; stroke: #0000ff; stroke-width: 2; stroke-linecap: square"/>
   </g>
   <g id="line2d_29">
    <path d="M 74.011423 282.349038 
L 74.011537 282.344855 
L 74.01186 282.332999 
L 74.012774 282.299648 
L 74.015328 282.207002 
L 74.022355 281.955037 
L 74.041199 281.293521 
L 74.089747 279.653947 
L 74.207641 275.940555 
L 74.471542 268.557152 
L 75.00483 256.111476 
L 75.965201 238.528081 
L 77.505913 217.323536 
L 79.733666 194.736807 
L 82.691263 172.769205 
L 86.368143 152.765727 
L 90.722276 135.416688 
L 95.69901 120.927038 
L 101.242299 109.208014 
L 107.299466 100.040407 
L 113.821575 93.214714 
L 120.760318 88.683831 
L 128.060816 86.761688 
L 135.64948 88.301863 
L 143.419721 94.544183 
L 151.226612 106.309581 
L 158.904521 123.090114 
L 166.305077 143.122391 
L 173.330373 164.286393 
L 179.940647 184.846837 
L 186.14022 203.698533 
L 191.957569 220.303201 
L 197.430016 234.524386 
L 202.595116 246.466802 
L 207.486947 256.356374 
L 212.1351 264.463208 
L 216.564861 271.057652 
L 220.797817 276.388298 
L 224.852502 280.673131 
L 228.744971 284.097902 
L 232.489261 286.818096 
L 236.097752 288.962419 
L 239.581445 290.636681 
L 242.950181 291.927517 
L 246.212801 292.905718 
L 249.377292 293.629079 
L 252.450887 294.144795 
L 255.440158 294.491432 
L 258.351094 294.700536 
L 261.18916 294.797949 
" clip-path="url(#p42c4346dc5)" style="fill: none; stroke: #008000; stroke-width: 2; stroke-linecap: square"/>
   </g>
   <g id="line2d_30">
    <path d="M 74.011425 282.348979 
L 74.011541 282.344686 
L 74.011873 282.332518 
L 74.012811 282.298289 
L 74.015432 282.203207 
L 74.022645 281.944616 
L 74.041984 281.265703 
L 74.091809 279.58301 
L 74.212802 275.771961 
L 74.483644 268.194382 
L 75.030957 255.421394 
L 76.016585 237.375556 
L 77.597817 215.613287 
L 79.884163 192.432341 
L 82.919557 169.886396 
L 86.693182 149.355066 
L 91.161962 131.544677 
L 96.26997 116.659553 
L 101.960148 104.591889 
L 108.179701 95.071358 
L 114.881785 87.764422 
L 122.025466 82.332471 
L 129.575014 78.461904 
L 137.499069 75.877303 
L 145.769847 74.346 
L 154.362397 73.680639 
L 163.25376 73.747234 
L 172.421688 74.491449 
L 181.842112 76.006069 
L 191.483943 78.667244 
L 201.2995 83.314492 
L 211.211182 91.25377 
L 221.102073 103.692872 
L 230.824772 120.765895 
L 240.233655 141.208543 
L 249.222142 163.064009 
L 257.739693 184.539471 
L 265.783982 204.404855 
L 273.382009 222.010222 
L 280.573203 237.145359 
L 287.398989 249.877393 
L 293.897856 260.420684 
L 300.103719 269.049507 
L 306.045862 276.04645 
L 311.749464 281.675507 
L 317.236271 286.170421 
L 322.525207 289.731636 
L 327.632883 292.527658 
L 332.574003 294.69839 
L 337.361672 296.359091 
" clip-path="url(#p42c4346dc5)" style="fill: none; stroke: #00bfbf; stroke-width: 2; stroke-linecap: square"/>
   </g>
   <g id="line2d_31">
    <path d="M 74.011426 282.348919 
L 74.011546 282.344516 
L 74.011887 282.332037 
L 74.012848 282.296931 
L 74.015537 282.199412 
L 74.022934 281.934194 
L 74.042769 281.237885 
L 74.09387 279.512074 
L 74.217964 275.603368 
L 74.495746 267.831616 
L 75.057084 254.731327 
L 76.067968 236.22307 
L 77.689719 213.903153 
L 80.034652 190.128204 
L 83.147826 167.004529 
L 87.018149 145.947091 
L 91.601439 127.680316 
L 96.840338 112.41376 
L 102.676325 100.036849 
L 109.055252 90.272307 
L 115.929079 82.777985 
L 123.255826 77.206419 
L 130.99886 73.235461 
L 139.126059 70.581185 
L 147.60904 69.000876 
L 156.422523 68.290971 
L 165.543831 68.282807 
L 174.952488 68.837724 
L 184.629909 69.842327 
L 194.559146 71.204311 
L 204.724678 72.849139 
L 215.112208 74.718038 
L 225.708446 76.768535 
L 236.500751 78.98079 
L 247.476399 81.37785 
L 258.620907 84.077267 
L 269.914256 87.401262 
L 281.323346 92.050548 
L 292.790036 99.210201 
L 304.219405 110.226153 
L 315.480772 125.711509 
L 326.432031 144.897368 
L 336.957282 166.032258 
L 346.991975 187.271108 
L 356.522684 207.230954 
L 365.570745 225.110078 
L 374.174326 240.585237 
L 382.376107 253.652811 
L 390.216913 264.489484 
L 397.733265 273.353753 
" clip-path="url(#p42c4346dc5)" style="fill: none; stroke: #bf00bf; stroke-width: 2; stroke-linecap: square"/>
   </g>
   <g id="line2d_32">
    <path d="M 74.011428 282.34886 
L 74.011551 282.344347 
L 74.0119 282.331555 
L 74.012885 282.295573 
L 74.015641 282.195617 
L 74.023223 281.923773 
L 74.043553 281.210067 
L 74.095932 279.441137 
L 74.223126 275.434775 
L 74.507848 267.468851 
L 75.083211 254.041259 
L 76.119351 235.070585 
L 77.78162 212.193018 
L 80.18514 187.824068 
L 83.376095 164.122662 
L 87.343115 142.539117 
L 92.040916 123.815958 
L 97.410706 108.167977 
L 103.392502 95.481836 
L 109.930802 85.473333 
L 116.976367 77.79177 
L 124.486168 72.081002 
L 132.422657 68.010831 
L 140.75291 65.290239 
L 149.447832 63.670443 
L 158.481515 62.942789 
L 167.830714 62.934385 
L 177.474443 63.503067 
L 187.393656 64.532484 
L 197.570992 65.92768 
L 207.990566 67.611278 
L 218.637802 69.520266 
L 229.49929 71.603346 
L 240.562666 73.818759 
L 251.816505 76.132519 
L 263.250231 78.517011 
L 274.854036 80.949917 
L 286.618802 83.41354 
L 298.536017 85.894803 
L 310.597662 88.386761 
L 322.795999 90.893921 
L 335.123089 93.447236 
L 347.569626 96.142083 
L 360.122194 99.223287 
L 372.757434 103.237226 
L 385.431835 109.187126 
L 398.069287 118.409034 
L 410.556178 131.859656 
L 422.756988 149.273483 
L 434.548874 169.192872 
" clip-path="url(#p42c4346dc5)" style="fill: none; stroke: #bfbf00; stroke-width: 2; stroke-linecap: square"/>
   </g>
   <g id="line2d_33">
    <path d="M 74.011429 282.3488 
L 74.011555 282.344177 
L 74.011913 282.331074 
L 74.012922 282.294214 
L 74.015745 282.191823 
L 74.023512 281.913352 
L 74.044338 281.182249 
L 74.097993 279.370201 
L 74.228288 275.266182 
L 74.51995 267.106086 
L 75.109337 253.351191 
L 76.170734 233.9181 
L 77.873522 210.482884 
L 80.335628 185.519931 
L 83.604364 161.240795 
L 87.668082 139.131143 
L 92.480393 119.9516 
L 97.981074 103.922194 
L 104.108678 90.926823 
L 110.806352 80.674359 
L 118.023655 72.805555 
L 125.71651 66.955585 
L 133.846454 62.786202 
L 142.37976 59.999294 
L 151.286624 58.340015 
L 160.540507 57.594624 
L 170.117596 57.586016 
L 179.996394 58.168559 
L 190.157392 59.223069 
L 200.582804 60.652273 
L 211.256359 62.376908 
L 222.163125 64.332426 
L 233.289367 66.466274 
L 244.622417 68.735664 
L 256.150574 71.105756 
L 267.863006 73.548179 
L 279.749674 76.039838 
L 291.801253 78.561945 
L 304.009076 81.099232 
L 316.365073 83.639313 
L 328.86172 86.172173 
L 341.491994 88.689748 
L 354.249331 91.18561 
L 367.127587 93.654743 
L 380.121 96.093499 
L 393.224146 98.499927 
L 406.431868 100.875063 
L 419.739146 103.226803 
L 433.140769 105.5805 
L 446.630524 108.006181 
" clip-path="url(#p42c4346dc5)" style="fill: none; stroke: #000000; stroke-width: 2; stroke-linecap: square"/>
   </g>
   <g id="line2d_34">
    <path d="M 74.011431 282.348741 
L 74.01156 282.344008 
L 74.011926 282.330593 
L 74.01296 282.292856 
L 74.015849 282.188028 
L 74.023801 281.902931 
L 74.045123 281.154431 
L 74.100054 279.299265 
L 74.23345 275.097589 
L 74.532052 266.743321 
L 75.135464 252.661123 
L 76.222117 232.765615 
L 77.965423 208.77275 
L 80.486116 183.215795 
L 83.832633 158.358927 
L 87.993048 135.723169 
L 92.91987 116.087242 
L 98.551441 99.67641 
L 104.824854 86.37181 
L 111.681902 75.875386 
L 119.070943 67.819341 
L 126.946852 61.830168 
L 135.270251 57.561573 
L 144.00661 54.70835 
L 153.125416 53.009588 
L 162.599498 52.24646 
L 172.404477 52.237647 
L 182.518345 52.834052 
L 192.921128 53.913654 
L 203.594616 55.376867 
L 214.522152 57.14254 
L 225.688449 59.14459 
L 237.079443 61.329214 
L 248.682167 63.652605 
L 260.484641 66.079094 
L 272.475775 68.579635 
L 284.645289 71.130584 
L 296.98364 73.712705 
L 309.481953 76.310365 
L 322.131965 78.910883 
L 334.925975 81.503997 
L 347.856792 84.081434 
L 360.917697 86.636557 
L 374.102406 89.164074 
L 387.405031 91.659806 
L 400.820052 94.120489 
L 414.342289 96.54362 
L 427.966876 98.927321 
L 441.689234 101.27024 
L 455.505056 103.571473 
" clip-path="url(#p42c4346dc5)" style="fill: none; stroke: #ff0000; stroke-width: 2; stroke-linecap: square"/>
   </g>
   <g id="line2d_35">
    <path d="M 74.011433 282.348682 
L 74.011564 282.343838 
L 74.011939 282.330112 
L 74.012997 282.291498 
L 74.015954 282.184233 
L 74.02409 281.89251 
L 74.045908 281.126613 
L 74.102116 279.228328 
L 74.238612 274.928997 
L 74.544154 266.380555 
L 75.161591 251.971055 
L 76.2735 231.61313 
L 78.057324 207.062616 
L 80.636604 180.911658 
L 84.060902 155.47706 
L 88.318015 132.315195 
L 93.359348 112.222884 
L 99.121809 95.430627 
L 105.54103 81.816798 
L 112.557451 71.076412 
L 120.118231 62.833126 
L 128.177194 56.704751 
L 136.694049 52.336945 
L 145.63346 49.417406 
L 154.964208 47.67916 
L 164.65849 46.898296 
L 174.691359 46.889278 
L 185.040296 47.499545 
L 195.684863 48.604239 
L 206.606428 50.10146 
L 217.787945 51.908172 
L 229.213772 53.956754 
L 240.869519 56.192154 
L 252.741917 58.569546 
L 264.818707 61.052432 
L 277.088543 63.611091 
L 289.540905 66.22133 
L 302.166027 68.863465 
L 314.95483 71.521501 
L 327.898857 74.182461 
L 340.990229 76.835845 
L 354.221587 79.473188 
L 367.586058 82.087697 
L 381.07721 84.673959 
L 394.689018 87.227697 
L 408.415836 89.745572 
L 422.252361 92.225018 
L 436.193614 94.664111 
L 450.234912 97.061454 
L 464.371848 99.416087 
" clip-path="url(#p42c4346dc5)" style="fill: none; stroke: #0000ff; stroke-width: 2; stroke-linecap: square"/>
   </g>
   <g id="line2d_36">
    <path d="M 74.011434 282.348622 
L 74.011569 282.343669 
L 74.011952 282.32963 
L 74.013034 282.290139 
L 74.016058 282.180438 
L 74.024379 281.882089 
L 74.046692 281.098795 
L 74.104177 279.157392 
L 74.243773 274.760404 
L 74.556256 266.01779 
L 75.187717 251.280988 
L 76.324883 230.460645 
L 78.149226 205.352481 
L 80.787092 178.607522 
L 84.289171 152.595193 
L 88.642981 128.907221 
L 93.798825 108.358526 
L 99.692177 91.184843 
L 106.257207 77.261785 
L 113.433001 66.277438 
L 121.16552 57.846911 
L 129.407537 51.579334 
L 138.117846 47.112316 
L 147.26031 44.126462 
L 156.803001 42.348733 
L 166.717481 41.550132 
L 176.978241 41.540909 
L 187.562248 42.165038 
L 198.448599 43.294824 
L 209.61824 44.826054 
L 221.053738 46.673804 
L 232.739095 48.768918 
L 244.659595 51.055093 
L 256.801668 53.486487 
L 269.152774 56.02577 
L 281.701311 58.642547 
L 294.43652 61.312076 
L 307.348414 64.014226 
L 320.427706 66.732637 
L 333.665749 69.454039 
L 347.054483 72.167693 
L 360.586383 74.864941 
L 374.25442 77.538838 
L 388.052014 80.183845 
L 401.973006 82.79559 
L 416.011619 85.370656 
L 430.162432 87.906421 
L 444.420352 90.400917 
L 458.780589 92.852714 
L 473.238636 95.26083 
" clip-path="url(#p42c4346dc5)" style="fill: none; stroke: #008000; stroke-width: 2; stroke-linecap: square"/>
   </g>
   <g id="patch_3">
    <path d="M 54.05 309.1 
L 54.05 28.8 
" style="fill: none; stroke: #000000; stroke-width: 0.8; stroke-linejoin: miter; stroke-linecap: square"/>
   </g>
   <g id="patch_4">
    <path d="M 493.2 309.1 
L 493.2 28.8 
" style="fill: none; stroke: #000000; stroke-width: 0.8; stroke-linejoin: miter; stroke-linecap: square"/>
   </g>
   <g id="patch_5">
    <path d="M 54.05 309.1 
L 493.2 309.1 
" style="fill: none; stroke: #000000; stroke-width: 0.8; stroke-linejoin: miter; stroke-linecap: square"/>
   </g>
   <g id="patch_6">
    <path d="M 54.05 28.8 
L 493.2 28.8 
" style="fill: none; stroke: #000000; stroke-width: 0.8; stroke-linejoin: miter; stroke-linecap: square"/>
   </g>
   <g id="text_16">
    <!-- $g_m(I_{ds})$ -->
    <g transform="translate(254.065 22.8) scale(0.12 -0.12)">
     <defs>
      <path id="DejaVuSans-28" d="M 1984 4856 
Q 1566 4138 1362 3434 
Q 1159 2731 1159 2009 
Q 1159 1288 1364 580 
Q 1569 -128 1984 -844 
L 1484 -844 
Q 1016 -109 783 600 
Q 550 1309 550 2009 
Q 550 2706 781 3412 
Q 1013 4119 1484 4856 
L 1984 4856 
z
" transform="scale(0.015625)"/>
      <path id="DejaVuSans-Oblique-64" d="M 2675 525 
Q 2444 222 2128 65 
Q 1813 -91 1428 -91 
Q 903 -91 598 267 
Q 294 625 294 1247 
Q 294 1766 478 2236 
Q 663 2706 1013 3078 
Q 1244 3325 1534 3454 
Q 1825 3584 2144 3584 
Q 2481 3584 2739 3421 
Q 2997 3259 3138 2956 
L 3513 4863 
L 4091 4863 
L 3144 0 
L 2566 0 
L 2675 525 
z
M 891 1350 
Q 891 897 1095 644 
Q 1300 391 1663 391 
Q 1931 391 2161 520 
Q 2391 650 2566 903 
Q 2750 1166 2856 1509 
Q 2963 1853 2963 2188 
Q 2963 2622 2758 2865 
Q 2553 3109 2194 3109 
Q 1922 3109 1687 2981 
Q 1453 2853 1288 2613 
Q 1106 2353 998 2009 
Q 891 1666 891 1350 
z
" transform="scale(0.015625)"/>
      <path id="DejaVuSans-Oblique-73" d="M 3200 3397 
L 3091 2853 
Q 2863 2978 2609 3040 
Q 2356 3103 2088 3103 
Q 1634 3103 1373 2948 
Q 1113 2794 1113 2528 
Q 1113 2219 1719 2053 
Q 1766 2041 1788 2034 
L 1972 1978 
Q 2547 1819 2739 1644 
Q 2931 1469 2931 1166 
Q 2931 609 2489 259 
Q 2047 -91 1331 -91 
Q 1053 -91 747 -37 
Q 441 16 72 128 
L 184 722 
Q 500 559 806 475 
Q 1113 391 1394 391 
Q 1816 391 2080 572 
Q 2344 753 2344 1031 
Q 2344 1331 1650 1516 
L 1591 1531 
L 1394 1581 
Q 956 1697 753 1886 
Q 550 2075 550 2369 
Q 550 2928 970 3256 
Q 1391 3584 2113 3584 
Q 2397 3584 2667 3537 
Q 2938 3491 3200 3397 
z
" transform="scale(0.015625)"/>
      <path id="DejaVuSans-29" d="M 513 4856 
L 1013 4856 
Q 1481 4119 1714 3412 
Q 1947 2706 1947 2009 
Q 1947 1309 1714 600 
Q 1481 -109 1013 -844 
L 513 -844 
Q 928 -128 1133 580 
Q 1338 1288 1338 2009 
Q 1338 2731 1133 3434 
Q 928 4138 513 4856 
z
" transform="scale(0.015625)"/>
     </defs>
     <use xlink:href="#DejaVuSans-Oblique-67" transform="translate(0 0.125)"/>
     <use xlink:href="#DejaVuSans-Oblique-6d" transform="translate(63.476562 -16.28125) scale(0.7)"/>
     <use xlink:href="#DejaVuSans-28" transform="translate(134.399414 0.125)"/>
     <use xlink:href="#DejaVuSans-Oblique-49" transform="translate(173.413086 0.125)"/>
     <use xlink:href="#DejaVuSans-Oblique-64" transform="translate(202.905273 -16.28125) scale(0.7)"/>
     <use xlink:href="#DejaVuSans-Oblique-73" transform="translate(247.338867 -16.28125) scale(0.7)"/>
     <use xlink:href="#DejaVuSans-29" transform="translate(286.542969 0.125)"/>
    </g>
   </g>
   <g id="legend_1">
    <g id="patch_7">
     <path d="M 349.88 304.1 
L 486.2 304.1 
Q 488.2 304.1 488.2 302.1 
L 488.2 185.71875 
Q 488.2 183.71875 486.2 183.71875 
L 349.88 183.71875 
Q 347.88 183.71875 347.88 185.71875 
L 347.88 302.1 
Q 347.88 304.1 349.88 304.1 
z
" style="fill: #ffffff; opacity: 0.8; stroke: #cccccc; stroke-linejoin: miter"/>
    </g>
    <g id="line2d_37">
     <path d="M 349.88 191.336875 
L 354.88 191.336875 
L 359.88 191.336875 
" style="fill: none; stroke: #ff0000; stroke-width: 2; stroke-linecap: square"/>
    </g>
    <g id="text_17">
     <!-- $g_{m X1}: V_{D}$ =  1.0e-03 -->
     <g transform="translate(361.88 194.836875) scale(0.12 -0.12)">
      <defs>
       <path id="DejaVuSans-3a" d="M 750 794 
L 1409 794 
L 1409 0 
L 750 0 
L 750 794 
z
M 750 3309 
L 1409 3309 
L 1409 2516 
L 750 2516 
L 750 3309 
z
" transform="scale(0.015625)"/>
       <path id="DejaVuSans-Oblique-56" d="M 1319 0 
L 500 4666 
L 1119 4666 
L 1797 653 
L 4063 4666 
L 4750 4666 
L 2053 0 
L 1319 0 
z
" transform="scale(0.015625)"/>
       <path id="DejaVuSans-3d" d="M 678 2906 
L 4684 2906 
L 4684 2381 
L 678 2381 
L 678 2906 
z
M 678 1631 
L 4684 1631 
L 4684 1100 
L 678 1100 
L 678 1631 
z
" transform="scale(0.015625)"/>
       <path id="DejaVuSans-2e" d="M 684 794 
L 1344 794 
L 1344 0 
L 684 0 
L 684 794 
z
" transform="scale(0.015625)"/>
       <path id="DejaVuSans-65" d="M 3597 1894 
L 3597 1613 
L 953 1613 
Q 991 1019 1311 708 
Q 1631 397 2203 397 
Q 2534 397 2845 478 
Q 3156 559 3463 722 
L 3463 178 
Q 3153 47 2828 -22 
Q 2503 -91 2169 -91 
Q 1331 -91 842 396 
Q 353 884 353 1716 
Q 353 2575 817 3079 
Q 1281 3584 2069 3584 
Q 2775 3584 3186 3129 
Q 3597 2675 3597 1894 
z
M 3022 2063 
Q 3016 2534 2758 2815 
Q 2500 3097 2075 3097 
Q 1594 3097 1305 2825 
Q 1016 2553 972 2059 
L 3022 2063 
z
" transform="scale(0.015625)"/>
       <path id="DejaVuSans-2d" d="M 313 2009 
L 1997 2009 
L 1997 1497 
L 313 1497 
L 313 2009 
z
" transform="scale(0.015625)"/>
       <path id="DejaVuSans-33" d="M 2597 2516 
Q 3050 2419 3304 2112 
Q 3559 1806 3559 1356 
Q 3559 666 3084 287 
Q 2609 -91 1734 -91 
Q 1441 -91 1130 -33 
Q 819 25 488 141 
L 488 750 
Q 750 597 1062 519 
Q 1375 441 1716 441 
Q 2309 441 2620 675 
Q 2931 909 2931 1356 
Q 2931 1769 2642 2001 
Q 2353 2234 1838 2234 
L 1294 2234 
L 1294 2753 
L 1863 2753 
Q 2328 2753 2575 2939 
Q 2822 3125 2822 3475 
Q 2822 3834 2567 4026 
Q 2313 4219 1838 4219 
Q 1578 4219 1281 4162 
Q 984 4106 628 3988 
L 628 4550 
Q 988 4650 1302 4700 
Q 1616 4750 1894 4750 
Q 2613 4750 3031 4423 
Q 3450 4097 3450 3541 
Q 3450 3153 3228 2886 
Q 3006 2619 2597 2516 
z
" transform="scale(0.015625)"/>
      </defs>
      <use xlink:href="#DejaVuSans-Oblique-67" transform="translate(0 0.78125)"/>
      <use xlink:href="#DejaVuSans-Oblique-6d" transform="translate(63.476562 -15.625) scale(0.7)"/>
      <use xlink:href="#DejaVuSans-Oblique-58" transform="translate(131.665039 -15.625) scale(0.7)"/>
      <use xlink:href="#DejaVuSans-31" transform="translate(179.619141 -15.625) scale(0.7)"/>
      <use xlink:href="#DejaVuSans-3a" transform="translate(246.37207 0.78125)"/>
      <use xlink:href="#DejaVuSans-Oblique-56" transform="translate(299.545898 0.78125)"/>
      <use xlink:href="#DejaVuSans-Oblique-44" transform="translate(367.954102 -15.625) scale(0.7)"/>
      <use xlink:href="#DejaVuSans-20" transform="translate(424.589844 0.78125)"/>
      <use xlink:href="#DejaVuSans-3d" transform="translate(456.376953 0.78125)"/>
      <use xlink:href="#DejaVuSans-20" transform="translate(540.166016 0.78125)"/>
      <use xlink:href="#DejaVuSans-20" transform="translate(571.953125 0.78125)"/>
      <use xlink:href="#DejaVuSans-31" transform="translate(603.740234 0.78125)"/>
      <use xlink:href="#DejaVuSans-2e" transform="translate(667.363281 0.78125)"/>
      <use xlink:href="#DejaVuSans-30" transform="translate(699.150391 0.78125)"/>
      <use xlink:href="#DejaVuSans-65" transform="translate(762.773438 0.78125)"/>
      <use xlink:href="#DejaVuSans-2d" transform="translate(824.296875 0.78125)"/>
      <use xlink:href="#DejaVuSans-30" transform="translate(860.380859 0.78125)"/>
      <use xlink:href="#DejaVuSans-33" transform="translate(924.003906 0.78125)"/>
     </g>
    </g>
    <g id="line2d_38">
     <path d="M 349.88 202.975 
L 354.88 202.975 
L 359.88 202.975 
" style="fill: none; stroke: #0000ff; stroke-width: 2; stroke-linecap: square"/>
    </g>
    <g id="text_18">
     <!-- $g_{m X1}: V_{D}$ =  2.0e-01 -->
     <g transform="translate(361.88 206.475) scale(0.12 -0.12)">
      <use xlink:href="#DejaVuSans-Oblique-67" transform="translate(0 0.78125)"/>
      <use xlink:href="#DejaVuSans-Oblique-6d" transform="translate(63.476562 -15.625) scale(0.7)"/>
      <use xlink:href="#DejaVuSans-Oblique-58" transform="translate(131.665039 -15.625) scale(0.7)"/>
      <use xlink:href="#DejaVuSans-31" transform="translate(179.619141 -15.625) scale(0.7)"/>
      <use xlink:href="#DejaVuSans-3a" transform="translate(246.37207 0.78125)"/>
      <use xlink:href="#DejaVuSans-Oblique-56" transform="translate(299.545898 0.78125)"/>
      <use xlink:href="#DejaVuSans-Oblique-44" transform="translate(367.954102 -15.625) scale(0.7)"/>
      <use xlink:href="#DejaVuSans-20" transform="translate(424.589844 0.78125)"/>
      <use xlink:href="#DejaVuSans-3d" transform="translate(456.376953 0.78125)"/>
      <use xlink:href="#DejaVuSans-20" transform="translate(540.166016 0.78125)"/>
      <use xlink:href="#DejaVuSans-20" transform="translate(571.953125 0.78125)"/>
      <use xlink:href="#DejaVuSans-32" transform="translate(603.740234 0.78125)"/>
      <use xlink:href="#DejaVuSans-2e" transform="translate(667.363281 0.78125)"/>
      <use xlink:href="#DejaVuSans-30" transform="translate(699.150391 0.78125)"/>
      <use xlink:href="#DejaVuSans-65" transform="translate(762.773438 0.78125)"/>
      <use xlink:href="#DejaVuSans-2d" transform="translate(824.296875 0.78125)"/>
      <use xlink:href="#DejaVuSans-30" transform="translate(860.380859 0.78125)"/>
      <use xlink:href="#DejaVuSans-31" transform="translate(924.003906 0.78125)"/>
     </g>
    </g>
    <g id="line2d_39">
     <path d="M 349.88 214.613125 
L 354.88 214.613125 
L 359.88 214.613125 
" style="fill: none; stroke: #008000; stroke-width: 2; stroke-linecap: square"/>
    </g>
    <g id="text_19">
     <!-- $g_{m X1}: V_{D}$ =  4.0e-01 -->
     <g transform="translate(361.88 218.113125) scale(0.12 -0.12)">
      <use xlink:href="#DejaVuSans-Oblique-67" transform="translate(0 0.78125)"/>
      <use xlink:href="#DejaVuSans-Oblique-6d" transform="translate(63.476562 -15.625) scale(0.7)"/>
      <use xlink:href="#DejaVuSans-Oblique-58" transform="translate(131.665039 -15.625) scale(0.7)"/>
      <use xlink:href="#DejaVuSans-31" transform="translate(179.619141 -15.625) scale(0.7)"/>
      <use xlink:href="#DejaVuSans-3a" transform="translate(246.37207 0.78125)"/>
      <use xlink:href="#DejaVuSans-Oblique-56" transform="translate(299.545898 0.78125)"/>
      <use xlink:href="#DejaVuSans-Oblique-44" transform="translate(367.954102 -15.625) scale(0.7)"/>
      <use xlink:href="#DejaVuSans-20" transform="translate(424.589844 0.78125)"/>
      <use xlink:href="#DejaVuSans-3d" transform="translate(456.376953 0.78125)"/>
      <use xlink:href="#DejaVuSans-20" transform="translate(540.166016 0.78125)"/>
      <use xlink:href="#DejaVuSans-20" transform="translate(571.953125 0.78125)"/>
      <use xlink:href="#DejaVuSans-34" transform="translate(603.740234 0.78125)"/>
      <use xlink:href="#DejaVuSans-2e" transform="translate(667.363281 0.78125)"/>
      <use xlink:href="#DejaVuSans-30" transform="translate(699.150391 0.78125)"/>
      <use xlink:href="#DejaVuSans-65" transform="translate(762.773438 0.78125)"/>
      <use xlink:href="#DejaVuSans-2d" transform="translate(824.296875 0.78125)"/>
      <use xlink:href="#DejaVuSans-30" transform="translate(860.380859 0.78125)"/>
      <use xlink:href="#DejaVuSans-31" transform="translate(924.003906 0.78125)"/>
     </g>
    </g>
    <g id="line2d_40">
     <path d="M 349.88 226.25125 
L 354.88 226.25125 
L 359.88 226.25125 
" style="fill: none; stroke: #00bfbf; stroke-width: 2; stroke-linecap: square"/>
    </g>
    <g id="text_20">
     <!-- $g_{m X1}: V_{D}$ =  6.0e-01 -->
     <g transform="translate(361.88 229.75125) scale(0.12 -0.12)">
      <use xlink:href="#DejaVuSans-Oblique-67" transform="translate(0 0.78125)"/>
      <use xlink:href="#DejaVuSans-Oblique-6d" transform="translate(63.476562 -15.625) scale(0.7)"/>
      <use xlink:href="#DejaVuSans-Oblique-58" transform="translate(131.665039 -15.625) scale(0.7)"/>
      <use xlink:href="#DejaVuSans-31" transform="translate(179.619141 -15.625) scale(0.7)"/>
      <use xlink:href="#DejaVuSans-3a" transform="translate(246.37207 0.78125)"/>
      <use xlink:href="#DejaVuSans-Oblique-56" transform="translate(299.545898 0.78125)"/>
      <use xlink:href="#DejaVuSans-Oblique-44" transform="translate(367.954102 -15.625) scale(0.7)"/>
      <use xlink:href="#DejaVuSans-20" transform="translate(424.589844 0.78125)"/>
      <use xlink:href="#DejaVuSans-3d" transform="translate(456.376953 0.78125)"/>
      <use xlink:href="#DejaVuSans-20" transform="translate(540.166016 0.78125)"/>
      <use xlink:href="#DejaVuSans-20" transform="translate(571.953125 0.78125)"/>
      <use xlink:href="#DejaVuSans-36" transform="translate(603.740234 0.78125)"/>
      <use xlink:href="#DejaVuSans-2e" transform="translate(667.363281 0.78125)"/>
      <use xlink:href="#DejaVuSans-30" transform="translate(699.150391 0.78125)"/>
      <use xlink:href="#DejaVuSans-65" transform="translate(762.773438 0.78125)"/>
      <use xlink:href="#DejaVuSans-2d" transform="translate(824.296875 0.78125)"/>
      <use xlink:href="#DejaVuSans-30" transform="translate(860.380859 0.78125)"/>
      <use xlink:href="#DejaVuSans-31" transform="translate(924.003906 0.78125)"/>
     </g>
    </g>
    <g id="line2d_41">
     <path d="M 349.88 237.889375 
L 354.88 237.889375 
L 359.88 237.889375 
" style="fill: none; stroke: #bf00bf; stroke-width: 2; stroke-linecap: square"/>
    </g>
    <g id="text_21">
     <!-- $g_{m X1}: V_{D}$ =  8.0e-01 -->
     <g transform="translate(361.88 241.389375) scale(0.12 -0.12)">
      <use xlink:href="#DejaVuSans-Oblique-67" transform="translate(0 0.78125)"/>
      <use xlink:href="#DejaVuSans-Oblique-6d" transform="translate(63.476562 -15.625) scale(0.7)"/>
      <use xlink:href="#DejaVuSans-Oblique-58" transform="translate(131.665039 -15.625) scale(0.7)"/>
      <use xlink:href="#DejaVuSans-31" transform="translate(179.619141 -15.625) scale(0.7)"/>
      <use xlink:href="#DejaVuSans-3a" transform="translate(246.37207 0.78125)"/>
      <use xlink:href="#DejaVuSans-Oblique-56" transform="translate(299.545898 0.78125)"/>
      <use xlink:href="#DejaVuSans-Oblique-44" transform="translate(367.954102 -15.625) scale(0.7)"/>
      <use xlink:href="#DejaVuSans-20" transform="translate(424.589844 0.78125)"/>
      <use xlink:href="#DejaVuSans-3d" transform="translate(456.376953 0.78125)"/>
      <use xlink:href="#DejaVuSans-20" transform="translate(540.166016 0.78125)"/>
      <use xlink:href="#DejaVuSans-20" transform="translate(571.953125 0.78125)"/>
      <use xlink:href="#DejaVuSans-38" transform="translate(603.740234 0.78125)"/>
      <use xlink:href="#DejaVuSans-2e" transform="translate(667.363281 0.78125)"/>
      <use xlink:href="#DejaVuSans-30" transform="translate(699.150391 0.78125)"/>
      <use xlink:href="#DejaVuSans-65" transform="translate(762.773438 0.78125)"/>
      <use xlink:href="#DejaVuSans-2d" transform="translate(824.296875 0.78125)"/>
      <use xlink:href="#DejaVuSans-30" transform="translate(860.380859 0.78125)"/>
      <use xlink:href="#DejaVuSans-31" transform="translate(924.003906 0.78125)"/>
     </g>
    </g>
    <g id="line2d_42">
     <path d="M 349.88 249.5275 
L 354.88 249.5275 
L 359.88 249.5275 
" style="fill: none; stroke: #bfbf00; stroke-width: 2; stroke-linecap: square"/>
    </g>
    <g id="text_22">
     <!-- $g_{m X1}: V_{D}$ =  1.0e+00 -->
     <g transform="translate(361.88 253.0275) scale(0.12 -0.12)">
      <defs>
       <path id="DejaVuSans-2b" d="M 2944 4013 
L 2944 2272 
L 4684 2272 
L 4684 1741 
L 2944 1741 
L 2944 0 
L 2419 0 
L 2419 1741 
L 678 1741 
L 678 2272 
L 2419 2272 
L 2419 4013 
L 2944 4013 
z
" transform="scale(0.015625)"/>
      </defs>
      <use xlink:href="#DejaVuSans-Oblique-67" transform="translate(0 0.78125)"/>
      <use xlink:href="#DejaVuSans-Oblique-6d" transform="translate(63.476562 -15.625) scale(0.7)"/>
      <use xlink:href="#DejaVuSans-Oblique-58" transform="translate(131.665039 -15.625) scale(0.7)"/>
      <use xlink:href="#DejaVuSans-31" transform="translate(179.619141 -15.625) scale(0.7)"/>
      <use xlink:href="#DejaVuSans-3a" transform="translate(246.37207 0.78125)"/>
      <use xlink:href="#DejaVuSans-Oblique-56" transform="translate(299.545898 0.78125)"/>
      <use xlink:href="#DejaVuSans-Oblique-44" transform="translate(367.954102 -15.625) scale(0.7)"/>
      <use xlink:href="#DejaVuSans-20" transform="translate(424.589844 0.78125)"/>
      <use xlink:href="#DejaVuSans-3d" transform="translate(456.376953 0.78125)"/>
      <use xlink:href="#DejaVuSans-20" transform="translate(540.166016 0.78125)"/>
      <use xlink:href="#DejaVuSans-20" transform="translate(571.953125 0.78125)"/>
      <use xlink:href="#DejaVuSans-31" transform="translate(603.740234 0.78125)"/>
      <use xlink:href="#DejaVuSans-2e" transform="translate(667.363281 0.78125)"/>
      <use xlink:href="#DejaVuSans-30" transform="translate(699.150391 0.78125)"/>
      <use xlink:href="#DejaVuSans-65" transform="translate(762.773438 0.78125)"/>
      <use xlink:href="#DejaVuSans-2b" transform="translate(824.296875 0.78125)"/>
      <use xlink:href="#DejaVuSans-30" transform="translate(908.085938 0.78125)"/>
      <use xlink:href="#DejaVuSans-30" transform="translate(971.708984 0.78125)"/>
     </g>
    </g>
    <g id="line2d_43">
     <path d="M 349.88 261.165625 
L 354.88 261.165625 
L 359.88 261.165625 
" style="fill: none; stroke: #000000; stroke-width: 2; stroke-linecap: square"/>
    </g>
    <g id="text_23">
     <!-- $g_{m X1}: V_{D}$ =  1.2e+00 -->
     <g transform="translate(361.88 264.665625) scale(0.12 -0.12)">
      <use xlink:href="#DejaVuSans-Oblique-67" transform="translate(0 0.78125)"/>
      <use xlink:href="#DejaVuSans-Oblique-6d" transform="translate(63.476562 -15.625) scale(0.7)"/>
      <use xlink:href="#DejaVuSans-Oblique-58" transform="translate(131.665039 -15.625) scale(0.7)"/>
      <use xlink:href="#DejaVuSans-31" transform="translate(179.619141 -15.625) scale(0.7)"/>
      <use xlink:href="#DejaVuSans-3a" transform="translate(246.37207 0.78125)"/>
      <use xlink:href="#DejaVuSans-Oblique-56" transform="translate(299.545898 0.78125)"/>
      <use xlink:href="#DejaVuSans-Oblique-44" transform="translate(367.954102 -15.625) scale(0.7)"/>
      <use xlink:href="#DejaVuSans-20" transform="translate(424.589844 0.78125)"/>
      <use xlink:href="#DejaVuSans-3d" transform="translate(456.376953 0.78125)"/>
      <use xlink:href="#DejaVuSans-20" transform="translate(540.166016 0.78125)"/>
      <use xlink:href="#DejaVuSans-20" transform="translate(571.953125 0.78125)"/>
      <use xlink:href="#DejaVuSans-31" transform="translate(603.740234 0.78125)"/>
      <use xlink:href="#DejaVuSans-2e" transform="translate(667.363281 0.78125)"/>
      <use xlink:href="#DejaVuSans-32" transform="translate(693.650391 0.78125)"/>
      <use xlink:href="#DejaVuSans-65" transform="translate(757.273438 0.78125)"/>
      <use xlink:href="#DejaVuSans-2b" transform="translate(818.796875 0.78125)"/>
      <use xlink:href="#DejaVuSans-30" transform="translate(902.585938 0.78125)"/>
      <use xlink:href="#DejaVuSans-30" transform="translate(966.208984 0.78125)"/>
     </g>
    </g>
    <g id="line2d_44">
     <path d="M 349.88 272.80375 
L 354.88 272.80375 
L 359.88 272.80375 
" style="fill: none; stroke: #ff0000; stroke-width: 2; stroke-linecap: square"/>
    </g>
    <g id="text_24">
     <!-- $g_{m X1}: V_{D}$ =  1.4e+00 -->
     <g transform="translate(361.88 276.30375) scale(0.12 -0.12)">
      <use xlink:href="#DejaVuSans-Oblique-67" transform="translate(0 0.78125)"/>
      <use xlink:href="#DejaVuSans-Oblique-6d" transform="translate(63.476562 -15.625) scale(0.7)"/>
      <use xlink:href="#DejaVuSans-Oblique-58" transform="translate(131.665039 -15.625) scale(0.7)"/>
      <use xlink:href="#DejaVuSans-31" transform="translate(179.619141 -15.625) scale(0.7)"/>
      <use xlink:href="#DejaVuSans-3a" transform="translate(246.37207 0.78125)"/>
      <use xlink:href="#DejaVuSans-Oblique-56" transform="translate(299.545898 0.78125)"/>
      <use xlink:href="#DejaVuSans-Oblique-44" transform="translate(367.954102 -15.625) scale(0.7)"/>
      <use xlink:href="#DejaVuSans-20" transform="translate(424.589844 0.78125)"/>
      <use xlink:href="#DejaVuSans-3d" transform="translate(456.376953 0.78125)"/>
      <use xlink:href="#DejaVuSans-20" transform="translate(540.166016 0.78125)"/>
      <use xlink:href="#DejaVuSans-20" transform="translate(571.953125 0.78125)"/>
      <use xlink:href="#DejaVuSans-31" transform="translate(603.740234 0.78125)"/>
      <use xlink:href="#DejaVuSans-2e" transform="translate(667.363281 0.78125)"/>
      <use xlink:href="#DejaVuSans-34" transform="translate(699.150391 0.78125)"/>
      <use xlink:href="#DejaVuSans-65" transform="translate(762.773438 0.78125)"/>
      <use xlink:href="#DejaVuSans-2b" transform="translate(824.296875 0.78125)"/>
      <use xlink:href="#DejaVuSans-30" transform="translate(908.085938 0.78125)"/>
      <use xlink:href="#DejaVuSans-30" transform="translate(971.708984 0.78125)"/>
     </g>
    </g>
    <g id="line2d_45">
     <path d="M 349.88 284.441875 
L 354.88 284.441875 
L 359.88 284.441875 
" style="fill: none; stroke: #0000ff; stroke-width: 2; stroke-linecap: square"/>
    </g>
    <g id="text_25">
     <!-- $g_{m X1}: V_{D}$ =  1.6e+00 -->
     <g transform="translate(361.88 287.941875) scale(0.12 -0.12)">
      <use xlink:href="#DejaVuSans-Oblique-67" transform="translate(0 0.78125)"/>
      <use xlink:href="#DejaVuSans-Oblique-6d" transform="translate(63.476562 -15.625) scale(0.7)"/>
      <use xlink:href="#DejaVuSans-Oblique-58" transform="translate(131.665039 -15.625) scale(0.7)"/>
      <use xlink:href="#DejaVuSans-31" transform="translate(179.619141 -15.625) scale(0.7)"/>
      <use xlink:href="#DejaVuSans-3a" transform="translate(246.37207 0.78125)"/>
      <use xlink:href="#DejaVuSans-Oblique-56" transform="translate(299.545898 0.78125)"/>
      <use xlink:href="#DejaVuSans-Oblique-44" transform="translate(367.954102 -15.625) scale(0.7)"/>
      <use xlink:href="#DejaVuSans-20" transform="translate(424.589844 0.78125)"/>
      <use xlink:href="#DejaVuSans-3d" transform="translate(456.376953 0.78125)"/>
      <use xlink:href="#DejaVuSans-20" transform="translate(540.166016 0.78125)"/>
      <use xlink:href="#DejaVuSans-20" transform="translate(571.953125 0.78125)"/>
      <use xlink:href="#DejaVuSans-31" transform="translate(603.740234 0.78125)"/>
      <use xlink:href="#DejaVuSans-2e" transform="translate(667.363281 0.78125)"/>
      <use xlink:href="#DejaVuSans-36" transform="translate(699.150391 0.78125)"/>
      <use xlink:href="#DejaVuSans-65" transform="translate(762.773438 0.78125)"/>
      <use xlink:href="#DejaVuSans-2b" transform="translate(824.296875 0.78125)"/>
      <use xlink:href="#DejaVuSans-30" transform="translate(908.085938 0.78125)"/>
      <use xlink:href="#DejaVuSans-30" transform="translate(971.708984 0.78125)"/>
     </g>
    </g>
    <g id="line2d_46">
     <path d="M 349.88 296.08 
L 354.88 296.08 
L 359.88 296.08 
" style="fill: none; stroke: #008000; stroke-width: 2; stroke-linecap: square"/>
    </g>
    <g id="text_26">
     <!-- $g_{m X1}: V_{D}$ =  1.8e+00 -->
     <g transform="translate(361.88 299.58) scale(0.12 -0.12)">
      <use xlink:href="#DejaVuSans-Oblique-67" transform="translate(0 0.78125)"/>
      <use xlink:href="#DejaVuSans-Oblique-6d" transform="translate(63.476562 -15.625) scale(0.7)"/>
      <use xlink:href="#DejaVuSans-Oblique-58" transform="translate(131.665039 -15.625) scale(0.7)"/>
      <use xlink:href="#DejaVuSans-31" transform="translate(179.619141 -15.625) scale(0.7)"/>
      <use xlink:href="#DejaVuSans-3a" transform="translate(246.37207 0.78125)"/>
      <use xlink:href="#DejaVuSans-Oblique-56" transform="translate(299.545898 0.78125)"/>
      <use xlink:href="#DejaVuSans-Oblique-44" transform="translate(367.954102 -15.625) scale(0.7)"/>
      <use xlink:href="#DejaVuSans-20" transform="translate(424.589844 0.78125)"/>
      <use xlink:href="#DejaVuSans-3d" transform="translate(456.376953 0.78125)"/>
      <use xlink:href="#DejaVuSans-20" transform="translate(540.166016 0.78125)"/>
      <use xlink:href="#DejaVuSans-20" transform="translate(571.953125 0.78125)"/>
      <use xlink:href="#DejaVuSans-31" transform="translate(603.740234 0.78125)"/>
      <use xlink:href="#DejaVuSans-2e" transform="translate(667.363281 0.78125)"/>
      <use xlink:href="#DejaVuSans-38" transform="translate(696.525391 0.78125)"/>
      <use xlink:href="#DejaVuSans-65" transform="translate(760.148438 0.78125)"/>
      <use xlink:href="#DejaVuSans-2b" transform="translate(821.671875 0.78125)"/>
      <use xlink:href="#DejaVuSans-30" transform="translate(905.460938 0.78125)"/>
      <use xlink:href="#DejaVuSans-30" transform="translate(969.083984 0.78125)"/>
     </g>
    </g>
   </g>
  </g>
 </g>
 <defs>
  <clipPath id="p42c4346dc5">
   <rect x="54.05" y="28.8" width="439.15" height="280.3"/>
  </clipPath>
 </defs>
</svg>
