<?xml version="1.0" encoding="utf-8" standalone="no"?>
<!DOCTYPE svg PUBLIC "-//W3C//DTD SVG 1.1//EN"
  "http://www.w3.org/Graphics/SVG/1.1/DTD/svg11.dtd">
<svg xmlns:xlink="http://www.w3.org/1999/xlink" width="504pt" height="360pt" viewBox="0 0 504 360" xmlns="http://www.w3.org/2000/svg" version="1.1">
 <metadata>
  <rdf:RDF xmlns:dc="http://purl.org/dc/elements/1.1/" xmlns:cc="http://creativecommons.org/ns#" xmlns:rdf="http://www.w3.org/1999/02/22-rdf-syntax-ns#">
   <cc:Work>
    <dc:type rdf:resource="http://purl.org/dc/dcmitype/StillImage"/>
    <dc:date>2024-11-18T11:14:05.380073</dc:date>
    <dc:format>image/svg+xml</dc:format>
    <dc:creator>
     <cc:Agent>
      <dc:title>Matplotlib v3.9.2, https://matplotlib.org/</dc:title>
     </cc:Agent>
    </dc:creator>
   </cc:Work>
  </rdf:RDF>
 </metadata>
 <defs>
  <style type="text/css">*{stroke-linejoin: round; stroke-linecap: butt}</style>
 </defs>
 <g id="figure_1">
  <g id="patch_1">
   <path d="M 0 360 
L 504 360 
L 504 0 
L 0 0 
z
" style="fill: #ffffff"/>
  </g>
  <g id="axes_1">
   <g id="patch_2">
    <path d="M 60.65 309.1 
L 493.2 309.1 
L 493.2 28.8 
L 60.65 28.8 
z
" style="fill: #ffffff"/>
   </g>
   <g id="matplotlib.axis_1">
    <g id="xtick_1">
     <g id="line2d_1">
      <path d="M 80.311364 309.1 
L 80.311364 28.8 
" clip-path="url(#pb447988863)" style="fill: none; stroke: #808080; stroke-width: 0.8; stroke-linecap: square"/>
     </g>
     <g id="line2d_2">
      <defs>
       <path id="mf4d597054a" d="M 0 0 
L 0 3.5 
" style="stroke: #000000; stroke-width: 0.8"/>
      </defs>
      <g>
       <use xlink:href="#mf4d597054a" x="80.311364" y="309.1" style="stroke: #000000; stroke-width: 0.8"/>
      </g>
     </g>
     <g id="text_1">
      <!-- 0.00 -->
      <g transform="translate(66.951989 325.218125) scale(0.12 -0.12)">
       <defs>
        <path id="DejaVuSans-30" d="M 2034 4250 
Q 1547 4250 1301 3770 
Q 1056 3291 1056 2328 
Q 1056 1369 1301 889 
Q 1547 409 2034 409 
Q 2525 409 2770 889 
Q 3016 1369 3016 2328 
Q 3016 3291 2770 3770 
Q 2525 4250 2034 4250 
z
M 2034 4750 
Q 2819 4750 3233 4129 
Q 3647 3509 3647 2328 
Q 3647 1150 3233 529 
Q 2819 -91 2034 -91 
Q 1250 -91 836 529 
Q 422 1150 422 2328 
Q 422 3509 836 4129 
Q 1250 4750 2034 4750 
z
" transform="scale(0.015625)"/>
        <path id="DejaVuSans-2e" d="M 684 794 
L 1344 794 
L 1344 0 
L 684 0 
L 684 794 
z
" transform="scale(0.015625)"/>
       </defs>
       <use xlink:href="#DejaVuSans-30"/>
       <use xlink:href="#DejaVuSans-2e" x="63.623047"/>
       <use xlink:href="#DejaVuSans-30" x="95.410156"/>
       <use xlink:href="#DejaVuSans-30" x="159.033203"/>
      </g>
     </g>
    </g>
    <g id="xtick_2">
     <g id="line2d_3">
      <path d="M 134.926263 309.1 
L 134.926263 28.8 
" clip-path="url(#pb447988863)" style="fill: none; stroke: #808080; stroke-width: 0.8; stroke-linecap: square"/>
     </g>
     <g id="line2d_4">
      <g>
       <use xlink:href="#mf4d597054a" x="134.926263" y="309.1" style="stroke: #000000; stroke-width: 0.8"/>
      </g>
     </g>
     <g id="text_2">
      <!-- 0.25 -->
      <g transform="translate(121.566888 325.218125) scale(0.12 -0.12)">
       <defs>
        <path id="DejaVuSans-32" d="M 1228 531 
L 3431 531 
L 3431 0 
L 469 0 
L 469 531 
Q 828 903 1448 1529 
Q 2069 2156 2228 2338 
Q 2531 2678 2651 2914 
Q 2772 3150 2772 3378 
Q 2772 3750 2511 3984 
Q 2250 4219 1831 4219 
Q 1534 4219 1204 4116 
Q 875 4013 500 3803 
L 500 4441 
Q 881 4594 1212 4672 
Q 1544 4750 1819 4750 
Q 2544 4750 2975 4387 
Q 3406 4025 3406 3419 
Q 3406 3131 3298 2873 
Q 3191 2616 2906 2266 
Q 2828 2175 2409 1742 
Q 1991 1309 1228 531 
z
" transform="scale(0.015625)"/>
        <path id="DejaVuSans-35" d="M 691 4666 
L 3169 4666 
L 3169 4134 
L 1269 4134 
L 1269 2991 
Q 1406 3038 1543 3061 
Q 1681 3084 1819 3084 
Q 2600 3084 3056 2656 
Q 3513 2228 3513 1497 
Q 3513 744 3044 326 
Q 2575 -91 1722 -91 
Q 1428 -91 1123 -41 
Q 819 9 494 109 
L 494 744 
Q 775 591 1075 516 
Q 1375 441 1709 441 
Q 2250 441 2565 725 
Q 2881 1009 2881 1497 
Q 2881 1984 2565 2268 
Q 2250 2553 1709 2553 
Q 1456 2553 1204 2497 
Q 953 2441 691 2322 
L 691 4666 
z
" transform="scale(0.015625)"/>
       </defs>
       <use xlink:href="#DejaVuSans-30"/>
       <use xlink:href="#DejaVuSans-2e" x="63.623047"/>
       <use xlink:href="#DejaVuSans-32" x="95.410156"/>
       <use xlink:href="#DejaVuSans-35" x="159.033203"/>
      </g>
     </g>
    </g>
    <g id="xtick_3">
     <g id="line2d_5">
      <path d="M 189.541162 309.1 
L 189.541162 28.8 
" clip-path="url(#pb447988863)" style="fill: none; stroke: #808080; stroke-width: 0.8; stroke-linecap: square"/>
     </g>
     <g id="line2d_6">
      <g>
       <use xlink:href="#mf4d597054a" x="189.541162" y="309.1" style="stroke: #000000; stroke-width: 0.8"/>
      </g>
     </g>
     <g id="text_3">
      <!-- 0.50 -->
      <g transform="translate(176.181787 325.218125) scale(0.12 -0.12)">
       <use xlink:href="#DejaVuSans-30"/>
       <use xlink:href="#DejaVuSans-2e" x="63.623047"/>
       <use xlink:href="#DejaVuSans-35" x="95.410156"/>
       <use xlink:href="#DejaVuSans-30" x="159.033203"/>
      </g>
     </g>
    </g>
    <g id="xtick_4">
     <g id="line2d_7">
      <path d="M 244.156061 309.1 
L 244.156061 28.8 
" clip-path="url(#pb447988863)" style="fill: none; stroke: #808080; stroke-width: 0.8; stroke-linecap: square"/>
     </g>
     <g id="line2d_8">
      <g>
       <use xlink:href="#mf4d597054a" x="244.156061" y="309.1" style="stroke: #000000; stroke-width: 0.8"/>
      </g>
     </g>
     <g id="text_4">
      <!-- 0.75 -->
      <g transform="translate(230.796686 325.218125) scale(0.12 -0.12)">
       <defs>
        <path id="DejaVuSans-37" d="M 525 4666 
L 3525 4666 
L 3525 4397 
L 1831 0 
L 1172 0 
L 2766 4134 
L 525 4134 
L 525 4666 
z
" transform="scale(0.015625)"/>
       </defs>
       <use xlink:href="#DejaVuSans-30"/>
       <use xlink:href="#DejaVuSans-2e" x="63.623047"/>
       <use xlink:href="#DejaVuSans-37" x="95.410156"/>
       <use xlink:href="#DejaVuSans-35" x="159.033203"/>
      </g>
     </g>
    </g>
    <g id="xtick_5">
     <g id="line2d_9">
      <path d="M 298.77096 309.1 
L 298.77096 28.8 
" clip-path="url(#pb447988863)" style="fill: none; stroke: #808080; stroke-width: 0.8; stroke-linecap: square"/>
     </g>
     <g id="line2d_10">
      <g>
       <use xlink:href="#mf4d597054a" x="298.77096" y="309.1" style="stroke: #000000; stroke-width: 0.8"/>
      </g>
     </g>
     <g id="text_5">
      <!-- 1.00 -->
      <g transform="translate(285.411585 325.218125) scale(0.12 -0.12)">
       <defs>
        <path id="DejaVuSans-31" d="M 794 531 
L 1825 531 
L 1825 4091 
L 703 3866 
L 703 4441 
L 1819 4666 
L 2450 4666 
L 2450 531 
L 3481 531 
L 3481 0 
L 794 0 
L 794 531 
z
" transform="scale(0.015625)"/>
       </defs>
       <use xlink:href="#DejaVuSans-31"/>
       <use xlink:href="#DejaVuSans-2e" x="63.623047"/>
       <use xlink:href="#DejaVuSans-30" x="95.410156"/>
       <use xlink:href="#DejaVuSans-30" x="159.033203"/>
      </g>
     </g>
    </g>
    <g id="xtick_6">
     <g id="line2d_11">
      <path d="M 353.385859 309.1 
L 353.385859 28.8 
" clip-path="url(#pb447988863)" style="fill: none; stroke: #808080; stroke-width: 0.8; stroke-linecap: square"/>
     </g>
     <g id="line2d_12">
      <g>
       <use xlink:href="#mf4d597054a" x="353.385859" y="309.1" style="stroke: #000000; stroke-width: 0.8"/>
      </g>
     </g>
     <g id="text_6">
      <!-- 1.25 -->
      <g transform="translate(340.026484 325.218125) scale(0.12 -0.12)">
       <use xlink:href="#DejaVuSans-31"/>
       <use xlink:href="#DejaVuSans-2e" x="63.623047"/>
       <use xlink:href="#DejaVuSans-32" x="95.410156"/>
       <use xlink:href="#DejaVuSans-35" x="159.033203"/>
      </g>
     </g>
    </g>
    <g id="xtick_7">
     <g id="line2d_13">
      <path d="M 408.000758 309.1 
L 408.000758 28.8 
" clip-path="url(#pb447988863)" style="fill: none; stroke: #808080; stroke-width: 0.8; stroke-linecap: square"/>
     </g>
     <g id="line2d_14">
      <g>
       <use xlink:href="#mf4d597054a" x="408.000758" y="309.1" style="stroke: #000000; stroke-width: 0.8"/>
      </g>
     </g>
     <g id="text_7">
      <!-- 1.50 -->
      <g transform="translate(394.641383 325.218125) scale(0.12 -0.12)">
       <use xlink:href="#DejaVuSans-31"/>
       <use xlink:href="#DejaVuSans-2e" x="63.623047"/>
       <use xlink:href="#DejaVuSans-35" x="95.410156"/>
       <use xlink:href="#DejaVuSans-30" x="159.033203"/>
      </g>
     </g>
    </g>
    <g id="xtick_8">
     <g id="line2d_15">
      <path d="M 462.615657 309.1 
L 462.615657 28.8 
" clip-path="url(#pb447988863)" style="fill: none; stroke: #808080; stroke-width: 0.8; stroke-linecap: square"/>
     </g>
     <g id="line2d_16">
      <g>
       <use xlink:href="#mf4d597054a" x="462.615657" y="309.1" style="stroke: #000000; stroke-width: 0.8"/>
      </g>
     </g>
     <g id="text_8">
      <!-- 1.75 -->
      <g transform="translate(449.256282 325.218125) scale(0.12 -0.12)">
       <use xlink:href="#DejaVuSans-31"/>
       <use xlink:href="#DejaVuSans-2e" x="63.623047"/>
       <use xlink:href="#DejaVuSans-37" x="95.410156"/>
       <use xlink:href="#DejaVuSans-35" x="159.033203"/>
      </g>
     </g>
    </g>
    <g id="text_9">
     <!-- $V_{D}$ [V] -->
     <g transform="translate(258.685 340.831875) scale(0.12 -0.12)">
      <defs>
       <path id="DejaVuSans-Oblique-56" d="M 1319 0 
L 500 4666 
L 1119 4666 
L 1797 653 
L 4063 4666 
L 4750 4666 
L 2053 0 
L 1319 0 
z
" transform="scale(0.015625)"/>
       <path id="DejaVuSans-Oblique-44" d="M 1081 4666 
L 2438 4666 
Q 3519 4666 4070 4208 
Q 4622 3750 4622 2847 
Q 4622 2250 4412 1698 
Q 4203 1147 3834 769 
Q 3463 381 2891 190 
Q 2319 0 1538 0 
L 172 0 
L 1081 4666 
z
M 1613 4147 
L 909 519 
L 1734 519 
Q 2794 519 3375 1128 
Q 3956 1738 3956 2847 
Q 3956 3519 3581 3833 
Q 3206 4147 2406 4147 
L 1613 4147 
z
" transform="scale(0.015625)"/>
       <path id="DejaVuSans-20" transform="scale(0.015625)"/>
       <path id="DejaVuSans-5b" d="M 550 4863 
L 1875 4863 
L 1875 4416 
L 1125 4416 
L 1125 -397 
L 1875 -397 
L 1875 -844 
L 550 -844 
L 550 4863 
z
" transform="scale(0.015625)"/>
       <path id="DejaVuSans-56" d="M 1831 0 
L 50 4666 
L 709 4666 
L 2188 738 
L 3669 4666 
L 4325 4666 
L 2547 0 
L 1831 0 
z
" transform="scale(0.015625)"/>
       <path id="DejaVuSans-5d" d="M 1947 4863 
L 1947 -844 
L 622 -844 
L 622 -397 
L 1369 -397 
L 1369 4416 
L 622 4416 
L 622 4863 
L 1947 4863 
z
" transform="scale(0.015625)"/>
      </defs>
      <use xlink:href="#DejaVuSans-Oblique-56" transform="translate(0 0.015625)"/>
      <use xlink:href="#DejaVuSans-Oblique-44" transform="translate(68.408203 -16.390625) scale(0.7)"/>
      <use xlink:href="#DejaVuSans-20" transform="translate(125.043945 0.015625)"/>
      <use xlink:href="#DejaVuSans-5b" transform="translate(156.831055 0.015625)"/>
      <use xlink:href="#DejaVuSans-56" transform="translate(195.844727 0.015625)"/>
      <use xlink:href="#DejaVuSans-5d" transform="translate(264.25293 0.015625)"/>
     </g>
    </g>
   </g>
   <g id="matplotlib.axis_2">
    <g id="ytick_1">
     <g id="line2d_17">
      <path d="M 60.65 296.359091 
L 493.2 296.359091 
" clip-path="url(#pb447988863)" style="fill: none; stroke: #808080; stroke-width: 0.8; stroke-linecap: square"/>
     </g>
     <g id="line2d_18">
      <defs>
       <path id="m82b1770be7" d="M 0 0 
L -3.5 0 
" style="stroke: #000000; stroke-width: 0.8"/>
      </defs>
      <g>
       <use xlink:href="#m82b1770be7" x="60.65" y="296.359091" style="stroke: #000000; stroke-width: 0.8"/>
      </g>
     </g>
     <g id="text_10">
      <!-- 0 -->
      <g transform="translate(46.015 300.918153) scale(0.12 -0.12)">
       <use xlink:href="#DejaVuSans-30"/>
      </g>
     </g>
    </g>
    <g id="ytick_2">
     <g id="line2d_19">
      <path d="M 60.65 260.184348 
L 493.2 260.184348 
" clip-path="url(#pb447988863)" style="fill: none; stroke: #808080; stroke-width: 0.8; stroke-linecap: square"/>
     </g>
     <g id="line2d_20">
      <g>
       <use xlink:href="#m82b1770be7" x="60.65" y="260.184348" style="stroke: #000000; stroke-width: 0.8"/>
      </g>
     </g>
     <g id="text_11">
      <!-- 25 -->
      <g transform="translate(38.38 264.743411) scale(0.12 -0.12)">
       <use xlink:href="#DejaVuSans-32"/>
       <use xlink:href="#DejaVuSans-35" x="63.623047"/>
      </g>
     </g>
    </g>
    <g id="ytick_3">
     <g id="line2d_21">
      <path d="M 60.65 224.009606 
L 493.2 224.009606 
" clip-path="url(#pb447988863)" style="fill: none; stroke: #808080; stroke-width: 0.8; stroke-linecap: square"/>
     </g>
     <g id="line2d_22">
      <g>
       <use xlink:href="#m82b1770be7" x="60.65" y="224.009606" style="stroke: #000000; stroke-width: 0.8"/>
      </g>
     </g>
     <g id="text_12">
      <!-- 50 -->
      <g transform="translate(38.38 228.568668) scale(0.12 -0.12)">
       <use xlink:href="#DejaVuSans-35"/>
       <use xlink:href="#DejaVuSans-30" x="63.623047"/>
      </g>
     </g>
    </g>
    <g id="ytick_4">
     <g id="line2d_23">
      <path d="M 60.65 187.834863 
L 493.2 187.834863 
" clip-path="url(#pb447988863)" style="fill: none; stroke: #808080; stroke-width: 0.8; stroke-linecap: square"/>
     </g>
     <g id="line2d_24">
      <g>
       <use xlink:href="#m82b1770be7" x="60.65" y="187.834863" style="stroke: #000000; stroke-width: 0.8"/>
      </g>
     </g>
     <g id="text_13">
      <!-- 75 -->
      <g transform="translate(38.38 192.393925) scale(0.12 -0.12)">
       <use xlink:href="#DejaVuSans-37"/>
       <use xlink:href="#DejaVuSans-35" x="63.623047"/>
      </g>
     </g>
    </g>
    <g id="ytick_5">
     <g id="line2d_25">
      <path d="M 60.65 151.66012 
L 493.2 151.66012 
" clip-path="url(#pb447988863)" style="fill: none; stroke: #808080; stroke-width: 0.8; stroke-linecap: square"/>
     </g>
     <g id="line2d_26">
      <g>
       <use xlink:href="#m82b1770be7" x="60.65" y="151.66012" style="stroke: #000000; stroke-width: 0.8"/>
      </g>
     </g>
     <g id="text_14">
      <!-- 100 -->
      <g transform="translate(30.745 156.219183) scale(0.12 -0.12)">
       <use xlink:href="#DejaVuSans-31"/>
       <use xlink:href="#DejaVuSans-30" x="63.623047"/>
       <use xlink:href="#DejaVuSans-30" x="127.246094"/>
      </g>
     </g>
    </g>
    <g id="ytick_6">
     <g id="line2d_27">
      <path d="M 60.65 115.485377 
L 493.2 115.485377 
" clip-path="url(#pb447988863)" style="fill: none; stroke: #808080; stroke-width: 0.8; stroke-linecap: square"/>
     </g>
     <g id="line2d_28">
      <g>
       <use xlink:href="#m82b1770be7" x="60.65" y="115.485377" style="stroke: #000000; stroke-width: 0.8"/>
      </g>
     </g>
     <g id="text_15">
      <!-- 125 -->
      <g transform="translate(30.745 120.04444) scale(0.12 -0.12)">
       <use xlink:href="#DejaVuSans-31"/>
       <use xlink:href="#DejaVuSans-32" x="63.623047"/>
       <use xlink:href="#DejaVuSans-35" x="127.246094"/>
      </g>
     </g>
    </g>
    <g id="ytick_7">
     <g id="line2d_29">
      <path d="M 60.65 79.310635 
L 493.2 79.310635 
" clip-path="url(#pb447988863)" style="fill: none; stroke: #808080; stroke-width: 0.8; stroke-linecap: square"/>
     </g>
     <g id="line2d_30">
      <g>
       <use xlink:href="#m82b1770be7" x="60.65" y="79.310635" style="stroke: #000000; stroke-width: 0.8"/>
      </g>
     </g>
     <g id="text_16">
      <!-- 150 -->
      <g transform="translate(30.745 83.869697) scale(0.12 -0.12)">
       <use xlink:href="#DejaVuSans-31"/>
       <use xlink:href="#DejaVuSans-35" x="63.623047"/>
       <use xlink:href="#DejaVuSans-30" x="127.246094"/>
      </g>
     </g>
    </g>
    <g id="ytick_8">
     <g id="line2d_31">
      <path d="M 60.65 43.135892 
L 493.2 43.135892 
" clip-path="url(#pb447988863)" style="fill: none; stroke: #808080; stroke-width: 0.8; stroke-linecap: square"/>
     </g>
     <g id="line2d_32">
      <g>
       <use xlink:href="#m82b1770be7" x="60.65" y="43.135892" style="stroke: #000000; stroke-width: 0.8"/>
      </g>
     </g>
     <g id="text_17">
      <!-- 175 -->
      <g transform="translate(30.745 47.694954) scale(0.12 -0.12)">
       <use xlink:href="#DejaVuSans-31"/>
       <use xlink:href="#DejaVuSans-37" x="63.623047"/>
       <use xlink:href="#DejaVuSans-35" x="127.246094"/>
      </g>
     </g>
    </g>
    <g id="text_18">
     <!-- $I_{DS X1}\,$ [uA] -->
     <g transform="translate(24.249375 197.81) rotate(-90) scale(0.12 -0.12)">
      <defs>
       <path id="DejaVuSans-Oblique-49" d="M 1081 4666 
L 1716 4666 
L 806 0 
L 172 0 
L 1081 4666 
z
" transform="scale(0.015625)"/>
       <path id="DejaVuSans-Oblique-53" d="M 3859 4513 
L 3738 3897 
Q 3422 4066 3111 4152 
Q 2800 4238 2509 4238 
Q 1944 4238 1609 3991 
Q 1275 3744 1275 3334 
Q 1275 3109 1398 2989 
Q 1522 2869 2034 2731 
L 2413 2638 
Q 3053 2472 3303 2217 
Q 3553 1963 3553 1503 
Q 3553 797 2998 353 
Q 2444 -91 1538 -91 
Q 1166 -91 791 -17 
Q 416 56 38 206 
L 166 856 
Q 513 641 861 531 
Q 1209 422 1556 422 
Q 2147 422 2503 684 
Q 2859 947 2859 1369 
Q 2859 1650 2717 1795 
Q 2575 1941 2106 2059 
L 1728 2156 
Q 1081 2325 845 2545 
Q 609 2766 609 3163 
Q 609 3859 1145 4304 
Q 1681 4750 2541 4750 
Q 2875 4750 3203 4690 
Q 3531 4631 3859 4513 
z
" transform="scale(0.015625)"/>
       <path id="DejaVuSans-Oblique-58" d="M 878 4666 
L 1516 4666 
L 2316 2981 
L 3763 4666 
L 4500 4666 
L 2578 2438 
L 3738 0 
L 3103 0 
L 2163 1966 
L 459 0 
L -275 0 
L 1906 2509 
L 878 4666 
z
" transform="scale(0.015625)"/>
       <path id="DejaVuSans-75" d="M 544 1381 
L 544 3500 
L 1119 3500 
L 1119 1403 
Q 1119 906 1312 657 
Q 1506 409 1894 409 
Q 2359 409 2629 706 
Q 2900 1003 2900 1516 
L 2900 3500 
L 3475 3500 
L 3475 0 
L 2900 0 
L 2900 538 
Q 2691 219 2414 64 
Q 2138 -91 1772 -91 
Q 1169 -91 856 284 
Q 544 659 544 1381 
z
M 1991 3584 
L 1991 3584 
z
" transform="scale(0.015625)"/>
       <path id="DejaVuSans-41" d="M 2188 4044 
L 1331 1722 
L 3047 1722 
L 2188 4044 
z
M 1831 4666 
L 2547 4666 
L 4325 0 
L 3669 0 
L 3244 1197 
L 1141 1197 
L 716 0 
L 50 0 
L 1831 4666 
z
" transform="scale(0.015625)"/>
      </defs>
      <use xlink:href="#DejaVuSans-Oblique-49" transform="translate(0 0.015625)"/>
      <use xlink:href="#DejaVuSans-Oblique-44" transform="translate(29.492188 -16.390625) scale(0.7)"/>
      <use xlink:href="#DejaVuSans-Oblique-53" transform="translate(83.393555 -16.390625) scale(0.7)"/>
      <use xlink:href="#DejaVuSans-Oblique-58" transform="translate(127.827148 -16.390625) scale(0.7)"/>
      <use xlink:href="#DejaVuSans-31" transform="translate(175.78125 -16.390625) scale(0.7)"/>
      <use xlink:href="#DejaVuSans-20" transform="translate(239.287434 0.015625)"/>
      <use xlink:href="#DejaVuSans-5b" transform="translate(271.074543 0.015625)"/>
      <use xlink:href="#DejaVuSans-75" transform="translate(310.088215 0.015625)"/>
      <use xlink:href="#DejaVuSans-41" transform="translate(373.467122 0.015625)"/>
      <use xlink:href="#DejaVuSans-5d" transform="translate(441.875325 0.015625)"/>
     </g>
    </g>
   </g>
   <g id="line2d_33">
    <path d="M 80.311364 296.359091 
L 88.33641 296.359062 
L 96.361456 296.359054 
L 104.386503 296.359053 
L 112.411549 296.359052 
L 120.436596 296.359052 
L 128.461642 296.359051 
L 136.486688 296.359051 
L 144.511735 296.359051 
L 152.536781 296.359051 
L 160.561827 296.359051 
L 168.586874 296.359051 
L 176.61192 296.35905 
L 184.636967 296.35905 
L 192.662013 296.35905 
L 200.687059 296.35905 
L 208.712106 296.35905 
L 216.737152 296.359049 
L 224.762199 296.359049 
L 232.787245 296.359049 
L 240.812291 296.359049 
L 248.837338 296.359049 
L 256.862384 296.359048 
L 264.88743 296.359048 
L 272.912477 296.359048 
L 280.937523 296.359048 
L 288.96257 296.359048 
L 296.987616 296.359047 
L 305.012662 296.359047 
L 313.037709 296.359047 
L 321.062755 296.359047 
L 329.087801 296.359047 
L 337.112848 296.359046 
L 345.137894 296.359046 
L 353.162941 296.359046 
L 361.187987 296.359046 
L 369.213033 296.359046 
L 377.23808 296.359045 
L 385.263126 296.359045 
L 393.288173 296.359045 
L 401.313219 296.359045 
L 409.338265 296.359045 
L 417.363312 296.359044 
L 425.388358 296.359044 
L 433.413404 296.359044 
L 441.438451 296.359044 
L 449.463497 296.359044 
L 457.488544 296.359043 
L 465.51359 296.359043 
L 473.538636 296.359043 
" clip-path="url(#pb447988863)" style="fill: none; stroke: #ff0000; stroke-width: 2; stroke-linecap: square"/>
   </g>
   <g id="line2d_34">
    <path d="M 80.311364 296.359091 
L 88.33641 296.351084 
L 96.361456 296.348999 
L 104.386503 296.348442 
L 112.411549 296.348265 
L 120.436596 296.348181 
L 128.461642 296.34812 
L 136.486688 296.348064 
L 144.511735 296.348009 
L 152.536781 296.347954 
L 160.561827 296.3479 
L 168.586874 296.347846 
L 176.61192 296.347791 
L 184.636967 296.347737 
L 192.662013 296.347683 
L 200.687059 296.347628 
L 208.712106 296.347574 
L 216.737152 296.34752 
L 224.762199 296.347465 
L 232.787245 296.347411 
L 240.812291 296.347357 
L 248.837338 296.347302 
L 256.862384 296.347248 
L 264.88743 296.347194 
L 272.912477 296.347139 
L 280.937523 296.347085 
L 288.96257 296.347031 
L 296.987616 296.346977 
L 305.012662 296.346922 
L 313.037709 296.346868 
L 321.062755 296.346814 
L 329.087801 296.346759 
L 337.112848 296.346705 
L 345.137894 296.346651 
L 353.162941 296.346596 
L 361.187987 296.346542 
L 369.213033 296.346488 
L 377.23808 296.346433 
L 385.263126 296.346379 
L 393.288173 296.346325 
L 401.313219 296.34627 
L 409.338265 296.346216 
L 417.363312 296.346162 
L 425.388358 296.346107 
L 433.413404 296.346053 
L 441.438451 296.345999 
L 449.463497 296.345944 
L 457.488544 296.34589 
L 465.51359 296.345836 
L 473.538636 296.345781 
" clip-path="url(#pb447988863)" style="fill: none; stroke: #0000ff; stroke-width: 2; stroke-linecap: square"/>
   </g>
   <g id="line2d_35">
    <path d="M 80.311364 296.359091 
L 88.33641 295.668103 
L 96.361456 295.373054 
L 104.386503 295.266887 
L 112.411549 295.231194 
L 120.436596 295.217383 
L 128.461642 295.209615 
L 136.486688 295.203407 
L 144.511735 295.197588 
L 152.536781 295.191863 
L 160.561827 295.186162 
L 168.586874 295.180467 
L 176.61192 295.174772 
L 184.636967 295.169078 
L 192.662013 295.163385 
L 200.687059 295.157691 
L 208.712106 295.151997 
L 216.737152 295.146303 
L 224.762199 295.140609 
L 232.787245 295.134915 
L 240.812291 295.129222 
L 248.837338 295.123528 
L 256.862384 295.117834 
L 264.88743 295.11214 
L 272.912477 295.106446 
L 280.937523 295.100752 
L 288.96257 295.095059 
L 296.987616 295.089365 
L 305.012662 295.083671 
L 313.037709 295.077977 
L 321.062755 295.072283 
L 329.087801 295.066589 
L 337.112848 295.060895 
L 345.137894 295.055202 
L 353.162941 295.049508 
L 361.187987 295.043814 
L 369.213033 295.03812 
L 377.23808 295.032426 
L 385.263126 295.026732 
L 393.288173 295.021039 
L 401.313219 295.015345 
L 409.338265 295.009651 
L 417.363312 295.003957 
L 425.388358 294.998263 
L 433.413404 294.992569 
L 441.438451 294.986876 
L 449.463497 294.981182 
L 457.488544 294.975488 
L 465.51359 294.969794 
L 473.538636 294.9641 
" clip-path="url(#pb447988863)" style="fill: none; stroke: #008000; stroke-width: 2; stroke-linecap: square"/>
   </g>
   <g id="line2d_36">
    <path d="M 80.311364 296.359091 
L 88.33641 292.618588 
L 96.361456 289.653078 
L 104.386503 287.503853 
L 112.411549 286.134023 
L 120.436596 285.390338 
L 128.461642 285.041718 
L 136.486688 284.883089 
L 144.511735 284.795816 
L 152.536781 284.730798 
L 160.561827 284.671942 
L 168.586874 284.61468 
L 176.61192 284.557815 
L 184.636967 284.501046 
L 192.662013 284.444302 
L 200.687059 284.387563 
L 208.712106 284.330825 
L 216.737152 284.274088 
L 224.762199 284.217351 
L 232.787245 284.160614 
L 240.812291 284.103877 
L 248.837338 284.04714 
L 256.862384 283.990403 
L 264.88743 283.933666 
L 272.912477 283.876928 
L 280.937523 283.820191 
L 288.96257 283.763454 
L 296.987616 283.706717 
L 305.012662 283.64998 
L 313.037709 283.593243 
L 321.062755 283.536506 
L 329.087801 283.479769 
L 337.112848 283.423032 
L 345.137894 283.366295 
L 353.162941 283.309557 
L 361.187987 283.25282 
L 369.213033 283.196083 
L 377.23808 283.139346 
L 385.263126 283.082609 
L 393.288173 283.025872 
L 401.313219 282.969135 
L 409.338265 282.912398 
L 417.363312 282.855661 
L 425.388358 282.798923 
L 433.413404 282.742186 
L 441.438451 282.685449 
L 449.463497 282.628712 
L 457.488544 282.571975 
L 465.51359 282.515238 
L 473.538636 282.458501 
" clip-path="url(#pb447988863)" style="fill: none; stroke: #00bfbf; stroke-width: 2; stroke-linecap: square"/>
   </g>
   <g id="line2d_37">
    <path d="M 80.311364 296.359091 
L 88.33641 290.181428 
L 96.361456 284.516015 
L 104.386503 279.412289 
L 112.411549 274.929601 
L 120.436596 271.136312 
L 128.461642 268.100812 
L 136.486688 265.864791 
L 144.511735 264.395003 
L 152.536781 263.544614 
L 160.561827 263.088148 
L 168.586874 262.822662 
L 176.61192 262.629379 
L 184.636967 262.45872 
L 192.662013 262.29434 
L 200.687059 262.131587 
L 208.712106 261.96924 
L 216.737152 261.806991 
L 224.762199 261.644767 
L 232.787245 261.482549 
L 240.812291 261.320332 
L 248.837338 261.158115 
L 256.862384 260.995899 
L 264.88743 260.833682 
L 272.912477 260.671466 
L 280.937523 260.50925 
L 288.96257 260.347033 
L 296.987616 260.184817 
L 305.012662 260.0226 
L 313.037709 259.860384 
L 321.062755 259.698167 
L 329.087801 259.535951 
L 337.112848 259.373734 
L 345.137894 259.211518 
L 353.162941 259.049301 
L 361.187987 258.887085 
L 369.213033 258.724868 
L 377.23808 258.562652 
L 385.263126 258.400435 
L 393.288173 258.238219 
L 401.313219 258.076002 
L 409.338265 257.913786 
L 417.363312 257.751569 
L 425.388358 257.589353 
L 433.413404 257.427136 
L 441.438451 257.26492 
L 449.463497 257.102704 
L 457.488544 256.940487 
L 465.51359 256.778271 
L 473.538636 256.616054 
" clip-path="url(#pb447988863)" style="fill: none; stroke: #bf00bf; stroke-width: 2; stroke-linecap: square"/>
   </g>
   <g id="line2d_38">
    <path d="M 80.311364 296.359091 
L 88.33641 288.483325 
L 96.361456 280.982366 
L 104.386503 273.880952 
L 112.411549 267.207681 
L 120.436596 260.996062 
L 128.461642 255.285957 
L 136.486688 250.125344 
L 144.511735 245.571859 
L 152.536781 241.692032 
L 160.561827 238.552861 
L 168.586874 236.196328 
L 176.61192 234.592651 
L 184.636967 233.601297 
L 192.662013 233.002451 
L 200.687059 232.595445 
L 208.712106 232.261456 
L 216.737152 231.95045 
L 224.762199 231.645841 
L 232.787245 231.342892 
L 240.812291 231.040356 
L 248.837338 230.737922 
L 256.862384 230.435512 
L 264.88743 230.133109 
L 272.912477 229.830706 
L 280.937523 229.528305 
L 288.96257 229.225903 
L 296.987616 228.923501 
L 305.012662 228.621099 
L 313.037709 228.318698 
L 321.062755 228.016296 
L 329.087801 227.713894 
L 337.112848 227.411492 
L 345.137894 227.109091 
L 353.162941 226.806689 
L 361.187987 226.504287 
L 369.213033 226.201885 
L 377.23808 225.899484 
L 385.263126 225.597082 
L 393.288173 225.29468 
L 401.313219 224.992278 
L 409.338265 224.689877 
L 417.363312 224.387475 
L 425.388358 224.085073 
L 433.413404 223.782671 
L 441.438451 223.48027 
L 449.463497 223.177868 
L 457.488544 222.875466 
L 465.51359 222.573064 
L 473.538636 222.270663 
" clip-path="url(#pb447988863)" style="fill: none; stroke: #bfbf00; stroke-width: 2; stroke-linecap: square"/>
   </g>
   <g id="line2d_39">
    <path d="M 80.311364 296.359091 
L 88.33641 287.175045 
L 96.361456 278.288119 
L 104.386503 269.713025 
L 112.411549 261.466242 
L 120.436596 253.566319 
L 128.461642 246.034276 
L 136.486688 238.894135 
L 144.511735 232.173656 
L 152.536781 225.905359 
L 160.561827 220.12791 
L 168.586874 214.887849 
L 176.61192 210.241108 
L 184.636967 206.252389 
L 192.662013 202.987269 
L 200.687059 200.487912 
L 208.712106 198.72783 
L 216.737152 197.572665 
L 224.762199 196.808318 
L 232.787245 196.236539 
L 240.812291 195.73855 
L 248.837338 195.263896 
L 256.862384 194.795755 
L 264.88743 194.329306 
L 272.912477 193.863279 
L 280.937523 193.397356 
L 288.96257 192.931457 
L 296.987616 192.465565 
L 305.012662 191.999675 
L 313.037709 191.533784 
L 321.062755 191.067894 
L 329.087801 190.602004 
L 337.112848 190.136113 
L 345.137894 189.670223 
L 353.162941 189.204333 
L 361.187987 188.738443 
L 369.213033 188.272552 
L 377.23808 187.806662 
L 385.263126 187.340772 
L 393.288173 186.874882 
L 401.313219 186.408991 
L 409.338265 185.943101 
L 417.363312 185.477211 
L 425.388358 185.011321 
L 433.413404 184.54543 
L 441.438451 184.07954 
L 449.463497 183.61365 
L 457.488544 183.14776 
L 465.51359 182.681869 
L 473.538636 182.215979 
" clip-path="url(#pb447988863)" style="fill: none; stroke: #000000; stroke-width: 2; stroke-linecap: square"/>
   </g>
   <g id="line2d_40">
    <path d="M 80.311364 296.359091 
L 88.33641 286.103705 
L 96.361456 276.096422 
L 104.386503 266.346668 
L 112.411549 256.864856 
L 120.436596 247.662518 
L 128.461642 238.752469 
L 136.486688 230.148998 
L 144.511735 221.868106 
L 152.536781 213.927801 
L 160.561827 206.348486 
L 168.586874 199.153474 
L 176.61192 192.369696 
L 184.636967 186.028688 
L 192.662013 180.167937 
L 200.687059 174.832554 
L 208.712106 170.076786 
L 216.737152 165.963513 
L 224.762199 162.556854 
L 232.787245 159.89906 
L 240.812291 157.966763 
L 248.837338 156.631651 
L 256.862384 155.685387 
L 264.88743 154.932279 
L 272.912477 154.253693 
L 280.937523 153.598783 
L 288.96257 152.950501 
L 296.987616 152.303943 
L 305.012662 151.657816 
L 313.037709 151.011794 
L 321.062755 150.365798 
L 329.087801 149.719808 
L 337.112848 149.073819 
L 345.137894 148.427831 
L 353.162941 147.781843 
L 361.187987 147.135855 
L 369.213033 146.489867 
L 377.23808 145.843879 
L 385.263126 145.197891 
L 393.288173 144.551903 
L 401.313219 143.905915 
L 409.338265 143.259927 
L 417.363312 142.613939 
L 425.388358 141.967951 
L 433.413404 141.321963 
L 441.438451 140.675974 
L 449.463497 140.029986 
L 457.488544 139.383998 
L 465.51359 138.73801 
L 473.538636 138.092022 
" clip-path="url(#pb447988863)" style="fill: none; stroke: #ff0000; stroke-width: 2; stroke-linecap: square"/>
   </g>
   <g id="line2d_41">
    <path d="M 80.311364 296.359091 
L 88.33641 285.18684 
L 96.361456 274.230128 
L 104.386503 263.495253 
L 112.411549 252.989105 
L 120.436596 242.719241 
L 128.461642 232.693968 
L 136.486688 222.922437 
L 144.511735 213.414756 
L 152.536781 204.182119 
L 160.561827 195.236964 
L 168.586874 186.593159 
L 176.61192 178.266229 
L 184.636967 170.273646 
L 192.662013 162.635202 
L 200.687059 155.373504 
L 208.712106 148.514663 
L 216.737152 142.08924 
L 224.762199 136.133555 
L 232.787245 130.691306 
L 240.812291 125.815067 
L 248.837338 121.565901 
L 256.862384 118.006445 
L 264.88743 115.178934 
L 272.912477 113.062953 
L 280.937523 111.536105 
L 288.96257 110.395848 
L 296.987616 109.449192 
L 305.012662 108.577743 
L 313.037709 107.730303 
L 321.062755 106.889602 
L 329.087801 106.050657 
L 337.112848 105.212151 
L 345.137894 104.373753 
L 353.162941 103.53538 
L 361.187987 102.697014 
L 369.213033 101.85865 
L 377.23808 101.020286 
L 385.263126 100.181922 
L 393.288173 99.343558 
L 401.313219 98.505194 
L 409.338265 97.66683 
L 417.363312 96.828466 
L 425.388358 95.990102 
L 433.413404 95.151738 
L 441.438451 94.313374 
L 449.463497 93.47501 
L 457.488544 92.636646 
L 465.51359 91.798282 
L 473.538636 90.959918 
" clip-path="url(#pb447988863)" style="fill: none; stroke: #0000ff; stroke-width: 2; stroke-linecap: square"/>
   </g>
   <g id="line2d_42">
    <path d="M 80.311364 296.359091 
L 88.33641 284.374896 
L 96.361456 272.583816 
L 104.386503 260.990195 
L 112.411549 249.598752 
L 120.436596 238.414618 
L 128.461642 227.443389 
L 136.486688 216.691176 
L 144.511735 206.164665 
L 152.536781 195.871189 
L 160.561827 185.818806 
L 168.586874 176.016395 
L 176.61192 166.47376 
L 184.636967 157.201761 
L 192.662013 148.21246 
L 200.687059 139.519305 
L 208.712106 131.137351 
L 216.737152 123.083538 
L 224.762199 115.377048 
L 232.787245 108.039793 
L 240.812291 101.097065 
L 248.837338 94.578465 
L 256.862384 88.519153 
L 264.88743 82.961433 
L 272.912477 77.956218 
L 280.937523 73.56276 
L 288.96257 69.842189 
L 296.987616 66.83663 
L 305.012662 64.528451 
L 313.037709 62.801036 
L 321.062755 61.457665 
L 329.087801 60.308192 
L 337.112848 59.234561 
L 345.137894 58.185258 
L 353.162941 57.142805 
L 361.187987 56.102139 
L 369.213033 55.06192 
L 377.23808 54.021811 
L 385.263126 52.981728 
L 393.288173 51.941652 
L 401.313219 50.901577 
L 409.338265 49.861503 
L 417.363312 48.821429 
L 425.388358 47.781354 
L 433.413404 46.74128 
L 441.438451 45.701206 
L 449.463497 44.661132 
L 457.488544 43.621058 
L 465.51359 42.580983 
L 473.538636 41.540909 
" clip-path="url(#pb447988863)" style="fill: none; stroke: #008000; stroke-width: 2; stroke-linecap: square"/>
   </g>
   <g id="patch_3">
    <path d="M 60.65 309.1 
L 60.65 28.8 
" style="fill: none; stroke: #000000; stroke-width: 0.8; stroke-linejoin: miter; stroke-linecap: square"/>
   </g>
   <g id="patch_4">
    <path d="M 493.2 309.1 
L 493.2 28.8 
" style="fill: none; stroke: #000000; stroke-width: 0.8; stroke-linejoin: miter; stroke-linecap: square"/>
   </g>
   <g id="patch_5">
    <path d="M 60.65 309.1 
L 493.2 309.1 
" style="fill: none; stroke: #000000; stroke-width: 0.8; stroke-linejoin: miter; stroke-linecap: square"/>
   </g>
   <g id="patch_6">
    <path d="M 60.65 28.8 
L 493.2 28.8 
" style="fill: none; stroke: #000000; stroke-width: 0.8; stroke-linejoin: miter; stroke-linecap: square"/>
   </g>
   <g id="text_19">
    <!-- $I_{ds}(V_{ds})$ -->
    <g transform="translate(256.285 22.8) scale(0.12 -0.12)">
     <defs>
      <path id="DejaVuSans-Oblique-64" d="M 2675 525 
Q 2444 222 2128 65 
Q 1813 -91 1428 -91 
Q 903 -91 598 267 
Q 294 625 294 1247 
Q 294 1766 478 2236 
Q 663 2706 1013 3078 
Q 1244 3325 1534 3454 
Q 1825 3584 2144 3584 
Q 2481 3584 2739 3421 
Q 2997 3259 3138 2956 
L 3513 4863 
L 4091 4863 
L 3144 0 
L 2566 0 
L 2675 525 
z
M 891 1350 
Q 891 897 1095 644 
Q 1300 391 1663 391 
Q 1931 391 2161 520 
Q 2391 650 2566 903 
Q 2750 1166 2856 1509 
Q 2963 1853 2963 2188 
Q 2963 2622 2758 2865 
Q 2553 3109 2194 3109 
Q 1922 3109 1687 2981 
Q 1453 2853 1288 2613 
Q 1106 2353 998 2009 
Q 891 1666 891 1350 
z
" transform="scale(0.015625)"/>
      <path id="DejaVuSans-Oblique-73" d="M 3200 3397 
L 3091 2853 
Q 2863 2978 2609 3040 
Q 2356 3103 2088 3103 
Q 1634 3103 1373 2948 
Q 1113 2794 1113 2528 
Q 1113 2219 1719 2053 
Q 1766 2041 1788 2034 
L 1972 1978 
Q 2547 1819 2739 1644 
Q 2931 1469 2931 1166 
Q 2931 609 2489 259 
Q 2047 -91 1331 -91 
Q 1053 -91 747 -37 
Q 441 16 72 128 
L 184 722 
Q 500 559 806 475 
Q 1113 391 1394 391 
Q 1816 391 2080 572 
Q 2344 753 2344 1031 
Q 2344 1331 1650 1516 
L 1591 1531 
L 1394 1581 
Q 956 1697 753 1886 
Q 550 2075 550 2369 
Q 550 2928 970 3256 
Q 1391 3584 2113 3584 
Q 2397 3584 2667 3537 
Q 2938 3491 3200 3397 
z
" transform="scale(0.015625)"/>
      <path id="DejaVuSans-28" d="M 1984 4856 
Q 1566 4138 1362 3434 
Q 1159 2731 1159 2009 
Q 1159 1288 1364 580 
Q 1569 -128 1984 -844 
L 1484 -844 
Q 1016 -109 783 600 
Q 550 1309 550 2009 
Q 550 2706 781 3412 
Q 1013 4119 1484 4856 
L 1984 4856 
z
" transform="scale(0.015625)"/>
      <path id="DejaVuSans-29" d="M 513 4856 
L 1013 4856 
Q 1481 4119 1714 3412 
Q 1947 2706 1947 2009 
Q 1947 1309 1714 600 
Q 1481 -109 1013 -844 
L 513 -844 
Q 928 -128 1133 580 
Q 1338 1288 1338 2009 
Q 1338 2731 1133 3434 
Q 928 4138 513 4856 
z
" transform="scale(0.015625)"/>
     </defs>
     <use xlink:href="#DejaVuSans-Oblique-49" transform="translate(0 0.125)"/>
     <use xlink:href="#DejaVuSans-Oblique-64" transform="translate(29.492188 -16.28125) scale(0.7)"/>
     <use xlink:href="#DejaVuSans-Oblique-73" transform="translate(73.925781 -16.28125) scale(0.7)"/>
     <use xlink:href="#DejaVuSans-28" transform="translate(113.129883 0.125)"/>
     <use xlink:href="#DejaVuSans-Oblique-56" transform="translate(152.143555 0.125)"/>
     <use xlink:href="#DejaVuSans-Oblique-64" transform="translate(220.551758 -16.28125) scale(0.7)"/>
     <use xlink:href="#DejaVuSans-Oblique-73" transform="translate(264.985352 -16.28125) scale(0.7)"/>
     <use xlink:href="#DejaVuSans-29" transform="translate(304.189453 0.125)"/>
    </g>
   </g>
   <g id="legend_1">
    <g id="patch_7">
     <path d="M 67.65 153.9375 
L 203.49 153.9375 
Q 205.49 153.9375 205.49 151.9375 
L 205.49 35.8 
Q 205.49 33.8 203.49 33.8 
L 67.65 33.8 
Q 65.65 33.8 65.65 35.8 
L 65.65 151.9375 
Q 65.65 153.9375 67.65 153.9375 
z
" style="fill: #ffffff; opacity: 0.8; stroke: #cccccc; stroke-linejoin: miter"/>
    </g>
    <g id="line2d_43">
     <path d="M 67.65 41.418125 
L 72.65 41.418125 
L 77.65 41.418125 
" style="fill: none; stroke: #ff0000; stroke-width: 2; stroke-linecap: square"/>
    </g>
    <g id="text_20">
     <!-- $I_{DS X1}: V_{G}$ =  1.0e-03 -->
     <g transform="translate(79.65 44.918125) scale(0.12 -0.12)">
      <defs>
       <path id="DejaVuSans-3a" d="M 750 794 
L 1409 794 
L 1409 0 
L 750 0 
L 750 794 
z
M 750 3309 
L 1409 3309 
L 1409 2516 
L 750 2516 
L 750 3309 
z
" transform="scale(0.015625)"/>
       <path id="DejaVuSans-Oblique-47" d="M 3494 697 
L 3738 1919 
L 2700 1919 
L 2797 2438 
L 4453 2438 
L 4050 384 
Q 3634 156 3143 32 
Q 2653 -91 2156 -91 
Q 1278 -91 783 396 
Q 288 884 288 1753 
Q 288 2475 589 3126 
Q 891 3778 1422 4213 
Q 1756 4484 2153 4617 
Q 2550 4750 3034 4750 
Q 3472 4750 3873 4639 
Q 4275 4528 4641 4306 
L 4513 3634 
Q 4231 3928 3853 4083 
Q 3475 4238 3047 4238 
Q 2550 4238 2172 4048 
Q 1794 3859 1497 3463 
Q 1244 3125 1098 2667 
Q 953 2209 953 1734 
Q 953 1081 1287 751 
Q 1622 422 2284 422 
Q 2616 422 2925 492 
Q 3234 563 3494 697 
z
" transform="scale(0.015625)"/>
       <path id="DejaVuSans-3d" d="M 678 2906 
L 4684 2906 
L 4684 2381 
L 678 2381 
L 678 2906 
z
M 678 1631 
L 4684 1631 
L 4684 1100 
L 678 1100 
L 678 1631 
z
" transform="scale(0.015625)"/>
       <path id="DejaVuSans-65" d="M 3597 1894 
L 3597 1613 
L 953 1613 
Q 991 1019 1311 708 
Q 1631 397 2203 397 
Q 2534 397 2845 478 
Q 3156 559 3463 722 
L 3463 178 
Q 3153 47 2828 -22 
Q 2503 -91 2169 -91 
Q 1331 -91 842 396 
Q 353 884 353 1716 
Q 353 2575 817 3079 
Q 1281 3584 2069 3584 
Q 2775 3584 3186 3129 
Q 3597 2675 3597 1894 
z
M 3022 2063 
Q 3016 2534 2758 2815 
Q 2500 3097 2075 3097 
Q 1594 3097 1305 2825 
Q 1016 2553 972 2059 
L 3022 2063 
z
" transform="scale(0.015625)"/>
       <path id="DejaVuSans-2d" d="M 313 2009 
L 1997 2009 
L 1997 1497 
L 313 1497 
L 313 2009 
z
" transform="scale(0.015625)"/>
       <path id="DejaVuSans-33" d="M 2597 2516 
Q 3050 2419 3304 2112 
Q 3559 1806 3559 1356 
Q 3559 666 3084 287 
Q 2609 -91 1734 -91 
Q 1441 -91 1130 -33 
Q 819 25 488 141 
L 488 750 
Q 750 597 1062 519 
Q 1375 441 1716 441 
Q 2309 441 2620 675 
Q 2931 909 2931 1356 
Q 2931 1769 2642 2001 
Q 2353 2234 1838 2234 
L 1294 2234 
L 1294 2753 
L 1863 2753 
Q 2328 2753 2575 2939 
Q 2822 3125 2822 3475 
Q 2822 3834 2567 4026 
Q 2313 4219 1838 4219 
Q 1578 4219 1281 4162 
Q 984 4106 628 3988 
L 628 4550 
Q 988 4650 1302 4700 
Q 1616 4750 1894 4750 
Q 2613 4750 3031 4423 
Q 3450 4097 3450 3541 
Q 3450 3153 3228 2886 
Q 3006 2619 2597 2516 
z
" transform="scale(0.015625)"/>
      </defs>
      <use xlink:href="#DejaVuSans-Oblique-49" transform="translate(0 0.78125)"/>
      <use xlink:href="#DejaVuSans-Oblique-44" transform="translate(29.492188 -15.625) scale(0.7)"/>
      <use xlink:href="#DejaVuSans-Oblique-53" transform="translate(83.393555 -15.625) scale(0.7)"/>
      <use xlink:href="#DejaVuSans-Oblique-58" transform="translate(127.827148 -15.625) scale(0.7)"/>
      <use xlink:href="#DejaVuSans-31" transform="translate(175.78125 -15.625) scale(0.7)"/>
      <use xlink:href="#DejaVuSans-3a" transform="translate(242.53418 0.78125)"/>
      <use xlink:href="#DejaVuSans-Oblique-56" transform="translate(295.708008 0.78125)"/>
      <use xlink:href="#DejaVuSans-Oblique-47" transform="translate(364.116211 -15.625) scale(0.7)"/>
      <use xlink:href="#DejaVuSans-20" transform="translate(421.09375 0.78125)"/>
      <use xlink:href="#DejaVuSans-3d" transform="translate(452.880859 0.78125)"/>
      <use xlink:href="#DejaVuSans-20" transform="translate(536.669922 0.78125)"/>
      <use xlink:href="#DejaVuSans-20" transform="translate(568.457031 0.78125)"/>
      <use xlink:href="#DejaVuSans-31" transform="translate(600.244141 0.78125)"/>
      <use xlink:href="#DejaVuSans-2e" transform="translate(663.867188 0.78125)"/>
      <use xlink:href="#DejaVuSans-30" transform="translate(695.654297 0.78125)"/>
      <use xlink:href="#DejaVuSans-65" transform="translate(759.277344 0.78125)"/>
      <use xlink:href="#DejaVuSans-2d" transform="translate(820.800781 0.78125)"/>
      <use xlink:href="#DejaVuSans-30" transform="translate(856.884766 0.78125)"/>
      <use xlink:href="#DejaVuSans-33" transform="translate(920.507812 0.78125)"/>
     </g>
    </g>
    <g id="line2d_44">
     <path d="M 67.65 53.031875 
L 72.65 53.031875 
L 77.65 53.031875 
" style="fill: none; stroke: #0000ff; stroke-width: 2; stroke-linecap: square"/>
    </g>
    <g id="text_21">
     <!-- $I_{DS X1}: V_{G}$ =  2.0e-01 -->
     <g transform="translate(79.65 56.531875) scale(0.12 -0.12)">
      <use xlink:href="#DejaVuSans-Oblique-49" transform="translate(0 0.78125)"/>
      <use xlink:href="#DejaVuSans-Oblique-44" transform="translate(29.492188 -15.625) scale(0.7)"/>
      <use xlink:href="#DejaVuSans-Oblique-53" transform="translate(83.393555 -15.625) scale(0.7)"/>
      <use xlink:href="#DejaVuSans-Oblique-58" transform="translate(127.827148 -15.625) scale(0.7)"/>
      <use xlink:href="#DejaVuSans-31" transform="translate(175.78125 -15.625) scale(0.7)"/>
      <use xlink:href="#DejaVuSans-3a" transform="translate(242.53418 0.78125)"/>
      <use xlink:href="#DejaVuSans-Oblique-56" transform="translate(295.708008 0.78125)"/>
      <use xlink:href="#DejaVuSans-Oblique-47" transform="translate(364.116211 -15.625) scale(0.7)"/>
      <use xlink:href="#DejaVuSans-20" transform="translate(421.09375 0.78125)"/>
      <use xlink:href="#DejaVuSans-3d" transform="translate(452.880859 0.78125)"/>
      <use xlink:href="#DejaVuSans-20" transform="translate(536.669922 0.78125)"/>
      <use xlink:href="#DejaVuSans-20" transform="translate(568.457031 0.78125)"/>
      <use xlink:href="#DejaVuSans-32" transform="translate(600.244141 0.78125)"/>
      <use xlink:href="#DejaVuSans-2e" transform="translate(663.867188 0.78125)"/>
      <use xlink:href="#DejaVuSans-30" transform="translate(695.654297 0.78125)"/>
      <use xlink:href="#DejaVuSans-65" transform="translate(759.277344 0.78125)"/>
      <use xlink:href="#DejaVuSans-2d" transform="translate(820.800781 0.78125)"/>
      <use xlink:href="#DejaVuSans-30" transform="translate(856.884766 0.78125)"/>
      <use xlink:href="#DejaVuSans-31" transform="translate(920.507812 0.78125)"/>
     </g>
    </g>
    <g id="line2d_45">
     <path d="M 67.65 64.645625 
L 72.65 64.645625 
L 77.65 64.645625 
" style="fill: none; stroke: #008000; stroke-width: 2; stroke-linecap: square"/>
    </g>
    <g id="text_22">
     <!-- $I_{DS X1}: V_{G}$ =  4.0e-01 -->
     <g transform="translate(79.65 68.145625) scale(0.12 -0.12)">
      <defs>
       <path id="DejaVuSans-34" d="M 2419 4116 
L 825 1625 
L 2419 1625 
L 2419 4116 
z
M 2253 4666 
L 3047 4666 
L 3047 1625 
L 3713 1625 
L 3713 1100 
L 3047 1100 
L 3047 0 
L 2419 0 
L 2419 1100 
L 313 1100 
L 313 1709 
L 2253 4666 
z
" transform="scale(0.015625)"/>
      </defs>
      <use xlink:href="#DejaVuSans-Oblique-49" transform="translate(0 0.78125)"/>
      <use xlink:href="#DejaVuSans-Oblique-44" transform="translate(29.492188 -15.625) scale(0.7)"/>
      <use xlink:href="#DejaVuSans-Oblique-53" transform="translate(83.393555 -15.625) scale(0.7)"/>
      <use xlink:href="#DejaVuSans-Oblique-58" transform="translate(127.827148 -15.625) scale(0.7)"/>
      <use xlink:href="#DejaVuSans-31" transform="translate(175.78125 -15.625) scale(0.7)"/>
      <use xlink:href="#DejaVuSans-3a" transform="translate(242.53418 0.78125)"/>
      <use xlink:href="#DejaVuSans-Oblique-56" transform="translate(295.708008 0.78125)"/>
      <use xlink:href="#DejaVuSans-Oblique-47" transform="translate(364.116211 -15.625) scale(0.7)"/>
      <use xlink:href="#DejaVuSans-20" transform="translate(421.09375 0.78125)"/>
      <use xlink:href="#DejaVuSans-3d" transform="translate(452.880859 0.78125)"/>
      <use xlink:href="#DejaVuSans-20" transform="translate(536.669922 0.78125)"/>
      <use xlink:href="#DejaVuSans-20" transform="translate(568.457031 0.78125)"/>
      <use xlink:href="#DejaVuSans-34" transform="translate(600.244141 0.78125)"/>
      <use xlink:href="#DejaVuSans-2e" transform="translate(663.867188 0.78125)"/>
      <use xlink:href="#DejaVuSans-30" transform="translate(695.654297 0.78125)"/>
      <use xlink:href="#DejaVuSans-65" transform="translate(759.277344 0.78125)"/>
      <use xlink:href="#DejaVuSans-2d" transform="translate(820.800781 0.78125)"/>
      <use xlink:href="#DejaVuSans-30" transform="translate(856.884766 0.78125)"/>
      <use xlink:href="#DejaVuSans-31" transform="translate(920.507812 0.78125)"/>
     </g>
    </g>
    <g id="line2d_46">
     <path d="M 67.65 76.259375 
L 72.65 76.259375 
L 77.65 76.259375 
" style="fill: none; stroke: #00bfbf; stroke-width: 2; stroke-linecap: square"/>
    </g>
    <g id="text_23">
     <!-- $I_{DS X1}: V_{G}$ =  6.0e-01 -->
     <g transform="translate(79.65 79.759375) scale(0.12 -0.12)">
      <defs>
       <path id="DejaVuSans-36" d="M 2113 2584 
Q 1688 2584 1439 2293 
Q 1191 2003 1191 1497 
Q 1191 994 1439 701 
Q 1688 409 2113 409 
Q 2538 409 2786 701 
Q 3034 994 3034 1497 
Q 3034 2003 2786 2293 
Q 2538 2584 2113 2584 
z
M 3366 4563 
L 3366 3988 
Q 3128 4100 2886 4159 
Q 2644 4219 2406 4219 
Q 1781 4219 1451 3797 
Q 1122 3375 1075 2522 
Q 1259 2794 1537 2939 
Q 1816 3084 2150 3084 
Q 2853 3084 3261 2657 
Q 3669 2231 3669 1497 
Q 3669 778 3244 343 
Q 2819 -91 2113 -91 
Q 1303 -91 875 529 
Q 447 1150 447 2328 
Q 447 3434 972 4092 
Q 1497 4750 2381 4750 
Q 2619 4750 2861 4703 
Q 3103 4656 3366 4563 
z
" transform="scale(0.015625)"/>
      </defs>
      <use xlink:href="#DejaVuSans-Oblique-49" transform="translate(0 0.78125)"/>
      <use xlink:href="#DejaVuSans-Oblique-44" transform="translate(29.492188 -15.625) scale(0.7)"/>
      <use xlink:href="#DejaVuSans-Oblique-53" transform="translate(83.393555 -15.625) scale(0.7)"/>
      <use xlink:href="#DejaVuSans-Oblique-58" transform="translate(127.827148 -15.625) scale(0.7)"/>
      <use xlink:href="#DejaVuSans-31" transform="translate(175.78125 -15.625) scale(0.7)"/>
      <use xlink:href="#DejaVuSans-3a" transform="translate(242.53418 0.78125)"/>
      <use xlink:href="#DejaVuSans-Oblique-56" transform="translate(295.708008 0.78125)"/>
      <use xlink:href="#DejaVuSans-Oblique-47" transform="translate(364.116211 -15.625) scale(0.7)"/>
      <use xlink:href="#DejaVuSans-20" transform="translate(421.09375 0.78125)"/>
      <use xlink:href="#DejaVuSans-3d" transform="translate(452.880859 0.78125)"/>
      <use xlink:href="#DejaVuSans-20" transform="translate(536.669922 0.78125)"/>
      <use xlink:href="#DejaVuSans-20" transform="translate(568.457031 0.78125)"/>
      <use xlink:href="#DejaVuSans-36" transform="translate(600.244141 0.78125)"/>
      <use xlink:href="#DejaVuSans-2e" transform="translate(663.867188 0.78125)"/>
      <use xlink:href="#DejaVuSans-30" transform="translate(695.654297 0.78125)"/>
      <use xlink:href="#DejaVuSans-65" transform="translate(759.277344 0.78125)"/>
      <use xlink:href="#DejaVuSans-2d" transform="translate(820.800781 0.78125)"/>
      <use xlink:href="#DejaVuSans-30" transform="translate(856.884766 0.78125)"/>
      <use xlink:href="#DejaVuSans-31" transform="translate(920.507812 0.78125)"/>
     </g>
    </g>
    <g id="line2d_47">
     <path d="M 67.65 87.873125 
L 72.65 87.873125 
L 77.65 87.873125 
" style="fill: none; stroke: #bf00bf; stroke-width: 2; stroke-linecap: square"/>
    </g>
    <g id="text_24">
     <!-- $I_{DS X1}: V_{G}$ =  8.0e-01 -->
     <g transform="translate(79.65 91.373125) scale(0.12 -0.12)">
      <defs>
       <path id="DejaVuSans-38" d="M 2034 2216 
Q 1584 2216 1326 1975 
Q 1069 1734 1069 1313 
Q 1069 891 1326 650 
Q 1584 409 2034 409 
Q 2484 409 2743 651 
Q 3003 894 3003 1313 
Q 3003 1734 2745 1975 
Q 2488 2216 2034 2216 
z
M 1403 2484 
Q 997 2584 770 2862 
Q 544 3141 544 3541 
Q 544 4100 942 4425 
Q 1341 4750 2034 4750 
Q 2731 4750 3128 4425 
Q 3525 4100 3525 3541 
Q 3525 3141 3298 2862 
Q 3072 2584 2669 2484 
Q 3125 2378 3379 2068 
Q 3634 1759 3634 1313 
Q 3634 634 3220 271 
Q 2806 -91 2034 -91 
Q 1263 -91 848 271 
Q 434 634 434 1313 
Q 434 1759 690 2068 
Q 947 2378 1403 2484 
z
M 1172 3481 
Q 1172 3119 1398 2916 
Q 1625 2713 2034 2713 
Q 2441 2713 2670 2916 
Q 2900 3119 2900 3481 
Q 2900 3844 2670 4047 
Q 2441 4250 2034 4250 
Q 1625 4250 1398 4047 
Q 1172 3844 1172 3481 
z
" transform="scale(0.015625)"/>
      </defs>
      <use xlink:href="#DejaVuSans-Oblique-49" transform="translate(0 0.78125)"/>
      <use xlink:href="#DejaVuSans-Oblique-44" transform="translate(29.492188 -15.625) scale(0.7)"/>
      <use xlink:href="#DejaVuSans-Oblique-53" transform="translate(83.393555 -15.625) scale(0.7)"/>
      <use xlink:href="#DejaVuSans-Oblique-58" transform="translate(127.827148 -15.625) scale(0.7)"/>
      <use xlink:href="#DejaVuSans-31" transform="translate(175.78125 -15.625) scale(0.7)"/>
      <use xlink:href="#DejaVuSans-3a" transform="translate(242.53418 0.78125)"/>
      <use xlink:href="#DejaVuSans-Oblique-56" transform="translate(295.708008 0.78125)"/>
      <use xlink:href="#DejaVuSans-Oblique-47" transform="translate(364.116211 -15.625) scale(0.7)"/>
      <use xlink:href="#DejaVuSans-20" transform="translate(421.09375 0.78125)"/>
      <use xlink:href="#DejaVuSans-3d" transform="translate(452.880859 0.78125)"/>
      <use xlink:href="#DejaVuSans-20" transform="translate(536.669922 0.78125)"/>
      <use xlink:href="#DejaVuSans-20" transform="translate(568.457031 0.78125)"/>
      <use xlink:href="#DejaVuSans-38" transform="translate(600.244141 0.78125)"/>
      <use xlink:href="#DejaVuSans-2e" transform="translate(663.867188 0.78125)"/>
      <use xlink:href="#DejaVuSans-30" transform="translate(695.654297 0.78125)"/>
      <use xlink:href="#DejaVuSans-65" transform="translate(759.277344 0.78125)"/>
      <use xlink:href="#DejaVuSans-2d" transform="translate(820.800781 0.78125)"/>
      <use xlink:href="#DejaVuSans-30" transform="translate(856.884766 0.78125)"/>
      <use xlink:href="#DejaVuSans-31" transform="translate(920.507812 0.78125)"/>
     </g>
    </g>
    <g id="line2d_48">
     <path d="M 67.65 99.486875 
L 72.65 99.486875 
L 77.65 99.486875 
" style="fill: none; stroke: #bfbf00; stroke-width: 2; stroke-linecap: square"/>
    </g>
    <g id="text_25">
     <!-- $I_{DS X1}: V_{G}$ =  1.0e+00 -->
     <g transform="translate(79.65 102.986875) scale(0.12 -0.12)">
      <defs>
       <path id="DejaVuSans-2b" d="M 2944 4013 
L 2944 2272 
L 4684 2272 
L 4684 1741 
L 2944 1741 
L 2944 0 
L 2419 0 
L 2419 1741 
L 678 1741 
L 678 2272 
L 2419 2272 
L 2419 4013 
L 2944 4013 
z
" transform="scale(0.015625)"/>
      </defs>
      <use xlink:href="#DejaVuSans-Oblique-49" transform="translate(0 0.78125)"/>
      <use xlink:href="#DejaVuSans-Oblique-44" transform="translate(29.492188 -15.625) scale(0.7)"/>
      <use xlink:href="#DejaVuSans-Oblique-53" transform="translate(83.393555 -15.625) scale(0.7)"/>
      <use xlink:href="#DejaVuSans-Oblique-58" transform="translate(127.827148 -15.625) scale(0.7)"/>
      <use xlink:href="#DejaVuSans-31" transform="translate(175.78125 -15.625) scale(0.7)"/>
      <use xlink:href="#DejaVuSans-3a" transform="translate(242.53418 0.78125)"/>
      <use xlink:href="#DejaVuSans-Oblique-56" transform="translate(295.708008 0.78125)"/>
      <use xlink:href="#DejaVuSans-Oblique-47" transform="translate(364.116211 -15.625) scale(0.7)"/>
      <use xlink:href="#DejaVuSans-20" transform="translate(421.09375 0.78125)"/>
      <use xlink:href="#DejaVuSans-3d" transform="translate(452.880859 0.78125)"/>
      <use xlink:href="#DejaVuSans-20" transform="translate(536.669922 0.78125)"/>
      <use xlink:href="#DejaVuSans-20" transform="translate(568.457031 0.78125)"/>
      <use xlink:href="#DejaVuSans-31" transform="translate(600.244141 0.78125)"/>
      <use xlink:href="#DejaVuSans-2e" transform="translate(663.867188 0.78125)"/>
      <use xlink:href="#DejaVuSans-30" transform="translate(695.654297 0.78125)"/>
      <use xlink:href="#DejaVuSans-65" transform="translate(759.277344 0.78125)"/>
      <use xlink:href="#DejaVuSans-2b" transform="translate(820.800781 0.78125)"/>
      <use xlink:href="#DejaVuSans-30" transform="translate(904.589844 0.78125)"/>
      <use xlink:href="#DejaVuSans-30" transform="translate(968.212891 0.78125)"/>
     </g>
    </g>
    <g id="line2d_49">
     <path d="M 67.65 111.100625 
L 72.65 111.100625 
L 77.65 111.100625 
" style="fill: none; stroke: #000000; stroke-width: 2; stroke-linecap: square"/>
    </g>
    <g id="text_26">
     <!-- $I_{DS X1}: V_{G}$ =  1.2e+00 -->
     <g transform="translate(79.65 114.600625) scale(0.12 -0.12)">
      <use xlink:href="#DejaVuSans-Oblique-49" transform="translate(0 0.78125)"/>
      <use xlink:href="#DejaVuSans-Oblique-44" transform="translate(29.492188 -15.625) scale(0.7)"/>
      <use xlink:href="#DejaVuSans-Oblique-53" transform="translate(83.393555 -15.625) scale(0.7)"/>
      <use xlink:href="#DejaVuSans-Oblique-58" transform="translate(127.827148 -15.625) scale(0.7)"/>
      <use xlink:href="#DejaVuSans-31" transform="translate(175.78125 -15.625) scale(0.7)"/>
      <use xlink:href="#DejaVuSans-3a" transform="translate(242.53418 0.78125)"/>
      <use xlink:href="#DejaVuSans-Oblique-56" transform="translate(295.708008 0.78125)"/>
      <use xlink:href="#DejaVuSans-Oblique-47" transform="translate(364.116211 -15.625) scale(0.7)"/>
      <use xlink:href="#DejaVuSans-20" transform="translate(421.09375 0.78125)"/>
      <use xlink:href="#DejaVuSans-3d" transform="translate(452.880859 0.78125)"/>
      <use xlink:href="#DejaVuSans-20" transform="translate(536.669922 0.78125)"/>
      <use xlink:href="#DejaVuSans-20" transform="translate(568.457031 0.78125)"/>
      <use xlink:href="#DejaVuSans-31" transform="translate(600.244141 0.78125)"/>
      <use xlink:href="#DejaVuSans-2e" transform="translate(663.867188 0.78125)"/>
      <use xlink:href="#DejaVuSans-32" transform="translate(690.154297 0.78125)"/>
      <use xlink:href="#DejaVuSans-65" transform="translate(753.777344 0.78125)"/>
      <use xlink:href="#DejaVuSans-2b" transform="translate(815.300781 0.78125)"/>
      <use xlink:href="#DejaVuSans-30" transform="translate(899.089844 0.78125)"/>
      <use xlink:href="#DejaVuSans-30" transform="translate(962.712891 0.78125)"/>
     </g>
    </g>
    <g id="line2d_50">
     <path d="M 67.65 122.714375 
L 72.65 122.714375 
L 77.65 122.714375 
" style="fill: none; stroke: #ff0000; stroke-width: 2; stroke-linecap: square"/>
    </g>
    <g id="text_27">
     <!-- $I_{DS X1}: V_{G}$ =  1.4e+00 -->
     <g transform="translate(79.65 126.214375) scale(0.12 -0.12)">
      <use xlink:href="#DejaVuSans-Oblique-49" transform="translate(0 0.78125)"/>
      <use xlink:href="#DejaVuSans-Oblique-44" transform="translate(29.492188 -15.625) scale(0.7)"/>
      <use xlink:href="#DejaVuSans-Oblique-53" transform="translate(83.393555 -15.625) scale(0.7)"/>
      <use xlink:href="#DejaVuSans-Oblique-58" transform="translate(127.827148 -15.625) scale(0.7)"/>
      <use xlink:href="#DejaVuSans-31" transform="translate(175.78125 -15.625) scale(0.7)"/>
      <use xlink:href="#DejaVuSans-3a" transform="translate(242.53418 0.78125)"/>
      <use xlink:href="#DejaVuSans-Oblique-56" transform="translate(295.708008 0.78125)"/>
      <use xlink:href="#DejaVuSans-Oblique-47" transform="translate(364.116211 -15.625) scale(0.7)"/>
      <use xlink:href="#DejaVuSans-20" transform="translate(421.09375 0.78125)"/>
      <use xlink:href="#DejaVuSans-3d" transform="translate(452.880859 0.78125)"/>
      <use xlink:href="#DejaVuSans-20" transform="translate(536.669922 0.78125)"/>
      <use xlink:href="#DejaVuSans-20" transform="translate(568.457031 0.78125)"/>
      <use xlink:href="#DejaVuSans-31" transform="translate(600.244141 0.78125)"/>
      <use xlink:href="#DejaVuSans-2e" transform="translate(663.867188 0.78125)"/>
      <use xlink:href="#DejaVuSans-34" transform="translate(695.654297 0.78125)"/>
      <use xlink:href="#DejaVuSans-65" transform="translate(759.277344 0.78125)"/>
      <use xlink:href="#DejaVuSans-2b" transform="translate(820.800781 0.78125)"/>
      <use xlink:href="#DejaVuSans-30" transform="translate(904.589844 0.78125)"/>
      <use xlink:href="#DejaVuSans-30" transform="translate(968.212891 0.78125)"/>
     </g>
    </g>
    <g id="line2d_51">
     <path d="M 67.65 134.328125 
L 72.65 134.328125 
L 77.65 134.328125 
" style="fill: none; stroke: #0000ff; stroke-width: 2; stroke-linecap: square"/>
    </g>
    <g id="text_28">
     <!-- $I_{DS X1}: V_{G}$ =  1.6e+00 -->
     <g transform="translate(79.65 137.828125) scale(0.12 -0.12)">
      <use xlink:href="#DejaVuSans-Oblique-49" transform="translate(0 0.78125)"/>
      <use xlink:href="#DejaVuSans-Oblique-44" transform="translate(29.492188 -15.625) scale(0.7)"/>
      <use xlink:href="#DejaVuSans-Oblique-53" transform="translate(83.393555 -15.625) scale(0.7)"/>
      <use xlink:href="#DejaVuSans-Oblique-58" transform="translate(127.827148 -15.625) scale(0.7)"/>
      <use xlink:href="#DejaVuSans-31" transform="translate(175.78125 -15.625) scale(0.7)"/>
      <use xlink:href="#DejaVuSans-3a" transform="translate(242.53418 0.78125)"/>
      <use xlink:href="#DejaVuSans-Oblique-56" transform="translate(295.708008 0.78125)"/>
      <use xlink:href="#DejaVuSans-Oblique-47" transform="translate(364.116211 -15.625) scale(0.7)"/>
      <use xlink:href="#DejaVuSans-20" transform="translate(421.09375 0.78125)"/>
      <use xlink:href="#DejaVuSans-3d" transform="translate(452.880859 0.78125)"/>
      <use xlink:href="#DejaVuSans-20" transform="translate(536.669922 0.78125)"/>
      <use xlink:href="#DejaVuSans-20" transform="translate(568.457031 0.78125)"/>
      <use xlink:href="#DejaVuSans-31" transform="translate(600.244141 0.78125)"/>
      <use xlink:href="#DejaVuSans-2e" transform="translate(663.867188 0.78125)"/>
      <use xlink:href="#DejaVuSans-36" transform="translate(695.654297 0.78125)"/>
      <use xlink:href="#DejaVuSans-65" transform="translate(759.277344 0.78125)"/>
      <use xlink:href="#DejaVuSans-2b" transform="translate(820.800781 0.78125)"/>
      <use xlink:href="#DejaVuSans-30" transform="translate(904.589844 0.78125)"/>
      <use xlink:href="#DejaVuSans-30" transform="translate(968.212891 0.78125)"/>
     </g>
    </g>
    <g id="line2d_52">
     <path d="M 67.65 145.941875 
L 72.65 145.941875 
L 77.65 145.941875 
" style="fill: none; stroke: #008000; stroke-width: 2; stroke-linecap: square"/>
    </g>
    <g id="text_29">
     <!-- $I_{DS X1}: V_{G}$ =  1.8e+00 -->
     <g transform="translate(79.65 149.441875) scale(0.12 -0.12)">
      <use xlink:href="#DejaVuSans-Oblique-49" transform="translate(0 0.78125)"/>
      <use xlink:href="#DejaVuSans-Oblique-44" transform="translate(29.492188 -15.625) scale(0.7)"/>
      <use xlink:href="#DejaVuSans-Oblique-53" transform="translate(83.393555 -15.625) scale(0.7)"/>
      <use xlink:href="#DejaVuSans-Oblique-58" transform="translate(127.827148 -15.625) scale(0.7)"/>
      <use xlink:href="#DejaVuSans-31" transform="translate(175.78125 -15.625) scale(0.7)"/>
      <use xlink:href="#DejaVuSans-3a" transform="translate(242.53418 0.78125)"/>
      <use xlink:href="#DejaVuSans-Oblique-56" transform="translate(295.708008 0.78125)"/>
      <use xlink:href="#DejaVuSans-Oblique-47" transform="translate(364.116211 -15.625) scale(0.7)"/>
      <use xlink:href="#DejaVuSans-20" transform="translate(421.09375 0.78125)"/>
      <use xlink:href="#DejaVuSans-3d" transform="translate(452.880859 0.78125)"/>
      <use xlink:href="#DejaVuSans-20" transform="translate(536.669922 0.78125)"/>
      <use xlink:href="#DejaVuSans-20" transform="translate(568.457031 0.78125)"/>
      <use xlink:href="#DejaVuSans-31" transform="translate(600.244141 0.78125)"/>
      <use xlink:href="#DejaVuSans-2e" transform="translate(663.867188 0.78125)"/>
      <use xlink:href="#DejaVuSans-38" transform="translate(693.029297 0.78125)"/>
      <use xlink:href="#DejaVuSans-65" transform="translate(756.652344 0.78125)"/>
      <use xlink:href="#DejaVuSans-2b" transform="translate(818.175781 0.78125)"/>
      <use xlink:href="#DejaVuSans-30" transform="translate(901.964844 0.78125)"/>
      <use xlink:href="#DejaVuSans-30" transform="translate(965.587891 0.78125)"/>
     </g>
    </g>
   </g>
  </g>
 </g>
 <defs>
  <clipPath id="pb447988863">
   <rect x="60.65" y="28.8" width="432.55" height="280.3"/>
  </clipPath>
 </defs>
</svg>
