<?xml version="1.0" encoding="utf-8" standalone="no"?>
<!DOCTYPE svg PUBLIC "-//W3C//DTD SVG 1.1//EN"
  "http://www.w3.org/Graphics/SVG/1.1/DTD/svg11.dtd">
<svg xmlns:xlink="http://www.w3.org/1999/xlink" width="504pt" height="360pt" viewBox="0 0 504 360" xmlns="http://www.w3.org/2000/svg" version="1.1">
 <metadata>
  <rdf:RDF xmlns:dc="http://purl.org/dc/elements/1.1/" xmlns:cc="http://creativecommons.org/ns#" xmlns:rdf="http://www.w3.org/1999/02/22-rdf-syntax-ns#">
   <cc:Work>
    <dc:type rdf:resource="http://purl.org/dc/dcmitype/StillImage"/>
    <dc:date>2024-10-20T16:56:38.579373</dc:date>
    <dc:format>image/svg+xml</dc:format>
    <dc:creator>
     <cc:Agent>
      <dc:title>Matplotlib v3.7.2, https://matplotlib.org/</dc:title>
     </cc:Agent>
    </dc:creator>
   </cc:Work>
  </rdf:RDF>
 </metadata>
 <defs>
  <style type="text/css">*{stroke-linejoin: round; stroke-linecap: butt}</style>
 </defs>
 <g id="figure_1">
  <g id="patch_1">
   <path d="M 0 360 
L 504 360 
L 504 0 
L 0 0 
z
" style="fill: #ffffff"/>
  </g>
  <g id="axes_1">
   <g id="patch_2">
    <path d="M 63 315 
L 453.6 315 
L 453.6 43.2 
L 63 43.2 
z
" style="fill: #ffffff"/>
   </g>
   <g id="matplotlib.axis_1">
    <g id="xtick_1">
     <g id="line2d_1">
      <path d="M 80.754545 315 
L 80.754545 43.2 
" clip-path="url(#p997d117cda)" style="fill: none; stroke: #808080; stroke-width: 0.8; stroke-linecap: square"/>
     </g>
     <g id="line2d_2">
      <defs>
       <path id="m1f8ecd2c24" d="M 0 0 
L 0 3.5 
" style="stroke: #000000; stroke-width: 0.8"/>
      </defs>
      <g>
       <use xlink:href="#m1f8ecd2c24" x="80.754545" y="315" style="stroke: #000000; stroke-width: 0.8"/>
      </g>
     </g>
     <g id="text_1">
      <!-- $\mathdefault{10^{-1}}$ -->
      <g transform="translate(66.654545 331.118125) scale(0.12 -0.12)">
       <defs>
        <path id="DejaVuSans-31" d="M 794 531 
L 1825 531 
L 1825 4091 
L 703 3866 
L 703 4441 
L 1819 4666 
L 2450 4666 
L 2450 531 
L 3481 531 
L 3481 0 
L 794 0 
L 794 531 
z
" transform="scale(0.015625)"/>
        <path id="DejaVuSans-30" d="M 2034 4250 
Q 1547 4250 1301 3770 
Q 1056 3291 1056 2328 
Q 1056 1369 1301 889 
Q 1547 409 2034 409 
Q 2525 409 2770 889 
Q 3016 1369 3016 2328 
Q 3016 3291 2770 3770 
Q 2525 4250 2034 4250 
z
M 2034 4750 
Q 2819 4750 3233 4129 
Q 3647 3509 3647 2328 
Q 3647 1150 3233 529 
Q 2819 -91 2034 -91 
Q 1250 -91 836 529 
Q 422 1150 422 2328 
Q 422 3509 836 4129 
Q 1250 4750 2034 4750 
z
" transform="scale(0.015625)"/>
        <path id="DejaVuSans-2212" d="M 678 2272 
L 4684 2272 
L 4684 1741 
L 678 1741 
L 678 2272 
z
" transform="scale(0.015625)"/>
       </defs>
       <use xlink:href="#DejaVuSans-31" transform="translate(0 0.684375)"/>
       <use xlink:href="#DejaVuSans-30" transform="translate(63.623047 0.684375)"/>
       <use xlink:href="#DejaVuSans-2212" transform="translate(128.203125 38.965625) scale(0.7)"/>
       <use xlink:href="#DejaVuSans-31" transform="translate(186.855469 38.965625) scale(0.7)"/>
      </g>
     </g>
    </g>
    <g id="xtick_2">
     <g id="line2d_3">
      <path d="M 199.118182 315 
L 199.118182 43.2 
" clip-path="url(#p997d117cda)" style="fill: none; stroke: #808080; stroke-width: 0.8; stroke-linecap: square"/>
     </g>
     <g id="line2d_4">
      <g>
       <use xlink:href="#m1f8ecd2c24" x="199.118182" y="315" style="stroke: #000000; stroke-width: 0.8"/>
      </g>
     </g>
     <g id="text_2">
      <!-- $\mathdefault{10^{0}}$ -->
      <g transform="translate(188.558182 331.118125) scale(0.12 -0.12)">
       <use xlink:href="#DejaVuSans-31" transform="translate(0 0.765625)"/>
       <use xlink:href="#DejaVuSans-30" transform="translate(63.623047 0.765625)"/>
       <use xlink:href="#DejaVuSans-30" transform="translate(128.203125 39.046875) scale(0.7)"/>
      </g>
     </g>
    </g>
    <g id="xtick_3">
     <g id="line2d_5">
      <path d="M 317.481818 315 
L 317.481818 43.2 
" clip-path="url(#p997d117cda)" style="fill: none; stroke: #808080; stroke-width: 0.8; stroke-linecap: square"/>
     </g>
     <g id="line2d_6">
      <g>
       <use xlink:href="#m1f8ecd2c24" x="317.481818" y="315" style="stroke: #000000; stroke-width: 0.8"/>
      </g>
     </g>
     <g id="text_3">
      <!-- $\mathdefault{10^{1}}$ -->
      <g transform="translate(306.921818 331.118125) scale(0.12 -0.12)">
       <use xlink:href="#DejaVuSans-31" transform="translate(0 0.684375)"/>
       <use xlink:href="#DejaVuSans-30" transform="translate(63.623047 0.684375)"/>
       <use xlink:href="#DejaVuSans-31" transform="translate(128.203125 38.965625) scale(0.7)"/>
      </g>
     </g>
    </g>
    <g id="xtick_4">
     <g id="line2d_7">
      <path d="M 435.845455 315 
L 435.845455 43.2 
" clip-path="url(#p997d117cda)" style="fill: none; stroke: #808080; stroke-width: 0.8; stroke-linecap: square"/>
     </g>
     <g id="line2d_8">
      <g>
       <use xlink:href="#m1f8ecd2c24" x="435.845455" y="315" style="stroke: #000000; stroke-width: 0.8"/>
      </g>
     </g>
     <g id="text_4">
      <!-- $\mathdefault{10^{2}}$ -->
      <g transform="translate(425.285455 331.118125) scale(0.12 -0.12)">
       <defs>
        <path id="DejaVuSans-32" d="M 1228 531 
L 3431 531 
L 3431 0 
L 469 0 
L 469 531 
Q 828 903 1448 1529 
Q 2069 2156 2228 2338 
Q 2531 2678 2651 2914 
Q 2772 3150 2772 3378 
Q 2772 3750 2511 3984 
Q 2250 4219 1831 4219 
Q 1534 4219 1204 4116 
Q 875 4013 500 3803 
L 500 4441 
Q 881 4594 1212 4672 
Q 1544 4750 1819 4750 
Q 2544 4750 2975 4387 
Q 3406 4025 3406 3419 
Q 3406 3131 3298 2873 
Q 3191 2616 2906 2266 
Q 2828 2175 2409 1742 
Q 1991 1309 1228 531 
z
" transform="scale(0.015625)"/>
       </defs>
       <use xlink:href="#DejaVuSans-31" transform="translate(0 0.765625)"/>
       <use xlink:href="#DejaVuSans-30" transform="translate(63.623047 0.765625)"/>
       <use xlink:href="#DejaVuSans-32" transform="translate(128.203125 39.046875) scale(0.7)"/>
      </g>
     </g>
    </g>
    <g id="xtick_5">
     <g id="line2d_9">
      <path d="M 69.283924 315 
L 69.283924 43.2 
" clip-path="url(#p997d117cda)" style="fill: none; stroke-dasharray: 0.8,1.32; stroke-dashoffset: 0; stroke: #808080; stroke-width: 0.8"/>
     </g>
     <g id="line2d_10">
      <defs>
       <path id="m8b66fa4408" d="M 0 0 
L 0 2 
" style="stroke: #000000; stroke-width: 0.6"/>
      </defs>
      <g>
       <use xlink:href="#m8b66fa4408" x="69.283924" y="315" style="stroke: #000000; stroke-width: 0.6"/>
      </g>
     </g>
    </g>
    <g id="xtick_6">
     <g id="line2d_11">
      <path d="M 75.338522 315 
L 75.338522 43.2 
" clip-path="url(#p997d117cda)" style="fill: none; stroke-dasharray: 0.8,1.32; stroke-dashoffset: 0; stroke: #808080; stroke-width: 0.8"/>
     </g>
     <g id="line2d_12">
      <g>
       <use xlink:href="#m8b66fa4408" x="75.338522" y="315" style="stroke: #000000; stroke-width: 0.6"/>
      </g>
     </g>
    </g>
    <g id="xtick_7">
     <g id="line2d_13">
      <path d="M 116.38555 315 
L 116.38555 43.2 
" clip-path="url(#p997d117cda)" style="fill: none; stroke-dasharray: 0.8,1.32; stroke-dashoffset: 0; stroke: #808080; stroke-width: 0.8"/>
     </g>
     <g id="line2d_14">
      <g>
       <use xlink:href="#m8b66fa4408" x="116.38555" y="315" style="stroke: #000000; stroke-width: 0.6"/>
      </g>
     </g>
    </g>
    <g id="xtick_8">
     <g id="line2d_15">
      <path d="M 137.228352 315 
L 137.228352 43.2 
" clip-path="url(#p997d117cda)" style="fill: none; stroke-dasharray: 0.8,1.32; stroke-dashoffset: 0; stroke: #808080; stroke-width: 0.8"/>
     </g>
     <g id="line2d_16">
      <g>
       <use xlink:href="#m8b66fa4408" x="137.228352" y="315" style="stroke: #000000; stroke-width: 0.6"/>
      </g>
     </g>
    </g>
    <g id="xtick_9">
     <g id="line2d_17">
      <path d="M 152.016555 315 
L 152.016555 43.2 
" clip-path="url(#p997d117cda)" style="fill: none; stroke-dasharray: 0.8,1.32; stroke-dashoffset: 0; stroke: #808080; stroke-width: 0.8"/>
     </g>
     <g id="line2d_18">
      <g>
       <use xlink:href="#m8b66fa4408" x="152.016555" y="315" style="stroke: #000000; stroke-width: 0.6"/>
      </g>
     </g>
    </g>
    <g id="xtick_10">
     <g id="line2d_19">
      <path d="M 163.487177 315 
L 163.487177 43.2 
" clip-path="url(#p997d117cda)" style="fill: none; stroke-dasharray: 0.8,1.32; stroke-dashoffset: 0; stroke: #808080; stroke-width: 0.8"/>
     </g>
     <g id="line2d_20">
      <g>
       <use xlink:href="#m8b66fa4408" x="163.487177" y="315" style="stroke: #000000; stroke-width: 0.6"/>
      </g>
     </g>
    </g>
    <g id="xtick_11">
     <g id="line2d_21">
      <path d="M 172.859357 315 
L 172.859357 43.2 
" clip-path="url(#p997d117cda)" style="fill: none; stroke-dasharray: 0.8,1.32; stroke-dashoffset: 0; stroke: #808080; stroke-width: 0.8"/>
     </g>
     <g id="line2d_22">
      <g>
       <use xlink:href="#m8b66fa4408" x="172.859357" y="315" style="stroke: #000000; stroke-width: 0.6"/>
      </g>
     </g>
    </g>
    <g id="xtick_12">
     <g id="line2d_23">
      <path d="M 180.783423 315 
L 180.783423 43.2 
" clip-path="url(#p997d117cda)" style="fill: none; stroke-dasharray: 0.8,1.32; stroke-dashoffset: 0; stroke: #808080; stroke-width: 0.8"/>
     </g>
     <g id="line2d_24">
      <g>
       <use xlink:href="#m8b66fa4408" x="180.783423" y="315" style="stroke: #000000; stroke-width: 0.6"/>
      </g>
     </g>
    </g>
    <g id="xtick_13">
     <g id="line2d_25">
      <path d="M 187.64756 315 
L 187.64756 43.2 
" clip-path="url(#p997d117cda)" style="fill: none; stroke-dasharray: 0.8,1.32; stroke-dashoffset: 0; stroke: #808080; stroke-width: 0.8"/>
     </g>
     <g id="line2d_26">
      <g>
       <use xlink:href="#m8b66fa4408" x="187.64756" y="315" style="stroke: #000000; stroke-width: 0.6"/>
      </g>
     </g>
    </g>
    <g id="xtick_14">
     <g id="line2d_27">
      <path d="M 193.702159 315 
L 193.702159 43.2 
" clip-path="url(#p997d117cda)" style="fill: none; stroke-dasharray: 0.8,1.32; stroke-dashoffset: 0; stroke: #808080; stroke-width: 0.8"/>
     </g>
     <g id="line2d_28">
      <g>
       <use xlink:href="#m8b66fa4408" x="193.702159" y="315" style="stroke: #000000; stroke-width: 0.6"/>
      </g>
     </g>
    </g>
    <g id="xtick_15">
     <g id="line2d_29">
      <path d="M 234.749187 315 
L 234.749187 43.2 
" clip-path="url(#p997d117cda)" style="fill: none; stroke-dasharray: 0.8,1.32; stroke-dashoffset: 0; stroke: #808080; stroke-width: 0.8"/>
     </g>
     <g id="line2d_30">
      <g>
       <use xlink:href="#m8b66fa4408" x="234.749187" y="315" style="stroke: #000000; stroke-width: 0.6"/>
      </g>
     </g>
    </g>
    <g id="xtick_16">
     <g id="line2d_31">
      <path d="M 255.591989 315 
L 255.591989 43.2 
" clip-path="url(#p997d117cda)" style="fill: none; stroke-dasharray: 0.8,1.32; stroke-dashoffset: 0; stroke: #808080; stroke-width: 0.8"/>
     </g>
     <g id="line2d_32">
      <g>
       <use xlink:href="#m8b66fa4408" x="255.591989" y="315" style="stroke: #000000; stroke-width: 0.6"/>
      </g>
     </g>
    </g>
    <g id="xtick_17">
     <g id="line2d_33">
      <path d="M 270.380192 315 
L 270.380192 43.2 
" clip-path="url(#p997d117cda)" style="fill: none; stroke-dasharray: 0.8,1.32; stroke-dashoffset: 0; stroke: #808080; stroke-width: 0.8"/>
     </g>
     <g id="line2d_34">
      <g>
       <use xlink:href="#m8b66fa4408" x="270.380192" y="315" style="stroke: #000000; stroke-width: 0.6"/>
      </g>
     </g>
    </g>
    <g id="xtick_18">
     <g id="line2d_35">
      <path d="M 281.850813 315 
L 281.850813 43.2 
" clip-path="url(#p997d117cda)" style="fill: none; stroke-dasharray: 0.8,1.32; stroke-dashoffset: 0; stroke: #808080; stroke-width: 0.8"/>
     </g>
     <g id="line2d_36">
      <g>
       <use xlink:href="#m8b66fa4408" x="281.850813" y="315" style="stroke: #000000; stroke-width: 0.6"/>
      </g>
     </g>
    </g>
    <g id="xtick_19">
     <g id="line2d_37">
      <path d="M 291.222993 315 
L 291.222993 43.2 
" clip-path="url(#p997d117cda)" style="fill: none; stroke-dasharray: 0.8,1.32; stroke-dashoffset: 0; stroke: #808080; stroke-width: 0.8"/>
     </g>
     <g id="line2d_38">
      <g>
       <use xlink:href="#m8b66fa4408" x="291.222993" y="315" style="stroke: #000000; stroke-width: 0.6"/>
      </g>
     </g>
    </g>
    <g id="xtick_20">
     <g id="line2d_39">
      <path d="M 299.147059 315 
L 299.147059 43.2 
" clip-path="url(#p997d117cda)" style="fill: none; stroke-dasharray: 0.8,1.32; stroke-dashoffset: 0; stroke: #808080; stroke-width: 0.8"/>
     </g>
     <g id="line2d_40">
      <g>
       <use xlink:href="#m8b66fa4408" x="299.147059" y="315" style="stroke: #000000; stroke-width: 0.6"/>
      </g>
     </g>
    </g>
    <g id="xtick_21">
     <g id="line2d_41">
      <path d="M 306.011197 315 
L 306.011197 43.2 
" clip-path="url(#p997d117cda)" style="fill: none; stroke-dasharray: 0.8,1.32; stroke-dashoffset: 0; stroke: #808080; stroke-width: 0.8"/>
     </g>
     <g id="line2d_42">
      <g>
       <use xlink:href="#m8b66fa4408" x="306.011197" y="315" style="stroke: #000000; stroke-width: 0.6"/>
      </g>
     </g>
    </g>
    <g id="xtick_22">
     <g id="line2d_43">
      <path d="M 312.065795 315 
L 312.065795 43.2 
" clip-path="url(#p997d117cda)" style="fill: none; stroke-dasharray: 0.8,1.32; stroke-dashoffset: 0; stroke: #808080; stroke-width: 0.8"/>
     </g>
     <g id="line2d_44">
      <g>
       <use xlink:href="#m8b66fa4408" x="312.065795" y="315" style="stroke: #000000; stroke-width: 0.6"/>
      </g>
     </g>
    </g>
    <g id="xtick_23">
     <g id="line2d_45">
      <path d="M 353.112823 315 
L 353.112823 43.2 
" clip-path="url(#p997d117cda)" style="fill: none; stroke-dasharray: 0.8,1.32; stroke-dashoffset: 0; stroke: #808080; stroke-width: 0.8"/>
     </g>
     <g id="line2d_46">
      <g>
       <use xlink:href="#m8b66fa4408" x="353.112823" y="315" style="stroke: #000000; stroke-width: 0.6"/>
      </g>
     </g>
    </g>
    <g id="xtick_24">
     <g id="line2d_47">
      <path d="M 373.955625 315 
L 373.955625 43.2 
" clip-path="url(#p997d117cda)" style="fill: none; stroke-dasharray: 0.8,1.32; stroke-dashoffset: 0; stroke: #808080; stroke-width: 0.8"/>
     </g>
     <g id="line2d_48">
      <g>
       <use xlink:href="#m8b66fa4408" x="373.955625" y="315" style="stroke: #000000; stroke-width: 0.6"/>
      </g>
     </g>
    </g>
    <g id="xtick_25">
     <g id="line2d_49">
      <path d="M 388.743828 315 
L 388.743828 43.2 
" clip-path="url(#p997d117cda)" style="fill: none; stroke-dasharray: 0.8,1.32; stroke-dashoffset: 0; stroke: #808080; stroke-width: 0.8"/>
     </g>
     <g id="line2d_50">
      <g>
       <use xlink:href="#m8b66fa4408" x="388.743828" y="315" style="stroke: #000000; stroke-width: 0.6"/>
      </g>
     </g>
    </g>
    <g id="xtick_26">
     <g id="line2d_51">
      <path d="M 400.21445 315 
L 400.21445 43.2 
" clip-path="url(#p997d117cda)" style="fill: none; stroke-dasharray: 0.8,1.32; stroke-dashoffset: 0; stroke: #808080; stroke-width: 0.8"/>
     </g>
     <g id="line2d_52">
      <g>
       <use xlink:href="#m8b66fa4408" x="400.21445" y="315" style="stroke: #000000; stroke-width: 0.6"/>
      </g>
     </g>
    </g>
    <g id="xtick_27">
     <g id="line2d_53">
      <path d="M 409.58663 315 
L 409.58663 43.2 
" clip-path="url(#p997d117cda)" style="fill: none; stroke-dasharray: 0.8,1.32; stroke-dashoffset: 0; stroke: #808080; stroke-width: 0.8"/>
     </g>
     <g id="line2d_54">
      <g>
       <use xlink:href="#m8b66fa4408" x="409.58663" y="315" style="stroke: #000000; stroke-width: 0.6"/>
      </g>
     </g>
    </g>
    <g id="xtick_28">
     <g id="line2d_55">
      <path d="M 417.510695 315 
L 417.510695 43.2 
" clip-path="url(#p997d117cda)" style="fill: none; stroke-dasharray: 0.8,1.32; stroke-dashoffset: 0; stroke: #808080; stroke-width: 0.8"/>
     </g>
     <g id="line2d_56">
      <g>
       <use xlink:href="#m8b66fa4408" x="417.510695" y="315" style="stroke: #000000; stroke-width: 0.6"/>
      </g>
     </g>
    </g>
    <g id="xtick_29">
     <g id="line2d_57">
      <path d="M 424.374833 315 
L 424.374833 43.2 
" clip-path="url(#p997d117cda)" style="fill: none; stroke-dasharray: 0.8,1.32; stroke-dashoffset: 0; stroke: #808080; stroke-width: 0.8"/>
     </g>
     <g id="line2d_58">
      <g>
       <use xlink:href="#m8b66fa4408" x="424.374833" y="315" style="stroke: #000000; stroke-width: 0.6"/>
      </g>
     </g>
    </g>
    <g id="xtick_30">
     <g id="line2d_59">
      <path d="M 430.429432 315 
L 430.429432 43.2 
" clip-path="url(#p997d117cda)" style="fill: none; stroke-dasharray: 0.8,1.32; stroke-dashoffset: 0; stroke: #808080; stroke-width: 0.8"/>
     </g>
     <g id="line2d_60">
      <g>
       <use xlink:href="#m8b66fa4408" x="430.429432" y="315" style="stroke: #000000; stroke-width: 0.6"/>
      </g>
     </g>
    </g>
    <g id="text_5">
     <!-- frequency [GHz] -->
     <g transform="translate(209.309063 346.731875) scale(0.12 -0.12)">
      <defs>
       <path id="DejaVuSans-66" d="M 2375 4863 
L 2375 4384 
L 1825 4384 
Q 1516 4384 1395 4259 
Q 1275 4134 1275 3809 
L 1275 3500 
L 2222 3500 
L 2222 3053 
L 1275 3053 
L 1275 0 
L 697 0 
L 697 3053 
L 147 3053 
L 147 3500 
L 697 3500 
L 697 3744 
Q 697 4328 969 4595 
Q 1241 4863 1831 4863 
L 2375 4863 
z
" transform="scale(0.015625)"/>
       <path id="DejaVuSans-72" d="M 2631 2963 
Q 2534 3019 2420 3045 
Q 2306 3072 2169 3072 
Q 1681 3072 1420 2755 
Q 1159 2438 1159 1844 
L 1159 0 
L 581 0 
L 581 3500 
L 1159 3500 
L 1159 2956 
Q 1341 3275 1631 3429 
Q 1922 3584 2338 3584 
Q 2397 3584 2469 3576 
Q 2541 3569 2628 3553 
L 2631 2963 
z
" transform="scale(0.015625)"/>
       <path id="DejaVuSans-65" d="M 3597 1894 
L 3597 1613 
L 953 1613 
Q 991 1019 1311 708 
Q 1631 397 2203 397 
Q 2534 397 2845 478 
Q 3156 559 3463 722 
L 3463 178 
Q 3153 47 2828 -22 
Q 2503 -91 2169 -91 
Q 1331 -91 842 396 
Q 353 884 353 1716 
Q 353 2575 817 3079 
Q 1281 3584 2069 3584 
Q 2775 3584 3186 3129 
Q 3597 2675 3597 1894 
z
M 3022 2063 
Q 3016 2534 2758 2815 
Q 2500 3097 2075 3097 
Q 1594 3097 1305 2825 
Q 1016 2553 972 2059 
L 3022 2063 
z
" transform="scale(0.015625)"/>
       <path id="DejaVuSans-71" d="M 947 1747 
Q 947 1113 1208 752 
Q 1469 391 1925 391 
Q 2381 391 2643 752 
Q 2906 1113 2906 1747 
Q 2906 2381 2643 2742 
Q 2381 3103 1925 3103 
Q 1469 3103 1208 2742 
Q 947 2381 947 1747 
z
M 2906 525 
Q 2725 213 2448 61 
Q 2172 -91 1784 -91 
Q 1150 -91 751 415 
Q 353 922 353 1747 
Q 353 2572 751 3078 
Q 1150 3584 1784 3584 
Q 2172 3584 2448 3432 
Q 2725 3281 2906 2969 
L 2906 3500 
L 3481 3500 
L 3481 -1331 
L 2906 -1331 
L 2906 525 
z
" transform="scale(0.015625)"/>
       <path id="DejaVuSans-75" d="M 544 1381 
L 544 3500 
L 1119 3500 
L 1119 1403 
Q 1119 906 1312 657 
Q 1506 409 1894 409 
Q 2359 409 2629 706 
Q 2900 1003 2900 1516 
L 2900 3500 
L 3475 3500 
L 3475 0 
L 2900 0 
L 2900 538 
Q 2691 219 2414 64 
Q 2138 -91 1772 -91 
Q 1169 -91 856 284 
Q 544 659 544 1381 
z
M 1991 3584 
L 1991 3584 
z
" transform="scale(0.015625)"/>
       <path id="DejaVuSans-6e" d="M 3513 2113 
L 3513 0 
L 2938 0 
L 2938 2094 
Q 2938 2591 2744 2837 
Q 2550 3084 2163 3084 
Q 1697 3084 1428 2787 
Q 1159 2491 1159 1978 
L 1159 0 
L 581 0 
L 581 3500 
L 1159 3500 
L 1159 2956 
Q 1366 3272 1645 3428 
Q 1925 3584 2291 3584 
Q 2894 3584 3203 3211 
Q 3513 2838 3513 2113 
z
" transform="scale(0.015625)"/>
       <path id="DejaVuSans-63" d="M 3122 3366 
L 3122 2828 
Q 2878 2963 2633 3030 
Q 2388 3097 2138 3097 
Q 1578 3097 1268 2742 
Q 959 2388 959 1747 
Q 959 1106 1268 751 
Q 1578 397 2138 397 
Q 2388 397 2633 464 
Q 2878 531 3122 666 
L 3122 134 
Q 2881 22 2623 -34 
Q 2366 -91 2075 -91 
Q 1284 -91 818 406 
Q 353 903 353 1747 
Q 353 2603 823 3093 
Q 1294 3584 2113 3584 
Q 2378 3584 2631 3529 
Q 2884 3475 3122 3366 
z
" transform="scale(0.015625)"/>
       <path id="DejaVuSans-79" d="M 2059 -325 
Q 1816 -950 1584 -1140 
Q 1353 -1331 966 -1331 
L 506 -1331 
L 506 -850 
L 844 -850 
Q 1081 -850 1212 -737 
Q 1344 -625 1503 -206 
L 1606 56 
L 191 3500 
L 800 3500 
L 1894 763 
L 2988 3500 
L 3597 3500 
L 2059 -325 
z
" transform="scale(0.015625)"/>
       <path id="DejaVuSans-20" transform="scale(0.015625)"/>
       <path id="DejaVuSans-5b" d="M 550 4863 
L 1875 4863 
L 1875 4416 
L 1125 4416 
L 1125 -397 
L 1875 -397 
L 1875 -844 
L 550 -844 
L 550 4863 
z
" transform="scale(0.015625)"/>
       <path id="DejaVuSans-47" d="M 3809 666 
L 3809 1919 
L 2778 1919 
L 2778 2438 
L 4434 2438 
L 4434 434 
Q 4069 175 3628 42 
Q 3188 -91 2688 -91 
Q 1594 -91 976 548 
Q 359 1188 359 2328 
Q 359 3472 976 4111 
Q 1594 4750 2688 4750 
Q 3144 4750 3555 4637 
Q 3966 4525 4313 4306 
L 4313 3634 
Q 3963 3931 3569 4081 
Q 3175 4231 2741 4231 
Q 1884 4231 1454 3753 
Q 1025 3275 1025 2328 
Q 1025 1384 1454 906 
Q 1884 428 2741 428 
Q 3075 428 3337 486 
Q 3600 544 3809 666 
z
" transform="scale(0.015625)"/>
       <path id="DejaVuSans-48" d="M 628 4666 
L 1259 4666 
L 1259 2753 
L 3553 2753 
L 3553 4666 
L 4184 4666 
L 4184 0 
L 3553 0 
L 3553 2222 
L 1259 2222 
L 1259 0 
L 628 0 
L 628 4666 
z
" transform="scale(0.015625)"/>
       <path id="DejaVuSans-7a" d="M 353 3500 
L 3084 3500 
L 3084 2975 
L 922 459 
L 3084 459 
L 3084 0 
L 275 0 
L 275 525 
L 2438 3041 
L 353 3041 
L 353 3500 
z
" transform="scale(0.015625)"/>
       <path id="DejaVuSans-5d" d="M 1947 4863 
L 1947 -844 
L 622 -844 
L 622 -397 
L 1369 -397 
L 1369 4416 
L 622 4416 
L 622 4863 
L 1947 4863 
z
" transform="scale(0.015625)"/>
      </defs>
      <use xlink:href="#DejaVuSans-66"/>
      <use xlink:href="#DejaVuSans-72" x="35.205078"/>
      <use xlink:href="#DejaVuSans-65" x="74.068359"/>
      <use xlink:href="#DejaVuSans-71" x="135.591797"/>
      <use xlink:href="#DejaVuSans-75" x="199.068359"/>
      <use xlink:href="#DejaVuSans-65" x="262.447266"/>
      <use xlink:href="#DejaVuSans-6e" x="323.970703"/>
      <use xlink:href="#DejaVuSans-63" x="387.349609"/>
      <use xlink:href="#DejaVuSans-79" x="442.330078"/>
      <use xlink:href="#DejaVuSans-20" x="501.509766"/>
      <use xlink:href="#DejaVuSans-5b" x="533.296875"/>
      <use xlink:href="#DejaVuSans-47" x="572.310547"/>
      <use xlink:href="#DejaVuSans-48" x="649.800781"/>
      <use xlink:href="#DejaVuSans-7a" x="724.996094"/>
      <use xlink:href="#DejaVuSans-5d" x="777.486328"/>
     </g>
    </g>
   </g>
   <g id="matplotlib.axis_2">
    <g id="ytick_1">
     <g id="line2d_61">
      <path d="M 63 285.087933 
L 453.6 285.087933 
" clip-path="url(#p997d117cda)" style="fill: none; stroke: #808080; stroke-width: 0.8; stroke-linecap: square"/>
     </g>
     <g id="line2d_62">
      <defs>
       <path id="m9c99ff43b7" d="M 0 0 
L -3.5 0 
" style="stroke: #000000; stroke-width: 0.8"/>
      </defs>
      <g>
       <use xlink:href="#m9c99ff43b7" x="63" y="285.087933" style="stroke: #000000; stroke-width: 0.8"/>
      </g>
     </g>
     <g id="text_6">
      <!-- −140 -->
      <g transform="translate(23.039375 289.646996) scale(0.12 -0.12)">
       <defs>
        <path id="DejaVuSans-34" d="M 2419 4116 
L 825 1625 
L 2419 1625 
L 2419 4116 
z
M 2253 4666 
L 3047 4666 
L 3047 1625 
L 3713 1625 
L 3713 1100 
L 3047 1100 
L 3047 0 
L 2419 0 
L 2419 1100 
L 313 1100 
L 313 1709 
L 2253 4666 
z
" transform="scale(0.015625)"/>
       </defs>
       <use xlink:href="#DejaVuSans-2212"/>
       <use xlink:href="#DejaVuSans-31" x="83.789062"/>
       <use xlink:href="#DejaVuSans-34" x="147.412109"/>
       <use xlink:href="#DejaVuSans-30" x="211.035156"/>
      </g>
     </g>
    </g>
    <g id="ytick_2">
     <g id="line2d_63">
      <path d="M 63 251.62462 
L 453.6 251.62462 
" clip-path="url(#p997d117cda)" style="fill: none; stroke: #808080; stroke-width: 0.8; stroke-linecap: square"/>
     </g>
     <g id="line2d_64">
      <g>
       <use xlink:href="#m9c99ff43b7" x="63" y="251.62462" style="stroke: #000000; stroke-width: 0.8"/>
      </g>
     </g>
     <g id="text_7">
      <!-- −120 -->
      <g transform="translate(23.039375 256.183683) scale(0.12 -0.12)">
       <use xlink:href="#DejaVuSans-2212"/>
       <use xlink:href="#DejaVuSans-31" x="83.789062"/>
       <use xlink:href="#DejaVuSans-32" x="147.412109"/>
       <use xlink:href="#DejaVuSans-30" x="211.035156"/>
      </g>
     </g>
    </g>
    <g id="ytick_3">
     <g id="line2d_65">
      <path d="M 63 218.161307 
L 453.6 218.161307 
" clip-path="url(#p997d117cda)" style="fill: none; stroke: #808080; stroke-width: 0.8; stroke-linecap: square"/>
     </g>
     <g id="line2d_66">
      <g>
       <use xlink:href="#m9c99ff43b7" x="63" y="218.161307" style="stroke: #000000; stroke-width: 0.8"/>
      </g>
     </g>
     <g id="text_8">
      <!-- −100 -->
      <g transform="translate(23.039375 222.72037) scale(0.12 -0.12)">
       <use xlink:href="#DejaVuSans-2212"/>
       <use xlink:href="#DejaVuSans-31" x="83.789062"/>
       <use xlink:href="#DejaVuSans-30" x="147.412109"/>
       <use xlink:href="#DejaVuSans-30" x="211.035156"/>
      </g>
     </g>
    </g>
    <g id="ytick_4">
     <g id="line2d_67">
      <path d="M 63 184.697995 
L 453.6 184.697995 
" clip-path="url(#p997d117cda)" style="fill: none; stroke: #808080; stroke-width: 0.8; stroke-linecap: square"/>
     </g>
     <g id="line2d_68">
      <g>
       <use xlink:href="#m9c99ff43b7" x="63" y="184.697995" style="stroke: #000000; stroke-width: 0.8"/>
      </g>
     </g>
     <g id="text_9">
      <!-- −80 -->
      <g transform="translate(30.674375 189.257057) scale(0.12 -0.12)">
       <defs>
        <path id="DejaVuSans-38" d="M 2034 2216 
Q 1584 2216 1326 1975 
Q 1069 1734 1069 1313 
Q 1069 891 1326 650 
Q 1584 409 2034 409 
Q 2484 409 2743 651 
Q 3003 894 3003 1313 
Q 3003 1734 2745 1975 
Q 2488 2216 2034 2216 
z
M 1403 2484 
Q 997 2584 770 2862 
Q 544 3141 544 3541 
Q 544 4100 942 4425 
Q 1341 4750 2034 4750 
Q 2731 4750 3128 4425 
Q 3525 4100 3525 3541 
Q 3525 3141 3298 2862 
Q 3072 2584 2669 2484 
Q 3125 2378 3379 2068 
Q 3634 1759 3634 1313 
Q 3634 634 3220 271 
Q 2806 -91 2034 -91 
Q 1263 -91 848 271 
Q 434 634 434 1313 
Q 434 1759 690 2068 
Q 947 2378 1403 2484 
z
M 1172 3481 
Q 1172 3119 1398 2916 
Q 1625 2713 2034 2713 
Q 2441 2713 2670 2916 
Q 2900 3119 2900 3481 
Q 2900 3844 2670 4047 
Q 2441 4250 2034 4250 
Q 1625 4250 1398 4047 
Q 1172 3844 1172 3481 
z
" transform="scale(0.015625)"/>
       </defs>
       <use xlink:href="#DejaVuSans-2212"/>
       <use xlink:href="#DejaVuSans-38" x="83.789062"/>
       <use xlink:href="#DejaVuSans-30" x="147.412109"/>
      </g>
     </g>
    </g>
    <g id="ytick_5">
     <g id="line2d_69">
      <path d="M 63 151.234682 
L 453.6 151.234682 
" clip-path="url(#p997d117cda)" style="fill: none; stroke: #808080; stroke-width: 0.8; stroke-linecap: square"/>
     </g>
     <g id="line2d_70">
      <g>
       <use xlink:href="#m9c99ff43b7" x="63" y="151.234682" style="stroke: #000000; stroke-width: 0.8"/>
      </g>
     </g>
     <g id="text_10">
      <!-- −60 -->
      <g transform="translate(30.674375 155.793744) scale(0.12 -0.12)">
       <defs>
        <path id="DejaVuSans-36" d="M 2113 2584 
Q 1688 2584 1439 2293 
Q 1191 2003 1191 1497 
Q 1191 994 1439 701 
Q 1688 409 2113 409 
Q 2538 409 2786 701 
Q 3034 994 3034 1497 
Q 3034 2003 2786 2293 
Q 2538 2584 2113 2584 
z
M 3366 4563 
L 3366 3988 
Q 3128 4100 2886 4159 
Q 2644 4219 2406 4219 
Q 1781 4219 1451 3797 
Q 1122 3375 1075 2522 
Q 1259 2794 1537 2939 
Q 1816 3084 2150 3084 
Q 2853 3084 3261 2657 
Q 3669 2231 3669 1497 
Q 3669 778 3244 343 
Q 2819 -91 2113 -91 
Q 1303 -91 875 529 
Q 447 1150 447 2328 
Q 447 3434 972 4092 
Q 1497 4750 2381 4750 
Q 2619 4750 2861 4703 
Q 3103 4656 3366 4563 
z
" transform="scale(0.015625)"/>
       </defs>
       <use xlink:href="#DejaVuSans-2212"/>
       <use xlink:href="#DejaVuSans-36" x="83.789062"/>
       <use xlink:href="#DejaVuSans-30" x="147.412109"/>
      </g>
     </g>
    </g>
    <g id="ytick_6">
     <g id="line2d_71">
      <path d="M 63 117.771369 
L 453.6 117.771369 
" clip-path="url(#p997d117cda)" style="fill: none; stroke: #808080; stroke-width: 0.8; stroke-linecap: square"/>
     </g>
     <g id="line2d_72">
      <g>
       <use xlink:href="#m9c99ff43b7" x="63" y="117.771369" style="stroke: #000000; stroke-width: 0.8"/>
      </g>
     </g>
     <g id="text_11">
      <!-- −40 -->
      <g transform="translate(30.674375 122.330431) scale(0.12 -0.12)">
       <use xlink:href="#DejaVuSans-2212"/>
       <use xlink:href="#DejaVuSans-34" x="83.789062"/>
       <use xlink:href="#DejaVuSans-30" x="147.412109"/>
      </g>
     </g>
    </g>
    <g id="ytick_7">
     <g id="line2d_73">
      <path d="M 63 84.308056 
L 453.6 84.308056 
" clip-path="url(#p997d117cda)" style="fill: none; stroke: #808080; stroke-width: 0.8; stroke-linecap: square"/>
     </g>
     <g id="line2d_74">
      <g>
       <use xlink:href="#m9c99ff43b7" x="63" y="84.308056" style="stroke: #000000; stroke-width: 0.8"/>
      </g>
     </g>
     <g id="text_12">
      <!-- −20 -->
      <g transform="translate(30.674375 88.867118) scale(0.12 -0.12)">
       <use xlink:href="#DejaVuSans-2212"/>
       <use xlink:href="#DejaVuSans-32" x="83.789062"/>
       <use xlink:href="#DejaVuSans-30" x="147.412109"/>
      </g>
     </g>
    </g>
    <g id="ytick_8">
     <g id="line2d_75">
      <path d="M 63 50.844743 
L 453.6 50.844743 
" clip-path="url(#p997d117cda)" style="fill: none; stroke: #808080; stroke-width: 0.8; stroke-linecap: square"/>
     </g>
     <g id="line2d_76">
      <g>
       <use xlink:href="#m9c99ff43b7" x="63" y="50.844743" style="stroke: #000000; stroke-width: 0.8"/>
      </g>
     </g>
     <g id="text_13">
      <!-- 0 -->
      <g transform="translate(48.365 55.403805) scale(0.12 -0.12)">
       <use xlink:href="#DejaVuSans-30"/>
      </g>
     </g>
    </g>
    <g id="text_14">
     <!-- phase [deg] -->
     <g transform="translate(16.54375 215.104687) rotate(-90) scale(0.12 -0.12)">
      <defs>
       <path id="DejaVuSans-70" d="M 1159 525 
L 1159 -1331 
L 581 -1331 
L 581 3500 
L 1159 3500 
L 1159 2969 
Q 1341 3281 1617 3432 
Q 1894 3584 2278 3584 
Q 2916 3584 3314 3078 
Q 3713 2572 3713 1747 
Q 3713 922 3314 415 
Q 2916 -91 2278 -91 
Q 1894 -91 1617 61 
Q 1341 213 1159 525 
z
M 3116 1747 
Q 3116 2381 2855 2742 
Q 2594 3103 2138 3103 
Q 1681 3103 1420 2742 
Q 1159 2381 1159 1747 
Q 1159 1113 1420 752 
Q 1681 391 2138 391 
Q 2594 391 2855 752 
Q 3116 1113 3116 1747 
z
" transform="scale(0.015625)"/>
       <path id="DejaVuSans-68" d="M 3513 2113 
L 3513 0 
L 2938 0 
L 2938 2094 
Q 2938 2591 2744 2837 
Q 2550 3084 2163 3084 
Q 1697 3084 1428 2787 
Q 1159 2491 1159 1978 
L 1159 0 
L 581 0 
L 581 4863 
L 1159 4863 
L 1159 2956 
Q 1366 3272 1645 3428 
Q 1925 3584 2291 3584 
Q 2894 3584 3203 3211 
Q 3513 2838 3513 2113 
z
" transform="scale(0.015625)"/>
       <path id="DejaVuSans-61" d="M 2194 1759 
Q 1497 1759 1228 1600 
Q 959 1441 959 1056 
Q 959 750 1161 570 
Q 1363 391 1709 391 
Q 2188 391 2477 730 
Q 2766 1069 2766 1631 
L 2766 1759 
L 2194 1759 
z
M 3341 1997 
L 3341 0 
L 2766 0 
L 2766 531 
Q 2569 213 2275 61 
Q 1981 -91 1556 -91 
Q 1019 -91 701 211 
Q 384 513 384 1019 
Q 384 1609 779 1909 
Q 1175 2209 1959 2209 
L 2766 2209 
L 2766 2266 
Q 2766 2663 2505 2880 
Q 2244 3097 1772 3097 
Q 1472 3097 1187 3025 
Q 903 2953 641 2809 
L 641 3341 
Q 956 3463 1253 3523 
Q 1550 3584 1831 3584 
Q 2591 3584 2966 3190 
Q 3341 2797 3341 1997 
z
" transform="scale(0.015625)"/>
       <path id="DejaVuSans-73" d="M 2834 3397 
L 2834 2853 
Q 2591 2978 2328 3040 
Q 2066 3103 1784 3103 
Q 1356 3103 1142 2972 
Q 928 2841 928 2578 
Q 928 2378 1081 2264 
Q 1234 2150 1697 2047 
L 1894 2003 
Q 2506 1872 2764 1633 
Q 3022 1394 3022 966 
Q 3022 478 2636 193 
Q 2250 -91 1575 -91 
Q 1294 -91 989 -36 
Q 684 19 347 128 
L 347 722 
Q 666 556 975 473 
Q 1284 391 1588 391 
Q 1994 391 2212 530 
Q 2431 669 2431 922 
Q 2431 1156 2273 1281 
Q 2116 1406 1581 1522 
L 1381 1569 
Q 847 1681 609 1914 
Q 372 2147 372 2553 
Q 372 3047 722 3315 
Q 1072 3584 1716 3584 
Q 2034 3584 2315 3537 
Q 2597 3491 2834 3397 
z
" transform="scale(0.015625)"/>
       <path id="DejaVuSans-64" d="M 2906 2969 
L 2906 4863 
L 3481 4863 
L 3481 0 
L 2906 0 
L 2906 525 
Q 2725 213 2448 61 
Q 2172 -91 1784 -91 
Q 1150 -91 751 415 
Q 353 922 353 1747 
Q 353 2572 751 3078 
Q 1150 3584 1784 3584 
Q 2172 3584 2448 3432 
Q 2725 3281 2906 2969 
z
M 947 1747 
Q 947 1113 1208 752 
Q 1469 391 1925 391 
Q 2381 391 2643 752 
Q 2906 1113 2906 1747 
Q 2906 2381 2643 2742 
Q 2381 3103 1925 3103 
Q 1469 3103 1208 2742 
Q 947 2381 947 1747 
z
" transform="scale(0.015625)"/>
       <path id="DejaVuSans-67" d="M 2906 1791 
Q 2906 2416 2648 2759 
Q 2391 3103 1925 3103 
Q 1463 3103 1205 2759 
Q 947 2416 947 1791 
Q 947 1169 1205 825 
Q 1463 481 1925 481 
Q 2391 481 2648 825 
Q 2906 1169 2906 1791 
z
M 3481 434 
Q 3481 -459 3084 -895 
Q 2688 -1331 1869 -1331 
Q 1566 -1331 1297 -1286 
Q 1028 -1241 775 -1147 
L 775 -588 
Q 1028 -725 1275 -790 
Q 1522 -856 1778 -856 
Q 2344 -856 2625 -561 
Q 2906 -266 2906 331 
L 2906 616 
Q 2728 306 2450 153 
Q 2172 0 1784 0 
Q 1141 0 747 490 
Q 353 981 353 1791 
Q 353 2603 747 3093 
Q 1141 3584 1784 3584 
Q 2172 3584 2450 3431 
Q 2728 3278 2906 2969 
L 2906 3500 
L 3481 3500 
L 3481 434 
z
" transform="scale(0.015625)"/>
      </defs>
      <use xlink:href="#DejaVuSans-70"/>
      <use xlink:href="#DejaVuSans-68" x="63.476562"/>
      <use xlink:href="#DejaVuSans-61" x="126.855469"/>
      <use xlink:href="#DejaVuSans-73" x="188.134766"/>
      <use xlink:href="#DejaVuSans-65" x="240.234375"/>
      <use xlink:href="#DejaVuSans-20" x="301.757812"/>
      <use xlink:href="#DejaVuSans-5b" x="333.544922"/>
      <use xlink:href="#DejaVuSans-64" x="372.558594"/>
      <use xlink:href="#DejaVuSans-65" x="436.035156"/>
      <use xlink:href="#DejaVuSans-67" x="497.558594"/>
      <use xlink:href="#DejaVuSans-5d" x="561.035156"/>
     </g>
    </g>
   </g>
   <g id="line2d_77">
    <path d="M 80.754545 55.554545 
L 91.460804 56.658576 
L 100.382686 57.780083 
L 109.304568 59.127684 
L 116.442074 60.403194 
L 123.57958 61.89069 
L 130.717085 63.633538 
L 136.070215 65.141516 
L 141.423344 66.854778 
L 146.776473 68.811486 
L 152.129603 71.060448 
L 155.698355 72.75271 
L 159.267108 74.626251 
L 162.835861 76.709715 
L 166.404614 79.038184 
L 169.973367 81.654942 
L 173.54212 84.613798 
L 177.110873 87.98207 
L 180.679625 91.844399 
L 184.248378 96.307463 
L 186.032755 98.80497 
L 187.817131 101.505434 
L 189.601508 104.430823 
L 191.385884 107.605419 
L 193.17026 111.05581 
L 194.954637 114.810731 
L 196.739013 118.900649 
L 198.52339 123.356988 
L 200.307766 128.210857 
L 202.092143 133.491106 
L 203.876519 139.221578 
L 205.660895 145.417493 
L 207.445272 152.081046 
L 211.014025 166.726403 
L 214.582778 182.751549 
L 221.720283 215.620332 
L 225.289036 230.613067 
L 227.073413 237.460352 
L 228.857789 243.82833 
L 230.642165 249.708727 
L 232.426542 255.1092 
L 234.210918 260.048635 
L 235.995295 264.553024 
L 237.779671 268.652181 
L 239.564048 272.377318 
L 241.348424 275.759388 
L 243.1328 278.828014 
L 244.917177 281.610874 
L 246.701553 284.133401 
L 248.48593 286.418684 
L 250.270306 288.487509 
L 252.054683 290.358483 
L 253.839059 292.048189 
L 255.623435 293.57137 
L 257.407812 294.941105 
L 260.976565 297.265309 
L 264.545317 299.098621 
L 268.11407 300.502204 
L 271.682823 301.524257 
L 275.251576 302.20292 
L 278.820329 302.568543 
L 282.389082 302.645455 
L 285.957835 302.453356 
L 289.526587 302.008436 
L 293.09534 301.324264 
L 296.664093 300.412538 
L 300.232846 299.283702 
L 303.801599 297.947479 
L 307.370352 296.413331 
L 310.939105 294.690849 
L 314.507857 292.790092 
L 319.860987 289.628582 
L 325.214116 286.131157 
L 330.567245 282.344248 
L 337.704751 276.935864 
L 346.626633 269.793148 
L 366.254774 253.896297 
L 373.39228 248.449243 
L 380.529785 243.327223 
L 385.882915 239.732152 
L 391.236044 236.363396 
L 396.589173 233.226756 
L 401.942302 230.322162 
L 407.295432 227.644922 
L 412.648561 225.186907 
L 418.00169 222.937581 
L 423.35482 220.884867 
L 430.492325 218.43137 
L 435.845455 216.786685 
L 435.845455 216.786685 
" clip-path="url(#p997d117cda)" style="fill: none; stroke: #ff0000; stroke-width: 2; stroke-linecap: square"/>
   </g>
   <g id="line2d_78">
    <path d="M 80.754545 57.820951 
L 89.676428 59.157383 
L 96.813933 60.413392 
L 103.951439 61.865742 
L 111.088945 63.548504 
L 118.22645 65.503357 
L 123.57958 67.178726 
L 128.932709 69.062656 
L 134.285838 71.18727 
L 139.638968 73.591709 
L 144.992097 76.32424 
L 148.56085 78.35735 
L 152.129603 80.584291 
L 155.698355 83.030363 
L 159.267108 85.725379 
L 162.835861 88.70458 
L 166.404614 92.009711 
L 169.973367 95.690222 
L 173.54212 99.804525 
L 177.110873 104.421154 
L 180.679625 109.619461 
L 184.248378 115.489227 
L 187.817131 122.128106 
L 191.385884 129.63523 
L 194.954637 138.098763 
L 198.52339 147.57531 
L 202.092143 158.060955 
L 205.660895 169.458699 
L 211.014025 187.766059 
L 218.15153 212.541927 
L 221.720283 224.206067 
L 225.289036 234.986217 
L 228.857789 244.724566 
L 232.426542 253.370785 
L 235.995295 260.952138 
L 239.564048 267.541568 
L 243.1328 273.232482 
L 246.701553 278.122216 
L 250.270306 282.30275 
L 253.839059 285.856384 
L 257.407812 288.854393 
L 260.976565 291.357277 
L 264.545317 293.415769 
L 268.11407 295.0721 
L 271.682823 296.361296 
L 275.251576 297.312381 
L 278.820329 297.949444 
L 282.389082 298.292573 
L 285.957835 298.358654 
L 289.526587 298.162069 
L 293.09534 297.715301 
L 296.664093 297.029465 
L 300.232846 296.114785 
L 303.801599 294.981016 
L 307.370352 293.637823 
L 310.939105 292.095122 
L 314.507857 290.363376 
L 318.07661 288.453843 
L 323.42974 285.283283 
L 328.782869 281.786638 
L 334.135998 278.01595 
L 341.273504 272.661908 
L 350.195386 265.651329 
L 366.254774 252.999275 
L 373.39228 247.668196 
L 380.529785 242.647224 
L 385.882915 239.119295 
L 391.236044 235.811069 
L 396.589173 232.728996 
L 401.942302 229.873586 
L 407.295432 227.240678 
L 412.648561 224.822619 
L 418.00169 222.609304 
L 423.35482 220.589044 
L 430.492325 218.173886 
L 435.845455 216.55466 
L 435.845455 216.55466 
" clip-path="url(#p997d117cda)" style="fill: none; stroke: #0000ff; stroke-width: 2; stroke-linecap: square"/>
   </g>
   <g id="line2d_79">
    <path d="M 80.754545 60.082844 
L 87.892051 61.470558 
L 95.029557 63.071001 
L 102.167063 64.918959 
L 107.520192 66.492055 
L 112.873321 68.248171 
L 118.22645 70.211157 
L 123.57958 72.408833 
L 128.932709 74.873891 
L 134.285838 77.645056 
L 139.638968 80.768558 
L 143.20772 83.073634 
L 146.776473 85.579013 
L 150.345226 88.306578 
L 153.913979 91.281242 
L 157.482732 94.53135 
L 161.051485 98.089069 
L 164.620238 101.990714 
L 168.18899 106.276907 
L 171.757743 110.992423 
L 175.326496 116.185492 
L 178.895249 121.906205 
L 182.464002 128.203613 
L 186.032755 135.120975 
L 189.601508 142.688761 
L 193.17026 150.915322 
L 196.739013 159.776015 
L 200.307766 169.20285 
L 205.660895 184.133897 
L 216.367154 214.522461 
L 219.935907 224.059303 
L 223.50466 233.024305 
L 227.073413 241.321008 
L 230.642165 248.900339 
L 234.210918 255.752015 
L 237.779671 261.893622 
L 241.348424 267.360245 
L 244.917177 272.196137 
L 248.48593 276.448754 
L 252.054683 280.164889 
L 255.623435 283.388418 
L 259.192188 286.159171 
L 262.760941 288.512531 
L 266.329694 290.479476 
L 269.898447 292.086868 
L 273.4672 293.357863 
L 277.035952 294.312382 
L 280.604705 294.967576 
L 284.173458 295.338291 
L 287.742211 295.437503 
L 291.310964 295.276731 
L 294.879717 294.866425 
L 298.44847 294.216331 
L 302.017222 293.335837 
L 305.585975 292.234295 
L 309.154728 290.921319 
L 312.723481 289.407061 
L 316.292234 287.702443 
L 319.860987 285.819358 
L 325.214116 282.688875 
L 330.567245 279.235319 
L 335.920375 275.513547 
L 343.05788 270.237964 
L 353.764139 261.959288 
L 366.254774 252.332304 
L 373.39228 247.087232 
L 380.529785 242.141274 
L 385.882915 238.663222 
L 391.236044 235.399984 
L 396.589173 232.35848 
L 401.942302 229.539651 
L 407.295432 226.939723 
L 412.648561 224.551395 
L 418.00169 222.364879 
L 423.35482 220.368774 
L 430.492325 217.982156 
L 435.845455 216.381883 
L 435.845455 216.381883 
" clip-path="url(#p997d117cda)" style="fill: none; stroke: #008000; stroke-width: 2; stroke-linecap: square"/>
   </g>
   <g id="line2d_80">
    <path d="M 80.754545 62.337729 
L 87.892051 64.059824 
L 95.029557 66.043637 
L 100.382686 67.728013 
L 105.735815 69.603107 
L 111.088945 71.69192 
L 116.442074 74.020683 
L 121.795203 76.619435 
L 127.148333 79.522712 
L 132.501462 82.770376 
L 136.070215 85.149309 
L 139.638968 87.717099 
L 143.20772 90.490784 
L 146.776473 93.489135 
L 150.345226 96.732779 
L 153.913979 100.244269 
L 157.482732 104.048074 
L 161.051485 108.170434 
L 164.620238 112.639003 
L 168.18899 117.482184 
L 171.757743 122.728024 
L 175.326496 128.402539 
L 178.895249 134.527317 
L 182.464002 141.116317 
L 186.032755 148.171924 
L 189.601508 155.680507 
L 193.17026 163.608107 
L 198.52339 176.152575 
L 207.445272 198.00736 
L 214.582778 215.259705 
L 219.935907 227.443235 
L 223.50466 235.037004 
L 227.073413 242.140726 
L 230.642165 248.722759 
L 234.210918 254.770844 
L 237.779671 260.28772 
L 241.348424 265.286735 
L 244.917177 269.788022 
L 248.48593 273.815443 
L 252.054683 277.394335 
L 255.623435 280.549953 
L 259.192188 283.306473 
L 262.760941 285.68641 
L 266.329694 287.710338 
L 269.898447 289.396811 
L 273.4672 290.762425 
L 277.035952 291.821958 
L 280.604705 292.588568 
L 284.173458 293.074028 
L 287.742211 293.28897 
L 291.310964 293.243146 
L 294.879717 292.945695 
L 298.44847 292.405412 
L 302.017222 291.631009 
L 305.585975 290.631383 
L 309.154728 289.415861 
L 312.723481 287.994436 
L 316.292234 286.377975 
L 319.860987 284.578385 
L 325.214116 281.564579 
L 330.567245 278.217796 
L 335.920375 274.593431 
L 343.05788 269.4342 
L 353.764139 261.304115 
L 366.254774 251.816989 
L 373.39228 246.638226 
L 380.529785 241.750151 
L 385.882915 238.310607 
L 391.236044 235.082115 
L 396.589173 232.071956 
L 401.942302 229.281396 
L 407.295432 226.706959 
L 412.648561 224.341614 
L 418.00169 222.175818 
L 423.35482 220.198392 
L 430.492325 217.833845 
L 435.845455 216.24823 
L 435.845455 216.24823 
" clip-path="url(#p997d117cda)" style="fill: none; stroke: #00bfbf; stroke-width: 2; stroke-linecap: square"/>
   </g>
   <g id="line2d_81">
    <path d="M 80.754545 64.583159 
L 87.892051 66.634757 
L 93.24518 68.373251 
L 98.59831 70.304475 
L 103.951439 72.450228 
L 109.304568 74.834896 
L 114.657698 77.485781 
L 120.010827 80.433461 
L 125.363956 83.712179 
L 130.717085 87.36023 
L 134.285838 90.018343 
L 137.854591 92.873272 
L 141.423344 95.939728 
L 144.992097 99.233311 
L 148.56085 102.770432 
L 152.129603 106.568149 
L 155.698355 110.643907 
L 159.267108 115.015129 
L 162.835861 119.698628 
L 166.404614 124.709782 
L 169.973367 130.061436 
L 173.54212 135.762507 
L 177.110873 141.816289 
L 180.679625 148.218533 
L 184.248378 154.955439 
L 189.601508 165.629736 
L 194.954637 176.85823 
L 205.660895 200.115567 
L 212.798401 215.365916 
L 218.15153 226.234298 
L 221.720283 233.093719 
L 225.289036 239.592349 
L 228.857789 245.700053 
L 232.426542 251.398283 
L 235.995295 256.678348 
L 239.564048 261.539431 
L 243.1328 265.986626 
L 246.701553 270.029176 
L 250.270306 273.679 
L 253.839059 276.949522 
L 257.407812 279.854788 
L 260.976565 282.408842 
L 264.545317 284.625293 
L 268.11407 286.517057 
L 271.682823 288.096213 
L 275.251576 289.373959 
L 278.820329 290.360637 
L 282.389082 291.065805 
L 285.957835 291.498363 
L 289.526587 291.666691 
L 293.09534 291.57883 
L 296.664093 291.242665 
L 300.232846 290.666134 
L 303.801599 289.857437 
L 307.370352 288.825252 
L 310.939105 287.578942 
L 314.507857 286.128744 
L 318.07661 284.485943 
L 321.645363 282.662998 
L 326.998492 279.621165 
L 332.351622 276.25682 
L 337.704751 272.627546 
L 344.842257 267.48439 
L 357.332892 258.078442 
L 368.03915 250.103031 
L 375.176656 245.04091 
L 382.314162 240.280086 
L 387.667291 236.939259 
L 393.02042 233.809772 
L 398.37355 230.897032 
L 403.726679 228.200838 
L 409.079808 225.716629 
L 414.432937 223.436636 
L 419.786067 221.35087 
L 426.923572 218.852173 
L 434.061078 216.649587 
L 435.845455 216.141764 
L 435.845455 216.141764 
" clip-path="url(#p997d117cda)" style="fill: none; stroke: #bf00bf; stroke-width: 2; stroke-linecap: square"/>
   </g>
   <g id="patch_3">
    <path d="M 63 315 
L 63 43.2 
" style="fill: none; stroke: #000000; stroke-width: 0.8; stroke-linejoin: miter; stroke-linecap: square"/>
   </g>
   <g id="patch_4">
    <path d="M 453.6 315 
L 453.6 43.2 
" style="fill: none; stroke: #000000; stroke-width: 0.8; stroke-linejoin: miter; stroke-linecap: square"/>
   </g>
   <g id="patch_5">
    <path d="M 63 315 
L 453.6 315 
" style="fill: none; stroke: #000000; stroke-width: 0.8; stroke-linejoin: miter; stroke-linecap: square"/>
   </g>
   <g id="patch_6">
    <path d="M 63 43.2 
L 453.6 43.2 
" style="fill: none; stroke: #000000; stroke-width: 0.8; stroke-linejoin: miter; stroke-linecap: square"/>
   </g>
   <g id="text_15">
    <!-- CD stage -->
    <g transform="translate(230.927813 37.2) scale(0.12 -0.12)">
     <defs>
      <path id="DejaVuSans-43" d="M 4122 4306 
L 4122 3641 
Q 3803 3938 3442 4084 
Q 3081 4231 2675 4231 
Q 1875 4231 1450 3742 
Q 1025 3253 1025 2328 
Q 1025 1406 1450 917 
Q 1875 428 2675 428 
Q 3081 428 3442 575 
Q 3803 722 4122 1019 
L 4122 359 
Q 3791 134 3420 21 
Q 3050 -91 2638 -91 
Q 1578 -91 968 557 
Q 359 1206 359 2328 
Q 359 3453 968 4101 
Q 1578 4750 2638 4750 
Q 3056 4750 3426 4639 
Q 3797 4528 4122 4306 
z
" transform="scale(0.015625)"/>
      <path id="DejaVuSans-44" d="M 1259 4147 
L 1259 519 
L 2022 519 
Q 2988 519 3436 956 
Q 3884 1394 3884 2338 
Q 3884 3275 3436 3711 
Q 2988 4147 2022 4147 
L 1259 4147 
z
M 628 4666 
L 1925 4666 
Q 3281 4666 3915 4102 
Q 4550 3538 4550 2338 
Q 4550 1131 3912 565 
Q 3275 0 1925 0 
L 628 0 
L 628 4666 
z
" transform="scale(0.015625)"/>
      <path id="DejaVuSans-74" d="M 1172 4494 
L 1172 3500 
L 2356 3500 
L 2356 3053 
L 1172 3053 
L 1172 1153 
Q 1172 725 1289 603 
Q 1406 481 1766 481 
L 2356 481 
L 2356 0 
L 1766 0 
Q 1100 0 847 248 
Q 594 497 594 1153 
L 594 3053 
L 172 3053 
L 172 3500 
L 594 3500 
L 594 4494 
L 1172 4494 
z
" transform="scale(0.015625)"/>
     </defs>
     <use xlink:href="#DejaVuSans-43"/>
     <use xlink:href="#DejaVuSans-44" x="69.824219"/>
     <use xlink:href="#DejaVuSans-20" x="146.826172"/>
     <use xlink:href="#DejaVuSans-73" x="178.613281"/>
     <use xlink:href="#DejaVuSans-74" x="230.712891"/>
     <use xlink:href="#DejaVuSans-61" x="269.921875"/>
     <use xlink:href="#DejaVuSans-67" x="331.201172"/>
     <use xlink:href="#DejaVuSans-65" x="394.677734"/>
    </g>
   </g>
   <g id="legend_1">
    <g id="patch_7">
     <path d="M 291.87125 111.9375 
L 446.6 111.9375 
Q 448.6 111.9375 448.6 109.9375 
L 448.6 50.2 
Q 448.6 48.2 446.6 48.2 
L 291.87125 48.2 
Q 289.87125 48.2 289.87125 50.2 
L 289.87125 109.9375 
Q 289.87125 111.9375 291.87125 111.9375 
z
" style="fill: #ffffff; opacity: 0.8; stroke: #cccccc; stroke-linejoin: miter"/>
    </g>
    <g id="line2d_82">
     <path d="M 291.87125 55.818125 
L 296.87125 55.818125 
L 301.87125 55.818125 
" style="fill: none; stroke: #ff0000; stroke-width: 2; stroke-linecap: square"/>
    </g>
    <g id="text_16">
     <!-- gain, C_phz =  0.0e+00 -->
     <g transform="translate(303.87125 59.318125) scale(0.12 -0.12)">
      <defs>
       <path id="DejaVuSans-69" d="M 603 3500 
L 1178 3500 
L 1178 0 
L 603 0 
L 603 3500 
z
M 603 4863 
L 1178 4863 
L 1178 4134 
L 603 4134 
L 603 4863 
z
" transform="scale(0.015625)"/>
       <path id="DejaVuSans-2c" d="M 750 794 
L 1409 794 
L 1409 256 
L 897 -744 
L 494 -744 
L 750 256 
L 750 794 
z
" transform="scale(0.015625)"/>
       <path id="DejaVuSans-5f" d="M 3263 -1063 
L 3263 -1509 
L -63 -1509 
L -63 -1063 
L 3263 -1063 
z
" transform="scale(0.015625)"/>
       <path id="DejaVuSans-3d" d="M 678 2906 
L 4684 2906 
L 4684 2381 
L 678 2381 
L 678 2906 
z
M 678 1631 
L 4684 1631 
L 4684 1100 
L 678 1100 
L 678 1631 
z
" transform="scale(0.015625)"/>
       <path id="DejaVuSans-2e" d="M 684 794 
L 1344 794 
L 1344 0 
L 684 0 
L 684 794 
z
" transform="scale(0.015625)"/>
       <path id="DejaVuSans-2b" d="M 2944 4013 
L 2944 2272 
L 4684 2272 
L 4684 1741 
L 2944 1741 
L 2944 0 
L 2419 0 
L 2419 1741 
L 678 1741 
L 678 2272 
L 2419 2272 
L 2419 4013 
L 2944 4013 
z
" transform="scale(0.015625)"/>
      </defs>
      <use xlink:href="#DejaVuSans-67"/>
      <use xlink:href="#DejaVuSans-61" x="63.476562"/>
      <use xlink:href="#DejaVuSans-69" x="124.755859"/>
      <use xlink:href="#DejaVuSans-6e" x="152.539062"/>
      <use xlink:href="#DejaVuSans-2c" x="215.917969"/>
      <use xlink:href="#DejaVuSans-20" x="247.705078"/>
      <use xlink:href="#DejaVuSans-43" x="279.492188"/>
      <use xlink:href="#DejaVuSans-5f" x="349.316406"/>
      <use xlink:href="#DejaVuSans-70" x="399.316406"/>
      <use xlink:href="#DejaVuSans-68" x="462.792969"/>
      <use xlink:href="#DejaVuSans-7a" x="526.171875"/>
      <use xlink:href="#DejaVuSans-20" x="578.662109"/>
      <use xlink:href="#DejaVuSans-3d" x="610.449219"/>
      <use xlink:href="#DejaVuSans-20" x="694.238281"/>
      <use xlink:href="#DejaVuSans-20" x="726.025391"/>
      <use xlink:href="#DejaVuSans-30" x="757.8125"/>
      <use xlink:href="#DejaVuSans-2e" x="821.435547"/>
      <use xlink:href="#DejaVuSans-30" x="853.222656"/>
      <use xlink:href="#DejaVuSans-65" x="916.845703"/>
      <use xlink:href="#DejaVuSans-2b" x="978.369141"/>
      <use xlink:href="#DejaVuSans-30" x="1062.158203"/>
      <use xlink:href="#DejaVuSans-30" x="1125.78125"/>
     </g>
    </g>
    <g id="line2d_83">
     <path d="M 291.87125 67.765625 
L 296.87125 67.765625 
L 301.87125 67.765625 
" style="fill: none; stroke: #0000ff; stroke-width: 2; stroke-linecap: square"/>
    </g>
    <g id="text_17">
     <!-- gain, C_phz =  2.5e-15 -->
     <g transform="translate(303.87125 71.265625) scale(0.12 -0.12)">
      <defs>
       <path id="DejaVuSans-35" d="M 691 4666 
L 3169 4666 
L 3169 4134 
L 1269 4134 
L 1269 2991 
Q 1406 3038 1543 3061 
Q 1681 3084 1819 3084 
Q 2600 3084 3056 2656 
Q 3513 2228 3513 1497 
Q 3513 744 3044 326 
Q 2575 -91 1722 -91 
Q 1428 -91 1123 -41 
Q 819 9 494 109 
L 494 744 
Q 775 591 1075 516 
Q 1375 441 1709 441 
Q 2250 441 2565 725 
Q 2881 1009 2881 1497 
Q 2881 1984 2565 2268 
Q 2250 2553 1709 2553 
Q 1456 2553 1204 2497 
Q 953 2441 691 2322 
L 691 4666 
z
" transform="scale(0.015625)"/>
       <path id="DejaVuSans-2d" d="M 313 2009 
L 1997 2009 
L 1997 1497 
L 313 1497 
L 313 2009 
z
" transform="scale(0.015625)"/>
      </defs>
      <use xlink:href="#DejaVuSans-67"/>
      <use xlink:href="#DejaVuSans-61" x="63.476562"/>
      <use xlink:href="#DejaVuSans-69" x="124.755859"/>
      <use xlink:href="#DejaVuSans-6e" x="152.539062"/>
      <use xlink:href="#DejaVuSans-2c" x="215.917969"/>
      <use xlink:href="#DejaVuSans-20" x="247.705078"/>
      <use xlink:href="#DejaVuSans-43" x="279.492188"/>
      <use xlink:href="#DejaVuSans-5f" x="349.316406"/>
      <use xlink:href="#DejaVuSans-70" x="399.316406"/>
      <use xlink:href="#DejaVuSans-68" x="462.792969"/>
      <use xlink:href="#DejaVuSans-7a" x="526.171875"/>
      <use xlink:href="#DejaVuSans-20" x="578.662109"/>
      <use xlink:href="#DejaVuSans-3d" x="610.449219"/>
      <use xlink:href="#DejaVuSans-20" x="694.238281"/>
      <use xlink:href="#DejaVuSans-20" x="726.025391"/>
      <use xlink:href="#DejaVuSans-32" x="757.8125"/>
      <use xlink:href="#DejaVuSans-2e" x="821.435547"/>
      <use xlink:href="#DejaVuSans-35" x="853.222656"/>
      <use xlink:href="#DejaVuSans-65" x="916.845703"/>
      <use xlink:href="#DejaVuSans-2d" x="978.369141"/>
      <use xlink:href="#DejaVuSans-31" x="1014.453125"/>
      <use xlink:href="#DejaVuSans-35" x="1078.076172"/>
     </g>
    </g>
    <g id="line2d_84">
     <path d="M 291.87125 79.713125 
L 296.87125 79.713125 
L 301.87125 79.713125 
" style="fill: none; stroke: #008000; stroke-width: 2; stroke-linecap: square"/>
    </g>
    <g id="text_18">
     <!-- gain, C_phz =  5.0e-15 -->
     <g transform="translate(303.87125 83.213125) scale(0.12 -0.12)">
      <use xlink:href="#DejaVuSans-67"/>
      <use xlink:href="#DejaVuSans-61" x="63.476562"/>
      <use xlink:href="#DejaVuSans-69" x="124.755859"/>
      <use xlink:href="#DejaVuSans-6e" x="152.539062"/>
      <use xlink:href="#DejaVuSans-2c" x="215.917969"/>
      <use xlink:href="#DejaVuSans-20" x="247.705078"/>
      <use xlink:href="#DejaVuSans-43" x="279.492188"/>
      <use xlink:href="#DejaVuSans-5f" x="349.316406"/>
      <use xlink:href="#DejaVuSans-70" x="399.316406"/>
      <use xlink:href="#DejaVuSans-68" x="462.792969"/>
      <use xlink:href="#DejaVuSans-7a" x="526.171875"/>
      <use xlink:href="#DejaVuSans-20" x="578.662109"/>
      <use xlink:href="#DejaVuSans-3d" x="610.449219"/>
      <use xlink:href="#DejaVuSans-20" x="694.238281"/>
      <use xlink:href="#DejaVuSans-20" x="726.025391"/>
      <use xlink:href="#DejaVuSans-35" x="757.8125"/>
      <use xlink:href="#DejaVuSans-2e" x="821.435547"/>
      <use xlink:href="#DejaVuSans-30" x="853.222656"/>
      <use xlink:href="#DejaVuSans-65" x="916.845703"/>
      <use xlink:href="#DejaVuSans-2d" x="978.369141"/>
      <use xlink:href="#DejaVuSans-31" x="1014.453125"/>
      <use xlink:href="#DejaVuSans-35" x="1078.076172"/>
     </g>
    </g>
    <g id="line2d_85">
     <path d="M 291.87125 91.660625 
L 296.87125 91.660625 
L 301.87125 91.660625 
" style="fill: none; stroke: #00bfbf; stroke-width: 2; stroke-linecap: square"/>
    </g>
    <g id="text_19">
     <!-- gain, C_phz =  7.5e-15 -->
     <g transform="translate(303.87125 95.160625) scale(0.12 -0.12)">
      <defs>
       <path id="DejaVuSans-37" d="M 525 4666 
L 3525 4666 
L 3525 4397 
L 1831 0 
L 1172 0 
L 2766 4134 
L 525 4134 
L 525 4666 
z
" transform="scale(0.015625)"/>
      </defs>
      <use xlink:href="#DejaVuSans-67"/>
      <use xlink:href="#DejaVuSans-61" x="63.476562"/>
      <use xlink:href="#DejaVuSans-69" x="124.755859"/>
      <use xlink:href="#DejaVuSans-6e" x="152.539062"/>
      <use xlink:href="#DejaVuSans-2c" x="215.917969"/>
      <use xlink:href="#DejaVuSans-20" x="247.705078"/>
      <use xlink:href="#DejaVuSans-43" x="279.492188"/>
      <use xlink:href="#DejaVuSans-5f" x="349.316406"/>
      <use xlink:href="#DejaVuSans-70" x="399.316406"/>
      <use xlink:href="#DejaVuSans-68" x="462.792969"/>
      <use xlink:href="#DejaVuSans-7a" x="526.171875"/>
      <use xlink:href="#DejaVuSans-20" x="578.662109"/>
      <use xlink:href="#DejaVuSans-3d" x="610.449219"/>
      <use xlink:href="#DejaVuSans-20" x="694.238281"/>
      <use xlink:href="#DejaVuSans-20" x="726.025391"/>
      <use xlink:href="#DejaVuSans-37" x="757.8125"/>
      <use xlink:href="#DejaVuSans-2e" x="821.435547"/>
      <use xlink:href="#DejaVuSans-35" x="853.222656"/>
      <use xlink:href="#DejaVuSans-65" x="916.845703"/>
      <use xlink:href="#DejaVuSans-2d" x="978.369141"/>
      <use xlink:href="#DejaVuSans-31" x="1014.453125"/>
      <use xlink:href="#DejaVuSans-35" x="1078.076172"/>
     </g>
    </g>
    <g id="line2d_86">
     <path d="M 291.87125 103.608125 
L 296.87125 103.608125 
L 301.87125 103.608125 
" style="fill: none; stroke: #bf00bf; stroke-width: 2; stroke-linecap: square"/>
    </g>
    <g id="text_20">
     <!-- gain, C_phz =  1.0e-14 -->
     <g transform="translate(303.87125 107.108125) scale(0.12 -0.12)">
      <use xlink:href="#DejaVuSans-67"/>
      <use xlink:href="#DejaVuSans-61" x="63.476562"/>
      <use xlink:href="#DejaVuSans-69" x="124.755859"/>
      <use xlink:href="#DejaVuSans-6e" x="152.539062"/>
      <use xlink:href="#DejaVuSans-2c" x="215.917969"/>
      <use xlink:href="#DejaVuSans-20" x="247.705078"/>
      <use xlink:href="#DejaVuSans-43" x="279.492188"/>
      <use xlink:href="#DejaVuSans-5f" x="349.316406"/>
      <use xlink:href="#DejaVuSans-70" x="399.316406"/>
      <use xlink:href="#DejaVuSans-68" x="462.792969"/>
      <use xlink:href="#DejaVuSans-7a" x="526.171875"/>
      <use xlink:href="#DejaVuSans-20" x="578.662109"/>
      <use xlink:href="#DejaVuSans-3d" x="610.449219"/>
      <use xlink:href="#DejaVuSans-20" x="694.238281"/>
      <use xlink:href="#DejaVuSans-20" x="726.025391"/>
      <use xlink:href="#DejaVuSans-31" x="757.8125"/>
      <use xlink:href="#DejaVuSans-2e" x="821.435547"/>
      <use xlink:href="#DejaVuSans-30" x="853.222656"/>
      <use xlink:href="#DejaVuSans-65" x="916.845703"/>
      <use xlink:href="#DejaVuSans-2d" x="978.369141"/>
      <use xlink:href="#DejaVuSans-31" x="1014.453125"/>
      <use xlink:href="#DejaVuSans-34" x="1078.076172"/>
     </g>
    </g>
   </g>
  </g>
 </g>
 <defs>
  <clipPath id="p997d117cda">
   <rect x="63" y="43.2" width="390.6" height="271.8"/>
  </clipPath>
 </defs>
</svg>
