<?xml version="1.0" encoding="utf-8" standalone="no"?>
<!DOCTYPE svg PUBLIC "-//W3C//DTD SVG 1.1//EN"
  "http://www.w3.org/Graphics/SVG/1.1/DTD/svg11.dtd">
<svg xmlns:xlink="http://www.w3.org/1999/xlink" width="504pt" height="504pt" viewBox="0 0 504 504" xmlns="http://www.w3.org/2000/svg" version="1.1">
 <metadata>
  <rdf:RDF xmlns:dc="http://purl.org/dc/elements/1.1/" xmlns:cc="http://creativecommons.org/ns#" xmlns:rdf="http://www.w3.org/1999/02/22-rdf-syntax-ns#">
   <cc:Work>
    <dc:type rdf:resource="http://purl.org/dc/dcmitype/StillImage"/>
    <dc:date>2024-10-20T13:28:33.355914</dc:date>
    <dc:format>image/svg+xml</dc:format>
    <dc:creator>
     <cc:Agent>
      <dc:title>Matplotlib v3.9.2, https://matplotlib.org/</dc:title>
     </cc:Agent>
    </dc:creator>
   </cc:Work>
  </rdf:RDF>
 </metadata>
 <defs>
  <style type="text/css">*{stroke-linejoin: round; stroke-linecap: butt}</style>
 </defs>
 <g id="figure_1">
  <g id="patch_1">
   <path d="M 0 504 
L 504 504 
L 504 0 
L 0 0 
z
" style="fill: #ffffff"/>
  </g>
  <g id="axes_1">
   <g id="patch_2">
    <path d="M 67.52 456.28 
L 481.815 456.28 
L 481.815 26.88 
L 67.52 26.88 
z
" style="fill: #ffffff"/>
   </g>
   <g id="matplotlib.axis_1">
    <g id="xtick_1">
     <g id="line2d_1">
      <path d="M 67.52 456.28 
L 67.52 26.88 
" clip-path="url(#p812e1a365b)" style="fill: none; stroke: #808080; stroke-width: 0.8; stroke-linecap: square"/>
     </g>
     <g id="line2d_2">
      <defs>
       <path id="mc244b4e951" d="M 0 0 
L 0 3.5 
" style="stroke: #000000; stroke-width: 0.8"/>
      </defs>
      <g>
       <use xlink:href="#mc244b4e951" x="67.52" y="456.28" style="stroke: #000000; stroke-width: 0.8"/>
      </g>
     </g>
     <g id="text_1">
      <!-- −200 -->
      <g transform="translate(51.039688 472.398125) scale(0.12 -0.12)">
       <defs>
        <path id="DejaVuSans-2212" d="M 678 2272 
L 4684 2272 
L 4684 1741 
L 678 1741 
L 678 2272 
z
" transform="scale(0.015625)"/>
        <path id="DejaVuSans-32" d="M 1228 531 
L 3431 531 
L 3431 0 
L 469 0 
L 469 531 
Q 828 903 1448 1529 
Q 2069 2156 2228 2338 
Q 2531 2678 2651 2914 
Q 2772 3150 2772 3378 
Q 2772 3750 2511 3984 
Q 2250 4219 1831 4219 
Q 1534 4219 1204 4116 
Q 875 4013 500 3803 
L 500 4441 
Q 881 4594 1212 4672 
Q 1544 4750 1819 4750 
Q 2544 4750 2975 4387 
Q 3406 4025 3406 3419 
Q 3406 3131 3298 2873 
Q 3191 2616 2906 2266 
Q 2828 2175 2409 1742 
Q 1991 1309 1228 531 
z
" transform="scale(0.015625)"/>
        <path id="DejaVuSans-30" d="M 2034 4250 
Q 1547 4250 1301 3770 
Q 1056 3291 1056 2328 
Q 1056 1369 1301 889 
Q 1547 409 2034 409 
Q 2525 409 2770 889 
Q 3016 1369 3016 2328 
Q 3016 3291 2770 3770 
Q 2525 4250 2034 4250 
z
M 2034 4750 
Q 2819 4750 3233 4129 
Q 3647 3509 3647 2328 
Q 3647 1150 3233 529 
Q 2819 -91 2034 -91 
Q 1250 -91 836 529 
Q 422 1150 422 2328 
Q 422 3509 836 4129 
Q 1250 4750 2034 4750 
z
" transform="scale(0.015625)"/>
       </defs>
       <use xlink:href="#DejaVuSans-2212"/>
       <use xlink:href="#DejaVuSans-32" x="83.789062"/>
       <use xlink:href="#DejaVuSans-30" x="147.412109"/>
       <use xlink:href="#DejaVuSans-30" x="211.035156"/>
      </g>
     </g>
    </g>
    <g id="xtick_2">
     <g id="line2d_3">
      <path d="M 136.569167 456.28 
L 136.569167 26.88 
" clip-path="url(#p812e1a365b)" style="fill: none; stroke: #808080; stroke-width: 0.8; stroke-linecap: square"/>
     </g>
     <g id="line2d_4">
      <g>
       <use xlink:href="#mc244b4e951" x="136.569167" y="456.28" style="stroke: #000000; stroke-width: 0.8"/>
      </g>
     </g>
     <g id="text_2">
      <!-- −150 -->
      <g transform="translate(120.088854 472.398125) scale(0.12 -0.12)">
       <defs>
        <path id="DejaVuSans-31" d="M 794 531 
L 1825 531 
L 1825 4091 
L 703 3866 
L 703 4441 
L 1819 4666 
L 2450 4666 
L 2450 531 
L 3481 531 
L 3481 0 
L 794 0 
L 794 531 
z
" transform="scale(0.015625)"/>
        <path id="DejaVuSans-35" d="M 691 4666 
L 3169 4666 
L 3169 4134 
L 1269 4134 
L 1269 2991 
Q 1406 3038 1543 3061 
Q 1681 3084 1819 3084 
Q 2600 3084 3056 2656 
Q 3513 2228 3513 1497 
Q 3513 744 3044 326 
Q 2575 -91 1722 -91 
Q 1428 -91 1123 -41 
Q 819 9 494 109 
L 494 744 
Q 775 591 1075 516 
Q 1375 441 1709 441 
Q 2250 441 2565 725 
Q 2881 1009 2881 1497 
Q 2881 1984 2565 2268 
Q 2250 2553 1709 2553 
Q 1456 2553 1204 2497 
Q 953 2441 691 2322 
L 691 4666 
z
" transform="scale(0.015625)"/>
       </defs>
       <use xlink:href="#DejaVuSans-2212"/>
       <use xlink:href="#DejaVuSans-31" x="83.789062"/>
       <use xlink:href="#DejaVuSans-35" x="147.412109"/>
       <use xlink:href="#DejaVuSans-30" x="211.035156"/>
      </g>
     </g>
    </g>
    <g id="xtick_3">
     <g id="line2d_5">
      <path d="M 205.618333 456.28 
L 205.618333 26.88 
" clip-path="url(#p812e1a365b)" style="fill: none; stroke: #808080; stroke-width: 0.8; stroke-linecap: square"/>
     </g>
     <g id="line2d_6">
      <g>
       <use xlink:href="#mc244b4e951" x="205.618333" y="456.28" style="stroke: #000000; stroke-width: 0.8"/>
      </g>
     </g>
     <g id="text_3">
      <!-- −100 -->
      <g transform="translate(189.138021 472.398125) scale(0.12 -0.12)">
       <use xlink:href="#DejaVuSans-2212"/>
       <use xlink:href="#DejaVuSans-31" x="83.789062"/>
       <use xlink:href="#DejaVuSans-30" x="147.412109"/>
       <use xlink:href="#DejaVuSans-30" x="211.035156"/>
      </g>
     </g>
    </g>
    <g id="xtick_4">
     <g id="line2d_7">
      <path d="M 274.6675 456.28 
L 274.6675 26.88 
" clip-path="url(#p812e1a365b)" style="fill: none; stroke: #808080; stroke-width: 0.8; stroke-linecap: square"/>
     </g>
     <g id="line2d_8">
      <g>
       <use xlink:href="#mc244b4e951" x="274.6675" y="456.28" style="stroke: #000000; stroke-width: 0.8"/>
      </g>
     </g>
     <g id="text_4">
      <!-- −50 -->
      <g transform="translate(262.004688 472.398125) scale(0.12 -0.12)">
       <use xlink:href="#DejaVuSans-2212"/>
       <use xlink:href="#DejaVuSans-35" x="83.789062"/>
       <use xlink:href="#DejaVuSans-30" x="147.412109"/>
      </g>
     </g>
    </g>
    <g id="xtick_5">
     <g id="line2d_9">
      <path d="M 343.716667 456.28 
L 343.716667 26.88 
" clip-path="url(#p812e1a365b)" style="fill: none; stroke: #808080; stroke-width: 0.8; stroke-linecap: square"/>
     </g>
     <g id="line2d_10">
      <g>
       <use xlink:href="#mc244b4e951" x="343.716667" y="456.28" style="stroke: #000000; stroke-width: 0.8"/>
      </g>
     </g>
     <g id="text_5">
      <!-- 0 -->
      <g transform="translate(339.899167 472.398125) scale(0.12 -0.12)">
       <use xlink:href="#DejaVuSans-30"/>
      </g>
     </g>
    </g>
    <g id="xtick_6">
     <g id="line2d_11">
      <path d="M 412.765833 456.28 
L 412.765833 26.88 
" clip-path="url(#p812e1a365b)" style="fill: none; stroke: #808080; stroke-width: 0.8; stroke-linecap: square"/>
     </g>
     <g id="line2d_12">
      <g>
       <use xlink:href="#mc244b4e951" x="412.765833" y="456.28" style="stroke: #000000; stroke-width: 0.8"/>
      </g>
     </g>
     <g id="text_6">
      <!-- 50 -->
      <g transform="translate(405.130833 472.398125) scale(0.12 -0.12)">
       <use xlink:href="#DejaVuSans-35"/>
       <use xlink:href="#DejaVuSans-30" x="63.623047"/>
      </g>
     </g>
    </g>
    <g id="xtick_7">
     <g id="line2d_13">
      <path d="M 481.815 456.28 
L 481.815 26.88 
" clip-path="url(#p812e1a365b)" style="fill: none; stroke: #808080; stroke-width: 0.8; stroke-linecap: square"/>
     </g>
     <g id="line2d_14">
      <g>
       <use xlink:href="#mc244b4e951" x="481.815" y="456.28" style="stroke: #000000; stroke-width: 0.8"/>
      </g>
     </g>
     <g id="text_7">
      <!-- 100 -->
      <g transform="translate(470.3625 472.398125) scale(0.12 -0.12)">
       <use xlink:href="#DejaVuSans-31"/>
       <use xlink:href="#DejaVuSans-30" x="63.623047"/>
       <use xlink:href="#DejaVuSans-30" x="127.246094"/>
      </g>
     </g>
    </g>
    <g id="text_8">
     <!-- Re [kHz] -->
     <g transform="translate(249.352188 488.011875) scale(0.12 -0.12)">
      <defs>
       <path id="DejaVuSans-52" d="M 2841 2188 
Q 3044 2119 3236 1894 
Q 3428 1669 3622 1275 
L 4263 0 
L 3584 0 
L 2988 1197 
Q 2756 1666 2539 1819 
Q 2322 1972 1947 1972 
L 1259 1972 
L 1259 0 
L 628 0 
L 628 4666 
L 2053 4666 
Q 2853 4666 3247 4331 
Q 3641 3997 3641 3322 
Q 3641 2881 3436 2590 
Q 3231 2300 2841 2188 
z
M 1259 4147 
L 1259 2491 
L 2053 2491 
Q 2509 2491 2742 2702 
Q 2975 2913 2975 3322 
Q 2975 3731 2742 3939 
Q 2509 4147 2053 4147 
L 1259 4147 
z
" transform="scale(0.015625)"/>
       <path id="DejaVuSans-65" d="M 3597 1894 
L 3597 1613 
L 953 1613 
Q 991 1019 1311 708 
Q 1631 397 2203 397 
Q 2534 397 2845 478 
Q 3156 559 3463 722 
L 3463 178 
Q 3153 47 2828 -22 
Q 2503 -91 2169 -91 
Q 1331 -91 842 396 
Q 353 884 353 1716 
Q 353 2575 817 3079 
Q 1281 3584 2069 3584 
Q 2775 3584 3186 3129 
Q 3597 2675 3597 1894 
z
M 3022 2063 
Q 3016 2534 2758 2815 
Q 2500 3097 2075 3097 
Q 1594 3097 1305 2825 
Q 1016 2553 972 2059 
L 3022 2063 
z
" transform="scale(0.015625)"/>
       <path id="DejaVuSans-20" transform="scale(0.015625)"/>
       <path id="DejaVuSans-5b" d="M 550 4863 
L 1875 4863 
L 1875 4416 
L 1125 4416 
L 1125 -397 
L 1875 -397 
L 1875 -844 
L 550 -844 
L 550 4863 
z
" transform="scale(0.015625)"/>
       <path id="DejaVuSans-6b" d="M 581 4863 
L 1159 4863 
L 1159 1991 
L 2875 3500 
L 3609 3500 
L 1753 1863 
L 3688 0 
L 2938 0 
L 1159 1709 
L 1159 0 
L 581 0 
L 581 4863 
z
" transform="scale(0.015625)"/>
       <path id="DejaVuSans-48" d="M 628 4666 
L 1259 4666 
L 1259 2753 
L 3553 2753 
L 3553 4666 
L 4184 4666 
L 4184 0 
L 3553 0 
L 3553 2222 
L 1259 2222 
L 1259 0 
L 628 0 
L 628 4666 
z
" transform="scale(0.015625)"/>
       <path id="DejaVuSans-7a" d="M 353 3500 
L 3084 3500 
L 3084 2975 
L 922 459 
L 3084 459 
L 3084 0 
L 275 0 
L 275 525 
L 2438 3041 
L 353 3041 
L 353 3500 
z
" transform="scale(0.015625)"/>
       <path id="DejaVuSans-5d" d="M 1947 4863 
L 1947 -844 
L 622 -844 
L 622 -397 
L 1369 -397 
L 1369 4416 
L 622 4416 
L 622 4863 
L 1947 4863 
z
" transform="scale(0.015625)"/>
      </defs>
      <use xlink:href="#DejaVuSans-52"/>
      <use xlink:href="#DejaVuSans-65" x="64.982422"/>
      <use xlink:href="#DejaVuSans-20" x="126.505859"/>
      <use xlink:href="#DejaVuSans-5b" x="158.292969"/>
      <use xlink:href="#DejaVuSans-6b" x="197.306641"/>
      <use xlink:href="#DejaVuSans-48" x="255.216797"/>
      <use xlink:href="#DejaVuSans-7a" x="330.412109"/>
      <use xlink:href="#DejaVuSans-5d" x="382.902344"/>
     </g>
    </g>
   </g>
   <g id="matplotlib.axis_2">
    <g id="ytick_1">
     <g id="line2d_15">
      <path d="M 67.52 456.28 
L 481.815 456.28 
" clip-path="url(#p812e1a365b)" style="fill: none; stroke: #808080; stroke-width: 0.8; stroke-linecap: square"/>
     </g>
     <g id="line2d_16">
      <defs>
       <path id="m7fd53b391c" d="M 0 0 
L -3.5 0 
" style="stroke: #000000; stroke-width: 0.8"/>
      </defs>
      <g>
       <use xlink:href="#m7fd53b391c" x="67.52" y="456.28" style="stroke: #000000; stroke-width: 0.8"/>
      </g>
     </g>
     <g id="text_9">
      <!-- −150 -->
      <g transform="translate(27.559375 460.839063) scale(0.12 -0.12)">
       <use xlink:href="#DejaVuSans-2212"/>
       <use xlink:href="#DejaVuSans-31" x="83.789062"/>
       <use xlink:href="#DejaVuSans-35" x="147.412109"/>
       <use xlink:href="#DejaVuSans-30" x="211.035156"/>
      </g>
     </g>
    </g>
    <g id="ytick_2">
     <g id="line2d_17">
      <path d="M 67.52 384.713333 
L 481.815 384.713333 
" clip-path="url(#p812e1a365b)" style="fill: none; stroke: #808080; stroke-width: 0.8; stroke-linecap: square"/>
     </g>
     <g id="line2d_18">
      <g>
       <use xlink:href="#m7fd53b391c" x="67.52" y="384.713333" style="stroke: #000000; stroke-width: 0.8"/>
      </g>
     </g>
     <g id="text_10">
      <!-- −100 -->
      <g transform="translate(27.559375 389.272396) scale(0.12 -0.12)">
       <use xlink:href="#DejaVuSans-2212"/>
       <use xlink:href="#DejaVuSans-31" x="83.789062"/>
       <use xlink:href="#DejaVuSans-30" x="147.412109"/>
       <use xlink:href="#DejaVuSans-30" x="211.035156"/>
      </g>
     </g>
    </g>
    <g id="ytick_3">
     <g id="line2d_19">
      <path d="M 67.52 313.146667 
L 481.815 313.146667 
" clip-path="url(#p812e1a365b)" style="fill: none; stroke: #808080; stroke-width: 0.8; stroke-linecap: square"/>
     </g>
     <g id="line2d_20">
      <g>
       <use xlink:href="#m7fd53b391c" x="67.52" y="313.146667" style="stroke: #000000; stroke-width: 0.8"/>
      </g>
     </g>
     <g id="text_11">
      <!-- −50 -->
      <g transform="translate(35.194375 317.705729) scale(0.12 -0.12)">
       <use xlink:href="#DejaVuSans-2212"/>
       <use xlink:href="#DejaVuSans-35" x="83.789062"/>
       <use xlink:href="#DejaVuSans-30" x="147.412109"/>
      </g>
     </g>
    </g>
    <g id="ytick_4">
     <g id="line2d_21">
      <path d="M 67.52 241.58 
L 481.815 241.58 
" clip-path="url(#p812e1a365b)" style="fill: none; stroke: #808080; stroke-width: 0.8; stroke-linecap: square"/>
     </g>
     <g id="line2d_22">
      <g>
       <use xlink:href="#m7fd53b391c" x="67.52" y="241.58" style="stroke: #000000; stroke-width: 0.8"/>
      </g>
     </g>
     <g id="text_12">
      <!-- 0 -->
      <g transform="translate(52.885 246.139062) scale(0.12 -0.12)">
       <use xlink:href="#DejaVuSans-30"/>
      </g>
     </g>
    </g>
    <g id="ytick_5">
     <g id="line2d_23">
      <path d="M 67.52 170.013333 
L 481.815 170.013333 
" clip-path="url(#p812e1a365b)" style="fill: none; stroke: #808080; stroke-width: 0.8; stroke-linecap: square"/>
     </g>
     <g id="line2d_24">
      <g>
       <use xlink:href="#m7fd53b391c" x="67.52" y="170.013333" style="stroke: #000000; stroke-width: 0.8"/>
      </g>
     </g>
     <g id="text_13">
      <!-- 50 -->
      <g transform="translate(45.25 174.572396) scale(0.12 -0.12)">
       <use xlink:href="#DejaVuSans-35"/>
       <use xlink:href="#DejaVuSans-30" x="63.623047"/>
      </g>
     </g>
    </g>
    <g id="ytick_6">
     <g id="line2d_25">
      <path d="M 67.52 98.446667 
L 481.815 98.446667 
" clip-path="url(#p812e1a365b)" style="fill: none; stroke: #808080; stroke-width: 0.8; stroke-linecap: square"/>
     </g>
     <g id="line2d_26">
      <g>
       <use xlink:href="#m7fd53b391c" x="67.52" y="98.446667" style="stroke: #000000; stroke-width: 0.8"/>
      </g>
     </g>
     <g id="text_14">
      <!-- 100 -->
      <g transform="translate(37.615 103.005729) scale(0.12 -0.12)">
       <use xlink:href="#DejaVuSans-31"/>
       <use xlink:href="#DejaVuSans-30" x="63.623047"/>
       <use xlink:href="#DejaVuSans-30" x="127.246094"/>
      </g>
     </g>
    </g>
    <g id="ytick_7">
     <g id="line2d_27">
      <path d="M 67.52 26.88 
L 481.815 26.88 
" clip-path="url(#p812e1a365b)" style="fill: none; stroke: #808080; stroke-width: 0.8; stroke-linecap: square"/>
     </g>
     <g id="line2d_28">
      <g>
       <use xlink:href="#m7fd53b391c" x="67.52" y="26.88" style="stroke: #000000; stroke-width: 0.8"/>
      </g>
     </g>
     <g id="text_15">
      <!-- 150 -->
      <g transform="translate(37.615 31.439062) scale(0.12 -0.12)">
       <use xlink:href="#DejaVuSans-31"/>
       <use xlink:href="#DejaVuSans-35" x="63.623047"/>
       <use xlink:href="#DejaVuSans-30" x="127.246094"/>
      </g>
     </g>
    </g>
    <g id="text_16">
     <!-- Im [kHz] -->
     <g transform="translate(21.06375 266.91875) rotate(-90) scale(0.12 -0.12)">
      <defs>
       <path id="DejaVuSans-49" d="M 628 4666 
L 1259 4666 
L 1259 0 
L 628 0 
L 628 4666 
z
" transform="scale(0.015625)"/>
       <path id="DejaVuSans-6d" d="M 3328 2828 
Q 3544 3216 3844 3400 
Q 4144 3584 4550 3584 
Q 5097 3584 5394 3201 
Q 5691 2819 5691 2113 
L 5691 0 
L 5113 0 
L 5113 2094 
Q 5113 2597 4934 2840 
Q 4756 3084 4391 3084 
Q 3944 3084 3684 2787 
Q 3425 2491 3425 1978 
L 3425 0 
L 2847 0 
L 2847 2094 
Q 2847 2600 2669 2842 
Q 2491 3084 2119 3084 
Q 1678 3084 1418 2786 
Q 1159 2488 1159 1978 
L 1159 0 
L 581 0 
L 581 3500 
L 1159 3500 
L 1159 2956 
Q 1356 3278 1631 3431 
Q 1906 3584 2284 3584 
Q 2666 3584 2933 3390 
Q 3200 3197 3328 2828 
z
" transform="scale(0.015625)"/>
      </defs>
      <use xlink:href="#DejaVuSans-49"/>
      <use xlink:href="#DejaVuSans-6d" x="29.492188"/>
      <use xlink:href="#DejaVuSans-20" x="126.904297"/>
      <use xlink:href="#DejaVuSans-5b" x="158.691406"/>
      <use xlink:href="#DejaVuSans-6b" x="197.705078"/>
      <use xlink:href="#DejaVuSans-48" x="255.615234"/>
      <use xlink:href="#DejaVuSans-7a" x="330.810547"/>
      <use xlink:href="#DejaVuSans-5d" x="383.300781"/>
     </g>
    </g>
   </g>
   <g id="line2d_29">
    <path d="M 343.702014 241.58 
L 343.304315 61.009746 
L 343.304315 422.150254 
L -1 421.775092 
" clip-path="url(#p812e1a365b)" style="fill: none"/>
    <defs>
     <path id="me5cc33e593" d="M -3.5 3.5 
L 3.5 -3.5 
M -3.5 -3.5 
L 3.5 3.5 
" style="stroke: #bf00bf; stroke-width: 2"/>
    </defs>
    <g clip-path="url(#p812e1a365b)">
     <use xlink:href="#me5cc33e593" x="343.702014" y="241.58" style="fill-opacity: 0; stroke: #bf00bf; stroke-width: 2"/>
     <use xlink:href="#me5cc33e593" x="343.304315" y="61.009746" style="fill-opacity: 0; stroke: #bf00bf; stroke-width: 2"/>
     <use xlink:href="#me5cc33e593" x="343.304315" y="422.150254" style="fill-opacity: 0; stroke: #bf00bf; stroke-width: 2"/>
     <use xlink:href="#me5cc33e593" x="-1" y="421.775092" style="fill-opacity: 0; stroke: #bf00bf; stroke-width: 2"/>
    </g>
   </g>
   <g id="line2d_30">
    <path d="M 343.702014 241.58 
L 172.112115 215.080058 
L 172.112115 268.079942 
L -1 268.052116 
" clip-path="url(#p812e1a365b)" style="fill: none"/>
    <defs>
     <path id="mfd2231fbd1" d="M -5 0 
L 5 0 
M 0 5 
L 0 -5 
" style="stroke: #bf00bf; stroke-width: 2"/>
    </defs>
    <g clip-path="url(#p812e1a365b)">
     <use xlink:href="#mfd2231fbd1" x="343.702014" y="241.58" style="fill-opacity: 0; stroke: #bf00bf; stroke-width: 2"/>
     <use xlink:href="#mfd2231fbd1" x="172.112115" y="215.080058" style="fill-opacity: 0; stroke: #bf00bf; stroke-width: 2"/>
     <use xlink:href="#mfd2231fbd1" x="172.112115" y="268.079942" style="fill-opacity: 0; stroke: #bf00bf; stroke-width: 2"/>
     <use xlink:href="#mfd2231fbd1" x="-1" y="268.052116" style="fill-opacity: 0; stroke: #bf00bf; stroke-width: 2"/>
    </g>
   </g>
   <g id="line2d_31">
    <path d="M 343.702014 241.58 
L 343.304315 61.009746 
L 343.304315 422.150254 
L -1 421.775092 
M -1 241.58 
L 343.702014 241.58 
L 300.239977 66.916106 
L 300.239977 416.243894 
L -1 415.925979 
M -1 241.58 
L 343.702014 241.58 
L 257.354069 85.188325 
L 257.354069 397.971675 
L -1 397.727226 
M -1 241.58 
L 343.702014 241.58 
L 214.645231 121.134168 
L 214.645231 362.025832 
L -1 361.868487 
M -1 241.58 
L 343.702014 241.58 
L 172.112115 215.080058 
L 172.112115 268.079942 
L -1 268.052116 
" clip-path="url(#p812e1a365b)" style="fill: none"/>
    <defs>
     <path id="mca329ffa53" d="M 0 0.5 
C 0.132602 0.5 0.25979 0.447317 0.353553 0.353553 
C 0.447317 0.25979 0.5 0.132602 0.5 0 
C 0.5 -0.132602 0.447317 -0.25979 0.353553 -0.353553 
C 0.25979 -0.447317 0.132602 -0.5 0 -0.5 
C -0.132602 -0.5 -0.25979 -0.447317 -0.353553 -0.353553 
C -0.447317 -0.25979 -0.5 -0.132602 -0.5 0 
C -0.5 0.132602 -0.447317 0.25979 -0.353553 0.353553 
C -0.25979 0.447317 -0.132602 0.5 0 0.5 
z
" style="stroke: #bf00bf; stroke-width: 2"/>
    </defs>
    <g clip-path="url(#p812e1a365b)">
     <use xlink:href="#mca329ffa53" x="343.702014" y="241.58" style="fill: #bf00bf; stroke: #bf00bf; stroke-width: 2"/>
     <use xlink:href="#mca329ffa53" x="343.304315" y="61.009746" style="fill: #bf00bf; stroke: #bf00bf; stroke-width: 2"/>
     <use xlink:href="#mca329ffa53" x="343.304315" y="422.150254" style="fill: #bf00bf; stroke: #bf00bf; stroke-width: 2"/>
     <use xlink:href="#mca329ffa53" x="-1" y="421.775092" style="fill: #bf00bf; stroke: #bf00bf; stroke-width: 2"/>
     <use xlink:href="#mca329ffa53" x="-1" y="241.58" style="fill: #bf00bf; stroke: #bf00bf; stroke-width: 2"/>
     <use xlink:href="#mca329ffa53" x="343.702014" y="241.58" style="fill: #bf00bf; stroke: #bf00bf; stroke-width: 2"/>
     <use xlink:href="#mca329ffa53" x="300.239977" y="66.916106" style="fill: #bf00bf; stroke: #bf00bf; stroke-width: 2"/>
     <use xlink:href="#mca329ffa53" x="300.239977" y="416.243894" style="fill: #bf00bf; stroke: #bf00bf; stroke-width: 2"/>
     <use xlink:href="#mca329ffa53" x="-1" y="415.925979" style="fill: #bf00bf; stroke: #bf00bf; stroke-width: 2"/>
     <use xlink:href="#mca329ffa53" x="-1" y="241.58" style="fill: #bf00bf; stroke: #bf00bf; stroke-width: 2"/>
     <use xlink:href="#mca329ffa53" x="343.702014" y="241.58" style="fill: #bf00bf; stroke: #bf00bf; stroke-width: 2"/>
     <use xlink:href="#mca329ffa53" x="257.354069" y="85.188325" style="fill: #bf00bf; stroke: #bf00bf; stroke-width: 2"/>
     <use xlink:href="#mca329ffa53" x="257.354069" y="397.971675" style="fill: #bf00bf; stroke: #bf00bf; stroke-width: 2"/>
     <use xlink:href="#mca329ffa53" x="-1" y="397.727226" style="fill: #bf00bf; stroke: #bf00bf; stroke-width: 2"/>
     <use xlink:href="#mca329ffa53" x="-1" y="241.58" style="fill: #bf00bf; stroke: #bf00bf; stroke-width: 2"/>
     <use xlink:href="#mca329ffa53" x="343.702014" y="241.58" style="fill: #bf00bf; stroke: #bf00bf; stroke-width: 2"/>
     <use xlink:href="#mca329ffa53" x="214.645231" y="121.134168" style="fill: #bf00bf; stroke: #bf00bf; stroke-width: 2"/>
     <use xlink:href="#mca329ffa53" x="214.645231" y="362.025832" style="fill: #bf00bf; stroke: #bf00bf; stroke-width: 2"/>
     <use xlink:href="#mca329ffa53" x="-1" y="361.868487" style="fill: #bf00bf; stroke: #bf00bf; stroke-width: 2"/>
     <use xlink:href="#mca329ffa53" x="-1" y="241.58" style="fill: #bf00bf; stroke: #bf00bf; stroke-width: 2"/>
     <use xlink:href="#mca329ffa53" x="343.702014" y="241.58" style="fill: #bf00bf; stroke: #bf00bf; stroke-width: 2"/>
     <use xlink:href="#mca329ffa53" x="172.112115" y="215.080058" style="fill: #bf00bf; stroke: #bf00bf; stroke-width: 2"/>
     <use xlink:href="#mca329ffa53" x="172.112115" y="268.079942" style="fill: #bf00bf; stroke: #bf00bf; stroke-width: 2"/>
     <use xlink:href="#mca329ffa53" x="-1" y="268.052116" style="fill: #bf00bf; stroke: #bf00bf; stroke-width: 2"/>
    </g>
   </g>
   <g id="patch_3">
    <path d="M 67.52 456.28 
L 67.52 26.88 
" style="fill: none; stroke: #000000; stroke-width: 0.8; stroke-linejoin: miter; stroke-linecap: square"/>
   </g>
   <g id="patch_4">
    <path d="M 481.815 456.28 
L 481.815 26.88 
" style="fill: none; stroke: #000000; stroke-width: 0.8; stroke-linejoin: miter; stroke-linecap: square"/>
   </g>
   <g id="patch_5">
    <path d="M 67.52 456.28 
L 481.815 456.28 
" style="fill: none; stroke: #000000; stroke-width: 0.8; stroke-linejoin: miter; stroke-linecap: square"/>
   </g>
   <g id="patch_6">
    <path d="M 67.52 26.88 
L 481.815 26.88 
" style="fill: none; stroke: #000000; stroke-width: 0.8; stroke-linejoin: miter; stroke-linecap: square"/>
   </g>
   <g id="text_17">
    <!-- Root locus Rphz -->
    <g transform="translate(226.765 20.88) scale(0.12 -0.12)">
     <defs>
      <path id="DejaVuSans-6f" d="M 1959 3097 
Q 1497 3097 1228 2736 
Q 959 2375 959 1747 
Q 959 1119 1226 758 
Q 1494 397 1959 397 
Q 2419 397 2687 759 
Q 2956 1122 2956 1747 
Q 2956 2369 2687 2733 
Q 2419 3097 1959 3097 
z
M 1959 3584 
Q 2709 3584 3137 3096 
Q 3566 2609 3566 1747 
Q 3566 888 3137 398 
Q 2709 -91 1959 -91 
Q 1206 -91 779 398 
Q 353 888 353 1747 
Q 353 2609 779 3096 
Q 1206 3584 1959 3584 
z
" transform="scale(0.015625)"/>
      <path id="DejaVuSans-74" d="M 1172 4494 
L 1172 3500 
L 2356 3500 
L 2356 3053 
L 1172 3053 
L 1172 1153 
Q 1172 725 1289 603 
Q 1406 481 1766 481 
L 2356 481 
L 2356 0 
L 1766 0 
Q 1100 0 847 248 
Q 594 497 594 1153 
L 594 3053 
L 172 3053 
L 172 3500 
L 594 3500 
L 594 4494 
L 1172 4494 
z
" transform="scale(0.015625)"/>
      <path id="DejaVuSans-6c" d="M 603 4863 
L 1178 4863 
L 1178 0 
L 603 0 
L 603 4863 
z
" transform="scale(0.015625)"/>
      <path id="DejaVuSans-63" d="M 3122 3366 
L 3122 2828 
Q 2878 2963 2633 3030 
Q 2388 3097 2138 3097 
Q 1578 3097 1268 2742 
Q 959 2388 959 1747 
Q 959 1106 1268 751 
Q 1578 397 2138 397 
Q 2388 397 2633 464 
Q 2878 531 3122 666 
L 3122 134 
Q 2881 22 2623 -34 
Q 2366 -91 2075 -91 
Q 1284 -91 818 406 
Q 353 903 353 1747 
Q 353 2603 823 3093 
Q 1294 3584 2113 3584 
Q 2378 3584 2631 3529 
Q 2884 3475 3122 3366 
z
" transform="scale(0.015625)"/>
      <path id="DejaVuSans-75" d="M 544 1381 
L 544 3500 
L 1119 3500 
L 1119 1403 
Q 1119 906 1312 657 
Q 1506 409 1894 409 
Q 2359 409 2629 706 
Q 2900 1003 2900 1516 
L 2900 3500 
L 3475 3500 
L 3475 0 
L 2900 0 
L 2900 538 
Q 2691 219 2414 64 
Q 2138 -91 1772 -91 
Q 1169 -91 856 284 
Q 544 659 544 1381 
z
M 1991 3584 
L 1991 3584 
z
" transform="scale(0.015625)"/>
      <path id="DejaVuSans-73" d="M 2834 3397 
L 2834 2853 
Q 2591 2978 2328 3040 
Q 2066 3103 1784 3103 
Q 1356 3103 1142 2972 
Q 928 2841 928 2578 
Q 928 2378 1081 2264 
Q 1234 2150 1697 2047 
L 1894 2003 
Q 2506 1872 2764 1633 
Q 3022 1394 3022 966 
Q 3022 478 2636 193 
Q 2250 -91 1575 -91 
Q 1294 -91 989 -36 
Q 684 19 347 128 
L 347 722 
Q 666 556 975 473 
Q 1284 391 1588 391 
Q 1994 391 2212 530 
Q 2431 669 2431 922 
Q 2431 1156 2273 1281 
Q 2116 1406 1581 1522 
L 1381 1569 
Q 847 1681 609 1914 
Q 372 2147 372 2553 
Q 372 3047 722 3315 
Q 1072 3584 1716 3584 
Q 2034 3584 2315 3537 
Q 2597 3491 2834 3397 
z
" transform="scale(0.015625)"/>
      <path id="DejaVuSans-70" d="M 1159 525 
L 1159 -1331 
L 581 -1331 
L 581 3500 
L 1159 3500 
L 1159 2969 
Q 1341 3281 1617 3432 
Q 1894 3584 2278 3584 
Q 2916 3584 3314 3078 
Q 3713 2572 3713 1747 
Q 3713 922 3314 415 
Q 2916 -91 2278 -91 
Q 1894 -91 1617 61 
Q 1341 213 1159 525 
z
M 3116 1747 
Q 3116 2381 2855 2742 
Q 2594 3103 2138 3103 
Q 1681 3103 1420 2742 
Q 1159 2381 1159 1747 
Q 1159 1113 1420 752 
Q 1681 391 2138 391 
Q 2594 391 2855 752 
Q 3116 1113 3116 1747 
z
" transform="scale(0.015625)"/>
      <path id="DejaVuSans-68" d="M 3513 2113 
L 3513 0 
L 2938 0 
L 2938 2094 
Q 2938 2591 2744 2837 
Q 2550 3084 2163 3084 
Q 1697 3084 1428 2787 
Q 1159 2491 1159 1978 
L 1159 0 
L 581 0 
L 581 4863 
L 1159 4863 
L 1159 2956 
Q 1366 3272 1645 3428 
Q 1925 3584 2291 3584 
Q 2894 3584 3203 3211 
Q 3513 2838 3513 2113 
z
" transform="scale(0.015625)"/>
     </defs>
     <use xlink:href="#DejaVuSans-52"/>
     <use xlink:href="#DejaVuSans-6f" x="64.982422"/>
     <use xlink:href="#DejaVuSans-6f" x="126.164062"/>
     <use xlink:href="#DejaVuSans-74" x="187.345703"/>
     <use xlink:href="#DejaVuSans-20" x="226.554688"/>
     <use xlink:href="#DejaVuSans-6c" x="258.341797"/>
     <use xlink:href="#DejaVuSans-6f" x="286.125"/>
     <use xlink:href="#DejaVuSans-63" x="347.306641"/>
     <use xlink:href="#DejaVuSans-75" x="402.287109"/>
     <use xlink:href="#DejaVuSans-73" x="465.666016"/>
     <use xlink:href="#DejaVuSans-20" x="517.765625"/>
     <use xlink:href="#DejaVuSans-52" x="549.552734"/>
     <use xlink:href="#DejaVuSans-70" x="619.035156"/>
     <use xlink:href="#DejaVuSans-68" x="682.511719"/>
     <use xlink:href="#DejaVuSans-7a" x="745.890625"/>
    </g>
   </g>
   <g id="legend_1">
    <g id="patch_7">
     <path d="M 74.52 71.7225 
L 341.0025 71.7225 
Q 343.0025 71.7225 343.0025 69.7225 
L 343.0025 33.88 
Q 343.0025 31.88 341.0025 31.88 
L 74.52 31.88 
Q 72.52 31.88 72.52 33.88 
L 72.52 69.7225 
Q 72.52 71.7225 74.52 71.7225 
z
" style="fill: #ffffff; opacity: 0.8; stroke: #cccccc; stroke-linejoin: miter"/>
    </g>
    <g id="line2d_32">
     <path d="M 74.52 39.498125 
L 79.52 39.498125 
L 84.52 39.498125 
" style="fill: none"/>
     <g>
      <use xlink:href="#me5cc33e593" x="79.52" y="39.498125" style="fill-opacity: 0; stroke: #bf00bf; stroke-width: 2"/>
     </g>
    </g>
    <g id="text_18">
     <!-- poles servo, R_phz =  0.0e+00 -->
     <g transform="translate(86.52 42.998125) scale(0.12 -0.12)">
      <defs>
       <path id="DejaVuSans-72" d="M 2631 2963 
Q 2534 3019 2420 3045 
Q 2306 3072 2169 3072 
Q 1681 3072 1420 2755 
Q 1159 2438 1159 1844 
L 1159 0 
L 581 0 
L 581 3500 
L 1159 3500 
L 1159 2956 
Q 1341 3275 1631 3429 
Q 1922 3584 2338 3584 
Q 2397 3584 2469 3576 
Q 2541 3569 2628 3553 
L 2631 2963 
z
" transform="scale(0.015625)"/>
       <path id="DejaVuSans-76" d="M 191 3500 
L 800 3500 
L 1894 563 
L 2988 3500 
L 3597 3500 
L 2284 0 
L 1503 0 
L 191 3500 
z
" transform="scale(0.015625)"/>
       <path id="DejaVuSans-2c" d="M 750 794 
L 1409 794 
L 1409 256 
L 897 -744 
L 494 -744 
L 750 256 
L 750 794 
z
" transform="scale(0.015625)"/>
       <path id="DejaVuSans-5f" d="M 3263 -1063 
L 3263 -1509 
L -63 -1509 
L -63 -1063 
L 3263 -1063 
z
" transform="scale(0.015625)"/>
       <path id="DejaVuSans-3d" d="M 678 2906 
L 4684 2906 
L 4684 2381 
L 678 2381 
L 678 2906 
z
M 678 1631 
L 4684 1631 
L 4684 1100 
L 678 1100 
L 678 1631 
z
" transform="scale(0.015625)"/>
       <path id="DejaVuSans-2e" d="M 684 794 
L 1344 794 
L 1344 0 
L 684 0 
L 684 794 
z
" transform="scale(0.015625)"/>
       <path id="DejaVuSans-2b" d="M 2944 4013 
L 2944 2272 
L 4684 2272 
L 4684 1741 
L 2944 1741 
L 2944 0 
L 2419 0 
L 2419 1741 
L 678 1741 
L 678 2272 
L 2419 2272 
L 2419 4013 
L 2944 4013 
z
" transform="scale(0.015625)"/>
      </defs>
      <use xlink:href="#DejaVuSans-70"/>
      <use xlink:href="#DejaVuSans-6f" x="63.476562"/>
      <use xlink:href="#DejaVuSans-6c" x="124.658203"/>
      <use xlink:href="#DejaVuSans-65" x="152.441406"/>
      <use xlink:href="#DejaVuSans-73" x="213.964844"/>
      <use xlink:href="#DejaVuSans-20" x="266.064453"/>
      <use xlink:href="#DejaVuSans-73" x="297.851562"/>
      <use xlink:href="#DejaVuSans-65" x="349.951172"/>
      <use xlink:href="#DejaVuSans-72" x="411.474609"/>
      <use xlink:href="#DejaVuSans-76" x="452.587891"/>
      <use xlink:href="#DejaVuSans-6f" x="511.767578"/>
      <use xlink:href="#DejaVuSans-2c" x="572.949219"/>
      <use xlink:href="#DejaVuSans-20" x="604.736328"/>
      <use xlink:href="#DejaVuSans-52" x="636.523438"/>
      <use xlink:href="#DejaVuSans-5f" x="706.005859"/>
      <use xlink:href="#DejaVuSans-70" x="756.005859"/>
      <use xlink:href="#DejaVuSans-68" x="819.482422"/>
      <use xlink:href="#DejaVuSans-7a" x="882.861328"/>
      <use xlink:href="#DejaVuSans-20" x="935.351562"/>
      <use xlink:href="#DejaVuSans-3d" x="967.138672"/>
      <use xlink:href="#DejaVuSans-20" x="1050.927734"/>
      <use xlink:href="#DejaVuSans-20" x="1082.714844"/>
      <use xlink:href="#DejaVuSans-30" x="1114.501953"/>
      <use xlink:href="#DejaVuSans-2e" x="1178.125"/>
      <use xlink:href="#DejaVuSans-30" x="1209.912109"/>
      <use xlink:href="#DejaVuSans-65" x="1273.535156"/>
      <use xlink:href="#DejaVuSans-2b" x="1335.058594"/>
      <use xlink:href="#DejaVuSans-30" x="1418.847656"/>
      <use xlink:href="#DejaVuSans-30" x="1482.470703"/>
     </g>
    </g>
    <g id="line2d_33">
     <path d="M 74.52 51.445625 
L 79.52 51.445625 
L 84.52 51.445625 
" style="fill: none"/>
     <g>
      <use xlink:href="#mfd2231fbd1" x="79.52" y="51.445625" style="fill-opacity: 0; stroke: #bf00bf; stroke-width: 2"/>
     </g>
    </g>
    <g id="text_19">
     <!-- poles servo, R_phz =  2.5e-01 -->
     <g transform="translate(86.52 54.945625) scale(0.12 -0.12)">
      <defs>
       <path id="DejaVuSans-2d" d="M 313 2009 
L 1997 2009 
L 1997 1497 
L 313 1497 
L 313 2009 
z
" transform="scale(0.015625)"/>
      </defs>
      <use xlink:href="#DejaVuSans-70"/>
      <use xlink:href="#DejaVuSans-6f" x="63.476562"/>
      <use xlink:href="#DejaVuSans-6c" x="124.658203"/>
      <use xlink:href="#DejaVuSans-65" x="152.441406"/>
      <use xlink:href="#DejaVuSans-73" x="213.964844"/>
      <use xlink:href="#DejaVuSans-20" x="266.064453"/>
      <use xlink:href="#DejaVuSans-73" x="297.851562"/>
      <use xlink:href="#DejaVuSans-65" x="349.951172"/>
      <use xlink:href="#DejaVuSans-72" x="411.474609"/>
      <use xlink:href="#DejaVuSans-76" x="452.587891"/>
      <use xlink:href="#DejaVuSans-6f" x="511.767578"/>
      <use xlink:href="#DejaVuSans-2c" x="572.949219"/>
      <use xlink:href="#DejaVuSans-20" x="604.736328"/>
      <use xlink:href="#DejaVuSans-52" x="636.523438"/>
      <use xlink:href="#DejaVuSans-5f" x="706.005859"/>
      <use xlink:href="#DejaVuSans-70" x="756.005859"/>
      <use xlink:href="#DejaVuSans-68" x="819.482422"/>
      <use xlink:href="#DejaVuSans-7a" x="882.861328"/>
      <use xlink:href="#DejaVuSans-20" x="935.351562"/>
      <use xlink:href="#DejaVuSans-3d" x="967.138672"/>
      <use xlink:href="#DejaVuSans-20" x="1050.927734"/>
      <use xlink:href="#DejaVuSans-20" x="1082.714844"/>
      <use xlink:href="#DejaVuSans-32" x="1114.501953"/>
      <use xlink:href="#DejaVuSans-2e" x="1178.125"/>
      <use xlink:href="#DejaVuSans-35" x="1209.912109"/>
      <use xlink:href="#DejaVuSans-65" x="1273.535156"/>
      <use xlink:href="#DejaVuSans-2d" x="1335.058594"/>
      <use xlink:href="#DejaVuSans-30" x="1371.142578"/>
      <use xlink:href="#DejaVuSans-31" x="1434.765625"/>
     </g>
    </g>
    <g id="line2d_34">
     <path d="M 74.52 63.393125 
L 79.52 63.393125 
L 84.52 63.393125 
" style="fill: none"/>
     <g>
      <use xlink:href="#mca329ffa53" x="79.52" y="63.393125" style="fill: #bf00bf; stroke: #bf00bf; stroke-width: 2"/>
     </g>
    </g>
    <g id="text_20">
     <!-- poles servo, R_phz =  0.0e+00 ...  2.5e-01 -->
     <g transform="translate(86.52 66.893125) scale(0.12 -0.12)">
      <use xlink:href="#DejaVuSans-70"/>
      <use xlink:href="#DejaVuSans-6f" x="63.476562"/>
      <use xlink:href="#DejaVuSans-6c" x="124.658203"/>
      <use xlink:href="#DejaVuSans-65" x="152.441406"/>
      <use xlink:href="#DejaVuSans-73" x="213.964844"/>
      <use xlink:href="#DejaVuSans-20" x="266.064453"/>
      <use xlink:href="#DejaVuSans-73" x="297.851562"/>
      <use xlink:href="#DejaVuSans-65" x="349.951172"/>
      <use xlink:href="#DejaVuSans-72" x="411.474609"/>
      <use xlink:href="#DejaVuSans-76" x="452.587891"/>
      <use xlink:href="#DejaVuSans-6f" x="511.767578"/>
      <use xlink:href="#DejaVuSans-2c" x="572.949219"/>
      <use xlink:href="#DejaVuSans-20" x="604.736328"/>
      <use xlink:href="#DejaVuSans-52" x="636.523438"/>
      <use xlink:href="#DejaVuSans-5f" x="706.005859"/>
      <use xlink:href="#DejaVuSans-70" x="756.005859"/>
      <use xlink:href="#DejaVuSans-68" x="819.482422"/>
      <use xlink:href="#DejaVuSans-7a" x="882.861328"/>
      <use xlink:href="#DejaVuSans-20" x="935.351562"/>
      <use xlink:href="#DejaVuSans-3d" x="967.138672"/>
      <use xlink:href="#DejaVuSans-20" x="1050.927734"/>
      <use xlink:href="#DejaVuSans-20" x="1082.714844"/>
      <use xlink:href="#DejaVuSans-30" x="1114.501953"/>
      <use xlink:href="#DejaVuSans-2e" x="1178.125"/>
      <use xlink:href="#DejaVuSans-30" x="1209.912109"/>
      <use xlink:href="#DejaVuSans-65" x="1273.535156"/>
      <use xlink:href="#DejaVuSans-2b" x="1335.058594"/>
      <use xlink:href="#DejaVuSans-30" x="1418.847656"/>
      <use xlink:href="#DejaVuSans-30" x="1482.470703"/>
      <use xlink:href="#DejaVuSans-20" x="1546.09375"/>
      <use xlink:href="#DejaVuSans-2e" x="1577.880859"/>
      <use xlink:href="#DejaVuSans-2e" x="1609.667969"/>
      <use xlink:href="#DejaVuSans-2e" x="1641.455078"/>
      <use xlink:href="#DejaVuSans-20" x="1673.242188"/>
      <use xlink:href="#DejaVuSans-20" x="1705.029297"/>
      <use xlink:href="#DejaVuSans-32" x="1736.816406"/>
      <use xlink:href="#DejaVuSans-2e" x="1800.439453"/>
      <use xlink:href="#DejaVuSans-35" x="1832.226562"/>
      <use xlink:href="#DejaVuSans-65" x="1895.849609"/>
      <use xlink:href="#DejaVuSans-2d" x="1957.373047"/>
      <use xlink:href="#DejaVuSans-30" x="1993.457031"/>
      <use xlink:href="#DejaVuSans-31" x="2057.080078"/>
     </g>
    </g>
   </g>
  </g>
 </g>
 <defs>
  <clipPath id="p812e1a365b">
   <rect x="67.52" y="26.88" width="414.295" height="429.4"/>
  </clipPath>
 </defs>
</svg>
